<?xml version="1.0" encoding="utf-8"?>
<!-- Generator: Adobe Illustrator 21.1.0, SVG Export Plug-In . SVG Version: 6.00 Build 0)  -->
<svg version="1.1" id="Capa_1" xmlns="http://www.w3.org/2000/svg" xmlns:xlink="http://www.w3.org/1999/xlink" x="0px" y="0px"
	 viewBox="0 0 24.4 49.2" style="enable-background:new 0 0 24.4 49.2;" xml:space="preserve">
<style type="text/css">
	.st0{fill:#202020;}
</style>
<g>
	<g>
		<path class="st0" d="M12.9,49.2c-2.2,0-5.2-0.9-7.7-2.4c-3.2-1.9-4.9-4.4-4.9-7L0,9.6C-0.1,4.5,4.8,0,8.9,0c1.9,0,4.1,1,5.9,2.7
			c2,1.9,3.1,4.3,3.1,6.7l0.2,23.2c0,0.4-0.1,0.8-0.3,1.1c-0.1,0.2-2.5,3.8-7.1,3.6c-3.7-0.2-4.9-2.8-4.8-4.5L5.6,11.7
			c0-1.1,0.9-2,2-2c1.1,0,2,0.9,2,2l0.2,21.2c0,0.3,0.4,0.4,1,0.5c0.7,0,1.3-0.1,1.8-0.3c0.9-0.4,1.5-2.4,1.4-4.1L13.9,9.4
			c0-1.3-0.7-2.7-1.9-3.8C10.9,4.5,9.6,4,8.9,4C7.2,4,4,6.5,4,9.6l0.3,30.3c0,1.1,1.1,2.4,3,3.6c2.1,1.3,4.4,1.8,5.6,1.8
			c2.8,0,7.5-2.8,7.5-5.6l-0.2-17.2c0-1.1,0.9-2,2-2c1.1,0,2,0.9,2,2l0.2,17.2c0,3.3-2.6,6.2-5.7,7.9C16.8,48.6,14.7,49.2,12.9,49.2
			z"/>
	</g>
</g>
</svg>
