<?xml version="1.0" encoding="utf-8"?>
<!-- Generator: Adobe Illustrator 21.1.0, SVG Export Plug-In . SVG Version: 6.00 Build 0)  -->
<svg version="1.1" id="Layer_1" xmlns="http://www.w3.org/2000/svg" xmlns:xlink="http://www.w3.org/1999/xlink" x="0px" y="0px"
	 viewBox="0 0 512 479.7" style="enable-background:new 0 0 512 479.7;" xml:space="preserve">
<style type="text/css">
	.st0{fill:#0781CF;}
</style>
<path class="st0" d="M503.8,464V227.2l-112.7,56.3L375.4,0h-78.8l-16.2,258.8l-49.5,24.8L215.3,72h-78.5l-16.2,186.8L8.2,315v149H0
	v15.7h512V464L503.8,464L503.8,464z M311.4,15.7h49.2l0.9,16.3h-51.2L311.4,15.7z M309.4,47.7h53l0.9,16.3h-54.9L309.4,47.7z
	 M307.4,79.7h56.8l11.7,211.5l-32.1,16v-80l-47.2,23.6L307.4,79.7z M151.2,87.7h49.5l1.2,16.3h-52.2L151.2,87.7z M148.4,119.7h54.7
	l1.2,16.3H147L148.4,119.7z M145.6,151.7h59.9l10.3,139.5l-32,16v-80L137,250.6L145.6,151.7z M56.2,464H23.8v-16.3h32.3L56.2,464
	L56.2,464z M200.2,464H71.8v-56.3h128.3V464z M488.2,464H215.8v-16.3h272.3V464z M488.2,432H215.8v-40H56.2v40H23.8V324.7
	l144.3-72.2v80l160-80v80l160-80L488.2,432L488.2,432z"/>
</svg>
