<?xml version="1.0" encoding="utf-8"?>
<!-- Generator: Adobe Illustrator 21.1.0, SVG Export Plug-In . SVG Version: 6.00 Build 0)  -->
<svg version="1.1" id="Слой_1" xmlns="http://www.w3.org/2000/svg" xmlns:xlink="http://www.w3.org/1999/xlink" x="0px" y="0px"
	 viewBox="0 0 264.4 229.2" style="enable-background:new 0 0 264.4 229.2;" xml:space="preserve">
<style type="text/css">
	.st0{fill:#0781CF;}
</style>
<g>
	<path class="st0" d="M259.1,59.1L205.3,5.3c-3.4-3.4-7.9-5.3-12.8-5.3s-9.3,1.9-12.8,5.3l-12.6,12.6c-1.9,1.9-3.3,4.2-4.2,6.7
		L103.7,14c0,0,0,0,0,0C77.1,8.7,51.2,26,45.8,52.6l-2.7,13.5c-3,14.9,6.7,29.6,21.6,32.6c14.9,3,29.6-6.7,32.6-21.6l1.7-8.3
		l26.5,2.3l69.3,69.3l12.6,12.6c2.5,2.5,2.5,6.7,0,9.2c-2.5,2.5-6.7,2.5-9.2,0l-33.6-33.6c-2.3-2.3-6.1-2.3-8.5,0
		c-2.3,2.3-2.3,6.1,0,8.5l33.6,33.6c1.2,1.2,1.9,2.9,1.9,4.6s-0.7,3.4-1.9,4.6c-2.5,2.5-6.7,2.5-9.2,0l-33.6-33.6
		c-2.3-2.3-6.1-2.3-8.5,0c-2.3,2.3-2.3,6.1,0,8.5l33.6,33.6c2.5,2.5,2.5,6.7,0,9.2c-1.2,1.2-2.9,1.9-4.6,1.9c-1.7,0-3.4-0.7-4.6-1.9
		L129.1,164c-2.3-2.3-6.1-2.3-8.5,0c-2.3,2.3-2.3,6.1,0,8.5l33.6,33.6c2.5,2.5,2.5,6.7,0,9.2c-2.5,2.5-6.7,2.5-9.2,0L26,96.3
		L10.2,80.6c-2.3-2.3-6.1-2.3-8.5,0c-2.3,2.3-2.3,6.1,0,8.5l15.7,15.7l17.1,17.1l-9.4,9.4c-3.1,3.1-4.8,7.2-4.8,11.6
		s1.7,8.5,4.8,11.6l3.1,3.1c2.7,2.7,6.2,4.3,9.9,4.7c0.4,3.7,2,7.2,4.7,9.9l3.1,3.1c2.8,2.8,6.3,4.3,9.9,4.7c0.4,3.8,2,7.2,4.7,9.9
		l3.1,3.1c2.7,2.7,6.2,4.3,9.9,4.7c0.4,3.7,2,7.2,4.7,9.9l3.1,3.1c3.2,3.2,7.4,4.8,11.6,4.8s8.4-1.6,11.6-4.8l9.4-9.4l22.6,22.6
		c3.5,3.5,8.1,5.4,13.1,5.4s9.6-1.9,13.1-5.4c3.3-3.3,5.2-7.7,5.4-12.3c4.7-0.2,9-2.1,12.3-5.4c3.4-3.4,5.2-7.8,5.4-12.3
		c4.5-0.2,8.9-2,12.3-5.4c3.4-3.4,5.2-7.8,5.4-12.3c4.5-0.2,8.9-2,12.3-5.4c7.2-7.2,7.2-19,0-26.2l-8.3-8.3l30.4-30.4l21.2-21.2
		C266.1,77.6,266.1,66.1,259.1,59.1L259.1,59.1z M33.6,146c-1.7-1.7-1.7-4.5,0-6.1l8.8-8.8l9.2,9.2l-8.8,8.8c-1.7,1.7-4.5,1.7-6.1,0
		L33.6,146z M51.3,163.7c-1.7-1.7-1.7-4.5,0-6.1l8.8-8.8l9.2,9.2l-8.8,8.8c-1.7,1.7-4.5,1.7-6.1,0C54.4,166.7,51.3,163.7,51.3,163.7
		z M69.1,181.4c-0.8-0.8-1.3-1.9-1.3-3.1s0.5-2.3,1.3-3.1l8.8-8.8l9.2,9.2l-8.8,8.8c-1.7,1.7-4.5,1.7-6.1,0L69.1,181.4L69.1,181.4z
		 M96,202.2c-1.7,1.7-4.5,1.7-6.1,0l-3.1-3.1c-1.7-1.7-1.7-4.5,0-6.1l8.8-8.8l9.2,9.2C104.8,193.3,96,202.2,96,202.2z M199,127.7
		l-66.6-66.6c-1-1-2.3-1.6-3.7-1.7l-34.1-3c-0.2,0-0.4,0-0.5,0c-2.8,0-5.3,2-5.9,4.8l-2.7,13.5c-1.7,8.5-10,14-18.4,12.3
		c-4.1-0.8-7.6-3.2-9.9-6.7s-3.1-7.7-2.3-11.8L57.6,55c4.1-20.2,23.8-33.3,44-29.2c0,0,0.1,0,0.1,0l58.3,10.4l7.2,7.2l58.1,58.1
		L199,127.7z M250.6,76.1L233.7,93l-58.1-58.1c-1.1-1.1-1.8-2.7-1.8-4.3s0.6-3.1,1.8-4.3l12.6-12.6c1.1-1.1,2.7-1.8,4.3-1.8
		s3.1,0.6,4.3,1.8l53.8,53.8c1.1,1.1,1.8,2.7,1.8,4.3S251.7,75,250.6,76.1L250.6,76.1z"/>
	<circle class="st0" cx="236.1" cy="74.2" r="6"/>
</g>
</svg>
