<?xml version="1.0" encoding="utf-8"?>
<!-- Generator: Adobe Illustrator 21.1.0, SVG Export Plug-In . SVG Version: 6.00 Build 0)  -->
<svg version="1.1" id="Capa_1" xmlns="http://www.w3.org/2000/svg" xmlns:xlink="http://www.w3.org/1999/xlink" x="0px" y="0px"
	 viewBox="0 0 44.7 64.4" style="enable-background:new 0 0 44.7 64.4;" xml:space="preserve">
<style type="text/css">
	.st0{fill:#0781CF;stroke:#0781CF;stroke-width:2;stroke-miterlimit:10;}
</style>
<g>
	<path class="st0" d="M22.3,0C10,0,0,10,0,22.3C0,34.2,20.3,61.8,21.1,63l0.8,1.1c0.1,0.1,0.2,0.2,0.4,0.2c0.2,0,0.3-0.1,0.4-0.2
		l0.8-1.1c0.9-1.2,21.1-28.9,21.1-40.7C44.7,10,34.6,0,22.3,0z M22.3,3C33,3,41.7,11.7,41.7,22.3c0,9.4-15.3,31.5-19.3,37.3
		C18.3,53.9,3,31.7,3,22.3C3,11.7,11.7,3,22.3,3z"/>
	<g>
		<path class="st0" d="M26.7,27.3c-6.7,4.8-14.2-2.7-9.4-9.4c0.1-0.2,0.3-0.4,0.5-0.5c6.7-4.8,14.2,2.7,9.4,9.4
			C27.1,27,26.9,27.1,26.7,27.3z M25.8,18.6c-5.2-3.9-11.1,2-7.2,7.2c0,0.1,0.1,0.1,0.1,0.1c5.2,3.9,11.1-2,7.2-7.2
			C25.9,18.7,25.9,18.7,25.8,18.6z"/>
	</g>
</g>
</svg>
