<?xml version="1.0" encoding="utf-8"?>
<!-- Generator: Adobe Illustrator 21.1.0, SVG Export Plug-In . SVG Version: 6.00 Build 0)  -->
<svg version="1.1" id="Слой_1" xmlns="http://www.w3.org/2000/svg" xmlns:xlink="http://www.w3.org/1999/xlink" x="0px" y="0px"
	 viewBox="0 0 65 58" style="enable-background:new 0 0 65 58;" xml:space="preserve">
<style type="text/css">
	.st0{fill:none;stroke:#4B7FB7;stroke-width:4;stroke-linejoin:round;}
	.st1{fill:#FFFFFF;stroke:#4B7FB7;stroke-width:4;stroke-linejoin:round;}
</style>
<title>convert</title>
<g id="Слой_2">
	<g id="_1200_x_800">
		<g id="Слой_2-2">
			<path class="st0" d="M1.5,54.5c0,1.1,0.9,2,2,2h58c1.1,0,2-0.9,2-2v-34c0-1.1-0.9-2-2-2l-29-17l-29,17c-1.1,0-2,0.9-2,2V54.5z"/>
			<path class="st0" d="M32.5,42.5c-8.4-6.2-31-22.9-31-22v34c0,1.1,0.9,2,2,2h58c1.1,0,2-0.9,2-2v-34
				C63.5,19.4,32.5,42.5,32.5,42.5"/>
			<polyline class="st1" points="2.5,55.5 26.5,38.5 32.5,34.3 39.3,39 38.5,38.5 62.5,55.5 			"/>
		</g>
	</g>
</g>
</svg>
