<?xml version="1.0" encoding="utf-8"?>
<!-- Generator: Adobe Illustrator 22.0.0, SVG Export Plug-In . SVG Version: 6.00 Build 0)  -->
<svg version="1.1"
	 id="svg34" inkscape:version="0.91 r13725" sodipodi:docname="india.svg" xmlns:cc="http://creativecommons.org/ns#" xmlns:dc="http://purl.org/dc/elements/1.1/" xmlns:inkscape="http://www.inkscape.org/namespaces/inkscape" xmlns:rdf="http://www.w3.org/1999/02/22-rdf-syntax-ns#" xmlns:sodipodi="http://sodipodi.sourceforge.net/DTD/sodipodi-0.dtd" xmlns:svg="http://www.w3.org/2000/svg"
	 xmlns="http://www.w3.org/2000/svg" xmlns:xlink="http://www.w3.org/1999/xlink" x="0px" y="0px" viewBox="0 0 60 60"
	 style="enable-background:new 0 0 60 60;" xml:space="preserve">
<style type="text/css">
	.st0{clip-path:url(#SVGID_2_);fill:#FF9933;}
	.st1{clip-path:url(#SVGID_2_);fill:#FFFFFF;}
	.st2{clip-path:url(#SVGID_2_);fill:#128807;}
	.st3{clip-path:url(#SVGID_2_);}
	.st4{fill:#000088;}
	.st5{fill:#FFFFFF;}
</style>
<sodipodi:namedview  bordercolor="#666666" borderopacity="1" fit-margin-bottom="0" fit-margin-left="0" fit-margin-right="0" fit-margin-top="0" gridtolerance="10" guidetolerance="10" id="namedview36" inkscape:current-layer="svg34" inkscape:cx="41.685678" inkscape:cy="37.478366" inkscape:pageopacity="0" inkscape:pageshadow="2" inkscape:window-height="1017" inkscape:window-maximized="1" inkscape:window-width="1920" inkscape:window-x="-8" inkscape:window-y="-8" inkscape:zoom="8.3911111" objecttolerance="10" pagecolor="#ffffff" showgrid="false">
	</sodipodi:namedview>
<g>
	<defs>
		<circle id="SVGID_1_" cx="30" cy="30" r="30"/>
	</defs>
	<clipPath id="SVGID_2_">
		<use xlink:href="#SVGID_1_"  style="overflow:visible;"/>
	</clipPath>
	<rect id="rect2" y="0" class="st0" width="60" height="60"/>
	<rect id="rect4" y="20" class="st1" width="60" height="20"/>
	<rect id="rect6" y="40" class="st2" width="60" height="20"/>
	<g class="st3">
		<circle id="circle8" class="st4" cx="375" cy="375" r="120"/>
		<circle id="circle10" class="st5" cx="375" cy="375" r="105"/>
		<circle id="circle12" class="st4" cx="375" cy="375" r="21"/>
		<g>
			<g>
				<g id="b">
					<g id="a">
						<circle id="circle14" class="st4" cx="479.1" cy="388.7" r="5.2"/>
						<path id="path16" inkscape:connector-curvature="0" class="st4" d="M375,480l3.6-63l-3.6-30l-3.6,30L375,480z"/>
					</g>
					<g id="use19" transform="matrix(0.96592583,0.25881905,-0.25881905,0.96592583,0,0)">
						<g id="a_1_">
							<circle id="circle14_1_" class="st4" cx="472" cy="415.2" r="5.2"/>
							<path id="path16_1_" inkscape:connector-curvature="0" class="st4" d="M347.8,476.4l19.8-59.9l4.3-29.9l-11.2,28L347.8,476.4
								z"/>
						</g>
					</g>
				</g>
				<g id="c">
					<g id="b_1_">
						<g id="a_2_">
							<circle id="circle14_2_" class="st4" cx="458.3" cy="438.9" r="5.2"/>
							<path id="path16_2_" inkscape:connector-curvature="0" class="st4" d="M322.5,465.9l34.6-52.8l11.9-27.8l-18.1,24.2
								L322.5,465.9z"/>
						</g>
						<g id="use22" transform="matrix(0.8660254,0.5,-0.5,0.8660254,0,0)">
							<g id="a_3_">
								<circle id="circle14_3_" class="st4" cx="438.9" cy="458.3" r="5.2"/>
								<path id="path16_3_" inkscape:connector-curvature="0" class="st4" d="M300.8,449.2l47.1-42l18.7-23.8l-23.8,18.7
									L300.8,449.2z"/>
							</g>
						</g>
					</g>
				</g>
				<g>
					<g id="d">
						<g id="b_2_">
							<g id="a_4_">
								<circle id="circle14_4_" class="st4" cx="415.2" cy="472" r="5.2"/>
								<path id="path16_4_" inkscape:connector-curvature="0" class="st4" d="M284.1,427.5l56.4-28.4l24.2-18.1l-27.8,11.9
									L284.1,427.5z"/>
							</g>
							<g id="use19_1_" transform="matrix(0.96592583,0.25881905,-0.25881905,0.96592583,0,0)">
								<g id="a_5_">
									<circle id="circle14_5_" class="st4" cx="388.7" cy="479.1" r="5.2"/>
									<path id="path16_5_" inkscape:connector-curvature="0" class="st4" d="M273.6,402.2l61.8-12.8l28-11.2l-29.9,4.3
										L273.6,402.2z"/>
								</g>
							</g>
						</g>
						<g id="c_1_">
							<g id="b_3_">
								<g id="a_6_">
									<circle id="circle14_6_" class="st4" cx="361.3" cy="479.1" r="5.2"/>
									<path id="path16_6_" inkscape:connector-curvature="0" class="st4" d="M270,375l63,3.6l30-3.6l-30-3.6L270,375z"/>
								</g>
								<g id="use25" transform="matrix(0.5,0.8660254,-0.8660254,0.5,0,0)">
									<g id="a_7_">
										<circle id="circle14_7_" class="st4" cx="334.8" cy="472" r="5.2"/>
										<path id="path16_7_" inkscape:connector-curvature="0" class="st4" d="M273.6,347.8l59.9,19.8l29.9,4.3l-28-11.2
											L273.6,347.8z"/>
									</g>
								</g>
							</g>
						</g>
					</g>
					<g>
						<g>
							<g>
								<g id="b_4_">
									<g id="a_8_">
										<circle id="circle14_8_" class="st4" cx="311.1" cy="458.3" r="5.2"/>
										<path id="path16_8_" inkscape:connector-curvature="0" class="st4" d="M284.1,322.5l52.8,34.6l27.8,11.9l-24.2-18.1
											L284.1,322.5z"/>
									</g>
									<g id="use19_2_" transform="matrix(0.96592583,0.25881905,-0.25881905,0.96592583,0,0)">
										<g id="a_9_">
											<circle id="circle14_9_" class="st4" cx="291.7" cy="438.9" r="5.2"/>
											<path id="path16_9_" inkscape:connector-curvature="0" class="st4" d="M300.8,300.8l42,47.1l23.8,18.7l-18.7-23.8
												L300.8,300.8z"/>
										</g>
									</g>
								</g>
								<g id="c_2_">
									<g id="b_5_">
										<g id="a_10_">
											<circle id="circle14_10_" class="st4" cx="278" cy="415.2" r="5.2"/>
											<path id="path16_10_" inkscape:connector-curvature="0" class="st4" d="M322.5,284.1l28.4,56.4l18.1,24.2l-11.9-27.8
												L322.5,284.1z"/>
										</g>
										<g id="use22_1_" transform="matrix(0.8660254,0.5,-0.5,0.8660254,0,0)">
											<g id="a_11_">
												<circle id="circle14_11_" class="st4" cx="270.9" cy="388.7" r="5.2"/>
												<path id="path16_11_" inkscape:connector-curvature="0" class="st4" d="M347.8,273.6l12.8,61.8l11.2,28l-4.3-29.9
													L347.8,273.6z"/>
											</g>
										</g>
									</g>
								</g>
								<g>
									<g id="d_1_">
										<g id="b_6_">
											<g id="a_12_">
												<circle id="circle14_12_" class="st4" cx="270.9" cy="361.3" r="5.2"/>
												<path id="path16_12_" inkscape:connector-curvature="0" class="st4" d="M375,270l-3.6,63l3.6,30l3.6-30L375,270z"/>
											</g>
											<g id="use19_3_" transform="matrix(0.96592583,0.25881905,-0.25881905,0.96592583,0,0)">
												<g id="a_13_">
													<circle id="circle14_13_" class="st4" cx="278" cy="334.8" r="5.2"/>
													<path id="path16_13_" inkscape:connector-curvature="0" class="st4" d="M402.2,273.6l-19.8,59.9l-4.3,29.9l11.2-28
														L402.2,273.6z"/>
												</g>
											</g>
										</g>
										<g id="c_3_">
											<g id="b_7_">
												<g id="a_14_">
													<circle id="circle14_14_" class="st4" cx="291.7" cy="311.1" r="5.2"/>
													<path id="path16_14_" inkscape:connector-curvature="0" class="st4" d="M427.5,284.1l-34.6,52.8L381,364.6l18.1-24.2
														L427.5,284.1z"/>
												</g>
												<g id="use28" transform="matrix(-0.5,0.8660254,-0.8660254,-0.5,0,0)">
													<g id="a_15_">
														<circle id="circle14_15_" class="st4" cx="311.1" cy="291.7" r="5.2"/>
														<path id="path16_15_" inkscape:connector-curvature="0" class="st4" d="M449.2,300.8l-47.1,42l-18.7,23.8l23.8-18.7
															L449.2,300.8z"/>
													</g>
												</g>
											</g>
										</g>
									</g>
									<g>
										<g>
											<g>
												<g id="b_8_">
													<g id="a_16_">
														<circle id="circle14_16_" class="st4" cx="334.8" cy="278" r="5.2"/>
														<path id="path16_16_" inkscape:connector-curvature="0" class="st4" d="M465.9,322.5l-56.4,28.4L385.4,369l27.8-11.9
															L465.9,322.5z"/>
													</g>
													<g id="use19_4_" transform="matrix(0.96592583,0.25881905,-0.25881905,0.96592583,0,0)">
														<g id="a_17_">
															<circle id="circle14_17_" class="st4" cx="361.3" cy="270.9" r="5.2"/>
															<path id="path16_17_" inkscape:connector-curvature="0" class="st4" d="M476.4,347.8l-61.8,12.8l-28,11.2l29.9-4.3
																L476.4,347.8z"/>
														</g>
													</g>
												</g>
												<g id="c_4_">
													<g id="b_9_">
														<g id="a_18_">
															<circle id="circle14_18_" class="st4" cx="388.7" cy="270.9" r="5.2"/>
															<path id="path16_18_" inkscape:connector-curvature="0" class="st4" d="M480,375l-63-3.6l-30,3.6l30,3.6L480,375z"/>
														</g>
														<g id="use22_2_" transform="matrix(0.8660254,0.5,-0.5,0.8660254,0,0)">
															<g id="a_19_">
																<circle id="circle14_19_" class="st4" cx="415.2" cy="278" r="5.2"/>
																<path id="path16_19_" inkscape:connector-curvature="0" class="st4" d="M476.4,402.2l-59.9-19.8l-29.9-4.3l28,11.2
																	L476.4,402.2z"/>
															</g>
														</g>
													</g>
												</g>
												<g id="g32" transform="matrix(0.06666665,0,0,0.06666665,5,4.9999979)">
													<g id="d_2_">
														<g id="b_10_">
															<g id="a_20_">
																<circle id="circle14_20_" class="st4" cx="438.9" cy="291.7" r="5.2"/>
																<path id="path16_20_" inkscape:connector-curvature="0" class="st4" d="M465.9,427.5l-52.8-34.6L385.4,381
																	l24.2,18.1L465.9,427.5z"/>
															</g>
															<g id="use19_5_" transform="matrix(0.96592583,0.25881905,-0.25881905,0.96592583,0,0)">
																<g id="a_21_">
																	<circle id="circle14_21_" class="st4" cx="458.3" cy="311.1" r="5.2"/>
																	<path id="path16_21_" inkscape:connector-curvature="0" class="st4" d="M449.2,449.2l-42-47.1l-23.8-18.7
																		l18.7,23.8L449.2,449.2z"/>
																</g>
															</g>
														</g>
														<g id="c_5_">
															<g id="b_11_">
																<g id="a_22_">
																	<circle id="circle14_22_" class="st4" cx="472" cy="334.8" r="5.2"/>
																	<path id="path16_22_" inkscape:connector-curvature="0" class="st4" d="M427.5,465.9l-28.4-56.4L381,385.4
																		l11.9,27.8L427.5,465.9z"/>
																</g>
																<g id="use30" transform="matrix(-0.5,-0.8660254,0.8660254,-0.5,0,0)">
																	<g id="a_23_">
																		<circle id="circle14_23_" class="st4" cx="479.1" cy="361.3" r="5.2"/>
																		<path id="path16_23_" inkscape:connector-curvature="0" class="st4" d="M402.2,476.4l-12.8-61.8l-11.2-28
																			l4.3,29.9L402.2,476.4z"/>
																	</g>
																</g>
															</g>
														</g>
													</g>
												</g>
											</g>
										</g>
									</g>
								</g>
							</g>
						</g>
					</g>
				</g>
			</g>
		</g>
	</g>
</g>
</svg>
