<?xml version="1.0" encoding="utf-8"?>
<!-- Generator: Adobe Illustrator 21.1.0, SVG Export Plug-In . SVG Version: 6.00 Build 0)  -->
<svg version="1.1" id="Слой_1" xmlns="http://www.w3.org/2000/svg" xmlns:xlink="http://www.w3.org/1999/xlink" x="0px" y="0px"
	 viewBox="0 0 214 132" style="enable-background:new 0 0 214 132;" xml:space="preserve">
<style type="text/css">
	.st0{fill:#A48A42;}
	.st1{fill:#D1D1CD;}
	.st2{fill:#A19C95;}
	.st3{fill:#FFFFFF;}
	.st4{fill:url(#SVGID_1_);}
	.st5{fill:url(#SVGID_2_);stroke:#FFFFFF;stroke-width:0.8562;stroke-miterlimit:10;}
	.st6{fill:none;stroke:#D1B56F;stroke-width:0.8562;stroke-linejoin:round;stroke-miterlimit:10;}
	.st7{fill:url(#SVGID_3_);}
	.st8{fill:url(#SVGID_4_);}
	.st9{fill:url(#SVGID_5_);}
	.st10{fill:url(#SVGID_6_);}
	.st11{fill:#707070;}
	.st12{fill:#D1B56F;}
	.st13{fill:url(#SVGID_7_);}
	.st14{fill:url(#SVGID_8_);}
	.st15{fill:url(#SVGID_9_);}
	.st16{fill:none;stroke:#A19C95;stroke-width:0.2141;stroke-linecap:round;stroke-miterlimit:10;}
	.st17{fill:#4F4F4F;}
	.st18{fill:url(#SVGID_10_);}
	.st19{fill:url(#SVGID_11_);}
	.st20{fill:url(#SVGID_12_);}
	.st21{fill:url(#SVGID_13_);}
	.st22{fill:url(#SVGID_14_);}
	.st23{fill:url(#SVGID_15_);}
	.st24{fill:url(#SVGID_16_);}
	.st25{fill:url(#SVGID_17_);}
	.st26{fill:#E4E4E4;}
	.st27{fill:#A8A8A8;}
	.st28{fill:#8F8F8F;}
	.st29{fill:#57352F;}
	.st30{fill:#568E48;}
	.st31{fill:#346F2E;}
</style>
<g>
	<g>
		<path class="st0" d="M207.9,75.9l-90.5,51.9c-7.2,4.1-18,4.6-24.2,1l-88.3-51c-6.2-3.6-5.4-9.8,1.7-14l90.5-51.9
			c7.2-4.1,18-4.6,24.2-1l88.3,51C215.8,65.5,215.1,71.8,207.9,75.9z"/>
		<path class="st1" d="M207.9,72.9l-90.5,51.9c-7.2,4.1-18,4.6-24.2,1l-88.3-51c-6.2-3.6-5.4-9.8,1.7-14L97.1,8.9
			c7.2-4.1,18-4.6,24.2-1l88.3,51C215.8,62.5,215.1,68.8,207.9,72.9z"/>
	</g>
	<g>
		<g>
			<ellipse class="st2" cx="119.5" cy="55.9" rx="22.8" ry="13.2"/>
			<g>
				<path class="st2" d="M134.3,54.6l-12.8,7.3l12.7,6.9c0.7,0.4,1.6,0.4,2.3,0l9.4-5.4c1-0.6,1-2,0-2.5L134.3,54.6z"/>
			</g>
			<path class="st3" d="M99.8,12.5v43.4c0,6.3,8.8,11.4,19.7,11.4c10.9,0,19.7-5.1,19.7-11.4V12.5H99.8z"/>
			<linearGradient id="SVGID_1_" gradientUnits="userSpaceOnUse" x1="99.8298" y1="39.912" x2="139.1978" y2="39.912">
				<stop  offset="0.1166" style="stop-color:#B3B3B3"/>
				<stop  offset="0.1657" style="stop-color:#B3B3B3;stop-opacity:0.9259"/>
				<stop  offset="0.7801" style="stop-color:#B3B3B3;stop-opacity:0"/>
			</linearGradient>
			<path class="st4" d="M99.8,12.5v43.4c0,6.3,8.8,11.4,19.7,11.4c10.9,0,19.7-5.1,19.7-11.4V12.5H99.8z"/>
			<ellipse class="st3" cx="119.5" cy="12.5" rx="19.7" ry="11.4"/>
			<linearGradient id="SVGID_2_" gradientUnits="userSpaceOnUse" x1="136.2146" y1="7.6968" x2="97.8794" y2="18.7855">
				<stop  offset="0.5021" style="stop-color:#B3B3B3"/>
				<stop  offset="1" style="stop-color:#707070"/>
			</linearGradient>
			<ellipse class="st5" cx="119.5" cy="12.5" rx="19.7" ry="11.4"/>
			<g>
				<g>
					<line class="st6" x1="126.5" y1="26.3" x2="127.4" y2="26.3"/>
					<line class="st6" x1="126.5" y1="31.8" x2="127.4" y2="31.8"/>
					<line class="st6" x1="126.5" y1="37.4" x2="127.4" y2="37.4"/>
					<line class="st6" x1="126.5" y1="42.9" x2="127.4" y2="42.9"/>
					<line class="st6" x1="126.5" y1="48.4" x2="127.4" y2="48.4"/>
					<line class="st6" x1="126.5" y1="54" x2="127.4" y2="54"/>
					<line class="st6" x1="126.5" y1="59.5" x2="127.4" y2="59.5"/>
					<line class="st6" x1="126.5" y1="65" x2="127.4" y2="65"/>
				</g>
				<g>
					<line class="st6" x1="122.5" y1="29.1" x2="123.4" y2="29.1"/>
					<line class="st6" x1="122.5" y1="34.6" x2="123.4" y2="34.6"/>
					<line class="st6" x1="122.5" y1="40.1" x2="123.4" y2="40.1"/>
					<line class="st6" x1="122.5" y1="45.7" x2="123.4" y2="45.7"/>
					<line class="st6" x1="122.5" y1="51.2" x2="123.4" y2="51.2"/>
					<line class="st6" x1="122.5" y1="56.7" x2="123.4" y2="56.7"/>
					<line class="st6" x1="122.5" y1="62.3" x2="123.4" y2="62.3"/>
				</g>
				<polyline class="st6" points="122.5,23.5 123.4,23.5 123.6,23.5 126.5,26.3 123.6,29.1 126.5,31.8 123.6,34.6 126.5,37.4 
					123.6,40.1 126.5,42.9 123.6,45.7 126.5,48.4 123.6,51.2 126.5,54 123.6,56.7 126.5,59.5 123.6,62.3 126.5,65 123.6,67.8 				
					"/>
			</g>
			<path class="st3" d="M119.5,0.7c-8.6,0-15.6,6.9-15.6,11.8c0,5,7,9,15.6,9c8.6,0,15.6-4,15.6-9C135.1,7.6,128.1,0.7,119.5,0.7z"
				/>
			<linearGradient id="SVGID_3_" gradientUnits="userSpaceOnUse" x1="103.9588" y1="11.1018" x2="135.0688" y2="11.1018">
				<stop  offset="0.1166" style="stop-color:#B3B3B3"/>
				<stop  offset="0.1657" style="stop-color:#B3B3B3;stop-opacity:0.9259"/>
				<stop  offset="0.7801" style="stop-color:#B3B3B3;stop-opacity:0"/>
			</linearGradient>
			<path class="st7" d="M119.5,0.7c-8.6,0-15.6,6.9-15.6,11.8c0,5,7,9,15.6,9c8.6,0,15.6-4,15.6-9C135.1,7.6,128.1,0.7,119.5,0.7z"
				/>
			<g>
				<g>
					
						<linearGradient id="SVGID_4_" gradientUnits="userSpaceOnUse" x1="3762.1411" y1="-1378.2833" x2="3749.1826" y2="-1363.5482" gradientTransform="matrix(-0.866 0.5 1 0.5774 4761.7676 -1022.5002)">
						<stop  offset="0" style="stop-color:#8B8B8B;stop-opacity:0.3"/>
						<stop  offset="0.4086" style="stop-color:#818181;stop-opacity:0.4226"/>
						<stop  offset="1" style="stop-color:#767676;stop-opacity:0.6"/>
					</linearGradient>
					<polygon class="st8" points="139.9,60.3 131.2,65.3 134.9,67.2 143.5,62.2 					"/>
				</g>
				<polygon class="st3" points="131.2,65.3 131.2,36.5 134.9,38.5 134.9,67.2 				"/>
				<linearGradient id="SVGID_5_" gradientUnits="userSpaceOnUse" x1="159.5912" y1="8.8873" x2="106.1395" y2="95.4283">
					<stop  offset="0" style="stop-color:#B3B3B3;stop-opacity:0.7896"/>
					<stop  offset="1" style="stop-color:#B3B3B3;stop-opacity:0.335"/>
				</linearGradient>
				<polygon class="st9" points="131.2,65.3 131.2,36.5 134.9,38.5 134.9,67.2 				"/>
				<polygon class="st3" points="143.5,33.5 143.5,62.2 134.9,67.2 134.9,38.5 				"/>
				<linearGradient id="SVGID_6_" gradientUnits="userSpaceOnUse" x1="122.1858" y1="96.0385" x2="166.8457" y2="-23.8383">
					<stop  offset="0" style="stop-color:#B3B3B3;stop-opacity:0.335"/>
					<stop  offset="7.406294e-02" style="stop-color:#B3B3B3;stop-opacity:0.3176"/>
					<stop  offset="1" style="stop-color:#B3B3B3;stop-opacity:0.1"/>
				</linearGradient>
				<polygon class="st10" points="143.5,33.5 143.5,62.2 134.9,67.2 134.9,38.5 				"/>
				<g>
					<g>
						<polygon class="st11" points="139.6,32.9 132.1,37.1 135.2,38.8 142.7,34.5 						"/>
					</g>
					<g>
						<polygon class="st11" points="139.5,31.7 130,37.1 135.3,39.9 144.8,34.6 						"/>
					</g>
					<polygon class="st11" points="135.3,39.9 135.3,37.1 130,34.2 130,37.1 					"/>
					<polygon class="st11" points="135.3,39.9 135.3,37.1 130,34.2 130,37.1 					"/>
					<polygon class="st11" points="135.3,37.1 144.8,31.7 144.8,34.6 135.3,39.9 					"/>
					<polygon class="st11" points="139.5,28.8 130,34.2 135.3,37.1 144.8,31.7 					"/>
				</g>
			</g>
		</g>
		<g>
			<g>
				<g>
					<path class="st2" d="M62.7,88.4c0-0.7,0.4-1.3,1-1.6L105,62.1c0.3-0.2,0.6-0.3,1-0.3c0.3,0,0.7,0.1,1,0.3l16.5,9.6
						c0.6,0.3,0.9,0.9,0.9,1.6c0,0.7-0.3,1.3-0.9,1.6L82.6,98.7c-1.3,0.8-3,0.8-4.3,0L63.6,90C63,89.7,62.7,89,62.7,88.4z"/>
				</g>
				<g>
					<path class="st2" d="M47.9,79.7c0-0.7,0.4-1.3,1-1.6l41.4-24.6c0.3-0.2,0.6-0.3,1-0.3c0.3,0,0.7,0.1,1,0.3l16.5,9.6
						c0.6,0.3,0.9,0.9,0.9,1.6c0,0.7-0.3,1.3-0.9,1.6l-43.1,25l-16.8-9.9C48.3,81,47.9,80.4,47.9,79.7z"/>
				</g>
			</g>
			<g>
				<g>
					<g>
						<g>
							<polygon class="st3" points="50.7,67.9 65.6,59.3 80.5,67.9 80.5,79.5 65.6,88.1 50.7,79.5 							"/>
							<polygon class="st12" points="50.7,67.9 65.6,59.3 80.5,67.9 80.5,68.7 65.6,77.3 50.7,68.7 							"/>
							<linearGradient id="SVGID_7_" gradientUnits="userSpaceOnUse" x1="54.0871" y1="67.9043" x2="77.027" y2="67.9043">
								<stop  offset="0" style="stop-color:#B3B3B3;stop-opacity:0.7896"/>
								<stop  offset="1" style="stop-color:#B3B3B3;stop-opacity:0.335"/>
							</linearGradient>
							<polygon class="st13" points="77,67.9 65.6,61.3 54.1,67.9 65.6,74.5 							"/>
						</g>
						
							<linearGradient id="SVGID_8_" gradientUnits="userSpaceOnUse" x1="3577.7124" y1="86.8946" x2="3573.5227" y2="57.3042" gradientTransform="matrix(-1 0 0 1 3649.4275 0)">
							<stop  offset="0" style="stop-color:#B3B3B3;stop-opacity:0.335"/>
							<stop  offset="7.406294e-02" style="stop-color:#B3B3B3;stop-opacity:0.3176"/>
							<stop  offset="1" style="stop-color:#B3B3B3;stop-opacity:0.1"/>
						</linearGradient>
						<path class="st14" d="M65.4,88.2V76.8l15-8.8v11.6"/>
						
							<linearGradient id="SVGID_9_" gradientUnits="userSpaceOnUse" x1="-2957.8059" y1="74.4235" x2="-2966.8931" y2="81.0518" gradientTransform="matrix(1 0 0 1 3020.9551 0)">
							<stop  offset="0" style="stop-color:#B3B3B3;stop-opacity:0.7896"/>
							<stop  offset="1" style="stop-color:#B3B3B3;stop-opacity:0.335"/>
						</linearGradient>
						<path class="st15" d="M50.6,79.6V68l15,8.7v11.5"/>
					</g>
				</g>
				<g>
					<line class="st16" x1="54.1" y1="68" x2="52.6" y2="68.8"/>
					<line class="st16" x1="55.7" y1="69" x2="54.3" y2="69.8"/>
					<line class="st16" x1="57.4" y1="69.9" x2="55.9" y2="70.7"/>
					<line class="st16" x1="59" y1="70.9" x2="57.5" y2="71.7"/>
					<line class="st16" x1="60.6" y1="71.9" x2="59.1" y2="72.7"/>
					<line class="st16" x1="62.3" y1="72.8" x2="60.8" y2="73.6"/>
					<line class="st16" x1="63.9" y1="73.8" x2="62.4" y2="74.6"/>
					<line class="st16" x1="65.5" y1="74.8" x2="64" y2="75.6"/>
				</g>
				<g>
					<line class="st16" x1="67.2" y1="60.2" x2="65.6" y2="61.1"/>
					<line class="st16" x1="69.1" y1="61.3" x2="67.5" y2="62.2"/>
					<line class="st16" x1="71" y1="62.5" x2="69.4" y2="63.4"/>
					<line class="st16" x1="72.9" y1="63.6" x2="71.3" y2="64.5"/>
					<line class="st16" x1="74.8" y1="64.7" x2="73.2" y2="65.6"/>
					<line class="st16" x1="76.7" y1="65.9" x2="75.1" y2="66.7"/>
					<line class="st16" x1="78.6" y1="67" x2="77" y2="67.9"/>
				</g>
				<g>
					<polygon class="st17" points="70.8,85.2 69.7,85.8 69.7,82.1 70.8,81.5 					"/>
					<polygon class="st17" points="73.8,83.3 72.7,84 72.7,80.2 73.8,79.6 					"/>
					<polygon class="st17" points="76.9,81.5 75.8,82.1 75.8,78.3 76.9,77.7 					"/>
				</g>
			</g>
			<g>
				<g>
					<g>
						<g>
							<polygon class="st3" points="76.7,52.8 91.6,44.2 106.5,52.8 106.5,64.4 91.6,73 76.7,64.4 							"/>
							<polygon class="st12" points="76.7,52.8 91.6,44.2 106.5,52.8 106.5,53.6 91.6,62.2 76.7,53.6 							"/>
							<linearGradient id="SVGID_10_" gradientUnits="userSpaceOnUse" x1="80.1417" y1="52.7895" x2="103.0816" y2="52.7895">
								<stop  offset="0" style="stop-color:#B3B3B3;stop-opacity:0.7896"/>
								<stop  offset="1" style="stop-color:#B3B3B3;stop-opacity:0.335"/>
							</linearGradient>
							<polygon class="st18" points="103.1,52.8 91.6,46.2 80.1,52.8 91.6,59.4 							"/>
						</g>
						
							<linearGradient id="SVGID_11_" gradientUnits="userSpaceOnUse" x1="3551.658" y1="71.7799" x2="3547.468" y2="42.1895" gradientTransform="matrix(-1 0 0 1 3649.4275 0)">
							<stop  offset="0" style="stop-color:#B3B3B3;stop-opacity:0.335"/>
							<stop  offset="7.406294e-02" style="stop-color:#B3B3B3;stop-opacity:0.3176"/>
							<stop  offset="1" style="stop-color:#B3B3B3;stop-opacity:0.1"/>
						</linearGradient>
						<path class="st19" d="M91.5,73.1V61.6l15-8.8v11.6"/>
						
							<linearGradient id="SVGID_12_" gradientUnits="userSpaceOnUse" x1="-2931.7512" y1="59.3088" x2="-2940.8386" y2="65.9371" gradientTransform="matrix(1 0 0 1 3020.9551 0)">
							<stop  offset="0" style="stop-color:#B3B3B3;stop-opacity:0.7896"/>
							<stop  offset="1" style="stop-color:#B3B3B3;stop-opacity:0.335"/>
						</linearGradient>
						<path class="st20" d="M76.6,64.4V52.9l15,8.7v11.5"/>
					</g>
				</g>
				<g>
					<line class="st16" x1="80.2" y1="52.9" x2="78.7" y2="53.7"/>
					<line class="st16" x1="81.8" y1="53.9" x2="80.3" y2="54.7"/>
					<line class="st16" x1="83.4" y1="54.8" x2="81.9" y2="55.6"/>
					<line class="st16" x1="85.1" y1="55.8" x2="83.6" y2="56.6"/>
					<line class="st16" x1="86.7" y1="56.8" x2="85.2" y2="57.6"/>
					<line class="st16" x1="88.3" y1="57.7" x2="86.8" y2="58.5"/>
					<line class="st16" x1="89.9" y1="58.7" x2="88.5" y2="59.5"/>
					<line class="st16" x1="91.6" y1="59.7" x2="90.1" y2="60.5"/>
				</g>
				<g>
					<line class="st16" x1="93.3" y1="45.1" x2="91.7" y2="46"/>
					<line class="st16" x1="95.2" y1="46.2" x2="93.6" y2="47.1"/>
					<line class="st16" x1="97.1" y1="47.4" x2="95.5" y2="48.2"/>
					<line class="st16" x1="99" y1="48.5" x2="97.4" y2="49.4"/>
					<line class="st16" x1="100.9" y1="49.6" x2="99.3" y2="50.5"/>
					<line class="st16" x1="102.8" y1="50.7" x2="101.2" y2="51.6"/>
					<line class="st16" x1="104.7" y1="51.9" x2="103.1" y2="52.8"/>
				</g>
				<g>
					<polygon class="st17" points="96.8,70.1 95.7,70.7 95.7,67 96.8,66.4 					"/>
					<polygon class="st17" points="99.9,68.2 98.8,68.8 98.8,65.1 99.9,64.5 					"/>
					<polygon class="st17" points="102.9,66.3 101.8,67 101.8,63.2 102.9,62.6 					"/>
				</g>
			</g>
			<g>
				<g>
					<g>
						<g>
							<polygon class="st3" points="65.6,71.8 106.5,48 121.2,56.5 121.2,73 80.3,96.8 65.6,88.2 							"/>
							<g>
								<polygon class="st12" points="74,83.2 65.6,78.2 65.6,83 74,87.9 								"/>
							</g>
							<g>
								<g>
									<polygon class="st12" points="65.5,71.9 65.5,73.5 72.9,75 72.9,73.4 									"/>
									<polygon class="st12" points="80.3,80.6 72.9,73.4 72.9,75 80.3,82.2 									"/>
								</g>
								<g>
									<polygon class="st3" points="106.4,47.8 65.3,71.9 72.7,73.4 113.8,49.3 									"/>
									<linearGradient id="SVGID_13_" gradientUnits="userSpaceOnUse" x1="65.3172" y1="60.5774" x2="113.7607" y2="60.5774">
										<stop  offset="0" style="stop-color:#B3B3B3;stop-opacity:0.7896"/>
										<stop  offset="1" style="stop-color:#B3B3B3;stop-opacity:0.335"/>
									</linearGradient>
									<polygon class="st21" points="106.4,47.8 65.3,71.9 72.7,73.4 113.8,49.3 									"/>
									<polygon class="st3" points="121.2,56.4 113.8,49.3 72.8,73.3 80.2,80.5 									"/>
									<linearGradient id="SVGID_14_" gradientUnits="userSpaceOnUse" x1="72.8468" y1="64.8888" x2="121.1635" y2="64.8888">
										<stop  offset="0" style="stop-color:#B3B3B3;stop-opacity:0.335"/>
										<stop  offset="7.406294e-02" style="stop-color:#B3B3B3;stop-opacity:0.3176"/>
										<stop  offset="1" style="stop-color:#B3B3B3;stop-opacity:0.1"/>
									</linearGradient>
									<polygon class="st22" points="121.2,56.4 113.8,49.3 72.8,73.3 80.2,80.5 									"/>
								</g>
							</g>
						</g>
						
							<linearGradient id="SVGID_15_" gradientUnits="userSpaceOnUse" x1="3551.3145" y1="94.8404" x2="3542.6873" y2="33.9107" gradientTransform="matrix(-1 0 0 1 3649.4275 0)">
							<stop  offset="0" style="stop-color:#B3B3B3;stop-opacity:0.335"/>
							<stop  offset="7.406294e-02" style="stop-color:#B3B3B3;stop-opacity:0.3176"/>
							<stop  offset="1" style="stop-color:#B3B3B3;stop-opacity:0.1"/>
						</linearGradient>
						<path class="st23" d="M80.2,96.9V80.6l41-24V73"/>
						
							<linearGradient id="SVGID_16_" gradientUnits="userSpaceOnUse" x1="-2941.9729" y1="79.953" x2="-2952.8315" y2="87.8734" gradientTransform="matrix(1 0 0 1 3020.9551 0)">
							<stop  offset="0" style="stop-color:#B3B3B3;stop-opacity:0.7896"/>
							<stop  offset="1" style="stop-color:#B3B3B3;stop-opacity:0.335"/>
						</linearGradient>
						<path class="st24" d="M65.5,88.2V71.9l7.3,1.5l7.5,7.2v16.3"/>
					</g>
				</g>
				<g>
				</g>
			</g>
			<g>
				<polygon class="st12" points="80.2,80.6 80.2,82.2 121.2,58.2 121.2,56.6 				"/>
			</g>
			<g>
				<polygon class="st12" points="95.7,77.8 95.7,82.5 121.2,67.7 121.2,62.9 				"/>
			</g>
			<g>
				<g>
					<line class="st6" x1="89.8" y1="78.1" x2="90.5" y2="77.7"/>
					<line class="st6" x1="89.8" y1="82.6" x2="90.5" y2="82.2"/>
					<line class="st6" x1="89.8" y1="87.2" x2="90.5" y2="86.8"/>
					<line class="st6" x1="89.8" y1="91.7" x2="90.5" y2="91.3"/>
				</g>
				<g>
					<line class="st6" x1="87" y1="82" x2="87.6" y2="81.6"/>
					<line class="st6" x1="87" y1="86.5" x2="87.6" y2="86.2"/>
					<line class="st6" x1="87" y1="91.1" x2="87.6" y2="90.7"/>
				</g>
				<polyline class="st6" points="87,77.5 87.6,77.1 87.7,77 89.8,78.1 87.7,81.5 89.8,82.6 87.7,86.1 89.8,87.2 87.7,90.6 
					89.8,91.7 				"/>
			</g>
		</g>
		<g>
			<ellipse class="st2" cx="151.3" cy="71.4" rx="5.5" ry="3.8"/>
			<g>
				<g>
					
						<linearGradient id="SVGID_17_" gradientUnits="userSpaceOnUse" x1="105.0358" y1="53.2882" x2="109.0646" y2="53.2882" gradientTransform="matrix(1 0 0 1 44.2152 0)">
						<stop  offset="0" style="stop-color:#B3B3B3"/>
						<stop  offset="0.4902" style="stop-color:#E6E6E6"/>
						<stop  offset="0.7801" style="stop-color:#FFFFFF"/>
					</linearGradient>
					<path class="st25" d="M153.4,33.6h-4.3l-0.9,37.8c0,0.9,1.4,1.6,3,1.6c1.7,0,3-0.7,3-1.6L153.4,33.6z"/>
					<path class="st12" d="M151.2,45.5c-1.1,0-2.1-0.4-2.4-1l-0.1,3.9c0,0.7,1.1,1.3,2.4,1.3c1.3,0,2.4-0.6,2.4-1.3l-0.1-3.9
						C153.3,45.1,152.4,45.5,151.2,45.5z"/>
					<path class="st12" d="M151.2,38.5c-1.1,0-1.9-0.4-2.2-0.9l-0.1,3.6c0,0.7,1,1.2,2.3,1.2c1.3,0,2.3-0.6,2.3-1.2l-0.1-3.6
						C153.2,38.1,152.3,38.5,151.2,38.5z"/>
					<ellipse class="st26" cx="151.3" cy="33.6" rx="2.2" ry="1.2"/>
					<ellipse class="st27" cx="151.3" cy="33.6" rx="1.6" ry="0.9"/>
				</g>
				<g>
					<g>
						<path class="st28" d="M148.3,69.4c0,0.9,1.3,1.6,3,1.6c1.6,0,3-0.7,3-1.6l0-0.2c-0.1,0.8-1.4,1.5-3,1.5c-1.6,0-2.9-0.7-3-1.5
							L148.3,69.4z"/>
					</g>
				</g>
				<g>
					<g>
						<path class="st28" d="M148.5,61.7c0,0.8,1.3,1.5,2.8,1.5c1.5,0,2.8-0.7,2.8-1.5l0-0.2c-0.1,0.8-1.3,1.4-2.8,1.4
							c-1.5,0-2.7-0.6-2.8-1.4L148.5,61.7z"/>
					</g>
				</g>
				<g>
					<g>
						<path class="st28" d="M148.7,52.7c0,0.8,1.2,1.4,2.6,1.4c1.4,0,2.6-0.6,2.6-1.4l0-0.2c-0.1,0.7-1.2,1.3-2.6,1.3
							c-1.4,0-2.5-0.6-2.6-1.3L148.7,52.7z"/>
					</g>
				</g>
				<g>
					<g>
						<path class="st28" d="M148.9,44.4c0,0.7,1.1,1.3,2.4,1.3c1.3,0,2.4-0.6,2.4-1.3l0-0.2c-0.1,0.7-1.1,1.2-2.4,1.2
							c-1.3,0-2.3-0.5-2.4-1.2L148.9,44.4z"/>
					</g>
				</g>
			</g>
		</g>
	</g>
	<g>
		<path class="st2" d="M129.4,98.6l1.6-0.5l0-1l1.5-0.3l-1-1l-1.8,0.1l0.4-0.6l-1.6-1.5l-1.6,0.2l-0.4-0.6l-1.8-0.2l-1.1,1.2
			l-1.4,0.2l-0.7-0.5l-2.2,0.6l-0.1,1.4L118,96l-0.7,1.1l2.8,0.5l-0.3,1l1.2,1l1.3,0.6l1.5-0.6l1.1,0.5l2.7-0.4L129.4,98.6z"/>
		<g>
			<polygon class="st29" points="128.3,98.4 129.1,82.4 129.3,98.5 			"/>
			<polygon class="st29" points="128.5,94.6 126.6,89.5 129.1,94.4 			"/>
			<polygon class="st30" points="124.3,90.4 122.7,88.1 123.4,86.7 121.8,85.6 122.6,84 124.1,82.3 126.1,81.8 126.2,78.9 
				128.5,78.9 129.1,80 131.8,79.1 133.5,80.9 132.8,81.8 133.7,83.1 136.2,83.3 136.4,85.2 135.3,86 136.2,87.4 133.9,89.8 
				132.7,89.8 133.4,91.5 131.8,93.1 130.7,91.9 128.8,92.5 127.3,91.3 			"/>
			<g>
				<polygon class="st30" points="128.7,81.2 127.4,80 127.9,78.9 126.2,78.9 126.1,81.8 128.2,82.5 				"/>
				<polygon class="st31" points="129.2,89.6 127.3,90.1 127,88.7 125.4,88.3 125.3,86.9 127.6,87 128.1,86 127.4,84.1 126.4,84.8 
					125.3,83.7 126.1,81.8 124.1,82.3 122.6,84 121.8,85.6 123.4,86.7 122.7,88.1 124.3,90.4 127.3,91.3 128.8,92.5 130.7,91.9 
					131.8,93.1 131.2,90.5 				"/>
			</g>
		</g>
	</g>
	<g>
		<path class="st2" d="M91.1,109.1l1.6-0.5l0-1l1.5-0.3l-1-1l-1.8,0.1l0.4-0.6l-1.6-1.5l-1.6,0.2l-0.4-0.6l-1.8-0.2l-1.1,1.2
			l-1.4,0.2l-0.7-0.5L81,105l-0.1,1.4l-1.2,0.1l-0.7,1.1l2.8,0.5l-0.3,1l1.2,1l1.3,0.6l1.5-0.6l1.1,0.5l2.7-0.4L91.1,109.1z"/>
		<g>
			<polygon class="st29" points="90,108.9 90.8,92.9 91,109 			"/>
			<polygon class="st29" points="90.2,105.2 88.2,100 90.8,104.9 			"/>
			<polygon class="st30" points="86,100.9 84.4,98.6 85.1,97.2 83.4,96.2 84.2,94.5 85.7,92.8 87.8,92.4 87.9,89.4 90.2,89.4 
				90.7,90.5 93.4,89.7 95.2,91.4 94.5,92.4 95.3,93.6 97.9,93.9 98,95.8 97,96.6 97.9,97.9 95.6,100.4 94.4,100.4 95.1,102 
				93.4,103.6 92.4,102.4 90.5,103.1 89,101.8 			"/>
			<g>
				<polygon class="st30" points="90.3,91.7 89.1,90.5 89.5,89.4 87.9,89.4 87.8,92.4 89.9,93 				"/>
				<polygon class="st31" points="90.9,100.1 89,100.6 88.7,99.3 87.1,98.9 86.9,97.4 89.2,97.5 89.8,96.6 89.1,94.7 88,95.3 
					86.9,94.3 87.8,92.4 85.7,92.8 84.2,94.5 83.4,96.2 85.1,97.2 84.4,98.6 86,100.9 89,101.8 90.5,103.1 92.4,102.4 93.4,103.6 
					92.9,101 				"/>
			</g>
		</g>
	</g>
	<g>
		<path class="st2" d="M78.7,44.1l1.6-0.5l0-1l1.5-0.3l-1-1L79,41.3l0.4-0.6l-1.6-1.5l-1.6,0.2l-0.4-0.6L74,38.6l-1.1,1.2l-1.4,0.2
			l-0.7-0.5L68.6,40l-0.1,1.4l-1.2,0.1l-0.7,1.1l2.8,0.5l-0.3,1l1.2,1l1.3,0.6l1.5-0.6l1.1,0.5l2.7-0.4L78.7,44.1z"/>
		<g>
			<polygon class="st29" points="77.6,43.9 78.4,27.9 78.6,44 			"/>
			<polygon class="st29" points="77.8,40.2 75.9,35 78.4,39.9 			"/>
			<polygon class="st30" points="73.6,35.9 72,33.6 72.7,32.3 71.1,31.2 71.9,29.6 73.4,27.8 75.4,27.4 75.5,24.4 77.8,24.4 
				78.4,25.5 81.1,24.7 82.8,26.4 82.2,27.4 83,28.6 85.5,28.9 85.7,30.8 84.6,31.6 85.5,32.9 83.2,35.4 82,35.4 82.7,37 81.1,38.6 
				80,37.4 78.1,38.1 76.6,36.9 			"/>
			<g>
				<polygon class="st30" points="78,26.7 76.7,25.5 77.2,24.4 75.5,24.4 75.4,27.4 77.6,28.1 				"/>
				<polygon class="st31" points="78.5,35.1 76.6,35.6 76.3,34.3 74.7,33.9 74.6,32.4 76.9,32.5 77.4,31.6 76.7,29.7 75.7,30.4 
					74.6,29.3 75.4,27.4 73.4,27.8 71.9,29.6 71.1,31.2 72.7,32.3 72,33.6 73.6,35.9 76.6,36.9 78.1,38.1 80,37.4 81.1,38.6 
					80.5,36 				"/>
			</g>
		</g>
	</g>
	<g>
		<path class="st2" d="M66.4,53l1.6-0.5l0-1l1.5-0.3l-1-1l-1.8,0.1l0.4-0.6l-1.6-1.5L64,48.3l-0.4-0.6l-1.8-0.2l-1.1,1.2l-1.4,0.2
			l-0.7-0.5l-2.2,0.6l-0.1,1.4L55,50.4l-0.7,1.1L57,52l-0.3,1l1.2,1l1.3,0.6l1.5-0.6l1.1,0.5l2.7-0.4L66.4,53z"/>
		<g>
			<polygon class="st29" points="65.3,52.8 66.1,36.8 66.3,52.9 			"/>
			<polygon class="st29" points="65.5,49.1 63.6,43.9 66.1,48.8 			"/>
			<polygon class="st30" points="61.3,44.8 59.7,42.5 60.4,41.1 58.8,40.1 59.6,38.4 61.1,36.7 63.1,36.3 63.2,33.3 65.5,33.3 
				66.1,34.4 68.8,33.6 70.5,35.3 69.8,36.3 70.7,37.5 73.2,37.8 73.4,39.6 72.3,40.5 73.2,41.8 70.9,44.2 69.7,44.2 70.4,45.9 
				68.8,47.5 67.7,46.3 65.8,47 64.3,45.7 			"/>
			<g>
				<polygon class="st30" points="65.7,35.6 64.4,34.4 64.9,33.3 63.2,33.3 63.1,36.3 65.2,36.9 				"/>
				<polygon class="st31" points="66.2,44 64.3,44.5 64,43.2 62.4,42.8 62.3,41.3 64.6,41.4 65.1,40.5 64.4,38.6 63.4,39.2 
					62.3,38.2 63.1,36.3 61.1,36.7 59.6,38.4 58.8,40.1 60.4,41.1 59.7,42.5 61.3,44.8 64.3,45.7 65.8,47 67.7,46.3 68.8,47.5 
					68.2,44.9 				"/>
			</g>
		</g>
	</g>
	<g>
		<g>
			<path class="st2" d="M36.7,77.1l1.4-0.5l0-0.9l1.3-0.3l-0.9-0.9L37,74.6l0.3-0.5l-1.4-1.3L34.5,73l-0.4-0.6l-1.6-0.2l-1,1
				l-1.3,0.2L29.7,73l-2,0.5l-0.1,1.3l-1.1,0.1l-0.7,1l2.5,0.5l-0.2,0.9l1.1,0.9l1.1,0.6l1.4-0.5l0.9,0.5l2.4-0.4L36.7,77.1z"/>
			<g>
				<polygon class="st29" points="35.7,77 36.4,62.7 36.6,77.1 				"/>
				<polygon class="st29" points="35.9,73.6 34.2,69.1 36.4,73.4 				"/>
				<polygon class="st30" points="32.2,69.8 30.7,67.8 31.3,66.6 29.9,65.6 30.6,64.2 31.9,62.6 33.7,62.3 33.9,59.6 35.9,59.6 
					36.4,60.6 38.8,59.9 40.4,61.4 39.8,62.3 40.5,63.3 42.8,63.6 42.9,65.3 41.9,66 42.8,67.2 40.7,69.4 39.6,69.4 40.2,70.8 
					38.8,72.2 37.8,71.2 36.1,71.8 34.8,70.7 				"/>
				<g>
					<polygon class="st30" points="36,61.7 34.9,60.6 35.3,59.6 33.9,59.6 33.7,62.3 35.7,62.9 					"/>
					<polygon class="st31" points="36.5,69.1 34.8,69.6 34.6,68.4 33.1,68 33,66.7 35.1,66.8 35.5,66 34.9,64.3 34,64.9 33,63.9 
						33.7,62.3 31.9,62.6 30.6,64.2 29.9,65.6 31.3,66.6 30.7,67.8 32.2,69.8 34.8,70.7 36.1,71.8 37.8,71.2 38.8,72.2 38.3,70 
											"/>
				</g>
			</g>
		</g>
		<g>
			<g>
				<polygon class="st30" points="32.1,64.6 31,63 31.5,62.1 30.4,61.4 30.9,60.3 31.9,59.1 33.3,58.8 33.4,56.8 34.9,56.8 
					35.3,57.6 37.1,57 38.3,58.2 37.8,58.8 38.4,59.7 40.1,59.8 40.2,61.1 39.5,61.7 40.1,62.6 38.5,64.2 37.7,64.2 38.2,65.3 
					37.1,66.4 36.4,65.6 35.1,66 34.1,65.2 				"/>
				<g>
					<polyline class="st31" points="33.3,58.8 34.7,59.3 35,58.4 34.2,57.6 34.5,56.8 33.4,56.8 					"/>
					<polygon class="st31" points="35.4,64 34.1,64.4 33.9,63.5 32.8,63.2 32.7,62.2 34.3,62.3 34.6,61.7 34.2,60.4 33.5,60.8 
						32.7,60.1 33.3,58.8 31.9,59.1 30.9,60.3 30.4,61.4 31.5,62.1 31,63 32.1,64.6 34.1,65.2 35.1,66 36.4,65.6 37.1,66.4 
						36.7,64.7 					"/>
				</g>
			</g>
		</g>
		<g>
			<g>
				<polygon class="st30" points="33.4,56.2 33.4,57.6 34.1,58 33.7,58.9 34.5,59.4 35.6,59.8 36.5,59.5 37.4,60.7 38.4,60.1 
					38.3,59.5 39.6,59.2 39.8,57.9 39.3,57.7 39.3,56.9 40.3,56.2 39.8,55.3 39.1,55.2 39.1,54.4 37.5,53.9 37,54.2 36.9,53.3 
					35.7,53 35.6,53.9 34.7,54.1 34.4,55 				"/>
				<g>
					<polygon class="st31" points="35.7,55.3 34.7,55.5 35,56.2 34.4,56.8 34.8,57.5 35.7,56.8 36.2,57.1 36.4,58.1 35.8,58.1 
						35.7,58.8 36.5,59.5 35.6,59.8 34.5,59.4 33.7,58.9 34.1,58 33.4,57.6 33.4,56.2 34.4,55 34.7,54.1 35.6,53.9 35.7,53 
						36.2,54.3 					"/>
				</g>
			</g>
		</g>
	</g>
	<g>
		<g>
			<path class="st2" d="M176.2,76.5l1.4-0.5l0-0.9l1.3-0.3l-0.9-0.9l-1.6,0.1l0.3-0.5l-1.4-1.3l-1.4,0.2l-0.4-0.6l-1.6-0.2l-1,1
				l-1.3,0.2l-0.6-0.4l-2,0.5l-0.1,1.3l-1.1,0.1l-0.7,1l2.5,0.5l-0.2,0.9l1.1,0.9l1.1,0.6l1.4-0.5l0.9,0.5l2.4-0.4L176.2,76.5z"/>
			<g>
				<polygon class="st29" points="175.3,76.3 176,62.1 176.2,76.4 				"/>
				<polygon class="st29" points="175.4,73 173.7,68.4 176,72.7 				"/>
				<polygon class="st30" points="171.7,69.2 170.3,67.1 170.9,65.9 169.5,65 170.2,63.5 171.5,62 173.3,61.6 173.4,59 175.5,59 
					175.9,59.9 178.4,59.2 179.9,60.8 179.3,61.6 180,62.7 182.3,62.9 182.4,64.6 181.5,65.3 182.3,66.5 180.3,68.7 179.2,68.7 
					179.8,70.1 178.4,71.6 177.4,70.5 175.7,71.1 174.4,70 				"/>
				<g>
					<polygon class="st30" points="175.6,61 174.5,59.9 174.9,59 173.4,59 173.3,61.6 175.2,62.2 					"/>
					<polygon class="st31" points="176.1,68.5 174.4,68.9 174.1,67.7 172.7,67.4 172.6,66.1 174.6,66.2 175.1,65.3 174.5,63.6 
						173.5,64.2 172.6,63.3 173.3,61.6 171.5,62 170.2,63.5 169.4,65 170.9,65.9 170.3,67.1 171.7,69.2 174.4,70 175.7,71.1 
						177.4,70.5 178.4,71.6 177.9,69.3 					"/>
				</g>
			</g>
		</g>
		<g>
			<g>
				<polygon class="st30" points="171.7,63.9 170.6,62.4 171,61.4 169.9,60.7 170.5,59.6 171.5,58.4 172.8,58.2 172.9,56.2 
					174.5,56.2 174.8,56.9 176.7,56.4 177.8,57.5 177.4,58.2 177.9,59 179.6,59.2 179.7,60.4 179,61 179.6,61.9 178.1,63.5 
					177.3,63.5 177.7,64.6 176.7,65.7 175.9,64.9 174.7,65.3 173.7,64.5 				"/>
				<g>
					<polyline class="st31" points="172.8,58.2 174.3,58.6 174.6,57.7 173.7,56.9 174,56.2 172.9,56.2 					"/>
					<polygon class="st31" points="174.9,63.4 173.7,63.7 173.5,62.8 172.4,62.5 172.3,61.5 173.8,61.6 174.2,61 173.7,59.7 
						173,60.2 172.3,59.4 172.8,58.2 171.5,58.4 170.5,59.6 169.9,60.7 171,61.4 170.6,62.4 171.7,63.9 173.7,64.5 174.7,65.3 
						175.9,64.9 176.7,65.7 176.3,64 					"/>
				</g>
			</g>
		</g>
		<g>
			<g>
				<polygon class="st30" points="173,55.5 173,56.9 173.6,57.4 173.3,58.3 174,58.8 175.1,59.1 176.1,58.8 177,60.1 177.9,59.5 
					177.8,58.9 179.2,58.5 179.4,57.3 178.9,57 178.9,56.3 179.8,55.5 179.4,54.6 178.7,54.6 178.7,53.7 177.1,53.2 176.6,53.6 
					176.4,52.7 175.3,52.4 175.2,53.2 174.2,53.4 173.9,54.3 				"/>
				<g>
					<polygon class="st31" points="175.2,54.6 174.3,54.9 174.6,55.5 174,56.1 174.4,56.8 175.3,56.2 175.8,56.4 176,57.4 
						175.4,57.4 175.2,58.2 176.1,58.8 175.1,59.1 174,58.8 173.3,58.3 173.6,57.4 173,56.9 173,55.5 173.9,54.3 174.2,53.4 
						175.2,53.2 175.3,52.4 175.8,53.7 					"/>
				</g>
			</g>
		</g>
	</g>
</g>
</svg>
