<?xml version="1.0" encoding="utf-8"?>
<!-- Generator: Adobe Illustrator 21.1.0, SVG Export Plug-In . SVG Version: 6.00 Build 0)  -->
<svg version="1.1" id="Слой_1" xmlns="http://www.w3.org/2000/svg" xmlns:xlink="http://www.w3.org/1999/xlink" x="0px" y="0px"
	 viewBox="0 0 171 114" style="enable-background:new 0 0 171 114;" xml:space="preserve">
<style type="text/css">
	.st0{fill:#346F2E;}
	.st1{fill:#D1D1CD;}
	.st2{fill:#A19C95;}
	.st3{fill:#FFFFFF;}
	.st4{fill:#E9DAB7;}
	.st5{fill:#CFB36F;}
	.st6{fill:url(#SVGID_1_);}
	.st7{fill:url(#SVGID_2_);}
	.st8{fill:#A48A42;}
	.st9{fill:url(#SVGID_3_);}
	.st10{fill:#E4E4E4;}
	.st11{fill:#A8A8A8;}
	.st12{fill:#8F8F8F;}
	.st13{fill:url(#SVGID_4_);}
	.st14{fill:url(#SVGID_5_);}
	.st15{fill:url(#SVGID_6_);}
	.st16{fill:none;stroke:#F5F5F5;stroke-width:0.75;stroke-linecap:round;stroke-linejoin:round;stroke-miterlimit:10;}
	.st17{fill:#57352F;}
	.st18{fill:#568E48;}
</style>
<g>
	<g>
		<path class="st0" d="M100.5,16.2l66.3,39c6.2,3.6,5.4,9.8-1.7,14l-70.2,40.3c-7.2,4.1-18,4.6-24.2,1l-66.3-39
			c-6.2-3.6-5.4-9.8,1.7-14l70.2-40.3C83.4,13.1,94.3,12.7,100.5,16.2z"/>
		<path class="st1" d="M100.5,13.2l66.3,39c6.2,3.6,5.4,9.8-1.7,14l-70.2,40.3c-7.2,4.1-18,4.6-24.2,1l-66.3-39
			c-6.2-3.6-5.4-9.8,1.7-14l70.2-40.3C83.4,10.1,94.3,9.7,100.5,13.2z"/>
	</g>
	<g>
		<g>
			<g>
				<path class="st2" d="M38.3,64.5c-0.8,0.6-1.4,1.6-1.3,2.6c0,1.1,0.6,2.2,1.6,2.7l21.9,12.9c1.7,1,3.9,1,5.6,0L120.9,51
					c2.3-1.3,2.3-4.6,0-6L96.6,30.7L38.3,64.5z"/>
			</g>
			<g>
				<path class="st2" d="M47.5,69.9c-0.8,0.6-1.4,1.6-1.3,2.6c0,1.1,0.6,2.2,1.6,2.7l14.6,8.6c1.3,0.8,2.9,0.8,4.2,0l5.7-3.5
					c1.3-0.8,2.9-0.7,4.2,0l3,1.8c1.7,1,3.9,1,5.6,0l18-10.6c2.3-1.3,2.3-4.6,0-6L82.6,53.6c-2.4-1.4-5.3-1.4-7.7,0L47.5,69.9z"/>
			</g>
			<g>
				<g>
					<g>
						<polygon class="st3" points="43.9,47.9 96,17.7 115.8,29.1 115.8,48.6 63.7,78.8 43.9,67.4 						"/>
						<polygon class="st4" points="43.9,47.9 96,17.7 115.8,29.1 115.8,30.7 63.7,61 43.9,49.5 						"/>
						<polygon class="st3" points="108.6,29.1 96,21.8 51,47.9 63.7,55.2 						"/>
						<polygon class="st5" points="107.2,30 95.9,23.5 52.4,48.7 51,47.9 95.9,21.8 108.5,29.1 						"/>
					</g>
					
						<linearGradient id="SVGID_1_" gradientUnits="userSpaceOnUse" x1="-14592.6904" y1="76.4391" x2="-14603.3613" y2="1.0748" gradientTransform="matrix(-1 0 0 1 -14506.0986 0)">
						<stop  offset="0" style="stop-color:#B3B3B3;stop-opacity:0.335"/>
						<stop  offset="7.406294e-02" style="stop-color:#B3B3B3;stop-opacity:0.3176"/>
						<stop  offset="1" style="stop-color:#B3B3B3;stop-opacity:0.1"/>
					</linearGradient>
					<path class="st6" d="M63.7,78.8l0-19.1l52-30.5v19.4"/>
					
						<linearGradient id="SVGID_2_" gradientUnits="userSpaceOnUse" x1="15195.835" y1="57.9409" x2="15182.1914" y2="67.8927" gradientTransform="matrix(1 0 0 1 -15134.5713 0)">
						<stop  offset="0" style="stop-color:#B3B3B3;stop-opacity:0.7896"/>
						<stop  offset="1" style="stop-color:#B3B3B3;stop-opacity:0.335"/>
					</linearGradient>
					<path class="st7" d="M43.7,67.4V48.1l20,11.7l0,19.1"/>
				</g>
			</g>
			<polygon class="st5" points="63.7,65 115.8,34.6 115.8,30.6 63.7,61 			"/>
			<polygon class="st8" points="63.7,64.9 43.9,53.5 43.9,49.5 63.7,61 			"/>
		</g>
		<g>
			<ellipse class="st2" cx="114.8" cy="56.7" rx="4.7" ry="3.3"/>
			<g>
				<g>
					
						<linearGradient id="SVGID_3_" gradientUnits="userSpaceOnUse" x1="17382.7578" y1="29.6195" x2="17386.2383" y2="29.6195" gradientTransform="matrix(1 0 0 1 -17269.6914 0)">
						<stop  offset="0" style="stop-color:#B3B3B3"/>
						<stop  offset="0.4902" style="stop-color:#E6E6E6"/>
						<stop  offset="0.7801" style="stop-color:#FFFFFF"/>
					</linearGradient>
					<path class="st9" d="M116.7,1.2h-3.7l-0.7,55.5c0,0.8,1.2,1.4,2.6,1.4c1.4,0,2.6-0.6,2.6-1.4L116.7,1.2z"/>
					<path class="st5" d="M114.8,11.4c-1,0-1.8-0.4-2.1-0.9l-0.1,3.4c0,0.7,1,1.2,2.2,1.2c1.2,0,2.2-0.5,2.2-1.2l-0.1-3.4
						C116.6,11.1,115.8,11.4,114.8,11.4z"/>
					<path class="st5" d="M114.8,5.4c-0.9,0-1.7-0.3-2-0.8l-0.1,3.2c0,0.6,0.9,1.1,2,1.1c1.1,0,2-0.5,2-1.1l-0.1-3.2
						C116.5,5,115.7,5.4,114.8,5.4z"/>
					<ellipse class="st10" cx="114.8" cy="1.2" rx="1.9" ry="1"/>
					<ellipse class="st11" cx="114.8" cy="1.2" rx="1.4" ry="0.7"/>
				</g>
				<g>
					<g>
						<path class="st12" d="M112.2,55c0,0.8,1.1,1.4,2.6,1.4c1.4,0,2.6-0.6,2.6-1.4l0-0.2c-0.1,0.7-1.2,1.3-2.6,1.3
							c-1.4,0-2.5-0.6-2.6-1.3L112.2,55z"/>
					</g>
				</g>
				<g>
					<g>
						<path class="st12" d="M112.4,44.4c0,0.7,1.1,1.3,2.4,1.3c1.3,0,2.4-0.6,2.4-1.3l0-0.2c-0.1,0.7-1.1,1.2-2.4,1.2
							c-1.3,0-2.3-0.5-2.4-1.2L112.4,44.4z"/>
					</g>
				</g>
				<g>
					<g>
						<path class="st12" d="M112.6,28c0,0.7,1,1.2,2.2,1.2c1.2,0,2.2-0.5,2.2-1.2l0-0.1c-0.1,0.6-1,1.1-2.2,1.1
							c-1.2,0-2.2-0.5-2.2-1.1L112.6,28z"/>
					</g>
				</g>
				<g>
					<g>
						<path class="st12" d="M112.7,10.5c0,0.6,0.9,1.1,2.1,1.1c1.1,0,2.1-0.5,2.1-1.1l0-0.1c-0.1,0.6-1,1.1-2.1,1.1
							c-1.1,0-2-0.5-2.1-1.1L112.7,10.5z"/>
					</g>
				</g>
			</g>
		</g>
		<g>
			<ellipse class="st2" cx="108.5" cy="60.6" rx="4.7" ry="3.3"/>
			<g>
				<g>
					
						<linearGradient id="SVGID_4_" gradientUnits="userSpaceOnUse" x1="17376.4883" y1="33.5837" x2="17379.9707" y2="33.5837" gradientTransform="matrix(1 0 0 1 -17269.6914 0)">
						<stop  offset="0" style="stop-color:#B3B3B3"/>
						<stop  offset="0.4902" style="stop-color:#E6E6E6"/>
						<stop  offset="0.7801" style="stop-color:#FFFFFF"/>
					</linearGradient>
					<path class="st13" d="M110.4,5.1h-3.7l-0.7,55.5c0,0.8,1.2,1.4,2.6,1.4c1.4,0,2.6-0.6,2.6-1.4L110.4,5.1z"/>
					<path class="st5" d="M108.5,15.4c-1,0-1.8-0.4-2.1-0.9l-0.1,3.4c0,0.7,1,1.2,2.2,1.2c1.2,0,2.2-0.5,2.2-1.2l-0.1-3.4
						C110.4,15,109.5,15.4,108.5,15.4z"/>
					<path class="st5" d="M108.5,9.3c-0.9,0-1.7-0.3-2-0.8l-0.1,3.2c0,0.6,0.9,1.1,2,1.1c1.1,0,2-0.5,2-1.1l-0.1-3.2
						C110.2,9,109.5,9.3,108.5,9.3z"/>
					<ellipse class="st10" cx="108.5" cy="5.1" rx="1.9" ry="1"/>
					<ellipse class="st11" cx="108.5" cy="5.1" rx="1.4" ry="0.7"/>
				</g>
				<g>
					<g>
						<path class="st12" d="M106,58.9c0,0.8,1.1,1.4,2.6,1.4c1.4,0,2.6-0.6,2.6-1.4l0-0.2c-0.1,0.7-1.2,1.3-2.6,1.3
							c-1.4,0-2.5-0.6-2.6-1.3L106,58.9z"/>
					</g>
				</g>
				<g>
					<g>
						<path class="st12" d="M106.1,48.4c0,0.7,1.1,1.3,2.4,1.3c1.3,0,2.4-0.6,2.4-1.3l0-0.2c-0.1,0.7-1.1,1.2-2.4,1.2
							c-1.3,0-2.3-0.5-2.4-1.2L106.1,48.4z"/>
					</g>
				</g>
				<g>
					<g>
						<path class="st12" d="M106.3,31.9c0,0.7,1,1.2,2.2,1.2c1.2,0,2.2-0.5,2.2-1.2l0-0.1c-0.1,0.6-1,1.1-2.2,1.1
							c-1.2,0-2.2-0.5-2.2-1.1L106.3,31.9z"/>
					</g>
				</g>
				<g>
					<g>
						<path class="st12" d="M106.5,14.5c0,0.6,0.9,1.1,2.1,1.1c1.1,0,2.1-0.5,2.1-1.1l0-0.1c-0.1,0.6-1,1.1-2.1,1.1
							c-1.1,0-2-0.5-2.1-1.1L106.5,14.5z"/>
					</g>
				</g>
			</g>
		</g>
		<g>
			<polygon class="st5" points="100.6,48.7 82.4,59.3 82.4,78.8 100.6,68.3 			"/>
			
				<linearGradient id="SVGID_5_" gradientUnits="userSpaceOnUse" x1="18016.9277" y1="55.99" x2="18035.1504" y2="55.99" gradientTransform="matrix(1 0 0 1 -17934.5723 0)">
				<stop  offset="0" style="stop-color:#B3B3B3;stop-opacity:0.7896"/>
				<stop  offset="1" style="stop-color:#B3B3B3;stop-opacity:0.335"/>
			</linearGradient>
			<polygon class="st14" points="100.6,48.7 82.4,59.3 82.4,63.2 100.6,52.7 			"/>
			<polygon class="st8" points="82.4,78.8 82.4,59.3 73.2,54 73.2,73.5 			"/>
			
				<linearGradient id="SVGID_6_" gradientUnits="userSpaceOnUse" x1="18007.7617" y1="58.6777" x2="18016.9277" y2="58.6777" gradientTransform="matrix(1 0 0 1 -17934.5723 0)">
				<stop  offset="0" style="stop-color:#B3B3B3;stop-opacity:0.7896"/>
				<stop  offset="1" style="stop-color:#B3B3B3;stop-opacity:0.335"/>
			</linearGradient>
			<polygon class="st15" points="82.4,63.4 82.4,59.3 73.2,54 73.2,58.1 			"/>
			<g>
				<line class="st16" x1="89.1" y1="61" x2="89.1" y2="72.7"/>
				<line class="st16" x1="94.9" y1="57.9" x2="94.9" y2="69.7"/>
			</g>
			<polygon class="st4" points="97,46.7 97,46.7 91.4,43.4 73.2,54 76.8,56.1 76.8,56.1 82.4,59.3 100.6,48.7 			"/>
			<g>
				<polygon class="st5" points="96.2,49.4 97.4,48.7 91.4,45.3 76.4,54 77.6,54.7 91.4,46.7 				"/>
				<polygon class="st3" points="96.2,49.4 91.4,46.7 77.6,54.7 82.4,57.4 				"/>
			</g>
		</g>
	</g>
	<g>
		<path class="st2" d="M86.3,95.5l1.6-0.5l0-1l1.5-0.3l-1-1l-1.8,0.1l0.4-0.6l-1.6-1.5l-1.6,0.2l-0.4-0.6l-1.8-0.2l-1.1,1.2
			l-1.4,0.2l-0.7-0.5l-2.2,0.6l-0.1,1.4l-1.2,0.1L74.2,94l2.8,0.5l-0.3,1l1.2,1l1.3,0.6l1.5-0.6l1.1,0.5l2.7-0.4L86.3,95.5z"/>
		<g>
			<polygon class="st17" points="85.3,95.3 86,79.3 86.2,95.4 			"/>
			<polygon class="st17" points="85.4,91.5 83.5,86.4 86,91.3 			"/>
			<polygon class="st18" points="81.2,87.3 79.6,85 80.3,83.6 78.7,82.5 79.5,80.9 81,79.1 83,78.7 83.1,75.8 85.4,75.8 86,76.8 
				88.7,76 90.5,77.8 89.8,78.7 90.6,80 93.2,80.2 93.3,82.1 92.2,82.9 93.2,84.3 90.9,86.7 89.6,86.7 90.3,88.3 88.7,90 87.6,88.8 
				85.7,89.4 84.2,88.2 			"/>
			<g>
				<polygon class="st18" points="85.6,78.1 84.4,76.8 84.8,75.8 83.1,75.8 83,78.7 85.2,79.4 				"/>
				<polygon class="st0" points="86.1,86.5 84.2,87 84,85.6 82.3,85.2 82.2,83.7 84.5,83.9 85,82.9 84.4,81 83.3,81.7 82.2,80.6 
					83,78.7 81,79.1 79.5,80.9 78.7,82.5 80.3,83.6 79.6,85 81.2,87.3 84.2,88.2 85.7,89.4 87.6,88.8 88.7,90 88.2,87.4 				"/>
			</g>
		</g>
	</g>
	<g>
		<path class="st2" d="M135,73.1l1.6-0.5l0-1l1.5-0.3l-1-1l-1.8,0.1l0.4-0.6l-1.6-1.5l-1.6,0.2l-0.4-0.6l-1.8-0.2l-1.1,1.2l-1.4,0.2
			l-0.7-0.5l-2.2,0.6l-0.1,1.4l-1.2,0.1l-0.7,1.1l2.8,0.5l-0.3,1l1.2,1l1.3,0.6l1.5-0.6l1.1,0.5l2.7-0.4L135,73.1z"/>
		<g>
			<polygon class="st17" points="133.9,73 134.7,56.9 134.9,73.1 			"/>
			<polygon class="st17" points="134.1,69.2 132.1,64 134.7,68.9 			"/>
			<polygon class="st18" points="129.9,64.9 128.3,62.6 129,61.3 127.3,60.2 128.2,58.6 129.6,56.8 131.7,56.4 131.8,53.4 
				134.1,53.4 134.7,54.5 137.4,53.7 139.1,55.4 138.4,56.4 139.3,57.6 141.8,57.9 142,59.8 140.9,60.6 141.8,61.9 139.5,64.4 
				138.3,64.4 139,66 137.4,67.6 136.3,66.4 134.4,67.1 132.9,65.9 			"/>
			<g>
				<polygon class="st18" points="134.2,55.7 133,54.5 133.4,53.4 131.8,53.4 131.7,56.4 133.8,57.1 				"/>
				<polygon class="st0" points="134.8,64.1 132.9,64.6 132.6,63.3 131,62.9 130.9,61.4 133.2,61.5 133.7,60.6 133,58.7 131.9,59.4 
					130.9,58.3 131.7,56.4 129.6,56.8 128.2,58.6 127.3,60.2 129,61.3 128.3,62.6 129.9,64.9 132.9,65.9 134.4,67.1 136.3,66.4 
					137.4,67.6 136.8,65.1 				"/>
			</g>
		</g>
	</g>
	<g>
		<g>
			<path class="st2" d="M24.9,71.7l1.3-0.4l0-0.8l1.2-0.3l-0.8-0.8l-1.4,0l0.3-0.5l-1.2-1.2L23,68l-0.3-0.5l-1.5-0.2l-0.9,0.9
				l-1.1,0.2L18.6,68l-1.8,0.4l-0.1,1.1l-1,0.1l-0.6,0.9l2.2,0.4l-0.2,0.8l0.9,0.8l1,0.5l1.2-0.5l0.8,0.4l2.1-0.3L24.9,71.7z"/>
			<g>
				<polygon class="st17" points="24,71.6 24.7,58.8 24.8,71.7 				"/>
				<polygon class="st17" points="24.2,68.6 22.6,64.5 24.6,68.4 				"/>
				<polygon class="st18" points="20.9,65.2 19.6,63.4 20.1,62.3 18.8,61.4 19.5,60.1 20.6,58.7 22.3,58.4 22.4,56.1 24.2,56.1 
					24.6,56.9 26.8,56.3 28.2,57.7 27.6,58.4 28.3,59.4 30.3,59.6 30.4,61.1 29.6,61.8 30.3,62.8 28.5,64.8 27.5,64.8 28.1,66.1 
					26.8,67.3 25.9,66.4 24.4,66.9 23.2,65.9 				"/>
				<g>
					<polygon class="st18" points="24.3,57.9 23.3,56.9 23.7,56.1 22.4,56.1 22.3,58.4 24,59 					"/>
					<polygon class="st0" points="24.7,64.6 23.2,65 23,63.9 21.7,63.6 21.6,62.4 23.4,62.5 23.9,61.8 23.3,60.3 22.5,60.8 
						21.6,59.9 22.3,58.4 20.6,58.7 19.5,60.1 18.8,61.4 20.1,62.3 19.6,63.4 20.9,65.2 23.2,65.9 24.4,66.9 25.9,66.4 26.8,67.3 
						26.3,65.3 					"/>
				</g>
			</g>
		</g>
		<g>
			<g>
				<polygon class="st18" points="20.8,60.5 19.8,59.1 20.2,58.3 19.2,57.6 19.7,56.7 20.6,55.6 21.8,55.4 21.9,53.6 23.3,53.6 
					23.6,54.2 25.3,53.7 26.3,54.8 25.9,55.4 26.4,56.1 27.9,56.3 28,57.4 27.4,57.9 27.9,58.7 26.5,60.2 25.8,60.2 26.2,61.1 
					25.3,62.1 24.6,61.4 23.5,61.8 22.6,61 				"/>
				<g>
					<polyline class="st0" points="21.8,55.4 23.1,55.8 23.4,55 22.7,54.2 22.9,53.6 21.9,53.6 					"/>
					<polygon class="st0" points="23.7,60 22.6,60.3 22.4,59.5 21.4,59.3 21.4,58.4 22.7,58.4 23.1,57.9 22.7,56.7 22,57.1 
						21.4,56.5 21.8,55.4 20.6,55.6 19.7,56.7 19.2,57.6 20.2,58.3 19.8,59.1 20.8,60.5 22.6,61 23.5,61.8 24.6,61.4 25.3,62.1 
						24.9,60.6 					"/>
				</g>
			</g>
		</g>
		<g>
			<g>
				<polygon class="st18" points="22,53 22,54.3 22.5,54.6 22.2,55.4 22.9,55.9 23.9,56.2 24.7,55.9 25.5,57.1 26.4,56.5 26.3,56 
					27.5,55.7 27.7,54.6 27.2,54.3 27.2,53.7 28.1,53 27.7,52.2 27.1,52.1 27.1,51.4 25.6,51 25.2,51.2 25,50.4 24,50.2 23.9,50.9 
					23.1,51.1 22.8,51.9 				"/>
				<g>
					<polygon class="st0" points="24,52.2 23.1,52.4 23.4,53 22.9,53.5 23.2,54.1 24,53.6 24.4,53.8 24.7,54.7 24.1,54.7 24,55.4 
						24.7,55.9 23.9,56.2 22.9,55.9 22.2,55.4 22.5,54.6 22,54.3 22,53 22.8,51.9 23.1,51.1 23.9,50.9 24,50.2 24.5,51.3 					"/>
				</g>
			</g>
		</g>
	</g>
</g>
</svg>
