<?xml version="1.0" encoding="utf-8"?>
<!-- Generator: Adobe Illustrator 21.1.0, SVG Export Plug-In . SVG Version: 6.00 Build 0)  -->
<svg version="1.1" id="Слой_1" xmlns="http://www.w3.org/2000/svg" xmlns:xlink="http://www.w3.org/1999/xlink" x="0px" y="0px"
	 viewBox="0 0 177 105" style="enable-background:new 0 0 177 105;" xml:space="preserve">
<style type="text/css">
	.st0{fill:#346F2E;}
	.st1{fill:#D1D1CD;}
	.st2{fill:#A19C95;}
	.st3{fill:#57352F;}
	.st4{fill:#568E48;}
	.st5{fill:#FFFFFF;}
	.st6{fill:#707070;}
	.st7{fill:url(#SVGID_1_);}
	.st8{fill:url(#SVGID_2_);}
	.st9{fill:url(#SVGID_3_);}
	.st10{fill:#CFCFCB;}
	.st11{fill:url(#SVGID_4_);}
	.st12{fill:url(#SVGID_5_);stroke:#FFFFFF;stroke-miterlimit:10;}
	.st13{fill:url(#SVGID_6_);}
	.st14{fill:url(#SVGID_7_);stroke:#FFFFFF;stroke-miterlimit:10;}
	.st15{fill:url(#SVGID_8_);}
	.st16{fill:url(#SVGID_9_);}
	.st17{fill:url(#SVGID_10_);}
	.st18{fill:url(#SVGID_11_);}
	.st19{fill:url(#SVGID_12_);stroke:#FFFFFF;stroke-miterlimit:10;}
	.st20{fill:url(#SVGID_13_);}
	.st21{fill:url(#SVGID_14_);stroke:#FFFFFF;stroke-miterlimit:10;}
	.st22{fill:url(#SVGID_15_);}
	.st23{fill:#E4E4E4;}
	.st24{fill:#A8A8A8;}
	.st25{fill:#8F8F8F;}
</style>
<g>
	<g>
		<path class="st0" d="M170.2,58.1l-74.8,43.2c-7.2,4.1-18,4.6-24.2,1L5.1,63.9c-6.2-3.6-5.4-9.8,1.7-14L81.6,6.8
			c7.2-4.1,18-4.6,24.2-1L172,44.1C178.2,47.7,177.4,54,170.2,58.1z"/>
		<path class="st1" d="M170.2,55.1L95.4,98.3c-7.2,4.1-18,4.6-24.2,1L5.1,60.9c-6.2-3.6-5.4-9.8,1.7-14L81.6,3.8
			c7.2-4.1,18-4.6,24.2-1L172,41.1C178.2,44.7,177.4,51,170.2,55.1z"/>
	</g>
	<g>
		<g>
			<path class="st2" d="M135.5,50.6l1.4-0.5l0-0.9l1.3-0.3l-0.9-0.9l-1.6,0.1l0.3-0.5l-1.4-1.3l-1.4,0.2l-0.4-0.6l-1.6-0.2l-1,1
				l-1.3,0.2l-0.6-0.4l-2,0.5l-0.1,1.3l-1.1,0.1l-0.7,1l2.5,0.5l-0.2,0.9l1.1,0.9l1.1,0.6l1.4-0.5l0.9,0.5l2.4-0.4L135.5,50.6z"/>
			<g>
				<polygon class="st3" points="134.5,50.5 135.2,36.2 135.4,50.6 				"/>
				<polygon class="st3" points="134.6,47.1 132.9,42.5 135.2,46.9 				"/>
				<polygon class="st4" points="131,43.3 129.5,41.3 130.1,40.1 128.7,39.1 129.4,37.7 130.7,36.1 132.5,35.7 132.6,33.1 
					134.7,33.1 135.2,34.1 137.6,33.3 139.1,34.9 138.5,35.7 139.3,36.8 141.5,37.1 141.7,38.8 140.7,39.5 141.5,40.7 139.5,42.8 
					138.4,42.8 139,44.3 137.6,45.7 136.6,44.6 134.9,45.2 133.6,44.2 				"/>
				<g>
					<polygon class="st4" points="134.8,35.1 133.7,34.1 134.1,33.1 132.6,33.1 132.5,35.7 134.4,36.3 					"/>
					<polygon class="st0" points="135.3,42.6 133.6,43.1 133.4,41.9 131.9,41.5 131.8,40.2 133.8,40.3 134.3,39.5 133.7,37.8 
						132.8,38.4 131.8,37.4 132.5,35.7 130.7,36.1 129.4,37.7 128.7,39.1 130.1,40.1 129.5,41.3 131,43.3 133.6,44.2 134.9,45.2 
						136.6,44.6 137.6,45.7 137.1,43.4 					"/>
				</g>
			</g>
		</g>
		<g>
			<g>
				<polygon class="st4" points="130.9,38 129.8,36.5 130.2,35.6 129.1,34.9 129.7,33.8 130.7,32.6 132.1,32.3 132.1,30.3 
					133.7,30.3 134.1,31 135.9,30.5 137,31.7 136.6,32.3 137.1,33.1 138.9,33.3 139,34.6 138.2,35.1 138.9,36 137.3,37.7 
					136.5,37.7 137,38.8 135.9,39.9 135.1,39 133.9,39.5 132.9,38.7 				"/>
				<g>
					<polyline class="st0" points="132.1,32.3 133.5,32.8 133.8,31.9 133,31 133.2,30.3 132.1,30.3 					"/>
					<polygon class="st0" points="134.1,37.5 132.9,37.9 132.7,37 131.6,36.7 131.5,35.7 133.1,35.8 133.4,35.1 133,33.9 
						132.2,34.3 131.5,33.6 132.1,32.3 130.7,32.6 129.7,33.8 129.1,34.9 130.2,35.6 129.8,36.5 130.9,38 132.9,38.7 133.9,39.5 
						135.1,39 135.9,39.9 135.5,38.1 					"/>
				</g>
			</g>
		</g>
		<g>
			<g>
				<polygon class="st4" points="132.2,29.7 132.2,31.1 132.8,31.5 132.5,32.4 133.3,32.9 134.4,33.3 135.3,32.9 136.2,34.2 
					137.1,33.6 137.1,33 138.4,32.6 138.6,31.4 138.1,31.2 138.1,30.4 139.1,29.6 138.6,28.8 137.9,28.7 137.9,27.9 136.3,27.4 
					135.8,27.7 135.6,26.8 134.5,26.5 134.4,27.3 133.4,27.5 133.2,28.5 				"/>
				<g>
					<polygon class="st0" points="134.4,28.7 133.5,29 133.8,29.7 133.2,30.3 133.6,31 134.5,30.3 135,30.6 135.2,31.6 134.6,31.6 
						134.4,32.3 135.3,32.9 134.4,33.3 133.3,32.9 132.5,32.4 132.8,31.5 132.2,31.1 132.2,29.7 133.2,28.5 133.4,27.5 134.4,27.3 
						134.5,26.5 135,27.8 					"/>
				</g>
			</g>
		</g>
	</g>
	<g>
		<g>
			<g>
				<path class="st2" d="M42.4,74.5c-0.2,0-0.4-0.1-0.6-0.2L20.9,62.1c-0.4-0.2-0.6-0.6-0.6-1.1c0-0.4,0.2-0.9,0.6-1.1l79.8-44.7
					c0.2-0.1,0.4-0.2,0.6-0.2c0.2,0,0.4,0.1,0.6,0.2l20.7,11.2c0.4,0.2,0.6,0.6,0.7,1.1s-0.2,0.9-0.6,1.1L93.1,45.4l19.2,10.8
					c0.4,0.2,0.6,0.6,0.6,1.1c0,0.4-0.2,0.9-0.6,1.1l-22,12.8c-0.2,0.1-0.4,0.2-0.6,0.2c-0.2,0-0.4-0.1-0.6-0.2L68.8,59.3L43,74.3
					C42.8,74.5,42.6,74.5,42.4,74.5z"/>
				<path class="st2" d="M101.3,16.2L122,27.4l-31.4,18l21.1,11.9l-22,12.8L68.8,57.9L42.4,73.3L21.5,61L101.3,16.2 M101.3,13.7
					c-0.4,0-0.8,0.1-1.2,0.3L20.3,58.8C19.5,59.2,19,60.1,19,61c0,0.9,0.5,1.7,1.2,2.2l20.9,12.3c0.4,0.2,0.8,0.3,1.3,0.3
					c0.4,0,0.9-0.1,1.3-0.3l25.2-14.7l19.6,11.5c0.4,0.2,0.8,0.3,1.3,0.3c0.4,0,0.9-0.1,1.3-0.3l22-12.8c0.8-0.5,1.2-1.3,1.2-2.2
					c0-0.9-0.5-1.7-1.3-2.2l-17.3-9.7l27.6-15.8c0.8-0.5,1.3-1.3,1.3-2.2c0-0.9-0.5-1.7-1.3-2.2L102.5,14
					C102.2,13.8,101.8,13.7,101.3,13.7L101.3,13.7z"/>
			</g>
			<g>
				<g>
					<path class="st2" d="M106.1,53.3c-7,0-12.5-3.4-12.5-7.7c0-4.3,5.5-7.7,12.5-7.7c7,0,12.5,3.4,12.5,7.7
						C118.6,49.9,113.1,53.3,106.1,53.3z"/>
					<path class="st2" d="M106.1,39c6.2,0,11.2,2.9,11.2,6.5c0,3.6-5,6.5-11.2,6.5c-6.2,0-11.2-2.9-11.2-6.5
						C94.9,41.9,99.9,39,106.1,39 M106.1,36.5C106.1,36.5,106.1,36.5,106.1,36.5c-7.7,0-13.7,3.9-13.7,9c0,5,6,9,13.7,9
						c7.7,0,13.7-3.9,13.7-9C119.8,40.5,113.8,36.5,106.1,36.5L106.1,36.5z"/>
				</g>
				<g>
					<path class="st2" d="M69.1,74.5c-7,0-12.5-3.4-12.5-7.7c0-4.3,5.5-7.7,12.5-7.7s12.5,3.4,12.5,7.7
						C81.6,71.1,76.1,74.5,69.1,74.5z"/>
					<path class="st2" d="M69.1,60.3c6.2,0,11.2,2.9,11.2,6.5c0,3.6-5,6.5-11.2,6.5c-6.2,0-11.2-2.9-11.2-6.5
						C57.9,63.2,62.9,60.3,69.1,60.3 M69.1,57.8C69.1,57.8,69.1,57.8,69.1,57.8c-7.7,0-13.7,3.9-13.7,9c0,5,6,9,13.7,9
						c7.7,0,13.7-3.9,13.7-9C82.9,61.8,76.8,57.8,69.1,57.8L69.1,57.8z"/>
				</g>
			</g>
		</g>
		<g>
			<g>
				<g>
					<g>
						<g>
							<polygon class="st5" points="121.9,16.1 101,3.9 21.5,49.7 21.5,61 42.4,73.2 121.9,27.4 							"/>
							<polygon class="st6" points="121.9,16.1 101,3.9 21.5,49.7 21.5,50.6 42.4,62.8 121.9,17.1 							"/>
							<polygon class="st5" points="25.6,49.7 101,6.3 117.8,16.1 42.4,59.5 							"/>
							
								<linearGradient id="SVGID_1_" gradientUnits="userSpaceOnUse" x1="5877.4619" y1="28.2699" x2="6040.5435" y2="28.2699" gradientTransform="matrix(1 0 0 1 -5856.8848 0)">
								<stop  offset="0" style="stop-color:#898989;stop-opacity:0.3"/>
								<stop  offset="0.3609" style="stop-color:#818181;stop-opacity:0.4083"/>
								<stop  offset="1" style="stop-color:#767676;stop-opacity:0.6"/>
							</linearGradient>
							<polygon class="st7" points="26.5,50.2 101.1,7.3 117,16.6 117.8,16.1 101,6.3 25.7,49.7 							"/>
						</g>
						
							<linearGradient id="SVGID_2_" gradientUnits="userSpaceOnUse" x1="5890.3896" y1="71.9286" x2="5885.4316" y2="36.9121" gradientTransform="matrix(1 0 0 1 -5856.8848 0)">
							<stop  offset="0" style="stop-color:#B1B1B1;stop-opacity:0.7896"/>
							<stop  offset="1" style="stop-color:#B1B1B1;stop-opacity:0.335"/>
						</linearGradient>
						<path class="st8" d="M21.5,61V49.8l21,12.4v11.1"/>
						
							<linearGradient id="SVGID_3_" gradientUnits="userSpaceOnUse" x1="-5294.439" y1="32.9467" x2="-5323.3652" y2="54.0458" gradientTransform="matrix(-1 0 0 1 -5228.4121 0)">
							<stop  offset="0" style="stop-color:#B1B1B1;stop-opacity:0.335"/>
							<stop  offset="7.406294e-02" style="stop-color:#B1B1B1;stop-opacity:0.3176"/>
							<stop  offset="1" style="stop-color:#B1B1B1;stop-opacity:0.1"/>
						</linearGradient>
						<polygon class="st9" points="122,16.2 122,27.4 42.4,73.3 42.4,62.1 						"/>
					</g>
				</g>
				<polygon class="st10" points="42.4,65.2 21.5,52.9 21.5,50.6 42.4,62.8 				"/>
				<polygon class="st10" points="42.4,65.1 121.9,19.3 121.9,17.1 42.4,62.8 				"/>
			</g>
			<g>
				<g>
					<g>
						<g>
							<path class="st5" d="M94.9,29.5v16c0,3.6,5,6.5,11.2,6.5c6.2,0,11.2-2.9,11.2-6.5v-16H94.9z"/>
							<g>
								<path class="st10" d="M94.9,34.3c0,3.6,5,6.5,11.2,6.5c6.2,0,11.2-2.9,11.2-6.5v-4.8H94.9V34.3z"/>
							</g>
							
								<linearGradient id="SVGID_4_" gradientUnits="userSpaceOnUse" x1="56.8435" y1="40.7449" x2="79.2882" y2="40.7449" gradientTransform="matrix(1 0 0 1 38.055 0)">
								<stop  offset="0.1166" style="stop-color:#B1B1B1"/>
								<stop  offset="0.1657" style="stop-color:#B1B1B1;stop-opacity:0.9259"/>
								<stop  offset="0.7801" style="stop-color:#B1B1B1;stop-opacity:0"/>
							</linearGradient>
							<path class="st11" d="M94.9,29.5v16c0,3.6,5,6.5,11.2,6.5c6.2,0,11.2-2.9,11.2-6.5v-16H94.9z"/>
							<ellipse class="st5" cx="106.1" cy="29.5" rx="11.2" ry="6.5"/>
							
								<linearGradient id="SVGID_5_" gradientUnits="userSpaceOnUse" x1="77.5874" y1="26.7329" x2="55.7316" y2="33.0548" gradientTransform="matrix(1 0 0 1 38.055 0)">
								<stop  offset="0.5021" style="stop-color:#B1B1B1"/>
								<stop  offset="1" style="stop-color:#707070"/>
							</linearGradient>
							<ellipse class="st12" cx="106.1" cy="29.5" rx="11.2" ry="6.5"/>
						</g>
					</g>
				</g>
				<g>
					<path class="st5" d="M93.6,26.2v3.9c0,4,5.6,7.2,12.6,7.2c6.9,0,12.6-3.2,12.6-7.2v-3.9H93.6z"/>
					
						<linearGradient id="SVGID_6_" gradientUnits="userSpaceOnUse" x1="55.5119" y1="31.842" x2="80.62" y2="31.842" gradientTransform="matrix(1 0 0 1 38.055 0)">
						<stop  offset="0.1166" style="stop-color:#B1B1B1"/>
						<stop  offset="0.1657" style="stop-color:#B1B1B1;stop-opacity:0.9259"/>
						<stop  offset="0.7801" style="stop-color:#B1B1B1;stop-opacity:0"/>
					</linearGradient>
					<path class="st13" d="M93.6,26.2v3.9c0,4,5.6,7.2,12.6,7.2c6.9,0,12.6-3.2,12.6-7.2v-3.9H93.6z"/>
					
						<linearGradient id="SVGID_7_" gradientUnits="userSpaceOnUse" x1="78.7174" y1="23.165" x2="54.268" y2="30.2371" gradientTransform="matrix(1 0 0 1 38.055 0)">
						<stop  offset="0.5021" style="stop-color:#B1B1B1"/>
						<stop  offset="1" style="stop-color:#707070"/>
					</linearGradient>
					<ellipse class="st14" cx="106.1" cy="26.2" rx="12.6" ry="7.2"/>
				</g>
			</g>
			<g>
				<g>
					<g>
						<g>
							<polygon class="st5" points="111.6,50.9 90.7,38.7 68.8,51.4 68.8,57.8 89.7,70 111.6,57.3 							"/>
							<polygon class="st6" points="111.6,50.9 90.7,38.7 68.8,51.4 68.8,52.4 89.7,64.6 111.6,51.9 							"/>
							<polygon class="st5" points="72.9,51.4 90.7,41.1 107.5,50.9 89.7,61.2 							"/>
							
								<linearGradient id="SVGID_8_" gradientUnits="userSpaceOnUse" x1="5793.9688" y1="46.5374" x2="5854.9805" y2="46.5374" gradientTransform="matrix(1 0 0 1 -5722.8853 0)">
								<stop  offset="0" style="stop-color:#898989;stop-opacity:0.3"/>
								<stop  offset="0.3609" style="stop-color:#818181;stop-opacity:0.4083"/>
								<stop  offset="1" style="stop-color:#767676;stop-opacity:0.6"/>
							</linearGradient>
							<polygon class="st15" points="73.8,52 90.7,42.1 106.7,51.4 107.5,50.9 90.7,41.1 73,51.5 							"/>
						</g>
						
							<linearGradient id="SVGID_9_" gradientUnits="userSpaceOnUse" x1="5803.4136" y1="69.2939" x2="5799.3745" y2="40.768" gradientTransform="matrix(1 0 0 1 -5722.8853 0)">
							<stop  offset="0" style="stop-color:#B1B1B1;stop-opacity:0.7896"/>
							<stop  offset="1" style="stop-color:#B1B1B1;stop-opacity:0.335"/>
						</linearGradient>
						<path class="st16" d="M68.8,57.9v-6.3l21,12.4v6.2"/>
						
							<linearGradient id="SVGID_10_" gradientUnits="userSpaceOnUse" x1="-5189.9863" y1="56.8364" x2="-5199.144" y2="63.5161" gradientTransform="matrix(-1 0 0 1 -5094.4131 0)">
							<stop  offset="0" style="stop-color:#B1B1B1;stop-opacity:0.335"/>
							<stop  offset="7.406294e-02" style="stop-color:#B1B1B1;stop-opacity:0.3176"/>
							<stop  offset="1" style="stop-color:#B1B1B1;stop-opacity:0.1"/>
						</linearGradient>
						<path class="st17" d="M89.7,70.1v-6.2l22-12.9v6.3"/>
					</g>
				</g>
			</g>
			<g>
				<g>
					<g>
						<g>
							<path class="st5" d="M57.9,50.8v16c0,3.6,5,6.5,11.2,6.5c6.2,0,11.2-2.9,11.2-6.5v-16H57.9z"/>
							<g>
								<path class="st10" d="M57.9,55.6c0,3.6,5,6.5,11.2,6.5c6.2,0,11.2-2.9,11.2-6.5v-4.8H57.9V55.6z"/>
							</g>
							
								<linearGradient id="SVGID_11_" gradientUnits="userSpaceOnUse" x1="93.8307" y1="62.0135" x2="116.2753" y2="62.0135" gradientTransform="matrix(1 0 0 1 -35.9193 0)">
								<stop  offset="0.1166" style="stop-color:#B1B1B1"/>
								<stop  offset="0.1657" style="stop-color:#B1B1B1;stop-opacity:0.9259"/>
								<stop  offset="0.7801" style="stop-color:#B1B1B1;stop-opacity:0"/>
							</linearGradient>
							<path class="st18" d="M57.9,50.8v16c0,3.6,5,6.5,11.2,6.5c6.2,0,11.2-2.9,11.2-6.5v-16H57.9z"/>
							<ellipse class="st5" cx="69.1" cy="50.8" rx="11.2" ry="6.5"/>
							
								<linearGradient id="SVGID_12_" gradientUnits="userSpaceOnUse" x1="114.5746" y1="48.0014" x2="92.7187" y2="54.3233" gradientTransform="matrix(1 0 0 1 -35.9193 0)">
								<stop  offset="0.5021" style="stop-color:#B1B1B1"/>
								<stop  offset="1" style="stop-color:#707070"/>
							</linearGradient>
							<ellipse class="st19" cx="69.1" cy="50.8" rx="11.2" ry="6.5"/>
						</g>
					</g>
				</g>
				<g>
					<path class="st5" d="M56.6,47.5v3.9c0,4,5.6,7.2,12.6,7.2c6.9,0,12.6-3.2,12.6-7.2v-3.9H56.6z"/>
					
						<linearGradient id="SVGID_13_" gradientUnits="userSpaceOnUse" x1="92.4991" y1="53.1105" x2="117.6072" y2="53.1105" gradientTransform="matrix(1 0 0 1 -35.9193 0)">
						<stop  offset="0.1166" style="stop-color:#B1B1B1"/>
						<stop  offset="0.1657" style="stop-color:#B1B1B1;stop-opacity:0.9259"/>
						<stop  offset="0.7801" style="stop-color:#B1B1B1;stop-opacity:0"/>
					</linearGradient>
					<path class="st20" d="M56.6,47.5v3.9c0,4,5.6,7.2,12.6,7.2c6.9,0,12.6-3.2,12.6-7.2v-3.9H56.6z"/>
					
						<linearGradient id="SVGID_14_" gradientUnits="userSpaceOnUse" x1="115.7046" y1="44.4335" x2="91.2552" y2="51.5057" gradientTransform="matrix(1 0 0 1 -35.9193 0)">
						<stop  offset="0.5021" style="stop-color:#B1B1B1"/>
						<stop  offset="1" style="stop-color:#707070"/>
					</linearGradient>
					<ellipse class="st21" cx="69.1" cy="47.5" rx="12.6" ry="7.2"/>
				</g>
			</g>
			<g>
				<g>
					<ellipse class="st2" cx="112.4" cy="67.2" rx="3.8" ry="2.6"/>
					<g>
						<g>
							
								<linearGradient id="SVGID_15_" gradientUnits="userSpaceOnUse" x1="16.1197" y1="54.4844" x2="18.9475" y2="54.4844" gradientTransform="matrix(1 0 0 1 94.9093 0)">
								<stop  offset="0" style="stop-color:#B1B1B1"/>
								<stop  offset="0.4969" style="stop-color:#E6E6E6"/>
								<stop  offset="0.7801" style="stop-color:#FFFFFF"/>
							</linearGradient>
							<path class="st22" d="M114,40.6h-3l-0.6,26.5c0,0.6,0.9,1.1,2.1,1.1c1.2,0,2.1-0.5,2.1-1.1L114,40.6z"/>
							<path class="st10" d="M112.4,49.1c-0.8,0-1.5-0.3-1.7-0.7l-0.1,2.7c0,0.5,0.8,0.9,1.7,0.9c0.9,0,1.7-0.4,1.7-0.9l-0.1-2.7
								C113.9,48.8,113.2,49.1,112.4,49.1z"/>
							<path class="st10" d="M112.4,44.1c-0.7,0-1.4-0.3-1.5-0.6l-0.1,2.5c0,0.5,0.7,0.9,1.6,0.9c0.9,0,1.6-0.4,1.6-0.9l-0.1-2.5
								C113.8,43.8,113.2,44.1,112.4,44.1z"/>
							<ellipse class="st23" cx="112.4" cy="40.6" rx="1.5" ry="0.8"/>
							<ellipse class="st24" cx="112.4" cy="40.6" rx="1.1" ry="0.6"/>
						</g>
						<g>
							<g>
								<path class="st25" d="M110.4,65.8c0,0.6,0.9,1.1,2.1,1.1c1.2,0,2.1-0.5,2.1-1.1l0-0.1c-0.1,0.6-1,1.1-2.1,1.1
									c-1.1,0-2-0.5-2.1-1.1L110.4,65.8z"/>
							</g>
						</g>
						<g>
							<g>
								<path class="st25" d="M110.5,60.4c0,0.6,0.9,1.1,2,1.1c1.1,0,2-0.5,2-1.1l0-0.1c-0.1,0.6-0.9,1-2,1c-1,0-1.9-0.4-2-1
									L110.5,60.4z"/>
							</g>
						</g>
						<g>
							<g>
								<path class="st25" d="M110.6,54.1c0,0.5,0.8,1,1.8,1c1,0,1.8-0.4,1.8-1l0-0.1c-0.1,0.5-0.8,0.9-1.8,0.9
									c-1,0-1.8-0.4-1.8-0.9L110.6,54.1z"/>
							</g>
						</g>
						<g>
							<g>
								<path class="st25" d="M110.8,48.2c0,0.5,0.8,0.9,1.7,0.9c0.9,0,1.7-0.4,1.7-0.9l0-0.1c0,0.5-0.8,0.9-1.7,0.9
									c-0.9,0-1.6-0.4-1.7-0.9L110.8,48.2z"/>
							</g>
						</g>
					</g>
				</g>
			</g>
		</g>
	</g>
	<g>
		<g>
			<path class="st2" d="M91.6,91.3l1.4-0.5l0-0.9l1.3-0.3l-0.9-0.9l-1.6,0.1l0.3-0.5l-1.4-1.3l-1.4,0.2L89,86.6l-1.6-0.2l-1,1
				l-1.3,0.2l-0.6-0.4l-2,0.5l-0.1,1.3L81.5,89l-0.7,1l2.5,0.5L83,91.3l1.1,0.9l1.1,0.6l1.4-0.5l0.9,0.5l2.4-0.4L91.6,91.3z"/>
			<g>
				<polygon class="st3" points="90.6,91.1 91.3,76.9 91.5,91.2 				"/>
				<polygon class="st3" points="90.8,87.8 89.1,83.2 91.3,87.5 				"/>
				<polygon class="st4" points="87.1,84 85.6,81.9 86.2,80.7 84.8,79.8 85.5,78.3 86.8,76.7 88.6,76.4 88.8,73.7 90.8,73.7 
					91.3,74.7 93.7,74 95.3,75.5 94.7,76.4 95.4,77.5 97.7,77.7 97.8,79.4 96.8,80.1 97.7,81.3 95.6,83.5 94.5,83.5 95.1,84.9 
					93.7,86.4 92.7,85.3 91,85.9 89.7,84.8 				"/>
				<g>
					<polygon class="st4" points="90.9,75.8 89.8,74.7 90.2,73.7 88.8,73.7 88.6,76.4 90.6,77 					"/>
					<polygon class="st0" points="91.4,83.2 89.7,83.7 89.5,82.5 88,82.2 87.9,80.8 90,81 90.4,80.1 89.8,78.4 88.9,79 87.9,78.1 
						88.6,76.4 86.8,76.7 85.5,78.3 84.8,79.8 86.2,80.7 85.6,81.9 87.1,84 89.7,84.8 91,85.9 92.7,85.3 93.7,86.4 93.2,84.1 					
						"/>
				</g>
			</g>
		</g>
		<g>
			<g>
				<polygon class="st4" points="87,78.7 85.9,77.1 86.4,76.2 85.3,75.5 85.8,74.4 86.8,73.2 88.2,73 88.3,71 89.8,71 90.2,71.7 
					92,71.1 93.2,72.3 92.7,73 93.3,73.8 95,74 95.1,75.2 94.4,75.8 95,76.7 93.4,78.3 92.6,78.3 93.1,79.4 92,80.5 91.3,79.7 
					90,80.1 89,79.3 				"/>
				<g>
					<polyline class="st0" points="88.2,73 89.6,73.4 89.9,72.5 89.1,71.7 89.4,71 88.3,71 					"/>
					<polygon class="st0" points="90.3,78.1 89,78.5 88.8,77.6 87.7,77.3 87.6,76.3 89.2,76.4 89.5,75.8 89.1,74.5 88.4,75 
						87.6,74.2 88.2,73 86.8,73.2 85.8,74.4 85.3,75.5 86.4,76.2 85.9,77.1 87,78.7 89,79.3 90,80.1 91.3,79.7 92,80.5 91.6,78.8 
											"/>
				</g>
			</g>
		</g>
		<g>
			<g>
				<polygon class="st4" points="88.3,70.3 88.3,71.7 89,72.2 88.6,73 89.4,73.5 90.5,73.9 91.4,73.6 92.3,74.9 93.3,74.3 
					93.2,73.6 94.5,73.3 94.7,72.1 94.2,71.8 94.2,71.1 95.2,70.3 94.7,69.4 94,69.3 94.1,68.5 92.4,68 91.9,68.4 91.8,67.5 
					90.6,67.2 90.5,68 89.6,68.2 89.3,69.1 				"/>
				<g>
					<polygon class="st0" points="90.6,69.4 89.6,69.6 89.9,70.3 89.3,70.9 89.7,71.6 90.6,70.9 91.1,71.2 91.3,72.2 90.7,72.2 
						90.6,73 91.4,73.6 90.5,73.9 89.4,73.5 88.6,73 89,72.2 88.3,71.7 88.3,70.3 89.3,69.1 89.6,68.2 90.5,68 90.6,67.2 91.1,68.4 
											"/>
				</g>
			</g>
		</g>
	</g>
	<g>
		<path class="st2" d="M58.9,82.4l1.6-0.5l0-1l1.5-0.3l-1-1l-1.8,0.1l0.4-0.6L58,77.5l-1.6,0.2L56,77.1l-1.8-0.2l-1.1,1.2l-1.4,0.2
			L51,77.8l-2.2,0.6l-0.1,1.4l-1.2,0.1l-0.7,1.1l2.8,0.5l-0.3,1l1.2,1l1.3,0.6l1.5-0.6l1.1,0.5l2.7-0.4L58.9,82.4z"/>
		<g>
			<polygon class="st3" points="57.8,82.2 58.6,66.2 58.8,82.3 			"/>
			<polygon class="st3" points="57.9,78.5 56,73.3 58.6,78.2 			"/>
			<polygon class="st4" points="53.8,74.2 52.2,71.9 52.8,70.6 51.2,69.5 52,67.9 53.5,66.1 55.5,65.7 55.7,62.7 58,62.7 58.5,63.8 
				61.2,63 63,64.7 62.3,65.7 63.1,66.9 65.7,67.2 65.8,69.1 64.7,69.9 65.7,71.2 63.4,73.7 62.2,73.7 62.9,75.3 61.2,76.9 
				60.1,75.7 58.3,76.4 56.8,75.2 			"/>
			<g>
				<polygon class="st4" points="58.1,65 56.9,63.8 57.3,62.7 55.7,62.7 55.5,65.7 57.7,66.4 				"/>
				<polygon class="st0" points="58.7,73.4 56.8,73.9 56.5,72.6 54.9,72.2 54.7,70.7 57,70.8 57.6,69.9 56.9,68 55.8,68.7 
					54.7,67.6 55.5,65.7 53.5,66.1 52,67.9 51.2,69.5 52.8,70.6 52.2,71.9 53.8,74.2 56.8,75.2 58.3,76.4 60.1,75.7 61.2,76.9 
					60.7,74.3 				"/>
			</g>
		</g>
	</g>
</g>
</svg>
