<?xml version="1.0" encoding="utf-8"?>
<!-- Generator: Adobe Illustrator 21.1.0, SVG Export Plug-In . SVG Version: 6.00 Build 0)  -->
<svg version="1.1" id="Слой_1" xmlns="http://www.w3.org/2000/svg" xmlns:xlink="http://www.w3.org/1999/xlink" x="0px" y="0px"
	 viewBox="0 0 175 124" style="enable-background:new 0 0 175 124;" xml:space="preserve">
<style type="text/css">
	.st0{fill:#346F2E;}
	.st1{fill:#D1D1CD;}
	.st2{fill:#A19C95;}
	.st3{fill:#57352F;}
	.st4{fill:#568E48;}
	.st5{fill:#FFFFFF;}
	.st6{fill:url(#SVGID_1_);}
	.st7{fill:url(#SVGID_2_);stroke:#FFFFFF;stroke-width:0.8562;stroke-miterlimit:10;}
	.st8{fill:none;stroke:#D1B56F;stroke-width:0.8562;stroke-linejoin:round;stroke-miterlimit:10;}
	.st9{fill:url(#SVGID_3_);}
	.st10{fill:url(#SVGID_4_);}
	.st11{fill:url(#SVGID_5_);}
	.st12{fill:url(#SVGID_6_);}
	.st13{fill:#707070;}
	.st14{fill:#D1B56F;}
	.st15{fill:url(#SVGID_7_);}
	.st16{fill:url(#SVGID_8_);}
	.st17{fill:url(#SVGID_9_);}
	.st18{fill:none;stroke:#A19C95;stroke-width:0.2141;stroke-linecap:round;stroke-miterlimit:10;}
	.st19{fill:#4F4F4F;}
	.st20{fill:url(#SVGID_10_);}
	.st21{fill:url(#SVGID_11_);}
	.st22{fill:url(#SVGID_12_);}
	.st23{fill:url(#SVGID_13_);}
	.st24{fill:url(#SVGID_14_);}
	.st25{fill:url(#SVGID_15_);}
	.st26{fill:url(#SVGID_16_);}
	.st27{fill:url(#SVGID_17_);}
	.st28{fill:#E4E4E4;}
	.st29{fill:#A8A8A8;}
	.st30{fill:#8F8F8F;}
</style>
<g>
	<g>
		<path class="st0" d="M115.6,26.3L170,57.6c6.2,3.6,5.4,9.8-1.7,14l-84.9,49c-7.2,4.1-18,4.6-24.2,1L4.8,90.3
			c-6.2-3.6-5.4-9.8,1.7-14l84.9-49C98.5,23.2,109.4,22.7,115.6,26.3z"/>
		<path class="st1" d="M115.6,23.3L170,54.6c6.2,3.6,5.4,9.8-1.7,14l-84.9,49c-7.2,4.1-18,4.6-24.2,1L4.8,87.3
			c-6.2-3.6-5.4-9.8,1.7-14l84.9-49C98.5,20.2,109.4,19.7,115.6,23.3z"/>
	</g>
	<g>
		<path class="st2" d="M111.8,93l1.6-0.5l0-1l1.5-0.3l-1-1l-1.8,0.1l0.4-0.6l-1.6-1.5l-1.6,0.2l-0.4-0.6l-1.8-0.2l-1.1,1.2l-1.4,0.2
			l-0.7-0.5l-2.2,0.6l-0.1,1.4l-1.2,0.1l-0.7,1.1l2.8,0.5l-0.3,1l1.2,1l1.3,0.6l1.5-0.6l1.1,0.5l2.7-0.4L111.8,93z"/>
		<g>
			<polygon class="st3" points="110.7,92.9 111.5,76.8 111.7,93 			"/>
			<polygon class="st3" points="110.8,89.1 108.9,83.9 111.5,88.8 			"/>
			<polygon class="st4" points="106.7,84.8 105.1,82.5 105.7,81.2 104.1,80.1 104.9,78.5 106.4,76.7 108.5,76.3 108.6,73.3 
				110.9,73.3 111.4,74.4 114.1,73.6 115.9,75.4 115.2,76.3 116,77.5 118.6,77.8 118.7,79.7 117.7,80.5 118.6,81.8 116.3,84.3 
				115.1,84.3 115.8,85.9 114.1,87.5 113.1,86.3 111.2,87 109.7,85.8 			"/>
			<g>
				<polygon class="st4" points="111,75.6 109.8,74.4 110.2,73.3 108.6,73.3 108.5,76.3 110.6,77 				"/>
				<polygon class="st0" points="111.6,84 109.7,84.6 109.4,83.2 107.8,82.8 107.6,81.3 109.9,81.4 110.5,80.5 109.8,78.6 
					108.7,79.3 107.6,78.2 108.5,76.3 106.4,76.7 104.9,78.5 104.1,80.1 105.7,81.2 105.1,82.5 106.7,84.8 109.7,85.8 111.2,87 
					113.1,86.3 114.1,87.5 113.6,85 				"/>
			</g>
		</g>
	</g>
	<g>
		<g>
			<ellipse class="st2" cx="97.7" cy="55.6" rx="22.8" ry="13.2"/>
			<g>
				<path class="st2" d="M112.5,54.2l-12.8,7.3l12.7,6.9c0.7,0.4,1.6,0.4,2.3,0l9.4-5.4c1-0.6,1-2,0-2.5L112.5,54.2z"/>
			</g>
			<path class="st5" d="M78,12.2v43.4c0,6.3,8.8,11.4,19.7,11.4c10.9,0,19.7-5.1,19.7-11.4V12.2H78z"/>
			<linearGradient id="SVGID_1_" gradientUnits="userSpaceOnUse" x1="78.05" y1="39.537" x2="117.4179" y2="39.537">
				<stop  offset="0.1166" style="stop-color:#B3B3B3"/>
				<stop  offset="0.1657" style="stop-color:#B3B3B3;stop-opacity:0.9259"/>
				<stop  offset="0.7801" style="stop-color:#B3B3B3;stop-opacity:0"/>
			</linearGradient>
			<path class="st6" d="M78,12.2v43.4c0,6.3,8.8,11.4,19.7,11.4c10.9,0,19.7-5.1,19.7-11.4V12.2H78z"/>
			<ellipse class="st5" cx="97.7" cy="12.2" rx="19.7" ry="11.4"/>
			<linearGradient id="SVGID_2_" gradientUnits="userSpaceOnUse" x1="114.4348" y1="7.3218" x2="76.0995" y2="18.4105">
				<stop  offset="0.5021" style="stop-color:#B3B3B3"/>
				<stop  offset="1" style="stop-color:#707070"/>
			</linearGradient>
			<ellipse class="st7" cx="97.7" cy="12.2" rx="19.7" ry="11.4"/>
			<g>
				<g>
					<line class="st8" x1="104.7" y1="25.9" x2="105.7" y2="25.9"/>
					<line class="st8" x1="104.7" y1="31.5" x2="105.7" y2="31.5"/>
					<line class="st8" x1="104.7" y1="37" x2="105.7" y2="37"/>
					<line class="st8" x1="104.7" y1="42.5" x2="105.7" y2="42.5"/>
					<line class="st8" x1="104.7" y1="48" x2="105.7" y2="48"/>
					<line class="st8" x1="104.7" y1="53.6" x2="105.7" y2="53.6"/>
					<line class="st8" x1="104.7" y1="59.1" x2="105.7" y2="59.1"/>
					<line class="st8" x1="104.7" y1="64.6" x2="105.7" y2="64.6"/>
				</g>
				<g>
					<line class="st8" x1="100.7" y1="28.7" x2="101.7" y2="28.7"/>
					<line class="st8" x1="100.7" y1="34.2" x2="101.7" y2="34.2"/>
					<line class="st8" x1="100.7" y1="39.8" x2="101.7" y2="39.8"/>
					<line class="st8" x1="100.7" y1="45.3" x2="101.7" y2="45.3"/>
					<line class="st8" x1="100.7" y1="50.8" x2="101.7" y2="50.8"/>
					<line class="st8" x1="100.7" y1="56.3" x2="101.7" y2="56.3"/>
					<line class="st8" x1="100.7" y1="61.9" x2="101.7" y2="61.9"/>
				</g>
				<polyline class="st8" points="100.7,23.2 101.7,23.2 101.8,23.2 104.7,25.9 101.8,28.7 104.7,31.5 101.8,34.2 104.7,37 
					101.8,39.7 104.7,42.5 101.8,45.3 104.7,48 101.8,50.8 104.7,53.6 101.8,56.3 104.7,59.1 101.8,61.9 104.7,64.6 101.8,67.4 				
					"/>
			</g>
			<path class="st5" d="M97.7,0.3c-8.6,0-15.6,6.9-15.6,11.8c0,5,7,9,15.6,9c8.6,0,15.6-4,15.6-9C113.3,7.2,106.3,0.3,97.7,0.3z"/>
			<linearGradient id="SVGID_3_" gradientUnits="userSpaceOnUse" x1="82.179" y1="10.7268" x2="113.2889" y2="10.7268">
				<stop  offset="0.1166" style="stop-color:#B3B3B3"/>
				<stop  offset="0.1657" style="stop-color:#B3B3B3;stop-opacity:0.9259"/>
				<stop  offset="0.7801" style="stop-color:#B3B3B3;stop-opacity:0"/>
			</linearGradient>
			<path class="st9" d="M97.7,0.3c-8.6,0-15.6,6.9-15.6,11.8c0,5,7,9,15.6,9c8.6,0,15.6-4,15.6-9C113.3,7.2,106.3,0.3,97.7,0.3z"/>
			<g>
				<g>
					
						<linearGradient id="SVGID_4_" gradientUnits="userSpaceOnUse" x1="3774.3408" y1="-1389.498" x2="3761.3823" y2="-1374.7629" gradientTransform="matrix(-0.866 0.5 1 0.5774 4761.7676 -1022.5002)">
						<stop  offset="0" style="stop-color:#8B8B8B;stop-opacity:0.3"/>
						<stop  offset="0.4086" style="stop-color:#818181;stop-opacity:0.4226"/>
						<stop  offset="1" style="stop-color:#767676;stop-opacity:0.6"/>
					</linearGradient>
					<polygon class="st10" points="118.1,59.9 109.5,64.9 113.1,66.8 121.8,61.9 					"/>
				</g>
				<polygon class="st5" points="109.5,64.9 109.5,36.2 113.1,38.1 113.1,66.8 				"/>
				<linearGradient id="SVGID_5_" gradientUnits="userSpaceOnUse" x1="137.8114" y1="8.5123" x2="84.3596" y2="95.0533">
					<stop  offset="0" style="stop-color:#B3B3B3;stop-opacity:0.7896"/>
					<stop  offset="1" style="stop-color:#B3B3B3;stop-opacity:0.335"/>
				</linearGradient>
				<polygon class="st11" points="109.5,64.9 109.5,36.2 113.1,38.1 113.1,66.8 				"/>
				<polygon class="st5" points="121.8,33.1 121.8,61.9 113.1,66.8 113.1,38.1 				"/>
				<linearGradient id="SVGID_6_" gradientUnits="userSpaceOnUse" x1="100.4059" y1="95.6634" x2="145.0659" y2="-24.2133">
					<stop  offset="0" style="stop-color:#B3B3B3;stop-opacity:0.335"/>
					<stop  offset="7.406294e-02" style="stop-color:#B3B3B3;stop-opacity:0.3176"/>
					<stop  offset="1" style="stop-color:#B3B3B3;stop-opacity:0.1"/>
				</linearGradient>
				<polygon class="st12" points="121.8,33.1 121.8,61.9 113.1,66.8 113.1,38.1 				"/>
				<g>
					<g>
						<polygon class="st13" points="117.8,32.5 110.3,36.8 113.4,38.4 120.9,34.1 						"/>
					</g>
					<g>
						<polygon class="st13" points="117.7,31.3 108.2,36.7 113.5,39.6 123,34.2 						"/>
					</g>
					<polygon class="st13" points="113.5,39.6 113.5,36.7 108.2,33.9 108.2,36.7 					"/>
					<polygon class="st13" points="113.5,39.6 113.5,36.7 108.2,33.9 108.2,36.7 					"/>
					<polygon class="st13" points="113.5,36.7 123,31.3 123,34.2 113.5,39.6 					"/>
					<polygon class="st13" points="117.7,28.5 108.2,33.9 113.5,36.7 123,31.3 					"/>
				</g>
			</g>
		</g>
		<g>
			<g>
				<g>
					<path class="st2" d="M40.9,88c0-0.7,0.4-1.3,1-1.6l41.4-24.6c0.3-0.2,0.6-0.3,1-0.3c0.3,0,0.7,0.1,1,0.3l16.5,9.6
						c0.6,0.3,0.9,0.9,0.9,1.6c0,0.7-0.3,1.3-0.9,1.6L60.8,98.3c-1.3,0.8-3,0.8-4.3,0l-14.7-8.6C41.2,89.3,40.9,88.7,40.9,88z"/>
				</g>
				<g>
					<path class="st2" d="M26.1,79.3c0-0.7,0.4-1.3,1-1.6l41.4-24.6c0.3-0.2,0.6-0.3,1-0.3c0.3,0,0.7,0.1,1,0.3l16.5,9.6
						c0.6,0.3,0.9,0.9,0.9,1.6c0,0.7-0.3,1.3-0.9,1.6l-43.1,25L27.1,81C26.5,80.6,26.1,80,26.1,79.3z"/>
				</g>
			</g>
			<g>
				<g>
					<g>
						<g>
							<polygon class="st5" points="28.9,67.5 43.8,58.9 58.7,67.5 58.7,79.2 43.8,87.8 28.9,79.2 							"/>
							<polygon class="st14" points="28.9,67.5 43.8,58.9 58.7,67.5 58.7,68.3 43.8,76.9 28.9,68.3 							"/>
							<linearGradient id="SVGID_7_" gradientUnits="userSpaceOnUse" x1="32.3072" y1="67.5292" x2="55.2471" y2="67.5292">
								<stop  offset="0" style="stop-color:#B3B3B3;stop-opacity:0.7896"/>
								<stop  offset="1" style="stop-color:#B3B3B3;stop-opacity:0.335"/>
							</linearGradient>
							<polygon class="st15" points="55.2,67.5 43.8,60.9 32.3,67.5 43.8,74.2 							"/>
						</g>
						
							<linearGradient id="SVGID_8_" gradientUnits="userSpaceOnUse" x1="3599.4924" y1="86.5196" x2="3595.3025" y2="56.9291" gradientTransform="matrix(-1 0 0 1 3649.4275 0)">
							<stop  offset="0" style="stop-color:#B3B3B3;stop-opacity:0.335"/>
							<stop  offset="7.406294e-02" style="stop-color:#B3B3B3;stop-opacity:0.3176"/>
							<stop  offset="1" style="stop-color:#B3B3B3;stop-opacity:0.1"/>
						</linearGradient>
						<path class="st16" d="M43.7,87.8V76.4l15-8.8v11.6"/>
						
							<linearGradient id="SVGID_9_" gradientUnits="userSpaceOnUse" x1="-2979.5857" y1="74.0485" x2="-2988.6731" y2="80.6768" gradientTransform="matrix(1 0 0 1 3020.9551 0)">
							<stop  offset="0" style="stop-color:#B3B3B3;stop-opacity:0.7896"/>
							<stop  offset="1" style="stop-color:#B3B3B3;stop-opacity:0.335"/>
						</linearGradient>
						<path class="st17" d="M28.8,79.2V67.7l15,8.7v11.5"/>
					</g>
				</g>
				<g>
					<line class="st18" x1="32.3" y1="67.6" x2="30.9" y2="68.4"/>
					<line class="st18" x1="34" y1="68.6" x2="32.5" y2="69.4"/>
					<line class="st18" x1="35.6" y1="69.6" x2="34.1" y2="70.4"/>
					<line class="st18" x1="37.2" y1="70.5" x2="35.7" y2="71.3"/>
					<line class="st18" x1="38.8" y1="71.5" x2="37.4" y2="72.3"/>
					<line class="st18" x1="40.5" y1="72.5" x2="39" y2="73.3"/>
					<line class="st18" x1="42.1" y1="73.4" x2="40.6" y2="74.2"/>
					<line class="st18" x1="43.7" y1="74.4" x2="42.3" y2="75.2"/>
				</g>
				<g>
					<line class="st18" x1="45.4" y1="59.8" x2="43.8" y2="60.7"/>
					<line class="st18" x1="47.3" y1="61" x2="45.7" y2="61.9"/>
					<line class="st18" x1="49.2" y1="62.1" x2="47.6" y2="63"/>
					<line class="st18" x1="51.1" y1="63.2" x2="49.5" y2="64.1"/>
					<line class="st18" x1="53" y1="64.4" x2="51.4" y2="65.2"/>
					<line class="st18" x1="54.9" y1="65.5" x2="53.3" y2="66.4"/>
					<line class="st18" x1="56.8" y1="66.6" x2="55.2" y2="67.5"/>
				</g>
				<g>
					<polygon class="st19" points="49,84.9 47.9,85.5 47.9,81.7 49,81.1 					"/>
					<polygon class="st19" points="52.1,83 50.9,83.6 50.9,79.8 52.1,79.2 					"/>
					<polygon class="st19" points="55.1,81.1 54,81.7 54,77.9 55.1,77.3 					"/>
				</g>
			</g>
			<g>
				<g>
					<g>
						<g>
							<polygon class="st5" points="54.9,52.4 69.8,43.8 84.7,52.4 84.7,64 69.8,72.6 54.9,64 							"/>
							<polygon class="st14" points="54.9,52.4 69.8,43.8 84.7,52.4 84.7,53.2 69.8,61.8 54.9,53.2 							"/>
							<linearGradient id="SVGID_10_" gradientUnits="userSpaceOnUse" x1="58.3619" y1="52.4145" x2="81.3017" y2="52.4145">
								<stop  offset="0" style="stop-color:#B3B3B3;stop-opacity:0.7896"/>
								<stop  offset="1" style="stop-color:#B3B3B3;stop-opacity:0.335"/>
							</linearGradient>
							<polygon class="st20" points="81.3,52.4 69.8,45.8 58.4,52.4 69.8,59 							"/>
						</g>
						
							<linearGradient id="SVGID_11_" gradientUnits="userSpaceOnUse" x1="3573.4377" y1="71.4049" x2="3569.2478" y2="41.8144" gradientTransform="matrix(-1 0 0 1 3649.4275 0)">
							<stop  offset="0" style="stop-color:#B3B3B3;stop-opacity:0.335"/>
							<stop  offset="7.406294e-02" style="stop-color:#B3B3B3;stop-opacity:0.3176"/>
							<stop  offset="1" style="stop-color:#B3B3B3;stop-opacity:0.1"/>
						</linearGradient>
						<path class="st21" d="M69.7,72.7V61.3l15-8.8v11.6"/>
						
							<linearGradient id="SVGID_12_" gradientUnits="userSpaceOnUse" x1="-2953.5313" y1="58.9338" x2="-2962.6184" y2="65.5621" gradientTransform="matrix(1 0 0 1 3020.9551 0)">
							<stop  offset="0" style="stop-color:#B3B3B3;stop-opacity:0.7896"/>
							<stop  offset="1" style="stop-color:#B3B3B3;stop-opacity:0.335"/>
						</linearGradient>
						<path class="st22" d="M54.8,64.1V52.5l15,8.7v11.5"/>
					</g>
				</g>
				<g>
					<line class="st18" x1="58.4" y1="52.5" x2="56.9" y2="53.3"/>
					<line class="st18" x1="60" y1="53.5" x2="58.5" y2="54.3"/>
					<line class="st18" x1="61.6" y1="54.5" x2="60.2" y2="55.3"/>
					<line class="st18" x1="63.3" y1="55.4" x2="61.8" y2="56.2"/>
					<line class="st18" x1="64.9" y1="56.4" x2="63.4" y2="57.2"/>
					<line class="st18" x1="66.5" y1="57.4" x2="65.1" y2="58.2"/>
					<line class="st18" x1="68.2" y1="58.3" x2="66.7" y2="59.1"/>
					<line class="st18" x1="69.8" y1="59.3" x2="68.3" y2="60.1"/>
				</g>
				<g>
					<line class="st18" x1="71.5" y1="44.7" x2="69.9" y2="45.6"/>
					<line class="st18" x1="73.4" y1="45.9" x2="71.8" y2="46.7"/>
					<line class="st18" x1="75.3" y1="47" x2="73.7" y2="47.9"/>
					<line class="st18" x1="77.2" y1="48.1" x2="75.6" y2="49"/>
					<line class="st18" x1="79.1" y1="49.2" x2="77.5" y2="50.1"/>
					<line class="st18" x1="81" y1="50.4" x2="79.4" y2="51.3"/>
					<line class="st18" x1="82.9" y1="51.5" x2="81.3" y2="52.4"/>
				</g>
				<g>
					<polygon class="st19" points="75.1,69.7 73.9,70.4 73.9,66.6 75.1,66 					"/>
					<polygon class="st19" points="78.1,67.9 77,68.5 77,64.7 78.1,64.1 					"/>
					<polygon class="st19" points="81.2,66 80,66.6 80,62.8 81.2,62.2 					"/>
				</g>
			</g>
			<g>
				<g>
					<g>
						<g>
							<polygon class="st5" points="43.8,71.4 84.7,47.6 99.4,56.2 99.4,72.6 58.5,96.4 43.8,87.8 							"/>
							<g>
								<polygon class="st14" points="52.2,82.8 43.8,77.8 43.8,82.6 52.2,87.5 								"/>
							</g>
							<g>
								<g>
									<polygon class="st14" points="43.7,71.6 43.7,73.2 51.1,74.6 51.1,73 									"/>
									<polygon class="st14" points="58.5,80.2 51.1,73 51.1,74.6 58.5,81.8 									"/>
								</g>
								<g>
									<polygon class="st5" points="84.6,47.4 43.5,71.5 50.9,73 92,48.9 									"/>
									<linearGradient id="SVGID_13_" gradientUnits="userSpaceOnUse" x1="43.5373" y1="60.2024" x2="91.9809" y2="60.2024">
										<stop  offset="0" style="stop-color:#B3B3B3;stop-opacity:0.7896"/>
										<stop  offset="1" style="stop-color:#B3B3B3;stop-opacity:0.335"/>
									</linearGradient>
									<polygon class="st23" points="84.6,47.4 43.5,71.5 50.9,73 92,48.9 									"/>
									<polygon class="st5" points="99.4,56.1 92,48.9 51.1,73 58.5,80.1 									"/>
									<linearGradient id="SVGID_14_" gradientUnits="userSpaceOnUse" x1="51.067" y1="64.5138" x2="99.3836" y2="64.5138">
										<stop  offset="0" style="stop-color:#B3B3B3;stop-opacity:0.335"/>
										<stop  offset="7.406294e-02" style="stop-color:#B3B3B3;stop-opacity:0.3176"/>
										<stop  offset="1" style="stop-color:#B3B3B3;stop-opacity:0.1"/>
									</linearGradient>
									<polygon class="st24" points="99.4,56.1 92,48.9 51.1,73 58.5,80.1 									"/>
								</g>
							</g>
						</g>
						
							<linearGradient id="SVGID_15_" gradientUnits="userSpaceOnUse" x1="3573.0942" y1="94.4654" x2="3564.467" y2="33.5357" gradientTransform="matrix(-1 0 0 1 3649.4275 0)">
							<stop  offset="0" style="stop-color:#B3B3B3;stop-opacity:0.335"/>
							<stop  offset="7.406294e-02" style="stop-color:#B3B3B3;stop-opacity:0.3176"/>
							<stop  offset="1" style="stop-color:#B3B3B3;stop-opacity:0.1"/>
						</linearGradient>
						<path class="st25" d="M58.4,96.5V80.2l41-24v16.4"/>
						
							<linearGradient id="SVGID_16_" gradientUnits="userSpaceOnUse" x1="-2963.7527" y1="79.5779" x2="-2974.6113" y2="87.4984" gradientTransform="matrix(1 0 0 1 3020.9551 0)">
							<stop  offset="0" style="stop-color:#B3B3B3;stop-opacity:0.7896"/>
							<stop  offset="1" style="stop-color:#B3B3B3;stop-opacity:0.335"/>
						</linearGradient>
						<path class="st26" d="M43.7,87.9V71.5l7.3,1.5l7.5,7.2v16.3"/>
					</g>
				</g>
				<g>
				</g>
			</g>
			<g>
				<polygon class="st14" points="58.4,80.2 58.4,81.8 99.4,57.9 99.4,56.3 				"/>
			</g>
			<g>
				<polygon class="st14" points="73.9,77.4 73.9,82.1 99.4,67.3 99.4,62.5 				"/>
			</g>
			<g>
				<g>
					<line class="st8" x1="68" y1="77.7" x2="68.7" y2="77.3"/>
					<line class="st8" x1="68" y1="82.3" x2="68.7" y2="81.9"/>
					<line class="st8" x1="68" y1="86.8" x2="68.7" y2="86.4"/>
					<line class="st8" x1="68" y1="91.3" x2="68.7" y2="90.9"/>
				</g>
				<g>
					<line class="st8" x1="65.2" y1="81.6" x2="65.8" y2="81.2"/>
					<line class="st8" x1="65.2" y1="86.2" x2="65.8" y2="85.8"/>
					<line class="st8" x1="65.2" y1="90.7" x2="65.8" y2="90.3"/>
				</g>
				<polyline class="st8" points="65.2,77.1 65.8,76.7 66,76.6 68,77.7 66,81.2 68,82.3 66,85.7 68,86.8 66,90.2 68,91.3 				"/>
			</g>
		</g>
		<g>
			<ellipse class="st2" cx="129.5" cy="71" rx="5.5" ry="3.8"/>
			<g>
				<g>
					
						<linearGradient id="SVGID_17_" gradientUnits="userSpaceOnUse" x1="83.2559" y1="52.9132" x2="87.2847" y2="52.9132" gradientTransform="matrix(1 0 0 1 44.2152 0)">
						<stop  offset="0" style="stop-color:#B3B3B3"/>
						<stop  offset="0.4902" style="stop-color:#E6E6E6"/>
						<stop  offset="0.7801" style="stop-color:#FFFFFF"/>
					</linearGradient>
					<path class="st27" d="M131.6,33.2h-4.3L126.5,71c0,0.9,1.4,1.6,3,1.6c1.7,0,3-0.7,3-1.6L131.6,33.2z"/>
					<path class="st14" d="M129.5,45.2c-1.1,0-2.1-0.4-2.4-1l-0.1,3.9c0,0.7,1.1,1.3,2.4,1.3c1.3,0,2.4-0.6,2.4-1.3l-0.1-3.9
						C131.5,44.8,130.6,45.2,129.5,45.2z"/>
					<path class="st14" d="M129.5,38.1c-1.1,0-1.9-0.4-2.2-0.9l-0.1,3.6c0,0.7,1,1.2,2.3,1.2c1.3,0,2.3-0.6,2.3-1.2l-0.1-3.6
						C131.4,37.7,130.5,38.1,129.5,38.1z"/>
					<ellipse class="st28" cx="129.5" cy="33.2" rx="2.2" ry="1.2"/>
					<ellipse class="st29" cx="129.5" cy="33.2" rx="1.6" ry="0.9"/>
				</g>
				<g>
					<g>
						<path class="st30" d="M126.5,69c0,0.9,1.3,1.6,3,1.6c1.6,0,3-0.7,3-1.6l0-0.2c-0.1,0.8-1.4,1.5-3,1.5c-1.6,0-2.9-0.7-3-1.5
							L126.5,69z"/>
					</g>
				</g>
				<g>
					<g>
						<path class="st30" d="M126.7,61.3c0,0.8,1.3,1.5,2.8,1.5c1.5,0,2.8-0.7,2.8-1.5l0-0.2c-0.1,0.8-1.3,1.4-2.8,1.4
							c-1.5,0-2.7-0.6-2.8-1.4L126.7,61.3z"/>
					</g>
				</g>
				<g>
					<g>
						<path class="st30" d="M126.9,52.3c0,0.8,1.2,1.4,2.6,1.4c1.4,0,2.6-0.6,2.6-1.4l0-0.2c-0.1,0.7-1.2,1.3-2.6,1.3
							c-1.4,0-2.5-0.6-2.6-1.3L126.9,52.3z"/>
					</g>
				</g>
				<g>
					<g>
						<path class="st30" d="M127.1,44c0,0.7,1.1,1.3,2.4,1.3c1.3,0,2.4-0.6,2.4-1.3l0-0.2c-0.1,0.7-1.1,1.2-2.4,1.2
							c-1.3,0-2.3-0.5-2.4-1.2L127.1,44z"/>
					</g>
				</g>
			</g>
		</g>
	</g>
	<g>
		<g>
			<path class="st2" d="M69,110.6l1.4-0.5l0-0.9l1.3-0.3l-0.9-0.9l-1.6,0.1l0.3-0.5l-1.4-1.3l-1.4,0.2l-0.4-0.6l-1.6-0.2l-1,1
				l-1.3,0.2l-0.6-0.4l-2,0.5l-0.1,1.3l-1.1,0.1l-0.7,1l2.5,0.5l-0.2,0.9l1.1,0.9l1.1,0.6l1.4-0.5l0.9,0.5l2.4-0.4L69,110.6z"/>
			<g>
				<polygon class="st3" points="68,110.4 68.7,96.2 68.9,110.5 				"/>
				<polygon class="st3" points="68.2,107.1 66.5,102.5 68.7,106.9 				"/>
				<polygon class="st4" points="64.5,103.3 63,101.3 63.6,100.1 62.2,99.1 62.9,97.6 64.2,96.1 66,95.7 66.2,93.1 68.2,93.1 
					68.7,94 71.1,93.3 72.6,94.9 72,95.7 72.8,96.8 75.1,97 75.2,98.7 74.2,99.5 75.1,100.7 73,102.8 71.9,102.8 72.5,104.3 
					71.1,105.7 70.1,104.6 68.4,105.2 67.1,104.1 				"/>
				<g>
					<polygon class="st4" points="68.3,95.1 67.2,94 67.6,93.1 66.2,93.1 66,95.7 68,96.3 					"/>
					<polygon class="st0" points="68.8,102.6 67.1,103.1 66.9,101.9 65.4,101.5 65.3,100.2 67.4,100.3 67.8,99.5 67.2,97.8 
						66.3,98.4 65.3,97.4 66,95.7 64.2,96.1 62.9,97.6 62.2,99.1 63.6,100.1 63,101.3 64.5,103.3 67.1,104.1 68.4,105.2 70.1,104.6 
						71.1,105.7 70.6,103.4 					"/>
				</g>
			</g>
		</g>
		<g>
			<g>
				<polygon class="st4" points="64.4,98 63.3,96.5 63.8,95.6 62.7,94.8 63.2,93.8 64.2,92.6 65.6,92.3 65.7,90.3 67.2,90.3 
					67.6,91 69.4,90.5 70.6,91.7 70.1,92.3 70.7,93.1 72.4,93.3 72.5,94.6 71.7,95.1 72.4,96 70.8,97.7 70,97.7 70.5,98.7 
					69.4,99.8 68.7,99 67.4,99.5 66.4,98.7 				"/>
				<g>
					<polyline class="st0" points="65.6,92.3 67,92.8 67.3,91.8 66.5,91 66.8,90.3 65.7,90.3 					"/>
					<polygon class="st0" points="67.7,97.5 66.4,97.8 66.2,96.9 65.1,96.7 65,95.7 66.6,95.8 66.9,95.1 66.5,93.8 65.7,94.3 
						65,93.6 65.6,92.3 64.2,92.6 63.2,93.8 62.7,94.8 63.8,95.6 63.3,96.5 64.4,98 66.4,98.7 67.4,99.5 68.7,99 69.4,99.8 69,98.1 
											"/>
				</g>
			</g>
		</g>
		<g>
			<g>
				<polygon class="st4" points="65.7,89.6 65.7,91.1 66.3,91.5 66,92.4 66.8,92.9 67.9,93.3 68.8,92.9 69.7,94.2 70.6,93.6 
					70.6,93 71.9,92.6 72.1,91.4 71.6,91.2 71.6,90.4 72.6,89.6 72.1,88.8 71.4,88.7 71.4,87.8 69.8,87.4 69.3,87.7 69.1,86.8 
					68,86.5 67.9,87.3 67,87.5 66.7,88.4 				"/>
				<g>
					<polygon class="st0" points="67.9,88.7 67,89 67.3,89.6 66.7,90.2 67.1,90.9 68,90.3 68.5,90.5 68.7,91.6 68.1,91.5 68,92.3 
						68.8,92.9 67.9,93.3 66.8,92.9 66,92.4 66.3,91.5 65.7,91.1 65.7,89.6 66.7,88.4 67,87.5 67.9,87.3 68,86.5 68.5,87.8 					"/>
				</g>
			</g>
		</g>
	</g>
</g>
</svg>
