<?xml version="1.0" encoding="utf-8"?>
<!-- Generator: Adobe Illustrator 21.1.0, SVG Export Plug-In . SVG Version: 6.00 Build 0)  -->
<svg version="1.1" id="Слой_1" xmlns="http://www.w3.org/2000/svg" xmlns:xlink="http://www.w3.org/1999/xlink" x="0px" y="0px"
	 viewBox="0 0 380 253" style="enable-background:new 0 0 380 253;" xml:space="preserve">
<style type="text/css">
	.st0{fill:#346F2E;}
	.st1{fill:#D1D1CD;}
	.st2{fill:#A19C95;}
	.st3{fill:#F9F9F9;}
	.st4{fill:#707070;}
	.st5{fill:url(#SVGID_1_);}
	.st6{fill:url(#SVGID_2_);}
	.st7{fill:url(#SVGID_3_);}
	.st8{fill:url(#SVGID_4_);}
	.st9{fill:#FFFFFF;}
	.st10{fill:#4F4F4F;}
	.st11{font-family:'MyriadPro-Regular', 'Arial', sans-serif;}
	.st12{font-size:7.9702px;}
	.st13{fill:#E35B64;}
	.st14{fill:#CC3741;}
	.st15{fill:url(#SVGID_5_);}
	.st16{fill:#666368;}
	.st17{fill:url(#SVGID_6_);}
	.st18{fill:url(#SVGID_7_);}
	.st19{fill:url(#SVGID_8_);}
	.st20{fill:url(#SVGID_9_);}
	.st21{fill:url(#SVGID_10_);}
	.st22{fill:url(#SVGID_11_);}
	.st23{fill:url(#SVGID_12_);}
	.st24{fill:url(#SVGID_13_);}
	.st25{fill:url(#SVGID_14_);}
	.st26{fill:url(#SVGID_15_);}
	.st27{fill:url(#SVGID_16_);}
	.st28{fill:url(#SVGID_17_);}
	.st29{fill:url(#SVGID_18_);}
	.st30{fill:url(#SVGID_19_);}
	.st31{fill:url(#SVGID_20_);}
	.st32{fill:url(#SVGID_21_);}
	.st33{fill:url(#SVGID_22_);}
	.st34{fill:#BDB7AF;}
	.st35{fill:url(#SVGID_23_);}
	.st36{fill:url(#SVGID_24_);}
	.st37{fill:url(#SVGID_25_);}
	.st38{fill:url(#SVGID_26_);}
	.st39{fill:url(#SVGID_27_);}
	.st40{fill:url(#SVGID_28_);}
	.st41{fill:url(#SVGID_29_);}
	.st42{fill:url(#SVGID_30_);}
	.st43{fill:url(#SVGID_31_);}
	.st44{fill:url(#SVGID_32_);}
	.st45{fill:#57352F;}
	.st46{fill:#568E48;}
	.st47{fill:url(#SVGID_33_);}
	.st48{fill:url(#SVGID_34_);}
	.st49{fill:url(#SVGID_35_);}
	.st50{fill:url(#SVGID_36_);}
	.st51{fill:url(#SVGID_37_);}
	.st52{fill:url(#SVGID_38_);}
	.st53{fill:url(#SVGID_39_);}
	.st54{fill:url(#SVGID_40_);}
	.st55{fill:url(#SVGID_41_);}
	.st56{fill:none;stroke:#A19C95;stroke-width:6;stroke-linecap:round;stroke-linejoin:round;stroke-miterlimit:10;}
	.st57{font-size:14.9675px;}
	.st58{fill-rule:evenodd;clip-rule:evenodd;fill:#1B2F64;}
	.st59{fill:#CD0006;}
	.st60{fill:#39363A;}
	.st61{fill:none;stroke:#707070;stroke-miterlimit:10;}
</style>
<g id="_x3C_Группа_x3E_">
	<g>
		<path class="st0" d="M374,100.3L117,248.9c-7.2,4.1-18,4.6-24.2,1l-88.3-51c-6.2-3.6-5.4-9.8,1.7-14L263.2,36.4
			c7.2-4.1,18-4.6,24.2-1l88.3,51C382,89.9,381.2,96.2,374,100.3z"/>
		<path class="st1" d="M374,97.3L117,245.9c-7.2,4.1-18,4.6-24.2,1l-88.3-51c-6.2-3.6-5.4-9.8,1.7-14L263.2,33.4
			c7.2-4.1,18-4.6,24.2-1l88.3,51C382,86.9,381.2,93.2,374,97.3z"/>
	</g>
	<g>
		<g>
			<path class="st2" d="M260.9,48.1c-0.5,0-1,0.1-1.5,0.4l-66.2,38.2c-0.9,0.5-1.5,1.5-1.5,2.6s0.6,2.1,1.5,2.6l12.5,7.2
				c0.5,0.3,1,0.4,1.5,0.4c0.5,0,1-0.1,1.5-0.4l5.7-3.3l11.9,6.9c0.5,0.3,1,0.4,1.5,0.4s1-0.1,1.5-0.4l53.5-30.9
				c0.9-0.5,1.5-1.5,1.5-2.6s-0.6-2.1-1.5-2.6l-8.9-5.1l1-0.6c0.9-0.5,1.5-1.5,1.5-2.6s-0.6-2.1-1.5-2.6l-12.5-7.2
				C262,48.2,261.5,48.1,260.9,48.1L260.9,48.1z"/>
			<g>
				<g>
					<polygon class="st3" points="207.3,74 207.3,96.3 273.5,58.1 273.5,35.8 					"/>
					<polygon class="st3" points="194.8,66.8 194.8,89.1 207.3,96.3 207.3,74 					"/>
					<polygon class="st4" points="260.9,28.6 194.8,66.8 207.3,74 273.5,35.8 					"/>
				</g>
				<g>
					<linearGradient id="SVGID_1_" gradientUnits="userSpaceOnUse" x1="207.2995" y1="66.0492" x2="273.4802" y2="66.0492">
						<stop  offset="0" style="stop-color:#B3B3B3;stop-opacity:0.335"/>
						<stop  offset="7.406294e-02" style="stop-color:#B3B3B3;stop-opacity:0.3176"/>
						<stop  offset="1" style="stop-color:#B3B3B3;stop-opacity:0.1"/>
					</linearGradient>
					<polygon class="st5" points="207.3,74 207.3,96.3 273.5,58.1 273.5,35.8 					"/>
				</g>
				<linearGradient id="SVGID_2_" gradientUnits="userSpaceOnUse" x1="199.7888" y1="85.5614" x2="218.4555" y2="25.3947">
					<stop  offset="0.1166" style="stop-color:#B3B3B3"/>
					<stop  offset="0.1657" style="stop-color:#B3B3B3;stop-opacity:0.9259"/>
					<stop  offset="0.7801" style="stop-color:#B3B3B3;stop-opacity:0"/>
				</linearGradient>
				<polygon class="st6" points="194.8,66.8 194.8,89.1 207.3,96.3 207.3,74 				"/>
				<polygon class="st4" points="197.2,69.8 197.2,88 199.1,89.1 199.1,71 				"/>
				<g>
					<path class="st3" d="M281.4,46.7l-53.5,30.9v22.5l3.8-2.2v-9.6c0-1.7,1-3.6,2.3-4.3c1.3-0.7,2.3,0,2.3,1.7v9.6l3.7-2.2v-9.6
						c0-1.7,1-3.6,2.3-4.3c1.3-0.7,2.3,0,2.3,1.7v9.6l3.7-2.2v-9.6c0-1.7,1-3.6,2.3-4.3s2.3,0,2.3,1.7v9.6l3.7-2.2v-9.6
						c0-1.7,1-3.6,2.3-4.3c1.3-0.7,2.3,0,2.3,1.7v9.6l3.7-2.2v-9.6c0-1.7,1-3.6,2.3-4.3c1.3-0.7,2.3,0,2.3,1.7v9.6L273,74v-9.6
						c0-1.7,1-3.6,2.3-4.3s2.3,0,2.3,1.7v9.6l3.8-2.2V46.7z"/>
				</g>
				<g>
					<linearGradient id="SVGID_3_" gradientUnits="userSpaceOnUse" x1="227.8589" y1="73.4128" x2="281.3702" y2="73.4128">
						<stop  offset="0" style="stop-color:#B3B3B3;stop-opacity:0.335"/>
						<stop  offset="7.406294e-02" style="stop-color:#B3B3B3;stop-opacity:0.3176"/>
						<stop  offset="1" style="stop-color:#B3B3B3;stop-opacity:0.1"/>
					</linearGradient>
					<path class="st7" d="M281.4,46.7l-53.5,30.9v22.5l3.8-2.2v-9.6c0-1.7,1-3.6,2.3-4.3c1.3-0.7,2.3,0,2.3,1.7v9.6l3.7-2.2v-9.6
						c0-1.7,1-3.6,2.3-4.3c1.3-0.7,2.3,0,2.3,1.7v9.6l3.7-2.2v-9.6c0-1.7,1-3.6,2.3-4.3s2.3,0,2.3,1.7v9.6l3.7-2.2v-9.6
						c0-1.7,1-3.6,2.3-4.3c1.3-0.7,2.3,0,2.3,1.7v9.6l3.7-2.2v-9.6c0-1.7,1-3.6,2.3-4.3c1.3-0.7,2.3,0,2.3,1.7v9.6L273,74v-9.6
						c0-1.7,1-3.6,2.3-4.3s2.3,0,2.3,1.7v9.6l3.8-2.2V46.7z"/>
				</g>
				<g>
					<g>
						<path class="st4" d="M233.9,83.9c-0.3,0.2-0.5,0.4-0.8,0.7v8.9l3.1,1.8v-9.6C236.2,84,235.2,83.2,233.9,83.9z"/>
					</g>
					<g>
						<path class="st4" d="M242.2,79.2c-0.3,0.2-0.5,0.4-0.8,0.7v8.9l3.1,1.8v-9.6C244.5,79.2,243.4,78.4,242.2,79.2z"/>
					</g>
					<g>
						<path class="st4" d="M250.5,74.4c-0.3,0.2-0.5,0.4-0.8,0.7V84l3.1,1.8v-9.6C252.7,74.4,251.7,73.6,250.5,74.4z"/>
					</g>
					<g>
						<path class="st4" d="M258.8,69.6c-0.3,0.2-0.5,0.4-0.8,0.7v8.9l3.1,1.8v-9.6C261,69.6,260,68.9,258.8,69.6z"/>
					</g>
					<g>
						<path class="st4" d="M267,64.8c-0.3,0.2-0.5,0.4-0.8,0.7v8.9l3.1,1.8v-9.6C269.3,64.9,268.3,64.1,267,64.8z"/>
					</g>
					<g>
						<path class="st4" d="M275.3,60c-0.3,0.2-0.5,0.4-0.8,0.7v8.9l3.1,1.8v-9.6C277.6,60.1,276.6,59.3,275.3,60z"/>
					</g>
				</g>
				<g>
					<path class="st3" d="M227.9,77.6l-13.5-7.8v22.5l4.5,2.6v-9.6c0-1.7,1-2.4,2.3-1.7c1.3,0.7,2.3,2.7,2.3,4.3v9.6l4.5,2.6V77.6z"
						/>
				</g>
				<g>
					<linearGradient id="SVGID_4_" gradientUnits="userSpaceOnUse" x1="219.0751" y1="91.5449" x2="237.7417" y2="31.3782">
						<stop  offset="0.1166" style="stop-color:#B3B3B3"/>
						<stop  offset="0.1657" style="stop-color:#B3B3B3;stop-opacity:0.9259"/>
						<stop  offset="0.7801" style="stop-color:#B3B3B3;stop-opacity:0"/>
					</linearGradient>
					<path class="st8" d="M227.9,77.6l-13.5-7.8v22.5l4.5,2.6v-9.6c0-1.7,1-2.4,2.3-1.7c1.3,0.7,2.3,2.7,2.3,4.3v9.6l4.5,2.6V77.6z"
						/>
				</g>
				<g>
					<g>
						<polygon class="st1" points="217.9,94.3 217.1,93.9 217.1,75.4 217.9,75.8 						"/>
						<polygon class="st1" points="225.1,98.5 224.3,98 224.3,79.5 225.1,79.9 						"/>
					</g>
				</g>
				<g>
					<polygon class="st9" points="281.4,50 227.9,80.9 227.9,81.9 281.4,51.1 					"/>
				</g>
				<g>
					<polygon class="st1" points="227.9,80.9 214.4,73.1 214.4,74.2 227.9,81.9 					"/>
				</g>
				<g>
					<polygon class="st4" points="221.9,93.1 223.4,94 223.4,97.5 218.8,94.9 218.8,94.9 221.9,93.1 					"/>
					<path class="st4" d="M221.1,83.5c0.3,0.2,0.5,0.4,0.8,0.7v8.9l-3.1,1.8v-9.6C218.8,83.6,219.9,82.8,221.1,83.5z"/>
				</g>
				<polygon class="st4" points="267.9,39 214.4,69.8 227.9,77.6 281.4,46.7 				"/>
			</g>
			<polygon class="st10" points="256.4,35.3 209.1,62.6 223.7,71 271.1,43.7 			"/>
		</g>
		<g>
			<polygon class="st3" points="288.7,17.1 209.5,62.8 214.1,43.3 288.7,0.3 			"/>
			<text transform="matrix(0.8661 -0.5 0 1 219.906 50.7665)" class="st11 st12">Республика Армения</text>
			<g>
				<path class="st13" d="M210.6,40.8c-3-1.7-7.9,1.1-10.9,6.3c-2.6,4.5-3,9.5-0.9,11.8l6.3,7.1l3,1.7l5.4-25.1L210.6,40.8z
					 M205.2,54.3c-2,1.1-3.6,0.2-3.6-2.1c0-1.1,2.6-5.6,3.6-6.2c2-1.1,3.6-0.2,3.6,2.1C208.8,50.4,207.2,53.2,205.2,54.3z"/>
			</g>
			<g>
				<path class="st14" d="M213.7,42.5c-3-1.7-7.9,1.1-10.9,6.3c-2.6,4.5-3,9.5-0.9,11.8l6.3,7.1l6.3-14.4
					C216.7,48.5,216.3,44,213.7,42.5z M208.2,56.1c-2,1.1-3.6,0.2-3.6-2.1c0-2.3,1.6-5.1,3.6-6.2c2-1.1,3.6-0.2,3.6,2.1
					C211.8,52.1,210.2,54.9,208.2,56.1z"/>
			</g>
		</g>
	</g>
	<g>
		<g>
			<g>
				<path class="st2" d="M190.2,128.2l-17.3-10c-0.3-0.2-0.7-0.3-1-0.3c-0.4,0-0.7,0.1-4,0.3l-34.7,20.6c-1.6,1-1.3,3.4,0.5,3.9
					l22.8,6.3c1.7,0.5,3.6,0.2,5.1-0.7l28.7-16.6c0.6-0.4,1-1,1-1.7S190.9,128.5,190.2,128.2z"/>
			</g>
			<g>
				<g>
					<polygon class="st10" points="187.5,111.3 174.9,104 174.9,118.6 					"/>
				</g>
				<polygon class="st9" points="182.5,82.9 141.5,114.1 141.5,67.1 182.5,61.9 				"/>
				<linearGradient id="SVGID_5_" gradientUnits="userSpaceOnUse" x1="141.5339" y1="88.0125" x2="182.4614" y2="88.0125">
					<stop  offset="0" style="stop-color:#B3B3B3;stop-opacity:0.335"/>
					<stop  offset="7.406294e-02" style="stop-color:#B3B3B3;stop-opacity:0.3176"/>
					<stop  offset="1" style="stop-color:#B3B3B3;stop-opacity:0.1"/>
				</linearGradient>
				<polygon class="st15" points="182.5,82.9 141.5,114.1 141.5,67.1 182.5,61.9 				"/>
				<g>
					<polygon class="st16" points="142.9,113.1 135.7,117.2 153.7,122.1 156.1,120.7 					"/>
				</g>
				<g>
					<polygon class="st9" points="174.9,118.6 174.9,136.4 187.5,129.1 187.5,111.3 					"/>
				</g>
				<g>
					<linearGradient id="SVGID_6_" gradientUnits="userSpaceOnUse" x1="174.8701" y1="123.8532" x2="187.4583" y2="123.8532">
						<stop  offset="0" style="stop-color:#B3B3B3;stop-opacity:0.335"/>
						<stop  offset="7.406294e-02" style="stop-color:#B3B3B3;stop-opacity:0.3176"/>
						<stop  offset="1" style="stop-color:#B3B3B3;stop-opacity:0.1"/>
					</linearGradient>
					<polygon class="st17" points="174.9,118.6 174.9,136.4 187.5,129.1 187.5,111.3 					"/>
				</g>
				<polygon class="st10" points="177.2,117.2 177.2,118.5 187.5,112.6 187.5,111.3 				"/>
				<polygon class="st9" points="173.8,70.4 173.8,135.8 170.8,137.6 170.8,72.2 				"/>
				<linearGradient id="SVGID_7_" gradientUnits="userSpaceOnUse" x1="170.8223" y1="104.006" x2="173.8471" y2="104.006">
					<stop  offset="0" style="stop-color:#B3B3B3;stop-opacity:0.335"/>
					<stop  offset="7.406294e-02" style="stop-color:#B3B3B3;stop-opacity:0.3176"/>
					<stop  offset="1" style="stop-color:#B3B3B3;stop-opacity:0.1"/>
				</linearGradient>
				<polygon class="st18" points="173.8,70.4 173.8,135.8 170.8,137.6 170.8,72.2 				"/>
				<polygon class="st9" points="171.8,72.8 171.8,138.2 161.6,144.1 161.6,78.7 				"/>
				<polygon class="st9" points="174.9,71 185.1,65.1 185.1,130.5 174.9,136.4 				"/>
				<g>
					<polygon class="st16" points="161.6,144.1 171.8,138.2 171.8,129.3 161.6,135.2 					"/>
					<polygon class="st16" points="174.9,127.6 174.9,136.4 185.1,130.5 185.1,121.7 					"/>
				</g>
				<polygon class="st9" points="156.1,77.2 156.1,142.6 142.8,134.9 142.8,69.5 				"/>
				<linearGradient id="SVGID_8_" gradientUnits="userSpaceOnUse" x1="142.8442" y1="106.0577" x2="156.0888" y2="106.0577">
					<stop  offset="0" style="stop-color:#B3B3B3;stop-opacity:0.7896"/>
					<stop  offset="1" style="stop-color:#B3B3B3;stop-opacity:0.335"/>
				</linearGradient>
				<polygon class="st19" points="156.1,77.2 156.1,142.6 142.8,134.9 142.8,69.5 				"/>
				<polygon class="st9" points="157.6,76.3 157.6,141.7 161.6,144.1 161.6,78.7 				"/>
				<linearGradient id="SVGID_9_" gradientUnits="userSpaceOnUse" x1="157.5539" y1="110.2066" x2="161.6119" y2="110.2066">
					<stop  offset="0" style="stop-color:#B3B3B3;stop-opacity:0.335"/>
					<stop  offset="7.406294e-02" style="stop-color:#B3B3B3;stop-opacity:0.3176"/>
					<stop  offset="1" style="stop-color:#B3B3B3;stop-opacity:0.1"/>
				</linearGradient>
				<polygon class="st20" points="157.6,76.3 157.6,141.7 161.6,144.1 161.6,78.7 				"/>
				<polygon class="st10" points="181,62.8 182.5,61.9 169.3,54.3 167.8,55.1 165,53.5 141.5,67.1 144.3,68.7 142.8,69.5 
					156.1,77.2 157.6,76.3 161.6,78.7 171.8,72.8 170.8,72.2 173.8,70.4 174.9,71 185.1,65.1 				"/>
				<g>
					<polygon class="st4" points="165.5,56.2 146.5,67.1 161.3,75.6 180.2,64.7 					"/>
				</g>
				<polygon class="st1" points="174.9,136.4 173.8,135.8 173.8,70.4 174.9,71 				"/>
				<polygon class="st9" points="156.1,77.2 157.6,76.3 157.6,141.7 156.1,142.6 				"/>
				<g>
					<linearGradient id="SVGID_10_" gradientUnits="userSpaceOnUse" x1="174.4583" y1="67.2682" x2="139.1309" y2="194.6721">
						<stop  offset="0.1166" style="stop-color:#B3B3B3"/>
						<stop  offset="0.1657" style="stop-color:#B3B3B3;stop-opacity:0.9259"/>
						<stop  offset="0.7801" style="stop-color:#B3B3B3;stop-opacity:0"/>
					</linearGradient>
					<polygon class="st21" points="161.6,78.7 163.1,77.8 163.1,143.2 161.6,144.1 					"/>
					<linearGradient id="SVGID_11_" gradientUnits="userSpaceOnUse" x1="176.7379" y1="67.9003" x2="141.4105" y2="195.3042">
						<stop  offset="0.1166" style="stop-color:#B3B3B3"/>
						<stop  offset="0.1657" style="stop-color:#B3B3B3;stop-opacity:0.9259"/>
						<stop  offset="0.7801" style="stop-color:#B3B3B3;stop-opacity:0"/>
					</linearGradient>
					<polygon class="st22" points="164.5,77 166,76.2 166,141.5 164.5,142.4 					"/>
					<linearGradient id="SVGID_12_" gradientUnits="userSpaceOnUse" x1="179.0175" y1="68.5324" x2="143.6901" y2="195.9363">
						<stop  offset="0.1166" style="stop-color:#B3B3B3"/>
						<stop  offset="0.1657" style="stop-color:#B3B3B3;stop-opacity:0.9259"/>
						<stop  offset="0.7801" style="stop-color:#B3B3B3;stop-opacity:0"/>
					</linearGradient>
					<polygon class="st23" points="167.5,75.3 168.9,74.5 168.9,139.8 167.5,140.7 					"/>
					<linearGradient id="SVGID_13_" gradientUnits="userSpaceOnUse" x1="181.2971" y1="69.1645" x2="145.9697" y2="196.5684">
						<stop  offset="0.1166" style="stop-color:#B3B3B3"/>
						<stop  offset="0.1657" style="stop-color:#B3B3B3;stop-opacity:0.9259"/>
						<stop  offset="0.7801" style="stop-color:#B3B3B3;stop-opacity:0"/>
					</linearGradient>
					<polygon class="st24" points="170.4,73.6 171.8,72.8 171.8,138.2 170.4,139 					"/>
				</g>
				<g>
					<linearGradient id="SVGID_14_" gradientUnits="userSpaceOnUse" x1="144.8037" y1="79.8125" x2="140.8575" y2="153.2858">
						<stop  offset="0.1166" style="stop-color:#B3B3B3"/>
						<stop  offset="0.1657" style="stop-color:#B3B3B3;stop-opacity:0.9259"/>
						<stop  offset="0.7801" style="stop-color:#B3B3B3;stop-opacity:0"/>
					</linearGradient>
					<polygon class="st25" points="142.8,134.9 144.3,135.8 144.3,70.4 142.8,69.5 					"/>
					<linearGradient id="SVGID_15_" gradientUnits="userSpaceOnUse" x1="147.8311" y1="79.9751" x2="143.885" y2="153.4484">
						<stop  offset="0.1166" style="stop-color:#B3B3B3"/>
						<stop  offset="0.1657" style="stop-color:#B3B3B3;stop-opacity:0.9259"/>
						<stop  offset="0.7801" style="stop-color:#B3B3B3;stop-opacity:0"/>
					</linearGradient>
					<polygon class="st26" points="145.8,136.6 147.3,137.5 147.3,72.1 145.8,71.2 					"/>
					<linearGradient id="SVGID_16_" gradientUnits="userSpaceOnUse" x1="150.8586" y1="80.1377" x2="146.9125" y2="153.611">
						<stop  offset="0.1166" style="stop-color:#B3B3B3"/>
						<stop  offset="0.1657" style="stop-color:#B3B3B3;stop-opacity:0.9259"/>
						<stop  offset="0.7801" style="stop-color:#B3B3B3;stop-opacity:0"/>
					</linearGradient>
					<polygon class="st27" points="148.7,138.3 150.2,139.2 150.2,73.8 148.7,72.9 					"/>
					<linearGradient id="SVGID_17_" gradientUnits="userSpaceOnUse" x1="153.8861" y1="80.3003" x2="149.9399" y2="153.7736">
						<stop  offset="0.1166" style="stop-color:#B3B3B3"/>
						<stop  offset="0.1657" style="stop-color:#B3B3B3;stop-opacity:0.9259"/>
						<stop  offset="0.7801" style="stop-color:#B3B3B3;stop-opacity:0"/>
					</linearGradient>
					<polygon class="st28" points="151.7,140 153.1,140.9 153.1,75.5 151.7,74.6 					"/>
					<linearGradient id="SVGID_18_" gradientUnits="userSpaceOnUse" x1="156.9135" y1="80.4629" x2="152.9674" y2="153.9362">
						<stop  offset="0.1166" style="stop-color:#B3B3B3"/>
						<stop  offset="0.1657" style="stop-color:#B3B3B3;stop-opacity:0.9259"/>
						<stop  offset="0.7801" style="stop-color:#B3B3B3;stop-opacity:0"/>
					</linearGradient>
					<polygon class="st29" points="154.6,141.7 156.1,142.6 156.1,77.2 154.6,76.3 					"/>
				</g>
				<g>
					<linearGradient id="SVGID_19_" gradientUnits="userSpaceOnUse" x1="184.7989" y1="70.1355" x2="149.4715" y2="197.5394">
						<stop  offset="0.1166" style="stop-color:#B3B3B3"/>
						<stop  offset="0.1657" style="stop-color:#B3B3B3;stop-opacity:0.9259"/>
						<stop  offset="0.7801" style="stop-color:#B3B3B3;stop-opacity:0"/>
					</linearGradient>
					<polygon class="st30" points="174.9,71 176.3,70.2 176.3,135.6 174.9,136.4 					"/>
					<linearGradient id="SVGID_20_" gradientUnits="userSpaceOnUse" x1="187.0784" y1="70.7676" x2="151.7511" y2="198.1715">
						<stop  offset="0.1166" style="stop-color:#B3B3B3"/>
						<stop  offset="0.1657" style="stop-color:#B3B3B3;stop-opacity:0.9259"/>
						<stop  offset="0.7801" style="stop-color:#B3B3B3;stop-opacity:0"/>
					</linearGradient>
					<polygon class="st31" points="177.8,69.3 179.3,68.5 179.3,133.9 177.8,134.7 					"/>
					<linearGradient id="SVGID_21_" gradientUnits="userSpaceOnUse" x1="189.358" y1="71.3997" x2="154.0307" y2="198.8036">
						<stop  offset="0.1166" style="stop-color:#B3B3B3"/>
						<stop  offset="0.1657" style="stop-color:#B3B3B3;stop-opacity:0.9259"/>
						<stop  offset="0.7801" style="stop-color:#B3B3B3;stop-opacity:0"/>
					</linearGradient>
					<polygon class="st32" points="180.7,67.7 182.2,66.8 182.2,132.2 180.7,133 					"/>
					<linearGradient id="SVGID_22_" gradientUnits="userSpaceOnUse" x1="191.6376" y1="72.0318" x2="156.3103" y2="199.4357">
						<stop  offset="0.1166" style="stop-color:#B3B3B3"/>
						<stop  offset="0.1657" style="stop-color:#B3B3B3;stop-opacity:0.9259"/>
						<stop  offset="0.7801" style="stop-color:#B3B3B3;stop-opacity:0"/>
					</linearGradient>
					<polygon class="st33" points="183.6,66 185.1,65.1 185.1,130.5 183.6,131.4 					"/>
				</g>
				<g>
					<polygon class="st10" points="161.6,133.9 161.6,135.2 171.8,129.3 171.8,128 					"/>
					<polygon class="st10" points="174.9,126.2 174.9,127.6 185.1,121.7 185.1,120.3 					"/>
				</g>
				<g>
					<polygon class="st10" points="161.6,78.7 161.6,80 171.8,74.1 171.8,72.8 					"/>
					<polygon class="st10" points="174.9,71 174.9,72.3 185.1,66.4 185.1,65.1 					"/>
				</g>
				<g>
					<polygon class="st10" points="161.6,83.6 161.6,84.9 171.8,79 171.8,77.7 					"/>
					<polygon class="st10" points="174.9,75.9 174.9,77.2 185.1,71.3 185.1,70 					"/>
				</g>
				<g>
					<g>
						<polygon class="st10" points="156.1,77.2 156.1,78.5 142.8,70.9 142.8,69.5 						"/>
					</g>
					<g>
						<polygon class="st10" points="156.1,82.1 156.1,83.4 142.8,75.7 142.8,74.4 						"/>
					</g>
				</g>
				<g>
					<polygon class="st10" points="142.9,108.1 135.7,112.2 153.7,117.1 156.1,115.7 					"/>
				</g>
				<g>
					<polygon class="st2" points="142.9,134.9 135.7,139 153.7,144 156.1,142.6 					"/>
				</g>
				<g>
					<polygon class="st34" points="157.6,141.7 153.7,144 159.1,145.5 161.6,144.1 					"/>
				</g>
				<polygon class="st9" points="153.7,144 153.7,117.1 156.1,115.7 156.1,142.6 				"/>
				<g>
					<g>
						<polygon class="st9" points="153.7,117.1 136.8,112.5 136.8,117.5 153.7,122.1 						"/>
					</g>
					<g>
						<linearGradient id="SVGID_23_" gradientUnits="userSpaceOnUse" x1="136.8092" y1="117.327" x2="153.6624" y2="117.327">
							<stop  offset="0" style="stop-color:#B3B3B3;stop-opacity:0.7896"/>
							<stop  offset="1" style="stop-color:#B3B3B3;stop-opacity:0.335"/>
						</linearGradient>
						<polygon class="st35" points="153.7,117.1 136.8,112.5 136.8,117.5 153.7,122.1 						"/>
					</g>
					<polygon class="st9" points="135.7,139 153.7,144 153.7,123.5 135.7,118.5 					"/>
					<linearGradient id="SVGID_24_" gradientUnits="userSpaceOnUse" x1="135.7032" y1="131.2524" x2="153.6624" y2="131.2524">
						<stop  offset="0" style="stop-color:#B3B3B3;stop-opacity:0.7896"/>
						<stop  offset="1" style="stop-color:#B3B3B3;stop-opacity:0.335"/>
					</linearGradient>
					<polygon class="st36" points="135.7,139 153.7,144 153.7,123.5 135.7,118.5 					"/>
				</g>
				<g>
					<g>
						<polygon class="st10" points="161.6,133.9 153.7,133.8 153.7,135.1 159.1,136.6 161.6,135.2 						"/>
					</g>
					<g>
						<polygon class="st10" points="157.6,131.5 153.7,133.8 159.1,135.3 161.6,133.9 						"/>
					</g>
				</g>
				<polygon class="st9" points="159.1,145.5 159.1,136.6 161.6,135.2 161.6,144.1 				"/>
				<linearGradient id="SVGID_25_" gradientUnits="userSpaceOnUse" x1="159.1181" y1="140.3395" x2="161.6119" y2="140.3395">
					<stop  offset="0" style="stop-color:#B3B3B3;stop-opacity:0.335"/>
					<stop  offset="7.406294e-02" style="stop-color:#B3B3B3;stop-opacity:0.3176"/>
					<stop  offset="1" style="stop-color:#B3B3B3;stop-opacity:0.1"/>
				</linearGradient>
				<polygon class="st37" points="159.1,145.5 159.1,136.6 161.6,135.2 161.6,144.1 				"/>
				<polygon class="st16" points="153.7,135.1 159.1,136.6 159.1,145.5 153.7,144 				"/>
				<g>
					<polygon class="st10" points="153.7,117.1 153.7,118.4 135.7,113.5 135.7,112.2 					"/>
				</g>
				<g>
					<polygon class="st10" points="153.7,122.1 153.7,123.5 135.7,118.5 135.7,117.2 					"/>
				</g>
				<g>
					<polygon class="st10" points="153.7,117.1 153.7,118.5 156.1,117.1 156.1,115.7 					"/>
				</g>
				<g>
					<g>
						<polygon class="st10" points="161.6,88.2 160.7,87.7 159.2,88.6 161.6,90 167.5,86.6 166,85.7 						"/>
					</g>
					<polygon class="st1" points="161.6,90 161.6,131.1 159.2,129.7 159.2,88.6 					"/>
					<polygon class="st9" points="167.5,86.6 167.5,127.7 161.6,131.1 161.6,90 					"/>
					<linearGradient id="SVGID_26_" gradientUnits="userSpaceOnUse" x1="161.6015" y1="108.8365" x2="167.5494" y2="108.8365">
						<stop  offset="0" style="stop-color:#B3B3B3;stop-opacity:0.335"/>
						<stop  offset="7.406294e-02" style="stop-color:#B3B3B3;stop-opacity:0.3176"/>
						<stop  offset="1" style="stop-color:#B3B3B3;stop-opacity:0.1"/>
					</linearGradient>
					<polygon class="st38" points="167.5,86.6 167.5,127.7 161.6,131.1 161.6,90 					"/>
				</g>
				<g>
					<linearGradient id="SVGID_27_" gradientUnits="userSpaceOnUse" x1="138.0221" y1="123.9752" x2="124.4924" y2="166.819">
						<stop  offset="0.1166" style="stop-color:#B3B3B3"/>
						<stop  offset="0.1657" style="stop-color:#B3B3B3;stop-opacity:0.9259"/>
						<stop  offset="0.7801" style="stop-color:#B3B3B3;stop-opacity:0"/>
					</linearGradient>
					<polygon class="st39" points="135.7,139 137.2,139.5 137.2,119 135.7,118.5 					"/>
					<linearGradient id="SVGID_28_" gradientUnits="userSpaceOnUse" x1="141.2806" y1="125.0042" x2="127.751" y2="167.848">
						<stop  offset="0.1166" style="stop-color:#B3B3B3"/>
						<stop  offset="0.1657" style="stop-color:#B3B3B3;stop-opacity:0.9259"/>
						<stop  offset="0.7801" style="stop-color:#B3B3B3;stop-opacity:0"/>
					</linearGradient>
					<polygon class="st40" points="139,139.9 140.5,140.4 140.5,119.9 139,119.4 					"/>
					<linearGradient id="SVGID_29_" gradientUnits="userSpaceOnUse" x1="144.5392" y1="126.0332" x2="131.0096" y2="168.877">
						<stop  offset="0.1166" style="stop-color:#B3B3B3"/>
						<stop  offset="0.1657" style="stop-color:#B3B3B3;stop-opacity:0.9259"/>
						<stop  offset="0.7801" style="stop-color:#B3B3B3;stop-opacity:0"/>
					</linearGradient>
					<polygon class="st41" points="142.3,140.8 143.8,141.3 143.8,120.8 142.3,120.3 					"/>
					<linearGradient id="SVGID_30_" gradientUnits="userSpaceOnUse" x1="147.7978" y1="127.0623" x2="134.2681" y2="169.9061">
						<stop  offset="0.1166" style="stop-color:#B3B3B3"/>
						<stop  offset="0.1657" style="stop-color:#B3B3B3;stop-opacity:0.9259"/>
						<stop  offset="0.7801" style="stop-color:#B3B3B3;stop-opacity:0"/>
					</linearGradient>
					<polygon class="st42" points="145.6,141.7 147.1,142.2 147.1,121.7 145.6,121.2 					"/>
					<linearGradient id="SVGID_31_" gradientUnits="userSpaceOnUse" x1="151.0563" y1="128.0913" x2="137.5267" y2="170.9351">
						<stop  offset="0.1166" style="stop-color:#B3B3B3"/>
						<stop  offset="0.1657" style="stop-color:#B3B3B3;stop-opacity:0.9259"/>
						<stop  offset="0.7801" style="stop-color:#B3B3B3;stop-opacity:0"/>
					</linearGradient>
					<polygon class="st43" points="148.9,142.6 150.4,143.1 150.4,122.6 148.9,122.1 					"/>
					<linearGradient id="SVGID_32_" gradientUnits="userSpaceOnUse" x1="154.3149" y1="129.1203" x2="140.7853" y2="171.9641">
						<stop  offset="0.1166" style="stop-color:#B3B3B3"/>
						<stop  offset="0.1657" style="stop-color:#B3B3B3;stop-opacity:0.9259"/>
						<stop  offset="0.7801" style="stop-color:#B3B3B3;stop-opacity:0"/>
					</linearGradient>
					<polygon class="st44" points="152.2,143.5 153.7,144 153.7,123.5 152.2,123 					"/>
				</g>
			</g>
		</g>
		<g>
			<g>
				<path class="st13" d="M166.5,38.2c-3-1.7-7.9,1.1-10.9,6.3c-2.6,4.5-3,9.5-0.9,11.8l6.3,7.1l3,1.7l5.4-25.1L166.5,38.2z
					 M161,51.8c-2,1.1-3.6,0.2-3.6-2.1c0-1.1,2.6-5.6,3.6-6.2c2-1.1,3.6-0.2,3.6,2.1C164.6,47.9,163,50.6,161,51.8z"/>
			</g>
			<polygon class="st3" points="201.9,39.2 165.3,60.3 169.9,40.8 201.9,22.4 			"/>
			<text transform="matrix(0.8661 -0.5 0 1 175.7325 48.2291)" class="st11 st12">Россия</text>
			<g>
				<path class="st14" d="M169.5,40c-3-1.7-7.9,1.1-10.9,6.3c-2.6,4.5-3,9.5-0.9,11.8l6.3,7.1l6.3-14.4
					C172.5,46,172.1,41.5,169.5,40z M164.1,53.5c-2,1.1-3.6,0.2-3.6-2.1c0-2.3,1.6-5.1,3.6-6.2c2-1.1,3.6-0.2,3.6,2.1
					C167.6,49.6,166,52.4,164.1,53.5z"/>
			</g>
		</g>
	</g>
	<g>
		<path class="st2" d="M39.4,192.5L41,192l0-1l1.5-0.3l-1-1l-1.8,0.1l0.4-0.6l-1.6-1.5l-1.6,0.2l-0.4-0.6l-1.8-0.2l-1.1,1.2
			l-1.4,0.2l-0.7-0.5l-2.2,0.6l-0.1,1.4l-1.2,0.1l-0.7,1.1l2.8,0.5l-0.3,1l1.2,1l1.3,0.6l1.5-0.6l1.1,0.5l2.7-0.4L39.4,192.5z"/>
		<g>
			<polygon class="st45" points="38.3,192.4 39.1,176.3 39.3,192.5 			"/>
			<polygon class="st45" points="38.5,188.6 36.6,183.4 39.1,188.3 			"/>
			<polygon class="st46" points="34.3,184.3 32.7,182 33.4,180.7 31.8,179.6 32.6,178 34.1,176.2 36.1,175.8 36.2,172.8 38.5,172.8 
				39.1,173.9 41.8,173.1 43.5,174.8 42.9,175.8 43.7,177 46.2,177.3 46.4,179.2 45.3,180 46.2,181.3 43.9,183.8 42.7,183.8 
				43.4,185.4 41.8,187 40.7,185.8 38.8,186.5 37.3,185.3 			"/>
			<g>
				<polygon class="st46" points="38.7,175.1 37.4,173.9 37.9,172.8 36.2,172.8 36.1,175.8 38.3,176.5 				"/>
				<polygon class="st0" points="39.2,183.5 37.3,184 37,182.7 35.4,182.3 35.3,180.8 37.6,180.9 38.1,180 37.4,178.1 36.4,178.8 
					35.3,177.7 36.1,175.8 34.1,176.2 32.6,178 31.8,179.6 33.4,180.7 32.7,182 34.3,184.3 37.3,185.3 38.8,186.5 40.7,185.8 
					41.8,187 41.2,184.5 				"/>
			</g>
		</g>
	</g>
	<g>
		<g>
			<path class="st2" d="M91,223.6l1.4-0.5l0-0.9l1.3-0.3l-0.9-0.9l-1.6,0.1l0.3-0.5l-1.4-1.3l-1.4,0.2l-0.4-0.6l-1.6-0.2l-1,1
				l-1.3,0.2l-0.6-0.4l-2,0.5l-0.1,1.3l-1.1,0.1l-0.7,1l2.5,0.5l-0.2,0.9l1.1,0.9l1.1,0.6l1.4-0.5l0.9,0.5l2.4-0.4L91,223.6z"/>
			<g>
				<polygon class="st45" points="90.1,223.5 90.8,209.3 90.9,223.6 				"/>
				<polygon class="st45" points="90.2,220.2 88.5,215.6 90.7,219.9 				"/>
				<polygon class="st46" points="86.5,216.4 85.1,214.3 85.7,213.1 84.2,212.2 84.9,210.7 86.3,209.1 88.1,208.8 88.2,206.1 
					90.2,206.1 90.7,207.1 93.1,206.4 94.7,207.9 94.1,208.8 94.8,209.9 97.1,210.1 97.2,211.8 96.3,212.5 97.1,213.7 95.1,215.9 
					94,215.9 94.6,217.3 93.1,218.8 92.2,217.7 90.5,218.3 89.2,217.2 				"/>
				<g>
					<polygon class="st46" points="90.4,208.2 89.3,207.1 89.7,206.1 88.2,206.1 88.1,208.8 90,209.4 					"/>
					<polygon class="st0" points="90.8,215.6 89.2,216.1 88.9,214.9 87.5,214.6 87.4,213.2 89.4,213.4 89.9,212.5 89.3,210.8 
						88.3,211.4 87.4,210.5 88.1,208.8 86.3,209.1 84.9,210.7 84.2,212.2 85.7,213.1 85.1,214.3 86.5,216.4 89.2,217.2 90.5,218.3 
						92.2,217.7 93.1,218.8 92.6,216.5 					"/>
				</g>
			</g>
		</g>
		<g>
			<g>
				<polygon class="st46" points="86.4,211.1 85.3,209.5 85.8,208.6 84.7,207.9 85.3,206.8 86.3,205.6 87.6,205.4 87.7,203.4 
					89.2,203.4 89.6,204.1 91.4,203.5 92.6,204.7 92.2,205.4 92.7,206.2 94.4,206.4 94.5,207.6 93.8,208.2 94.4,209.1 92.9,210.7 
					92.1,210.7 92.5,211.8 91.4,212.9 90.7,212.1 89.4,212.5 88.4,211.7 				"/>
				<g>
					<polyline class="st0" points="87.6,205.4 89.1,205.8 89.3,204.9 88.5,204.1 88.8,203.4 87.7,203.4 					"/>
					<polygon class="st0" points="89.7,210.5 88.4,210.9 88.2,210 87.2,209.7 87.1,208.7 88.6,208.8 89,208.2 88.5,206.9 
						87.8,207.4 87.1,206.6 87.6,205.4 86.3,205.6 85.3,206.8 84.7,207.9 85.8,208.6 85.3,209.5 86.4,211.1 88.4,211.7 89.4,212.5 
						90.7,212.1 91.4,212.9 91.1,211.2 					"/>
				</g>
			</g>
		</g>
		<g>
			<g>
				<polygon class="st46" points="87.8,202.7 87.7,204.1 88.4,204.5 88,205.4 88.8,205.9 89.9,206.3 90.9,206 91.7,207.3 
					92.7,206.7 92.6,206 94,205.7 94.2,204.5 93.6,204.2 93.6,203.5 94.6,202.7 94.1,201.8 93.5,201.7 93.5,200.9 91.9,200.4 
					91.4,200.7 91.2,199.9 90.1,199.6 90,200.4 89,200.6 88.7,201.5 				"/>
				<g>
					<polygon class="st0" points="90,201.8 89.1,202 89.3,202.7 88.8,203.3 89.1,204 90,203.3 90.5,203.6 90.8,204.6 90.1,204.6 
						90,205.4 90.9,206 89.9,206.3 88.8,205.9 88,205.4 88.4,204.5 87.7,204.1 87.8,202.7 88.7,201.5 89,200.6 90,200.4 90.1,199.6 
						90.6,200.8 					"/>
				</g>
			</g>
		</g>
	</g>
	<g>
		<g>
			<path class="st2" d="M114.5,226.4l1.4-0.5l0-0.9l1.3-0.3l-0.9-0.9l-1.6,0.1l0.3-0.5l-1.4-1.3l-1.4,0.2l-0.4-0.6l-1.6-0.2l-1,1
				l-1.3,0.2l-0.6-0.4l-2,0.5l-0.1,1.3l-1.1,0.1l-0.7,1l2.5,0.5l-0.2,0.9l1.1,0.9l1.1,0.6l1.4-0.5l0.9,0.5l2.4-0.4L114.5,226.4z"/>
			<g>
				<polygon class="st45" points="113.6,226.2 114.2,212 114.4,226.3 				"/>
				<polygon class="st45" points="113.7,222.9 112,218.3 114.2,222.6 				"/>
				<polygon class="st46" points="110,219.1 108.6,217 109.2,215.8 107.7,214.9 108.4,213.4 109.8,211.9 111.6,211.5 111.7,208.9 
					113.7,208.9 114.2,209.8 116.6,209.1 118.2,210.7 117.6,211.5 118.3,212.6 120.6,212.8 120.7,214.5 119.7,215.2 120.6,216.4 
					118.5,218.6 117.5,218.6 118.1,220 116.6,221.5 115.7,220.4 114,221 112.6,219.9 				"/>
				<g>
					<polygon class="st46" points="113.8,210.9 112.8,209.8 113.1,208.9 111.7,208.9 111.6,211.5 113.5,212.1 					"/>
					<polygon class="st0" points="114.3,218.4 112.6,218.8 112.4,217.6 111,217.3 110.8,216 112.9,216.1 113.4,215.2 112.8,213.6 
						111.8,214.2 110.8,213.2 111.6,211.5 109.8,211.9 108.4,213.4 107.7,214.9 109.2,215.8 108.6,217 110,219.1 112.6,219.9 
						114,221 115.7,220.4 116.6,221.5 116.1,219.2 					"/>
				</g>
			</g>
		</g>
		<g>
			<g>
				<polygon class="st46" points="109.9,213.8 108.8,212.3 109.3,211.4 108.2,210.6 108.7,209.5 109.7,208.4 111.1,208.1 
					111.2,206.1 112.7,206.1 113.1,206.8 114.9,206.3 116.1,207.4 115.6,208.1 116.2,208.9 117.9,209.1 118,210.4 117.3,210.9 
					117.9,211.8 116.4,213.4 115.5,213.4 116,214.5 114.9,215.6 114.2,214.8 112.9,215.3 111.9,214.4 				"/>
				<g>
					<polyline class="st0" points="111.1,208.1 112.6,208.5 112.8,207.6 112,206.8 112.3,206.1 111.2,206.1 					"/>
					<polygon class="st0" points="113.2,213.3 111.9,213.6 111.7,212.7 110.6,212.4 110.6,211.4 112.1,211.5 112.5,210.9 112,209.6 
						111.3,210.1 110.6,209.4 111.1,208.1 109.7,208.4 108.7,209.5 108.2,210.6 109.3,211.4 108.8,212.3 109.9,213.8 111.9,214.4 
						112.9,215.3 114.2,214.8 114.9,215.6 114.6,213.9 					"/>
				</g>
			</g>
		</g>
		<g>
			<g>
				<polygon class="st46" points="111.3,205.4 111.2,206.9 111.9,207.3 111.5,208.2 112.3,208.7 113.4,209.1 114.4,208.7 115.2,210 
					116.2,209.4 116.1,208.8 117.4,208.4 117.7,207.2 117.1,206.9 117.1,206.2 118.1,205.4 117.6,204.5 117,204.5 117,203.6 
					115.4,203.2 114.9,203.5 114.7,202.6 113.6,202.3 113.5,203.1 112.5,203.3 112.2,204.2 				"/>
				<g>
					<polygon class="st0" points="113.5,204.5 112.6,204.8 112.8,205.4 112.3,206 112.6,206.7 113.5,206.1 114,206.3 114.3,207.3 
						113.6,207.3 113.5,208.1 114.4,208.7 113.4,209.1 112.3,208.7 111.5,208.2 111.9,207.3 111.2,206.9 111.3,205.4 112.2,204.2 
						112.5,203.3 113.5,203.1 113.6,202.3 114.1,203.6 					"/>
				</g>
			</g>
		</g>
	</g>
	<g>
		<path class="st2" d="M128.6,187.5l1.6-0.5l0-1l1.5-0.3l-1-1l-1.8,0.1l0.4-0.6l-1.6-1.5l-1.6,0.2l-0.4-0.6l-1.8-0.2l-1.1,1.2
			l-1.4,0.2l-0.7-0.5l-2.2,0.6l-0.1,1.4l-1.2,0.1l-0.7,1.1l2.8,0.5l-0.3,1l1.2,1l1.3,0.6l1.5-0.6l1.1,0.5l2.7-0.4L128.6,187.5z"/>
		<g>
			<polygon class="st45" points="127.6,187.3 128.3,171.3 128.5,187.4 			"/>
			<polygon class="st45" points="127.7,183.6 125.8,178.4 128.3,183.3 			"/>
			<polygon class="st46" points="123.6,179.3 121.9,177 122.6,175.6 121,174.6 121.8,172.9 123.3,171.2 125.3,170.8 125.5,167.8 
				127.8,167.8 128.3,168.9 131,168.1 132.8,169.8 132.1,170.8 132.9,172 135.5,172.3 135.6,174.2 134.5,175 135.5,176.3 
				133.2,178.8 131.9,178.8 132.6,180.4 131,182 129.9,180.8 128,181.5 126.5,180.2 			"/>
			<g>
				<polygon class="st46" points="127.9,170.1 126.7,168.9 127.1,167.8 125.5,167.8 125.3,170.8 127.5,171.5 				"/>
				<polygon class="st0" points="128.4,178.5 126.5,179 126.3,177.7 124.6,177.3 124.5,175.8 126.8,175.9 127.3,175 126.7,173.1 
					125.6,173.8 124.5,172.7 125.3,170.8 123.3,171.2 121.8,172.9 121,174.6 122.6,175.6 121.9,177 123.6,179.3 126.5,180.2 
					128,181.5 129.9,180.8 131,182 130.5,179.4 				"/>
			</g>
		</g>
	</g>
	<g>
		<path class="st2" d="M311.9,72.9l1.6-0.5l0-1l1.5-0.3l-1-1l-1.8,0.1l0.4-0.6l-1.6-1.5l-1.6,0.2l-0.4-0.6l-1.8-0.2l-1.1,1.2
			l-1.4,0.2l-0.7-0.5l-2.2,0.6l-0.1,1.4l-1.2,0.1l-0.7,1.1l2.8,0.5l-0.3,1l1.2,1l1.3,0.6l1.5-0.6l1.1,0.5l2.7-0.4L311.9,72.9z"/>
		<g>
			<polygon class="st45" points="310.8,72.8 311.6,56.7 311.7,72.9 			"/>
			<polygon class="st45" points="310.9,69 309,63.9 311.5,68.7 			"/>
			<polygon class="st46" points="306.8,64.7 305.2,62.4 305.8,61.1 304.2,60 305,58.4 306.5,56.6 308.5,56.2 308.7,53.2 311,53.2 
				311.5,54.3 314.2,53.5 316,55.3 315.3,56.2 316.1,57.4 318.7,57.7 318.8,59.6 317.7,60.4 318.7,61.8 316.4,64.2 315.2,64.2 
				315.8,65.8 314.2,67.4 313.1,66.2 311.2,66.9 309.8,65.7 			"/>
			<g>
				<polygon class="st46" points="311.1,55.5 309.9,54.3 310.3,53.2 308.7,53.2 308.5,56.2 310.7,56.9 				"/>
				<polygon class="st0" points="311.6,63.9 309.8,64.5 309.5,63.1 307.9,62.7 307.7,61.2 310,61.4 310.6,60.4 309.9,58.5 
					308.8,59.2 307.7,58.1 308.5,56.2 306.5,56.6 305,58.4 304.2,60 305.8,61.1 305.2,62.4 306.8,64.7 309.8,65.7 311.2,66.9 
					313.1,66.2 314.2,67.4 313.7,64.9 				"/>
			</g>
		</g>
	</g>
	<g>
		<path class="st2" d="M313.7,114l1.6-0.5l0-1l1.5-0.3l-1-1l-1.8,0.1l0.4-0.6l-1.6-1.5l-1.6,0.2l-0.4-0.6l-1.8-0.2l-1.1,1.2
			l-1.4,0.2l-0.7-0.5l-2.2,0.6l-0.1,1.4l-1.2,0.1l-0.7,1.1l2.8,0.5l-0.3,1l1.2,1l1.3,0.6l1.5-0.6l1.1,0.5l2.7-0.4L313.7,114z"/>
		<g>
			<polygon class="st45" points="312.6,113.8 313.4,97.8 313.6,113.9 			"/>
			<polygon class="st45" points="312.7,110 310.8,104.9 313.4,109.8 			"/>
			<polygon class="st46" points="308.6,105.8 307,103.5 307.7,102.1 306,101 306.8,99.4 308.3,97.7 310.4,97.3 310.5,94.3 
				312.8,94.3 313.3,95.4 316,94.5 317.8,96.3 317.1,97.3 317.9,98.5 320.5,98.7 320.6,100.6 319.6,101.4 320.5,102.8 318.2,105.2 
				317,105.2 317.7,106.9 316,108.5 315,107.3 313.1,107.9 311.6,106.7 			"/>
			<g>
				<polygon class="st46" points="312.9,96.6 311.7,95.4 312.1,94.3 310.5,94.3 310.4,97.3 312.5,97.9 				"/>
				<polygon class="st0" points="313.5,105 311.6,105.5 311.3,104.2 309.7,103.7 309.5,102.3 311.8,102.4 312.4,101.4 311.7,99.6 
					310.6,100.2 309.5,99.1 310.4,97.3 308.3,97.7 306.8,99.4 306,101 307.7,102.1 307,103.5 308.6,105.8 311.6,106.7 313.1,107.9 
					315,107.3 316,108.5 315.5,105.9 				"/>
			</g>
		</g>
	</g>
	<g>
		<g>
			<path class="st2" d="M296.2,115.9l1.4-0.5l0-0.9l1.3-0.3l-0.9-0.9l-1.6,0.1l0.3-0.5l-1.4-1.3l-1.4,0.2l-0.4-0.6L292,111l-1,1
				l-1.3,0.2l-0.6-0.4l-2,0.5l-0.1,1.3l-1.1,0.1l-0.7,1l2.5,0.5l-0.2,0.9l1.1,0.9l1.1,0.6l1.4-0.5l0.9,0.5l2.4-0.4L296.2,115.9z"/>
			<g>
				<polygon class="st45" points="295.2,115.8 295.9,101.5 296.1,115.9 				"/>
				<polygon class="st45" points="295.4,112.4 293.7,107.9 295.9,112.2 				"/>
				<polygon class="st46" points="291.7,108.6 290.2,106.6 290.8,105.4 289.4,104.4 290.1,103 291.4,101.4 293.2,101.1 293.4,98.4 
					295.4,98.4 295.9,99.4 298.3,98.7 299.9,100.2 299.3,101.1 300,102.2 302.3,102.4 302.4,104.1 301.4,104.8 302.3,106 
					300.2,108.2 299.1,108.2 299.7,109.6 298.3,111.1 297.3,110 295.6,110.6 294.3,109.5 				"/>
				<g>
					<polygon class="st46" points="295.5,100.5 294.4,99.4 294.8,98.4 293.4,98.4 293.2,101.1 295.2,101.7 					"/>
					<polygon class="st0" points="296,107.9 294.3,108.4 294.1,107.2 292.6,106.8 292.5,105.5 294.6,105.6 295,104.8 294.4,103.1 
						293.5,103.7 292.5,102.8 293.2,101.1 291.4,101.4 290.1,103 289.4,104.4 290.8,105.4 290.2,106.6 291.7,108.6 294.3,109.5 
						295.6,110.6 297.3,110 298.3,111.1 297.8,108.8 					"/>
				</g>
			</g>
		</g>
		<g>
			<g>
				<polygon class="st46" points="291.6,103.4 290.5,101.8 291,100.9 289.9,100.2 290.4,99.1 291.4,97.9 292.8,97.6 292.9,95.6 
					294.4,95.6 294.8,96.4 296.6,95.8 297.8,97 297.3,97.6 297.9,98.5 299.6,98.6 299.7,99.9 299,100.5 299.6,101.4 298,103 
					297.2,103 297.7,104.1 296.6,105.2 295.9,104.4 294.6,104.8 293.6,104 				"/>
				<g>
					<polyline class="st0" points="292.8,97.6 294.2,98.1 294.5,97.2 293.7,96.4 294,95.6 292.9,95.6 					"/>
					<polygon class="st0" points="294.9,102.8 293.6,103.2 293.4,102.3 292.3,102 292.2,101 293.8,101.1 294.1,100.5 293.7,99.2 
						293,99.6 292.2,98.9 292.8,97.6 291.4,97.9 290.4,99.1 289.9,100.2 291,100.9 290.5,101.8 291.6,103.4 293.6,104 294.6,104.8 
						295.9,104.4 296.6,105.2 296.2,103.5 					"/>
				</g>
			</g>
		</g>
		<g>
			<g>
				<polygon class="st46" points="292.9,95 292.9,96.4 293.6,96.8 293.2,97.7 294,98.2 295.1,98.6 296,98.3 296.9,99.5 297.9,98.9 
					297.8,98.3 299.1,98 299.4,96.7 298.8,96.5 298.8,95.8 299.8,95 299.3,94.1 298.6,94 298.7,93.2 297,92.7 296.5,93 296.4,92.1 
					295.2,91.9 295.1,92.7 294.2,92.9 293.9,93.8 				"/>
				<g>
					<polygon class="st0" points="295.2,94.1 294.2,94.3 294.5,95 293.9,95.6 294.3,96.3 295.2,95.6 295.7,95.9 295.9,96.9 
						295.3,96.9 295.2,97.6 296,98.3 295.1,98.6 294,98.2 293.2,97.7 293.6,96.8 292.9,96.4 292.9,95 293.9,93.8 294.2,92.9 
						295.1,92.7 295.2,91.9 295.7,93.1 					"/>
				</g>
			</g>
		</g>
	</g>
	<g>
		<g>
			<g>
				<path class="st2" d="M104.4,159.8l10.9,6.3l-6.7,3.9l2.4,1.4l-34.4,19.9l-2.4-1.4l-6.7,3.9l-10.9-6.3l12.4-7.2L104.4,159.8
					 M104.4,157.3c-0.4,0-0.9,0.1-1.3,0.3l-35.4,20.4l-12.4,7.2c-0.8,0.4-1.2,1.3-1.2,2.2s0.5,1.7,1.2,2.2l10.9,6.3
					c0.4,0.2,0.8,0.3,1.3,0.3c0.4,0,0.9-0.1,1.3-0.3l5.4-3.1l1.2,0.7c0.4,0.2,0.8,0.3,1.3,0.3s0.9-0.1,1.3-0.3l34.4-19.9
					c0.8-0.4,1.3-1.3,1.3-2.2c0-0.4-0.1-0.8-0.3-1.2l3.3-1.9c0.8-0.4,1.2-1.3,1.2-2.2c0-0.9-0.5-1.7-1.3-2.2l-10.9-6.3
					C105.2,157.4,104.8,157.3,104.4,157.3L104.4,157.3z"/>
			</g>
			<polygon class="st3" points="91.9,143.4 91.9,148.9 85.7,148.9 85.7,151.9 91.9,151.9 94.5,151.9 95.1,151.9 95.1,143.4 			"/>
			<linearGradient id="SVGID_33_" gradientUnits="userSpaceOnUse" x1="83.5759" y1="176.2147" x2="67.1684" y2="238.3584">
				<stop  offset="0.1166" style="stop-color:#B3B3B3"/>
				<stop  offset="0.1657" style="stop-color:#B3B3B3;stop-opacity:0.9259"/>
				<stop  offset="0.7801" style="stop-color:#B3B3B3;stop-opacity:0"/>
			</linearGradient>
			<polygon class="st47" points="91.9,143.4 91.9,148.9 85.7,148.9 85.7,151.9 91.9,151.9 94.5,151.9 95.1,151.9 95.1,143.4 			"/>
			<g>
				<polygon class="st34" points="69.8,187.3 77.2,183.1 83.9,187 76.5,191.2 				"/>
				<polygon class="st34" points="96.9,171.7 104.3,167.5 111,171.3 103.6,175.6 				"/>
				<g>
					<polygon class="st4" points="108.5,169.9 104.3,167.5 96.9,171.7 99.3,173.1 79.6,184.5 77.2,183.1 69.8,187.3 74.1,189.8 
						67.4,193.7 56.6,187.4 69,180.2 70.6,181.2 78.5,176.6 79.6,177.3 86.8,173.1 85.7,172.5 93.6,167.9 91.9,167 104.4,159.8 
						115.2,166.1 					"/>
				</g>
				<g>
					<polygon class="st2" points="103.6,175.6 95.1,180.5 90.8,178 99.3,173.1 					"/>
					<polygon class="st2" points="83.9,187 79.6,184.5 88.1,179.6 92.4,182 					"/>
				</g>
			</g>
			<g>
				<g>
					<polygon class="st4" points="108.5,146.4 104.3,144 96.9,148.2 99.3,149.6 79.6,161 77.2,159.6 69.8,163.8 74.1,166.3 
						67.4,170.2 56.6,163.9 69,156.7 70.6,157.7 78.5,153.1 79.6,153.8 86.8,149.6 85.7,148.9 93.6,144.4 91.9,143.4 104.4,136.3 
						115.2,142.5 					"/>
				</g>
			</g>
			<g>
				<g>
					<polygon class="st10" points="108.5,146.4 104.3,144 96.9,148.2 99.3,149.6 79.6,161 77.2,159.6 69.8,163.8 74.1,166.3 
						67.4,170.2 56.6,163.9 69,156.7 70.6,157.7 78.5,153.1 79.6,153.8 86.8,149.6 85.7,148.9 93.6,144.4 91.9,143.4 104.4,136.3 
						115.2,142.5 					"/>
				</g>
			</g>
			<polygon class="st9" points="95.1,180.5 95.1,160.2 103.6,155.2 103.6,175.6 			"/>
			<polygon class="st3" points="95.1,180.5 95.1,160.2 90.8,154.5 88.1,156 88.1,179.6 90.8,178 			"/>
			<linearGradient id="SVGID_34_" gradientUnits="userSpaceOnUse" x1="89.1233" y1="177.6793" x2="72.7158" y2="239.823">
				<stop  offset="0.1166" style="stop-color:#B3B3B3"/>
				<stop  offset="0.1657" style="stop-color:#B3B3B3;stop-opacity:0.9259"/>
				<stop  offset="0.7801" style="stop-color:#B3B3B3;stop-opacity:0"/>
			</linearGradient>
			<polygon class="st48" points="95.1,180.5 95.1,160.2 90.8,154.5 88.1,156 88.1,179.6 90.8,178 			"/>
			<polygon class="st9" points="92.4,182 92.4,161.7 83.9,166.6 83.9,187 			"/>
			<g>
				<polygon class="st4" points="103.6,155.2 95.1,160.2 90.8,154.5 99.3,149.6 				"/>
				<polygon class="st4" points="83.9,166.6 79.6,161 88.1,156 92.4,161.7 				"/>
			</g>
			<polygon class="st9" points="115.2,142.5 115.2,166.1 108.5,169.9 108.5,146.4 			"/>
			<polygon class="st9" points="74.1,166.3 67.4,170.2 67.4,193.7 74.1,189.8 			"/>
			<g>
				<g>
					<polygon class="st4" points="96.9,143.8 104.3,139.5 111,143.4 103.6,147.6 					"/>
					<polygon class="st9" points="111,171.3 111,143.4 103.6,147.6 103.6,175.6 					"/>
				</g>
				<g>
					<polygon class="st4" points="69.8,159.4 77.2,155.1 83.9,159 76.5,163.3 					"/>
					<polygon class="st9" points="83.9,187 83.9,159 76.5,163.3 76.5,191.2 					"/>
					<g>
						<linearGradient id="SVGID_35_" gradientUnits="userSpaceOnUse" x1="104.9995" y1="180.6313" x2="104.5893" y2="229.854">
							<stop  offset="0" style="stop-color:#B3B3B3;stop-opacity:0.335"/>
							<stop  offset="7.406294e-02" style="stop-color:#B3B3B3;stop-opacity:0.3176"/>
							<stop  offset="1" style="stop-color:#B3B3B3;stop-opacity:0.1"/>
						</linearGradient>
						<polygon class="st49" points="115.2,142.5 111,145 111,143.4 103.6,147.6 103.6,155.2 95.1,160.2 95.1,180.5 103.6,175.6 
							111,171.3 111,168.5 115.2,166.1 						"/>
						<linearGradient id="SVGID_36_" gradientUnits="userSpaceOnUse" x1="70.7532" y1="180.3459" x2="70.343" y2="229.5686">
							<stop  offset="0" style="stop-color:#B3B3B3;stop-opacity:0.335"/>
							<stop  offset="7.406294e-02" style="stop-color:#B3B3B3;stop-opacity:0.3176"/>
							<stop  offset="1" style="stop-color:#B3B3B3;stop-opacity:0.1"/>
						</linearGradient>
						<polygon class="st50" points="67.4,193.7 74.1,189.8 74.1,166.3 67.4,170.2 						"/>
						<linearGradient id="SVGID_37_" gradientUnits="userSpaceOnUse" x1="84.4116" y1="180.4597" x2="84.0014" y2="229.6825">
							<stop  offset="0" style="stop-color:#B3B3B3;stop-opacity:0.335"/>
							<stop  offset="7.406294e-02" style="stop-color:#B3B3B3;stop-opacity:0.3176"/>
							<stop  offset="1" style="stop-color:#B3B3B3;stop-opacity:0.1"/>
						</linearGradient>
						<polygon class="st51" points="83.9,159 76.5,163.3 76.5,191.2 83.9,187 92.4,182 92.4,161.7 83.9,166.6 						"/>
					</g>
				</g>
				<g>
					<polygon class="st3" points="96.9,143.8 96.9,148.2 99.3,149.6 103.6,155.2 103.6,147.6 					"/>
					<polygon class="st3" points="69.8,163.8 74.1,166.3 74.1,189.8 76.5,191.2 76.5,163.3 69.8,159.4 					"/>
				</g>
			</g>
			<polygon class="st3" points="67.4,193.7 67.4,170.2 56.6,163.9 56.6,187.4 			"/>
			<g>
				<linearGradient id="SVGID_38_" gradientUnits="userSpaceOnUse" x1="92.5837" y1="178.593" x2="76.1761" y2="240.7366">
					<stop  offset="0.1166" style="stop-color:#B3B3B3"/>
					<stop  offset="0.1657" style="stop-color:#B3B3B3;stop-opacity:0.9259"/>
					<stop  offset="0.7801" style="stop-color:#B3B3B3;stop-opacity:0"/>
				</linearGradient>
				<polygon class="st52" points="96.9,143.8 96.9,148.2 99.3,149.6 103.6,155.2 103.6,147.6 				"/>
				<linearGradient id="SVGID_39_" gradientUnits="userSpaceOnUse" x1="73.6395" y1="173.5912" x2="57.2319" y2="235.7349">
					<stop  offset="0.1166" style="stop-color:#B3B3B3"/>
					<stop  offset="0.1657" style="stop-color:#B3B3B3;stop-opacity:0.9259"/>
					<stop  offset="0.7801" style="stop-color:#B3B3B3;stop-opacity:0"/>
				</linearGradient>
				<polygon class="st53" points="69.8,163.8 74.1,166.3 74.1,189.8 76.5,191.2 76.5,163.3 69.8,159.4 				"/>
			</g>
			<linearGradient id="SVGID_40_" gradientUnits="userSpaceOnUse" x1="64.0232" y1="171.0522" x2="47.6156" y2="233.1959">
				<stop  offset="0.1166" style="stop-color:#B3B3B3"/>
				<stop  offset="0.1657" style="stop-color:#B3B3B3;stop-opacity:0.9259"/>
				<stop  offset="0.7801" style="stop-color:#B3B3B3;stop-opacity:0"/>
			</linearGradient>
			<polygon class="st54" points="67.4,193.7 67.4,170.2 56.6,163.9 56.6,187.4 			"/>
			<g>
				<polygon class="st9" points="92.4,161.7 89.1,163.6 89.1,183.9 92.4,182 				"/>
				<polygon class="st9" points="95.1,160.2 95.1,180.5 98.3,178.6 98.3,158.3 				"/>
			</g>
			<g>
				<polygon class="st9" points="76.5,184.7 76.5,191.2 111,171.3 111,164.8 				"/>
			</g>
			<g>
				<linearGradient id="SVGID_41_" gradientUnits="userSpaceOnUse" x1="93.7259" y1="180.5374" x2="93.3157" y2="229.7601">
					<stop  offset="0" style="stop-color:#B3B3B3;stop-opacity:0.335"/>
					<stop  offset="7.406294e-02" style="stop-color:#B3B3B3;stop-opacity:0.3176"/>
					<stop  offset="1" style="stop-color:#B3B3B3;stop-opacity:0.1"/>
				</linearGradient>
				<polygon class="st55" points="76.5,184.7 76.5,191.2 111,171.3 111,164.8 				"/>
			</g>
		</g>
		<g>
			<polygon class="st3" points="123.2,125.4 79.4,150.7 84,131.2 123.2,108.6 			"/>
			<text transform="matrix(0.8661 -0.5 0 1 89.8231 138.6307)" class="st11 st12">Болгария</text>
			<g>
				<path class="st13" d="M80.6,128.7c-3-1.7-7.9,1.1-10.9,6.3c-2.6,4.5-3,9.5-0.9,11.8l6.3,7.1l3,1.7l5.4-25.1L80.6,128.7z
					 M75.1,142.2c-2,1.1-3.6,0.2-3.6-2.1c0-1.1,2.6-5.6,3.6-6.2c2-1.1,3.6-0.2,3.6,2.1C78.7,138.3,77.1,141,75.1,142.2z"/>
			</g>
			<g>
				<path class="st14" d="M83.6,130.4c-3-1.7-7.9,1.1-10.9,6.3c-2.6,4.5-3,9.5-0.9,11.8l6.3,7.1l6.3-14.4
					C86.6,136.4,86.2,131.9,83.6,130.4z M78.2,143.9c-2,1.1-3.6,0.2-3.6-2.1c0-2.3,1.6-5.1,3.6-6.2c2-1.1,3.6-0.2,3.6,2.1
					C81.7,140,80.1,142.8,78.2,143.9z"/>
			</g>
		</g>
	</g>
	<g>
		<line class="st56" x1="152.1" y1="209.5" x2="270.6" y2="141"/>
		<g>
			<g>
				<polygon class="st3" points="152.1,197.4 270.6,128.8 270.6,84.3 152.1,152.9 				"/>
				<text transform="matrix(0.8639 -0.5 0 1 196.5666 163.5286)" class="st11 st57">офисы</text>
				<g>
					<g>
						<path class="st58" d="M178.3,153.9C178.3,153.9,178.2,153.9,178.3,153.9c-0.1-0.1-0.2-0.2-0.3-0.2c-0.8-0.5-2-0.6-2.4-0.6
							c-0.4,0-0.7,0-1.1,0.1c0.5-1.4,1-2.8,1.3-4c0.1-0.7,0.2-1.7-0.1-2c-0.3-0.3-0.7-0.2-1.3,0.2c0,0-0.1,0.1-0.1,0.1
							c-0.1,0-0.1,0.1-0.2,0.2c-1.1,0.9-2.3,2.4-2.7,2.9c-1.1,1.4-2.2,3.1-3.3,5c-1.6,0.9-3.1,2-4.7,3.2c-1.6,1.3-2.9,3.3-2.5,4.5
							c0.3,0.7,1.5,1,2.3,1.1c0.2,0,0.2-0.2,0.1-0.2c0,0-0.1,0-0.1,0c-0.2-0.1-0.4-0.3-0.5-0.4c-0.3-0.3-0.5-0.6-0.4-1
							c0.3-1,1.1-1.8,1.8-2.6c0.9-0.8,1.8-1.6,2.7-2.2c-1.4,2.9-2.4,5.6-3.1,8.4c-0.6,2.1-0.4,4,0.9,3.5c0.8-0.3,2.1-1.7,3-2.8
							c0.2-0.2,0.1-0.3-0.1-0.1c0,0-0.1,0.1-0.1,0.1c-0.3,0.2-0.5,0.4-0.8,0.6c-0.5,0.3-0.9,0.5-1.1,0.3c-0.4-0.5-0.3-1.5-0.2-2.5
							c0.5-2.6,1.6-5.6,3-8.6c0.9-0.6,1.8-1.1,2.7-1.5c0.8-0.4,1.8-0.9,2.8-1.2c0,0,0.1,0,0.1,0c-0.3,0.7-0.6,1.4-0.9,2.1
							c-0.1,0.3,0,0.4,0.1,0.1c0.3-0.7,0.6-1.5,1-2.3c1.2-0.2,2.6-0.6,3.5-0.3c0.5,0.2,0.6,0.8,0.5,1.4c-0.1,0.5-0.4,0.9-0.8,1.5
							c-0.5,0.5-1,1-1.5,1.5c-1.3,1-2.7,1.9-4.1,2.6c-0.2,0.1-0.3,0.3,0,0.2c1.8-1,3.9-2.1,5.5-3.7c0.5-0.5,1.2-1.3,1.5-2
							C178.7,154.8,178.6,154.2,178.3,153.9z M169.2,155c0.3-0.7,0.7-1.4,1.1-2.1c1-1.5,2.3-3.6,3.4-4.7c0.6-0.6,1.1-0.7,1.5-0.4
							c0.2,0.2,0.3,0.6,0.3,1.2c-0.1,0.6-0.2,1.3-0.4,2.1c-0.2,0.7-0.5,1.5-0.7,2.2c-0.9,0.1-1.9,0.4-3,0.8
							C170.6,154.3,169.9,154.7,169.2,155z"/>
						<g>
							<path class="st59" d="M175.2,159.6c0-0.2-0.2,0-0.1,0.1c0,0,0,0.1,0,0.1c0,0.3-0.1,0.7-0.1,1c-0.1,0.6-0.3,1.2-0.6,1.5
								c-0.7,0.7-1.5,0.7-2.2,0.8c-0.7-0.1-1.3-0.2-2-0.5c-1.1-0.5-2.1-1.2-3.1-2.1c-0.5-0.5-1.1-1.1-1.6-1.7
								c-0.5-1.1-1.2-2.4-1.3-3.8c0-0.7,0.3-1.5,0.8-1.9c0.4-0.4,0.7-0.5,1.2-0.6c0.5,0,0.9,0,1.4,0.1c0.6,0.2,1.2,0.5,1.7,0.8
								c0-0.1,0.1-0.2,0.1-0.2c-0.9-0.6-1.8-1.1-2.8-1.3c-0.5-0.1-1.2,0-1.7,0.5c-0.4,0.4-0.7,1.1-0.8,1.8c0,0.1,0,0.1,0,0.2
								c0,0.1,0,0.2,0,0.3c-0.1,1.3,0.2,2.7,0.3,3.2c0.4,1.3,1,2.6,1.8,3.7c1.2,1.5,2.5,2.5,4,3.2c0.4,0.2,0.9,0.3,1.4,0.5
								c1.3,0.4,3-0.2,3.6-2C175.6,162.2,175.4,160.7,175.2,159.6z"/>
							<path class="st59" d="M170.4,154.3c0.2,0.1,0.3-0.1,0.2-0.2c-0.1-0.1-0.2-0.2-0.4-0.3c-0.1-0.1-0.2-0.2-0.3-0.2l-0.1,0.2
								c0.1,0.1,0.3,0.2,0.4,0.3C170.3,154.2,170.4,154.2,170.4,154.3z"/>
						</g>
					</g>
					<path class="st60" d="M248.7,113.4c-0.1-0.1-0.3-0.1-0.5-0.1c-0.2,0-0.3,0-0.5,0.1v0c0.2-0.2,0.4-0.5,0.6-0.8
						c0.2-0.3,0.3-0.6,0.4-0.8c0.1-0.3,0.1-0.5,0.1-0.8c0-0.3-0.1-0.6-0.2-0.7c-0.1-0.2-0.2-0.3-0.4-0.3c-0.1-0.1-0.3-0.1-0.5,0
						c-0.2,0-0.4,0.1-0.6,0.2c-0.1,0-0.2,0.1-0.4,0.2c-0.1,0.1-0.3,0.1-0.4,0.2c-0.2,0.1-0.4,0.2-0.6,0.4c-0.2,0.1-0.4,0.3-0.6,0.4
						c-0.2,0.1-0.3,0.2-0.5,0.3v7.8c0.1-0.1,0.3-0.2,0.6-0.3c0.2-0.1,0.5-0.3,0.8-0.4c0.2-0.1,0.5-0.3,0.7-0.4
						c0.3-0.2,0.5-0.4,0.8-0.6c0.4-0.3,0.7-0.7,0.9-1.1c0.2-0.3,0.3-0.6,0.4-0.9c0.1-0.3,0.2-0.7,0.2-1c0-0.3,0-0.5-0.1-0.7
						C249,113.6,248.9,113.5,248.7,113.4z M245.7,111.6c0.1-0.1,0.2-0.1,0.3-0.2c0.1-0.1,0.3-0.2,0.5-0.3c0.1-0.1,0.2-0.1,0.4-0.2
						c0.2-0.1,0.3-0.1,0.4-0.1c0.2,0,0.4,0,0.5,0.1c0.1,0.1,0.2,0.3,0.2,0.6c0,0.3-0.1,0.5-0.2,0.8c-0.1,0.3-0.3,0.5-0.5,0.8
						c-0.1,0.1-0.3,0.3-0.5,0.4c-0.1,0.1-0.2,0.2-0.3,0.2l-0.8,0.5V111.6z M248.1,115.8c-0.1,0.3-0.2,0.5-0.4,0.7
						c-0.2,0.2-0.4,0.4-0.6,0.6c-0.1,0.1-0.2,0.1-0.3,0.2c-0.1,0.1-0.3,0.2-0.4,0.3c-0.2,0.1-0.3,0.2-0.4,0.2
						c-0.1,0.1-0.2,0.1-0.3,0.1v-3l0.7-0.4c0.1-0.1,0.3-0.2,0.4-0.2c0.1,0,0.2-0.1,0.3-0.1c0.2-0.1,0.4-0.1,0.6-0.1
						c0.2,0,0.3,0.1,0.4,0.3c0.1,0.1,0.1,0.3,0.1,0.6C248.2,115.3,248.2,115.6,248.1,115.8z M252.4,111c-0.2,0.6-0.5,1.2-0.7,1.8
						c-0.2,0.6-0.4,1.1-0.6,1.6l0,0c0-0.4,0-0.7,0-1.1c0-0.4,0-0.7,0-1.1c0-0.4,0-0.8,0-1.2v-3.3l-0.8,0.5v7.9l0.9-0.5l2.1-5.2
						c0.2-0.6,0.5-1.2,0.7-1.7c0.2-0.6,0.4-1.1,0.6-1.7l0,0c0,0.3,0,0.7-0.1,1c0,0.3,0,0.7,0,1.1c0,0.4,0,0.8,0,1.2v3.4l0.8-0.5
						v-7.9l-0.9,0.5L252.4,111z M261.2,108.9c-0.2,0.1-0.3,0.3-0.5,0.4c-0.2,0.1-0.4,0.2-0.5,0.4c-0.4,0.2-0.8,0.4-1.1,0.4
						c-0.3,0-0.6,0-0.8-0.2c-0.2-0.1-0.4-0.4-0.5-0.7c-0.1-0.3-0.2-0.7-0.2-1.2c0-0.5,0.1-1,0.2-1.5c0.1-0.5,0.3-0.9,0.5-1.3
						c0.2-0.4,0.5-0.8,0.8-1.1c0.3-0.3,0.7-0.6,1.1-0.9c0.3-0.2,0.5-0.3,0.8-0.4c0.2-0.1,0.4-0.1,0.6-0.1l0.2-1c-0.1,0-0.2,0-0.3,0
						c-0.1,0-0.3,0.1-0.5,0.2c-0.2,0.1-0.5,0.2-0.7,0.4c-0.5,0.3-1,0.7-1.5,1.1c-0.4,0.5-0.8,1-1.1,1.5c-0.3,0.6-0.6,1.1-0.7,1.7
						c-0.2,0.6-0.3,1.2-0.3,1.8c0,0.6,0.1,1.2,0.3,1.6c0.2,0.4,0.4,0.7,0.7,0.8c0.3,0.2,0.7,0.2,1.1,0.2c0.4-0.1,0.9-0.2,1.3-0.5
						c0.3-0.2,0.5-0.3,0.8-0.5c0.2-0.2,0.4-0.3,0.6-0.5c0.2-0.2,0.3-0.3,0.4-0.4l-0.2-0.7C261.5,108.6,261.4,108.7,261.2,108.9z
						 M243.1,113c-0.2-0.1-0.5-0.1-0.8,0c-0.2,0-0.5,0.1-0.7,0.3c-0.1,0.1-0.3,0.1-0.4,0.2c-0.4,0.2-0.7,0.4-1,0.6
						c-0.3,0.2-0.5,0.4-0.7,0.5v7.8l0.9-0.5v-3.2c0.1,0,0.2-0.1,0.3-0.1c0.1-0.1,0.2-0.1,0.4-0.2c0.2-0.1,0.3-0.2,0.5-0.3
						c0.1-0.1,0.2-0.2,0.3-0.2c0.3-0.2,0.5-0.4,0.7-0.7c0.2-0.3,0.4-0.5,0.6-0.8c0.2-0.3,0.3-0.6,0.4-1c0.1-0.3,0.1-0.7,0.1-1
						c0-0.4-0.1-0.6-0.2-0.9C243.4,113.2,243.3,113,243.1,113z M242.6,115.9c-0.1,0.3-0.3,0.6-0.6,0.9c-0.1,0.1-0.3,0.3-0.4,0.4
						c-0.2,0.1-0.3,0.2-0.5,0.3c-0.1,0.1-0.3,0.2-0.4,0.2c-0.1,0.1-0.2,0.1-0.3,0.1v-3.1c0.1-0.1,0.2-0.2,0.3-0.2
						c0.1-0.1,0.3-0.2,0.5-0.3c0.1-0.1,0.3-0.1,0.4-0.2c0.2-0.1,0.3-0.1,0.5-0.1c0.2,0,0.4,0,0.6,0.2c0.1,0.2,0.2,0.4,0.2,0.8
						C242.8,115.2,242.7,115.5,242.6,115.9z M218.3,128.2c-0.2-0.2-0.4-0.4-0.7-0.5c-0.3-0.1-0.6-0.1-0.9,0
						c-0.3,0.1-0.7,0.2-1.1,0.5l0,0c-0.5,0.3-0.9,0.7-1.3,1.1c-0.4,0.4-0.8,0.9-1.1,1.5c-0.3,0.5-0.5,1.1-0.7,1.7
						c-0.2,0.6-0.2,1.2-0.2,1.8c0,0.5,0,0.9,0.1,1.2c0.1,0.4,0.2,0.6,0.4,0.9c0.2,0.2,0.4,0.4,0.7,0.5c0.3,0.1,0.6,0.1,0.9,0.1
						c0.3-0.1,0.7-0.2,1.1-0.4l0.1,0c0.5-0.3,0.9-0.6,1.3-1c0.4-0.4,0.8-0.9,1.1-1.4c0.3-0.5,0.5-1.1,0.7-1.7
						c0.2-0.6,0.2-1.2,0.2-1.9c0-0.4,0-0.8-0.1-1.2C218.6,128.7,218.5,128.4,218.3,128.2z M217.1,132.4c-0.1,0.4-0.2,0.7-0.3,1
						c-0.1,0.3-0.3,0.6-0.5,0.9c-0.2,0.3-0.4,0.5-0.7,0.6l0,0c-0.3,0.1-0.5,0.2-0.7,0.2c-0.2,0-0.4-0.1-0.5-0.2
						c-0.1-0.2-0.3-0.4-0.3-0.6c-0.1-0.3-0.1-0.6-0.1-1c0-0.4,0-0.8,0.1-1.1c0.1-0.4,0.2-0.7,0.3-1c0.1-0.3,0.3-0.6,0.5-0.9
						c0.2-0.3,0.4-0.5,0.7-0.6c0.3-0.2,0.5-0.2,0.7-0.2c0.2,0,0.4,0.1,0.5,0.3c0.1,0.2,0.2,0.4,0.3,0.7c0.1,0.3,0.1,0.6,0.1,1
						C217.2,131.7,217.2,132,217.1,132.4z M224.9,122.9l-0.7,3.1c-0.1,0.3-0.1,0.7-0.2,1.1c-0.1,0.4-0.1,0.7-0.2,1.1
						c-0.1,0.4-0.1,0.7-0.2,1.1l0,0c-0.1-0.3-0.1-0.6-0.2-0.8c-0.1-0.3-0.1-0.6-0.2-0.8c-0.1-0.3-0.1-0.5-0.2-0.8l-0.7-2.3l-2.1,1.2
						l-0.4,8.2l1.4-0.8l0.1-3.1c0-0.3,0-0.7,0-1.1c0-0.4,0-0.8,0-1.1c0-0.4,0-0.8,0-1.1l0,0c0.1,0.3,0.1,0.6,0.2,1
						c0.1,0.3,0.1,0.6,0.2,0.9c0.1,0.3,0.1,0.6,0.2,0.9l0.7,2.6l1.2-0.7l0.8-3.6c0.1-0.4,0.2-0.7,0.3-1.1c0.1-0.4,0.2-0.8,0.3-1.2
						c0.1-0.4,0.2-0.8,0.2-1.2l0,0c0,0.4,0,0.8,0,1.1c0,0.4,0,0.7,0,1.1c0,0.3,0,0.7,0,1l0.1,3l1.5-0.9l-0.4-7.7L224.9,122.9z
						 M229.8,121.6c0.2-0.4,0.5-0.8,0.8-1.1c0.3-0.3,0.7-0.6,1.1-0.9c0.3-0.2,0.5-0.3,0.8-0.4c0.2-0.1,0.4-0.1,0.6-0.1l0.2-1
						c-0.1,0-0.2,0-0.3,0c-0.1,0-0.3,0.1-0.5,0.2c-0.2,0.1-0.5,0.2-0.7,0.4c-0.5,0.3-1,0.7-1.5,1.1c-0.4,0.5-0.8,1-1.1,1.5
						c-0.3,0.6-0.6,1.1-0.7,1.7c-0.2,0.6-0.3,1.2-0.3,1.8c0,0.6,0.1,1.2,0.3,1.6c0.2,0.4,0.4,0.7,0.7,0.8c0.3,0.2,0.7,0.2,1.1,0.2
						c0.4-0.1,0.9-0.2,1.3-0.5c0.3-0.2,0.5-0.3,0.8-0.5c0.2-0.2,0.4-0.3,0.6-0.5c0.2-0.2,0.3-0.3,0.4-0.4l-0.2-0.7
						c-0.1,0.1-0.3,0.3-0.4,0.4c-0.2,0.1-0.3,0.3-0.5,0.4c-0.2,0.1-0.4,0.2-0.5,0.4c-0.4,0.2-0.8,0.4-1.1,0.4c-0.3,0-0.6,0-0.8-0.2
						c-0.2-0.1-0.4-0.4-0.5-0.7c-0.1-0.3-0.2-0.7-0.2-1.2c0-0.5,0.1-1,0.2-1.5C229.4,122.5,229.6,122,229.8,121.6z M235.3,121
						l2.7-1.5v-0.8l-2.7,1.5v-2.5l2.8-1.6v-0.9l-3.7,2.1v7.9l3.9-2.2v-0.9l-3,1.7V121z M201.9,136.2l-2.1,9.1l1.6-0.9l0.5-2.3l2-1.1
						l0.5,1.7l1.7-1L204,135L201.9,136.2z M202.1,140.6l0.4-1.9c0-0.2,0.1-0.4,0.1-0.6c0-0.2,0.1-0.4,0.1-0.6c0-0.2,0.1-0.4,0.1-0.6
						l0,0l0,0.1c0,0.1,0.1,0.2,0.1,0.4c0,0.2,0.1,0.3,0.1,0.5c0,0.2,0.1,0.3,0.1,0.4l0.4,1.4L202.1,140.6z M206.5,135l1.8-1.1v6.4
						l1.6-0.9v-6.4l1.9-1.1v-1.5l-5.3,3V135z M187,145.9c-0.1-0.1-0.2-0.2-0.4-0.3c-0.2-0.1-0.5-0.1-0.9,0c-0.3,0.1-0.5,0.2-0.9,0.4
						c-0.1,0.1-0.2,0.1-0.4,0.2c-0.5,0.3-0.9,0.5-1.2,0.8c-0.3,0.2-0.6,0.4-0.9,0.6v7.8l1.5-0.9v-2.8c0.1,0,0.2-0.1,0.2-0.1
						c0.1,0,0.2-0.1,0.3-0.2c0.1-0.1,0.3-0.2,0.4-0.2c0.3-0.2,0.6-0.4,0.9-0.7c0.4-0.4,0.7-0.8,1-1.2c0.2-0.3,0.4-0.7,0.5-1.1
						c0.1-0.4,0.2-0.8,0.2-1.2c0-0.3,0-0.5-0.1-0.7C187.2,146.2,187.1,146,187,145.9z M185.6,148.8c-0.1,0.3-0.3,0.5-0.5,0.7
						c-0.1,0.1-0.2,0.2-0.3,0.3c-0.1,0.1-0.3,0.2-0.4,0.3c-0.1,0.1-0.2,0.1-0.3,0.2c-0.1,0-0.2,0.1-0.2,0.1v-2.3
						c0.1-0.1,0.1-0.1,0.2-0.2c0.1-0.1,0.2-0.2,0.4-0.3c0.1-0.1,0.2-0.1,0.3-0.1c0.3-0.1,0.5-0.1,0.6-0.1c0.2,0.1,0.3,0.3,0.3,0.7
						C185.8,148.2,185.7,148.5,185.6,148.8z M191.3,145.1c-0.1,0.4-0.2,0.7-0.2,1c-0.1,0.3-0.1,0.5-0.2,0.7l0,0
						c-0.1-0.2-0.2-0.4-0.2-0.6c-0.1-0.2-0.2-0.4-0.3-0.6l-1-2.3l-1.7,1l2.3,4.2c0,0,0,0.1,0.1,0.2c0,0.1,0,0.1,0,0.2
						c0,0.1-0.1,0.3-0.2,0.5c-0.1,0.2-0.2,0.3-0.3,0.5c-0.1,0.1-0.3,0.3-0.4,0.4c-0.1,0.1-0.2,0.1-0.3,0.2c-0.1,0-0.2,0.1-0.2,0.1
						l-0.1,1.5c0.1,0,0.2,0,0.3-0.1c0.1,0,0.3-0.1,0.4-0.2c0.4-0.2,0.7-0.5,1-0.9c0.3-0.4,0.6-0.8,0.8-1.2c0.2-0.3,0.3-0.7,0.5-1.1
						c0.2-0.4,0.3-0.9,0.4-1.3c0.1-0.5,0.3-1,0.4-1.4l1.3-4.6l-1.6,0.9L191.3,145.1z M196.2,141.5c0.2-0.3,0.4-0.6,0.7-0.9
						c0.3-0.3,0.6-0.5,0.9-0.7c0.3-0.2,0.5-0.3,0.7-0.3c0.2-0.1,0.4-0.1,0.6-0.1l0.3-1.6c-0.1,0-0.2,0-0.4,0.1
						c-0.2,0-0.4,0.1-0.6,0.2s-0.5,0.2-0.7,0.4c-0.4,0.2-0.8,0.5-1.2,0.9c-0.4,0.3-0.7,0.7-1,1.1c-0.3,0.4-0.6,0.9-0.8,1.3
						c-0.2,0.5-0.4,1-0.5,1.5c-0.1,0.5-0.2,1-0.2,1.6c0,0.6,0.1,1,0.2,1.4c0.2,0.4,0.4,0.7,0.7,0.9c0.3,0.2,0.7,0.2,1.1,0.2
						c0.4-0.1,1-0.3,1.6-0.6c0.3-0.2,0.5-0.3,0.8-0.5c0.2-0.2,0.4-0.3,0.6-0.5c0.2-0.1,0.3-0.3,0.4-0.4l-0.2-1.3
						c-0.1,0.1-0.2,0.2-0.4,0.3c-0.1,0.1-0.3,0.2-0.5,0.4c-0.2,0.1-0.3,0.2-0.5,0.3c-0.5,0.3-0.9,0.4-1.2,0.4
						c-0.3,0-0.6-0.2-0.7-0.5c-0.2-0.3-0.3-0.7-0.3-1.2c0-0.4,0.1-0.9,0.2-1.3C195.9,142.2,196,141.8,196.2,141.5z"/>
				</g>
			</g>
			<line class="st61" x1="270.6" y1="141" x2="270.6" y2="84.3"/>
			<line class="st61" x1="152.1" y1="152.9" x2="152.1" y2="209.5"/>
		</g>
	</g>
</g>
</svg>
