<?xml version="1.0" encoding="utf-8"?>
<!-- Generator: Adobe Illustrator 21.1.0, SVG Export Plug-In . SVG Version: 6.00 Build 0)  -->
<svg version="1.1" id="Слой_1" xmlns="http://www.w3.org/2000/svg" xmlns:xlink="http://www.w3.org/1999/xlink" x="0px" y="0px"
	 viewBox="0 0 198 119" style="enable-background:new 0 0 198 119;" xml:space="preserve">
<style type="text/css">
	.st0{fill:#346F2E;}
	.st1{fill:#468038;}
	.st2{fill:#D1D1CD;}
	.st3{fill:#A19C95;}
	.st4{fill:#57352F;}
	.st5{fill:#568E48;}
	.st6{fill:url(#SVGID_1_);}
	.st7{fill:#FFFFFF;}
	.st8{fill:url(#SVGID_2_);}
	.st9{fill:#F19000;}
	.st10{fill:#4F4F4F;}
	.st11{fill:url(#SVGID_3_);}
	.st12{fill:url(#SVGID_4_);}
	.st13{fill:url(#SVGID_5_);}
	.st14{fill:#707070;}
	.st15{fill:url(#SVGID_6_);}
	.st16{fill:url(#SVGID_7_);}
	.st17{fill:#CFCFCB;}
	.st18{fill:url(#SVGID_8_);}
	.st19{fill:url(#SVGID_9_);stroke:#FFFFFF;stroke-miterlimit:10;}
	.st20{fill:url(#SVGID_10_);}
	.st21{fill:url(#SVGID_11_);stroke:#FFFFFF;stroke-miterlimit:10;}
	.st22{fill:url(#SVGID_12_);}
	.st23{fill:url(#SVGID_13_);}
</style>
<g>
	<g>
		<path class="st0" d="M192.1,71.3l-74.8,43.2c-7.2,4.1-18,4.6-24.2,1l-88.3-51c-6.2-3.6-5.4-9.8,1.7-14L81.3,7.3
			c7.2-4.1,18-4.6,24.2-1l88.3,51C200.1,60.9,199.3,67.1,192.1,71.3z"/>
		<path class="st1" d="M193.8,57.3l-29.7-17.1v47.2L192,71.3C199.3,67.1,200.1,60.9,193.8,57.3z"/>
		<path class="st2" d="M192.1,68.3l-74.8,43.2c-7.2,4.1-18,4.6-24.2,1l-88.3-51c-6.2-3.6-5.4-9.8,1.7-14L81.3,4.3
			c7.2-4.1,18-4.6,24.2-1l88.3,51C200.1,57.9,199.3,64.1,192.1,68.3z"/>
	</g>
	<g>
		<path class="st3" d="M75.1,40.8l1.6-0.5v-1l1.5-0.3l-1-1h-1.8l0.4-0.6l-1.6-1.5l-1.6,0.2l-0.4-0.6l-1.8-0.2l-1.1,1.2l-1.4,0.2
			l-0.7-0.5L65,36.7l-0.1,1.4l-1.2,0.1L63,39.3l2.8,0.5l-0.3,1l1.2,1l1.3,0.6l1.5-0.6l1.1,0.5l2.7-0.4L75.1,40.8z"/>
		<g>
			<polygon class="st4" points="74,40.6 74.8,24.6 75,40.7 			"/>
			<polygon class="st4" points="74.1,36.9 72.2,31.7 74.8,36.6 			"/>
			<polygon class="st5" points="70,32.6 68.4,30.3 69,28.9 67.4,27.9 68.2,26.2 69.7,24.5 71.8,24.1 71.9,21.1 74.2,21.1 74.7,22.2 
				77.4,21.4 79.2,23.1 78.5,24.1 79.3,25.3 81.9,25.6 82,27.5 81,28.3 81.9,29.6 79.6,32.1 78.4,32.1 79.1,33.7 77.4,35.3 
				76.4,34.1 74.5,34.8 73,33.5 			"/>
			<g>
				<polygon class="st5" points="74.3,23.4 73.1,22.2 73.5,21.1 71.9,21.1 71.8,24.1 73.9,24.8 				"/>
				<polygon class="st0" points="74.9,31.8 73,32.3 72.7,31 71.1,30.6 70.9,29.1 73.2,29.2 73.8,28.3 73.1,26.4 72,27.1 70.9,26 
					71.8,24.1 69.7,24.5 68.2,26.2 67.4,27.9 69,28.9 68.4,30.3 70,32.6 73,33.5 74.5,34.8 76.4,34.1 77.4,35.3 76.9,32.7 				"/>
			</g>
		</g>
	</g>
	<g>
		<g>
			<path class="st3" d="M161.9,74l1.4-0.5v-0.9l1.3-0.3l-0.9-0.9l-1.6,0.1l0.3-0.5l-1.4-1.3l-1.4,0.2l-0.4-0.6l-1.6-0.2l-1,1
				l-1.3,0.2l-0.6-0.4l-2,0.5l-0.1,1.3l-1.1,0.1l-0.7,1l2.5,0.5l-0.2,0.9l1.1,0.9l1.1,0.6l1.4-0.5l0.9,0.5l2.4-0.4L161.9,74z"/>
			<g>
				<polygon class="st4" points="160.9,73.9 161.6,59.6 161.8,73.9 				"/>
				<polygon class="st4" points="161.1,70.5 159.4,65.9 161.6,70.3 				"/>
				<polygon class="st5" points="157.4,66.7 155.9,64.7 156.5,63.5 155.1,62.5 155.8,61.1 157.1,59.5 158.9,59.1 159.1,56.5 
					161.1,56.5 161.6,57.4 164,56.7 165.6,58.3 165,59.1 165.7,60.2 168,60.4 168.1,62.1 167.1,62.9 168,64.1 165.9,66.2 
					164.8,66.2 165.4,67.7 164,69.1 163,68 161.4,68.6 160,67.5 				"/>
				<g>
					<polygon class="st5" points="161.2,58.5 160.2,57.4 160.5,56.5 159.1,56.5 158.9,59.1 160.9,59.7 					"/>
					<polygon class="st0" points="161.7,66 160,66.5 159.8,65.3 158.3,64.9 158.2,63.6 160.3,63.7 160.8,62.9 160.2,61.2 
						159.2,61.8 158.2,60.8 158.9,59.1 157.1,59.5 155.8,61.1 155.1,62.5 156.5,63.5 155.9,64.7 157.4,66.7 160,67.5 161.4,68.6 
						163,68 164,69.1 163.5,66.8 					"/>
				</g>
			</g>
		</g>
		<g>
			<g>
				<polygon class="st5" points="157.3,61.4 156.2,59.9 156.7,59 155.6,58.2 156.1,57.2 157.1,56 158.5,55.7 158.6,53.7 160.1,53.7 
					160.5,54.4 162.3,53.9 163.5,55.1 163,55.7 163.6,56.5 165.3,56.7 165.4,58 164.7,58.5 165.3,59.4 163.8,61.1 162.9,61.1 
					163.4,62.1 162.3,63.2 161.6,62.4 160.3,62.9 159.3,62.1 				"/>
				<g>
					<polyline class="st0" points="158.5,55.7 159.9,56.2 160.2,55.2 159.4,54.4 159.7,53.7 158.6,53.7 					"/>
					<polygon class="st0" points="160.6,60.9 159.3,61.2 159.1,60.3 158,60.1 157.9,59.1 159.5,59.2 159.8,58.5 159.4,57.2 
						158.7,57.7 157.9,57 158.5,55.7 157.1,56 156.1,57.2 155.6,58.2 156.7,59 156.2,59.9 157.3,61.4 159.3,62.1 160.3,62.9 
						161.6,62.4 162.3,63.2 161.9,61.5 					"/>
				</g>
			</g>
		</g>
		<g>
			<g>
				<polygon class="st5" points="158.6,53 158.6,54.5 159.3,54.9 158.9,55.8 159.7,56.3 160.8,56.7 161.7,56.3 162.6,57.6 163.6,57 
					163.5,56.4 164.8,56 165.1,54.8 164.5,54.6 164.5,53.8 165.5,53 165,52.2 164.3,52.1 164.4,51.2 162.7,50.8 162.2,51.1 
					162.1,50.2 160.9,49.9 160.8,50.7 159.9,50.9 159.6,51.8 				"/>
				<g>
					<polygon class="st0" points="160.9,52.1 159.9,52.4 160.2,53 159.6,53.6 160,54.3 160.9,53.7 161.4,54 161.7,55 161,54.9 
						160.9,55.7 161.7,56.3 160.8,56.7 159.7,56.3 158.9,55.8 159.3,54.9 158.6,54.5 158.6,53 159.6,51.8 159.9,50.9 160.8,50.7 
						160.9,49.9 161.4,51.2 					"/>
				</g>
			</g>
		</g>
	</g>
	<g>
		<g>
			<path class="st3" d="M109.4,36l1.4-0.5v-0.9l1.3-0.3l-0.9-0.9l-1.6,0.1l0.3-0.5l-1.4-1.3l-1.4,0.2l-0.4-0.6l-1.6-0.2l-1,1
				l-1.3,0.2l-0.6-0.4l-2,0.5l-0.1,1.3L99,33.8l-0.7,1l2.5,0.5l-0.2,0.9l1.1,0.9l1.1,0.6l1.4-0.5l0.9,0.5l2.4-0.4L109.4,36z"/>
			<g>
				<polygon class="st4" points="108.5,35.9 109.2,21.6 109.4,36 				"/>
				<polygon class="st4" points="108.6,32.5 106.9,27.9 109.2,32.3 				"/>
				<polygon class="st5" points="104.9,28.7 103.5,26.7 104.1,25.5 102.6,24.5 103.4,23.1 104.7,21.5 106.5,21.1 106.6,18.5 
					108.7,18.5 109.1,19.5 111.6,18.7 113.1,20.3 112.5,21.1 113.2,22.2 115.5,22.5 115.6,24.1 114.7,24.9 115.5,26.1 113.5,28.2 
					112.4,28.2 113,29.7 111.6,31.1 110.6,30 108.9,30.6 107.6,29.6 				"/>
				<g>
					<polygon class="st5" points="108.8,20.5 107.7,19.5 108.1,18.5 106.6,18.5 106.5,21.1 108.4,21.7 					"/>
					<polygon class="st0" points="109.3,28 107.6,28.5 107.3,27.3 105.9,26.9 105.8,25.6 107.8,25.7 108.3,24.9 107.7,23.2 
						106.7,23.8 105.8,22.8 106.5,21.1 104.7,21.5 103.4,23.1 102.6,24.5 104.1,25.5 103.5,26.7 104.9,28.7 107.6,29.6 108.9,30.6 
						110.6,30 111.6,31.1 111.1,28.8 					"/>
				</g>
			</g>
		</g>
		<g>
			<g>
				<polygon class="st5" points="104.9,23.4 103.8,21.9 104.2,21 103.1,20.3 103.7,19.2 104.7,18 106,17.7 106.1,15.7 107.7,15.7 
					108,16.4 109.8,15.9 111,17.1 110.6,17.7 111.1,18.5 112.8,18.7 112.9,20 112.2,20.5 112.8,21.4 111.3,23.1 110.5,23.1 
					110.9,24.2 109.8,25.3 109.1,24.4 107.9,24.9 106.9,24.1 				"/>
				<g>
					<polyline class="st0" points="106,17.7 107.5,18.2 107.8,17.3 106.9,16.4 107.2,15.7 106.1,15.7 					"/>
					<polygon class="st0" points="108.1,22.9 106.9,23.3 106.7,22.3 105.6,22.1 105.5,21.1 107,21.2 107.4,20.5 106.9,19.3 
						106.2,19.7 105.5,19 106,17.7 104.7,18 103.7,19.2 103.1,20.3 104.2,21 103.8,21.9 104.9,23.4 106.9,24.1 107.9,24.9 
						109.1,24.4 109.8,25.3 109.5,23.5 					"/>
				</g>
			</g>
		</g>
		<g>
			<g>
				<polygon class="st5" points="106.2,15.1 106.2,16.5 106.8,16.9 106.5,17.8 107.2,18.3 108.3,18.7 109.3,18.3 110.2,19.6 
					111.1,19 111,18.4 112.4,18 112.6,16.8 112.1,16.6 112.1,15.8 113,15 112.6,14.2 111.9,14.1 111.9,13.3 110.3,12.8 109.8,13.1 
					109.6,12.2 108.5,11.9 108.4,12.7 107.4,12.9 107.1,13.9 				"/>
				<g>
					<polygon class="st0" points="108.4,14.1 107.5,14.4 107.8,15.1 107.2,15.7 107.6,16.4 108.5,15.7 109,16 109.2,17 108.6,17 
						108.4,17.7 109.3,18.3 108.3,18.7 107.2,18.3 106.5,17.8 106.8,16.9 106.2,16.5 106.2,15.1 107.1,13.9 107.4,12.9 108.4,12.7 
						108.5,11.9 109,13.2 					"/>
				</g>
			</g>
		</g>
	</g>
	<g>
		<g>
			<g>
				<path class="st3" d="M79.8,67.2c-0.2,0-0.4-0.1-0.6-0.2L49.3,49.8c-0.4-0.2-0.6-0.6-0.6-1.1c0-0.4,0.2-0.9,0.6-1.1l29.9-17.2
					c0.2-0.1,0.4-0.2,0.6-0.2s0.4,0.1,0.6,0.2l29.9,17.3c0.4,0.2,0.6,0.6,0.6,1.1c0,0.4-0.2,0.9-0.6,1.1L80.4,67.1
					C80.2,67.2,80,67.2,79.8,67.2z"/>
				<path class="st3" d="M79.8,31.5l29.9,17.3l0,0L79.8,66L49.9,48.7l0,0L79.8,31.5 M79.8,29c-0.4,0-0.9,0.1-1.2,0.3L48.7,46.5
					c-0.8,0.4-1.3,1.3-1.3,2.2s0.5,1.8,1.3,2.2l29.9,17.3c0.4,0.2,0.8,0.3,1.3,0.3c0.4,0,0.9-0.1,1.2-0.3L111,51
					c0.8-0.4,1.3-1.3,1.3-2.2s-0.5-1.8-1.3-2.2L81.1,29.3C80.7,29.1,80.3,29,79.8,29L79.8,29z"/>
			</g>
			<g>
				<path class="st3" d="M97.6,87.3c-0.2,0-0.4-0.1-0.6-0.2L68.6,70.7c-0.4-0.2-0.6-0.6-0.6-1.1s0.2-0.9,0.6-1.1l42.9-24.7
					c0.2-0.1,0.4-0.2,0.6-0.2s0.4,0.1,0.6,0.2l28.4,16.4c0.4,0.2,0.6,0.6,0.6,1.1c0,0.4-0.2,0.9-0.6,1.1l-14.5,8.4L98.2,87.1
					C98,87.2,97.8,87.3,97.6,87.3z"/>
				<path class="st3" d="M112.1,44.9l28.4,16.4L126,69.7L97.6,86L69.2,69.7l0,0L112.1,44.9 M112.1,42.4c-0.4,0-0.9,0.1-1.2,0.3
					L68,67.4c-0.8,0.4-1.3,1.3-1.3,2.2c0,0.9,0.5,1.8,1.3,2.2l28.4,16.4c0.4,0.2,0.8,0.3,1.3,0.3c0.4,0,0.9-0.1,1.2-0.3l28.4-16.3
					l14.5-8.4c0.8-0.4,1.2-1.3,1.2-2.2s-0.5-1.7-1.3-2.2l-28.4-16.4C112.9,42.5,112.5,42.4,112.1,42.4L112.1,42.4z"/>
			</g>
		</g>
		<g>
			<g>
				<g>
					<g>
						
							<linearGradient id="SVGID_1_" gradientUnits="userSpaceOnUse" x1="-3094.51" y1="85.7861" x2="-3107.6519" y2="76.2003" gradientTransform="matrix(1 0 0 -1 3210.0442 120)">
							<stop  offset="0" style="stop-color:#B1B1B1;stop-opacity:0.7896"/>
							<stop  offset="1" style="stop-color:#B1B1B1;stop-opacity:0.335"/>
						</linearGradient>
						<path class="st6" d="M93.7,36.7v-11l28.9,16.9v10.9"/>
					</g>
				</g>
			</g>
			<g>
				<g>
					<g>
						<polygon class="st7" points="75.4,31.3 75.4,46.7 92.7,56.6 92.7,41.3 						"/>
						
							<linearGradient id="SVGID_2_" gradientUnits="userSpaceOnUse" x1="551.3896" y1="76.05" x2="568.6896" y2="76.05" gradientTransform="matrix(-1 0 0 -1 644.0693 120)">
							<stop  offset="0" style="stop-color:#B1B1B1;stop-opacity:0.7896"/>
							<stop  offset="1" style="stop-color:#B1B1B1;stop-opacity:0.335"/>
						</linearGradient>
						<polygon class="st8" points="75.4,31.3 75.4,46.7 92.7,56.6 92.7,41.3 						"/>
						<g>
							<g>
								<g>
									<g>
										<polygon class="st7" points="50.1,38.5 65.6,29.4 92.6,45.1 92.6,56.2 77,65.3 50.1,49.6 										"/>
										<g>
											<polygon class="st9" points="49.9,38.6 49.9,41.2 77,57 77,54.5 											"/>
										</g>
										<polygon class="st10" points="50.1,38.5 65.6,29.4 92.6,45.1 92.6,46.2 77,55.3 50.1,39.6 										"/>
										<polygon class="st7" points="87.5,45.1 65.6,32.3 55.1,38.5 77,51.2 										"/>
										
											<linearGradient id="SVGID_3_" gradientUnits="userSpaceOnUse" x1="3547.2849" y1="80.95" x2="3604.4624" y2="80.95" gradientTransform="matrix(-1 0 0 -1 3636.5164 120)">
											<stop  offset="0" style="stop-color:#898989;stop-opacity:0.3"/>
											<stop  offset="0.3609" style="stop-color:#818181;stop-opacity:0.4083"/>
											<stop  offset="1" style="stop-color:#767676;stop-opacity:0.6"/>
										</linearGradient>
										<polygon class="st11" points="86.5,45.7 65.6,33.6 56.1,39.1 55.1,38.5 65.6,32.4 87.4,45.1 										"/>
									</g>
									
										<linearGradient id="SVGID_4_" gradientUnits="userSpaceOnUse" x1="3553.1013" y1="55.8779" x2="3548.8938" y2="85.5928" gradientTransform="matrix(-1 0 0 -1 3636.5164 120)">
										<stop  offset="0" style="stop-color:#B1B1B1;stop-opacity:0.335"/>
										<stop  offset="7.406294e-02" style="stop-color:#B1B1B1;stop-opacity:0.3176"/>
										<stop  offset="1" style="stop-color:#B1B1B1;stop-opacity:0.1"/>
									</linearGradient>
									<path class="st12" d="M76.8,65.4V54.5l15.7-9.3v11.1"/>
									
										<linearGradient id="SVGID_5_" gradientUnits="userSpaceOnUse" x1="-3139.5562" y1="73.1336" x2="-3152.1208" y2="63.9689" gradientTransform="matrix(1 0 0 -1 3210.0442 120)">
										<stop  offset="0" style="stop-color:#B1B1B1;stop-opacity:0.7896"/>
										<stop  offset="1" style="stop-color:#B1B1B1;stop-opacity:0.335"/>
									</linearGradient>
									<path class="st13" d="M49.9,49.6v-11L77,54.5v10.9"/>
								</g>
							</g>
						</g>
					</g>
					<g>
						<polygon class="st7" points="140.5,46.6 140.5,62 116.4,76 116.4,60.7 						"/>
					</g>
					<g>
						<polygon class="st9" points="116.4,60.7 116.4,65.5 140.5,51.4 140.5,46.6 						"/>
					</g>
					<polygon class="st7" points="87.7,59.5 87.7,44.1 116.4,60.7 116.4,76 					"/>
					<g>
						<polygon class="st9" points="87.7,44.1 87.7,49 116.4,65.6 116.4,60.7 						"/>
					</g>
					<g>
						<polygon class="st10" points="140.5,48.1 116.4,62 87.7,45.5 87.7,44.1 92.7,42.6 75.4,32.6 75.4,31.3 140.5,46.7 						"/>
					</g>
					<g>
						<polygon class="st10" points="140.5,46.7 136.7,48.9 120.1,58.5 116.4,60.7 87.7,44.1 92.7,41.3 75.4,31.3 89.6,23.1 
							106.9,33.1 111.8,30.2 						"/>
					</g>
					<g>
						<path class="st14" d="M89.6,25.4l16.3,9.4l1,0.6l1-0.6l4-2.3l24.6,14.2l-20.1,11.6L91.7,44.1l2-1.1l3-1.7l-3-1.7l-14.3-8.2
							L89.6,25.4 M89.6,23.1l-14.2,8.2l17.3,10l-5,2.9l28.6,16.5l3.7-2.2l20.4-11.8l-28.6-16.5l-5,2.9L89.6,23.1L89.6,23.1z"/>
					</g>
					<g>
						
							<linearGradient id="SVGID_6_" gradientUnits="userSpaceOnUse" x1="601.2918" y1="79.9704" x2="432.3695" y2="38.0311" gradientTransform="matrix(-1 0 0 -1 644.0693 120)">
							<stop  offset="0" style="stop-color:#B1B1B1;stop-opacity:0.335"/>
							<stop  offset="7.406294e-02" style="stop-color:#B1B1B1;stop-opacity:0.3176"/>
							<stop  offset="1" style="stop-color:#B1B1B1;stop-opacity:0.1"/>
						</linearGradient>
						<polygon class="st15" points="140.5,46.6 140.5,62 116.4,76 116.4,60.7 						"/>
					</g>
					
						<linearGradient id="SVGID_7_" gradientUnits="userSpaceOnUse" x1="527.7189" y1="59.95" x2="556.3455" y2="59.95" gradientTransform="matrix(-1 0 0 -1 644.0693 120)">
						<stop  offset="0" style="stop-color:#B1B1B1;stop-opacity:0.7896"/>
						<stop  offset="1" style="stop-color:#B1B1B1;stop-opacity:0.335"/>
					</linearGradient>
					<polygon class="st16" points="87.7,59.5 87.7,44.1 116.4,60.7 116.4,76 					"/>
					<path class="st14" d="M120.1,58.5"/>
				</g>
				<g>
					<g>
						<g>
							<g>
								<g>
									<path class="st7" d="M130.3,46.7c0,4.4-6.2,8-13.8,8c-7.6,0-13.8-3.6-13.8-8v-5.9h27.7L130.3,46.7L130.3,46.7z"/>
								</g>
								<g>
									<path class="st17" d="M130.3,46.7c0,4.4-6.2,8-13.8,8c-7.6,0-13.8-3.6-13.8-8v-5.9h27.7L130.3,46.7L130.3,46.7z"/>
								</g>
								<g>
									
										<linearGradient id="SVGID_8_" gradientUnits="userSpaceOnUse" x1="513.7947" y1="72.25" x2="541.4573" y2="72.25" gradientTransform="matrix(-1 0 0 -1 644.0693 120)">
										<stop  offset="0" style="stop-color:#B1B1B1;stop-opacity:0.335"/>
										<stop  offset="7.406294e-02" style="stop-color:#B1B1B1;stop-opacity:0.3176"/>
										<stop  offset="1" style="stop-color:#B1B1B1;stop-opacity:0.1"/>
									</linearGradient>
									<path class="st18" d="M130.3,46.7c0,4.4-6.2,8-13.8,8c-7.6,0-13.8-3.6-13.8-8v-5.9h27.7L130.3,46.7L130.3,46.7z"/>
								</g>
								<ellipse class="st7" cx="116.4" cy="40.8" rx="13.8" ry="8"/>
								
									<linearGradient id="SVGID_9_" gradientUnits="userSpaceOnUse" x1="539.3741" y1="82.5857" x2="512.4373" y2="74.794" gradientTransform="matrix(-1 0 0 -1 644.0693 120)">
									<stop  offset="0.5021" style="stop-color:#B1B1B1"/>
									<stop  offset="1" style="stop-color:#707070"/>
								</linearGradient>
								<ellipse class="st19" cx="116.4" cy="40.8" rx="13.8" ry="8"/>
							</g>
						</g>
					</g>
					<g>
						<path class="st7" d="M131.9,36.8v4.9c0,4.9-6.9,8.9-15.5,8.9c-8.5,0-15.5-4-15.5-8.9v-4.9C100.9,36.8,131.9,36.8,131.9,36.8z"
							/>
						
							<linearGradient id="SVGID_10_" gradientUnits="userSpaceOnUse" x1="512.1693" y1="76.3" x2="543.1146" y2="76.3" gradientTransform="matrix(-1 0 0 -1 644.0693 120)">
							<stop  offset="0.1166" style="stop-color:#B1B1B1"/>
							<stop  offset="0.1657" style="stop-color:#B1B1B1;stop-opacity:0.9259"/>
							<stop  offset="0.7801" style="stop-color:#B1B1B1;stop-opacity:0"/>
						</linearGradient>
						<path class="st20" d="M131.9,36.8v4.9c0,4.9-6.9,8.9-15.5,8.9c-8.5,0-15.5-4-15.5-8.9v-4.9C100.9,36.8,131.9,36.8,131.9,36.8z
							"/>
						
							<linearGradient id="SVGID_11_" gradientUnits="userSpaceOnUse" x1="540.7654" y1="86.9882" x2="510.632" y2="78.2719" gradientTransform="matrix(-1 0 0 -1 644.0693 120)">
							<stop  offset="0.5021" style="stop-color:#B1B1B1"/>
							<stop  offset="1" style="stop-color:#707070"/>
						</linearGradient>
						<ellipse class="st21" cx="116.4" cy="36.8" rx="15.5" ry="8.9"/>
					</g>
				</g>
			</g>
			<g>
				<g>
					<g>
						<g>
							<polygon class="st7" points="68.9,63.1 87.7,52.2 116.4,68.9 116.4,75.9 97.6,86.8 68.9,70.2 							"/>
							<polygon class="st14" points="68.9,63.1 87.7,52.2 116.4,68.9 116.4,70 97.6,81 68.9,64.3 							"/>
						</g>
						
							<linearGradient id="SVGID_12_" gradientUnits="userSpaceOnUse" x1="3530.6997" y1="33.895" x2="3526.8264" y2="61.251" gradientTransform="matrix(-1 0 0 -1 3636.5164 120)">
							<stop  offset="0" style="stop-color:#B1B1B1;stop-opacity:0.335"/>
							<stop  offset="7.406294e-02" style="stop-color:#B1B1B1;stop-opacity:0.3176"/>
							<stop  offset="1" style="stop-color:#B1B1B1;stop-opacity:0.1"/>
						</linearGradient>
						<path class="st22" d="M97.5,87v-6.8L116.4,69v7"/>
						
							<linearGradient id="SVGID_13_" gradientUnits="userSpaceOnUse" x1="-3120.3928" y1="49.5922" x2="-3131.9373" y2="41.1716" gradientTransform="matrix(1 0 0 -1 3210.0442 120)">
							<stop  offset="0" style="stop-color:#B1B1B1;stop-opacity:0.7896"/>
							<stop  offset="1" style="stop-color:#B1B1B1;stop-opacity:0.335"/>
						</linearGradient>
						<path class="st23" d="M68.7,70.2v-6.9l28.9,16.9V87"/>
					</g>
				</g>
			</g>
		</g>
	</g>
	<g>
		<path class="st3" d="M35.9,61.9l1.6-0.5v-1l1.5-0.3l-1-1l-1.8,0.1l0.4-0.6L35,57l-1.6,0.2L33,56.6l-1.8-0.2l-1.1,1.2l-1.4,0.2
			L28,57.3l-2.2,0.6l-0.1,1.4l-1.2,0.1l-0.7,1.1l2.8,0.5l-0.3,1l1.2,1l1.3,0.6l1.5-0.6l1.1,0.5l2.7-0.4L35.9,61.9z"/>
		<g>
			<polygon class="st4" points="34.8,61.7 35.6,45.7 35.7,61.8 			"/>
			<polygon class="st4" points="34.9,58 33,52.8 35.5,57.7 			"/>
			<polygon class="st5" points="30.8,53.7 29.2,51.4 29.8,50.1 28.2,49 29,47.3 30.5,45.6 32.5,45.2 32.7,42.2 35,42.2 35.5,43.3 
				38.2,42.5 40,44.2 39.3,45.2 40.1,46.4 42.7,46.7 42.8,48.6 41.7,49.4 42.7,50.7 40.4,53.2 39.2,53.2 39.8,54.8 38.2,56.4 
				37.1,55.2 35.2,55.9 33.8,54.7 			"/>
			<g>
				<polygon class="st5" points="35.1,44.5 33.9,43.3 34.3,42.2 32.7,42.2 32.5,45.2 34.7,45.9 				"/>
				<polygon class="st0" points="35.7,52.9 33.8,53.4 33.5,52.1 31.9,51.7 31.7,50.2 34,50.3 34.6,49.4 33.9,47.5 32.8,48.2 
					31.7,47.1 32.5,45.2 30.5,45.6 29,47.3 28.2,49 29.8,50.1 29.2,51.4 30.8,53.7 33.8,54.7 35.2,55.9 37.1,55.2 38.2,56.4 
					37.7,53.8 				"/>
			</g>
		</g>
	</g>
	<g>
		<path class="st3" d="M101,98.4l1.6-0.5v-1l1.5-0.3l-1-1l-1.8,0.1l0.4-0.6l-1.6-1.5l-1.6,0.2l-0.4-0.6L96.3,93l-1.1,1.2l-1.4,0.2
			l-0.7-0.5l-2.2,0.6l-0.1,1.4L89.6,96l-0.7,1.1l2.8,0.5l-0.3,1l1.2,1l1.3,0.6l1.5-0.6l1.1,0.5l2.7-0.4L101,98.4z"/>
		<g>
			<polygon class="st4" points="99.9,98.3 100.7,82.2 100.9,98.4 			"/>
			<polygon class="st4" points="100.1,94.5 98.1,89.3 100.7,94.2 			"/>
			<polygon class="st5" points="95.9,90.2 94.3,87.9 95,86.6 93.3,85.5 94.2,83.9 95.6,82.1 97.7,81.7 97.8,78.7 100.1,78.7 
				100.6,79.8 103.4,79 105.1,80.8 104.4,81.7 105.2,82.9 107.8,83.2 108,85.1 106.9,85.9 107.8,87.2 105.5,89.7 104.3,89.7 
				105,91.3 103.4,92.9 102.3,91.7 100.4,92.4 98.9,91.2 			"/>
			<g>
				<polygon class="st5" points="100.2,81 99,79.8 99.4,78.7 97.8,78.7 97.7,81.7 99.8,82.4 				"/>
				<polygon class="st0" points="100.8,89.4 98.9,90 98.6,88.6 97,88.2 96.9,86.7 99.2,86.8 99.7,85.9 99,84 97.9,84.7 96.9,83.6 
					97.7,81.7 95.6,82.1 94.2,83.9 93.3,85.5 95,86.6 94.3,87.9 95.9,90.2 98.9,91.2 100.4,92.4 102.3,91.7 103.4,92.9 102.8,90.4 
									"/>
			</g>
		</g>
	</g>
</g>
</svg>
