<?xml version="1.0" encoding="utf-8"?>
<!-- Generator: Adobe Illustrator 21.1.0, SVG Export Plug-In . SVG Version: 6.00 Build 0)  -->
<svg version="1.1" id="Слой_1" xmlns="http://www.w3.org/2000/svg" xmlns:xlink="http://www.w3.org/1999/xlink" x="0px" y="0px"
	 viewBox="0 0 156 106" style="enable-background:new 0 0 156 106;" xml:space="preserve">
<style type="text/css">
	.st0{fill:#265222;}
	.st1{fill:#D1D1CD;}
	.st2{fill:#E56E6E;}
	.st3{fill:url(#SVGID_1_);}
	.st4{fill:#E4E4E4;}
	.st5{fill:#A8A8A8;}
	.st6{fill:#8F8F8F;}
	.st7{fill:url(#SVGID_2_);}
	.st8{fill:#A19C95;}
	.st9{fill:#DADADA;}
	.st10{fill:#C15252;}
	.st11{fill:#B3B3B3;}
	.st12{fill:#B1B1B1;}
	.st13{fill:#F6F6F6;}
	.st14{fill:#FFFFFF;}
	.st15{fill:#707070;}
	.st16{fill:#EDEDED;}
	.st17{fill:#57352F;}
	.st18{fill:#568E48;}
	.st19{fill:#346F2E;}
</style>
<g>
	<g>
		<path class="st0" d="M149.8,75.5l-46.4,26.3c-7.2,4.1-18,4.6-24.2,1L5,59.6c-6.2-3.6-5.4-9.8,1.7-14l46.4-26.3
			c7.2-4.1,18-4.6,24.2-1l74.1,43.2C157.7,65.1,156.9,71.3,149.8,75.5z"/>
		<path class="st1" d="M149.8,72.4l-46.4,26.3c-7.2,4.1-18,4.6-24.2,1L5,56.6c-6.2-3.6-5.4-9.8,1.7-14l46.4-26.3
			c7.2-4.1,18-4.6,24.2-1l74.1,43.2C157.7,62.1,156.9,68.3,149.8,72.4z"/>
	</g>
	<g>
		<g>
			<ellipse class="st2" cx="95.2" cy="54.2" rx="4" ry="2.7"/>
			<g>
				<g>
					
						<linearGradient id="SVGID_1_" gradientUnits="userSpaceOnUse" x1="15864.416" y1="31.4848" x2="15867.3379" y2="31.4848" gradientTransform="matrix(1 0 0 1 -15770.709 0)">
						<stop  offset="0" style="stop-color:#B3B3B3"/>
						<stop  offset="0.4902" style="stop-color:#E6E6E6"/>
						<stop  offset="0.7801" style="stop-color:#FFFFFF"/>
					</linearGradient>
					<path class="st3" d="M96.7,7.6h-3.1L93,54.2c0,0.7,1,1.2,2.2,1.2c1.2,0,2.2-0.5,2.2-1.2L96.7,7.6z"/>
					<path class="st2" d="M95.2,16.2c-0.8,0-1.5-0.3-1.7-0.7l-0.1,2.9c0,0.5,0.8,1,1.8,1c1,0,1.8-0.4,1.8-1l-0.1-2.9
						C96.7,15.9,96,16.2,95.2,16.2z"/>
					<path class="st2" d="M95.2,11.1c-0.8,0-1.4-0.3-1.6-0.7l-0.1,2.7c0,0.5,0.8,0.9,1.7,0.9c0.9,0,1.7-0.4,1.7-0.9l-0.1-2.7
						C96.6,10.8,95.9,11.1,95.2,11.1z"/>
					<ellipse class="st4" cx="95.2" cy="7.6" rx="1.6" ry="0.8"/>
					<ellipse class="st5" cx="95.2" cy="7.6" rx="1.2" ry="0.6"/>
				</g>
				<g>
					<g>
						<path class="st6" d="M93,52.8c0,0.6,1,1.2,2.2,1.2c1.2,0,2.2-0.5,2.2-1.2l0-0.1c-0.1,0.6-1,1.1-2.2,1.1
							c-1.1,0-2.1-0.5-2.2-1.1L93,52.8z"/>
					</g>
				</g>
				<g>
					<g>
						<path class="st6" d="M93.1,43.9c0,0.6,0.9,1.1,2,1.1c1.1,0,2-0.5,2-1.1l0-0.1c-0.1,0.6-0.9,1-2,1c-1.1,0-2-0.5-2-1L93.1,43.9z
							"/>
					</g>
				</g>
				<g>
					<g>
						<path class="st6" d="M93.3,30.1c0,0.6,0.8,1,1.9,1c1,0,1.9-0.5,1.9-1l0-0.1c-0.1,0.5-0.9,1-1.9,1c-1,0-1.8-0.4-1.9-1
							L93.3,30.1z"/>
					</g>
				</g>
				<g>
					<g>
						<path class="st6" d="M93.4,15.4c0,0.5,0.8,0.9,1.7,0.9c1,0,1.7-0.4,1.7-0.9l0-0.1c-0.1,0.5-0.8,0.9-1.7,0.9
							c-0.9,0-1.7-0.4-1.7-0.9L93.4,15.4z"/>
					</g>
				</g>
			</g>
		</g>
		<g>
			<ellipse class="st2" cx="101" cy="56.7" rx="4" ry="2.7"/>
			<g>
				<g>
					
						<linearGradient id="SVGID_2_" gradientUnits="userSpaceOnUse" x1="15858.6045" y1="34.0096" x2="15861.5264" y2="34.0096" gradientTransform="matrix(1 0 0 1 -15759.085 0)">
						<stop  offset="0" style="stop-color:#B3B3B3"/>
						<stop  offset="0.4902" style="stop-color:#E6E6E6"/>
						<stop  offset="0.7801" style="stop-color:#FFFFFF"/>
					</linearGradient>
					<path class="st7" d="M102.5,10.1h-3.1l-0.6,46.6c0,0.7,1,1.2,2.2,1.2c1.2,0,2.2-0.5,2.2-1.2L102.5,10.1z"/>
					<path class="st2" d="M101,18.8c-0.8,0-1.5-0.3-1.7-0.7l-0.1,2.9c0,0.5,0.8,1,1.8,1c1,0,1.8-0.4,1.8-1l-0.1-2.9
						C102.5,18.5,101.8,18.8,101,18.8z"/>
					<path class="st2" d="M101,13.6c-0.8,0-1.4-0.3-1.6-0.7l-0.1,2.7c0,0.5,0.8,0.9,1.7,0.9c0.9,0,1.7-0.4,1.7-0.9l-0.1-2.7
						C102.4,13.4,101.8,13.6,101,13.6z"/>
					<ellipse class="st4" cx="101" cy="10.1" rx="1.6" ry="0.8"/>
					<ellipse class="st5" cx="101" cy="10.1" rx="1.2" ry="0.6"/>
				</g>
				<g>
					<g>
						<path class="st6" d="M98.8,55.3c0,0.6,1,1.2,2.2,1.2c1.2,0,2.2-0.5,2.2-1.2l0-0.1c-0.1,0.6-1,1.1-2.2,1.1
							c-1.1,0-2.1-0.5-2.2-1.1L98.8,55.3z"/>
					</g>
				</g>
				<g>
					<g>
						<path class="st6" d="M98.9,46.4c0,0.6,0.9,1.1,2,1.1c1.1,0,2-0.5,2-1.1l0-0.1c-0.1,0.6-0.9,1-2,1c-1.1,0-2-0.5-2-1L98.9,46.4z
							"/>
					</g>
				</g>
				<g>
					<g>
						<path class="st6" d="M99.1,32.6c0,0.6,0.8,1,1.9,1c1,0,1.9-0.5,1.9-1l0-0.1c-0.1,0.5-0.9,1-1.9,1c-1,0-1.8-0.4-1.9-1
							L99.1,32.6z"/>
					</g>
				</g>
				<g>
					<g>
						<path class="st6" d="M99.2,18c0,0.5,0.8,0.9,1.7,0.9c1,0,1.7-0.4,1.7-0.9l0-0.1c-0.1,0.5-0.8,0.9-1.7,0.9
							c-0.9,0-1.7-0.4-1.7-0.9L99.2,18z"/>
					</g>
				</g>
			</g>
		</g>
		<g>
			<g>
				<g>
					<path class="st8" d="M102.4,81.2c-0.2,0-0.4-0.1-0.6-0.2l-6.3-3.6l-5.2,3c-0.2,0.1-0.4,0.2-0.6,0.2s-0.4-0.1-0.6-0.2l-26-15
						c-0.4-0.2-0.6-0.6-0.6-1.1c0-0.4,0.2-0.9,0.6-1.1l4-2.3l-4.5-2.6L59.9,60c-0.2,0.1-0.4,0.2-0.6,0.2c-0.2,0-0.4-0.1-0.6-0.2
						L34,45.8c-0.4-0.2-0.6-0.6-0.6-1.1c0-0.4,0.2-0.9,0.6-1.1l20-11.8c0.2-0.1,0.4-0.2,0.6-0.2c0.2,0,0.4,0.1,0.6,0.2l65.7,36.7
						c0.4,0.2,0.6,0.6,0.6,1.1c0,0.5-0.2,0.9-0.6,1.1l-17.9,10.3C102.9,81.2,102.7,81.2,102.4,81.2z"/>
					<path class="st8" d="M54.6,32.9l65.7,36.7L102.4,80l-6.9-4l-5.8,3.4l-26-15l5.9-3.3l-7-4l-3.3,2L34.6,44.7L54.6,32.9
						 M54.6,30.4c-0.4,0-0.9,0.1-1.3,0.3l-20,11.8c-0.8,0.5-1.2,1.3-1.2,2.2c0,0.9,0.5,1.7,1.2,2.2L58,61.1c0.4,0.2,0.8,0.3,1.2,0.3
						c0.4,0,0.9-0.1,1.3-0.4l2-1.2l1.9,1.1l-2.1,1.2c-0.8,0.4-1.3,1.3-1.3,2.2c0,0.9,0.5,1.7,1.2,2.2l26,15c0.4,0.2,0.8,0.3,1.3,0.3
						s0.9-0.1,1.3-0.3l4.6-2.6l5.7,3.3c0.4,0.2,0.8,0.3,1.3,0.3s0.9-0.1,1.3-0.3l17.9-10.3c0.8-0.4,1.3-1.3,1.2-2.2
						c0-0.9-0.5-1.7-1.3-2.2L55.8,30.7C55.4,30.5,55,30.4,54.6,30.4L54.6,30.4z"/>
				</g>
			</g>
			<g>
				<g>
					<polygon class="st9" points="34.6,17.8 34.6,44.7 59.2,58.9 59.4,32 					"/>
				</g>
				<g>
					<polygon class="st10" points="59.2,37.8 34.6,23.6 34.6,17.8 59.3,32 					"/>
				</g>
				<g>
					<g>
						<rect x="59.4" y="17.8" class="st11" width="0" height="19.7"/>
					</g>
				</g>
				<g>
					<polygon class="st12" points="59.2,3.6 34.6,17.8 59.2,32 83.9,17.8 					"/>
				</g>
				<g>
					<polyline class="st13" points="59.2,52.6 59.2,32 83.9,17.8 83.9,44.7 59.2,58.9 59.2,52.6 					"/>
				</g>
				<g>
					<path class="st5" d="M65.1,24.3c-3.6,1-7.8,1-11.4,0c-14.5-3.9-14.5-10.3,0-14.2c3.6-1,7.8-1,11.4,0
						C79.6,14,79.6,20.5,65.1,24.3z"/>
				</g>
				<g>
					<g>
						<rect x="83.9" y="17.8" class="st11" width="0" height="19.7"/>
						<polygon class="st2" points="83.9,17.8 83.9,23.3 59.2,37.5 59.2,32 						"/>
					</g>
				</g>
				<g>
					<path class="st10" d="M64.7,23.5c-3.3,0.9-7.2,0.9-10.6,0c-11.2-3.2-11.2-9.4,0-12.6c3.3-0.9,7.2-0.9,10.6,0
						C75.9,14.1,75.9,20.4,64.7,23.5z"/>
				</g>
				<g>
					<rect x="45.8" y="7.6" class="st10" width="27.1" height="9.6"/>
				</g>
				<g>
					<path class="st2" d="M64.7,13.9c-3.3,0.9-7.2,0.9-10.6,0c-11.2-3.2-11.2-9.4,0-12.6c3.3-0.9,7.2-0.9,10.6,0
						C75.9,4.5,75.9,10.7,64.7,13.9z"/>
				</g>
				<g>
					<path class="st14" d="M63.2,12.3c-2.4,0.6-5.2,0.6-7.5,0c-9-2.4-9-6.9,0-9.3c2.4-0.6,5.2-0.6,7.5,0
						C72.1,5.4,72.1,9.8,63.2,12.3z"/>
				</g>
				<g>
					<g>
						<polygon class="st10" points="41.2,15.4 44.7,13.3 44.7,15.8 41.2,17.9 						"/>
					</g>
					<g>
						<polygon class="st2" points="41.5,11.5 38,13.5 38,13.5 34.7,15.4 41.4,19.3 44.6,17.4 41.2,15.4 44.7,13.4 						"/>
					</g>
					<g>
						<polygon class="st2" points="62.8,23.8 59.2,25.8 55.8,23.8 52.5,25.7 59.2,29.5 59.3,29.5 59.3,29.5 61.3,28.3 62.5,27.7 
							62.5,27.7 66,25.6 						"/>
					</g>
					<g>
						<g>
							<polygon class="st10" points="77.1,15.2 73.9,13.4 73.9,15.8 77.1,17.7 							"/>
						</g>
						<g>
							<polygon class="st2" points="83.8,15.3 77.1,11.5 73.9,13.4 77.3,15.3 73.8,17.4 77,19.2 81.7,16.5 							"/>
						</g>
						<g>
							<polygon class="st13" points="83.8,17.8 83.8,15.3 77,19.2 77,21.7 							"/>
						</g>
						<g>
							<polygon class="st13" points="66,28.1 66,25.6 59.2,29.5 59.2,32 							"/>
						</g>
						<g>
							<polygon class="st10" points="52.5,28.1 52.5,25.6 59.2,29.5 59.2,32 							"/>
						</g>
						<g>
							<polygon class="st10" points="34.6,17.8 34.6,15.3 41.4,19.2 41.4,21.7 							"/>
						</g>
						<g>
							<polygon class="st10" points="77,19.2 73.8,17.4 73.8,19.9 77,21.7 							"/>
						</g>
						<g>
							<polygon class="st13" points="41.4,19.3 44.6,17.4 44.6,19.9 41.4,21.7 							"/>
						</g>
					</g>
				</g>
				<g>
					<g>
						<polygon class="st9" points="62.5,40.9 62.5,56.9 102.4,80 102.4,64 						"/>
					</g>
					<g>
						<polygon class="st15" points="80.4,30.6 62.5,40.9 102.4,64 120.3,53.6 						"/>
					</g>
					<g>
						<g>
							<polygon class="st1" points="114.2,54.2 115.2,53.6 80.4,33.6 67.7,40.9 68.7,41.5 80.4,34.7 							"/>
						</g>
						<g>
							<polygon class="st14" points="114.2,54.2 80.4,34.7 68.7,41.5 102.4,61 							"/>
						</g>
					</g>
					<g>
						<polygon class="st13" points="102.4,80 102.4,64 120.3,53.6 120.3,69.7 						"/>
					</g>
					<g>
						<g>
							<polygon class="st16" points="84.4,37.9 84.4,40.8 77.4,44.8 77.4,42 							"/>
						</g>
						<g>
							<polygon class="st13" points="81.2,36.1 84.4,37.9 77.4,42 74.2,40.2 							"/>
						</g>
						<g>
							<polygon class="st9" points="77.4,44.8 77.4,42 74.2,40.2 74.2,43 							"/>
						</g>
					</g>
					<g>
						<g>
							<polygon class="st16" points="92.7,42.7 92.7,45.6 85.7,49.6 85.7,46.8 							"/>
						</g>
						<g>
							<polygon class="st13" points="89.5,40.9 92.7,42.7 85.7,46.8 82.5,45 							"/>
						</g>
						<g>
							<polygon class="st9" points="85.7,49.6 85.7,46.8 82.5,45 82.5,47.8 							"/>
						</g>
					</g>
					<g>
						<g>
							<polygon class="st16" points="101,47.5 101,50.3 94,54.4 94,51.6 							"/>
						</g>
						<g>
							<polygon class="st13" points="97.9,45.7 101,47.5 94,51.6 90.8,49.8 							"/>
						</g>
						<g>
							<polygon class="st9" points="94,54.4 94,51.6 90.8,49.8 90.8,52.6 							"/>
						</g>
					</g>
					<g>
						<g>
							<polygon class="st16" points="109.3,52.3 109.3,55.1 102.3,59.2 102.3,56.4 							"/>
						</g>
						<g>
							<polygon class="st13" points="106.2,50.5 109.3,52.3 102.3,56.4 99.1,54.5 							"/>
						</g>
						<g>
							<polygon class="st9" points="102.3,59.2 102.3,56.4 99.1,54.5 99.1,57.4 							"/>
						</g>
					</g>
					<g>
						<polygon class="st9" points="63.7,51.8 63.7,64.3 89.7,79.3 89.7,66.8 						"/>
					</g>
					<g>
						<g>
							<polygon class="st2" points="69.3,59.5 67.8,58.6 67.8,66.8 69.3,67.7 							"/>
						</g>
						<g>
							<polygon class="st2" points="73.4,61.8 71.9,60.9 71.9,69.1 73.4,70 							"/>
						</g>
						<g>
							<polygon class="st2" points="77.6,64.1 76,63.2 76,71.4 77.6,72.3 							"/>
						</g>
						<g>
							<polygon class="st2" points="81.7,66.5 80.1,65.6 80.1,73.8 81.7,74.7 							"/>
						</g>
						<g>
							<polygon class="st2" points="85.8,68.8 84.2,67.9 84.2,76.1 85.8,77 							"/>
						</g>
					</g>
					<g>
						<polygon class="st2" points="69.5,48.4 63.7,51.8 89.7,66.8 95.5,63.5 						"/>
					</g>
					<g>
						<polygon class="st13" points="95.5,63.5 95.5,76 89.7,79.3 89.7,66.8 						"/>
					</g>
					<g>
						<polygon class="st9" points="93.4,62.3 94,62.6 88.2,66 87.6,65.6 						"/>
					</g>
					<g>
						<polygon class="st9" points="90.2,60.4 90.8,60.7 85,64.1 84.4,63.8 						"/>
					</g>
					<g>
						<polygon class="st9" points="87,58.5 87.6,58.9 81.8,62.3 81.2,61.9 						"/>
					</g>
					<g>
						<polygon class="st9" points="83.8,56.7 84.4,57 78.6,60.4 78,60.1 						"/>
					</g>
					<g>
						<polygon class="st9" points="80.6,54.8 81.2,55.2 75.4,58.5 74.8,58.2 						"/>
					</g>
					<g>
						<polygon class="st9" points="77.4,53 78,53.3 72.1,56.7 71.5,56.3 						"/>
					</g>
					<g>
						<polygon class="st9" points="74.2,51.1 74.8,51.5 68.9,54.8 68.3,54.5 						"/>
					</g>
					<g>
						<polygon class="st9" points="70.9,49.3 71.5,49.6 65.7,53 65.1,52.6 						"/>
					</g>
				</g>
			</g>
		</g>
	</g>
	<g>
		<path class="st8" d="M88.8,92.7l-2.7,0.4l-1.1-0.5l-1.5,0.6l-1.3-0.6l-1.2-1l0.3-1L78.5,90l0.7-1.1l1.2-0.1l0.1-1.4l2.2-0.6
			l0.7,0.5l1.4-0.2L86,86l1.8,0.2l0.4,0.6l1.6-0.2l1.6,1.5L91,88.7l1.8-0.1l1,1L92.3,90l0,1l-1.6,0.5L88.8,92.7z"/>
		<g>
			<polygon class="st17" points="89.6,91.3 90.4,75.3 90.6,91.4 			"/>
			<polygon class="st17" points="89.8,87.6 87.8,82.4 90.4,87.3 			"/>
			<polygon class="st18" points="85.6,83.3 84,81 84.7,79.6 83,78.6 83.8,76.9 85.3,75.2 87.4,74.8 87.5,71.8 89.8,71.8 90.3,72.9 
				93,72.1 94.8,73.8 94.1,74.8 94.9,76 97.5,76.3 97.6,78.1 96.6,79 97.5,80.3 95.2,82.7 94,82.7 94.7,84.4 93,86 92,84.8 
				90.1,85.5 88.6,84.2 			"/>
			<g>
				<polygon class="st18" points="89.9,74.1 88.7,72.9 89.1,71.8 87.5,71.8 87.4,74.8 89.5,75.4 				"/>
				<polygon class="st19" points="90.5,82.5 88.6,83 88.3,81.7 86.7,81.3 86.5,79.8 88.9,79.9 89.4,79 88.7,77.1 87.6,77.7 
					86.5,76.7 87.4,74.8 85.3,75.2 83.8,76.9 83,78.6 84.7,79.6 84,81 85.6,83.3 88.6,84.2 90.1,85.5 92,84.8 93,86 92.5,83.4 				
					"/>
			</g>
		</g>
	</g>
	<g>
		<g>
			<path class="st8" d="M34.6,58l-2.1,0.3l-0.8-0.4l-1.2,0.5l-1-0.5l-0.9-0.8l0.2-0.8l-2.2-0.4l0.6-0.9l1-0.1l0.1-1.1l1.8-0.4
				l0.5,0.4l1.1-0.2l0.9-0.9l1.5,0.2l0.3,0.5l1.3-0.2l1.2,1.2l-0.3,0.5l1.4,0l0.8,0.8l-1.2,0.3l0,0.8L36,57L34.6,58z"/>
			<g>
				<polygon class="st17" points="35.2,56.9 35.8,44.1 35.9,56.9 				"/>
				<polygon class="st17" points="35.3,53.9 33.8,49.8 35.8,53.7 				"/>
				<polygon class="st18" points="32,50.5 30.7,48.7 31.2,47.6 30,46.7 30.6,45.4 31.8,44 33.4,43.7 33.5,41.3 35.3,41.3 35.8,42.2 
					37.9,41.6 39.3,43 38.8,43.7 39.4,44.7 41.5,44.9 41.6,46.4 40.7,47 41.5,48.1 39.6,50.1 38.7,50.1 39.2,51.3 37.9,52.6 
					37.1,51.7 35.5,52.2 34.4,51.2 				"/>
				<g>
					<polygon class="st18" points="35.4,43.2 34.5,42.2 34.8,41.3 33.5,41.3 33.4,43.7 35.1,44.2 					"/>
					<polygon class="st19" points="35.9,49.8 34.4,50.3 34.1,49.2 32.9,48.9 32.8,47.7 34.6,47.8 35,47 34.5,45.5 33.6,46.1 
						32.8,45.2 33.4,43.7 31.8,44 30.6,45.4 30,46.7 31.2,47.6 30.7,48.7 32,50.5 34.4,51.2 35.5,52.2 37.1,51.7 37.9,52.6 
						37.5,50.6 					"/>
				</g>
			</g>
		</g>
		<g>
			<g>
				<polygon class="st18" points="31.9,45.8 31,44.4 31.4,43.6 30.4,42.9 30.9,42 31.8,40.9 33,40.7 33.1,38.9 34.4,38.9 34.8,39.5 
					36.4,39 37.4,40.1 37,40.7 37.5,41.4 39.1,41.5 39.2,42.7 38.5,43.2 39.1,44 37.7,45.4 37,45.4 37.4,46.4 36.4,47.4 35.7,46.7 
					34.6,47.1 33.7,46.3 				"/>
				<g>
					<polyline class="st19" points="33,40.7 34.3,41.1 34.5,40.2 33.8,39.5 34,38.9 33.1,38.9 					"/>
					<polygon class="st19" points="34.8,45.3 33.7,45.6 33.6,44.8 32.6,44.5 32.5,43.7 33.9,43.7 34.2,43.2 33.8,42 33.1,42.4 
						32.5,41.8 33,40.7 31.8,40.9 30.9,42 30.4,42.9 31.4,43.6 31,44.4 31.9,45.8 33.7,46.3 34.6,47.1 35.7,46.7 36.4,47.4 
						36.1,45.8 					"/>
				</g>
			</g>
		</g>
		<g>
			<g>
				<polygon class="st18" points="33.1,38.3 33.1,39.6 33.7,39.9 33.4,40.7 34.1,41.2 35,41.5 35.9,41.2 36.7,42.3 37.5,41.8 
					37.5,41.3 38.6,40.9 38.9,39.8 38.4,39.6 38.4,39 39.2,38.3 38.8,37.5 38.2,37.4 38.2,36.7 36.8,36.2 36.3,36.5 36.2,35.7 
					35.2,35.5 35.1,36.2 34.2,36.4 34,37.2 				"/>
				<g>
					<polygon class="st19" points="35.1,37.5 34.3,37.7 34.5,38.3 34,38.8 34.3,39.4 35.2,38.8 35.6,39.1 35.8,40 35.2,40 
						35.1,40.7 35.9,41.2 35,41.5 34.1,41.2 33.4,40.7 33.7,39.9 33.1,39.6 33.1,38.3 34,37.2 34.2,36.4 35.1,36.2 35.2,35.5 
						35.6,36.6 					"/>
				</g>
			</g>
		</g>
	</g>
</g>
</svg>
