<?xml version="1.0" encoding="utf-8"?>
<!-- Generator: Adobe Illustrator 21.1.0, SVG Export Plug-In . SVG Version: 6.00 Build 0)  -->
<svg version="1.1" id="Слой_1" xmlns="http://www.w3.org/2000/svg" xmlns:xlink="http://www.w3.org/1999/xlink" x="0px" y="0px"
	 viewBox="0 0 156 94" style="enable-background:new 0 0 156 94;" xml:space="preserve">
<style type="text/css">
	.st0{fill:#346F2E;}
	.st1{fill:#D1D1CD;}
	.st2{fill:#A19C95;}
	.st3{fill:#FFFFFF;}
	.st4{fill:#707070;}
	.st5{fill:#CFB36F;}
	.st6{fill:url(#SVGID_1_);}
	.st7{fill:url(#SVGID_2_);}
	.st8{fill:#A48A42;}
	.st9{fill:url(#SVGID_3_);}
	.st10{fill:#E4E4E4;}
	.st11{fill:#A8A8A8;}
	.st12{fill:#8F8F8F;}
	.st13{fill:url(#SVGID_4_);}
	.st14{fill:url(#SVGID_5_);}
	.st15{fill:url(#SVGID_6_);}
	.st16{fill:none;stroke:#F5F5F5;stroke-width:0.75;stroke-linecap:round;stroke-linejoin:round;stroke-miterlimit:10;}
	.st17{fill:url(#SVGID_7_);}
	.st18{fill:url(#SVGID_8_);}
	.st19{fill:url(#SVGID_9_);}
	.st20{fill:url(#SVGID_10_);}
	.st21{fill:#C6C6C6;}
	.st22{fill:url(#SVGID_11_);}
	.st23{fill:url(#SVGID_12_);}
	.st24{fill:#57352F;}
	.st25{fill:#568E48;}
</style>
<g>
	<g>
		<path class="st0" d="M149.4,63.8L103,90.1c-7.2,4.1-18,4.6-24.2,1L4.7,47.9c-6.2-3.6-5.4-9.8,1.7-14L52.8,7.6
			c7.2-4.1,18-4.6,24.2-1l74.1,43.2C157.3,53.4,156.6,59.7,149.4,63.8z"/>
		<path class="st1" d="M149.4,60.8L103,87.1c-7.2,4.1-18,4.6-24.2,1L4.7,44.9c-6.2-3.6-5.4-9.8,1.7-14L52.8,4.6
			c7.2-4.1,18-4.6,24.2-1l74.1,43.2C157.3,50.4,156.6,56.7,149.4,60.8z"/>
	</g>
	<g>
		<g>
			<g>
				<path class="st2" d="M123.9,52.7c0.7,0.5,1.1,1.3,1.1,2.1c0,0.9-0.5,1.7-1.3,2.2l-17.7,10.4c-1.4,0.8-3.1,0.8-4.5,0L32.8,27.5
					c-1.8-1.1-1.8-3.7,0-4.8l19.6-11.5L123.9,52.7z"/>
			</g>
			<g>
				<path class="st2" d="M70,28.9c0.7,0.5,1.1,1.3,1.1,2.1c0,0.9-0.5,1.7-1.3,2.2l-11.7,6.9c-1,0.6-2.3,0.6-3.4,0l-0.4-0.2
					c-1-0.6-2.3-0.6-3.4,0l-2.4,1.5c-1.4,0.8-3.1,0.8-4.5,0l-16.5-9.7c-1.8-1.1-1.8-3.7,0-4.8L44,17.2c1.9-1.1,4.3-1.1,6.2,0
					L70,28.9z"/>
			</g>
			<g>
				<path class="st2" d="M83.1,36.7c0.7,0.5,1.1,1.3,1.1,2.1c0,0.9-0.5,1.7-1.3,2.2l-11.7,6.9c-1,0.6-2.3,0.6-3.4,0l-0.4-0.2
					c-1-0.6-2.3-0.6-3.4,0l-2.4,1.5c-1.4,0.8-3.1,0.8-4.5,0l-16.5-9.7c-1.8-1.1-1.8-3.7,0-4.8l16.5-9.7c1.9-1.1,4.3-1.1,6.2,0
					L83.1,36.7z"/>
			</g>
			<g>
				<path class="st2" d="M116.5,57.1c0.7,0.5,1.1,1.3,1.1,2.1c0,0.9-0.5,1.7-1.3,2.2l-11.7,6.9c-1,0.6-2.3,0.6-3.4,0l-0.4-0.2
					c-1-0.6-2.3-0.6-3.4,0L95,69.6c-1.4,0.8-3.1,0.8-4.5,0L74,59.9c-1.8-1.1-1.8-3.7,0-4.8l16.5-9.7c1.9-1.1,4.3-1.1,6.2,0
					L116.5,57.1z"/>
			</g>
			<path class="st2" d="M106.2,65.9l-1.5,2.3l1.6-0.9c0.6-0.4,1.4-0.4,2.1-0.1l1.8,1c0.5,0.3,1.1,0.3,1.6,0l11.3-6.7
				c1-0.6,1-2.1,0-2.7l-0.5-0.3c0,0-0.6-0.4,0.3-0.9l0.8-0.5l-17.2,6C105.2,63.5,105,65.3,106.2,65.9z"/>
			<g>
				<g>
					<g>
						<polygon class="st3" points="119.4,39.3 52.9,0.7 36.9,9.9 36.9,25.6 103.4,64.3 119.4,55.1 						"/>
						<polygon class="st4" points="119.4,39.3 52.9,0.7 36.9,9.9 36.9,11.2 103.4,49.9 119.4,40.7 						"/>
						<polygon class="st3" points="42.6,9.9 52.9,4 113.6,39.3 103.4,45.2 						"/>
						<polygon class="st5" points="43.8,10.6 52.9,5.4 112.5,40 113.6,39.3 52.9,4 42.7,9.9 						"/>
					</g>
					<linearGradient id="SVGID_1_" gradientUnits="userSpaceOnUse" x1="36.9166" y1="37.1338" x2="103.4375" y2="37.1338">
						<stop  offset="0" style="stop-color:#B1B1B1;stop-opacity:0.7896"/>
						<stop  offset="1" style="stop-color:#B1B1B1;stop-opacity:0.335"/>
					</linearGradient>
					<path class="st6" d="M36.9,25.6V10l66.5,38.9l0,15.3"/>
					
						<linearGradient id="SVGID_2_" gradientUnits="userSpaceOnUse" x1="-5423.4028" y1="47.433" x2="-5434.3877" y2="55.4454" gradientTransform="matrix(-1 0 0 1 -5318.0288 0)">
						<stop  offset="0" style="stop-color:#B3B3B3;stop-opacity:0.335"/>
						<stop  offset="7.406294e-02" style="stop-color:#B3B3B3;stop-opacity:0.3176"/>
						<stop  offset="1" style="stop-color:#B3B3B3;stop-opacity:0.1"/>
					</linearGradient>
					<path class="st7" d="M103.4,64.3l0-15.3l16.1-9.4v15.6"/>
				</g>
			</g>
			<polygon class="st5" points="103.4,53.1 36.9,14.3 36.9,11.1 103.4,49.9 			"/>
			<polygon class="st8" points="103.4,53.1 119.4,43.8 119.4,40.7 103.4,49.9 			"/>
		</g>
		<g>
			<ellipse class="st2" cx="71.2" cy="51.7" rx="3.8" ry="2.6"/>
			<g>
				<g>
					
						<linearGradient id="SVGID_3_" gradientUnits="userSpaceOnUse" x1="-614.9749" y1="29.9665" x2="-612.1714" y2="29.9665" gradientTransform="matrix(1 0 0 1 684.7984 0)">
						<stop  offset="0" style="stop-color:#B3B3B3"/>
						<stop  offset="0.4902" style="stop-color:#E6E6E6"/>
						<stop  offset="0.7801" style="stop-color:#FFFFFF"/>
					</linearGradient>
					<path class="st9" d="M72.7,7h-3l-0.6,44.7c0,0.6,0.9,1.1,2.1,1.1c1.2,0,2.1-0.5,2.1-1.1L72.7,7z"/>
					<path class="st5" d="M71.2,15.3c-0.8,0-1.5-0.3-1.7-0.7l-0.1,2.8c0,0.5,0.8,1,1.7,1c1,0,1.7-0.4,1.7-1l-0.1-2.8
						C72.7,15,72,15.3,71.2,15.3z"/>
					<path class="st5" d="M71.2,10.4c-0.8,0-1.4-0.3-1.6-0.7l-0.1,2.6c0,0.5,0.7,0.9,1.6,0.9c0.9,0,1.6-0.4,1.6-0.9l-0.1-2.6
						C72.6,10.1,72,10.4,71.2,10.4z"/>
					<ellipse class="st10" cx="71.2" cy="7" rx="1.5" ry="0.8"/>
					<ellipse class="st11" cx="71.2" cy="7" rx="1.1" ry="0.6"/>
				</g>
				<g>
					<g>
						<path class="st12" d="M69.2,50.4c0,0.6,0.9,1.1,2.1,1.1c1.1,0,2.1-0.5,2.1-1.1l0-0.1c-0.1,0.6-1,1.1-2.1,1.1
							c-1.1,0-2-0.5-2.1-1.1L69.2,50.4z"/>
					</g>
				</g>
				<g>
					<g>
						<path class="st12" d="M69.3,41.9c0,0.6,0.9,1.1,1.9,1.1c1.1,0,1.9-0.5,1.9-1.1l0-0.1c-0.1,0.6-0.9,1-1.9,1c-1,0-1.9-0.4-1.9-1
							L69.3,41.9z"/>
					</g>
				</g>
				<g>
					<g>
						<path class="st12" d="M69.4,28.6c0,0.5,0.8,1,1.8,1c1,0,1.8-0.4,1.8-1l0-0.1c-0.1,0.5-0.8,0.9-1.8,0.9c-1,0-1.7-0.4-1.8-0.9
							L69.4,28.6z"/>
					</g>
				</g>
				<g>
					<g>
						<path class="st12" d="M69.6,14.6c0,0.5,0.7,0.9,1.7,0.9c0.9,0,1.7-0.4,1.7-0.9l0-0.1c0,0.5-0.8,0.9-1.7,0.9
							c-0.9,0-1.6-0.4-1.7-0.9L69.6,14.6z"/>
					</g>
				</g>
			</g>
		</g>
		<g>
			<ellipse class="st2" cx="76.8" cy="54.2" rx="3.8" ry="2.6"/>
			<g>
				<g>
					
						<linearGradient id="SVGID_4_" gradientUnits="userSpaceOnUse" x1="-620.5512" y1="32.389" x2="-617.7477" y2="32.389" gradientTransform="matrix(1 0 0 1 695.951 0)">
						<stop  offset="0" style="stop-color:#B3B3B3"/>
						<stop  offset="0.4902" style="stop-color:#E6E6E6"/>
						<stop  offset="0.7801" style="stop-color:#FFFFFF"/>
					</linearGradient>
					<path class="st13" d="M78.3,9.5h-3l-0.6,44.7c0,0.6,0.9,1.1,2.1,1.1c1.2,0,2.1-0.5,2.1-1.1L78.3,9.5z"/>
					<path class="st5" d="M76.8,17.8c-0.8,0-1.5-0.3-1.7-0.7l-0.1,2.8c0,0.5,0.8,1,1.7,1c1,0,1.7-0.4,1.7-1l-0.1-2.8
						C78.3,17.5,77.6,17.8,76.8,17.8z"/>
					<path class="st5" d="M76.8,12.9c-0.8,0-1.4-0.3-1.6-0.7l-0.1,2.6c0,0.5,0.7,0.9,1.6,0.9c0.9,0,1.6-0.4,1.6-0.9l-0.1-2.6
						C78.2,12.6,77.5,12.9,76.8,12.9z"/>
					<ellipse class="st10" cx="76.8" cy="9.5" rx="1.5" ry="0.8"/>
					<ellipse class="st11" cx="76.8" cy="9.5" rx="1.1" ry="0.6"/>
				</g>
				<g>
					<g>
						<path class="st12" d="M74.7,52.8c0,0.6,0.9,1.1,2.1,1.1c1.1,0,2.1-0.5,2.1-1.1l0-0.1c-0.1,0.6-1,1.1-2.1,1.1
							c-1.1,0-2-0.5-2.1-1.1L74.7,52.8z"/>
					</g>
				</g>
				<g>
					<g>
						<path class="st12" d="M74.9,44.3c0,0.6,0.9,1.1,1.9,1.1c1.1,0,1.9-0.5,1.9-1.1l0-0.1c-0.1,0.6-0.9,1-1.9,1c-1,0-1.9-0.4-1.9-1
							L74.9,44.3z"/>
					</g>
				</g>
				<g>
					<g>
						<path class="st12" d="M75,31.1c0,0.5,0.8,1,1.8,1c1,0,1.8-0.4,1.8-1l0-0.1c-0.1,0.5-0.8,0.9-1.8,0.9c-1,0-1.7-0.4-1.8-0.9
							L75,31.1z"/>
					</g>
				</g>
				<g>
					<g>
						<path class="st12" d="M75.1,17c0,0.5,0.7,0.9,1.7,0.9c0.9,0,1.7-0.4,1.7-0.9l0-0.1c0,0.5-0.8,0.9-1.7,0.9
							c-0.9,0-1.6-0.4-1.7-0.9L75.1,17z"/>
					</g>
				</g>
			</g>
		</g>
		<g>
			<polygon class="st8" points="77.9,43.6 92.6,52.1 92.6,66.4 77.9,57.9 			"/>
			
				<linearGradient id="SVGID_5_" gradientUnits="userSpaceOnUse" x1="-2610.6423" y1="49.461" x2="-2595.9714" y2="49.461" gradientTransform="matrix(-1 0 0 1 -2518.0286 0)">
				<stop  offset="0" style="stop-color:#B3B3B3;stop-opacity:0.7896"/>
				<stop  offset="1" style="stop-color:#B3B3B3;stop-opacity:0.335"/>
			</linearGradient>
			<polygon class="st14" points="77.9,43.6 92.6,52.1 92.6,55.3 77.9,46.8 			"/>
			<polygon class="st5" points="92.6,66.4 92.6,52.1 100,47.8 100,62.1 			"/>
			
				<linearGradient id="SVGID_6_" gradientUnits="userSpaceOnUse" x1="-2618.022" y1="51.6249" x2="-2610.6423" y2="51.6249" gradientTransform="matrix(-1 0 0 1 -2518.0286 0)">
				<stop  offset="0" style="stop-color:#B3B3B3;stop-opacity:0.7896"/>
				<stop  offset="1" style="stop-color:#B3B3B3;stop-opacity:0.335"/>
			</linearGradient>
			<polygon class="st15" points="92.6,55.4 92.6,52.1 100,47.8 100,51.1 			"/>
			<g>
				<line class="st16" x1="87.2" y1="53.5" x2="87.2" y2="61.5"/>
				<line class="st16" x1="82.5" y1="51" x2="82.5" y2="59"/>
			</g>
			<polygon class="st5" points="80.8,41.9 80.8,41.9 85.3,39.4 100,47.8 97.1,49.5 97.1,49.5 92.6,52.1 77.9,43.6 			"/>
			<g>
				<polygon class="st8" points="81.5,44.2 80.5,43.6 85.3,40.9 97.4,47.8 96.4,48.4 85.3,42 				"/>
				<polygon class="st3" points="81.5,44.2 85.3,42 96.4,48.4 92.6,50.6 				"/>
			</g>
		</g>
		<g>
			<polygon class="st8" points="31.6,16.6 46.2,25.1 46.2,39.4 31.6,30.9 			"/>
			
				<linearGradient id="SVGID_7_" gradientUnits="userSpaceOnUse" x1="-2564.2673" y1="22.4659" x2="-2549.5962" y2="22.4659" gradientTransform="matrix(-1 0 0 1 -2518.0286 0)">
				<stop  offset="0" style="stop-color:#B3B3B3;stop-opacity:0.7896"/>
				<stop  offset="1" style="stop-color:#B3B3B3;stop-opacity:0.335"/>
			</linearGradient>
			<polygon class="st17" points="31.6,16.6 46.2,25.1 46.2,28.3 31.6,19.8 			"/>
			<polygon class="st5" points="46.2,39.4 46.2,25.1 53.6,20.8 53.6,35.1 			"/>
			
				<linearGradient id="SVGID_8_" gradientUnits="userSpaceOnUse" x1="-2571.647" y1="24.6298" x2="-2564.2673" y2="24.6298" gradientTransform="matrix(-1 0 0 1 -2518.0286 0)">
				<stop  offset="0" style="stop-color:#B3B3B3;stop-opacity:0.7896"/>
				<stop  offset="1" style="stop-color:#B3B3B3;stop-opacity:0.335"/>
			</linearGradient>
			<polygon class="st18" points="46.2,28.4 46.2,25.1 53.6,20.8 53.6,24.1 			"/>
			<g>
				<line class="st16" x1="40.8" y1="26.5" x2="40.8" y2="34.5"/>
				<line class="st16" x1="36.2" y1="24" x2="36.2" y2="32"/>
			</g>
			<polygon class="st5" points="34.5,15 34.5,15 38.9,12.4 53.6,20.8 50.7,22.5 50.7,22.5 46.2,25.1 31.6,16.6 			"/>
			<g>
				<polygon class="st8" points="35.1,17.2 34.1,16.6 38.9,13.9 51,20.9 50.1,21.4 38.9,15 				"/>
				<polygon class="st3" points="35.1,17.2 38.9,15 50.1,21.4 46.2,23.6 				"/>
			</g>
		</g>
		<g>
			<polygon class="st3" points="110,65.1 120,59.3 120,47.9 110,53.7 			"/>
			<linearGradient id="SVGID_9_" gradientUnits="userSpaceOnUse" x1="110.0142" y1="56.519" x2="120.0132" y2="56.519">
				<stop  offset="0" style="stop-color:#B3B3B3;stop-opacity:0.335"/>
				<stop  offset="7.406294e-02" style="stop-color:#B3B3B3;stop-opacity:0.3176"/>
				<stop  offset="1" style="stop-color:#B3B3B3;stop-opacity:0.1"/>
			</linearGradient>
			<polygon class="st19" points="110,65.1 120,59.3 120,47.9 110,53.7 			"/>
			
				<linearGradient id="SVGID_10_" gradientUnits="userSpaceOnUse" x1="-2638.0417" y1="51.349" x2="-2628.0427" y2="51.349" gradientTransform="matrix(-1 0 0 1 -2518.0286 0)">
				<stop  offset="0" style="stop-color:#B3B3B3;stop-opacity:0.7896"/>
				<stop  offset="1" style="stop-color:#B3B3B3;stop-opacity:0.335"/>
			</linearGradient>
			<polygon class="st20" points="110,54.8 120,49 120,47.9 110,53.7 			"/>
			<polygon class="st3" points="110,53.8 120,48 116.3,45.7 106.3,51.5 			"/>
			<polygon class="st21" points="110,53.8 110,65.1 106.3,62.8 106.3,51.5 			"/>
			
				<linearGradient id="SVGID_11_" gradientUnits="userSpaceOnUse" x1="-2628.0427" y1="53.1201" x2="-2624.2942" y2="53.1201" gradientTransform="matrix(-1 0 0 1 -2518.0286 0)">
				<stop  offset="0" style="stop-color:#B3B3B3;stop-opacity:0.7896"/>
				<stop  offset="1" style="stop-color:#B3B3B3;stop-opacity:0.335"/>
			</linearGradient>
			<polygon class="st22" points="110,53.8 110,54.8 106.3,52.5 106.3,51.5 			"/>
		</g>
		<g>
			<polygon class="st21" points="59.6,48 49.6,42.2 49.6,34.8 59.6,40.6 			"/>
			<polygon class="st5" points="59.6,41.5 49.6,35.7 49.6,34.8 59.6,40.6 			"/>
			<polygon class="st3" points="59.6,40.6 49.6,34.9 57.4,30.2 67.4,36 			"/>
			<polygon class="st3" points="59.6,40.6 59.6,48 67.4,43.3 67.4,36 			"/>
			<linearGradient id="SVGID_12_" gradientUnits="userSpaceOnUse" x1="59.55" y1="41.9652" x2="67.3659" y2="41.9652">
				<stop  offset="0" style="stop-color:#B3B3B3;stop-opacity:0.335"/>
				<stop  offset="7.406294e-02" style="stop-color:#B3B3B3;stop-opacity:0.3176"/>
				<stop  offset="1" style="stop-color:#B3B3B3;stop-opacity:0.1"/>
			</linearGradient>
			<polygon class="st23" points="59.6,40.6 59.6,48 67.4,43.3 67.4,36 			"/>
			<polygon class="st5" points="59.6,40.6 59.6,41.5 67.4,36.8 67.4,36 			"/>
		</g>
	</g>
	<g>
		<path class="st2" d="M91.5,84.2l-2.7,0.4L87.7,84l-1.5,0.6L84.9,84l-1.2-1l0.3-1l-2.8-0.5l0.7-1.1l1.2-0.1l0.1-1.4l2.2-0.6
			l0.7,0.5l1.4-0.2l1.1-1.2l1.8,0.2l0.4,0.6l1.6-0.2l1.6,1.5l-0.4,0.6l1.8-0.1l1,1l-1.5,0.3l0,1l-1.6,0.5L91.5,84.2z"/>
		<g>
			<polygon class="st24" points="92.3,82.8 93,66.7 93.2,82.9 			"/>
			<polygon class="st24" points="92.4,79 90.5,73.9 93,78.7 			"/>
			<polygon class="st25" points="88.3,74.7 86.6,72.4 87.3,71.1 85.7,70 86.5,68.4 88,66.6 90,66.2 90.1,63.2 92.4,63.2 93,64.3 
				95.7,63.5 97.5,65.3 96.8,66.2 97.6,67.4 100.2,67.7 100.3,69.6 99.2,70.4 100.2,71.8 97.9,74.2 96.6,74.2 97.3,75.8 95.7,77.4 
				94.6,76.2 92.7,76.9 91.2,75.7 			"/>
			<g>
				<polygon class="st25" points="92.6,65.5 91.4,64.3 91.8,63.2 90.1,63.2 90,66.2 92.2,66.9 				"/>
				<polygon class="st0" points="93.1,73.9 91.2,74.5 91,73.1 89.3,72.7 89.2,71.2 91.5,71.3 92,70.4 91.4,68.5 90.3,69.2 
					89.2,68.1 90,66.2 88,66.6 86.5,68.4 85.7,70 87.3,71.1 86.6,72.4 88.3,74.7 91.2,75.7 92.7,76.9 94.6,76.2 95.7,77.4 
					95.2,74.9 				"/>
			</g>
		</g>
	</g>
	<g>
		<g>
			<path class="st2" d="M29.5,48.4l-2.4,0.4l-0.9-0.5l-1.4,0.5l-1.1-0.6l-1.1-0.9l0.2-0.9L20.3,46l0.7-1l1.1-0.1l0.1-1.3l2-0.5
				l0.6,0.4l1.3-0.2l1-1l1.6,0.2l0.4,0.6l1.4-0.2l1.4,1.3l-0.3,0.5l1.6-0.1l0.9,0.9l-1.3,0.3l0,0.9l-1.4,0.5L29.5,48.4z"/>
			<g>
				<polygon class="st24" points="30.2,47.1 30.9,32.9 31,47.2 				"/>
				<polygon class="st24" points="30.3,43.8 28.6,39.2 30.8,43.6 				"/>
				<polygon class="st25" points="26.6,40 25.2,37.9 25.8,36.7 24.3,35.8 25.1,34.3 26.4,32.8 28.2,32.4 28.3,29.8 30.3,29.8 
					30.8,30.7 33.2,30 34.8,31.6 34.2,32.4 34.9,33.5 37.2,33.7 37.3,35.4 36.4,36.1 37.2,37.3 35.2,39.5 34.1,39.5 34.7,41 
					33.2,42.4 32.3,41.3 30.6,41.9 29.3,40.8 				"/>
				<g>
					<polygon class="st25" points="30.5,31.8 29.4,30.7 29.8,29.8 28.3,29.8 28.2,32.4 30.1,33 					"/>
					<polygon class="st0" points="30.9,39.3 29.3,39.8 29,38.5 27.6,38.2 27.5,36.9 29.5,37 30,36.1 29.4,34.5 28.4,35.1 27.5,34.1 
						28.2,32.4 26.4,32.8 25.1,34.3 24.3,35.8 25.8,36.7 25.2,37.9 26.6,40 29.3,40.8 30.6,41.9 32.3,41.3 33.2,42.4 32.7,40.1 
											"/>
				</g>
			</g>
		</g>
		<g>
			<g>
				<polygon class="st25" points="26.5,34.7 25.4,33.2 25.9,32.3 24.8,31.5 25.4,30.4 26.4,29.3 27.7,29 27.8,27 29.3,27 29.7,27.7 
					31.5,27.2 32.7,28.4 32.3,29 32.8,29.8 34.5,30 34.6,31.3 33.9,31.8 34.5,32.7 33,34.3 32.2,34.3 32.6,35.4 31.5,36.5 
					30.8,35.7 29.5,36.2 28.5,35.3 				"/>
				<g>
					<polyline class="st0" points="27.7,29 29.2,29.4 29.4,28.5 28.6,27.7 28.9,27 27.8,27 					"/>
					<polygon class="st0" points="29.8,34.2 28.5,34.5 28.4,33.6 27.3,33.3 27.2,32.3 28.7,32.4 29.1,31.8 28.6,30.5 27.9,31 
						27.2,30.3 27.7,29 26.4,29.3 25.4,30.4 24.8,31.5 25.9,32.3 25.4,33.2 26.5,34.7 28.5,35.3 29.5,36.2 30.8,35.7 31.5,36.5 
						31.2,34.8 					"/>
				</g>
			</g>
		</g>
		<g>
			<g>
				<polygon class="st25" points="27.9,26.3 27.8,27.8 28.5,28.2 28.1,29.1 28.9,29.6 30,30 31,29.6 31.9,30.9 32.8,30.3 32.7,29.7 
					34.1,29.3 34.3,28.1 33.7,27.8 33.7,27.1 34.7,26.3 34.2,25.4 33.6,25.4 33.6,24.5 32,24.1 31.5,24.4 31.3,23.5 30.2,23.2 
					30.1,24 29.1,24.2 28.8,25.1 				"/>
				<g>
					<polygon class="st0" points="30.1,25.4 29.2,25.7 29.4,26.3 28.9,26.9 29.2,27.6 30.1,27 30.6,27.2 30.9,28.2 30.2,28.2 
						30.1,29 31,29.6 30,30 28.9,29.6 28.1,29.1 28.5,28.2 27.8,27.8 27.9,26.3 28.8,25.1 29.1,24.2 30.1,24 30.2,23.2 30.7,24.5 
											"/>
				</g>
			</g>
		</g>
	</g>
</g>
</svg>
