<?xml version="1.0" encoding="utf-8"?>
<!-- Generator: Adobe Illustrator 21.1.0, SVG Export Plug-In . SVG Version: 6.00 Build 0)  -->
<svg version="1.1" id="Слой_1" xmlns="http://www.w3.org/2000/svg" xmlns:xlink="http://www.w3.org/1999/xlink" x="0px" y="0px"
	 viewBox="0 0 183 109" style="enable-background:new 0 0 183 109;" xml:space="preserve">
<style type="text/css">
	.st0{fill:#346F2E;}
	.st1{fill:#A48A42;}
	.st2{fill:#D1D1CD;}
	.st3{fill:#A19C95;}
	.st4{fill:#FFFFFF;}
	.st5{fill:url(#SVGID_1_);}
	.st6{fill:url(#SVGID_2_);}
	.st7{fill:#4F4F4F;}
	.st8{fill:#707070;}
	.st9{fill:url(#SVGID_3_);}
	.st10{fill:url(#SVGID_4_);stroke:#FFFFFF;stroke-miterlimit:10;}
	.st11{fill:url(#SVGID_5_);}
	.st12{fill:url(#SVGID_6_);stroke:#FFFFFF;stroke-miterlimit:10;}
	.st13{fill:url(#SVGID_7_);}
	.st14{fill:url(#SVGID_8_);}
	.st15{fill:url(#SVGID_9_);}
	.st16{fill:url(#SVGID_10_);}
	.st17{fill:url(#SVGID_11_);}
	.st18{fill:url(#SVGID_12_);}
	.st19{fill:none;stroke:#9F9A93;stroke-width:0.25;stroke-linecap:round;stroke-miterlimit:10;}
	.st20{fill:url(#SVGID_13_);}
	.st21{fill:url(#SVGID_14_);stroke:#FFFFFF;stroke-miterlimit:10;}
	.st22{fill:url(#SVGID_15_);}
	.st23{fill:#E4E4E4;}
	.st24{fill:#A8A8A8;}
	.st25{fill:#8F8F8F;}
	.st26{fill:#57352F;}
	.st27{fill:#568E48;}
</style>
<g>
	<g>
		<path class="st0" d="M115.8,5.8l62.8,36.3c6.2,3.6,5.4,9.8-1.7,14l-84.9,49c-7.2,4.1-18,4.6-24.2,1L5,69.8
			c-6.2-3.6-5.4-9.8,1.7-14l84.9-49C98.7,2.7,109.6,2.2,115.8,5.8z"/>
		<path class="st1" d="M178.6,42.1L115.8,5.8c-6.2-3.6-17-3.1-24.2,1L32.4,41v44.6l35.4,20.4c6.2,3.6,17,3.1,24.2-1l84.9-49
			C184,51.9,184.8,45.7,178.6,42.1z"/>
		<path class="st2" d="M115.8,2.8l62.8,36.3c6.2,3.6,5.4,9.8-1.7,14L92,102c-7.2,4.1-18,4.6-24.2,1L5,66.8c-6.2-3.6-5.4-9.8,1.7-14
			l84.9-49C98.7-0.3,109.6-0.8,115.8,2.8z"/>
	</g>
	<g>
		<g>
			<path class="st3" d="M111.8,25.8c-0.4,0-0.8,0.1-1.2,0.3L90.8,37.6L86,34.8c-0.4-0.2-0.8-0.3-1.2-0.3c-0.4,0-0.8,0.1-1.2,0.3
				L48.7,54.9c-0.8,0.4-1.2,1.2-1.2,2.1s0.5,1.7,1.2,2.1l0.9,0.5l-7.9,4.6c-0.8,0.4-1.2,1.2-1.2,2.1c0,0.9,0.5,1.7,1.2,2.1l0.2,0.1
				l-4.7,2.7c-0.7,0.4-1.2,1.2-1.2,2.1c0,0.9,0.5,1.7,1.2,2.1L50,82.9c0.4,0.2,0.8,0.3,1.2,0.3c0.4,0,0.9-0.1,1.2-0.3l7.1-4.2
				l2.4,1.4c0.4,0.2,0.8,0.3,1.2,0.3c0.4,0,0.8-0.1,1.2-0.3l10.3-6l3.3,1.9c0.4,0.2,0.8,0.3,1.2,0.3c0.4,0,0.8-0.1,1.2-0.3L115.3,56
				c0.8-0.4,1.2-1.2,1.2-2.1s-0.5-1.7-1.2-2.1l-2.4-1.4l17.4-10c0.8-0.4,1.2-1.2,1.2-2.1s-0.5-1.7-1.2-2.1l-17.3-10
				C112.7,25.9,112.2,25.8,111.8,25.8L111.8,25.8z"/>
			<g>
				<polygon class="st4" points="129.1,19.5 129.1,38.2 108.1,50.4 108.1,31.7 				"/>
				
					<linearGradient id="SVGID_1_" gradientUnits="userSpaceOnUse" x1="-23.8188" y1="34.9547" x2="-2.796" y2="34.9547" gradientTransform="matrix(1 0 0 1 131.8788 0)">
					<stop  offset="0" style="stop-color:#B1B1B1;stop-opacity:0.335"/>
					<stop  offset="7.406294e-02" style="stop-color:#B1B1B1;stop-opacity:0.3176"/>
					<stop  offset="1" style="stop-color:#B1B1B1;stop-opacity:0.1"/>
				</linearGradient>
				<polygon class="st5" points="129.1,19.5 129.1,38.2 108.1,50.4 108.1,31.7 				"/>
				<polygon class="st4" points="63.2,59.3 63.2,78 74.7,71.3 74.7,52.6 				"/>
			</g>
			<g>
				<polygon class="st4" points="49.9,38.3 49.9,57.1 54.5,59.6 54.5,41 				"/>
				
					<linearGradient id="SVGID_2_" gradientUnits="userSpaceOnUse" x1="-34.6853" y1="37.8214" x2="-93.7432" y2="52.484" gradientTransform="matrix(1 0 0 1 131.8788 0)">
					<stop  offset="0" style="stop-color:#B1B1B1;stop-opacity:0.7896"/>
					<stop  offset="1" style="stop-color:#B1B1B1;stop-opacity:0.335"/>
				</linearGradient>
				<polygon class="st6" points="49.9,38.3 49.9,57.1 54.5,59.6 54.5,41 				"/>
				<polygon class="st4" points="74.7,52.6 74.7,71.3 79.3,73.9 79.3,55.3 				"/>
			</g>
			<polygon class="st4" points="114.1,53.8 114.1,35.2 79.3,55.3 79.3,73.9 			"/>
			<polygon class="st4" points="42.9,47.6 42.9,66.3 63.2,78 63.2,59.3 			"/>
			<g>
				<polygon class="st7" points="49.9,40 54.5,42.6 42.9,47.6 42.9,49.3 63.2,60.9 74.7,54.3 79.3,56.9 114.1,36.8 114.1,35.2 
					108.1,33.3 129.1,21.2 129.1,19.5 49.9,38.3 				"/>
			</g>
			<g>
				<polygon class="st7" points="49.9,38.3 54.5,41 42.9,47.6 63.2,59.3 74.7,52.6 79.3,55.3 114.1,35.2 108.1,31.7 129.1,19.5 
					111.8,9.6 90.8,21.7 84.8,18.2 				"/>
			</g>
			<g>
				<path class="st8" d="M111.8,12.4l12.4,7.2l-17.4,10l-3.7,2.1l3.7,2.1l2.4,1.4L79.3,52.4l-3.3-1.9l-1.2-0.7l-1.2,0.7l-10.3,6
					l-15.3-8.9l7.9-4.6l3.7-2.1l-3.7-2.1l-0.9-0.5L84.8,21l4.8,2.8l1.2,0.7l1.2-0.7L111.8,12.4 M111.8,9.6l-21,12.1l-6-3.5
					L49.9,38.3l4.6,2.6l-11.6,6.7l20.2,11.7l11.6-6.7l4.6,2.6l34.8-20.1l-6-3.5l21-12.1L111.8,9.6L111.8,9.6z"/>
			</g>
			<g>
				<path class="st4" d="M62.4,31.4v7c0,5.4,7.5,9.7,16.8,9.7c9.3,0,16.8-4.3,16.8-9.7v-7H62.4z"/>
				
					<linearGradient id="SVGID_3_" gradientUnits="userSpaceOnUse" x1="-69.4307" y1="39.739" x2="-35.7863" y2="39.739" gradientTransform="matrix(1 0 0 1 131.8788 0)">
					<stop  offset="0.1166" style="stop-color:#B1B1B1"/>
					<stop  offset="0.1657" style="stop-color:#B1B1B1;stop-opacity:0.9259"/>
					<stop  offset="0.7801" style="stop-color:#B1B1B1;stop-opacity:0"/>
				</linearGradient>
				<path class="st9" d="M62.4,31.4v7c0,5.4,7.5,9.7,16.8,9.7c9.3,0,16.8-4.3,16.8-9.7v-7H62.4z"/>
				<ellipse class="st4" cx="79.3" cy="31.4" rx="16.8" ry="9.7"/>
				
					<linearGradient id="SVGID_4_" gradientUnits="userSpaceOnUse" x1="-38.3358" y1="27.2355" x2="-71.0975" y2="36.7121" gradientTransform="matrix(1 0 0 1 131.8788 0)">
					<stop  offset="0.5021" style="stop-color:#B1B1B1"/>
					<stop  offset="1" style="stop-color:#707070"/>
				</linearGradient>
				<ellipse class="st10" cx="79.3" cy="31.4" rx="16.8" ry="9.7"/>
				<path class="st4" d="M79.3,21.3c-7.3,0-13.3,5.9-13.3,10.1c0,4.2,6,7.7,13.3,7.7c7.3,0,13.3-3.4,13.3-7.7
					C92.6,27.1,86.6,21.3,79.3,21.3z"/>
				
					<linearGradient id="SVGID_5_" gradientUnits="userSpaceOnUse" x1="-65.902" y1="30.1455" x2="-39.315" y2="30.1455" gradientTransform="matrix(1 0 0 1 131.8788 0)">
					<stop  offset="0.1166" style="stop-color:#B1B1B1"/>
					<stop  offset="0.1657" style="stop-color:#B1B1B1;stop-opacity:0.9259"/>
					<stop  offset="0.7801" style="stop-color:#B1B1B1;stop-opacity:0"/>
				</linearGradient>
				<path class="st11" d="M79.3,21.3c-7.3,0-13.3,5.9-13.3,10.1c0,4.2,6,7.7,13.3,7.7c7.3,0,13.3-3.4,13.3-7.7
					C92.6,27.1,86.6,21.3,79.3,21.3z"/>
			</g>
			<g>
				
					<linearGradient id="SVGID_6_" gradientUnits="userSpaceOnUse" x1="-47.6287" y1="23.4334" x2="-59.0593" y2="26.7398" gradientTransform="matrix(1 0 0 1 131.8788 0)">
					<stop  offset="0.5021" style="stop-color:#B1B1B1"/>
					<stop  offset="1" style="stop-color:#707070"/>
				</linearGradient>
				<ellipse class="st12" cx="79.3" cy="24.9" rx="5.9" ry="3.7"/>
			</g>
			<g>
				
					<linearGradient id="SVGID_7_" gradientUnits="userSpaceOnUse" x1="-24.968" y1="55.8624" x2="-83.9786" y2="70.5133" gradientTransform="matrix(1 0 0 1 131.8788 0)">
					<stop  offset="0" style="stop-color:#B1B1B1;stop-opacity:0.7896"/>
					<stop  offset="1" style="stop-color:#B1B1B1;stop-opacity:0.335"/>
				</linearGradient>
				<polygon class="st13" points="74.7,52.6 74.7,71.3 79.3,73.9 79.3,55.3 				"/>
			</g>
			
				<linearGradient id="SVGID_8_" gradientUnits="userSpaceOnUse" x1="-52.6081" y1="54.5542" x2="-17.7912" y2="54.5542" gradientTransform="matrix(1 0 0 1 131.8788 0)">
				<stop  offset="0" style="stop-color:#B1B1B1;stop-opacity:0.335"/>
				<stop  offset="7.406294e-02" style="stop-color:#B1B1B1;stop-opacity:0.3176"/>
				<stop  offset="1" style="stop-color:#B1B1B1;stop-opacity:0.1"/>
			</linearGradient>
			<polygon class="st14" points="114.1,53.8 114.1,35.2 79.3,55.3 79.3,73.9 			"/>
			
				<linearGradient id="SVGID_9_" gradientUnits="userSpaceOnUse" x1="-49.6214" y1="42.5968" x2="-119.8897" y2="91.2282" gradientTransform="matrix(1 0 0 1 131.8788 0)">
				<stop  offset="0" style="stop-color:#B1B1B1;stop-opacity:0.7896"/>
				<stop  offset="1" style="stop-color:#B1B1B1;stop-opacity:0.335"/>
			</linearGradient>
			<polygon class="st15" points="42.9,47.6 42.9,66.3 63.2,78 63.2,59.3 			"/>
			<g>
				
					<linearGradient id="SVGID_10_" gradientUnits="userSpaceOnUse" x1="-68.7215" y1="65.3121" x2="-57.1628" y2="65.3121" gradientTransform="matrix(1 0 0 1 131.8788 0)">
					<stop  offset="0" style="stop-color:#B1B1B1;stop-opacity:0.335"/>
					<stop  offset="7.406294e-02" style="stop-color:#B1B1B1;stop-opacity:0.3176"/>
					<stop  offset="1" style="stop-color:#B1B1B1;stop-opacity:0.1"/>
				</linearGradient>
				<polygon class="st16" points="63.2,59.3 63.2,78 74.7,71.3 74.7,52.6 				"/>
			</g>
			<g>
				<g>
					<g>
						<g>
							<g>
								<g>
									<polygon class="st4" points="59.1,67.8 46.4,60.5 38.5,65 38.5,73.4 51.2,80.7 59.1,76.1 									"/>
									<polygon class="st8" points="59.1,67.8 46.4,60.5 38.5,65 38.5,65.7 51.2,73.1 59.1,68.5 									"/>
									<polygon class="st7" points="41.4,65 46.4,62.2 56.2,67.8 51.2,70.7 									"/>
								</g>
								
									<linearGradient id="SVGID_11_" gradientUnits="userSpaceOnUse" x1="-3578.8911" y1="79.8195" x2="-3582.1672" y2="56.6812" gradientTransform="matrix(1 0 0 1 3624.7727 0)">
									<stop  offset="0" style="stop-color:#B1B1B1;stop-opacity:0.7896"/>
									<stop  offset="1" style="stop-color:#B1B1B1;stop-opacity:0.335"/>
								</linearGradient>
								<path class="st17" d="M38.5,73.4v-8.3l12.8,7.5v8.2"/>
								
									<linearGradient id="SVGID_12_" gradientUnits="userSpaceOnUse" x1="4201.1768" y1="72.0547" x2="4195.542" y2="76.1649" gradientTransform="matrix(-1 0 0 1 4253.2451 0)">
									<stop  offset="0" style="stop-color:#B1B1B1;stop-opacity:0.335"/>
									<stop  offset="7.406294e-02" style="stop-color:#B1B1B1;stop-opacity:0.3176"/>
									<stop  offset="1" style="stop-color:#B1B1B1;stop-opacity:0.1"/>
								</linearGradient>
								<path class="st18" d="M51.2,80.8v-8.2l8-4.7v8.2"/>
							</g>
						</g>
						<g>
							<line class="st19" x1="56.2" y1="67.9" x2="57.4" y2="68.6"/>
							<line class="st19" x1="54.5" y1="68.9" x2="55.8" y2="69.6"/>
							<line class="st19" x1="52.9" y1="69.9" x2="54.2" y2="70.6"/>
							<line class="st19" x1="51.3" y1="70.9" x2="52.5" y2="71.6"/>
						</g>
						<g>
							<line class="st19" x1="45" y1="61.2" x2="46.3" y2="62"/>
							<line class="st19" x1="43.3" y1="62.2" x2="44.7" y2="63"/>
							<line class="st19" x1="41.7" y1="63.2" x2="43.1" y2="64"/>
							<line class="st19" x1="40.1" y1="64.3" x2="41.4" y2="65"/>
						</g>
					</g>
				</g>
			</g>
			<path class="st4" d="M75,21v3.8c0,1.4,1.9,2.5,4.3,2.5c2.4,0,4.3-1.1,4.3-2.5V21H75z"/>
			
				<linearGradient id="SVGID_13_" gradientUnits="userSpaceOnUse" x1="-56.8648" y1="24.1899" x2="-48.3523" y2="24.1899" gradientTransform="matrix(1 0 0 1 131.8788 0)">
				<stop  offset="0.1166" style="stop-color:#B1B1B1"/>
				<stop  offset="0.1657" style="stop-color:#B1B1B1;stop-opacity:0.9259"/>
				<stop  offset="0.7801" style="stop-color:#B1B1B1;stop-opacity:0"/>
			</linearGradient>
			<path class="st20" d="M75,21v3.8c0,1.4,1.9,2.5,4.3,2.5c2.4,0,4.3-1.1,4.3-2.5V21H75z"/>
			
				<linearGradient id="SVGID_14_" gradientUnits="userSpaceOnUse" x1="-48.9973" y1="20.004" x2="-57.2865" y2="22.4017" gradientTransform="matrix(1 0 0 1 131.8788 0)">
				<stop  offset="0.5021" style="stop-color:#B1B1B1"/>
				<stop  offset="1" style="stop-color:#707070"/>
			</linearGradient>
			<ellipse class="st21" cx="79.3" cy="21" rx="4.3" ry="2.5"/>
		</g>
		<g>
			<ellipse class="st3" cx="81.3" cy="85.1" rx="5.8" ry="4"/>
			<g>
				<g>
					
						<linearGradient id="SVGID_15_" gradientUnits="userSpaceOnUse" x1="-96.8753" y1="66.0431" x2="-92.6365" y2="66.0431" gradientTransform="matrix(1 0 0 1 176.0939 0)">
						<stop  offset="0" style="stop-color:#B1B1B1"/>
						<stop  offset="0.4969" style="stop-color:#E6E6E6"/>
						<stop  offset="0.7801" style="stop-color:#FFFFFF"/>
					</linearGradient>
					<path class="st22" d="M83.6,45.3h-4.5l-0.9,39.8c0,0.9,1.4,1.7,3.2,1.7c1.8,0,3.2-0.8,3.2-1.7L83.6,45.3z"/>
					<path class="st8" d="M81.3,57.9c-1.2,0-2.2-0.4-2.5-1l-0.1,4.1c0,0.8,1.2,1.4,2.6,1.4c1.4,0,2.6-0.6,2.6-1.4l-0.1-4.1
						C83.5,57.5,82.5,57.9,81.3,57.9z"/>
					<path class="st8" d="M81.3,50.4c-1.1,0-2-0.4-2.3-1l-0.1,3.8c0,0.7,1.1,1.3,2.4,1.3c1.3,0,2.4-0.6,2.4-1.3l-0.1-3.8
						C83.4,50,82.4,50.4,81.3,50.4z"/>
					<ellipse class="st23" cx="81.3" cy="45.3" rx="2.3" ry="1.2"/>
					<ellipse class="st24" cx="81.3" cy="45.3" rx="1.7" ry="0.9"/>
				</g>
				<g>
					<g>
						<path class="st25" d="M78.2,83c0,0.9,1.4,1.7,3.1,1.7c1.7,0,3.1-0.8,3.1-1.7l0-0.2c-0.1,0.9-1.5,1.6-3.1,1.6
							c-1.7,0-3-0.7-3.1-1.6L78.2,83z"/>
					</g>
				</g>
				<g>
					<g>
						<path class="st25" d="M78.4,74.9c0,0.9,1.3,1.6,2.9,1.6c1.6,0,2.9-0.7,2.9-1.6l0-0.2c-0.1,0.8-1.4,1.5-2.9,1.5
							c-1.6,0-2.9-0.7-2.9-1.5L78.4,74.9z"/>
					</g>
				</g>
				<g>
					<g>
						<path class="st25" d="M78.6,65.4c0,0.8,1.2,1.5,2.7,1.5c1.5,0,2.7-0.7,2.7-1.5l0-0.2c-0.1,0.8-1.3,1.4-2.7,1.4
							c-1.5,0-2.6-0.6-2.7-1.4L78.6,65.4z"/>
					</g>
				</g>
				<g>
					<g>
						<path class="st25" d="M78.8,56.7c0,0.8,1.1,1.4,2.5,1.4c1.4,0,2.5-0.6,2.5-1.4l0-0.2c-0.1,0.7-1.2,1.3-2.5,1.3
							c-1.3,0-2.4-0.6-2.5-1.3L78.8,56.7z"/>
					</g>
				</g>
			</g>
		</g>
	</g>
	<g>
		<g>
			<path class="st3" d="M102.6,79.2l1.4-0.5l0-0.9l1.3-0.3l-0.9-0.9l-1.6,0.1l0.3-0.5l-1.4-1.3l-1.4,0.2l-0.4-0.6l-1.6-0.2l-1,1
				l-1.3,0.2l-0.6-0.4l-2,0.5l-0.1,1.3l-1.1,0.1l-0.7,1l2.5,0.5L94,79.3l1.1,0.9l1.1,0.6l1.4-0.5l0.9,0.5l2.4-0.4L102.6,79.2z"/>
			<g>
				<polygon class="st26" points="101.6,79 102.3,64.8 102.5,79.1 				"/>
				<polygon class="st26" points="101.8,75.7 100.1,71.1 102.3,75.5 				"/>
				<polygon class="st27" points="98.1,71.9 96.6,69.8 97.2,68.6 95.8,67.7 96.5,66.2 97.8,64.7 99.7,64.3 99.8,61.7 101.8,61.7 
					102.3,62.6 104.7,61.9 106.3,63.5 105.7,64.3 106.4,65.4 108.7,65.6 108.8,67.3 107.8,68 108.7,69.2 106.6,71.4 105.5,71.4 
					106.1,72.9 104.7,74.3 103.7,73.2 102.1,73.8 100.7,72.7 				"/>
				<g>
					<polygon class="st27" points="101.9,63.7 100.9,62.6 101.2,61.7 99.8,61.7 99.7,64.3 101.6,64.9 					"/>
					<polygon class="st0" points="102.4,71.2 100.7,71.6 100.5,70.4 99,70.1 98.9,68.8 101,68.9 101.5,68 100.9,66.4 99.9,67 
						98.9,66 99.7,64.3 97.8,64.7 96.5,66.2 95.8,67.7 97.2,68.6 96.6,69.8 98.1,71.9 100.7,72.7 102.1,73.8 103.7,73.2 104.7,74.3 
						104.2,72 					"/>
				</g>
			</g>
		</g>
		<g>
			<g>
				<polygon class="st27" points="98,66.6 96.9,65.1 97.4,64.2 96.3,63.4 96.8,62.3 97.8,61.2 99.2,60.9 99.3,58.9 100.8,58.9 
					101.2,59.6 103,59.1 104.2,60.3 103.7,60.9 104.3,61.7 106,61.9 106.1,63.2 105.4,63.7 106,64.6 104.5,66.2 103.6,66.2 
					104.1,67.3 103,68.4 102.3,67.6 101,68.1 100,67.2 				"/>
				<g>
					<polyline class="st0" points="99.2,60.9 100.6,61.3 100.9,60.4 100.1,59.6 100.4,58.9 99.3,58.9 					"/>
					<polygon class="st0" points="101.3,66.1 100,66.4 99.8,65.5 98.7,65.2 98.6,64.2 100.2,64.3 100.5,63.7 100.1,62.4 99.4,62.9 
						98.6,62.2 99.2,60.9 97.8,61.2 96.8,62.3 96.3,63.4 97.4,64.2 96.9,65.1 98,66.6 100,67.2 101,68.1 102.3,67.6 103,68.4 
						102.6,66.7 					"/>
				</g>
			</g>
		</g>
		<g>
			<g>
				<polygon class="st27" points="99.3,58.2 99.3,59.7 100,60.1 99.6,61 100.4,61.5 101.5,61.9 102.4,61.5 103.3,62.8 104.3,62.2 
					104.2,61.6 105.5,61.2 105.8,60 105.2,59.7 105.2,59 106.2,58.2 105.7,57.3 105.1,57.3 105.1,56.4 103.4,56 102.9,56.3 
					102.8,55.4 101.6,55.1 101.5,55.9 100.6,56.1 100.3,57 				"/>
				<g>
					<polygon class="st0" points="101.6,57.3 100.6,57.6 100.9,58.2 100.4,58.8 100.7,59.5 101.6,58.9 102.1,59.1 102.4,60.1 
						101.7,60.1 101.6,60.9 102.4,61.5 101.5,61.9 100.4,61.5 99.6,61 100,60.1 99.3,59.7 99.3,58.2 100.3,57 100.6,56.1 
						101.5,55.9 101.6,55.1 102.1,56.4 					"/>
				</g>
			</g>
		</g>
	</g>
	<g>
		<g>
			<path class="st3" d="M28.4,70.7l1.4-0.5l0-0.9l1.3-0.3l-0.9-0.9l-1.6,0.1l0.3-0.5l-1.4-1.3l-1.4,0.2L25.8,66l-1.6-0.2l-1,1L22,67
				l-0.6-0.4l-2,0.5l-0.1,1.3l-1.1,0.1l-0.7,1l2.5,0.5l-0.2,0.9l1.1,0.9l1.1,0.6l1.4-0.5l0.9,0.5l2.4-0.4L28.4,70.7z"/>
			<g>
				<polygon class="st26" points="27.4,70.6 28.1,56.3 28.3,70.7 				"/>
				<polygon class="st26" points="27.5,67.3 25.8,62.7 28.1,67 				"/>
				<polygon class="st27" points="23.9,63.5 22.4,61.4 23,60.2 21.6,59.2 22.3,57.8 23.6,56.2 25.4,55.9 25.5,53.2 27.6,53.2 
					28.1,54.2 30.5,53.5 32,55 31.4,55.9 32.2,57 34.4,57.2 34.6,58.9 33.6,59.6 34.4,60.8 32.4,63 31.3,63 31.9,64.4 30.5,65.9 
					29.5,64.8 27.8,65.4 26.5,64.3 				"/>
				<g>
					<polygon class="st27" points="27.7,55.3 26.6,54.2 27,53.2 25.5,53.2 25.4,55.9 27.3,56.5 					"/>
					<polygon class="st0" points="28.2,62.7 26.5,63.2 26.3,62 24.8,61.7 24.7,60.3 26.7,60.5 27.2,59.6 26.6,57.9 25.7,58.5 
						24.7,57.6 25.4,55.9 23.6,56.2 22.3,57.8 21.6,59.2 23,60.2 22.4,61.4 23.9,63.5 26.5,64.3 27.8,65.4 29.5,64.8 30.5,65.9 
						30,63.6 					"/>
				</g>
			</g>
		</g>
		<g>
			<g>
				<polygon class="st27" points="23.8,58.2 22.7,56.6 23.1,55.7 22,55 22.6,53.9 23.6,52.7 25,52.5 25,50.5 26.6,50.5 27,51.2 
					28.8,50.6 29.9,51.8 29.5,52.5 30,53.3 31.8,53.5 31.9,54.7 31.1,55.3 31.8,56.2 30.2,57.8 29.4,57.8 29.9,58.9 28.8,60 
					28,59.2 26.8,59.6 25.8,58.8 				"/>
				<g>
					<polyline class="st0" points="25,52.5 26.4,52.9 26.7,52 25.9,51.2 26.1,50.5 25,50.5 					"/>
					<polygon class="st0" points="27,57.6 25.8,58 25.6,57.1 24.5,56.8 24.4,55.8 26,55.9 26.3,55.3 25.9,54 25.1,54.5 24.4,53.7 
						25,52.5 23.6,52.7 22.6,53.9 22,55 23.1,55.7 22.7,56.6 23.8,58.2 25.8,58.8 26.8,59.6 28,59.2 28.8,60 28.4,58.3 					"/>
				</g>
			</g>
		</g>
		<g>
			<g>
				<polygon class="st27" points="25.1,49.8 25.1,51.2 25.7,51.6 25.4,52.5 26.2,53 27.3,53.4 28.2,53.1 29.1,54.3 30,53.7 30,53.1 
					31.3,52.8 31.5,51.6 31,51.3 31,50.6 32,49.8 31.5,48.9 30.8,48.8 30.8,48 29.2,47.5 28.7,47.8 28.5,47 27.4,46.7 27.3,47.5 
					26.3,47.7 26.1,48.6 				"/>
				<g>
					<polygon class="st0" points="27.3,48.9 26.4,49.1 26.7,49.8 26.1,50.4 26.5,51.1 27.4,50.4 27.9,50.7 28.1,51.7 27.5,51.7 
						27.3,52.5 28.2,53.1 27.3,53.4 26.2,53 25.4,52.5 25.7,51.6 25.1,51.2 25.1,49.8 26.1,48.6 26.3,47.7 27.3,47.5 27.4,46.7 
						27.9,47.9 					"/>
				</g>
			</g>
		</g>
	</g>
	<g>
		<path class="st3" d="M144.1,62.7l1.6-0.5l0-1l1.5-0.3l-1-1l-1.8,0.1l0.4-0.6l-1.6-1.5l-1.6,0.2l-0.4-0.6l-1.8-0.2l-1.1,1.2
			l-1.4,0.2l-0.7-0.5l-2.2,0.6l-0.1,1.4l-1.2,0.1l-0.7,1.1l2.8,0.5l-0.3,1l1.2,1l1.3,0.6l1.5-0.6l1.1,0.5l2.7-0.4L144.1,62.7z"/>
		<g>
			<polygon class="st26" points="143,62.6 143.8,46.5 144,62.6 			"/>
			<polygon class="st26" points="143.1,58.8 141.2,53.6 143.7,58.5 			"/>
			<polygon class="st27" points="139,54.5 137.4,52.2 138,50.9 136.4,49.8 137.2,48.2 138.7,46.4 140.7,46 140.9,43 143.2,43 
				143.7,44.1 146.4,43.3 148.2,45 147.5,46 148.3,47.2 150.9,47.5 151,49.4 149.9,50.2 150.9,51.5 148.6,54 147.4,54 148,55.6 
				146.4,57.2 145.3,56 143.4,56.7 142,55.5 			"/>
			<g>
				<polygon class="st27" points="143.3,45.3 142.1,44.1 142.5,43 140.9,43 140.7,46 142.9,46.7 				"/>
				<polygon class="st0" points="143.9,53.7 142,54.2 141.7,52.9 140.1,52.5 139.9,51 142.2,51.1 142.8,50.2 142.1,48.3 141,49 
					139.9,47.9 140.7,46 138.7,46.4 137.2,48.2 136.4,49.8 138,50.9 137.4,52.2 139,54.5 142,55.5 143.4,56.7 145.3,56 146.4,57.2 
					145.9,54.6 				"/>
			</g>
		</g>
	</g>
	<g>
		<path class="st3" d="M147.2,35.8l1.6-0.5l0-1l1.5-0.3l-1-1l-1.8,0.1l0.4-0.6l-1.6-1.5l-1.6,0.2l-0.4-0.6l-1.8-0.2l-1.1,1.2
			l-1.4,0.2l-0.7-0.5l-2.2,0.6l-0.1,1.4l-1.2,0.1l-0.7,1.1l2.8,0.5l-0.3,1l1.2,1l1.3,0.6l1.5-0.6l1.1,0.5l2.7-0.4L147.2,35.8z"/>
		<g>
			<polygon class="st26" points="146.1,35.7 146.9,19.6 147.1,35.8 			"/>
			<polygon class="st26" points="146.3,31.9 144.4,26.7 146.9,31.6 			"/>
			<polygon class="st27" points="142.1,27.6 140.5,25.3 141.2,24 139.6,22.9 140.4,21.3 141.9,19.5 143.9,19.1 144,16.1 146.3,16.1 
				146.9,17.2 149.6,16.4 151.3,18.1 150.7,19.1 151.5,20.3 154,20.6 154.2,22.5 153.1,23.3 154,24.6 151.7,27.1 150.5,27.1 
				151.2,28.7 149.6,30.3 148.5,29.1 146.6,29.8 145.1,28.6 			"/>
			<g>
				<polygon class="st27" points="146.5,18.4 145.2,17.2 145.7,16.1 144,16.1 143.9,19.1 146.1,19.8 				"/>
				<polygon class="st0" points="147,26.8 145.1,27.3 144.8,26 143.2,25.6 143.1,24.1 145.4,24.2 145.9,23.3 145.2,21.4 144.2,22.1 
					143.1,21 143.9,19.1 141.9,19.5 140.4,21.3 139.6,22.9 141.2,24 140.5,25.3 142.1,27.6 145.1,28.6 146.6,29.8 148.5,29.1 
					149.6,30.3 149,27.8 				"/>
			</g>
		</g>
	</g>
</g>
</svg>
