<?xml version="1.0" encoding="utf-8"?>
<!-- Generator: Adobe Illustrator 21.1.0, SVG Export Plug-In . SVG Version: 6.00 Build 0)  -->
<svg version="1.1" id="Слой_1" xmlns="http://www.w3.org/2000/svg" xmlns:xlink="http://www.w3.org/1999/xlink" x="0px" y="0px"
	 viewBox="0 0 194 115" style="enable-background:new 0 0 194 115;" xml:space="preserve">
<style type="text/css">
	.st0{fill:#346F2E;}
	.st1{fill:#D1D1CD;}
	.st2{fill:#9D9D9D;}
	.st3{fill:#FFFFFF;}
	.st4{fill:#707070;}
	.st5{fill:url(#SVGID_1_);}
	.st6{fill:url(#SVGID_2_);}
	.st7{fill:url(#SVGID_3_);}
	.st8{fill:url(#SVGID_4_);}
	.st9{fill:url(#SVGID_5_);}
	.st10{fill:url(#SVGID_6_);}
	.st11{fill:url(#SVGID_7_);}
	.st12{fill:url(#SVGID_8_);}
	.st13{fill:url(#SVGID_9_);}
	.st14{fill:url(#SVGID_10_);}
	.st15{fill:url(#SVGID_11_);}
	.st16{fill:url(#SVGID_12_);}
	.st17{fill:url(#SVGID_13_);}
	.st18{fill:url(#SVGID_14_);}
	.st19{fill:url(#SVGID_15_);}
	.st20{fill:url(#SVGID_16_);}
	.st21{fill:url(#SVGID_17_);}
	.st22{fill:url(#SVGID_18_);}
	.st23{fill:#D1B56F;}
	.st24{fill:#A19C95;}
	.st25{fill:#57352F;}
	.st26{fill:#568E48;}
</style>
<g>
	<g>
		<path class="st0" d="M187.9,74.1l-66.2,37.3c-7.2,4.1-18,4.6-24.2,1l-92.1-54c-6.2-3.6-5.4-9.8,1.7-14L73.4,7.2
			c7.2-4.1,18-4.6,24.2-1l92.1,53.9C195.9,63.7,195.1,69.9,187.9,74.1z"/>
		<path class="st1" d="M187.9,71.1l-66.2,37.3c-7.2,4.1-18,4.6-24.2,1l-92.1-54c-6.2-3.6-5.4-9.8,1.7-14L73.4,4.2
			c7.2-4.1,18-4.6,24.2-1l92.1,53.9C195.9,60.7,195.1,66.9,187.9,71.1z"/>
	</g>
	<g>
		<path class="st2" d="M60.7,47.5l-1.2-2.1c-0.4-0.6-0.4-1.4-0.2-2.1c0.2-0.7,0.7-1.3,1.4-1.6l30-13.7c0.3-0.2,0.7-0.2,1.1-0.2
			c0.5,0,1,0.1,1.4,0.4L153.7,65c0.8,0.5,1.3,1.3,1.3,2.3s-0.5,1.8-1.3,2.3L134.5,81c-0.4,0.2-0.9,0.4-1.3,0.4
			c-0.6,0-1.1-0.2-1.6-0.6l0,0l-6.6,3.9c-0.4,0.2-0.9,0.4-1.3,0.4c-0.5,0-0.9-0.1-1.3-0.4l-20.1-11.8c-0.8-0.5-1.3-1.3-1.3-2.2
			c0-0.9,0.4-1.8,1.2-2.3l4-2.6L96,59.9l-5.3,2.9C90,62.9,89.6,63,89.2,63s-0.9-0.1-1.2-0.3l-7.4-4l-12.4,6.9c-3.5,2-7.9,2-11.4,0
			l-5-2.8c-1.5-0.9-1.6-3-0.1-4l8.3-5.2L60.7,47.5z"/>
		<g>
			<g>
				<g>
					<polygon class="st3" points="114.3,20.1 88.7,5.3 63,20.1 63,45 88.7,59.8 114.3,45 					"/>
					<polygon class="st4" points="114.3,20.1 88.7,5.3 63,20.1 63,21.4 88.7,36.3 114.3,21.4 					"/>
					<polygon class="st3" points="68.9,20.1 88.7,8.7 108.4,20.1 88.7,31.5 					"/>
					
						<linearGradient id="SVGID_1_" gradientUnits="userSpaceOnUse" x1="46.5231" y1="77.5865" x2="125.3504" y2="113.9346" gradientTransform="matrix(1 0 0 -1 0 116)">
						<stop  offset="0" style="stop-color:#B3B3B3;stop-opacity:0"/>
						<stop  offset="1" style="stop-color:#707070"/>
					</linearGradient>
					<polygon class="st5" points="108.4,20.1 88.7,8.6 88.7,8.6 88.7,8.6 88.6,8.6 88.6,8.6 68.9,20.1 70,20.8 88.7,10.1 
						107.3,20.8 					"/>
				</g>
				
					<linearGradient id="SVGID_2_" gradientUnits="userSpaceOnUse" x1="78.3067" y1="58.8527" x2="70.1748" y2="116.2842" gradientTransform="matrix(1 0 0 -1 0 116)">
					<stop  offset="0" style="stop-color:#B3B3B3;stop-opacity:0.7896"/>
					<stop  offset="1" style="stop-color:#B3B3B3;stop-opacity:0.335"/>
				</linearGradient>
				<path class="st6" d="M63,45V20.2l25.8,15.1V60"/>
				
					<linearGradient id="SVGID_3_" gradientUnits="userSpaceOnUse" x1="432.7647" y1="82.9926" x2="415.2153" y2="70.1919" gradientTransform="matrix(-1 0 0 -1 524.4724 116)">
					<stop  offset="0" style="stop-color:#B3B3B3;stop-opacity:0.335"/>
					<stop  offset="7.406294e-02" style="stop-color:#B3B3B3;stop-opacity:0.3176"/>
					<stop  offset="1" style="stop-color:#B3B3B3;stop-opacity:0.1"/>
				</linearGradient>
				<path class="st7" d="M88.6,60V35.3l25.8-15V45"/>
			</g>
			<g>
				<g>
					<g>
						<polygon class="st3" points="55,51.5 64.5,46.1 71.5,42 79.7,46.7 79.7,54.8 63.2,64.3 55,59.6 						"/>
						<polygon class="st3" points="76.7,46.7 71.5,43.7 58,51.5 63.2,54.6 						"/>
					</g>
					
						<linearGradient id="SVGID_4_" gradientUnits="userSpaceOnUse" x1="569.6572" y1="52.5738" x2="565.9164" y2="78.9926" gradientTransform="matrix(-1 0 0 -1 639.9061 116)">
						<stop  offset="0" style="stop-color:#B3B3B3;stop-opacity:0.335"/>
						<stop  offset="7.406294e-02" style="stop-color:#B3B3B3;stop-opacity:0.3176"/>
						<stop  offset="1" style="stop-color:#B3B3B3;stop-opacity:0.1"/>
					</linearGradient>
					<path class="st8" d="M63.1,64.4v-7.9l16.5-9.7v8"/>
					
						<linearGradient id="SVGID_5_" gradientUnits="userSpaceOnUse" x1="-53.1932" y1="60.3043" x2="-58.8316" y2="56.1916" gradientTransform="matrix(1 0 0 -1 115.4337 116)">
						<stop  offset="0" style="stop-color:#B3B3B3;stop-opacity:0.7896"/>
						<stop  offset="1" style="stop-color:#B3B3B3;stop-opacity:0.335"/>
					</linearGradient>
					<path class="st9" d="M55,59.6v-8l8.3,4.8v7.9"/>
				</g>
			</g>
			
				<linearGradient id="SVGID_6_" gradientUnits="userSpaceOnUse" x1="71.2711" y1="64.6574" x2="82.8336" y2="77.1094" gradientTransform="matrix(1 0 0 -1 0 116)">
				<stop  offset="0" style="stop-color:#9B9B9B;stop-opacity:0.3614"/>
				<stop  offset="1" style="stop-color:#8C8C8C;stop-opacity:0.5784"/>
			</linearGradient>
			<polygon class="st10" points="76.1,48.8 64.5,46.1 71.5,42 79.7,46.8 79.7,54.8 76.4,56.7 			"/>
		</g>
		<g>
			<g>
				<g>
					<polygon class="st3" points="149.4,52.3 112,30.5 95.5,40 95.5,56.2 132.9,78 149.4,68.5 					"/>
					<polygon class="st4" points="149.4,52.3 112,30.5 95.5,40 95.5,41.3 132.9,63.2 149.4,53.7 					"/>
					<polygon class="st3" points="101.4,40 112,33.9 143.5,52.3 132.9,58.4 					"/>
					
						<linearGradient id="SVGID_7_" gradientUnits="userSpaceOnUse" x1="99.1861" y1="72.55" x2="173.4423" y2="72.55" gradientTransform="matrix(1 0 0 -1 0 116)">
						<stop  offset="0" style="stop-color:#8B8B8B;stop-opacity:0.3"/>
						<stop  offset="0.4086" style="stop-color:#818181;stop-opacity:0.4226"/>
						<stop  offset="1" style="stop-color:#767676;stop-opacity:0.6"/>
					</linearGradient>
					<polygon class="st11" points="102.7,40.7 112,35.3 142.3,53 143.5,52.3 112,33.9 101.5,40 					"/>
				</g>
				
					<linearGradient id="SVGID_8_" gradientUnits="userSpaceOnUse" x1="116.704" y1="39.8215" x2="108.5764" y2="97.2229" gradientTransform="matrix(1 0 0 -1 0 116)">
					<stop  offset="0" style="stop-color:#B3B3B3;stop-opacity:0.7896"/>
					<stop  offset="1" style="stop-color:#B3B3B3;stop-opacity:0.335"/>
				</linearGradient>
				<path class="st12" d="M95.5,56.2V40.1l37.6,22.1v16"/>
				
					<linearGradient id="SVGID_9_" gradientUnits="userSpaceOnUse" x1="389.5617" y1="55.3376" x2="378.2322" y2="47.0736" gradientTransform="matrix(-1 0 0 -1 524.4724 116)">
					<stop  offset="0" style="stop-color:#B3B3B3;stop-opacity:0.335"/>
					<stop  offset="7.406294e-02" style="stop-color:#B3B3B3;stop-opacity:0.3176"/>
					<stop  offset="1" style="stop-color:#B3B3B3;stop-opacity:0.1"/>
				</linearGradient>
				<path class="st13" d="M132.9,78.1v-16l16.6-9.7v16"/>
			</g>
		</g>
		<g>
			<g>
				<g>
					<polygon class="st3" points="131.5,69.3 112.9,58.4 104.7,63.1 104.7,71.2 123.4,82.1 131.5,77.4 					"/>
					<polygon class="st3" points="107.7,63.1 112.9,60.1 128.6,69.3 123.4,72.3 					"/>
				</g>
				
					<linearGradient id="SVGID_10_" gradientUnits="userSpaceOnUse" x1="115.249" y1="34.8322" x2="111.2041" y2="63.399" gradientTransform="matrix(1 0 0 -1 0 116)">
					<stop  offset="0" style="stop-color:#B3B3B3;stop-opacity:0.7896"/>
					<stop  offset="1" style="stop-color:#B3B3B3;stop-opacity:0.335"/>
				</linearGradient>
				<path class="st14" d="M104.7,71.2v-8l18.7,11v7.9"/>
				
					<linearGradient id="SVGID_11_" gradientUnits="userSpaceOnUse" x1="400.1484" y1="42.5301" x2="394.51" y2="38.4175" gradientTransform="matrix(-1 0 0 -1 524.4724 116)">
					<stop  offset="0" style="stop-color:#B3B3B3;stop-opacity:0.335"/>
					<stop  offset="7.406294e-02" style="stop-color:#B3B3B3;stop-opacity:0.3176"/>
					<stop  offset="1" style="stop-color:#B3B3B3;stop-opacity:0.1"/>
				</linearGradient>
				<path class="st15" d="M123.3,82.1v-7.9l8.3-4.8v8"/>
			</g>
		</g>
		<g>
			<g>
				<g>
					<polygon class="st3" points="124.7,49.2 128.3,47.1 129.8,48 129.8,49.5 126.3,51.6 124.7,50.7 					"/>
				</g>
				
					<linearGradient id="SVGID_12_" gradientUnits="userSpaceOnUse" x1="378.4134" y1="64.6816" x2="377.6438" y2="70.1168" gradientTransform="matrix(-1 0 0 -1 506.2984 116)">
					<stop  offset="0" style="stop-color:#B3B3B3;stop-opacity:0.335"/>
					<stop  offset="7.406294e-02" style="stop-color:#B3B3B3;stop-opacity:0.3176"/>
					<stop  offset="1" style="stop-color:#B3B3B3;stop-opacity:0.1"/>
				</linearGradient>
				<path class="st16" d="M126.3,51.6v-1.5l3.6-2.1v1.5"/>
				
					<linearGradient id="SVGID_13_" gradientUnits="userSpaceOnUse" x1="144.4579" y1="66.1719" x2="141.3763" y2="63.9241" gradientTransform="matrix(1 0 0 -1 -18.1739 116)">
					<stop  offset="0" style="stop-color:#B3B3B3;stop-opacity:0.7896"/>
					<stop  offset="1" style="stop-color:#B3B3B3;stop-opacity:0.335"/>
				</linearGradient>
				<path class="st17" d="M124.7,50.7v-1.5l1.6,0.9v1.5"/>
			</g>
		</g>
		<g>
			<g>
				<g>
					<polygon class="st3" points="115.4,41.9 121.5,38.3 124.2,39.9 124.2,42.6 118.1,46.2 115.4,44.6 					"/>
				</g>
				
					<linearGradient id="SVGID_14_" gradientUnits="userSpaceOnUse" x1="385.5524" y1="70.3498" x2="384.2133" y2="79.8069" gradientTransform="matrix(-1 0 0 -1 506.2984 116)">
					<stop  offset="0" style="stop-color:#B3B3B3;stop-opacity:0.335"/>
					<stop  offset="7.406294e-02" style="stop-color:#B3B3B3;stop-opacity:0.3176"/>
					<stop  offset="1" style="stop-color:#B3B3B3;stop-opacity:0.1"/>
				</linearGradient>
				<path class="st18" d="M118,46.2v-2.6l6.2-3.6v2.7"/>
				
					<linearGradient id="SVGID_15_" gradientUnits="userSpaceOnUse" x1="136.2429" y1="72.935" x2="130.8808" y2="69.0239" gradientTransform="matrix(1 0 0 -1 -18.1739 116)">
					<stop  offset="0" style="stop-color:#B3B3B3;stop-opacity:0.7896"/>
					<stop  offset="1" style="stop-color:#B3B3B3;stop-opacity:0.335"/>
				</linearGradient>
				<path class="st19" d="M115.3,44.6V42l2.7,1.6v2.6"/>
			</g>
		</g>
		<g>
			<g>
				<g>
					<polygon class="st3" points="71.1,47.5 67.6,45.5 66.1,46.4 66.1,47.9 69.5,49.9 71.1,49 					"/>
				</g>
				
					<linearGradient id="SVGID_16_" gradientUnits="userSpaceOnUse" x1="68.0683" y1="66.2586" x2="67.3139" y2="71.5859" gradientTransform="matrix(1 0 0 -1 0 116)">
					<stop  offset="0" style="stop-color:#B3B3B3;stop-opacity:0.7896"/>
					<stop  offset="1" style="stop-color:#B3B3B3;stop-opacity:0.335"/>
				</linearGradient>
				<path class="st20" d="M66.1,47.9v-1.5l3.5,2.1V50"/>
				
					<linearGradient id="SVGID_17_" gradientUnits="userSpaceOnUse" x1="454.7569" y1="67.6898" x2="453.7054" y2="66.9229" gradientTransform="matrix(-1 0 0 -1 524.4724 116)">
					<stop  offset="0" style="stop-color:#B3B3B3;stop-opacity:0.335"/>
					<stop  offset="7.406294e-02" style="stop-color:#B3B3B3;stop-opacity:0.3176"/>
					<stop  offset="1" style="stop-color:#B3B3B3;stop-opacity:0.1"/>
				</linearGradient>
				<path class="st21" d="M69.5,49.9v-1.5l1.5-0.9V49"/>
			</g>
		</g>
		
			<linearGradient id="SVGID_18_" gradientUnits="userSpaceOnUse" x1="116.6419" y1="45.1121" x2="127.6245" y2="64.1615" gradientTransform="matrix(1 0 0 -1 0 116)">
			<stop  offset="0" style="stop-color:#B3B3B3;stop-opacity:0"/>
			<stop  offset="1" style="stop-color:#707070"/>
		</linearGradient>
		<polygon class="st22" points="119.2,66.7 131.6,69.4 112.9,58.4 108.3,60.9 		"/>
		<polygon class="st23" points="123.4,77.5 104.6,66.4 104.6,63.1 123.4,74.2 		"/>
		<polygon class="st23" points="132.9,66.5 95.5,44.6 95.5,41.2 132.9,63.2 		"/>
		<polygon class="st23" points="132.9,66.4 149.4,56.9 149.4,53.7 132.9,63.2 		"/>
	</g>
	<g>
		<path class="st24" d="M108.9,102.4l1.6-0.5v-1l1.5-0.3l-1-1l-1.8,0.1l0.4-0.6l-1.6-1.5l-1.6,0.2l-0.4-0.6l-1.8-0.2l-1.1,1.2
			l-1.4,0.2l-0.7-0.5l-2.2,0.6l-0.1,1.4l-1.2,0.1l-0.7,1.1l2.8,0.5l-0.3,1l1.2,1l1.3,0.6l1.5-0.6l1.1,0.5l2.7-0.4L108.9,102.4z"/>
		<g>
			<polygon class="st25" points="107.9,102.3 108.6,86.2 108.8,102.4 			"/>
			<polygon class="st25" points="108,98.5 106.1,93.4 108.6,98.2 			"/>
			<polygon class="st26" points="103.9,94.2 102.2,91.9 102.9,90.6 101.3,89.5 102.1,87.9 103.6,86.1 105.6,85.7 105.8,82.7 
				108.1,82.7 108.6,83.8 111.3,83 113.1,84.8 112.4,85.7 113.2,86.9 115.8,87.2 115.9,89.1 114.8,89.9 115.8,91.3 113.5,93.7 
				112.2,93.7 112.9,95.3 111.3,97 110.2,95.7 108.3,96.4 106.8,95.2 			"/>
			<g>
				<polygon class="st26" points="108.2,85 107,83.8 107.4,82.7 105.8,82.7 105.6,85.7 107.8,86.4 				"/>
				<polygon class="st0" points="108.7,93.4 106.8,94 106.6,92.6 104.9,92.2 104.8,90.7 107.1,90.9 107.6,89.9 107,88 105.9,88.7 
					104.8,87.6 105.6,85.7 103.6,86.1 102.1,87.9 101.3,89.5 102.9,90.6 102.2,91.9 103.9,94.2 106.8,95.2 108.3,96.4 110.2,95.7 
					111.3,97 110.8,94.4 				"/>
			</g>
		</g>
	</g>
	<g>
		<path class="st24" d="M155.1,81l1.6-0.5v-1l1.5-0.3l-1-1l-1.8,0.1l0.4-0.6l-1.6-1.5l-1.6,0.2l-0.4-0.6l-1.8-0.2l-1.1,1.2l-1.4,0.2
			l-0.7-0.5L145,77l-0.1,1.4l-1.2,0.1l-0.7,1.1l2.8,0.5l-0.3,1l1.2,1l1.3,0.6l1.5-0.6l1.1,0.5l2.7-0.4L155.1,81z"/>
		<g>
			<polygon class="st25" points="154,80.9 154.8,64.9 155,81 			"/>
			<polygon class="st25" points="154.1,77.1 152.2,72 154.8,76.9 			"/>
			<polygon class="st26" points="150,72.9 148.4,70.6 149.1,69.2 147.4,68.1 148.2,66.5 149.7,64.7 151.8,64.3 151.9,61.4 
				154.2,61.4 154.7,62.4 157.4,61.6 159.2,63.4 158.5,64.3 159.3,65.5 161.9,65.8 162,67.7 161,68.5 161.9,69.9 159.6,72.3 
				158.4,72.3 159.1,73.9 157.4,75.6 156.4,74.3 154.5,75 153,73.8 			"/>
			<g>
				<polygon class="st26" points="154.3,63.7 153.1,62.4 153.5,61.4 151.9,61.4 151.8,64.3 153.9,65 				"/>
				<polygon class="st0" points="154.9,72 153,72.6 152.7,71.2 151.1,70.8 150.9,69.3 153.2,69.5 153.8,68.5 153.1,66.6 152,67.3 
					150.9,66.2 151.8,64.3 149.7,64.7 148.2,66.5 147.4,68.1 149.1,69.2 148.4,70.6 150,72.9 153,73.8 154.5,75 156.4,74.3 
					157.4,75.6 156.9,73 				"/>
			</g>
		</g>
	</g>
	<g>
		<path class="st24" d="M33.3,58.4l1.6-0.5v-1l1.5-0.3l-1-1l-1.8,0.1l0.4-0.6l-1.6-1.5l-1.6,0.2l-0.4-0.6L28.6,53l-1.1,1.2l-1.4,0.2
			l-0.7-0.5l-2.2,0.6l-0.1,1.4L21.9,56l-0.7,1l2.8,0.5l-0.3,1l1.2,1l1.3,0.6l1.5-0.6l1.1,0.5l2.7-0.4L33.3,58.4z"/>
		<g>
			<polygon class="st25" points="32.3,58.3 33,42.2 33.2,58.4 			"/>
			<polygon class="st25" points="32.4,54.5 30.5,49.4 33,54.3 			"/>
			<polygon class="st26" points="28.2,50.2 26.6,47.9 27.3,46.6 25.7,45.5 26.5,43.9 28,42.1 30,41.7 30.1,38.7 32.4,38.7 33,39.8 
				35.7,39 37.4,40.8 36.8,41.7 37.6,42.9 40.2,43.2 40.3,45.1 39.2,45.9 40.2,47.3 37.9,49.7 36.6,49.7 37.3,51.3 35.7,53 
				34.6,51.7 32.7,52.4 31.2,51.2 			"/>
			<g>
				<polygon class="st26" points="32.6,41 31.4,39.8 31.8,38.7 30.1,38.7 30,41.7 32.2,42.4 				"/>
				<polygon class="st0" points="33.1,49.4 31.2,50 31,48.6 29.3,48.2 29.2,46.7 31.5,46.9 32,45.9 31.4,44 30.3,44.7 29.2,43.6 
					30,41.7 28,42.1 26.5,43.9 25.7,45.5 27.3,46.6 26.6,47.9 28.2,50.2 31.2,51.2 32.7,52.4 34.6,51.7 35.7,53 35.1,50.4 				"/>
			</g>
		</g>
	</g>
	<g>
		<g>
			<path class="st24" d="M90.4,77.4l1.4-0.5V76l1.3-0.3l-0.9-0.9l-1.6,0.1l0.3-0.5l-1.4-1.3l-1.4,0.2l-0.4-0.6l-1.6-0.2l-1,1
				L84,73.7l-0.6-0.4l-2,0.5l-0.1,1.3l-1.1,0.1l-0.7,1l2.5,0.5l-0.2,0.9l1.1,0.9l1.1,0.6l1.4-0.5l0.9,0.5l2.4-0.4L90.4,77.4z"/>
			<g>
				<polygon class="st25" points="89.5,77.3 90.2,63 90.3,77.4 				"/>
				<polygon class="st25" points="89.6,73.9 87.9,69.4 90.2,73.7 				"/>
				<polygon class="st26" points="85.9,70.1 84.5,68.1 85.1,66.9 83.6,65.9 84.4,64.5 85.7,62.9 87.5,62.6 87.6,59.9 89.7,59.9 
					90.1,60.9 92.5,60.1 94.1,61.7 93.5,62.6 94.2,63.6 96.5,63.9 96.6,65.6 95.7,66.3 96.5,67.5 94.5,69.7 93.4,69.7 94,71.1 
					92.5,72.5 91.6,71.5 89.9,72.1 88.6,71 				"/>
				<g>
					<polygon class="st26" points="89.8,62 88.7,60.9 89.1,59.9 87.6,59.9 87.5,62.6 89.4,63.2 					"/>
					<polygon class="st0" points="90.3,69.4 88.6,69.9 88.3,68.7 86.9,68.3 86.8,67 88.8,67.1 89.3,66.3 88.7,64.6 87.7,65.2 
						86.8,64.2 87.5,62.6 85.7,62.9 84.4,64.5 83.6,65.9 85.1,66.9 84.5,68.1 85.9,70.1 88.6,71 89.9,72.1 91.6,71.5 92.5,72.5 
						92.1,70.3 					"/>
				</g>
			</g>
		</g>
		<g>
			<g>
				<polygon class="st26" points="85.8,64.9 84.8,63.3 85.2,62.4 84.1,61.7 84.7,60.6 85.7,59.4 87,59.1 87.1,57.1 88.7,57.1 
					89,57.9 90.8,57.3 92,58.5 91.6,59.1 92.1,59.9 93.8,60.1 93.9,61.4 93.2,61.9 93.8,62.9 92.3,64.5 91.5,64.5 91.9,65.6 
					90.8,66.7 90.1,65.9 88.8,66.3 87.8,65.5 				"/>
				<g>
					<polyline class="st0" points="87,59.1 88.5,59.6 88.8,58.7 87.9,57.9 88.2,57.1 87.1,57.1 					"/>
					<polygon class="st0" points="89.1,64.3 87.8,64.7 87.7,63.8 86.6,63.5 86.5,62.5 88,62.6 88.4,61.9 87.9,60.7 87.2,61.1 
						86.5,60.4 87,59.1 85.7,59.4 84.7,60.6 84.1,61.7 85.2,62.4 84.8,63.3 85.8,64.9 87.8,65.5 88.8,66.3 90.1,65.9 90.8,66.7 
						90.5,64.9 					"/>
				</g>
			</g>
		</g>
		<g>
			<g>
				<polygon class="st26" points="87.2,56.5 87.2,57.9 87.8,58.3 87.4,59.2 88.2,59.7 89.3,60.1 90.3,59.8 91.2,61 92.1,60.4 
					92,59.8 93.4,59.5 93.6,58.2 93.1,58 93,57.2 94,56.5 93.6,55.6 92.9,55.5 92.9,54.7 91.3,54.2 90.8,54.5 90.6,53.6 89.5,53.3 
					89.4,54.2 88.4,54.4 88.1,55.3 				"/>
				<g>
					<polygon class="st0" points="89.4,55.6 88.5,55.8 88.7,56.5 88.2,57.1 88.5,57.8 89.5,57.1 89.9,57.4 90.2,58.4 89.6,58.4 
						89.4,59.1 90.3,59.8 89.3,60.1 88.2,59.7 87.4,59.2 87.8,58.3 87.2,57.9 87.2,56.5 88.1,55.3 88.4,54.4 89.4,54.2 89.5,53.3 
						90,54.6 					"/>
				</g>
			</g>
		</g>
	</g>
</g>
</svg>
