<?xml version="1.0" encoding="UTF-8"?>
<svg width="48px" height="54px" viewBox="0 0 48 54" version="1.1" xmlns="http://www.w3.org/2000/svg" xmlns:xlink="http://www.w3.org/1999/xlink">
    <!-- Generator: Sketch 49.2 (51160) - http://www.bohemiancoding.com/sketch -->
    <title>Artboard</title>
    <desc>Created with Sketch.</desc>
    <defs></defs>
    <g id="Artboard" stroke="none" stroke-width="1" fill="none" fill-rule="evenodd">
        <g id="1" transform="translate(3.000000, 7.000000)">
            <rect id="Rectangle" fill="#FFFFFF" x="27" y="31" width="6" height="2" rx="1"></rect>
            <rect id="Rectangle-3" fill="#FFFFFF" x="7" y="16" width="5" height="4" rx="2"></rect>
            <rect id="Rectangle-3-Copy" fill="#FFFFFF" x="15" y="16" width="5" height="4" rx="2"></rect>
            <rect id="Rectangle-3-Copy-4" fill="#FFFFFF" x="7" y="24" width="5" height="4" rx="2"></rect>
            <rect id="Rectangle-4" fill="#FFFFFF" x="6" y="0" width="4" height="8" rx="2"></rect>
            <rect id="Rectangle-4-Copy" fill="#FFFFFF" x="24" y="0" width="4" height="8" rx="2"></rect>
            <rect id="Rectangle-3-Copy-3" fill="#FFFFFF" x="15" y="24" width="5" height="4" rx="2"></rect>
            <rect id="Rectangle-3-Copy-2" fill="#FFFFFF" x="23" y="16" width="5" height="4" rx="2"></rect>
            <rect id="Rectangle-2" fill="#FFFFFF" x="31" y="28" width="2" height="5" rx="1"></rect>
            <circle id="Oval" stroke="#FFFFFF" stroke-width="3" cx="32" cy="32" r="9"></circle>
            <path d="M17.5,31 L3,31 L3,13 L31,13 L31,17.5 C31,18.3284271 31.6715729,19 32.5,19 L32.5,19 C33.3284271,19 34,18.3284271 34,17.5 L34,6 C34,4.8954305 33.1045695,4 32,4 L30,4 C29.8612841,8 28.5279508,10 26,10 C23.4720492,10 22.1387159,8 22,4 L12,4 C12.1151368,8 10.7818035,10 8,10 C5.21819649,10 3.88486315,8 4,4 L2,4 C0.8954305,4 -1.3527075e-16,4.8954305 0,6 L0,32 C1.3527075e-16,33.1045695 0.8954305,34 2,34 L17.5,34 C18.3284271,34 19,33.3284271 19,32.5 L19,32.5 C19,31.6715729 18.3284271,31 17.5,31 Z" id="Path-2" fill="#FFFFFF"></path>
        </g>
    </g>
</svg>