<?xml version="1.0" encoding="UTF-8"?>
<svg width="48px" height="54px" viewBox="0 0 48 54" version="1.1" xmlns="http://www.w3.org/2000/svg" xmlns:xlink="http://www.w3.org/1999/xlink">
    <!-- Generator: Sketch 49.2 (51160) - http://www.bohemiancoding.com/sketch -->
    <title>Artboard</title>
    <desc>Created with Sketch.</desc>
    <defs></defs>
    <g id="Artboard" stroke="none" stroke-width="1" fill="none" fill-rule="evenodd">
        <g id="2" transform="translate(3.000000, 4.000000)" fill="#FFFFFF">
            <path d="M0,24 L5,16 C6.33333333,5.66666667 12.1666667,0.5 22.5,0.5 C38,0.5 41,13 41,17.5 C41,22.5 38.1666667,27.3333333 32.5,32 L32.5,40.2792408 C32.5,40.7096712 32.2245699,41.09181 31.8162278,41.2279241 L15.8162278,46.5612574 C15.2922844,46.7359052 14.7259645,46.4527452 14.5513167,45.9288019 C14.5173279,45.8268354 14.5,45.7200562 14.5,45.6125741 L14.5,37 L6,37 C5.44771525,37 5,36.5522847 5,36 L5,28 C3.57182335,27.1241253 2.57182335,26.4574587 2,26 C1.42817665,25.5425413 0.76150998,24.8758747 0,24 Z M20.9654689,20.2926171 L20.172858,20.2926171 C19.8697378,19.657973 19.9075039,19.7422325 19.5156415,19.1761782 L19.9132561,18.4882173 C20.0777685,18.2036232 19.9802194,17.839411 19.6955459,17.6750176 L18.6646757,17.0799643 C18.3800816,16.9157296 18.0162263,17.0131994 17.8519123,17.2977538 L17.4596532,17.9767889 C17.2438472,17.9576282 16.9890851,17.9302954 16.8000962,17.9302954 C16.6111073,17.9302954 16.3563451,17.9575885 16.1405392,17.9767889 L15.7482007,17.2975158 C15.5838867,17.0130803 15.2201901,16.915571 14.935596,17.0796866 L13.9044481,17.6744622 C13.6195763,17.8386969 13.5219875,18.2030678 13.6866189,18.4877016 L14.0845905,19.1760989 C13.6878884,19.7492145 13.7265668,19.6663434 13.4273344,20.2926171 L12.5950532,20.2926171 C12.2664252,20.2926171 12,20.5763385 12,20.9049666 L12,22.0950731 C12,22.4236615 12.2664252,22.6728301 12.5950532,22.6728301 L13.4273344,22.6728301 C13.7304545,23.3074742 13.6926885,23.2577675 14.0845509,23.8238614 L13.6869363,24.5118223 C13.5224239,24.7964165 13.619973,25.1606287 13.9046464,25.3250221 L14.9355167,25.9200753 C15.2201108,26.08431 15.583966,25.9868403 15.7482801,25.7022859 L16.1405392,25.0232508 C16.3563451,25.0424115 16.6111073,25.0697443 16.8000962,25.0697443 C16.9890851,25.0697443 17.2438472,25.0424511 17.4596532,25.0232508 L17.8519916,25.7024842 C18.0163057,25.9869197 18.3800022,26.084429 18.6645963,25.9203134 L19.695784,25.3254585 C19.9806558,25.1612238 20.0782445,24.7968528 19.9136131,24.512219 L19.5156415,23.8238218 C19.912304,23.2507855 19.8736652,23.2991038 20.172858,22.6727904 L20.9654689,22.6727904 C21.294097,22.6727904 21.5605221,22.4236218 21.5605221,22.0950334 L21.5605221,20.9049269 C21.5605221,20.5762988 21.294097,20.2926171 20.9654689,20.2926171 Z M23.9616321,8.65846348 L23.0809533,8.65846348 C22.7441532,7.95330334 22.7861154,8.04692505 22.3507128,7.41797581 L22.7925068,6.65357482 C22.9752983,6.33735912 22.8669104,5.93267883 22.5506066,5.75001953 L21.4051952,5.08884926 C21.0889795,4.90636626 20.6846959,5.01466595 20.5021248,5.33083757 L20.0662813,6.08532101 C19.8264969,6.06403133 19.5434279,6.03366157 19.3334402,6.03366157 C19.1234525,6.03366157 18.8403835,6.06398725 18.6005991,6.08532101 L18.1646675,5.33057311 C17.9820963,5.01453372 17.577989,4.90618995 17.2617733,5.08854071 L16.1160534,5.74940244 C15.7995292,5.93188543 15.6910972,6.33674203 15.874021,6.65300181 L16.3162117,7.41788766 C15.8754315,8.05468279 15.9184076,7.96260381 15.5859271,8.65846348 L14.6611703,8.65846348 C14.296028,8.65846348 14,8.97370946 14,9.33885177 L14,10.6611923 C14,11.0262905 14.296028,11.3031446 14.6611703,11.3031446 L15.5859271,11.3031446 C15.9227272,12.0083047 15.880765,11.9530749 16.3161676,12.5820683 L15.8743736,13.3464693 C15.6915821,13.662685 15.7999699,14.0673652 16.1162738,14.2500246 L17.2616852,14.9111948 C17.5779009,15.0936778 17.9821845,14.9853781 18.1647556,14.6692065 L18.6005991,13.9147231 C18.8403835,13.9360127 19.1234525,13.9663825 19.3334402,13.9663825 C19.5434279,13.9663825 19.8264969,13.9360568 20.0662813,13.9147231 L20.5022129,14.6694269 C20.6847841,14.9854663 21.0888913,15.0938101 21.4051071,14.9114593 L22.5508711,14.2505094 C22.8673953,14.0680264 22.9758272,13.6631698 22.7929035,13.34691 L22.3507128,12.5820242 C22.7914489,11.9453172 22.7485169,11.9990042 23.0809533,11.3031005 L23.9616321,11.3031005 C24.3267744,11.3031005 24.6228024,11.0262465 24.6228024,10.6611482 L24.6228024,9.33880769 C24.6228024,8.97366539 24.3267744,8.65846348 23.9616321,8.65846348 Z M35.1908714,16.4771637 L34.113112,16.4771637 C33.7009419,15.614201 33.7522946,15.7287737 33.2194564,14.9590766 L33.7601162,14.023616 C33.9838133,13.6366367 33.8511701,13.1413961 33.464083,12.9178608 L32.0623485,12.1087322 C31.6753693,11.8854127 31.1806141,12.0179479 30.9571867,12.4048732 L30.4238091,13.3281969 C30.1303651,13.302143 29.7839502,13.264977 29.526971,13.264977 C29.2699917,13.264977 28.9235768,13.302089 28.6301328,13.3281969 L28.0966473,12.4045496 C27.8732199,12.0177861 27.3786805,11.8851969 26.9917012,12.1083546 L25.5895892,12.9171056 C25.2022324,13.1404251 25.0695353,13.6358815 25.2933942,14.0229147 L25.8345394,14.9589687 C25.2951203,15.7382674 25.3477137,15.6255828 24.9408299,16.4771637 L23.8091286,16.4771637 C23.3622739,16.4771637 23,16.8629562 23,17.309811 L23,18.9280683 C23,19.3748691 23.3622739,19.7136782 23.8091286,19.7136782 L24.9408299,19.7136782 C25.353,20.5766409 25.3016473,20.5090517 25.8344855,21.2788027 L25.2938257,22.2142633 C25.0701286,22.6012425 25.2027718,23.0964832 25.5898589,23.3200185 L26.9915934,24.1291471 C27.3785726,24.3524666 27.8733278,24.2199313 28.0967552,23.833006 L28.6301328,22.9096824 C28.9235768,22.9357363 29.2699917,22.9729023 29.526971,22.9729023 C29.7839502,22.9729023 30.1303651,22.9357903 30.4238091,22.9096824 L30.9572946,23.8332757 C31.180722,24.2200392 31.6752614,24.3526284 32.0622407,24.1294708 L33.4644066,23.3206118 C33.8517635,23.0972923 33.9844606,22.6018359 33.7606017,22.2148027 L33.2194564,21.2787488 C33.7588216,20.4995579 33.7062822,20.5652591 34.113112,19.7136243 L35.1908714,19.7136243 C35.6377261,19.7136243 36,19.3748152 36,18.9280143 L36,17.3097571 C36,16.8629023 35.6377261,16.4771637 35.1908714,16.4771637 Z" id="Combined-Shape"></path>
            <path d="M16.8000962,23.2851399 C15.8157194,23.2851399 15.0149364,22.4843569 15.0149364,21.4999802 C15.0149364,20.5156034 15.8157194,19.7148204 16.8000962,19.7148204 C17.7844729,19.7148204 18.5852559,20.5156034 18.5852559,21.4999802 C18.5852559,22.4843966 17.7844729,23.2851399 16.8000962,23.2851399 Z" id="Path"></path>
            <path d="M19.3334402,11.9834888 C18.2396883,11.9834888 17.3499294,11.0937299 17.3499294,9.99997796 C17.3499294,8.90622602 18.2396883,8.01646714 19.3334402,8.01646714 C20.4271921,8.01646714 21.316951,8.90622602 21.316951,9.99997796 C21.316951,11.093774 20.4271921,11.9834888 19.3334402,11.9834888 Z" id="Path"></path>
            <path d="M29.526971,20.5462716 C28.1884564,20.5462716 27.0995851,19.4574002 27.0995851,18.1188857 C27.0995851,16.7803712 28.1884564,15.6914998 29.526971,15.6914998 C30.8654855,15.6914998 31.9543568,16.7803712 31.9543568,18.1188857 C31.9543568,19.4574542 30.8654855,20.5462716 29.526971,20.5462716 Z" id="Path"></path>
        </g>
    </g>
</svg>