<?xml version="1.0" encoding="UTF-8"?>
<svg width="48px" height="54px" viewBox="0 0 48 54" version="1.1" xmlns="http://www.w3.org/2000/svg" xmlns:xlink="http://www.w3.org/1999/xlink">
    <!-- Generator: Sketch 49.2 (51160) - http://www.bohemiancoding.com/sketch -->
    <title>Artboard</title>
    <desc>Created with Sketch.</desc>
    <defs></defs>
    <g id="Artboard" stroke="none" stroke-width="1" fill="none" fill-rule="evenodd">
        <g id="3" transform="translate(0.000000, 10.000000)">
            <circle id="Oval-2" stroke="#FFFFFF" stroke-width="3" cx="11" cy="31" r="4"></circle>
            <path d="M2,0 L27,0 C28.1045695,-2.02906125e-16 29,0.8954305 29,2 L29,22 C29,23.1045695 28.1045695,24 27,24 L2,24 C0.8954305,24 1.3527075e-16,23.1045695 0,22 L0,2 C-1.3527075e-16,0.8954305 0.8954305,2.02906125e-16 2,0 Z M21.5020747,14.7551777 L20.8388382,14.7551777 C20.585195,14.2241237 20.6167967,14.2946299 20.2888963,13.8209702 L20.62161,13.2453021 C20.7592697,13.0071611 20.6776432,12.7023976 20.4394357,12.5648374 L19.5768299,12.0669121 C19.3386888,11.9294847 19.0342241,12.0110449 18.8967303,12.2491528 L18.5684979,12.8173519 C18.387917,12.8013187 18.1747386,12.7784474 18.0165975,12.7784474 C17.8584564,12.7784474 17.645278,12.8012855 17.4646971,12.8173519 L17.1363983,12.2489536 C16.9989046,12.0109453 16.6945726,11.9293519 16.4564315,12.0666797 L15.5935934,12.5643727 C15.3552199,12.7018001 15.2735602,13.0066963 15.4113195,13.2448706 L15.744332,13.8209038 C15.4123817,14.3004723 15.4447469,14.2311279 15.1943568,14.7551777 L14.4979253,14.7551777 C14.2229378,14.7551777 14,14.9925885 14,15.267576 L14,16.2634266 C14,16.538381 14.2229378,16.7468789 14.4979253,16.7468789 L15.1943568,16.7468789 C15.448,17.2779328 15.4163983,17.2363395 15.7442988,17.7100324 L15.4115851,18.2857005 C15.2739253,18.5238416 15.3555519,18.828605 15.5937593,18.9661652 L16.4563651,19.4640905 C16.6945062,19.6015179 16.998971,19.5199577 17.1364647,19.2818499 L17.4646971,18.7136507 C17.645278,18.7296839 17.8584564,18.7525553 18.0165975,18.7525553 C18.1747386,18.7525553 18.387917,18.7297171 18.5684979,18.7136507 L18.8967967,19.2820158 C19.0342905,19.5200241 19.3386224,19.6016175 19.5767635,19.4642897 L20.4396349,18.9665304 C20.6780083,18.829103 20.759668,18.5242067 20.6219087,18.2860324 L20.2888963,17.7099992 C20.6208133,17.2304972 20.5884813,17.2709287 20.8388382,16.7468457 L21.5020747,16.7468457 C21.7770622,16.7468457 22,16.5383478 22,16.2633934 L22,15.2675428 C22,14.9925553 21.7770622,14.7551777 21.5020747,14.7551777 Z M15.5020747,7.92677078 L14.8388382,7.92677078 C14.585195,7.36264267 14.6167967,7.43754004 14.2888963,6.93438065 L14.62161,6.32285986 C14.7592697,6.0698873 14.6776432,5.74614307 14.4394357,5.60001562 L13.5768299,5.0710794 C13.3386888,4.92509301 13.0342241,5.01173276 12.8967303,5.26467006 L12.5684979,5.86825681 C12.387917,5.85122506 12.1747386,5.82692926 12.0165975,5.82692926 C11.8584564,5.82692926 11.645278,5.8511898 11.4646971,5.86825681 L11.1363983,5.26445849 C10.9989046,5.01162697 10.6945726,4.92495196 10.4564315,5.07083257 L9.59359336,5.59952195 C9.35521992,5.74550834 9.27356017,6.06939362 9.4113195,6.32240145 L9.74433195,6.93431013 C9.41238174,7.44374623 9.44474689,7.37008304 9.19435685,7.92677078 L8.49792531,7.92677078 C8.22293776,7.92677078 8,8.17896757 8,8.47108141 L8,9.52895385 C8,9.82103243 8.22293776,10.0425157 8.49792531,10.0425157 L9.19435685,10.0425157 C9.448,10.6066438 9.41639834,10.56246 9.74429876,11.0656546 L9.41158506,11.6771754 C9.27392531,11.930148 9.35555187,12.2538922 9.59375934,12.4000196 L10.4563651,12.9289559 C10.6945062,13.0749423 10.998971,12.9883025 11.1364647,12.7353652 L11.4646971,12.1317785 C11.645278,12.1488102 11.8584564,12.173106 12.0165975,12.173106 C12.1747386,12.173106 12.387917,12.1488455 12.5684979,12.1317785 L12.8967967,12.7355415 C13.0342905,12.988373 13.3386224,13.075048 13.5767635,12.9291674 L14.4396349,12.4004075 C14.6780083,12.2544211 14.759668,11.9305359 14.6219087,11.677528 L14.2888963,11.0656193 C14.6208133,10.5562538 14.5884813,10.5992034 14.8388382,10.0424804 L15.5020747,10.0424804 C15.7770622,10.0424804 16,9.82099717 16,9.52891859 L16,8.47104615 C16,8.17893231 15.7770622,7.92677078 15.5020747,7.92677078 Z" id="Combined-Shape" fill="#FFFFFF"></path>
            <path d="M18.0165975,17.2592441 C17.1928963,17.2592441 16.5228216,16.5891694 16.5228216,15.7654681 C16.5228216,14.9417669 17.1928963,14.2716922 18.0165975,14.2716922 C18.8402988,14.2716922 19.5103734,14.9417669 19.5103734,15.7654681 C19.5103734,16.5892026 18.8402988,17.2592441 18.0165975,17.2592441 Z" id="Path" fill="#FFFFFF"></path>
            <path d="M12.0165975,10.586791 C11.1928963,10.586791 10.5228216,9.87498392 10.5228216,8.99998237 C10.5228216,8.12498081 11.1928963,7.41317371 12.0165975,7.41317371 C12.8402988,7.41317371 13.5103734,8.12498081 13.5103734,8.99998237 C13.5103734,9.87501919 12.8402988,10.586791 12.0165975,10.586791 Z" id="Path" fill="#FFFFFF"></path>
            <circle id="Oval-2-Copy" stroke="#FFFFFF" stroke-width="3" cx="37" cy="31" r="4"></circle>
            <polygon id="Path-4" fill="#FFFFFF" points="0 31 0 26 6 26 4 31"></polygon>
            <polygon id="Path-5" fill="#FFFFFF" points="17 26 19 31 29.5 31 31 26"></polygon>
            <path d="M43.8322611,30.2306738 C42.7685011,25.7435579 40.6577474,23.5 37.5,23.5 C34.5,23.5 32.3333333,24.6666667 31,27 L31,8 C31,6.8954305 31.8954305,6 33,6 L37.8676192,6 C38.5701449,6 39.2211586,6.36859767 39.5826051,6.97100849 L44.3761758,14.960293 C44.7889851,15.6483085 45.0804349,16.4021746 45.2377901,17.1889504 L47,26 L47,30 C47,30.5522847 46.5522847,31 46,31 L44.8052816,30.9999897 C44.3418633,30.9999897 43.9391606,30.6815939 43.8322611,30.2306738 Z M33,9 L33,15 L42,15 L38,9 L33,9 Z" id="Combined-Shape" fill="#FFFFFF"></path>
        </g>
    </g>
</svg>