<?xml version="1.0" encoding="UTF-8"?>
<svg width="48px" height="54px" viewBox="0 0 48 54" version="1.1" xmlns="http://www.w3.org/2000/svg" xmlns:xlink="http://www.w3.org/1999/xlink">
    <!-- Generator: Sketch 49.2 (51160) - http://www.bohemiancoding.com/sketch -->
    <title>Artboard</title>
    <desc>Created with Sketch.</desc>
    <defs></defs>
    <g id="Artboard" stroke="none" stroke-width="1" fill="none" fill-rule="evenodd">
        <g id="4" transform="translate(2.000000, 6.000000)" fill="#FFFFFF">
            <path d="M3,21.5 L4.83118574,1.81475326 C4.92684705,0.786394225 5.78978936,-4.7641175e-16 6.82258818,-6.66133815e-16 L7.17741182,0 C8.21021064,-1.89722065e-16 9.07315295,0.786394225 9.16881426,1.81475326 L11,21.5 L3,21.5 Z" id="Path-8"></path>
            <path d="M2,24 L18,24 L18,17 C18,15.8954305 18.8954305,15 20,15 L41,15 C42.1045695,15 43,15.8954305 43,17 L43,42 L0,42 L0,26 C-1.3527075e-16,24.8954305 0.8954305,24 2,24 Z M4,26 C3.44771525,26 3,26.4477153 3,27 C3,27.5522847 3.44771525,28 4,28 L7,28 C7.55228475,28 8,27.5522847 8,27 C8,26.4477153 7.55228475,26 7,26 L4,26 Z M12,26 C11.4477153,26 11,26.4477153 11,27 C11,27.5522847 11.4477153,28 12,28 L15,28 C15.5522847,28 16,27.5522847 16,27 C16,26.4477153 15.5522847,26 15,26 L12,26 Z M21,17 C20.4477153,17 20,17.4477153 20,18 C20,18.5522847 20.4477153,19 21,19 L24,19 C24.5522847,19 25,18.5522847 25,18 C25,17.4477153 24.5522847,17 24,17 L21,17 Z M29,17 C28.4477153,17 28,17.4477153 28,18 C28,18.5522847 28.4477153,19 29,19 L32,19 C32.5522847,19 33,18.5522847 33,18 C33,17.4477153 32.5522847,17 32,17 L29,17 Z M36,17 C35.4477153,17 35,17.4477153 35,18 C35,18.5522847 35.4477153,19 36,19 L39,19 C39.5522847,19 40,18.5522847 40,18 C40,17.4477153 39.5522847,17 39,17 L36,17 Z M25.253112,32.1327665 L24.2582573,32.1327665 C23.8777925,31.3361856 23.925195,31.4419449 23.4333444,30.7314553 L23.9324149,29.8679532 C24.1389046,29.5107416 24.0164647,29.0535964 23.6591535,28.8472561 L22.3652448,28.1003682 C22.0080332,27.8942271 21.5513361,28.0165673 21.3450954,28.3737291 L20.8527469,29.2260279 C20.5818755,29.2019781 20.2621079,29.1676711 20.0248963,29.1676711 C19.7876846,29.1676711 19.467917,29.2019283 19.1970456,29.2260279 L18.7045975,28.3734304 C18.4983568,28.0164179 18.0418589,27.8940279 17.6846473,28.1000196 L16.39039,28.846559 C16.0328299,29.0527001 15.9103402,29.5100445 16.1169793,29.8673059 L16.6164979,30.7313557 C16.1185726,31.4507084 16.1671203,31.3466918 15.7915353,32.1327665 L14.746888,32.1327665 C14.3344066,32.1327665 14,32.4888827 14,32.901364 L14,34.3951399 C14,34.8075715 14.3344066,35.1203184 14.746888,35.1203184 L15.7915353,35.1203184 C16.172,35.9168993 16.1245975,35.8545092 16.6164481,36.5650487 L16.1173776,37.4285507 C15.910888,37.7857623 16.0333278,38.2429076 16.390639,38.4492478 L17.6845477,39.1961358 C18.0417593,39.4022769 18.4984564,39.2799366 18.7046971,38.9227748 L19.1970456,38.070476 C19.467917,38.0945258 19.7876846,38.1288329 20.0248963,38.1288329 C20.2621079,38.1288329 20.5818755,38.0945756 20.8527469,38.070476 L21.345195,38.9230238 C21.5514357,39.2800362 22.0079336,39.4024262 22.3651452,39.1964345 L23.6594523,38.4497955 C24.0170124,38.2436545 24.1395021,37.7863101 23.9328631,37.4290487 L23.4333444,36.5649989 C23.9312199,35.8457457 23.882722,35.906393 24.2582573,35.1202686 L25.253112,35.1202686 C25.6655934,35.1202686 26,34.8075217 26,34.3950901 L26,32.9013142 C26,32.4888329 25.6655934,32.1327665 25.253112,32.1327665 Z M38.9462849,27.1218489 L37.7133346,27.1218489 C37.2418144,26.1346247 37.3005616,26.2656951 36.6909979,25.3851661 L37.3095095,24.3150048 C37.5654176,23.8723028 37.4136746,23.3057504 36.9708492,23.0500273 L35.3672733,22.124389 C34.9245713,21.8689128 34.3585743,22.0205323 34.1029747,22.4631726 L33.4927939,23.5194494 C33.1570957,23.4896439 32.760799,23.4471262 32.4668163,23.4471262 C32.1728335,23.4471262 31.7765369,23.4895822 31.4408387,23.5194494 L30.8305345,22.4628023 C30.5749348,22.0203472 30.0091847,21.8686659 29.5664827,22.123957 L27.9624748,23.0491634 C27.5193408,23.3046396 27.3675361,23.8714388 27.6236294,24.3142025 L28.2426964,25.3850427 C27.6256041,26.2765559 27.6857706,26.1476453 27.2202979,27.1218489 L25.9256384,27.1218489 C25.4144392,27.1218489 25,27.5631932 25,28.0743925 L25,29.9256692 C25,30.4368068 25.4144392,30.8244024 25.9256384,30.8244024 L27.2202979,30.8244024 C27.6918181,31.8116266 27.6330709,31.7343049 28.2426347,32.6148956 L27.6241231,33.685057 C27.3682149,34.1277589 27.5199579,34.6943113 27.9627833,34.9500344 L29.5663593,35.8756728 C30.0090612,36.1311489 30.5750583,35.9795294 30.8306579,35.5368891 L31.4408387,34.4806123 C31.7765369,34.5104178 32.1728335,34.5529355 32.4668163,34.5529355 C32.760799,34.5529355 33.1570957,34.5104796 33.4927939,34.4806123 L34.1030981,35.5371977 C34.3586977,35.9796528 34.9244479,36.1313341 35.3671499,35.876043 L36.9712195,34.9507132 C37.4143534,34.695237 37.5661581,34.1284377 37.3100648,33.6856741 L36.6909979,32.6148339 C37.3080284,31.7234441 37.2479236,31.7986059 37.7133346,30.8243407 L38.9462849,30.8243407 C39.4574842,30.8243407 39.8719233,30.436745 39.8719233,29.9256075 L39.8719233,28.0743308 C39.8719233,27.5631315 39.4574842,27.1218489 38.9462849,27.1218489 Z" id="Combined-Shape"></path>
            <path d="M20.0248963,35.8888661 C18.7893444,35.8888661 17.7842324,34.883754 17.7842324,33.6482022 C17.7842324,32.4126503 18.7893444,31.4075383 20.0248963,31.4075383 C21.2604481,31.4075383 22.2655602,32.4126503 22.2655602,33.6482022 C22.2655602,34.8838038 21.2604481,35.8888661 20.0248963,35.8888661 Z" id="Path"></path>
            <path d="M32.4668163,31.7768843 C30.9355636,31.7768843 29.6899011,30.5312219 29.6899011,28.9999691 C29.6899011,27.4687164 30.9355636,26.223054 32.4668163,26.223054 C33.998069,26.223054 35.2437314,27.4687164 35.2437314,28.9999691 C35.2437314,30.5312836 33.998069,31.7768843 32.4668163,31.7768843 Z" id="Path"></path>
        </g>
    </g>
</svg>