<?xml version="1.0" encoding="UTF-8"?>
<svg width="48px" height="54px" viewBox="0 0 48 54" version="1.1" xmlns="http://www.w3.org/2000/svg" xmlns:xlink="http://www.w3.org/1999/xlink">
    <!-- Generator: Sketch 49.2 (51160) - http://www.bohemiancoding.com/sketch -->
    <title>Artboard</title>
    <desc>Created with Sketch.</desc>
    <defs></defs>
    <g id="Artboard" stroke="none" stroke-width="1" fill="none" fill-rule="evenodd">
        <g id="5" transform="translate(1.000000, 4.000000)" fill="#FFFFFF">
            <path d="M42.3159779,15.5407726 L38.5749458,15.5407726 C37.1442539,12.5453257 37.3225052,12.943021 35.47296,10.27131 L37.3496549,7.02421399 C38.1261343,5.68096255 37.665714,3.96192276 36.3220881,3.186005 L31.4564996,0.377422402 C30.1132482,-0.397746396 28.3958935,0.0622994338 27.6203503,1.40536363 L25.7689326,4.61033086 C24.7503533,4.5198945 23.5479055,4.39088694 22.6558997,4.39088694 C21.7638938,4.39088694 20.561446,4.51970726 19.5428667,4.61033086 L17.6910746,1.4042402 C16.9155313,0.0617377173 15.1989256,-0.398495352 13.8556742,0.37611173 L8.988775,3.18338366 C7.64421289,3.95855246 7.18360534,5.67834121 7.96064653,7.02177988 L9.83902657,10.2709355 C7.96663817,12.975975 8.14919604,12.5848331 6.73685347,15.5407726 L2.8085826,15.5407726 C1.25749605,15.5407726 0,16.8799048 0,18.4309914 L0,24.0481566 C0,25.5990559 1.25749605,26.775103 2.8085826,26.775103 L6.73685347,26.775103 C8.16754545,29.77055 7.98929407,29.5359397 9.83883933,32.207838 L7.96214444,35.454934 C7.18566497,36.7981854 7.64608528,38.5172252 8.98971119,39.2931429 L13.8552997,42.1017255 C15.1985511,42.8768943 16.9159058,42.4168485 17.6914491,41.0737843 L19.5428667,37.8688171 C20.561446,37.9592534 21.7638938,38.088261 22.6558997,38.088261 C23.5479055,38.088261 24.7503533,37.9594407 25.7689326,37.8688171 L27.6207247,41.0747205 C28.396268,42.417223 30.1128737,42.8774561 31.4561251,42.102849 L36.3232116,39.2952026 C37.6677737,38.5200338 38.1283812,36.800245 37.35134,35.4568063 L35.47296,32.2076507 C37.3451611,29.5029857 37.1627905,29.7310426 38.5749458,26.7749158 L42.3159779,26.7749158 C43.8670644,26.7749158 45.1245605,25.5988686 45.1245605,24.0479693 L45.1245605,18.4308041 C45.1245605,16.8797176 43.8670644,15.5407726 42.3159779,15.5407726 Z M22.7082565,32.5834871 C16.4817381,32.5834871 11.4165129,27.5182619 11.4165129,21.2917435 C11.4165129,15.0652252 16.4817381,10 22.7082565,10 C28.9347748,10 34,15.0652252 34,21.2917435 C34,27.5185128 28.9347748,32.5834871 22.7082565,32.5834871 Z" id="Shape-Copy-7" fill-rule="nonzero"></path>
            <path d="M15.5,20 C15.1666667,24.3333333 16.1666667,27.1666667 18.5,28.5 C20.8333333,29.8333333 22.8333333,30 24.5,29 L40.3786797,44.8786797 C41.5502525,46.0502525 43.4497475,46.0502525 44.6213203,44.8786797 L44.936787,44.563213 C46.0854195,43.4145805 46.1111674,41.5603769 44.9948719,40.3802931 L29.5,24 C30.5,19.3333333 29.8333333,16.3333333 27.5,15 C25.1666667,13.6666667 22.1666667,13.6666667 18.5,15 L24.5,19 L21.5,24 L15.5,20 Z" id="Path-10"></path>
        </g>
    </g>
</svg>