<?xml version="1.0" encoding="UTF-8"?>
<svg width="48px" height="54px" viewBox="0 0 48 54" version="1.1" xmlns="http://www.w3.org/2000/svg" xmlns:xlink="http://www.w3.org/1999/xlink">
    <!-- Generator: Sketch 49.2 (51160) - http://www.bohemiancoding.com/sketch -->
    <title>Artboard</title>
    <desc>Created with Sketch.</desc>
    <defs></defs>
    <g id="Artboard" stroke="none" stroke-width="1" fill="none" fill-rule="evenodd">
        <g id="6" transform="translate(4.000000, 4.000000)">
            <ellipse id="Oval-7" stroke="#FFFFFF" stroke-width="2" cx="17" cy="12.5" rx="7" ry="9.5"></ellipse>
            <path d="M30,46 C24.4771525,46 20,41.5228475 20,36 C20,30.4771525 24.4771525,26 30,26 C35.5228475,26 40,30.4771525 40,36 C40,41.5228475 35.5228475,46 30,46 Z M29,29 C27.6666667,29.6666667 27,30.5 27,31.5 C27,32.5 27.6666667,33.3333333 29,34 L29,35 L29,38 C27.6666667,38.5 27,39.1666667 27,40 C27,40.8333333 27.6666667,41.8333333 29,43 L29,40 L31,40 L31,43 C32.3333333,41.7964241 33,40.7964241 33,40 C33,39.2035759 32.3333333,38.5369092 31,38 L31,34 C32.3333333,33.3333333 33,32.5 33,31.5 C33,30.5 32.3333333,29.6666667 31,29 L31,32 L29,32 L29,29 Z" id="Combined-Shape" fill="#FFFFFF"></path>
            <path d="M8,9.5 C9.00345245,10.8894643 10.3367858,11.7227976 12,12 C17,12 18.5,12 23,12 C24.2989212,11.8144398 25.2989212,11.1477732 26,10 C25.3333333,3.33333333 22.3333333,0 17,0 C11.6666667,0 8.66666667,3.16666667 8,9.5 Z" id="Path-11" fill="#FFFFFF"></path>
            <polygon id="Path-12" fill="#FFFFFF" points="21 28 25 25 22 23"></polygon>
            <path d="M12,23 L4.31067821,27.1941755 C2.24397708,28.321467 0.882324644,30.4121043 0.686822819,32.7581262 L0.18050758,38.833909 C0.0887780758,39.9346631 0.906754087,40.901362 2.00750814,40.9930915 C2.06275212,40.9976952 2.11816363,41 2.1735991,41 L20,41 C17.7009051,39.0770365 15.8675718,36.5770365 14.5,33.5 C13.1324282,30.4229635 12.2990949,26.9229635 12,23 Z" id="Path-13" fill="#FFFFFF"></path>
            <polygon id="Path-14" fill="#FFFFFF" points="15 24 19 24 18 27 19 40 15 40 16 27"></polygon>
        </g>
    </g>
</svg>