<?xml version="1.0" encoding="UTF-8"?>
<svg width="48px" height="54px" viewBox="0 0 48 54" version="1.1" xmlns="http://www.w3.org/2000/svg" xmlns:xlink="http://www.w3.org/1999/xlink">
    <!-- Generator: Sketch 49.2 (51160) - http://www.bohemiancoding.com/sketch -->
    <title>Artboard</title>
    <desc>Created with Sketch.</desc>
    <defs></defs>
    <g id="Artboard" stroke="none" stroke-width="1" fill="none" fill-rule="evenodd">
        <g id="8" transform="translate(2.000000, 0.000000)" fill="#FFFFFF">
            <path d="M28.4264396,41 L2,41 C0.8954305,41 1.3527075e-16,40.1045695 0,39 L0,2 C-1.3527075e-16,0.8954305 0.8954305,2.02906125e-16 2,0 L22,0 L22,11 L34,11 L34,19.5 C33,19.1666667 32,19 31,19 C29.5,19 28,20.5 28,22.5 C28,26 31,27.5 31.5,27.5 C32,27.5 28,31.5 28.5,35.5 C28.7184625,37.2476996 29.0085137,38.6374555 29.3701537,39.6692674 L29.3701254,39.6692773 C29.552795,40.1904606 29.2783755,40.7610461 28.7571923,40.9437157 C28.650898,40.9809708 28.5390736,41 28.4264396,41 Z M6,10 C5.44771525,10 5,10.4477153 5,11 C5,11.5522847 5.44771525,12 6,12 L18,12 C18.5522847,12 19,11.5522847 19,11 C19,10.4477153 18.5522847,10 18,10 L6,10 Z M6,15 C5.44771525,15 5,15.4477153 5,16 C5,16.5522847 5.44771525,17 6,17 L13,17 C13.5522847,17 14,16.5522847 14,16 C14,15.4477153 13.5522847,15 13,15 L6,15 Z M6,20 C5.44771525,20 5,20.4477153 5,21 C5,21.5522847 5.44771525,22 6,22 L23,22 C23.5522847,22 24,21.5522847 24,21 C24,20.4477153 23.5522847,20 23,20 L6,20 Z M6,25 C5.44771525,25 5,25.4477153 5,26 C5,26.5522847 5.44771525,27 6,27 L19,27 C19.5522847,27 20,26.5522847 20,26 C20,25.4477153 19.5522847,25 19,25 L6,25 Z" id="Combined-Shape"></path>
            <polygon id="Path-17" points="24 0 24 9 34 9"></polygon>
            <polygon id="Path-18" points="25 43 31 43 27 46.5"></polygon>
            <path d="M28.1211893,48.1823486 L38.1808971,40.601815 C38.6219714,40.2694418 39.2489744,40.3575613 39.5813477,40.7986355 L42.5904228,44.7918131 C42.922796,45.2328873 42.8346765,45.8598903 42.3936023,46.1922636 L32.3338945,53.7727972 C31.8928202,54.1051704 31.2658172,54.0170509 30.9334439,53.5759767 L27.9243688,49.5827991 C27.5919955,49.1417249 27.6801151,48.5147219 28.1211893,48.1823486 Z M32.5,50 C33.3284271,50 34,49.3284271 34,48.5 C34,47.6715729 33.3284271,47 32.5,47 C31.6715729,47 31,47.6715729 31,48.5 C31,49.3284271 31.6715729,50 32.5,50 Z" id="Combined-Shape"></path>
            <path d="M33.3212109,41.0090918 L38,37.5 L38,25.5 C35.6666667,22.8333333 33.5,21.3333333 31.5,21 C28.5,20.5 30,24.5 31,25 C31.6666667,25.3333333 32.6212765,25.8333333 33.8638296,26.5 L33.8638296,29 C31.6212765,31 30.6666667,33.1666667 31,35.5 C31.244562,37.2119339 31.489124,38.834152 31.733686,40.3666543 L31.7336527,40.3666596 C31.8206899,40.9120618 32.3333832,41.28364 32.8787854,41.1966029 C33.0393086,41.170986 33.1911674,41.1066244 33.3212109,41.0090918 Z" id="Path-19"></path>
        </g>
    </g>
</svg>