<?xml version="1.0" encoding="UTF-8"?>
<svg width="48px" height="54px" viewBox="0 0 48 54" version="1.1" xmlns="http://www.w3.org/2000/svg" xmlns:xlink="http://www.w3.org/1999/xlink">
    <!-- Generator: Sketch 49.2 (51160) - http://www.bohemiancoding.com/sketch -->
    <title>Artboard</title>
    <desc>Created with Sketch.</desc>
    <defs></defs>
    <g id="Artboard" stroke="none" stroke-width="1" fill="none" fill-rule="evenodd">
        <g id="9" transform="translate(1.000000, 4.000000)">
            <path d="M35.5,16 C41.2989899,16 46,12.418278 46,8 C46,3.581722 41.2989899,0 35.5,0 C29.7010101,0 25,3.581722 25,8 C25,10.1676079 26.1314791,12.1338663 27.968985,13.5746212 C28.9393734,14.3354849 27.5,20 28,20 C28.5,20 34.0484345,16 35.5,16 Z" id="Oval-10" stroke="#FFFFFF" stroke-width="2"></path>
            <path d="M39.7699613,6.75800739 L38.9277363,6.75800739 C38.6056422,6.08363727 38.6457722,6.1731711 38.2293809,5.57168421 L38.6518845,4.84065992 C38.8266946,4.53825142 38.7230394,4.15124104 38.4205466,3.97655735 L37.3251483,3.34425632 C37.0227398,3.16974124 36.6361088,3.27331215 36.4615094,3.5756785 L36.0446966,4.29721827 C35.8153821,4.27685818 35.544673,4.24781448 35.3438541,4.24781448 C35.1430353,4.24781448 34.8723262,4.27681602 34.6430117,4.29721827 L34.2261146,3.57542558 C34.0515152,3.27318569 33.6650528,3.16957263 33.3626443,3.34396125 L32.2669509,3.9759672 C31.9642473,4.15048228 31.86055,4.53766127 32.0354866,4.84011193 L32.4583695,5.5715999 C32.0368355,6.18059009 32.0779351,6.09253164 31.759972,6.75800739 L30.8755936,6.75800739 C30.5263948,6.75800739 30.2432926,7.05948851 30.2432926,7.40868729 L30.2432926,8.67328934 C30.2432926,9.02244596 30.5263948,9.28721147 30.8755936,9.28721147 L31.759972,9.28721147 C32.0820661,9.96158159 32.0419361,9.90876338 32.4583274,10.5102924 L32.0358238,11.2413167 C31.8610137,11.5437252 31.9646689,11.9307356 32.2671617,12.1054193 L33.36256,12.7377203 C33.6649685,12.9122354 34.0515995,12.8086645 34.2261989,12.5062981 L34.6430117,11.7847584 C34.8723262,11.8051184 35.1430353,11.8341621 35.3438541,11.8341621 C35.544673,11.8341621 35.8153821,11.8051606 36.0446966,11.7847584 L36.4615937,12.5065089 C36.6361931,12.8087488 37.0226555,12.9123618 37.325064,12.7379732 L38.4207995,12.105883 C38.7235031,11.9313679 38.8272005,11.5441889 38.6522639,11.2417382 L38.2293809,10.5102503 C38.6508728,9.90134438 38.6098154,9.95268722 38.9277363,9.28716932 L39.7699613,9.28716932 C40.1191601,9.28716932 40.4022623,9.02240381 40.4022623,8.67324718 L40.4022623,7.40864514 C40.4022623,7.05944636 40.1191601,6.75800739 39.7699613,6.75800739 Z M35.3438541,9.93784923 C34.2978596,9.93784923 33.4469511,9.08694066 33.4469511,8.04094616 C33.4469511,6.99495166 34.2978596,6.14404309 35.3438541,6.14404309 C36.3898487,6.14404309 37.2407572,6.99495166 37.2407572,8.04094616 C37.2407572,9.08698282 36.3898487,9.93784923 35.3438541,9.93784923 Z" id="Shape-Copy-8" fill="#FFFFFF" fill-rule="nonzero"></path>
            <path d="M0.0403530199,43.9200448 C0.415212228,34.5507347 3.40176122,29.2440531 9,28 C9,28 10.1666667,31.8333333 12.5,39.5 L14,39 L15,32.5 L14,31.5 L14,30 L17,30 L17,31.5 L16,32.5 L17,39 L18.5,39.5 C20.8333333,31.8333333 22,28 22,28 C27.2760111,29.2414144 30.2403577,34.5282416 30.8930399,43.8604816 L30.8930223,43.8604828 C30.9700852,44.9623511 30.1393164,45.9180636 29.0374481,45.9951265 C28.9910074,45.9983745 28.9444675,46 28.8979134,46 L2.03876897,46.0000148 C0.934191307,46.0000148 0.038754186,45.1045777 0.038754186,44 C0.038754186,43.9733403 0.0392872372,43.9466832 0.0403530199,43.9200448 Z" id="Path-20" fill="#FFFFFF"></path>
            <ellipse id="Oval-11" fill="#FFFFFF" cx="15.5" cy="17" rx="7.5" ry="10"></ellipse>
        </g>
    </g>
</svg>