<?xml version="1.0" encoding="UTF-8" standalone="no"?>
<!-- Generator: Adobe Illustrator 22.0.0, SVG Export Plug-In . SVG Version: 6.00 Build 0)  -->

<svg
   xmlns:dc="http://purl.org/dc/elements/1.1/"
   xmlns:cc="http://creativecommons.org/ns#"
   xmlns:rdf="http://www.w3.org/1999/02/22-rdf-syntax-ns#"
   xmlns:svg="http://www.w3.org/2000/svg"
   xmlns="http://www.w3.org/2000/svg"
   xmlns:sodipodi="http://sodipodi.sourceforge.net/DTD/sodipodi-0.dtd"
   xmlns:inkscape="http://www.inkscape.org/namespaces/inkscape"
   version="1.1"
   id="svg2"
   inkscape:version="0.92.2 (5c3e80d, 2017-08-06)"
   sodipodi:docname="egypt.svg"
   x="0px"
   y="0px"
   viewBox="0 0 60 60"
   xml:space="preserve"
   width="60"
   height="60"><metadata
     id="metadata90"><rdf:RDF><cc:Work
         rdf:about=""><dc:format>image/svg+xml</dc:format><dc:type
           rdf:resource="http://purl.org/dc/dcmitype/StillImage" /><dc:title></dc:title></cc:Work></rdf:RDF></metadata><defs
     id="defs88"><clipPath
       clipPathUnits="userSpaceOnUse"
       id="clipPath3852"><ellipse
         id="circle3854"
         cx="455.14774"
         cy="300.53513"
         style="stroke-width:10.50166607"
         rx="322.74484"
         ry="322.20691" /></clipPath><clipPath
       clipPathUnits="userSpaceOnUse"
       id="clipPath3856"><circle
         id="circle3858"
         cx="30"
         cy="30"
         style="stroke-width:0.97697258"
         r="30" /></clipPath><clipPath
       clipPathUnits="userSpaceOnUse"
       id="clipPath3860"><circle
         id="circle3862"
         cx="30"
         cy="30"
         style="stroke-width:0.97697258"
         r="30" /></clipPath><clipPath
       clipPathUnits="userSpaceOnUse"
       id="clipPath3864"><circle
         id="circle3866"
         cx="30"
         cy="30"
         style="stroke-width:0.97697258"
         r="30" /></clipPath></defs><style
     type="text/css"
     id="style2">
	.st0{fill:#FFFFFF;}
	.st1{fill:#CE1126;}
	.st2{fill:#FFFFFF;stroke:#C09300;stroke-width:1.2703;stroke-linejoin:round;}
	.st3{fill:#C09300;}
	.st4{fill:#C09300;stroke:#C09300;stroke-width:1.0739;}
	.st5{fill:#FFFFFF;stroke:#C09300;stroke-width:1.1888;stroke-linejoin:round;}
	.st6{fill:none;stroke:#C09300;stroke-width:1.2705;stroke-linejoin:round;}
	.st7{fill:#FFFFFF;stroke:#C09300;stroke-width:2.3777;stroke-linecap:round;stroke-linejoin:round;}
	.st8{fill:#FFFFFF;stroke:#C09300;stroke-width:1.2705;stroke-linecap:round;stroke-linejoin:round;}
	.st9{fill:#FFFFFF;stroke:#C09300;stroke-width:0.8915;stroke-linecap:round;stroke-linejoin:round;}
	.st10{fill:#FFFFFF;stroke:#C09300;stroke-width:1.1502;}
	.st11{fill:#FFFFFF;stroke:#C09300;stroke-width:0.9157;}
	.st12{fill:#FFFFFF;stroke:#C09300;stroke-width:1.2179;}
	.st13{fill:none;stroke:#C09300;stroke-width:1.2704;}
	.st14{fill:#C09300;stroke:#C09300;stroke-width:0.3542;}
</style><sodipodi:namedview
     bordercolor="#666666"
     borderopacity="1"
     fit-margin-bottom="0"
     fit-margin-left="0"
     fit-margin-right="0"
     fit-margin-top="0"
     gridtolerance="10"
     guidetolerance="10"
     id="namedview140"
     inkscape:current-layer="svg2"
     inkscape:cx="21.48441"
     inkscape:cy="39.358919"
     inkscape:pageopacity="0"
     inkscape:pageshadow="2"
     inkscape:window-height="1017"
     inkscape:window-maximized="1"
     inkscape:window-width="1920"
     inkscape:window-x="-8"
     inkscape:window-y="-8"
     inkscape:zoom="8"
     objecttolerance="10"
     pagecolor="#ffffff"
     showgrid="false" /><rect
     id="rect4"
     y="1.527369e-006"
     width="60"
     height="60"
     x="0"
     style="stroke-width:1.00083435"
     clip-path="url(#clipPath3864)" /><rect
     id="rect6"
     y="1.527369e-006"
     class="st0"
     width="60"
     height="39.96661"
     x="0"
     style="fill:#ffffff;stroke-width:1.00083435"
     clip-path="url(#clipPath3860)" /><rect
     id="rect8"
     y="1.527369e-006"
     class="st1"
     width="60"
     height="20.033388"
     x="0"
     style="fill:#ce1126;stroke-width:1.00083435"
     clip-path="url(#clipPath3856)" /><g
     id="g10"
     transform="matrix(0.09295269,0,0,0.09310787,-12.307207,2.0178133)"
     clip-path="url(#clipPath3852)"><path
       id="path12"
       inkscape:connector-curvature="0"
       class="st2"
       d="m 450.8,302.4 68.5,63.6 -4.9,-115.5 c -0.7,-17.5 -15.9,-13.5 -27,-7.2 -11.2,7.2 -24,7.2 -37.4,2.4 -13.5,4.7 -26.3,4.7 -37.4,-2.4 -11,-6.3 -26.3,-10.3 -27,7.2 L 380.7,366 Z"
       style="fill:#ffffff;stroke:#c09300;stroke-width:1.27030003;stroke-linejoin:round" /><g
       id="w"><path
         id="path15"
         inkscape:connector-curvature="0"
         class="st3"
         d="m 393.5,246.5 -4.7,112.3 -8,7.2 4.9,-115.5 c 2.2,-1.6 6.2,-4 7.8,-4 z"
         style="fill:#c09300" /><path
         id="path17"
         inkscape:connector-curvature="0"
         class="st3"
         d="m 403.1,254.5 -4,94 -8,8.2 4.9,-108.5 c 1.5,1.6 6.2,5.5 7.1,6.3 z"
         style="fill:#c09300" /><path
         id="path19"
         inkscape:connector-curvature="0"
         class="st3"
         d="m 411.8,261.7 -3.2,78.4 -6.5,6.3 4,-89.4 c 1.7,1.5 4.9,3.8 5.7,4.7 z"
         style="fill:#c09300" /><path
         id="path21"
         inkscape:connector-curvature="0"
         class="st3"
         d="m 421.3,265.7 -3.2,66.8 -6.3,5.1 3.2,-74.3 c 1.6,0.7 4.7,2.4 6.3,2.4 z"
         style="fill:#c09300" /><path
         id="path23"
         inkscape:connector-curvature="0"
         class="st3"
         d="m 430.1,265.7 -2.3,55.7 -6.5,6.3 2.4,-61.3 c 1.6,0 5.6,0 6.4,-0.7 z"
         style="fill:#c09300" /></g><g
       id="use25"
       transform="matrix(-1,0,0,1,900,0)"><g
         id="w_1_"><path
           id="path15_1_"
           inkscape:connector-curvature="0"
           class="st3"
           d="m 506.5,246.5 4.7,112.3 8,7.2 -4.9,-115.5 c -2.2,-1.6 -6.2,-4 -7.8,-4 z"
           style="fill:#c09300" /><path
           id="path17_1_"
           inkscape:connector-curvature="0"
           class="st3"
           d="m 496.9,254.5 4,94 8,8.2 -4.9,-108.5 c -1.5,1.6 -6.2,5.5 -7.1,6.3 z"
           style="fill:#c09300" /><path
           id="path19_1_"
           inkscape:connector-curvature="0"
           class="st3"
           d="m 488.2,261.7 3.2,78.4 6.5,6.3 -4,-89.4 c -1.7,1.5 -4.9,3.8 -5.7,4.7 z"
           style="fill:#c09300" /><path
           id="path21_1_"
           inkscape:connector-curvature="0"
           class="st3"
           d="m 478.7,265.7 3.2,66.8 6.3,5.1 -3.2,-74.3 c -1.6,0.7 -4.7,2.4 -6.3,2.4 z"
           style="fill:#c09300" /><path
           id="path23_1_"
           inkscape:connector-curvature="0"
           class="st3"
           d="m 469.9,265.7 2.3,55.7 6.5,6.3 -2.4,-61.3 c -1.6,0 -5.6,0 -6.4,-0.7 z"
           style="fill:#c09300" /></g></g><path
       id="path27"
       inkscape:connector-curvature="0"
       class="st4"
       d="m 453.2,315.1 9.6,43.8 -3.2,3.2 -3.3,-2.4 -5.5,-39 2.3,39 -3.2,4 -3.2,-4 2.3,-39 -5.5,39 -3.3,2.4 -3.2,-3.2 9.6,-43.8 z"
       style="fill:#c09300;stroke:#c09300;stroke-width:1.07389998" /><g
       id="b"><path
         id="path30"
         inkscape:connector-curvature="0"
         class="st5"
         d="m 428.5,295.8 -19.1,67.7 26.3,4 11.2,-50.9 z"
         style="fill:#ffffff;stroke:#c09300;stroke-width:1.18879998;stroke-linejoin:round" /><path
         id="path32"
         inkscape:connector-curvature="0"
         class="st6"
         d="m 422.2,318.9 2.3,5.6 12.4,-11.8"
         style="fill:none;stroke:#c09300;stroke-width:1.27049994;stroke-linejoin:round" /><path
         id="path34"
         inkscape:connector-curvature="0"
         class="st6"
         d="m 430.8,304.9 2.6,24.3 7.9,-10.3"
         style="fill:none;stroke:#c09300;stroke-width:1.27049994;stroke-linejoin:round" /><path
         id="path36"
         inkscape:connector-curvature="0"
         class="st6"
         d="m 438.1,322.9 4.3,14.9"
         style="fill:none;stroke:#c09300;stroke-width:1.27049994;stroke-linejoin:round" /><path
         id="path38"
         inkscape:connector-curvature="0"
         class="st6"
         d="m 444.1,332.4 -8.7,13.2 m 2.7,13.2 -2.8,-13.2 -2.4,-13.4 -5.8,7.9 -2.6,-9.1 -8.2,8.4 4.2,15.3 5.7,-9.4 3.2,9.6 5.9,-9.2"
         style="fill:none;stroke:#c09300;stroke-width:1.27049994;stroke-linejoin:round" /><path
         id="path40"
         inkscape:connector-curvature="0"
         class="st6"
         d="m 415,362 5.3,-7.4 3.5,11.5 4.7,-8 3.2,9.6"
         style="fill:none;stroke:#c09300;stroke-width:1.27049994;stroke-linejoin:round" /></g><g
       id="use42"
       transform="matrix(-1,0,0,1,900,0)"><g
         id="b_1_"><path
           id="path30_1_"
           inkscape:connector-curvature="0"
           class="st5"
           d="m 471.5,295.8 19.1,67.7 -26.3,4 -11.2,-50.9 z"
           style="fill:#ffffff;stroke:#c09300;stroke-width:1.18879998;stroke-linejoin:round" /><path
           id="path32_1_"
           inkscape:connector-curvature="0"
           class="st6"
           d="m 477.8,318.9 -2.3,5.6 -12.4,-11.8"
           style="fill:none;stroke:#c09300;stroke-width:1.27049994;stroke-linejoin:round" /><path
           id="path34_1_"
           inkscape:connector-curvature="0"
           class="st6"
           d="m 469.2,304.9 -2.6,24.3 -7.9,-10.3"
           style="fill:none;stroke:#c09300;stroke-width:1.27049994;stroke-linejoin:round" /><path
           id="path36_1_"
           inkscape:connector-curvature="0"
           class="st6"
           d="m 461.9,322.9 -4.3,14.9"
           style="fill:none;stroke:#c09300;stroke-width:1.27049994;stroke-linejoin:round" /><path
           id="path38_1_"
           inkscape:connector-curvature="0"
           class="st6"
           d="m 455.9,332.4 8.7,13.2 m -2.7,13.2 2.8,-13.2 2.4,-13.4 5.8,7.9 2.6,-9.1 8.2,8.4 -4.2,15.3 -5.7,-9.4 -3.2,9.6 -5.9,-9.2"
           style="fill:none;stroke:#c09300;stroke-width:1.27049994;stroke-linejoin:round" /><path
           id="path40_1_"
           inkscape:connector-curvature="0"
           class="st6"
           d="m 485,362 -5.3,-7.4 -3.5,11.5 -4.7,-8 -3.2,9.6"
           style="fill:none;stroke:#c09300;stroke-width:1.27049994;stroke-linejoin:round" /></g></g><g
       id="g44"><path
         id="path46"
         inkscape:connector-curvature="0"
         class="st7"
         d="m 450,393.8 c 19.9,0 39,-1.6 50.2,-4.7 4.7,-0.9 4.7,-3.3 4.7,-6.5 4.7,-1.6 2.3,-7.2 5.6,-7.2 -3.3,0.9 -4,-5.6 -8,-4.7 0,-5.6 -5.6,-6.3 -10.3,-4.7 -9.5,3.2 -26.3,3.9 -42.2,3.9 -15.9,-0.7 -32.6,-0.7 -42.2,-3.9 -4.7,-1.6 -10.3,-0.9 -10.3,4.7 -4,-0.9 -4.7,5.6 -8,4.7 3.3,0 0.9,5.6 5.6,7.2 0,3.2 0,5.6 4.9,6.5 11,3.1 30.1,4.7 50,4.7 z"
         style="fill:#ffffff;stroke:#c09300;stroke-width:2.37770009;stroke-linecap:round;stroke-linejoin:round" /><path
         id="path48"
         inkscape:connector-curvature="0"
         class="st8"
         d="m 422.9,363.5 c 6.5,0.9 13.6,1.6 19.2,0.9 3.2,0 5.4,5.5 -0.9,6.3 -5.6,0.7 -14.3,0 -19.1,-0.9 -4,-0.7 -12.8,-2.3 -18.4,-3.9 -5.6,-2.4 -1.6,-7.2 1.6,-6.5 5,1.7 11.3,3.3 17.6,4.1 z"
         style="fill:#ffffff;stroke:#c09300;stroke-width:1.27049994;stroke-linecap:round;stroke-linejoin:round" /><path
         id="path50"
         inkscape:connector-curvature="0"
         class="st8"
         d="m 477.1,363.5 c -6.5,0.9 -13.6,1.6 -19.1,0.9 -3.3,0 -5.6,5.5 0.7,6.3 5.6,0.7 14.3,0 19.1,-0.9 4,-0.7 12.8,-2.3 18.4,-3.9 5.6,-2.4 1.6,-7.2 -1.6,-6.5 -4.9,1.7 -11.2,3.3 -17.5,4.1 z"
         style="fill:#ffffff;stroke:#c09300;stroke-width:1.27049994;stroke-linecap:round;stroke-linejoin:round" /><path
         id="path52"
         inkscape:connector-curvature="0"
         class="st8"
         d="m 403.1,360.4 c -4.9,-0.9 -7.2,4.7 -5.6,7.9 0.7,-1.6 4,-1.6 4.7,-3.2 0.9,-2.4 -0.7,-2.4 0.9,-4.7 z"
         style="fill:#ffffff;stroke:#c09300;stroke-width:1.27049994;stroke-linecap:round;stroke-linejoin:round" /><path
         id="path54"
         inkscape:connector-curvature="0"
         class="st8"
         d="m 422.2,375.1 c 0,-3.2 3.2,-2.8 3.2,-5.9 0,-1.6 -0.9,-4 -2.4,-4 -1.6,0 -3.2,1.6 -3.2,3.2 -0.8,3 2.4,3.5 2.4,6.7 z"
         style="fill:#ffffff;stroke:#c09300;stroke-width:1.27049994;stroke-linecap:round;stroke-linejoin:round" /><path
         id="path56"
         inkscape:connector-curvature="0"
         class="st8"
         d="m 444.9,366 c 4.7,0 4.3,6.3 2,9.5 0,-2.3 -4,-3.2 -4,-4.7 -0.1,-2.5 3.6,-2.5 2,-4.8 z"
         style="fill:#ffffff;stroke:#c09300;stroke-width:1.27049994;stroke-linecap:round;stroke-linejoin:round" /><path
         id="path58"
         inkscape:connector-curvature="0"
         class="st8"
         d="m 496.9,360.4 c 4.9,-0.9 7.2,4.7 5.6,7.9 -0.7,-1.6 -4,-1.6 -4.7,-3.2 -0.9,-2.4 0.7,-2.4 -0.9,-4.7 z"
         style="fill:#ffffff;stroke:#c09300;stroke-width:1.27049994;stroke-linecap:round;stroke-linejoin:round" /><path
         id="path60"
         inkscape:connector-curvature="0"
         class="st8"
         d="m 477.8,375.1 c 0,-3.2 -3.2,-2.8 -3.2,-5.9 0,-1.6 0.9,-4 2.4,-4 1.6,0 3.2,1.6 3.2,3.2 0.8,3 -2.4,3.5 -2.4,6.7 z"
         style="fill:#ffffff;stroke:#c09300;stroke-width:1.27049994;stroke-linecap:round;stroke-linejoin:round" /><path
         id="path62"
         inkscape:connector-curvature="0"
         class="st8"
         d="m 455.1,366 c -4.7,0 -4.3,6.3 -2,9.5 0,-2.3 4,-3.2 4,-4.7 0.1,-2.5 -3.6,-2.5 -2,-4.8 z"
         style="fill:#ffffff;stroke:#c09300;stroke-width:1.27049994;stroke-linecap:round;stroke-linejoin:round" /><g
         id="g64"><path
           id="path66"
           inkscape:connector-curvature="0"
           class="st9"
           d="m 404.7,362 c 1.6,0 4,0.7 4.7,1.6 z"
           style="fill:#ffffff;stroke:#c09300;stroke-width:0.8915;stroke-linecap:round;stroke-linejoin:round" /><path
           id="path68"
           inkscape:connector-curvature="0"
           class="st9"
           d="m 412.5,364.4 c 0.9,0 4,0.7 5.6,1.6 z"
           style="fill:#ffffff;stroke:#c09300;stroke-width:0.8915;stroke-linecap:round;stroke-linejoin:round" /><path
           id="path70"
           inkscape:connector-curvature="0"
           class="st9"
           d="m 441.2,367.6 c -1.6,0 -4.7,0 -5.6,0.7 z"
           style="fill:#ffffff;stroke:#c09300;stroke-width:0.8915;stroke-linecap:round;stroke-linejoin:round" /><path
           id="path72"
           inkscape:connector-curvature="0"
           class="st9"
           d="m 432.5,367.6 c -0.9,-0.9 -4,-0.9 -5.6,0 z"
           style="fill:#ffffff;stroke:#c09300;stroke-width:0.8915;stroke-linecap:round;stroke-linejoin:round" /><path
           id="path74"
           inkscape:connector-curvature="0"
           class="st9"
           d="m 495.3,362 c -1.6,0 -3.9,0.7 -4.7,1.6 z"
           style="fill:#ffffff;stroke:#c09300;stroke-width:0.8915;stroke-linecap:round;stroke-linejoin:round" /><path
           id="path76"
           inkscape:connector-curvature="0"
           class="st9"
           d="m 487.4,364.4 c -0.9,0 -4,0.7 -5.6,1.6 z"
           style="fill:#ffffff;stroke:#c09300;stroke-width:0.8915;stroke-linecap:round;stroke-linejoin:round" /><path
           id="path78"
           inkscape:connector-curvature="0"
           class="st9"
           d="m 458.7,367.6 c 1.6,0 4.7,0 5.6,0.7 z"
           style="fill:#ffffff;stroke:#c09300;stroke-width:0.8915;stroke-linecap:round;stroke-linejoin:round" /><path
           id="path80"
           inkscape:connector-curvature="0"
           class="st9"
           d="m 467.5,367.6 c 0.9,-0.9 4,-0.9 5.6,0 z"
           style="fill:#ffffff;stroke:#c09300;stroke-width:0.8915;stroke-linecap:round;stroke-linejoin:round" /></g><g
         id="g82"><path
           id="path84"
           inkscape:connector-curvature="0"
           class="st3"
           d="m 403.3,374.6 c -0.5,-0.1 -0.8,-0.5 -0.7,-1 0.2,-0.6 0.7,-1 1.1,-0.8 0.3,0.1 0.8,0.6 0.8,0.8 0,0.2 -0.3,0.8 -0.4,0.8 -0.1,0 -0.1,0 -0.2,0.1 0,0.1 -0.3,0.1 -0.6,0.1 z"
           style="fill:#c09300" /><path
           id="path86"
           inkscape:connector-curvature="0"
           class="st3"
           d="m 458.3,378.5 c -0.2,-0.1 -0.5,-0.5 -0.5,-0.7 0,-0.4 0.6,-1 0.9,-1 0.2,0 0.7,0.2 0.8,0.4 0.3,0.3 0.3,0.9 -0.2,1.2 -0.1,0.2 -0.7,0.2 -1,0.1 z"
           style="fill:#c09300" /><path
           id="path88"
           inkscape:connector-curvature="0"
           class="st3"
           d="m 458.6,381 c -0.4,-0.1 -0.6,-0.3 -0.6,-0.8 0,-0.5 0,-0.6 0.5,-0.8 l 0.4,-0.2 0.3,0.2 c 0.5,0.2 0.7,0.4 0.7,0.8 0,0.3 -0.2,0.7 -0.6,0.9 -0.3,0 -0.3,0 -0.7,-0.1 z"
           style="fill:#c09300" /><path
           id="path90"
           inkscape:connector-curvature="0"
           class="st3"
           d="m 407.7,370.1 c -0.3,0 -0.8,0.3 -1.1,0.5 -0.6,0.2 -1.4,0.6 -2,0.1 -0.6,-0.2 -1.4,0 -1.5,0.7 0.2,0.7 1.1,1 1.6,0.6 0.4,-0.5 1.5,-0.9 1.7,0.1 -0.5,0.7 -0.4,1.6 -0.8,2.3 -0.1,0.5 -0.3,0.9 -0.5,1.3 -0.5,0 -1,0 -1.3,0.3 -0.6,0 -1.3,0.3 -1.6,0.9 -0.4,0.6 -0.8,1.2 -0.9,1.9 0.1,0.7 0.9,0.9 1.6,1 0.7,0.2 1.3,0.4 2,0.6 1.1,0.2 2.1,0.6 3.2,0.9 1.6,0.5 3.2,0.7 4.8,1.1 0.2,0.1 0.3,0.1 0.5,0.1 0.7,0.1 1,-0.6 1.1,-1.1 0.3,-1.2 0.6,-2.3 0.9,-3.5 0.2,-0.5 0.5,-1.5 -0.4,-1.3 -0.5,0.3 -1,0.8 -1.6,0.8 -0.9,0.1 -0.4,0.9 0,1.3 0.1,0.6 -0.1,1.3 -0.5,1.7 -0.5,0.3 -1.2,-0.1 -1.7,-0.2 -0.6,0 -1.7,-0.3 -1.2,-1.1 0.2,-0.6 0.2,-1.2 0.4,-1.8 0.3,-0.6 0.3,-1.3 0.5,-1.9 -0.4,-0.8 -1,0.3 -1.5,0.3 -0.3,0.2 -1.6,0.3 -0.9,0.9 0.6,0.4 0.1,1.2 0,1.8 0,0.8 -0.8,1 -1.5,0.8 -0.6,0 -1.5,-0.5 -1,-1.2 0.1,-0.6 0.3,-1.1 0.4,-1.7 0.2,-0.7 0.4,-1.4 0.7,-2.1 0.1,-0.6 0.3,-1.2 0.6,-1.8 0,-0.7 0.5,-1.3 0.5,-2 -0.1,-0.2 -0.2,-0.3 -0.5,-0.3 z m -3.5,7.2 c 0.1,0 0.1,0 0.2,0 0.2,0.1 0.3,0.3 0,0.5 -0.1,0.1 -0.2,0.2 -0.3,0.2 -0.5,0 -0.6,-0.1 -0.6,-0.3 0,-0.2 0,-0.2 0.3,-0.3 0.2,0 0.3,0 0.4,-0.1 z"
           style="fill:#c09300" /><path
           id="path92"
           inkscape:connector-curvature="0"
           class="st3"
           d="m 403.1,382.4 c -0.5,-0.5 -0.4,-0.8 0.3,-1.4 0.3,-0.2 0.5,-0.2 0.9,0.1 0.6,0.5 0.6,0.8 0.1,1.3 -0.2,0.2 -0.3,0.3 -0.6,0.3 -0.3,-0.1 -0.4,-0.1 -0.7,-0.3 z"
           style="fill:#c09300" /><path
           id="path94"
           inkscape:connector-curvature="0"
           class="st3"
           d="m 406.2,383.3 c -0.5,-0.1 -0.8,-0.6 -0.6,-1.1 0.1,-0.4 0.2,-0.5 0.8,-0.5 0.7,0 0.9,0.1 0.9,0.7 0,0.4 0,0.4 -0.2,0.6 -0.3,0.2 -0.7,0.3 -0.9,0.3 z"
           style="fill:#c09300" /><path
           id="path96"
           inkscape:connector-curvature="0"
           class="st3"
           d="m 495.3,383.4 c -0.2,-0.2 -0.3,-0.3 -0.3,-0.5 0,-0.4 0.2,-0.7 0.7,-0.9 0.7,-0.3 1,-0.3 1.2,0.2 0.3,0.6 0.3,0.8 -0.1,1.3 -0.2,0.2 -0.3,0.2 -0.8,0.2 -0.4,-0.1 -0.5,-0.1 -0.7,-0.3 z"
           style="fill:#c09300" /><path
           id="path98"
           inkscape:connector-curvature="0"
           class="st3"
           d="m 410.2,384.5 c -0.4,-0.1 -0.6,-0.4 -0.6,-0.8 0,-0.3 0,-0.4 0.3,-0.6 0.2,-0.1 0.4,-0.2 0.6,-0.2 0.3,0 0.4,0 0.6,0.1 0.6,0.4 0.7,0.8 0.3,1.1 -0.3,0.5 -0.6,0.6 -1.2,0.4 z"
           style="fill:#c09300" /><path
           id="path100"
           inkscape:connector-curvature="0"
           class="st3"
           d="m 432.1,385.5 c -0.1,-0.1 -0.3,-0.2 -0.3,-0.3 0,-0.6 0.1,-1.1 0.2,-1.6 0.1,-0.5 0,-1.1 0.2,-1.6 0.2,-0.9 0.2,-1.9 0.4,-2.8 0,-0.5 0.1,-0.9 0.2,-1.4 0.2,-0.7 0,-1.5 0.2,-2.2 0,-0.3 0.3,-1 0.6,-0.6 0.4,0.6 0.9,1 1.4,1.5 0.4,0.3 0,0.6 -0.3,0.7 -0.4,0.2 -0.5,0.6 -0.5,1 -0.1,0.4 -0.2,0.8 -0.2,1.2 -0.1,0.6 -0.1,1.3 -0.2,1.9 -0.2,0.6 -0.1,1.3 -0.2,1.9 0,0.4 -0.2,0.8 -0.2,1.2 0,0.4 -0.1,0.9 -0.4,1.2 -0.1,0.2 -0.6,0.2 -0.9,-0.1 z"
           style="fill:#c09300" /><path
           id="path102"
           inkscape:connector-curvature="0"
           class="st3"
           d="m 461.8,375.7 c -0.5,0.4 -0.9,0.8 -1.3,1.2 -0.6,0.4 0.5,0.7 0.6,1.1 0.2,0.6 0.1,1.2 0.2,1.8 0.2,0.6 0.3,1.1 0.2,1.7 -0.1,0.6 -0.9,0.5 -1.2,0.8 -0.5,0.2 -0.7,0.7 -1.1,1 -0.2,0.5 -0.3,1.1 -0.3,1.6 0,0.4 -0.3,0.9 0,1.3 0,0.1 0.1,0.1 0.1,0.2 0.1,0.1 0.3,0 0.5,0.1 0.5,0 1,0 1.5,-0.2 1.2,-0.2 2.4,-0.2 3.7,-0.3 0.7,0 1.5,-0.2 2.2,-0.2 0.6,0.1 0.9,-0.5 0.8,-1 -0.3,-0.7 0,-1.4 -0.3,-2.1 -0.2,-0.7 -0.1,-1.4 -0.3,-2.1 0,-0.5 -0.7,-0.8 -1.1,-0.3 -0.3,0.3 -0.9,0.4 -1.2,0.8 -0.3,0.6 0.6,0.6 0.8,1.1 0.2,0.5 0.1,1 0.2,1.5 0.1,0.6 -0.5,0.6 -0.9,0.7 -0.5,0.2 -1.3,0.3 -1.6,-0.3 -0.2,-0.5 -0.2,-1 -0.2,-1.5 0,-0.9 -0.2,-1.8 -0.3,-2.7 -0.1,-1.1 -0.2,-2.2 -0.3,-3.3 0,-0.3 0,-1 -0.7,-0.9 z m -0.6,8.2 h 0.3 v 0.4 0.4 l -0.4,0.1 c -0.2,0.1 -0.4,0.1 -0.4,0.1 0,0 -0.1,-0.1 -0.2,-0.1 -0.2,-0.2 -0.2,-0.4 0.1,-0.7 0.3,-0.1 0.4,-0.2 0.6,-0.2 z"
           style="fill:#c09300" /><path
           id="path104"
           inkscape:connector-curvature="0"
           class="st3"
           d="m 431.2,374.7 c -0.4,0.1 -0.9,0.7 -1.3,0.7 -0.9,0.1 -0.8,0.9 -0.1,1.2 0.1,0.3 0,0.6 0,0.9 0.1,0.8 -0.4,1.4 -0.3,2.2 0,0.9 -0.3,1.7 -0.3,2.6 -0.2,0.9 -0.2,1.8 -0.4,2.8 -0.1,0.8 -0.7,0.5 -1.2,0.3 0,-0.4 0,-0.7 0,-1.1 0.2,-0.8 -0.4,-1.1 -1.1,-1.2 -0.7,0.1 -1,-0.5 -0.9,-1.1 0.3,-0.4 1,-0.3 1.5,-0.3 1,0.2 0.9,-1.1 0.4,-1.6 -0.3,-0.6 -1.2,-0.9 -1.4,-1.6 0.1,-0.9 -0.5,-1.7 -1.2,-2.2 -1.1,-0.1 -1.9,0.9 -2.3,1.8 -0.5,0.1 -0.9,0.3 -1.3,0.4 -0.7,0.2 -1.7,1.4 -0.8,1.9 0.5,0.1 2.2,0.5 1.5,1.3 -0.4,0.7 -1.2,0.7 -1.9,0.5 -0.7,0 -1.5,-0.4 -1.5,-1.2 -0.1,-0.7 -0.1,-1.6 -0.5,-2.2 -0.1,-0.8 -1.1,-0.6 -1.2,0.1 -0.7,0.5 -0.6,1.4 -0.1,2 0.3,0.7 0,1.6 -0.3,2.3 -0.2,0.9 -1.2,0.9 -1.8,1.2 -0.3,0.1 -1.6,-0.1 -1.2,0.7 0.8,0.3 1.7,0.5 2.4,0.3 0.8,-0.1 1.5,-0.7 1.9,-1.4 0.6,-0.6 1.5,-0.3 2.2,-0.3 0.8,0 1.6,0.5 2.3,0.2 0.2,-0.6 1.2,-1.5 1.5,-0.5 -0.1,0.9 0.7,1.3 1.5,1.2 0.9,0 0.5,0.6 0.5,1.1 0.1,0.9 0.7,1.4 1.4,1.8 0.3,0.1 0.5,0 0.8,0 0.7,-0.2 1.6,-0.6 1.8,-1.4 0.3,-0.7 0.3,-1.5 0.5,-2.2 0.2,-1.1 0.4,-2.3 0.4,-3.4 0.3,-1 0.2,-2.1 0.4,-3.2 0.1,-0.8 0.2,-1.6 0.3,-2.3 0.3,-0.4 0.1,-0.4 -0.2,-0.3 z m -6.7,4.1 c 0.2,0 0.2,0.2 0.3,0.5 0,0.4 0.2,0.7 0.4,0.7 0.2,0 0.2,0.2 0,0.4 -0.1,0.1 -0.3,0.1 -0.7,0.1 -0.6,0 -0.9,-0.2 -1.3,-0.5 l -0.2,-0.2 0.3,-0.2 c 0.1,-0.1 0.4,-0.3 0.6,-0.5 0.2,-0.2 0.4,-0.3 0.6,-0.3 z"
           style="fill:#c09300" /><path
           id="path106"
           inkscape:connector-curvature="0"
           class="st3"
           d="m 490.5,370.9 c -0.6,0 -1.1,0.1 -1.7,0.2 -1,-0.1 -1.6,1 -0.6,1.6 0.6,1.5 1.5,-0.3 2.5,-0.2 1.4,0.3 1.6,1.8 1.8,3 0.1,1.2 0.4,2.3 0.8,3.4 1,1.1 -0.7,1.7 -1.4,0.9 -0.6,-0.7 -1.9,-1.5 -2.7,-0.6 -0.9,0.4 -0.9,1.6 -1.7,1.9 -1.2,0.4 -1.4,-1.1 -2,-1.7 -0.6,-0.8 -1.7,-0.9 -2.6,-1.2 -0.4,-0.9 -0.2,-2.3 -1.1,-2.9 -0.7,0.3 -2.1,1.7 -1,2.3 1.1,1 -0.5,1.4 -1,2.1 -0.7,0.8 -0.8,1.9 -1,3 -1.3,0.7 -1.5,-0.8 -1.7,-1.7 -0.1,-1.1 -1,-0.8 -1.7,-0.4 -1,0.4 -1.4,1.3 -2.1,2 -0.1,0.6 0,1.4 0,2 0.2,0.8 1.2,0.4 1.8,0.4 1,-0.4 1.4,0.6 0.6,1.2 -0.5,0.7 -2.2,0.3 -2.1,1.4 0.5,0.1 1.1,0 1.7,0 1.1,-0.3 2.3,-1.1 2.4,-2.3 0.1,-1.1 1.7,-0.9 2.5,-1.1 1,-0.3 2.3,-0.4 2.5,0.9 0.7,0.7 2.2,1.6 3,0.6 0.8,-0.5 1.2,-1.3 1.1,-2.3 -0.2,-0.8 1.3,-0.8 1.6,-0.4 0.5,0.9 2.2,0.6 2.9,0.1 0.8,-0.6 1,-1.7 2.2,-1.7 1.8,-0.5 3.6,-0.8 5.4,-1.5 1.4,-0.3 -0.2,-1.2 -0.6,-1.7 -1.1,-0.5 -2,1.6 -3.2,0.6 -0.9,-0.7 -0.9,-2.1 -1.2,-3.1 -0.2,-1.4 -0.2,-2.9 -1.2,-4 -0.3,-0.6 -1.3,-0.8 -2.2,-0.8 z m -6.8,9.5 c 0.1,0 0.3,0.1 0.5,0.2 0.4,0.2 0.8,0.6 0.8,1 0,0.2 -0.1,0.2 -0.4,0.4 -0.2,0.1 -0.4,0.2 -0.5,0.2 -0.2,0 -0.6,-0.4 -0.6,-0.5 0,-0.1 -0.1,-0.3 -0.1,-0.5 -0.1,-0.3 -0.1,-0.3 0.1,-0.5 0,-0.2 0.1,-0.3 0.2,-0.3 z m 6.5,0.4 c 0.4,0 0.6,0.1 0.7,0.4 0.2,0.3 0.1,0.6 -0.4,0.8 -0.2,0.1 -0.4,0.2 -0.4,0.2 0,0 -0.2,-0.1 -0.4,-0.2 -0.3,-0.2 -0.3,-0.3 -0.3,-0.5 0,-0.4 0.4,-0.7 0.8,-0.7 z m -8.9,0 c 0.1,0 0.2,0 0.3,0.2 0.2,0.2 0.2,0.3 0.3,0.6 0,0.2 0,0.5 0,0.6 0,0.2 -0.1,0.2 -0.6,0.2 -0.6,0 -0.7,-0.1 -0.7,-0.7 0,-0.4 0,-0.5 0.2,-0.7 0.2,-0.1 0.4,-0.1 0.5,-0.2 z m -5.5,1.5 c 0.2,0 0.4,0.2 0.4,0.4 0.1,0.3 0,0.5 -0.3,0.6 -0.2,0.1 -0.7,0.2 -0.9,0.1 0,0 -0.1,-0.1 -0.2,-0.2 -0.1,-0.1 -0.1,-0.2 0,-0.3 0.1,0 0.1,-0.1 0.1,-0.2 0,-0.1 0.1,-0.2 0.2,-0.3 0.3,-0.1 0.5,-0.2 0.7,-0.1 z m 9.2,1.2 c 0.2,0 0.3,0.1 0.4,0.2 0.2,0.2 0.2,0.4 0,0.6 -0.1,0.1 -0.9,0.1 -1.1,0 -0.1,0 -0.2,-0.1 -0.2,-0.2 0,-0.1 0,-0.2 0.3,-0.3 0.2,-0.3 0.5,-0.3 0.6,-0.3 z"
           style="fill:#c09300" /><path
           id="path108"
           inkscape:connector-curvature="0"
           class="st3"
           d="m 467.9,388.3 c -0.1,-0.1 -0.2,-0.1 -0.1,-0.2 0.2,-0.3 0.5,-0.4 0.8,-0.5 0.5,-0.2 1,-0.6 1.4,-1.1 0,-0.3 0.4,-0.5 0.4,-0.9 0,-0.5 0,-1 -0.1,-1.4 -0.1,-0.4 -0.5,-0.8 -0.8,-1 -0.3,-0.2 -0.7,-0.3 -0.8,-0.6 -0.1,-0.3 0.3,-0.6 0.4,-0.9 0.2,-0.4 0.4,-0.9 0.7,-1.3 0.3,-0.3 0.7,0 0.8,0.3 0.2,0.3 0.4,0.6 0.5,0.9 0.3,0.3 0.6,0.7 0.7,1.2 0.1,0.3 0.4,0.6 0.4,1 0,0.4 0.2,0.8 0.2,1.2 0,0.6 0,1.1 -0.2,1.7 -0.1,0.3 -0.4,0.5 -0.6,0.7 -0.3,0.3 -0.7,0.6 -1.1,0.7 -0.3,0.1 -0.5,0.4 -0.8,0.3 -0.5,0 -1,0.1 -1.5,0 -0.2,0 -0.4,-0.1 -0.3,-0.1 z"
           style="fill:#c09300" /><path
           id="path110"
           inkscape:connector-curvature="0"
           class="st3"
           d="m 461,388.7 c -0.2,-0.2 -0.3,-0.4 -0.3,-0.6 0,-0.2 0,-0.3 0.3,-0.6 0.4,-0.4 0.7,-0.5 1.4,-0.1 0.7,0.4 1,0.4 1,0.1 0.1,-0.3 0.5,-0.5 0.9,-0.5 0.3,0 0.4,0 0.6,0.2 0.3,0.2 0.3,0.2 0.3,0.7 0,0.5 0,0.5 -0.3,0.7 -0.3,0.2 -0.3,0.3 -0.7,0.2 -0.4,0 -0.7,-0.2 -0.8,-0.6 -0.1,-0.3 -0.1,-0.3 -0.2,-0.1 0,0.1 -0.1,0.1 -0.2,0.1 -0.2,0.1 -0.5,0.3 -0.8,0.5 -0.1,0.1 -0.3,0.1 -0.5,0.1 -0.4,0.2 -0.4,0.2 -0.7,-0.1 z"
           style="fill:#c09300" /><path
           id="path112"
           inkscape:connector-curvature="0"
           class="st3"
           d="m 441.2,379.8 c -0.7,0 -1.4,0.6 -1.5,1.2 0.2,0.8 0.8,1.5 0.4,2.3 0.3,1 -0.8,1.4 -1.5,0.8 -0.4,-1 -0.6,-2 -1.3,-2.9 -0.8,-0.2 -1.2,1.1 -1.7,1.5 0.3,0.8 1.1,1.4 1.2,2.4 0.2,0.9 -0.4,1.9 -1.2,2.4 -0.7,0.7 -1.6,0.4 -2.5,0.6 -1,0.6 0.8,0.8 1.2,0.8 1,0.1 2.1,0 2.9,-0.8 0.8,-0.4 0.7,-1.7 1.6,-1.8 1.6,-0.1 3.2,0.2 4.8,0.3 0.8,0.2 2.2,-0.1 2.7,0.5 0,1.1 0.9,1.8 1.8,2.2 0.5,0.1 1,-0.5 1.5,-0.6 1,-0.3 0.7,-1.5 1.3,-2 1.7,-0.1 3.3,-0.1 5,-0.1 0.3,0 0.4,-0.4 0.6,-0.6 0,-0.6 -0.1,-1.3 -0.2,-1.9 -0.3,-0.8 0.1,-1.8 -0.5,-2.5 -0.8,-0.2 -1.5,0.5 -2.4,0.6 -0.9,0.4 -1.7,1.3 -1.8,2.3 -0.5,0.9 -1.4,-0.2 -1.1,-0.9 0,-0.3 0.1,-0.7 0,-1 -0.5,-0.6 -1.4,-0.4 -2.1,-0.5 -1,0 -2,-0.2 -3,-0.2 -0.9,-0.1 -1.8,0.1 -2.7,-0.2 -1,0 -0.9,-1 -1.1,-1.7 0,-0.1 -0.2,-0.2 -0.4,-0.2 z m 2,3.7 c 0.3,0 0.7,0.1 1,0.1 0.4,0.1 0.9,-0.1 1.3,0 1,0.2 2,0.1 2.9,0.2 0.3,0 0.4,0.2 0.6,0.3 0,0.7 0,1.4 0,2.1 0,0.3 0.1,0.6 -0.2,0.8 -0.1,0.1 -0.2,0.1 -0.3,0.1 -0.3,-0.1 -0.6,-0.2 -0.7,-0.5 0,-0.4 0,-0.7 0,-1.1 0,-0.1 0,-0.2 0,-0.3 -0.2,-0.2 -0.5,-0.2 -0.7,-0.3 -0.8,0 -1.7,-0.1 -2.5,-0.1 -0.7,0 -1.4,0.1 -2.1,-0.1 -0.3,-0.1 -0.6,-0.1 -0.8,-0.3 -0.2,-0.3 0.1,-0.6 0.3,-0.7 0.5,-0.1 0.8,-0.2 1.2,-0.2 z m 11.3,0.3 c 0.2,0 0.2,0 0.3,0.3 0,0.2 0.1,0.4 0.1,0.5 0,0.1 0,0.2 -0.2,0.2 -0.5,0.2 -1,0.2 -1.2,-0.1 -0.1,-0.1 0,-0.4 0.2,-0.6 0.3,-0.1 0.6,-0.3 0.8,-0.3 z"
           style="fill:#c09300" /></g></g><path
       id="path114"
       inkscape:connector-curvature="0"
       class="st10"
       d="m 450,327.2 c 32.6,-25.1 29.8,-61.9 29.8,-61.9 -0.9,0.2 -1.7,0.3 -2.5,0.3 -6.8,0 -23.2,-3.9 -27,-8.9 -4.1,4.5 -20.8,8.9 -27.6,8.9 -0.9,0 -1.7,-0.1 -2.5,-0.3 0,0 -2.9,36.8 29.8,61.9 z"
       style="fill:#ffffff;stroke:#c09300;stroke-width:1.15020001" /><path
       id="path116"
       inkscape:connector-curvature="0"
       class="st11"
       d="m 477.2,268 c -0.3,0 -0.6,0 -0.8,0 -6.2,0 -20.6,-3.2 -26.2,-8 -5.8,4.4 -20.5,8 -26.6,8 -0.3,0 -0.6,0 -0.8,-0.1 0,1.4 0.1,2.8 0.1,4.1 0.3,4.9 1.2,9.8 2.5,14.6 4.1,14.9 12.5,27.6 24.6,37.2 12.1,-9.6 20.5,-22.3 24.6,-37.2 1.3,-4.7 2.2,-9.6 2.5,-14.5 0.1,-1.3 0.1,-2.7 0.1,-4.1 z"
       style="fill:#ffffff;stroke:#c09300;stroke-width:0.91570002" /><path
       id="path118"
       inkscape:connector-curvature="0"
       class="st3"
       d="m 439.4,265 c -5.9,1.8 -12.2,3 -15.7,3 -0.3,0 -0.6,0 -0.8,-0.1 0,1.4 0.1,2.8 0.2,4.2 0.3,4.9 1.2,9.8 2.5,14.5 2.8,10 7.5,19 14,26.8 z"
       style="fill:#c09300" /><path
       id="path120"
       inkscape:connector-curvature="0"
       class="st3"
       d="m 460,264.9 v 49.2 c 6.8,-7.9 11.7,-17.2 14.6,-27.6 1.3,-4.7 2.1,-9.6 2.5,-14.5 0.1,-1.3 0.2,-2.7 0.2,-4.1 -0.3,0 -0.6,0 -0.8,0 -3.9,0.2 -10.5,-1 -16.5,-3 z"
       style="fill:#c09300" /><g
       id="g122"><path
         id="path124"
         inkscape:connector-curvature="0"
         class="st12"
         d="m 462.3,253.1 c 0.7,0 -0.9,-3.6 -0.9,-3.6 1.8,1.8 8.4,2.2 8.4,2.2 -4,-1.8 -8,-15.1 -7.5,-25.7 0.4,-10.7 -1.5,-14.9 -3.1,-16.4 -2,-2 -8.4,-3.8 -12.7,-4 -2.4,-0.1 -2,1.8 -2,1.8 -4.4,-1.1 -8.9,-1.6 -10.9,-0.2 -1.9,1.3 -2.3,7.5 -0.9,6.4 3.3,-2.7 6.2,-0.2 8.2,2.7 1.8,2.5 1.6,9.8 -0.9,18.2 -2.7,8.9 -10,17.7 -10,17.7 4,0 9.5,-3.5 9.5,-3.5 l -1.3,5.5 c 4.2,-2 7.5,-5.1 7.5,-5.1 l 4,4.2 c 1.3,-1.8 4,-4.2 4,-4.2 0,0 3.5,3.5 8.6,4 z"
         style="fill:#ffffff;stroke:#c09300;stroke-width:1.21790004" /><path
         id="path126"
         inkscape:connector-curvature="0"
         class="st13"
         d="m 446.1,227.6 c 0,0 -2.2,16.4 -6.4,21.1"
         style="fill:none;stroke:#c09300;stroke-width:1.27040005" /><path
         id="path128"
         inkscape:connector-curvature="0"
         class="st13"
         d="m 449.6,227.1 c 0,0 -0.9,16.6 -3.8,22"
         style="fill:none;stroke:#c09300;stroke-width:1.27040005" /><path
         id="path130"
         inkscape:connector-curvature="0"
         class="st13"
         d="m 452.8,227.8 c 0,0 0,18.2 1.1,21.3"
         style="fill:none;stroke:#c09300;stroke-width:1.27040005" /><path
         id="path132"
         inkscape:connector-curvature="0"
         class="st13"
         d="m 456.7,228.7 c 0,0 0.9,15.3 4.7,20.8"
         style="fill:none;stroke:#c09300;stroke-width:1.27040005" /><path
         id="path134"
         inkscape:connector-curvature="0"
         class="st14"
         d="m 442.1,219.6 c -0.2,-1.5 -0.5,-2.6 -1.1,-3.3 -2,-2.9 -4.9,-5.3 -8.2,-2.7 0,0 1.1,-3.5 3.6,-3.6 1.9,-0.1 6.2,1.4 9.9,7.8 0,0 -2.8,-0.6 -3.5,0 -1.2,1.1 -0.7,1.8 -0.7,1.8 z"
         style="fill:#c09300;stroke:#c09300;stroke-width:0.35420001" /><path
         id="path136"
         inkscape:connector-curvature="0"
         class="st14"
         d="m 432.4,209.3 c 0.3,-0.9 0.7,-1.7 1.3,-2.1 2,-1.3 6.4,-0.9 10.9,0.2 0,0 -0.4,-1.9 2,-1.8 4.2,0.2 10.7,2 12.7,4 0.5,0.5 1,1.3 1.5,2.4 h -0.1 c -1,-1.4 -3.8,-1.3 -4.4,-1.2 -1.1,0.1 -1.7,0.1 -3.1,0.4 -0.7,0.2 -1.7,0.4 -2.2,0.8 -0.4,0.4 -0.8,1.6 -1.5,1.6 -1.1,0 -1,-0.3 -1.3,-0.6 -0.4,-0.4 -0.5,-1.1 -0.9,-1 -1.1,0.2 -2.9,-0.7 -5.1,-2.4 -2.2,-1.8 -3.1,-2.2 -6,-2 -2.9,0.2 -3.8,1.8 -3.8,1.8 z"
         style="fill:#c09300;stroke:#c09300;stroke-width:0.35420001" /><circle
         id="circle138"
         class="st0"
         cx="448.79999"
         cy="210.7"
         r="1.2"
         style="fill:#ffffff" /></g></g></svg>