<?xml version="1.0" encoding="utf-8"?>
<!-- Generator: Adobe Illustrator 21.0.0, SVG Export Plug-In . SVG Version: 6.00 Build 0)  -->
<svg version="1.1" id="Слой_1" xmlns="http://www.w3.org/2000/svg" xmlns:xlink="http://www.w3.org/1999/xlink" x="0px" y="0px"
	 viewBox="0 0 388 218" style="enable-background:new 0 0 388 218;" xml:space="preserve">
<style type="text/css">
	.st0{opacity:0.21;}
	.st1{fill:#2883B5;}
</style>
<g class="st0">
	<g>
		<polygon class="st1" points="118.8,83.4 118.8,76.1 124,71 126.4,71 130.7,66.7 137.6,66.7 142.1,62.2 142.1,43.6 144.8,40.8 
			144.8,27.1 154.2,17.7 147.1,10.6 143.3,14.4 141.4,14.4 136.2,19.5 134,19.5 141.1,12.4 132.8,12.4 129.6,15.6 127.5,13.5 
			130.8,10.1 139,10.1 141,8.1 134.5,1.7 127.9,1.7 125.7,-0.5 118,-0.5 111.9,5.5 116.5,10.1 115,11.5 111.5,8 106.1,8 101.8,12.3 
			105.5,15.9 103.7,17.7 101.1,15.1 96.1,20.2 100.7,24.8 100.7,27.2 94.7,27.2 89.4,32.5 89.4,35.5 96.2,35.5 98.3,37.6 92.7,37.6 
			96.9,41.7 102.1,41.7 106.5,46.1 106.5,55.1 111.9,60.5 111.9,66.5 109.7,68.8 109.7,75.7 117.3,83.3 		"/>
		<polygon class="st1" points="111.4,75 111.4,69.5 113.6,67.2 113.6,59.8 108.2,54.4 108.2,45.4 102.8,40 97.6,40 96.8,39.3 
			102.3,39.3 96.9,33.9 91.1,33.9 91.1,33.2 95.4,28.9 102.4,28.9 102.4,24.1 98.4,20.2 101.1,17.5 103.7,20.1 107.8,15.9 
			104.2,12.3 106.8,9.7 110.8,9.7 115,13.9 118.9,10.1 114.3,5.5 118.7,1.2 125,1.2 127.2,3.4 133.8,3.4 138.6,8.1 138.3,8.4 
			130.1,8.4 125.1,13.5 129.6,18 133.5,14.1 137,14.1 129.9,21.2 136.9,21.2 142.1,16.1 144,16.1 147.1,13 151.8,17.7 143.1,26.4 
			143.1,40.1 140.4,42.9 140.4,61.5 136.9,65 130,65 125.7,69.3 123.3,69.3 117.1,75.4 117.1,80.8 		"/>
	</g>
	<polygon class="st1" points="61.7,49 61.7,55.3 57.9,55.3 57.9,56.9 61.4,56.9 61.4,60.2 58,63.6 49.7,63.6 49.7,60.8 54.1,56.4 
		54.1,52.1 57.2,49 61.7,49 	"/>
	<polygon class="st1" points="48.9,59.6 51.9,56.6 51.9,50.2 49,47.2 42.1,47.2 39.6,49.7 43.5,53.7 43.5,57.5 47.3,61.3 	"/>
	<polygon class="st1" points="83,61.4 79,61.4 79,64.2 78.2,64.9 78.2,68.7 82,72.6 86,68.6 86,64.4 	"/>
	<polygon class="st1" points="68.3,66.2 70.5,64 67.9,61.4 66.7,61.4 66.7,63.2 65.5,64.4 67.4,66.2 	"/>
	<g>
		<polygon class="st1" points="78.5,106.4 76.9,108 76.9,112.1 78.4,112.1 78.4,109.8 79.5,108.7 81.7,108.7 80.4,109.9 80.4,113.4 
			83,113.4 85.7,110.6 84.6,109.4 82.4,111.6 82.4,110 84.4,108 82.8,106.4 78.8,106.4 		"/>
		<polygon class="st1" points="76.3,105.9 77.3,105.4 79.8,105.4 78.4,102.5 75.3,102.5 73.2,104.5 74.7,106 		"/>
		<polygon class="st1" points="65.4,95.5 65.4,96.7 65.8,97.4 65.8,99.2 67.9,98.2 67.9,95.9 66.4,94.4 		"/>
		<path class="st1" d="M119.9,154.6H114l-3.3-3.3h-5.8l-7.4-7.4h-6.3l-2.8,2.8h-4.4l-2-2v-5.1h-3.6l-2.2-2.2l3.3-3.3h-2.9l-2.3,2.3
			h-2l-2.8-2.8v-5.8l3.3-3.3h7.8v3.8l2,2v-5.9l4.6-4.6v-3.2l5.2-5.2v-3h4.2l1.7,1.7l3.7-3.7h-2.4v-4.5h-2.1l-2.9,2.9h-2l4.1-4.1h7.2
			l3.1-3.1v-2.3l-5-5v-3.6L99.3,84l-3.2,3.2l-1.3-1.3v-3.4l-3.7-3.7h-3.2v5.6l-1.9,1.9l2.3,2.3v2.2l-1.8,1.8v4.1l-1.3,1.3l-2.5-2.5
			v-3.7h-9.4l-4.5-4.5v-8l4.3-4.3h2.2l2.8-2.8l-1.2-1.2v-3.4v-3.3l-1.2-1.2v1.5h-3.8L69,67.3h-6.2l-3.6-3.6l-1.6,1.6l4.7,4.7h-2.5
			L58,68.1h-5.1v-1.5l-2.1-2.1h-3.4l-3.3-3.3L43,60.2h-1.6l-1.9,1.9h-9.4l-4.2,4.2l-7.6-7.6h-6.6l-4.6,4.6l5,5l-1.8,1.8H3.7
			l-2.1,2.1l2.3,2.3h7.3L8.8,77H4.7l-4.5,4.5l4.1,4.1h4.9l2.9,2.9L1.9,98.7h4l12.8-12.8h11.7l8,8v4l4.2,4.2v5.3l2.5,2.5v9.7l4.2,4.2
			h1.8l9.9,9.9h-2.7l7,7h5.2l2.2,2.2h5l5.7,5.7h4.8v4.4l-0.8,0.7l2.1,2.1l3.5,3.5v4.3l3.7,3.7v5.6v6.8l-2.7,2.7v2.2l0.9,0.9v3.9
			l-2.3,2.3v1.9l1.9,1.9v2.6l-0.8,0.8v1.7l-1.7,1.7v2.3l0.7,0.7v2.5l-2.1,2.1v2.1l1.8,1.8h2.1l1,1h2.2l-2.1-2.1v-3.8l1-1v-2.2
			l2.3-2.3v-4.6l3.8-3.8h3.8v-3.1l-2.3-2.3l2-2h2.2l6.3-6.3v-3.6h4l3.8-3.8v-6.1l3-3v-4.2L119.9,154.6z M82.7,106.4l1.5,1.5l-2,2
			v1.6l2.2-2.2l1.2,1.2l-2.8,2.8h-2.5v-3.5l1.2-1.2h-2.2l-1.1,1.1v2.4h-1.5V108l1.6-1.6l0.3,0H82.7z M75.2,102.4h3.1l1.4,2.9l-2.4,0
			l-1,0.6l-1.6,0l-1.4-1.4L75.2,102.4z M67.9,98.2l-2.1,1l0-1.8l-0.4-0.8l0-1.2l1.1-1.1l1.5,1.5V98.2z"/>
		<polygon class="st1" points="94.5,213.4 92.4,213.4 90.6,211.6 90.6,209.6 92.7,207.5 92.7,205 92,204.3 92,202 93.6,200.3 
			93.6,198.6 94.5,197.8 94.5,195.2 92.6,193.4 92.6,191.5 94.9,189.2 94.9,185.4 94,184.5 94,182.3 96.8,179.6 96.8,172.8 
			96.8,167.2 93.1,163.6 93.1,159.3 89.6,155.8 87.5,153.7 84.5,156.7 88.2,160.5 88.2,165.1 95.6,172.5 95.6,178.8 90.8,183.6 
			90.8,194.3 92.2,195.7 92.2,200.5 90,202.7 90,213.1 95,218.2 101.1,218.2 102.4,216.8 101,215.4 98.8,215.4 97.8,214.4 
			95.5,214.4 		"/>
	</g>
	<g>
		<polygon class="st1" points="67.2,53.7 68.8,52.1 68.8,48.8 67.2,47.2 63.6,47.2 62.3,48.5 64.4,50.6 64.4,52.6 66.3,54.6 		"/>
		<polygon class="st1" points="76.5,50.5 85.9,50.5 95.1,59.6 95.1,64.5 97.7,67.1 99.4,67.1 101.5,69.3 101.5,71.8 99.2,74.1 
			96.3,71.3 94.5,73 98.4,76.9 98.4,80.3 93.9,75.8 90.1,75.8 87.2,72.9 90.2,72.9 90.2,70.4 91.8,68.8 91.8,66.3 86,60.5 
			78.9,60.5 74.8,56.3 74.8,51.6 75.9,50.5 		"/>
		<polygon class="st1" points="80.7,43.8 75.5,43.8 75.5,41 72.5,37.9 69.1,37.9 69.1,40.6 66.9,42.8 66.9,45.6 69,47.7 72.2,47.7 
			72.2,45.3 69.8,42.9 69.8,41.4 72.8,41.4 72.8,44.6 75.2,47.1 84,47.1 		"/>
		<polygon class="st1" points="69.8,49 72.7,49 74.2,50.5 73,51.7 73,55.8 71.3,57.5 74.6,60.7 72.1,63.2 69.1,60.2 69.1,56 
			70.9,54.2 70.9,51.9 69.8,50.8 		"/>
		<polygon class="st1" points="60.6,42.3 60.6,46.6 56.8,46.6 53.9,49.5 51.3,46.9 49.1,46.9 46.8,44.6 50.9,40.5 53.2,40.5 
			56.4,43.7 57.4,43.7 57.4,41.3 55.9,39.8 57.4,38.3 58.9,38.3 58.9,41.9 60.6,41.9 		"/>
		<polygon class="st1" points="46.9,43.3 44.4,40.8 47.6,37.6 49.8,37.6 51.3,36.1 53.2,36.1 53.2,38 51.6,38 50.7,39 49.4,39 
			46.9,41.5 		"/>
		<polygon class="st1" points="65.7,42.4 63.1,39.8 63.1,37.4 64.8,37.4 66.4,39.1 66.4,41.6 		"/>
		<polygon class="st1" points="54.4,35.6 57,33 57,30.6 55.3,30.6 53.7,32.3 53.7,34.8 		"/>
		<polygon class="st1" points="64.4,34.8 60.1,30.5 60.1,26.6 62.8,26.6 65.6,29.3 65.6,33.4 		"/>
		<polygon class="st1" points="72.7,33.9 71.4,33.9 71.4,32 69.2,29.9 67.1,29.9 67.1,33 70.5,36.3 73.3,36.3 74.2,35.4 		"/>
		<g>
			<polygon class="st1" points="96.4,17 94,17 87.7,23.2 83.3,23.2 83.3,26.9 85.7,29.4 85.7,32.2 84.2,33.7 81.5,31 81.5,29.4 
				79.6,29.4 78,27.8 75.3,27.8 73.4,26 73.4,21.1 75.2,22.9 80.9,22.9 82.5,21.3 86.9,21.3 90.1,18.1 90.1,16 89,15 87.9,16 
				84.9,16 81.5,16 79.6,14.1 79.6,11.5 83.4,7.6 82.4,6.7 84.6,4.5 83.8,4.5 76.8,11.5 76.8,15.6 79.8,18.6 84.9,18.6 86.2,17.3 
				88.5,17.3 85.8,19.9 82.5,19.9 81.2,21.2 76.3,21.2 73.4,18.4 71.5,18.4 65.9,24 72.9,31.1 80.1,31.1 82.5,33.4 80.3,35.6 
				80.3,33.7 77.4,33.7 77.4,35.8 74.9,38.3 74.9,39.5 83.1,39.5 83.1,36.9 86.9,33 86.9,29.1 85.4,27.5 85.4,25.5 87.9,25.5 
				97.2,16.2 97.1,16.2 			"/>
			<polygon class="st1" points="83.4,7.6 79.6,11.5 79.6,14.1 81.5,16 84.9,16 87.9,16 89,15 90.1,16 90.1,18.1 86.9,21.3 
				82.5,21.3 80.9,22.9 75.2,22.9 73.4,21.1 73.4,26 75.3,27.8 78,27.8 79.6,29.4 81.5,29.4 81.5,31 84.2,33.7 85.7,32.2 85.7,29.4 
				83.3,26.9 83.3,23.2 87.7,23.2 94,17 96.4,17 97.1,16.2 95.1,16.2 102.1,9.2 102.1,6.5 99.8,6.5 95.8,2.5 92.3,2.5 90.3,4.5 
				84.6,4.5 82.4,6.7 			"/>
		</g>
		<polygon class="st1" points="75.5,43.8 78.4,46.7 82,46.7 82.8,45.9 82.8,42.4 78,42.4 76.7,43.8 		"/>
		<polygon class="st1" points="77.8,50.5 85.9,50.5 90.8,55.3 90.8,58.4 93.4,60.9 93.4,63.7 91.5,63.7 86.1,58.3 86.1,56.5 
			83.9,54.2 80.1,54.2 78.5,55.9 75.8,55.9 75.8,52.6 		"/>
		<polygon class="st1" points="95.1,64.5 93.5,66.1 93.5,68.2 92.5,69.2 92.5,72.3 93.6,72.3 96.3,69.6 98.9,72.2 100.8,70.3 
			101.5,70.3 101.5,69 99.1,66.5 97,66.5 		"/>
		<polygon class="st1" points="69.1,40.6 71.8,40.6 72.8,39.6 74.4,39.6 72.5,37.7 68.9,37.7 67.6,39 67.6,40.6 		"/>
		<polygon class="st1" points="78.2,64.9 80.9,64.9 82.4,63.5 84.5,65.5 84.5,70.1 86,68.6 86,64.4 83,61.4 79,61.4 79,64 		"/>
	</g>
	<polygon class="st1" points="136.5,75.8 141.1,80.4 142.8,80.4 147,76.2 147,73.9 138.4,73.9 136.5,75.8 	"/>
	<rect x="334.2" y="102.6" class="st1" width="0.8" height="1.1"/>
	<g>
		<g>
			<polygon class="st1" points="220.1,43.4 215,38.4 218,35.5 216.7,34.2 214,36.9 211.5,34.4 211.5,29.1 217.9,22.6 220.1,24.8 
				220.1,31.6 223.4,35 223.4,39.8 219.9,43.3 			"/>
			<polygon class="st1" points="221.6,25.4 221.6,28.3 224.8,31.5 227.7,31.5 231.1,28.1 231.1,25.6 227.2,25.6 225.3,23.8 
				221.6,23.8 			"/>
			<polygon class="st1" points="255.1,24.2 255.1,21.2 256.9,21.2 256.9,20.5 255.3,20.5 255.3,18.9 256.9,17.3 260.8,17.3 
				260.8,18.6 258.7,20.7 258.7,22.7 257.2,24.2 255.1,24.2 			"/>
			<polygon class="st1" points="261.1,19.2 259.7,20.6 259.7,23.6 261.1,25 264.3,25 265.5,23.8 263.7,21.9 263.7,20.1 261.9,18.4 
							"/>
			<polygon class="st1" points="252.5,21.9 251.8,22.7 251.8,24.3 252.5,25 254.2,25 254.8,24.4 253.9,23.4 253.9,22.4 252.9,21.5 
							"/>
			<polygon class="st1" points="246.2,26.6 248.6,26.6 248.6,27.9 250.1,29.3 251.7,29.3 251.7,28.1 252.7,27.1 252.7,25.8 
				251.7,24.8 250.2,24.8 250.2,25.9 251.3,27 251.3,27.7 249.9,27.7 249.9,26.2 248.8,25.1 244.7,25.1 			"/>
			<polygon class="st1" points="255.7,27.3 255.7,25.3 257.4,25.3 258.8,23.9 260,25.1 261.1,25.1 262.1,26.2 260.2,28.2 
				259.1,28.2 257.6,26.6 257.1,26.6 257.1,27.8 257.8,28.5 257.1,29.2 256.4,29.2 256.4,27.5 255.7,27.5 			"/>
			<polygon class="st1" points="262.1,26.8 263.3,28 261.8,29.5 260.7,29.5 260,30.2 259.1,30.2 259.1,29.3 259.9,29.3 260.3,28.9 
				260.9,28.9 262.1,27.7 			"/>
			<polygon class="st1" points="253.2,27.2 254.5,28.5 254.5,29.6 253.7,29.6 252.9,28.8 252.9,27.6 			"/>
		</g>
		<polygon class="st1" points="374.5,195.8 368.6,201.8 366.6,201.8 366.6,195.6 370.3,192 370.3,187.1 374.5,187.1 374.5,195.7 		
			"/>
		<polygon class="st1" points="244.7,171 250.6,165.1 252.6,165.1 252.6,171.2 248.9,174.8 248.9,179.7 244.7,179.7 244.7,171.1 		
			"/>
		<polygon class="st1" points="319.3,136.8 319.3,140.5 317.8,142 319,143.2 319.5,142.7 322.6,145.8 322.6,148.9 324.3,150.6 
			325.8,149 325.8,146.3 321.9,142.3 321.9,138.7 319.9,136.7 319.3,136.7 		"/>
		<g>
			<g>
				<path class="st1" d="M231.1,76.6v-3.9l-2.1-3.3l-4.3-0.3c0,0-1.6,2.7-1.5,2.9c0.1,0.2-3.4,5.2-3.8,5.8c-0.4,0.6-1.6,3.1-1.6,3.7
					c0,0.6,0.7,4.2,0.9,4.3c0.2,0.2,1.2,0.7,1.2,0.7l1.7-1.7h0.6v-1.6l-1.5-1.5v-1.2l0.5-0.5h-1.4l1.2-1.2l1-1l0.6-0.6l-0.5-0.5
					l0.8-0.8h1l0.9-0.9v-2.5l1.3-1.3h1l1.3,1.3v1.2h-1.3l-1.8,1.8v1.4l-0.8,0.8l-0.7,0.7v1.3l0.7,0.7l-0.9,0.9v1.5l1.4,1.4h1.1
					l0.9-0.9h1.8c0-1.1-0.1-3.6-0.1-3.7C229,79.3,231.1,76.6,231.1,76.6z"/>
				<path class="st1" d="M228.8,94.4c0.1-0.2,0.9-2.3,1-2.5c0.2-0.2,0.3-3.4,0.5-3.7c0.1-0.2-0.5-2.3-0.9-3.6l-0.4,0.4h-1.7v1
					l0.9,0.9v1.2h-0.9l-1-1h-1.6l-1.7,1.7L224,90v1.9l-1.3,1.3h-1.2v-1h-1.1l-2.1,2.1h-2.2v-1.9l-1.6-3.1v-2.1l-2.2,2.2v1.9l0.9,0.9
					v2.5h10.3l3.7,1.6C227.3,96.3,228.7,94.6,228.8,94.4z"/>
				<path class="st1" d="M229.8,83.1H229c0,0.3,0,0.5,0,0.5s0.1,0.4,0.3,1l0.4-0.4V83.1z"/>
				<path class="st1" d="M235.4,106.2v1.1l0.6,0.6l1.6-1.6h1.2c-0.1-1.9-2.4-1-2.4-1h-2.8l1,1H235.4z"/>
				<polygon class="st1" points="244.8,108.2 243.9,108.2 243.5,107.9 242.9,108.5 243,108.6 243,108.6 243.8,109.4 243.8,110.6 
					243.2,111.2 242.3,111.2 241.7,110.7 240.4,110.7 239.8,111.3 239,110.4 237.9,110.4 237.3,109.9 234.6,109.9 233.6,110.9 
					232.1,110.9 231.4,111.6 231.4,112.6 230.9,112.6 229.6,113.9 229.6,114.9 230.9,116.2 232.3,116.2 233.2,117.1 230.1,117.1 
					230.1,118.3 231,118.3 232.1,119.4 233.2,119.4 233.2,118.4 233.6,118.4 235,119.8 235.4,119.8 236.7,118.5 237.2,118.5 
					237.8,118 238.8,118 238.1,118.7 238.1,119.5 237.6,119.9 237.6,121.6 239.5,121.6 243.7,117.4 243.7,112.9 245.5,111.1 
					245.5,106.5 244.8,107.3 				"/>
				<polygon class="st1" points="201.1,108.2 200.3,107.4 198.4,107.4 198.4,108.2 197,108.2 195.7,109.5 195.7,110.9 197.6,112.7 
					196.1,114.2 196.1,115.8 196.9,116.5 198.5,116.5 199.4,115.6 201.1,115.6 201.9,116.3 202.7,116.3 204.2,114.8 205.4,113.5 
					206.5,113.5 207.2,112.9 207.7,112.9 208,113.2 208.7,112.5 208.7,112 208.1,112 209,111 209,108.7 204.3,108.2 				"/>
				<polygon class="st1" points="213.7,109.5 213.1,109.1 212.7,109.5 212.7,110.2 213.1,110.7 213.7,110.7 				"/>
				<polygon class="st1" points="213.7,111.8 214,111.8 213.7,111.5 213.7,111.1 213.3,110.9 212.6,110.9 212.1,111.4 212.1,112.1 
					212.6,112.6 212.6,113.8 213.2,113.8 213.7,113.3 213.7,112.8 213.3,112.4 213.7,112.1 				"/>
				<path class="st1" d="M202.4,90.3v2.8l1.7,1.7l-0.1,0.1l-0.1-0.1l-1.4,1.4v0.9l-1.3,1.9h3.8l0.8-0.8h0.3l1.2-1.2h-1.9
					c0.5-0.5,1.1-1.1,1.6-1.6h-0.8l0,0v-0.8h-1.2l0,0v-0.8l-0.5-0.5h-0.6V93l-0.4-0.4v-1.1L202.4,90.3z"/>
				<path class="st1" d="M202.3,94.5h-1.2v0.6l0.6,0.6C201.7,95.8,202.6,95.1,202.3,94.5z"/>
				<polygon class="st1" points="198,88.3 198,88.8 198.9,89.6 202.3,89.3 203.1,88.4 203.1,87.5 201.6,87.5 201.3,87.2 201.6,86.9 
					202.1,86.9 202.6,86.4 202.6,85.8 201.5,85.8 201.1,86.2 200.4,86.2 199.6,87 199.6,86.2 198.8,86.2 197.9,87.1 197.9,87.5 
					198.4,88 				"/>
				<polygon class="st1" points="196.1,95.3 200,92.7 200,92.6 199.1,91.7 198.6,91.7 198.6,91.3 197.8,91.3 197,92.2 197,92.6 
					197.5,93.2 197.1,93.6 197.1,93.4 195.7,93.4 195.7,93.6 196.1,94 				"/>
				<polygon class="st1" points="202.4,85.3 201.9,84.9 201.5,85.4 201.8,85.3 				"/>
				<polygon class="st1" points="219.7,111.3 219.7,110.4 218.9,110.4 217.4,108.9 217.4,107.9 216.7,107.2 216.7,105.3 
					213.3,105.7 212.4,107.4 214.1,107.4 214.7,108 214.7,108.9 216.7,110.9 217.5,110.9 218.3,111.7 218.9,111.7 218.9,112.6 
					219.5,112.6 219.5,113.7 219.1,114.1 219.1,114.9 219.8,114.9 221,113.7 220,112.7 220.6,112.1 221.5,113 222.1,112.5 
					220.9,111.3 				"/>
				<polygon class="st1" points="218.2,116.3 219.1,116.3 219.1,115.3 218.5,114.8 216.1,114.8 216.1,115.6 217.5,115.6 				"/>
				<polygon class="st1" points="218.3,118.1 217.6,117.4 216.6,117.4 216.7,117.7 218.2,119.2 219.9,119.2 219.9,117.2 
					219.2,117.2 				"/>
				<polygon class="st1" points="224,117.2 224,117.7 225.1,117.7 225.1,118.4 225.6,119 226.1,118.5 226.1,117.9 225.4,117.2 				
					"/>
				<polygon class="st1" points="226.4,115.5 227.3,114.6 226.3,113.5 				"/>
				<polygon class="st1" points="225.6,116.7 225.6,115.8 224,114.1 224,115.5 224.5,116 224.5,116.7 				"/>
				<polygon class="st1" points="218.3,105.8 218.3,106.6 219.2,107.6 219.7,107.6 220.5,108.3 220.5,109 221.8,110.4 223.3,110.4 
					223.3,110.9 222.7,111.4 222.7,112.2 223.5,112.9 223.5,110 218.8,105.3 				"/>
				<polygon class="st1" points="217.9,106 216.9,105.8 217.5,106.4 				"/>
				<polygon class="st1" points="203.4,102.1 202.4,101.1 201.1,101.1 201.1,102.1 201.7,102.8 				"/>
				<polygon class="st1" points="204.6,100.8 203.4,99.6 203.4,101.3 				"/>
				<polygon class="st1" points="227.3,120.2 226.3,120.2 226.3,120.6 226.8,120.6 227.8,121.6 229.3,121.6 229.7,121.2 
					228.3,121.2 				"/>
				<polygon class="st1" points="235.5,120.5 234.4,120.5 234.4,121.7 235.2,121.7 236.5,120.4 236.1,119.9 				"/>
				<polygon class="st1" points="254.4,103.4 254.4,105.5 253.3,106.6 252.1,105.4 252.1,105.8 252.1,107.3 253.4,108.7 
					254.6,108.7 255.6,109.7 255.6,111.3 253.5,111.3 252.7,112.1 253.2,112.6 254.4,112.6 255.6,113.8 257.4,113.8 257.4,109.3 
					257.4,103.4 				"/>
			</g>
			<polygon class="st1" points="230.2,110.3 230.2,109.1 231.6,107.7 231.6,105.3 227.5,109.3 			"/>
			<polygon class="st1" points="195.5,127 196.9,125.6 196.9,123.6 198.8,121.7 199.9,120.5 199.9,119 200.4,118.5 200.9,119 
				200.9,120.4 202.2,121.7 203.5,121.7 205.8,119.4 208.3,119.4 210,117.8 213.7,117.8 215,119 215,120.2 215.6,120.9 215.6,121.6 
				211.7,121.6 210.5,122.8 213.4,122.8 214.6,122.8 215.4,123.5 217.6,123.5 218.3,124.2 218.3,125 219.9,125 221.5,126.6 
				223.1,126.6 223.9,125.7 223.9,124.7 223.3,124 224,123.2 225.6,123.2 226.1,123.7 226.1,124.3 227,125.2 229.6,125.2 230.4,126 
				231.9,126 232.9,125 234.8,125 235.6,125.8 237.1,125.8 239.2,123.6 239.2,120.9 242.9,117.2 242.9,123.6 239.1,127.5 
				235.1,127.5 216.8,127.5 			"/>
			<path class="st1" d="M243.9,101l-3.7-3.7h-1.4v-4.6l-2-2l-3.9-1.5l-1.5-5l1.9-1.9h-1l0.1-0.1l0,0l2.4-2.4l-3.6-3.6v-6.6l2.8-2.8
				l-4-4l0.1-4.3l-4.7,0L219,65v6.7l-8.8,8.8l0,7.3h1.8l3.2-3.2l2.1,2.1v2.5l2.8,2.8l2-2v-4l-2.6-2.6v-4.7l6.9-6.9h3.4v1.6l-4.3,4.3
				v6h3.2l0.4,0.4v5.7h-1.4l-0.9-0.9h-2.1v4l-1.6,1.6h-7l-0.8-0.8l1.3-1.3v-1.9l-1.7-1.7l-1.4,1.4V94h-3.4l-9.1,9.1l2.1,2.1v4.3
				h-6.4v6.3h1.3l2.2,2.2l2.1-2.1h1.4l7.9-7.9h1.2c0.6-0.6,1.3-1.3,1.9-1.9c0.6-0.6,1.3-0.3,1.7,0.2h2.4l4.1,4.1v3.2l3.9,3.9v-4.3
				h2.7l1.6-1.6v-0.9l-1.4-1.4l3.6-3.6h4.7v1.9l2,2l1.5-1.5l-1.3-1.3l1.5-1.5h2.5v1.3l0-1.3l1.2-1.2V101H243.9z"/>
			<polygon class="st1" points="296.9,150.4 305.6,159.2 305.6,160.2 302.3,160.2 295.8,153.7 295.8,151.5 			"/>
			<polygon class="st1" points="308.5,153.1 311.3,153.1 315.9,148.5 317.5,150.1 317.5,156.9 314.9,159.4 310.1,159.4 307.4,156.7 
				307.4,153.1 			"/>
			<polygon class="st1" points="201.3,100 205.6,95.7 202.8,93 202.8,88.8 200.8,86.8 198.3,86.8 198.3,89.7 200.4,91.7 199.3,92.7 
				197.7,92.7 193.6,96.8 193.6,98.9 196.4,98.9 199.4,95.8 199.4,94 201.4,94 202.2,94.8 200.1,97 200.1,100 			"/>
			<polygon class="st1" points="328.1,154.8 333.4,154.8 335,156.4 339.2,156.4 345.7,162.9 345.7,165.2 342.6,165.2 340,162.7 
				334.6,162.7 329,157.1 325.9,157.1 327.3,155.6 			"/>
			<polygon class="st1" points="313.9,189.7 313.9,177.1 319.9,171.2 326.8,171.2 330.8,167.1 334.3,167.1 332.5,168.9 336.8,173.3 
				339.7,170.4 339.7,165.7 345,171 345,173.7 349.4,178.1 349.4,186.5 344,191.9 336.8,191.9 331.4,186.5 326.6,186.5 321.6,191.5 
				313.9,191.5 			"/>
			<polygon class="st1" points="306,161.3 307,162.2 309.2,162.2 310,163 316.5,163 317.4,163.9 319.5,163.9 320.6,162.8 
				318.2,162.8 317.1,161.7 311.4,161.7 310.7,161 306,161 			"/>
			<polygon class="st1" points="318,156.9 320.7,154.2 323.1,154.2 323.1,155.4 321.3,155.4 321.3,156.9 323.2,158.9 321.6,160.5 
				320.3,159.2 318,159.2 318,157.6 			"/>
			<polygon class="st1" points="322,165 322,163.3 323.5,161.9 327.2,161.9 326.1,163 323.9,163 			"/>
			<polygon class="st1" points="225.4,58.5 225.4,64.1 228,66.6 228,71.7 229.8,71.7 229.8,73.4 225.5,77.6 225.5,83.6 231,83.6 
				234.8,79.8 234.8,76.2 234.8,69.6 233.9,66.8 235.1,62.8 230.7,58.5 			"/>
			<polygon class="st1" points="223,94.5 227.2,94.5 229.2,96.5 229.2,98.2 225.7,101.7 225.7,104.3 230.1,108.7 233.3,105.5 
				238.1,105.5 238.1,107.5 240.1,109.5 241.6,107.9 240.4,106.7 241.8,105.2 244.3,105.2 245.4,104.1 245.4,101 243.8,101 
				240.1,97.3 235,97.3 235,92.7 233.1,90.8 231.4,90.8 231.4,84.2 233.4,82.2 227.1,82.2 229.1,84.2 229.1,89.8 227.7,89.8 
				226.9,88.9 224.6,88.9 224.6,92.9 			"/>
			<polygon class="st1" points="337.9,119.7 339.3,119.7 340.9,118.1 340.9,117.2 341.8,117.2 341.8,115.8 343.3,114.3 343.3,108.3 
				341.4,108.3 339.8,109.9 339.8,114.3 335.8,118.3 332,118.3 328.4,121.8 328.4,124.5 330.3,126.4 331.6,126.4 331.6,124.5 
				335,121.1 336.4,121.1 			"/>
			<path class="st1" d="M252.5,145.4v-1.2h-1.5l-1.2,1.2h-3.3l-2.9-2.9V140l-4.5-4.5v-0.7l-1.4-1.4v-1.2l-2-2h-0.5v-0.6l1.4-1.4h0.3
				v-1.8h-0.4c-0.1,0.1-0.3,0.1-0.5,0.1h-40.8l-6,6v9.9l1.4,1.4v0.9l2.7,2.7v0.8l2.8,2.8h0.9l0.7-0.7h1.9l0.6,0.6h1.9l0.8-0.8h1
				l1.2-1.2h3.4l1.9,1.9h2.8l0.8,0.8v3.3l-0.8,0.8v1l2.6,2.6v1.8l1.5,1.5v0.9l0.9,0.9v1.5l-2.2,2.2v2.4l-0.5,0.5v1.4l2.4,2.4v1.4
				l1.3,1.3v2.3l0.8,0.8v1.6l0.8,0.8v2.9l1.2,1.2v0.5l0.8,0.8h0.5l0.5,0.5h6.1l0.5-0.5h0.5l3.8-3.8v-0.5l1.3-1.3v-3.1l1.7-1.7v-4.7
				l0.9-0.9v-0.3l1.3-1.3h1l2-2v-4.7l-0.9-0.9v-5.4l5-5h1l2.1-2.1v-1.9l3.9-3.9H252.5z M235.6,164.8l-2.5-2.5v-4.6l0,0h0v0l1.1,1.1
				v3.2l1.4,1.4V164.8z M238.7,168.7l-1.1-1.1v-3.9l0,0h0v0l0.7,0.7v2.4l0.4,0.4V168.7z M238.9,156.5l-1.9,1.9l-1.7-1.7v-2.4
				l1.8-1.9l1.9,1.9V156.5z"/>
			<path class="st1" d="M335,96.3l-8.2-5.9l-11.7-5.7c0,0-35.7-2.5-37-2.6c-1.3-0.1-16.8-1.4-18.1-1.3c-1.3,0.1-6.8,1.4-7.3,1.7
				c-0.5,0.3-4.5,6.4-4.5,6.4s0.8,4.9,0.8,5.3c0,0.3-1.2,10.9-1.2,10.9h0.4l1.2-1.2l2.4,2.4h-2.5v0.1h2.5l2-2h3.2v2.1l-1.1,1.1v3.4
				l1.4,1.4h-2.3l2.3,2.3v3.1h-3.5l-2.5-2.5l0-2.5l-1.9-2v-2.9l-1.3-1.3h-2.8l0.1,0.1v3.8l-3,3h-1.5l-2.3-2.3h-5.3l-3.2,3.2l3,3h9.5
				v4.6l-4.5,4.5h-1.1v1.8l0.6,0.6v1.3l1.5,1.5v0.6l1.1,1.1v2l2.6,2.6h2.1v2.4l0.8,0.8v1.4l1.1,1.1h2.7l0.8-0.8h4.3l6.7-6.7v-4.2
				h-2.9l-1.6-1.6l-1.1,1.1h-2.3v-2.8l-3.4-3.4h1.8l3.3,3.3h3l1.6,1.6h7.3l4,4h3.7v10.6l3.2,3.2l3.2-3.2v-4.7l6.7-6.7h3.5l5.6,5.6
				v8.2l7,7l1.8-1.8l-5.2-5.2v-4.7l4,4l4.4-4.4l-6-6l2.4-2.4h8.5l4.8-4.8v-10.4l-2.2-2.2l3.7-3.7l4,4v5h3.5v-5.6l-1.8-1.8l4.6-4.6
				l-0.3-0.3l0.4-0.4v-2.3l1.2,0.1l1.5,0.1l3.5-4.5L335,96.3z"/>
			<g>
				<path class="st1" d="M383.8,67.6h-1.2V69l-0.8,0.8l-1-1v-2.5l-4.8-4.8h-2l-1.2-1.2h-2l-0.7,0.7l-1.3-1.3h-1.3v1.9l0.9,0.9
					l-0.8,0.8h-1.3v-0.8l-0.7-0.7l0.3-0.3h0.6l0.6-0.6l-0.6-0.6h-0.6l-1.5,1.5h-2.2l-0.5-0.5h-1.5l-0.9,0.9v0.9l-0.6,0.6l-0.7-0.7
					v-1.4l-1.6-1.6l0.8-0.8v-1.1H356l-1.3-1.3H352l-0.9,0.9H350v-1l-1.5-1.5h-1.2l0.8-0.8l-1-1h-1.4l-1.6,1.6h-1l1.4-1.4h-1.7V53
					h1.8l-1.1-1.1h-2.2l-0.3-0.3h-1.3v1h-1.2l-0.8,0.8l1.1,1.1v0.8l-0.6,0.6l-0.5-0.5h-1v1l-1.1-1.1h-1.1l-0.8,0.8H333l-1.4-1.4v2.2
					l-1.2,1.2l-2.5-2.5v-1.2l-1.6-1.6l-0.8,0.8l1.6,1.6V58l-2.5,2.5v-1.1l1.6-1.6v-2l-1.6-1.6v-1.4l1-1h1.5l0.9,0.9l0.9-0.9v-1.1
					l-1.3-1.3h-1.8l-1.1-1.1H324l-0.8,0.8v1.8l-0.6,0.6h-2.1l-0.6-0.6h-2.1v-1.2l-1.2-1.2h-2l-0.7,0.7v1.2H313V48l-1.2-1.2h-1.1
					l-0.9,0.9v1.2l1-1l0.7,0.7l-0.9,0.9H309l-1,1h-1.4v0.7l-2.1,2.1h-0.9l2.1-2.1v-1.1l3.6-3.6h0.8l3.5-3.5v-0.9l-0.8-0.8v-2.1l-2-2
					h-3.2v1.2h-0.9l-0.6-0.6l1-1l-1-1h-1.3l1.4-1.4l-1.4-1.4H303v0.9l-1.8,1.8v1.5L303,39l-0.6,0.6l-1.2-1.2h-2.1l1.3,1.3l-0.6,0.6
					l-0.4-0.4l-0.9,0.9h-1.9l-0.5-0.5h-1.9v0.9l-0.9,0.9h-2.8l-0.8,0.8h-1.3l-1.8,1.8v1.2l0.7,0.7v1.6l-1.1,1.1h-4.1v1.8l2.9,2.9
					v2.3l-0.8,0.8h0.5v2.2l-0.7,0.7l1.1,1.1h1.6v4.2H286v-3.1h-1.1l-2.1-2.1l0.6-0.6v-1.5l-0.9,0.9v-1.8l0.7-0.7v-1.1h-1.4v-1.1
					l-1.4-1.4h-1.3l1.4,1.4v1.1h-0.8l-1-1h-0.8v1.5h1l2,2h-1.4l-0.9-0.9h-2.2v-1.6l0.6-0.6v-2.7l-1.2-1.2l-0.5,0.5l0.6,0.6V54
					l-1.1,1.1v1.1l1.2,1.2v1.5l-1,1v2.2L276,61h1.6l1.7,1.7v4.7h0.8v0.7h-1.2l-0.6-0.6v-3.8l-1-1l-1.5,1.5l0.7,0.7v1.4l-1.8,1.8v1.4
					l-1.1,1.1l-0.7-0.7h-1.7l-0.8-0.8h2.4v-1h1V67l1-1l-0.7-0.7l0.7-0.7l-1.4-1.4V60l0.6-0.6v-1.3l-1.4-1.4V56l1.5-1.5v-2l-1.1-1.1
					h-2.1l-0.8,0.8v2.6l-1.7,1.7v1.3l0.7,0.7v1.3l-0.5,0.5v1.4h0.8v0.7l1,1h1v1.1l-1.5,1.5l-1.1-1.1v-0.9l-3-3H263l-1,1l1,1v1.2
					h-0.9V65h-0.8v-1.9h-0.8l-1.3,1.3h-1.6l-0.7,0.7h-1.3l0.7-0.7l-0.8-0.8l-1.1,1.1H254l-0.8,0.8H252l-2,2v1.6h-1.4v-1.4l1.2-1.2
					v-1.3l-1.3-1.3h-2.1v1.8l0.8,0.8v1.2l-0.9,0.9V71l-1.6-1.6l-2.4,2.4l1.1,1.1l-0.6,0.6l-2-2h-0.7v1.9l1.3,1.3l-0.8,0.8h-1.8v-1.7
					l-1.7-1.7v-2.1l-1.8-1.8h3.5l1.6,1.6h2l2.2-2.2l-0.7-0.7v-1.4h-1.2l-2.6-2.6h-1l-1.6-1.6h-3l-0.7,0L232,63v1.9l1.2,1.2l-1.6,1.6
					v2.5l1.1,1.1v4.6l2,2l-3.7,3.7v7.4l2.3,2.3h1.4l1.2,1.2v1.4l-1.1,1.1v1.3l1.6,1.6h1.9l1.3,1.3l1.8,1.8v2.9l-1.2,1.2v1.8l2.1,2.1
					h5.2l1,1c1.2-1.2,2.3-2.3,3.5-3.5v-2.3l-1.7-1.7v-2.1l3.1-3.1h2.5l1.4,1.4l0.9-0.9h2.3l1.1,1.1h2.4v-0.9l-1.2-1.2v-2.6l1.7-1.7
					h3.9l1.3-1.3h2.7l3,3h1.1l3,3h1.1l1.5,1.5h1.4l1.7,1.7h1l1,1h1.2l0.5-0.5h1.4l2.5-2.5h1.8l1.2,1.2h1.8v-1.7l1-1h2.1v1l1.6,1.6
					h1.7l0.5-0.5h1.4l1.9,1.9h2.6l1.9-1.9h2.3l1.2,1.2l0.8-0.9h2v-3.3l0.8-0.8h4.2l2.7,2.7v2h1.6v1.3l1.6,1.6l0.9-0.9h2.8l1.3,1.3
					l-2.6,2.6H331l-0.9,0.9v2.9l0.8-0.8v1.1h1.9l2.1-2.1v-2.1l3.8-3.8v-4.5l1.3-1.3v-1.7l-1.6-1.6h-0.8v1.5h-1.4l-0.8-0.8v-1.4h-1
					v-1.6l7-7h2.4l0.6,0.6h2.8l0.7-0.7h2.1l-0.9,0.9v1.1h1.1l0.9-0.9h2.1v-0.9h-0.9l-0.6-0.6l1.5-1.5v-0.8l1.6-1.6h1.5l0.6,0.6
					l0.4-0.4h1.1l-0.3,0.3v1.6l1.9-1.9v-1.6l0.9-0.9h1.6l0.7,0.7h-0.7l-1.1,1.1v1.6h-0.6l-1.4,1.4v0.8l-1.5,1.5v1l-1.7,1.7h-1.4v0.8
					l-2,2v2.8l0.9,0.9v2.3l0.9,0.9v2l1.6-1.6v-1.2l0.8-0.8v-1.2l0.8-0.8h0.8l0.5-0.5v-1.9l1.2-1.2v-0.9l0.8-0.8v-0.9h-0.6l-0.4,0.4
					h-1v-1l1.3-1.3v-1.2l0.8-0.8h0.8l0.4,0.4l1.5-1.5v1.6l1.4-1.4h1l0.7,0.7h0.9l2.7-2.7h1.9l2-2v-1h0.6l1.2,1.2l0.7-0.7l-0.6-0.6
					v-1.6l-0.8-0.8h-0.9l-0.9-0.9h-0.8v-1h0.9l0.9,0.9h1.3l1.4-1.4v-1.5l-0.7-0.7l0.7-0.7h1.3v0.7l-0.6,0.6v1.3h0.8l1.2-1.2l0.9,0.9
					V73h1l1.3,1.3l1.1-1.1v-1.4l-0.9-0.9l0.5-0.5l0.5,0.5h1.2l0.8-0.8L383.8,67.6z"/>
				<polygon class="st1" points="261.8,46.6 262.7,45.7 262,44.9 261.2,45.7 261.2,46.4 261.6,46.8 				"/>
				<polygon class="st1" points="262.5,44.2 263.2,43.5 263.9,43.5 263.2,44.2 263.2,44.7 262.6,44.7 262.3,44.4 				"/>
				<polygon class="st1" points="263,41.7 259.7,45 259.7,47.4 257.6,49.5 257.6,48.6 258.6,47.7 258.6,45.4 258.6,45.3 258.1,44.9 
					257.9,45.2 257.9,47.5 257.3,47.5 256.2,48.6 256.7,49.1 255,50.8 255,51.9 255.5,52.4 255.5,53.1 254.7,53.9 253.9,53.9 
					253.9,55.6 256.9,58.6 259.5,58.6 260.1,58.6 260.1,58 257.4,55.2 257.4,52.5 258.1,51.7 258.1,50 260.5,47.6 260.5,45.4 
					263.2,42.7 264.9,42.7 263.9,41.7 				"/>
				<g>
					<path class="st1" d="M352.3,83.7l-0.6-0.6l0.7-0.7h-7.3l-2-2H337l-4.6,4.6v2.9l-3.3,3.3h-7.8l-8.7-8.7h-6.6l-8,8H292l-3.9,3.9
						h-2.4l-3.5-3.5h-5.5l-4.7-4.7h-4.6l-3.3,3.3h-2.6v-2.5l-2.5-2.5h-3.9l-2.4,2.4v1.7l-6,6h-5.8l-4.9-4.9h-3.5l-1.5-1.5v0.6
						l2.3,2.3h1.4l1.2,1.2v1.4l-1.1,1.1v1.3l1.6,1.6h1.9l3.1,3.1v2.9l-1.2,1.2v1.8l2.1,2.1h5.2l1,1c1.2-1.2,2.3-2.3,3.5-3.5v-2.3
						l-1.7-1.7v-2.1l3.1-3.1h2.5l1.4,1.4l0.9-0.9h2.3l1.1,1.1h2.4v-0.9l-1.2-1.2v-2.6l1.7-1.7h3.9l1.3-1.3h2.7l3,3h1.1l3,3h1.1
						l1.5,1.5h1.4l1.7,1.7h1l1,1h1.2l0.5-0.5h1.4l2.5-2.5h1.8l1.2,1.2h1.8v-1.7l1-1h2.1v1l1.6,1.6h1.7l0.5-0.5h1.4l1.9,1.9h2.6
						l1.9-1.9h2.3l1.2,1.2l0.8-0.9h2v-3.3l0.8-0.8h4.2l2.7,2.7v2h1.6v1.3l1.6,1.6l0.9-0.9h2.8l1.3,1.3l-2.6,2.6H331l-0.9,0.9v2.9
						l0.8-0.8v1.1h1.9l2.1-2.1v-2.1l3.8-3.8v-4.5l1.3-1.3v-1.7l-1.6-1.6h-0.8v1.5h-1.4l-0.8-0.8v-1.4h-1v-1.6l7-7h2.4l0.6,0.6h2.8
						l0.7-0.7h2.1l-0.9,0.9v1.1h1.1l0.9-0.9h2.1v-0.9H352.3z"/>
				</g>
				<polygon class="st1" points="261,58.9 260.1,59.9 261,60.8 261.8,60.8 262.3,60.3 262.2,60.1 				"/>
				<polygon class="st1" points="282.8,44.2 283.7,44.2 284.2,43.8 284,43.5 282.9,42.4 281.8,42.4 282.8,43.5 				"/>
				<polygon class="st1" points="307.5,29.9 306.6,29.9 306.1,30.3 306.3,30.6 307.4,31.7 308.6,31.7 307.5,30.6 				"/>
				<polygon class="st1" points="307.1,31.3 307.8,30.6 308,30.3 307.5,29.9 306.6,29.9 306.6,30.6 306.3,30.9 306.6,31.3 				"/>
				<polygon class="st1" points="272.9,50.7 272.9,49.6 273.7,48.9 272.2,48.9 271.4,49.7 271.1,50.1 271.7,50.7 				"/>
				<polygon class="st1" points="259.7,45 262.2,42.5 264.7,42.5 264.9,42.7 265.9,42.7 268.2,40.4 269.8,40.4 270.9,39.3 
					270.9,36.8 270.1,36 268.7,36 267.3,37.3 267.3,38.1 266.1,39.4 263.7,39.4 263,40.1 261.5,40.1 259.4,42.2 259.4,43.7 
					258.1,44.9 258.6,45.3 258.6,45.4 258.6,47.7 257.6,48.6 257.6,49.5 259.7,47.4 				"/>
				<polygon class="st1" points="279.7,52.1 280.6,52.1 280.6,51 280.1,50.4 278.9,51.6 279.5,52.1 				"/>
				<polygon class="st1" points="253.1,63.1 251.5,61.5 250.7,62.3 250.7,62.6 250.7,63.9 252.4,63.9 				"/>
				<polygon class="st1" points="277.8,51.7 277.8,50.6 277.2,50.6 277.1,50.6 276.6,51.1 277.2,51.7 				"/>
				<polygon class="st1" points="277.5,49.9 277.5,49.7 277.5,49.5 276.7,49.5 276.7,49.9 277.1,50.3 				"/>
				<polygon class="st1" points="283.2,41.1 283.6,41.5 283.8,41.5 284.7,41.5 284.7,40.3 284.2,39.8 283.2,40.7 282.4,40.7 
					282.4,41.1 282.8,41.5 				"/>
				<polygon class="st1" points="341.7,50.7 341.7,49 340.7,48.1 339.7,48.1 339,48.8 338.9,48.9 338.9,49.7 339.9,50.7 				"/>
				<polygon class="st1" points="313.1,45.5 312.6,46 312.6,46 312.6,46.6 313.2,47.2 314.3,47.2 314.3,46.1 313.7,45.5 				"/>
				<polygon class="st1" points="336.7,45.2 339.5,45.2 340.2,44.6 342.3,44.6 343.7,43.2 343.7,42.1 343.7,41.9 342.7,40.9 
					341.3,40.9 340.8,41.4 339.7,40.2 338.7,40.2 338.3,39.8 336.5,39.8 335.2,41.1 335.2,41.3 335.2,42.8 336.7,44.4 				"/>
				<polygon class="st1" points="340,47.5 340,47.1 340,47 339.7,46.7 339.2,46.7 338.8,47.1 338.8,47.9 339.6,47.9 				"/>
				<polygon class="st1" points="347.9,37.4 347.9,37 347.9,37 347.6,36.6 347.1,36.6 346.7,37.1 346.7,37.9 347.4,37.9 				"/>
				<polygon class="st1" points="335.3,48.2 335.3,47 334.7,46.4 334.2,46.4 334.2,47.4 335.1,48.2 				"/>
				<polygon class="st1" points="334.8,41.1 334.4,40.7 334.4,40.7 334.4,43.1 334.8,42.7 				"/>
				<polygon class="st1" points="345.1,45 348.1,45 349,44.1 347,42.1 345.2,42.1 344.3,42 344.3,42.8 345.1,43.5 				"/>
				<polygon class="st1" points="378.9,57.9 378.9,56.5 379.7,55.7 379.7,55 378.8,55 377,55 375,57 375.9,57.9 				"/>
				<polygon class="st1" points="383.8,67.6 382.7,67.6 382.7,69 381.8,69.8 380.9,68.9 380.9,66.4 377.5,63 376.1,61.6 374.1,61.6 
					372.9,60.4 371,60.4 370.3,61.1 369.1,59.8 367.8,59.8 367.8,61.7 368.7,62.6 367.9,63.3 366.6,63.3 366.6,62.5 365.8,61.7 
					366.1,61.4 366.7,61.4 367.3,60.9 366.6,60.2 366.1,60.2 364.5,61.8 362.4,61.8 361.8,61.3 360.4,61.3 359.5,62.2 359.5,63.1 
					358.9,63.6 358.2,63 358.2,61.6 356.7,60 357.4,59.2 357.4,58.1 356,58.1 354.8,56.9 352,56.9 351.1,57.8 350,57.8 350,56.7 
					348.4,55.2 347.3,55.2 348.1,54.4 347.1,53.4 345.7,53.4 344.1,55.1 343.1,55.1 344.5,53.7 342.8,53.7 342.8,53 344.6,53 
					343.5,52 341.4,52 341,51.6 339.7,51.6 339.7,52.6 338.5,52.6 337.7,53.4 338.8,54.5 338.8,55.3 338.2,55.9 337.7,55.5 
					336.7,55.5 336.7,56.5 335.6,55.4 334.5,55.4 333.7,56.1 333,56.1 331.5,54.7 331.5,56.9 330.4,58.1 327.9,55.6 327.9,54.4 
					326.3,52.8 325.5,53.5 327.1,55.2 327.1,58 324.6,60.5 324.6,59.4 326.2,57.8 326.2,55.8 324.6,54.2 324.6,52.8 325.6,51.8 
					327.1,51.8 328,52.7 328.9,51.8 328.9,50.7 327.6,49.4 325.8,49.4 324.6,48.3 324,48.3 323.2,49.1 323.2,50.8 322.6,51.5 
					320.4,51.5 319.9,50.9 317.7,50.9 317.7,49.7 316.5,48.5 314.5,48.5 313.8,49.2 313.8,50.4 313,50.4 313,48 311.8,46.8 
					310.6,46.8 309.7,47.8 309.7,48.9 310.7,48 311.3,48.7 310.4,49.6 309,49.6 308,50.6 306.7,50.6 306.7,51.3 304.6,53.3 
					303.7,53.3 305.8,51.3 305.8,50.2 309.4,46.5 310.2,46.5 313.7,43 313.7,42.2 312.9,41.3 312.9,39.3 310.9,37.2 307.7,37.2 
					307.7,38.5 306.7,38.5 306.1,37.9 307.1,36.9 306,35.9 304.7,35.9 306.1,34.4 304.8,33 303,33 303,33.9 301.2,35.7 301.2,37.2 
					303,39 302.4,39.6 301.2,38.4 299.1,38.4 300.4,39.7 299.9,40.3 299.4,39.8 298.5,40.7 296.7,40.7 296.2,40.2 294.3,40.2 
					294.3,41.2 293.4,42.1 290.6,42.1 289.8,42.9 288.5,42.9 286.7,44.7 286.7,45.9 287.4,46.6 287.4,48.2 286.3,49.3 282.2,49.3 
					282.2,51.2 285.1,54.1 285.1,56.4 284.3,57.2 284.9,57.2 284.9,59.5 284.2,60.1 285.2,61.2 286.8,61.2 286.8,65.4 286,65.4 
					286,62.3 284.9,62.3 282.8,60.2 283.4,59.7 283.4,58.2 282.4,59.2 282.4,57.3 283.2,56.6 283.2,55.6 281.8,55.6 281.8,54.4 
					280.3,53 279.1,53 280.4,54.3 280.4,55.4 279.7,55.4 278.7,54.4 277.9,54.4 277.9,55.9 278.9,55.9 280.8,57.9 279.5,57.9 
					278.6,57 276.3,57 276.3,55.4 276.9,54.8 276.9,52.1 275.7,50.9 275.2,51.4 275.8,52 275.8,54 274.7,55.1 274.7,56.1 
					275.9,57.4 275.9,58.8 274.9,59.8 274.9,62.1 276,61 277.5,61 279.2,62.7 279.2,67.4 280,67.4 280,68.1 278.8,68.1 278.2,67.5 
					278.2,65.4 278.2,63.7 277.2,62.7 275.7,64.2 276.4,65 276.4,66.3 274.6,68.1 274.6,69.5 273.5,70.7 272.7,69.9 271.1,69.9 
					270.3,69.1 272.7,69.1 272.7,68.1 273.6,68.1 273.6,67 274.7,66 273.9,65.3 274.6,64.6 273.2,63.2 273.2,60 273.8,59.5 
					273.8,58.2 272.3,56.7 272.3,56 273.8,54.5 273.8,52.5 272.7,51.4 270.6,51.4 269.8,52.2 269.8,54.8 268.1,56.5 268.1,57.8 
					268.8,58.5 268.8,59.7 268.3,60.2 268.3,61.6 269,61.6 269,62.4 270,63.4 271.1,63.4 271.1,64.5 269.6,66 268.5,64.9 
					268.5,63.9 265.5,60.9 263,60.9 262,61.9 263,62.9 263,64.1 262.1,64.1 262.1,65 261.3,65 261.3,63.1 260.5,63.1 259.2,64.4 
					257.6,64.4 256.9,65.1 255.6,65.1 256.3,64.4 255.5,63.6 254.4,64.7 254,64.7 253.1,65.5 252,65.5 251.1,66.3 253.5,66.3 
					254.5,66.3 255.4,67.3 255.4,69.3 256.5,70.4 258.3,70.4 259.7,71.8 261.7,71.8 262.9,70.7 264.1,70.7 262.4,72.3 260.8,72.3 
					260,73.1 261.3,74.4 263.9,74.4 265.4,72.9 267.6,75.2 269.6,75.2 266.8,72.5 268.9,70.4 269.7,70.4 271.6,72.3 275.6,72.3 
					277.1,70.8 278.2,70.8 279.6,72.2 281.5,70.2 280.6,69.2 281.7,68.1 281.7,65 280.5,63.8 280.5,61.3 281.3,60.6 284.3,63.6 
					284.9,63.6 284.9,66.4 286.6,68.1 287.3,68.1 289.9,70.6 291.2,69.3 291.2,69.3 288.5,66.6 291.3,66.6 292.6,67.9 293.9,66.6 
					292.1,64.9 293.2,63.8 292.7,63.2 290.4,61 290.4,59.5 293.2,59.5 293.2,55.9 292.6,55.3 293.3,54.6 294.3,55.5 294.3,57.5 
					296.6,57.5 297.8,56.3 297.3,55.7 294.7,53.2 294.8,53.1 299.1,53.1 300.9,55 300.5,55.5 300.5,55.7 300.5,57.4 302.4,59.4 
					305.2,59.4 305.2,62.5 306.6,64 306.8,64 308.2,62.6 309.5,63.9 311.8,61.6 314.6,61.6 314.6,57.5 312.2,55.1 310.6,55.1 
					313.3,52.5 316.6,52.5 318.9,54.8 318.9,56.8 321.3,56.8 322.4,55.7 323.8,57.1 323.8,58.6 321.5,60.9 321.5,64.2 324.1,61.7 
					326.2,61.7 328,63.4 330,63.4 328.1,61.6 328.1,60.8 328.7,60.2 330.1,60.2 332.2,58.2 334.5,58.2 336.4,60.1 336.4,60.1 
					337.2,59.3 338,60.1 340.5,60.1 341.4,59.2 342.1,59.8 342.1,61.8 344.4,61.8 345.6,60.6 345,60 342.8,57.7 342.9,57.7 
					342.9,56 345.8,56 348.4,58.6 351.8,58.6 354.2,61 354.2,63.3 357.4,63.3 359.4,65.3 361.9,62.7 365,62.7 367.5,65.2 
					368.6,64.1 370.4,65.8 371.7,65.8 373.6,67.8 373.6,69.9 371.9,71.7 371.9,75.2 373.4,76.7 371.3,78.8 368.5,78.8 366.5,80.8 
					362.9,80.8 359.4,84.3 359.4,84.8 357.3,86.9 357.3,89.5 355.2,91.5 355.2,95.4 356.1,96.3 356.1,95.6 356.9,94.8 356.9,93.7 
					357.7,92.8 358.6,92.8 359,92.3 359,90.5 360.2,89.3 360.2,88.4 361,87.6 361,86.7 360.4,86.7 360,87.1 359,87.1 359,86.1 
					360.3,84.8 360.3,83.6 361.1,82.9 361.9,82.9 362.3,83.3 363.7,81.8 363.7,83.4 365.1,82 366.1,82 366.8,82.7 367.6,82.7 
					370.3,80 372.2,80 374.2,78 374.2,77 374.8,77 376,78.2 376.7,77.5 376.1,76.9 376.1,75.2 375.4,74.5 374.5,74.5 373.6,73.6 
					372.8,73.6 372.8,72.6 373.7,72.6 374.6,73.4 375.9,73.4 377.3,72 377.3,70.5 376.6,69.8 377.3,69.1 378.6,69.1 378.6,69.8 
					378,70.4 378,71.7 378.8,71.7 380,70.5 380.9,71.4 380.9,73 381.9,73 383.2,74.3 384.4,73.2 384.4,71.8 383.5,70.9 384,70.4 
					384.4,70.9 385.6,70.9 386.4,70.1 				"/>
				<polygon class="st1" points="300.5,32.2 301.9,30.8 303.4,30.8 304.4,29.8 305.6,29.8 305.6,27.7 302.8,24.9 301.6,26.1 
					301.6,27.7 299.4,29.9 299.4,32.2 				"/>
				<path class="st1" d="M299.7,22.8v-1.3c-0.3-0.3-0.5-0.5-0.8-0.8h-2.3c-0.8,0.8-1.7,1.7-2.5,2.5v2.5h1.7l1.3,1.3h2.1l0.6,0.6
					c0.3,0,0.5,0,0.8,0v-3.9L299.7,22.8z"/>
				<polygon class="st1" points="223.8,91.3 223.2,91.8 223.2,93.2 226.2,93.2 227.3,92.1 226.4,91.3 				"/>
				<g>
					<path class="st1" d="M285.2,84.1"/>
				</g>
				<polygon class="st1" points="270,63.4 270,61.9 269,60.8 269,58.6 269.8,57.8 271.1,59 271.1,60.2 272.1,61.2 272.7,61.2 
					272.7,59.5 273.2,59 271.3,57.1 271.3,55.5 272.4,54.4 273.8,54.4 273.8,52.5 272.7,51.4 270.6,51.4 269.8,52.2 269.8,54.8 
					268.1,56.5 268.1,57.8 268.7,58.4 268.7,59.7 268.2,60.3 268.2,61.7 269,61.7 269,62.4 				"/>
				<polygon class="st1" points="275.1,51.5 275.7,52.1 275.7,53.9 274.5,55.1 274.5,56.2 275.9,57.5 275.9,56.2 275.2,55.5 
					276.5,54.2 276.5,52.7 276.9,52.3 276.9,52.1 275.7,50.8 				"/>
			</g>
			<polygon class="st1" points="210.2,84.6 211.4,83.4 211.4,81 212.2,80.2 213.3,80.2 213.3,78.8 215.5,76.6 216.9,75.2 
				218.9,75.2 218.9,72.8 220.9,70.8 220.9,65.8 223.3,63.4 223.3,61 225.3,59 231.4,59 230.8,58.4 225.2,58.4 218.7,64.9 
				218.7,71.7 210.1,80.3 			"/>
			<path class="st1" d="M249.5,110.8v-2.9l-1.3-1.3h-1.9c-0.3,0.3-0.5,0.5-0.8,0.8v3.2l-3,3h-1.5l-2.3-2.3h-5.3l-3.2,3.2l3,3h9.5
				v0.9l3.8-3.8h4.8l0-1.7L249.5,110.8z"/>
			<g>
				<polygon class="st1" points="238.4,164.4 237.7,163.8 237.7,167.7 238.7,168.7 238.7,167.3 238.4,166.9 				"/>
				<polygon class="st1" points="237.7,163.8 237.7,163.8 237.7,163.8 				"/>
				<polygon class="st1" points="233.2,157.7 233.2,157.7 233.2,157.7 				"/>
				<polygon class="st1" points="235.6,164.8 235.6,163.3 234.3,162 234.3,158.8 233.2,157.7 233.2,162.4 				"/>
				<path class="st1" d="M190.5,143.8v0.9l2.7,2.7v0.8l2.8,2.8h0.9l0.7-0.7h1.9l0.6,0.6h1.9l0.8-0.8h1l1.2-1.2h3.4l1.9,1.9h2.8
					l0.8,0.8v3.3l-0.8,0.8v1l2.6,2.6v1.8l1.5,1.5v0.9l0.9,0.9v1.5l-2.2,2.2v2.4l-0.5,0.5v1.4l2.4,2.4v1.4l1.3,1.3v2.3l0.8,0.8v1.6
					l0.8,0.8v2.9l1.2,1.2v0.5l0.8,0.8h0.5l0.5,0.5h6.1l0.5-0.5h0.5l3.8-3.8v-0.5l1.3-1.3v-3.1l1.7-1.7v-4.7l0.9-0.9v-0.3l1.3-1.3h1
					l2-2v-4.7l-0.9-0.9v-5.4l1.6-1.6l2.8-2.8l0.4-0.4l-2.2-2.2l-2.3-2.3l-2.9-2.9l-3.2,3.2h-8l-3.4-3.4L223,144h-9.7h-5.2l-2-2h-6.6
					h-6.4l-4-4v4.3L190.5,143.8z"/>
			</g>
			<polygon class="st1" points="261.6,131.9 258.6,131.9 257,130.3 255.9,131.5 253.6,131.5 253.6,128.6 250.2,125.2 252,125.2 
				255.2,128.5 258.3,128.5 259.8,130 267.1,130 271,134 274.8,134 274.8,134.2 276.7,134.2 279.9,131 282.6,131 287.4,126.2 
				298.1,126.2 300.3,124 303,124 306.3,127.3 308.6,129.6 317.8,129.6 318.7,128.8 318.7,125.1 315.5,121.8 312.9,121.8 
				312.9,119.4 311.6,118.1 309.4,115.9 309.4,114 305.8,114 302.3,110.4 302.3,107 297.4,107 294.4,110 294.4,112.9 289.8,112.9 
				287.4,110.4 287.4,109 282.8,109 280.5,111.3 278.9,112.9 275.8,112.9 271.1,108.3 267.4,108.3 261.2,114.4 257.2,114.4 
				257.4,114.6 257.4,117.7 253.9,117.7 251.4,115.2 251.4,114.4 246.6,114.4 242.8,118.3 242.8,121.9 238.3,126.4 237.2,126.4 
				237.2,128.2 237.8,128.8 237.8,130.1 239.3,131.7 239.3,132.3 240.5,133.4 240.5,135.4 243.1,138 245.1,138 245.1,140.3 
				246,141.2 246,142.5 247,143.6 249.7,143.6 250.6,142.8 254.9,142.8 261.6,136.1 			"/>
			<polygon class="st1" points="282.2,50.2 284.2,50.2 285.1,51 287.1,51 289,49.1 289,46.4 290.6,46.4 288.8,44.6 290.6,44.6 
				290.6,42.7 292.2,42.7 293.3,43.8 295.8,41.4 299.8,41.4 302,39.2 301.2,38.4 299,38.4 300,39.3 300,39.7 299.6,40 299.4,39.8 
				298.6,40.5 296.7,40.5 296.3,40.1 294.2,40.1 294.2,41.1 293.4,42 290.6,42 289.7,42.9 288.3,42.9 286.5,44.7 286.5,47.3 
				284.8,49.1 282.2,49.1 			"/>
		</g>
	</g>
</g>
</svg>
