<?xml version="1.0" encoding="utf-8"?>
<!-- Generator: Adobe Illustrator 21.1.0, SVG Export Plug-In . SVG Version: 6.00 Build 0)  -->
<svg version="1.1" id="Слой_1" xmlns="http://www.w3.org/2000/svg" xmlns:xlink="http://www.w3.org/1999/xlink" x="0px" y="0px"
	 viewBox="0 0 181 108" style="enable-background:new 0 0 181 108;" xml:space="preserve">
<style type="text/css">
	.st0{fill:#265222;}
	.st1{fill:#D1D1CD;}
	.st2{fill:#A19C95;}
	.st3{fill:#57352F;}
	.st4{fill:#568E48;}
	.st5{fill:#346F2E;}
	.st6{fill:#FFFFFF;}
	.st7{fill:url(#SVGID_1_);}
	.st8{fill:url(#SVGID_2_);}
	.st9{fill:#4F4F4F;}
	.st10{fill:#707070;}
	.st11{fill:url(#SVGID_3_);}
	.st12{fill:url(#SVGID_4_);stroke:#FFFFFF;stroke-miterlimit:10;}
	.st13{fill:url(#SVGID_5_);}
	.st14{fill:url(#SVGID_6_);stroke:#FFFFFF;stroke-miterlimit:10;}
	.st15{fill:url(#SVGID_7_);}
	.st16{fill:url(#SVGID_8_);}
	.st17{fill:url(#SVGID_9_);}
	.st18{fill:url(#SVGID_10_);}
	.st19{fill:url(#SVGID_11_);}
	.st20{fill:url(#SVGID_12_);}
	.st21{fill:none;stroke:#9F9A93;stroke-width:0.25;stroke-linecap:round;stroke-miterlimit:10;}
	.st22{fill:url(#SVGID_13_);}
	.st23{fill:url(#SVGID_14_);stroke:#FFFFFF;stroke-miterlimit:10;}
	.st24{fill:url(#SVGID_15_);}
	.st25{fill:#E4E4E4;}
	.st26{fill:#A8A8A8;}
	.st27{fill:#8F8F8F;}
</style>
<g>
	<g>
		<path class="st0" d="M5.9,78.3l46.4,26.3c7.2,4.1,18,4.6,24.2,1l100.3-58.7c6.2-3.6,5.4-9.8-1.7-14L128.7,6.6
			c-7.2-4.1-18-4.6-24.2-1L4.2,64.3C-2,67.9-1.2,74.1,5.9,78.3z"/>
		<path class="st1" d="M5.9,75.3l46.4,26.3c7.2,4.1,18,4.6,24.2,1l100.3-58.7c6.2-3.6,5.4-9.8-1.7-14L128.7,3.6
			c-7.2-4.1-18-4.6-24.2-1L4.2,61.3C-2,64.9-1.2,71.1,5.9,75.3z"/>
	</g>
	<g>
		<path class="st2" d="M20.3,75.7l-2.7,0.4l-1.1-0.5L15,76.1l-1.3-0.6l-1.2-1l0.3-1l-2.8-0.5l0.7-1.1l1.2-0.1l0.1-1.4l2.2-0.6
			l0.7,0.5l1.4-0.2l1.1-1.2l1.8,0.2l0.4,0.6l1.6-0.2l1.6,1.5l-0.4,0.6l1.8-0.1l1,1l-1.5,0.3l0,1l-1.6,0.5L20.3,75.7z"/>
		<g>
			<polygon class="st3" points="21.1,74.2 21.9,58.2 22.1,74.3 			"/>
			<polygon class="st3" points="21.3,70.5 19.3,65.3 21.9,70.2 			"/>
			<polygon class="st4" points="17.1,66.2 15.5,63.9 16.2,62.5 14.5,61.5 15.4,59.8 16.8,58.1 18.9,57.7 19,54.7 21.3,54.7 
				21.9,55.8 24.6,55 26.3,56.7 25.6,57.7 26.5,58.9 29,59.2 29.2,61.1 28.1,61.9 29,63.2 26.7,65.7 25.5,65.7 26.2,67.3 24.6,68.9 
				23.5,67.7 21.6,68.4 20.1,67.1 			"/>
			<g>
				<polygon class="st4" points="21.4,57 20.2,55.8 20.6,54.7 19,54.7 18.9,57.7 21,58.3 				"/>
				<polygon class="st5" points="22,65.4 20.1,65.9 19.8,64.6 18.2,64.2 18.1,62.7 20.4,62.8 20.9,61.9 20.2,60 19.1,60.6 
					18.1,59.6 18.9,57.7 16.8,58.1 15.4,59.8 14.5,61.5 16.2,62.5 15.5,63.9 17.1,66.2 20.1,67.1 21.6,68.4 23.5,67.7 24.6,68.9 
					24,66.3 				"/>
			</g>
		</g>
	</g>
	<g>
		<g>
			<path class="st2" d="M117.3,22.4c-0.4,0-0.8,0.1-1.2,0.3L96.2,34.2l-4.8-2.8c-0.4-0.2-0.8-0.3-1.2-0.3c-0.4,0-0.8,0.1-1.2,0.3
				L54.2,51.5c-0.8,0.4-1.2,1.2-1.2,2.1s0.5,1.7,1.2,2.1l0.9,0.5l-7.9,4.6c-0.8,0.4-1.2,1.2-1.2,2.1s0.5,1.7,1.2,2.1l0.2,0.1
				l-4.7,2.7c-0.7,0.4-1.2,1.2-1.2,2.1c0,0.9,0.5,1.7,1.2,2.1l12.7,7.4c0.4,0.2,0.8,0.3,1.2,0.3c0.4,0,0.9-0.1,1.2-0.3l7.1-4.2
				l2.4,1.4c0.4,0.2,0.8,0.3,1.2,0.3c0.4,0,0.8-0.1,1.2-0.3l10.3-6l3.3,1.9c0.4,0.2,0.8,0.3,1.2,0.3c0.4,0,0.8-0.1,1.2-0.3
				l34.8-20.1c0.8-0.4,1.2-1.2,1.2-2.1s-0.5-1.7-1.2-2.1l-2.4-1.4l17.4-10c0.8-0.4,1.2-1.2,1.2-2.1s-0.5-1.7-1.2-2.1l-17.3-10
				C118.1,22.5,117.7,22.4,117.3,22.4L117.3,22.4z"/>
			<g>
				<polygon class="st6" points="134.5,16.1 134.5,34.8 113.5,47 113.5,28.3 				"/>
				
					<linearGradient id="SVGID_1_" gradientUnits="userSpaceOnUse" x1="-18.3728" y1="31.5588" x2="2.6499" y2="31.5588" gradientTransform="matrix(1 0 0 1 131.8788 0)">
					<stop  offset="0" style="stop-color:#B1B1B1;stop-opacity:0.335"/>
					<stop  offset="7.406294e-02" style="stop-color:#B1B1B1;stop-opacity:0.3176"/>
					<stop  offset="1" style="stop-color:#B1B1B1;stop-opacity:0.1"/>
				</linearGradient>
				<polygon class="st7" points="134.5,16.1 134.5,34.8 113.5,47 113.5,28.3 				"/>
				<polygon class="st6" points="68.6,55.9 68.6,74.6 80.2,67.9 80.2,49.2 				"/>
			</g>
			<g>
				<polygon class="st6" points="55.4,34.9 55.4,53.7 59.9,56.2 59.9,37.6 				"/>
				
					<linearGradient id="SVGID_2_" gradientUnits="userSpaceOnUse" x1="-29.2393" y1="34.4255" x2="-88.2972" y2="49.0882" gradientTransform="matrix(1 0 0 1 131.8788 0)">
					<stop  offset="0" style="stop-color:#B1B1B1;stop-opacity:0.7896"/>
					<stop  offset="1" style="stop-color:#B1B1B1;stop-opacity:0.335"/>
				</linearGradient>
				<polygon class="st8" points="55.4,34.9 55.4,53.7 59.9,56.2 59.9,37.6 				"/>
				<polygon class="st6" points="80.2,49.2 80.2,67.9 84.7,70.6 84.7,51.9 				"/>
			</g>
			<polygon class="st6" points="119.5,50.4 119.5,31.8 84.7,51.9 84.7,70.6 			"/>
			<polygon class="st6" points="48.4,44.2 48.4,62.9 68.6,74.6 68.6,55.9 			"/>
			<g>
				<polygon class="st9" points="55.4,36.6 59.9,39.2 48.4,44.2 48.4,45.9 68.6,57.5 80.2,50.9 84.7,53.5 119.5,33.4 119.5,31.8 
					113.5,29.9 134.5,17.8 134.5,16.1 55.4,34.9 				"/>
			</g>
			<g>
				<polygon class="st9" points="55.4,34.9 59.9,37.6 48.4,44.2 68.6,55.9 80.2,49.2 84.7,51.9 119.5,31.8 113.5,28.3 134.5,16.1 
					117.3,6.2 96.2,18.3 90.2,14.8 				"/>
			</g>
			<g>
				<path class="st10" d="M117.3,9l12.4,7.2l-17.4,10l-3.7,2.1l3.7,2.1l2.4,1.4L84.7,49.1l-3.3-1.9l-1.2-0.7l-1.2,0.7l-10.3,6
					l-15.3-8.9l7.9-4.6l3.7-2.1l-3.7-2.1l-0.9-0.5l29.9-17.3l4.8,2.8l1.2,0.7l1.2-0.7L117.3,9 M117.3,6.2l-21,12.1l-6-3.5L55.4,34.9
					l4.6,2.6l-11.6,6.7l20.2,11.7l11.6-6.7l4.6,2.6l34.8-20.1l-6-3.5l21-12.1L117.3,6.2L117.3,6.2z"/>
			</g>
			<g>
				<path class="st6" d="M67.9,28v7c0,5.4,7.5,9.7,16.8,9.7c9.3,0,16.8-4.3,16.8-9.7v-7H67.9z"/>
				
					<linearGradient id="SVGID_3_" gradientUnits="userSpaceOnUse" x1="-63.9847" y1="36.3432" x2="-30.3404" y2="36.3432" gradientTransform="matrix(1 0 0 1 131.8788 0)">
					<stop  offset="0.1166" style="stop-color:#B1B1B1"/>
					<stop  offset="0.1657" style="stop-color:#B1B1B1;stop-opacity:0.9259"/>
					<stop  offset="0.7801" style="stop-color:#B1B1B1;stop-opacity:0"/>
				</linearGradient>
				<path class="st11" d="M67.9,28v7c0,5.4,7.5,9.7,16.8,9.7c9.3,0,16.8-4.3,16.8-9.7v-7H67.9z"/>
				<ellipse class="st6" cx="84.7" cy="28" rx="16.8" ry="9.7"/>
				
					<linearGradient id="SVGID_4_" gradientUnits="userSpaceOnUse" x1="-32.8898" y1="23.8397" x2="-65.6516" y2="33.3162" gradientTransform="matrix(1 0 0 1 131.8788 0)">
					<stop  offset="0.5021" style="stop-color:#B1B1B1"/>
					<stop  offset="1" style="stop-color:#707070"/>
				</linearGradient>
				<ellipse class="st12" cx="84.7" cy="28" rx="16.8" ry="9.7"/>
				<path class="st6" d="M84.7,17.9c-7.3,0-13.3,5.9-13.3,10.1c0,4.2,6,7.7,13.3,7.7c7.3,0,13.3-3.4,13.3-7.7
					C98,23.7,92.1,17.9,84.7,17.9z"/>
				
					<linearGradient id="SVGID_5_" gradientUnits="userSpaceOnUse" x1="-60.456" y1="26.7496" x2="-33.8691" y2="26.7496" gradientTransform="matrix(1 0 0 1 131.8788 0)">
					<stop  offset="0.1166" style="stop-color:#B1B1B1"/>
					<stop  offset="0.1657" style="stop-color:#B1B1B1;stop-opacity:0.9259"/>
					<stop  offset="0.7801" style="stop-color:#B1B1B1;stop-opacity:0"/>
				</linearGradient>
				<path class="st13" d="M84.7,17.9c-7.3,0-13.3,5.9-13.3,10.1c0,4.2,6,7.7,13.3,7.7c7.3,0,13.3-3.4,13.3-7.7
					C98,23.7,92.1,17.9,84.7,17.9z"/>
			</g>
			<g>
				
					<linearGradient id="SVGID_6_" gradientUnits="userSpaceOnUse" x1="-42.1828" y1="20.0375" x2="-53.6134" y2="23.3439" gradientTransform="matrix(1 0 0 1 131.8788 0)">
					<stop  offset="0.5021" style="stop-color:#B1B1B1"/>
					<stop  offset="1" style="stop-color:#707070"/>
				</linearGradient>
				<ellipse class="st14" cx="84.7" cy="21.5" rx="5.9" ry="3.7"/>
			</g>
			<g>
				
					<linearGradient id="SVGID_7_" gradientUnits="userSpaceOnUse" x1="-19.522" y1="52.4665" x2="-78.5326" y2="67.1175" gradientTransform="matrix(1 0 0 1 131.8788 0)">
					<stop  offset="0" style="stop-color:#B1B1B1;stop-opacity:0.7896"/>
					<stop  offset="1" style="stop-color:#B1B1B1;stop-opacity:0.335"/>
				</linearGradient>
				<polygon class="st15" points="80.2,49.2 80.2,67.9 84.7,70.6 84.7,51.9 				"/>
			</g>
			
				<linearGradient id="SVGID_8_" gradientUnits="userSpaceOnUse" x1="-47.1622" y1="51.1584" x2="-12.3453" y2="51.1584" gradientTransform="matrix(1 0 0 1 131.8788 0)">
				<stop  offset="0" style="stop-color:#B1B1B1;stop-opacity:0.335"/>
				<stop  offset="7.406294e-02" style="stop-color:#B1B1B1;stop-opacity:0.3176"/>
				<stop  offset="1" style="stop-color:#B1B1B1;stop-opacity:0.1"/>
			</linearGradient>
			<polygon class="st16" points="119.5,50.4 119.5,31.8 84.7,51.9 84.7,70.6 			"/>
			
				<linearGradient id="SVGID_9_" gradientUnits="userSpaceOnUse" x1="-44.1755" y1="39.2009" x2="-114.4437" y2="87.8323" gradientTransform="matrix(1 0 0 1 131.8788 0)">
				<stop  offset="0" style="stop-color:#B1B1B1;stop-opacity:0.7896"/>
				<stop  offset="1" style="stop-color:#B1B1B1;stop-opacity:0.335"/>
			</linearGradient>
			<polygon class="st17" points="48.4,44.2 48.4,62.9 68.6,74.6 68.6,55.9 			"/>
			<g>
				
					<linearGradient id="SVGID_10_" gradientUnits="userSpaceOnUse" x1="-63.2755" y1="61.9162" x2="-51.7168" y2="61.9162" gradientTransform="matrix(1 0 0 1 131.8788 0)">
					<stop  offset="0" style="stop-color:#B1B1B1;stop-opacity:0.335"/>
					<stop  offset="7.406294e-02" style="stop-color:#B1B1B1;stop-opacity:0.3176"/>
					<stop  offset="1" style="stop-color:#B1B1B1;stop-opacity:0.1"/>
				</linearGradient>
				<polygon class="st18" points="68.6,55.9 68.6,74.6 80.2,67.9 80.2,49.2 				"/>
			</g>
			<g>
				<g>
					<g>
						<g>
							<g>
								<g>
									<polygon class="st6" points="64.6,64.4 51.8,57.1 43.9,61.6 43.9,70 56.7,77.3 64.6,72.7 									"/>
									<polygon class="st10" points="64.6,64.4 51.8,57.1 43.9,61.6 43.9,62.3 56.7,69.7 64.6,65.1 									"/>
									<polygon class="st9" points="46.9,61.6 51.8,58.8 61.6,64.4 56.7,67.3 									"/>
								</g>
								
									<linearGradient id="SVGID_11_" gradientUnits="userSpaceOnUse" x1="-3573.4451" y1="76.4236" x2="-3576.7214" y2="53.2854" gradientTransform="matrix(1 0 0 1 3624.7727 0)">
									<stop  offset="0" style="stop-color:#B1B1B1;stop-opacity:0.7896"/>
									<stop  offset="1" style="stop-color:#B1B1B1;stop-opacity:0.335"/>
								</linearGradient>
								<path class="st19" d="M43.9,70v-8.3l12.8,7.5v8.2"/>
								
									<linearGradient id="SVGID_12_" gradientUnits="userSpaceOnUse" x1="4195.731" y1="68.6589" x2="4190.0962" y2="72.769" gradientTransform="matrix(-1 0 0 1 4253.2451 0)">
									<stop  offset="0" style="stop-color:#B1B1B1;stop-opacity:0.335"/>
									<stop  offset="7.406294e-02" style="stop-color:#B1B1B1;stop-opacity:0.3176"/>
									<stop  offset="1" style="stop-color:#B1B1B1;stop-opacity:0.1"/>
								</linearGradient>
								<path class="st20" d="M56.7,77.4v-8.2l8-4.7v8.2"/>
							</g>
						</g>
						<g>
							<line class="st21" x1="61.6" y1="64.5" x2="62.9" y2="65.2"/>
							<line class="st21" x1="60" y1="65.5" x2="61.3" y2="66.2"/>
							<line class="st21" x1="58.4" y1="66.5" x2="59.6" y2="67.2"/>
							<line class="st21" x1="56.7" y1="67.5" x2="58" y2="68.2"/>
						</g>
						<g>
							<line class="st21" x1="50.4" y1="57.9" x2="51.8" y2="58.6"/>
							<line class="st21" x1="48.8" y1="58.9" x2="50.2" y2="59.6"/>
							<line class="st21" x1="47.1" y1="59.9" x2="48.5" y2="60.6"/>
							<line class="st21" x1="45.5" y1="60.9" x2="46.9" y2="61.6"/>
						</g>
					</g>
				</g>
			</g>
			<path class="st6" d="M80.5,17.7v3.8c0,1.4,1.9,2.5,4.3,2.5c2.4,0,4.3-1.1,4.3-2.5v-3.8H80.5z"/>
			
				<linearGradient id="SVGID_13_" gradientUnits="userSpaceOnUse" x1="-51.4188" y1="20.794" x2="-42.9063" y2="20.794" gradientTransform="matrix(1 0 0 1 131.8788 0)">
				<stop  offset="0.1166" style="stop-color:#B1B1B1"/>
				<stop  offset="0.1657" style="stop-color:#B1B1B1;stop-opacity:0.9259"/>
				<stop  offset="0.7801" style="stop-color:#B1B1B1;stop-opacity:0"/>
			</linearGradient>
			<path class="st22" d="M80.5,17.7v3.8c0,1.4,1.9,2.5,4.3,2.5c2.4,0,4.3-1.1,4.3-2.5v-3.8H80.5z"/>
			
				<linearGradient id="SVGID_14_" gradientUnits="userSpaceOnUse" x1="-43.5513" y1="16.6082" x2="-51.8405" y2="19.0059" gradientTransform="matrix(1 0 0 1 131.8788 0)">
				<stop  offset="0.5021" style="stop-color:#B1B1B1"/>
				<stop  offset="1" style="stop-color:#707070"/>
			</linearGradient>
			<ellipse class="st23" cx="84.7" cy="17.7" rx="4.3" ry="2.5"/>
		</g>
		<g>
			<ellipse class="st2" cx="86.8" cy="81.7" rx="5.8" ry="4"/>
			<g>
				<g>
					
						<linearGradient id="SVGID_15_" gradientUnits="userSpaceOnUse" x1="-91.4293" y1="62.6472" x2="-87.1906" y2="62.6472" gradientTransform="matrix(1 0 0 1 176.0939 0)">
						<stop  offset="0" style="stop-color:#B1B1B1"/>
						<stop  offset="0.4969" style="stop-color:#E6E6E6"/>
						<stop  offset="0.7801" style="stop-color:#FFFFFF"/>
					</linearGradient>
					<path class="st24" d="M89,41.9h-4.5l-0.9,39.8c0,0.9,1.4,1.7,3.2,1.7c1.8,0,3.2-0.8,3.2-1.7L89,41.9z"/>
					<path class="st10" d="M86.8,54.5c-1.2,0-2.2-0.4-2.5-1l-0.1,4.1c0,0.8,1.2,1.4,2.6,1.4c1.4,0,2.6-0.6,2.6-1.4l-0.1-4.1
						C89,54.1,88,54.5,86.8,54.5z"/>
					<path class="st10" d="M86.8,47.1c-1.1,0-2-0.4-2.3-1l-0.1,3.8c0,0.7,1.1,1.3,2.4,1.3c1.3,0,2.4-0.6,2.4-1.3l-0.1-3.8
						C88.8,46.6,87.9,47.1,86.8,47.1z"/>
					<ellipse class="st25" cx="86.8" cy="41.9" rx="2.3" ry="1.2"/>
					<ellipse class="st26" cx="86.8" cy="41.9" rx="1.7" ry="0.9"/>
				</g>
				<g>
					<g>
						<path class="st27" d="M83.7,79.6c0,0.9,1.4,1.7,3.1,1.7c1.7,0,3.1-0.8,3.1-1.7l0-0.2c-0.1,0.9-1.5,1.6-3.1,1.6
							c-1.7,0-3-0.7-3.1-1.6L83.7,79.6z"/>
					</g>
				</g>
				<g>
					<g>
						<path class="st27" d="M83.8,71.5c0,0.9,1.3,1.6,2.9,1.6c1.6,0,2.9-0.7,2.9-1.6l0-0.2c-0.1,0.8-1.4,1.5-2.9,1.5
							c-1.6,0-2.9-0.7-2.9-1.5L83.8,71.5z"/>
					</g>
				</g>
				<g>
					<g>
						<path class="st27" d="M84.1,62c0,0.8,1.2,1.5,2.7,1.5c1.5,0,2.7-0.7,2.7-1.5l0-0.2c-0.1,0.8-1.3,1.4-2.7,1.4
							c-1.5,0-2.6-0.6-2.7-1.4L84.1,62z"/>
					</g>
				</g>
				<g>
					<g>
						<path class="st27" d="M84.3,53.3c0,0.8,1.1,1.4,2.5,1.4c1.4,0,2.5-0.6,2.5-1.4l0-0.2c-0.1,0.7-1.2,1.3-2.5,1.3
							c-1.3,0-2.4-0.6-2.5-1.3L84.3,53.3z"/>
					</g>
				</g>
			</g>
		</g>
	</g>
	<g>
		<g>
			<path class="st2" d="M136,55.5l-2.4,0.4l-0.9-0.5l-1.4,0.5l-1.1-0.6l-1.1-0.9l0.2-0.9l-2.5-0.5l0.7-1l1.1-0.1l0.1-1.3l2-0.5
				l0.6,0.4l1.3-0.2l1-1l1.6,0.2l0.4,0.6l1.4-0.2l1.4,1.3l-0.3,0.5l1.6-0.1l0.9,0.9l-1.3,0.3l0,0.9l-1.4,0.5L136,55.5z"/>
			<g>
				<polygon class="st3" points="136.7,54.2 137.4,40 137.6,54.3 				"/>
				<polygon class="st3" points="136.9,50.9 135.2,46.3 137.4,50.6 				"/>
				<polygon class="st4" points="133.2,47.1 131.7,45 132.3,43.8 130.9,42.9 131.6,41.4 132.9,39.9 134.7,39.5 134.9,36.9 
					136.9,36.9 137.4,37.8 139.8,37.1 141.4,38.7 140.8,39.5 141.5,40.6 143.8,40.8 143.9,42.5 142.9,43.2 143.8,44.4 141.7,46.6 
					140.6,46.6 141.2,48 139.8,49.5 138.8,48.4 137.1,49 135.8,47.9 				"/>
				<g>
					<polygon class="st4" points="137,38.9 135.9,37.8 136.3,36.9 134.9,36.9 134.7,39.5 136.7,40.1 					"/>
					<polygon class="st5" points="137.5,46.4 135.8,46.8 135.6,45.6 134.1,45.3 134,43.9 136.1,44.1 136.5,43.2 135.9,41.5 
						135,42.1 134,41.2 134.7,39.5 132.9,39.9 131.6,41.4 130.9,42.9 132.3,43.8 131.7,45 133.2,47.1 135.8,47.9 137.1,49 
						138.8,48.4 139.8,49.5 139.3,47.2 					"/>
				</g>
			</g>
		</g>
		<g>
			<g>
				<polygon class="st4" points="133.1,41.8 132,40.3 132.5,39.3 131.4,38.6 131.9,37.5 132.9,36.3 134.3,36.1 134.4,34.1 
					135.9,34.1 136.3,34.8 138.1,34.3 139.3,35.4 138.8,36.1 139.4,36.9 141.1,37.1 141.2,38.3 140.5,38.9 141.1,39.8 139.5,41.4 
					138.7,41.4 139.2,42.5 138.1,43.6 137.4,42.8 136.1,43.2 135.1,42.4 				"/>
				<g>
					<polyline class="st5" points="134.3,36.1 135.7,36.5 136,35.6 135.2,34.8 135.5,34.1 134.4,34.1 					"/>
					<polygon class="st5" points="136.4,41.2 135.1,41.6 134.9,40.7 133.8,40.4 133.7,39.4 135.3,39.5 135.6,38.9 135.2,37.6 
						134.5,38.1 133.7,37.3 134.3,36.1 132.9,36.3 131.9,37.5 131.4,38.6 132.5,39.3 132,40.3 133.1,41.8 135.1,42.4 136.1,43.2 
						137.4,42.8 138.1,43.6 137.7,41.9 					"/>
				</g>
			</g>
		</g>
		<g>
			<g>
				<polygon class="st4" points="134.4,33.4 134.4,34.8 135.1,35.3 134.7,36.2 135.5,36.7 136.6,37 137.5,36.7 138.4,38 139.4,37.4 
					139.3,36.7 140.6,36.4 140.9,35.2 140.3,34.9 140.3,34.2 141.3,33.4 140.8,32.5 140.1,32.5 140.2,31.6 138.5,31.1 138,31.5 
					137.9,30.6 136.7,30.3 136.6,31.1 135.7,31.3 135.4,32.2 				"/>
				<g>
					<polygon class="st5" points="136.7,32.5 135.7,32.8 136,33.4 135.4,34 135.8,34.7 136.7,34 137.2,34.3 137.4,35.3 136.8,35.3 
						136.7,36.1 137.5,36.7 136.6,37 135.5,36.7 134.7,36.2 135.1,35.3 134.4,34.8 134.4,33.4 135.4,32.2 135.7,31.3 136.6,31.1 
						136.7,30.3 137.2,31.6 					"/>
				</g>
			</g>
		</g>
	</g>
	<g>
		<g>
			<path class="st2" d="M67.3,94.5l-2.4,0.4l-0.9-0.5l-1.4,0.5l-1.1-0.6l-1.1-0.9l0.2-0.9l-2.5-0.5l0.7-1l1.1-0.1l0.1-1.3l2-0.5
				l0.6,0.4l1.3-0.2l1-1l1.6,0.2l0.4,0.6l1.4-0.2l1.4,1.3l-0.3,0.5l1.6-0.1l0.9,0.9l-1.3,0.3l0,0.9l-1.4,0.5L67.3,94.5z"/>
			<g>
				<polygon class="st3" points="68,93.3 68.6,79 68.8,93.4 				"/>
				<polygon class="st3" points="68.1,89.9 66.4,85.3 68.6,89.7 				"/>
				<polygon class="st4" points="64.4,86.1 63,84.1 63.6,82.9 62.1,81.9 62.8,80.5 64.2,78.9 66,78.5 66.1,75.9 68.1,75.9 
					68.6,76.9 71,76.1 72.6,77.7 72,78.5 72.7,79.6 75,79.9 75.1,81.6 74.1,82.3 75,83.5 72.9,85.6 71.9,85.6 72.5,87.1 71,88.5 
					70.1,87.5 68.4,88.1 67,87 				"/>
				<g>
					<polygon class="st4" points="68.2,77.9 67.2,76.9 67.5,75.9 66.1,75.9 66,78.5 67.9,79.2 					"/>
					<polygon class="st5" points="68.7,85.4 67,85.9 66.8,84.7 65.4,84.3 65.2,83 67.3,83.1 67.8,82.3 67.2,80.6 66.2,81.2 
						65.2,80.2 66,78.5 64.2,78.9 62.8,80.5 62.1,81.9 63.6,82.9 63,84.1 64.4,86.1 67,87 68.4,88.1 70.1,87.5 71,88.5 70.5,86.2 
											"/>
				</g>
			</g>
		</g>
		<g>
			<g>
				<polygon class="st4" points="64.3,80.8 63.2,79.3 63.7,78.4 62.6,77.7 63.1,76.6 64.1,75.4 65.5,75.1 65.6,73.1 67.1,73.1 
					67.5,73.9 69.3,73.3 70.5,74.5 70,75.1 70.6,75.9 72.3,76.1 72.4,77.4 71.7,77.9 72.3,78.8 70.8,80.5 69.9,80.5 70.4,81.6 
					69.3,82.7 68.6,81.8 67.3,82.3 66.3,81.5 				"/>
				<g>
					<polyline class="st5" points="65.5,75.1 67,75.6 67.2,74.7 66.4,73.9 66.7,73.1 65.6,73.1 					"/>
					<polygon class="st5" points="67.6,80.3 66.3,80.7 66.1,79.8 65,79.5 65,78.5 66.5,78.6 66.9,77.9 66.4,76.7 65.7,77.1 65,76.4 
						65.5,75.1 64.1,75.4 63.1,76.6 62.6,77.7 63.7,78.4 63.2,79.3 64.3,80.8 66.3,81.5 67.3,82.3 68.6,81.8 69.3,82.7 69,80.9 
											"/>
				</g>
			</g>
		</g>
		<g>
			<g>
				<polygon class="st4" points="65.7,72.5 65.6,73.9 66.3,74.3 65.9,75.2 66.7,75.7 67.8,76.1 68.8,75.7 69.6,77 70.6,76.4 
					70.5,75.8 71.8,75.5 72.1,74.2 71.5,74 71.5,73.2 72.5,72.4 72,71.6 71.4,71.5 71.4,70.7 69.8,70.2 69.3,70.5 69.1,69.6 
					68,69.3 67.9,70.2 66.9,70.3 66.6,71.3 				"/>
				<g>
					<polygon class="st5" points="67.9,71.5 67,71.8 67.2,72.5 66.7,73.1 67,73.8 67.9,73.1 68.4,73.4 68.7,74.4 68,74.4 67.9,75.1 
						68.8,75.7 67.8,76.1 66.7,75.7 65.9,75.2 66.3,74.3 65.6,73.9 65.7,72.5 66.6,71.3 66.9,70.3 67.9,70.2 68,69.3 68.5,70.6 
											"/>
				</g>
			</g>
		</g>
	</g>
</g>
</svg>
