<?xml version="1.0" encoding="utf-8"?>
<!-- Generator: Adobe Illustrator 21.1.0, SVG Export Plug-In . SVG Version: 6.00 Build 0)  -->
<svg version="1.1" id="Слой_1" xmlns="http://www.w3.org/2000/svg" xmlns:xlink="http://www.w3.org/1999/xlink" x="0px" y="0px"
	 viewBox="0 0 199 119" style="enable-background:new 0 0 199 119;" xml:space="preserve">
<style type="text/css">
	.st0{fill:#A48A42;}
	.st1{fill:#D1D1CD;}
	.st2{fill:#A19C95;}
	.st3{fill:#57352F;}
	.st4{fill:#568E48;}
	.st5{fill:#346F2E;}
	.st6{fill:#FFFFFF;}
	.st7{fill:url(#SVGID_1_);}
	.st8{fill:url(#SVGID_2_);}
	.st9{fill:#4F4F4F;}
	.st10{fill:#707070;}
	.st11{fill:url(#SVGID_3_);}
	.st12{fill:url(#SVGID_4_);stroke:#FFFFFF;stroke-miterlimit:10;}
	.st13{fill:url(#SVGID_5_);}
	.st14{fill:url(#SVGID_6_);stroke:#FFFFFF;stroke-miterlimit:10;}
	.st15{fill:url(#SVGID_7_);}
	.st16{fill:url(#SVGID_8_);}
	.st17{fill:url(#SVGID_9_);}
	.st18{fill:url(#SVGID_10_);}
	.st19{fill:url(#SVGID_11_);}
	.st20{fill:url(#SVGID_12_);}
	.st21{fill:none;stroke:#9F9A93;stroke-width:0.25;stroke-linecap:round;stroke-miterlimit:10;}
	.st22{fill:url(#SVGID_13_);}
	.st23{fill:url(#SVGID_14_);stroke:#FFFFFF;stroke-miterlimit:10;}
	.st24{fill:url(#SVGID_15_);}
	.st25{fill:#E4E4E4;}
	.st26{fill:#A8A8A8;}
	.st27{fill:#8F8F8F;}
</style>
<g>
	<g>
		<path class="st0" d="M192.4,71.5l-74.8,43.2c-7.2,4.1-18,4.6-24.2,1L5,64.7c-6.2-3.6-5.4-9.8,1.7-14L81.6,7.6
			c7.2-4.1,18-4.6,24.2-1l88.3,51C200.3,61.2,199.5,67.4,192.4,71.5z"/>
		<path class="st1" d="M192.4,68.5l-74.8,43.2c-7.2,4.1-18,4.6-24.2,1L5,61.7c-6.2-3.6-5.4-9.8,1.7-14L81.6,4.6
			c7.2-4.1,18-4.6,24.2-1l88.3,51C200.3,58.2,199.5,64.4,192.4,68.5z"/>
	</g>
	<g>
		<path class="st2" d="M29.1,63l1.6-0.5l0-1l1.5-0.3l-1-1l-1.8,0.1l0.4-0.6l-1.6-1.5l-1.6,0.2l-0.4-0.6l-1.8-0.2l-1.1,1.2l-1.4,0.2
			l-0.7-0.5L19,58.9l-0.1,1.4l-1.2,0.1l-0.7,1.1l2.8,0.5l-0.3,1l1.2,1l1.3,0.6l1.5-0.6l1.1,0.5l2.7-0.4L29.1,63z"/>
		<g>
			<polygon class="st3" points="28,62.8 28.8,46.8 29,62.9 			"/>
			<polygon class="st3" points="28.2,59.1 26.2,53.9 28.8,58.8 			"/>
			<polygon class="st4" points="24,54.8 22.4,52.5 23.1,51.1 21.4,50.1 22.2,48.4 23.7,46.7 25.8,46.3 25.9,43.3 28.2,43.3 
				28.7,44.4 31.4,43.6 33.2,45.3 32.5,46.3 33.3,47.5 35.9,47.8 36,49.7 35,50.5 35.9,51.8 33.6,54.3 32.4,54.3 33.1,55.9 
				31.4,57.5 30.4,56.3 28.5,57 27,55.7 			"/>
			<g>
				<polygon class="st4" points="28.3,45.6 27.1,44.4 27.5,43.3 25.9,43.3 25.8,46.3 27.9,46.9 				"/>
				<polygon class="st5" points="28.9,54 27,54.5 26.7,53.2 25.1,52.8 25,51.3 27.3,51.4 27.8,50.5 27.1,48.6 26,49.2 25,48.2 
					25.8,46.3 23.7,46.7 22.2,48.4 21.4,50.1 23.1,51.1 22.4,52.5 24,54.8 27,55.7 28.5,57 30.4,56.3 31.4,57.5 30.9,54.9 				"/>
			</g>
		</g>
	</g>
	<g>
		<path class="st2" d="M162.1,71l1.6-0.5l0-1l1.5-0.3l-1-1l-1.8,0.1l0.4-0.6l-1.6-1.5l-1.6,0.2l-0.4-0.6l-1.8-0.2l-1.1,1.2l-1.4,0.2
			l-0.7-0.5L152,67l-0.1,1.4l-1.2,0.1l-0.7,1.1l2.8,0.5l-0.3,1l1.2,1l1.3,0.6l1.5-0.6l1.1,0.5l2.7-0.4L162.1,71z"/>
		<g>
			<polygon class="st3" points="161.1,70.9 161.8,54.9 162,71 			"/>
			<polygon class="st3" points="161.2,67.1 159.3,62 161.8,66.9 			"/>
			<polygon class="st4" points="157,62.9 155.4,60.6 156.1,59.2 154.5,58.1 155.3,56.5 156.8,54.7 158.8,54.3 158.9,51.4 
				161.2,51.4 161.8,52.4 164.5,51.6 166.2,53.4 165.6,54.3 166.4,55.5 169,55.8 169.1,57.7 168,58.5 169,59.9 166.7,62.3 
				165.4,62.3 166.1,63.9 164.5,65.6 163.4,64.3 161.5,65 160,63.8 			"/>
			<g>
				<polygon class="st4" points="161.4,53.7 160.2,52.4 160.6,51.4 158.9,51.4 158.8,54.3 161,55 				"/>
				<polygon class="st5" points="161.9,62 160,62.6 159.8,61.2 158.1,60.8 158,59.3 160.3,59.5 160.8,58.5 160.2,56.6 159.1,57.3 
					158,56.2 158.8,54.3 156.8,54.7 155.3,56.5 154.5,58.1 156.1,59.2 155.4,60.6 157,62.9 160,63.8 161.5,65 163.4,64.3 
					164.5,65.6 163.9,63 				"/>
			</g>
		</g>
	</g>
	<g>
		<g>
			<path class="st2" d="M119.8,27.1c-0.4,0-0.8,0.1-1.2,0.3L98.8,38.8L94,36.1c-0.4-0.2-0.8-0.3-1.2-0.3c-0.4,0-0.8,0.1-1.2,0.3
				L56.8,56.2c-0.8,0.4-1.2,1.2-1.2,2.1s0.5,1.7,1.2,2.1l0.9,0.5l-7.9,4.6c-0.8,0.4-1.2,1.2-1.2,2.1c0,0.9,0.5,1.7,1.2,2.1l0.2,0.1
				l-4.7,2.7c-0.7,0.4-1.2,1.2-1.2,2.1c0,0.9,0.5,1.7,1.2,2.1L58,84.1c0.4,0.2,0.8,0.3,1.2,0.3c0.4,0,0.9-0.1,1.2-0.3l7.1-4.2
				l2.4,1.4c0.4,0.2,0.8,0.3,1.2,0.3s0.8-0.1,1.2-0.3l10.3-6l3.3,1.9c0.4,0.2,0.8,0.3,1.2,0.3c0.4,0,0.8-0.1,1.2-0.3l34.8-20.1
				c0.8-0.4,1.2-1.2,1.2-2.1s-0.5-1.7-1.2-2.1l-2.4-1.4l17.4-10c0.8-0.4,1.2-1.2,1.2-2.1s-0.5-1.7-1.2-2.1l-17.3-10
				C120.7,27.2,120.3,27.1,119.8,27.1L119.8,27.1z"/>
			<g>
				<polygon class="st6" points="137.1,20.8 137.1,39.5 116.1,51.6 116.1,32.9 				"/>
				
					<linearGradient id="SVGID_1_" gradientUnits="userSpaceOnUse" x1="-15.7929" y1="36.2087" x2="5.2299" y2="36.2087" gradientTransform="matrix(1 0 0 1 131.8788 0)">
					<stop  offset="0" style="stop-color:#B1B1B1;stop-opacity:0.335"/>
					<stop  offset="7.406294e-02" style="stop-color:#B1B1B1;stop-opacity:0.3176"/>
					<stop  offset="1" style="stop-color:#B1B1B1;stop-opacity:0.1"/>
				</linearGradient>
				<polygon class="st7" points="137.1,20.8 137.1,39.5 116.1,51.6 116.1,32.9 				"/>
				<polygon class="st6" points="71.2,60.6 71.2,79.2 82.7,72.6 82.7,53.9 				"/>
			</g>
			<g>
				<polygon class="st6" points="58,39.6 58,58.4 62.5,60.9 62.5,42.2 				"/>
				
					<linearGradient id="SVGID_2_" gradientUnits="userSpaceOnUse" x1="-26.6594" y1="39.0754" x2="-85.7173" y2="53.738" gradientTransform="matrix(1 0 0 1 131.8788 0)">
					<stop  offset="0" style="stop-color:#B1B1B1;stop-opacity:0.7896"/>
					<stop  offset="1" style="stop-color:#B1B1B1;stop-opacity:0.335"/>
				</linearGradient>
				<polygon class="st8" points="58,39.6 58,58.4 62.5,60.9 62.5,42.2 				"/>
				<polygon class="st6" points="82.7,53.9 82.7,72.6 87.3,75.2 87.3,56.5 				"/>
			</g>
			<polygon class="st6" points="122.1,55.1 122.1,36.4 87.3,56.5 87.3,75.2 			"/>
			<polygon class="st6" points="51,48.9 51,67.6 71.2,79.2 71.2,60.6 			"/>
			<g>
				<polygon class="st9" points="58,41.2 62.5,43.8 51,48.9 51,50.5 71.2,62.2 82.7,55.5 87.3,58.1 122.1,38 122.1,36.4 116.1,34.6 
					137.1,22.4 137.1,20.8 58,39.6 				"/>
			</g>
			<g>
				<polygon class="st9" points="58,39.6 62.5,42.2 51,48.9 71.2,60.6 82.7,53.9 87.3,56.5 122.1,36.4 116.1,32.9 137.1,20.8 
					119.8,10.8 98.8,23 92.8,19.5 				"/>
			</g>
			<g>
				<path class="st10" d="M119.8,13.6l12.4,7.2l-17.4,10l-3.7,2.1l3.7,2.1l2.4,1.4L87.3,53.7L84,51.8l-1.2-0.7l-1.2,0.7l-10.3,6
					l-15.3-8.9l7.9-4.6l3.7-2.1l-3.7-2.1l-0.9-0.5l29.9-17.3l4.8,2.8l1.2,0.7l1.2-0.7L119.8,13.6 M119.8,10.8L98.8,23l-6-3.5
					L58,39.6l4.6,2.6L51,48.9l20.2,11.7l11.6-6.7l4.6,2.6l34.8-20.1l-6-3.5l21-12.1L119.8,10.8L119.8,10.8z"/>
			</g>
			<g>
				<path class="st6" d="M70.5,32.6v7c0,5.4,7.5,9.7,16.8,9.7c9.3,0,16.8-4.3,16.8-9.7v-7H70.5z"/>
				
					<linearGradient id="SVGID_3_" gradientUnits="userSpaceOnUse" x1="-61.4048" y1="40.993" x2="-27.7604" y2="40.993" gradientTransform="matrix(1 0 0 1 131.8788 0)">
					<stop  offset="0.1166" style="stop-color:#B1B1B1"/>
					<stop  offset="0.1657" style="stop-color:#B1B1B1;stop-opacity:0.9259"/>
					<stop  offset="0.7801" style="stop-color:#B1B1B1;stop-opacity:0"/>
				</linearGradient>
				<path class="st11" d="M70.5,32.6v7c0,5.4,7.5,9.7,16.8,9.7c9.3,0,16.8-4.3,16.8-9.7v-7H70.5z"/>
				<ellipse class="st6" cx="87.3" cy="32.6" rx="16.8" ry="9.7"/>
				
					<linearGradient id="SVGID_4_" gradientUnits="userSpaceOnUse" x1="-30.3099" y1="28.4895" x2="-63.0716" y2="37.9661" gradientTransform="matrix(1 0 0 1 131.8788 0)">
					<stop  offset="0.5021" style="stop-color:#B1B1B1"/>
					<stop  offset="1" style="stop-color:#707070"/>
				</linearGradient>
				<ellipse class="st12" cx="87.3" cy="32.6" rx="16.8" ry="9.7"/>
				<path class="st6" d="M87.3,22.5C80,22.5,74,28.4,74,32.6c0,4.2,6,7.7,13.3,7.7c7.3,0,13.3-3.4,13.3-7.7
					C100.6,28.4,94.6,22.5,87.3,22.5z"/>
				
					<linearGradient id="SVGID_5_" gradientUnits="userSpaceOnUse" x1="-57.8761" y1="31.3995" x2="-31.2891" y2="31.3995" gradientTransform="matrix(1 0 0 1 131.8788 0)">
					<stop  offset="0.1166" style="stop-color:#B1B1B1"/>
					<stop  offset="0.1657" style="stop-color:#B1B1B1;stop-opacity:0.9259"/>
					<stop  offset="0.7801" style="stop-color:#B1B1B1;stop-opacity:0"/>
				</linearGradient>
				<path class="st13" d="M87.3,22.5C80,22.5,74,28.4,74,32.6c0,4.2,6,7.7,13.3,7.7c7.3,0,13.3-3.4,13.3-7.7
					C100.6,28.4,94.6,22.5,87.3,22.5z"/>
			</g>
			<g>
				
					<linearGradient id="SVGID_6_" gradientUnits="userSpaceOnUse" x1="-39.6028" y1="24.6874" x2="-51.0334" y2="27.9938" gradientTransform="matrix(1 0 0 1 131.8788 0)">
					<stop  offset="0.5021" style="stop-color:#B1B1B1"/>
					<stop  offset="1" style="stop-color:#707070"/>
				</linearGradient>
				<ellipse class="st14" cx="87.3" cy="26.1" rx="5.9" ry="3.7"/>
			</g>
			<g>
				
					<linearGradient id="SVGID_7_" gradientUnits="userSpaceOnUse" x1="-16.9421" y1="57.1164" x2="-75.9527" y2="71.7673" gradientTransform="matrix(1 0 0 1 131.8788 0)">
					<stop  offset="0" style="stop-color:#B1B1B1;stop-opacity:0.7896"/>
					<stop  offset="1" style="stop-color:#B1B1B1;stop-opacity:0.335"/>
				</linearGradient>
				<polygon class="st15" points="82.7,53.9 82.7,72.6 87.3,75.2 87.3,56.5 				"/>
			</g>
			
				<linearGradient id="SVGID_8_" gradientUnits="userSpaceOnUse" x1="-44.5822" y1="55.8082" x2="-9.7653" y2="55.8082" gradientTransform="matrix(1 0 0 1 131.8788 0)">
				<stop  offset="0" style="stop-color:#B1B1B1;stop-opacity:0.335"/>
				<stop  offset="7.406294e-02" style="stop-color:#B1B1B1;stop-opacity:0.3176"/>
				<stop  offset="1" style="stop-color:#B1B1B1;stop-opacity:0.1"/>
			</linearGradient>
			<polygon class="st16" points="122.1,55.1 122.1,36.4 87.3,56.5 87.3,75.2 			"/>
			
				<linearGradient id="SVGID_9_" gradientUnits="userSpaceOnUse" x1="-41.5955" y1="43.8508" x2="-111.8638" y2="92.4822" gradientTransform="matrix(1 0 0 1 131.8788 0)">
				<stop  offset="0" style="stop-color:#B1B1B1;stop-opacity:0.7896"/>
				<stop  offset="1" style="stop-color:#B1B1B1;stop-opacity:0.335"/>
			</linearGradient>
			<polygon class="st17" points="51,48.9 51,67.6 71.2,79.2 71.2,60.6 			"/>
			<g>
				
					<linearGradient id="SVGID_10_" gradientUnits="userSpaceOnUse" x1="-60.6956" y1="66.5661" x2="-49.1369" y2="66.5661" gradientTransform="matrix(1 0 0 1 131.8788 0)">
					<stop  offset="0" style="stop-color:#B1B1B1;stop-opacity:0.335"/>
					<stop  offset="7.406294e-02" style="stop-color:#B1B1B1;stop-opacity:0.3176"/>
					<stop  offset="1" style="stop-color:#B1B1B1;stop-opacity:0.1"/>
				</linearGradient>
				<polygon class="st18" points="71.2,60.6 71.2,79.2 82.7,72.6 82.7,53.9 				"/>
			</g>
			<g>
				<g>
					<g>
						<g>
							<g>
								<g>
									<polygon class="st6" points="67.2,69.1 54.4,61.7 46.5,66.3 46.5,74.6 59.3,82 67.2,77.4 									"/>
									<polygon class="st10" points="67.2,69.1 54.4,61.7 46.5,66.3 46.5,67 59.3,74.3 67.2,69.7 									"/>
									<polygon class="st9" points="49.5,66.3 54.4,63.4 64.2,69.1 59.3,72 									"/>
								</g>
								
									<linearGradient id="SVGID_11_" gradientUnits="userSpaceOnUse" x1="-3570.8652" y1="81.0735" x2="-3574.1414" y2="57.9352" gradientTransform="matrix(1 0 0 1 3624.7727 0)">
									<stop  offset="0" style="stop-color:#B1B1B1;stop-opacity:0.7896"/>
									<stop  offset="1" style="stop-color:#B1B1B1;stop-opacity:0.335"/>
								</linearGradient>
								<path class="st19" d="M46.5,74.6v-8.3l12.8,7.5V82"/>
								
									<linearGradient id="SVGID_12_" gradientUnits="userSpaceOnUse" x1="4195.1509" y1="73.3088" x2="4189.5161" y2="77.4189" gradientTransform="matrix(-1 0 0 1 4255.2451 0)">
									<stop  offset="0" style="stop-color:#B1B1B1;stop-opacity:0.335"/>
									<stop  offset="7.406294e-02" style="stop-color:#B1B1B1;stop-opacity:0.3176"/>
									<stop  offset="1" style="stop-color:#B1B1B1;stop-opacity:0.1"/>
								</linearGradient>
								<path class="st20" d="M59.2,82v-8.2l8-4.7v8.2"/>
							</g>
						</g>
						<g>
							<line class="st21" x1="64.2" y1="69.2" x2="65.5" y2="69.8"/>
							<line class="st21" x1="62.6" y1="70.2" x2="63.8" y2="70.8"/>
							<line class="st21" x1="60.9" y1="71.2" x2="62.2" y2="71.8"/>
							<line class="st21" x1="59.3" y1="72.2" x2="60.6" y2="72.9"/>
						</g>
						<g>
							<line class="st21" x1="53" y1="62.5" x2="54.4" y2="63.3"/>
							<line class="st21" x1="51.4" y1="63.5" x2="52.7" y2="64.3"/>
							<line class="st21" x1="49.7" y1="64.5" x2="51.1" y2="65.3"/>
							<line class="st21" x1="48.1" y1="65.5" x2="49.5" y2="66.3"/>
						</g>
					</g>
				</g>
			</g>
			<path class="st6" d="M83,22.3v3.8c0,1.4,1.9,2.5,4.3,2.5c2.4,0,4.3-1.1,4.3-2.5v-3.8H83z"/>
			
				<linearGradient id="SVGID_13_" gradientUnits="userSpaceOnUse" x1="-48.8388" y1="25.4439" x2="-40.3263" y2="25.4439" gradientTransform="matrix(1 0 0 1 131.8788 0)">
				<stop  offset="0.1166" style="stop-color:#B1B1B1"/>
				<stop  offset="0.1657" style="stop-color:#B1B1B1;stop-opacity:0.9259"/>
				<stop  offset="0.7801" style="stop-color:#B1B1B1;stop-opacity:0"/>
			</linearGradient>
			<path class="st22" d="M83,22.3v3.8c0,1.4,1.9,2.5,4.3,2.5c2.4,0,4.3-1.1,4.3-2.5v-3.8H83z"/>
			
				<linearGradient id="SVGID_14_" gradientUnits="userSpaceOnUse" x1="-40.9714" y1="21.258" x2="-49.2606" y2="23.6557" gradientTransform="matrix(1 0 0 1 131.8788 0)">
				<stop  offset="0.5021" style="stop-color:#B1B1B1"/>
				<stop  offset="1" style="stop-color:#707070"/>
			</linearGradient>
			<ellipse class="st23" cx="87.3" cy="22.3" rx="4.3" ry="2.5"/>
		</g>
		<g>
			<ellipse class="st2" cx="89.4" cy="86.3" rx="5.8" ry="4"/>
			<g>
				<g>
					
						<linearGradient id="SVGID_15_" gradientUnits="userSpaceOnUse" x1="-88.8494" y1="67.2971" x2="-84.6106" y2="67.2971" gradientTransform="matrix(1 0 0 1 176.0939 0)">
						<stop  offset="0" style="stop-color:#B1B1B1"/>
						<stop  offset="0.4969" style="stop-color:#E6E6E6"/>
						<stop  offset="0.7801" style="stop-color:#FFFFFF"/>
					</linearGradient>
					<path class="st24" d="M91.6,46.5h-4.5l-0.9,39.8c0,0.9,1.4,1.7,3.2,1.7c1.8,0,3.2-0.8,3.2-1.7L91.6,46.5z"/>
					<path class="st10" d="M89.3,59.2c-1.2,0-2.2-0.4-2.5-1l-0.1,4.1c0,0.8,1.2,1.4,2.6,1.4c1.4,0,2.6-0.6,2.6-1.4l-0.1-4.1
						C91.5,58.7,90.5,59.2,89.3,59.2z"/>
					<path class="st10" d="M89.3,51.7c-1.1,0-2-0.4-2.3-1L87,54.5c0,0.7,1.1,1.3,2.4,1.3c1.3,0,2.4-0.6,2.4-1.3l-0.1-3.8
						C91.4,51.3,90.5,51.7,89.3,51.7z"/>
					<ellipse class="st25" cx="89.4" cy="46.5" rx="2.3" ry="1.2"/>
					<ellipse class="st26" cx="89.4" cy="46.5" rx="1.7" ry="0.9"/>
				</g>
				<g>
					<g>
						<path class="st27" d="M86.2,84.3c0,0.9,1.4,1.7,3.1,1.7c1.7,0,3.1-0.8,3.1-1.7l0-0.2c-0.1,0.9-1.5,1.6-3.1,1.6
							c-1.7,0-3-0.7-3.1-1.6L86.2,84.3z"/>
					</g>
				</g>
				<g>
					<g>
						<path class="st27" d="M86.4,76.1c0,0.9,1.3,1.6,2.9,1.6c1.6,0,2.9-0.7,2.9-1.6l0-0.2c-0.1,0.8-1.4,1.5-2.9,1.5
							c-1.6,0-2.8-0.7-2.9-1.5L86.4,76.1z"/>
					</g>
				</g>
				<g>
					<g>
						<path class="st27" d="M86.6,66.6c0,0.8,1.2,1.5,2.7,1.5c1.5,0,2.7-0.7,2.7-1.5l0-0.2c-0.1,0.8-1.3,1.4-2.7,1.4
							c-1.5,0-2.6-0.6-2.7-1.4L86.6,66.6z"/>
					</g>
				</g>
				<g>
					<g>
						<path class="st27" d="M86.8,57.9c0,0.8,1.1,1.4,2.5,1.4c1.4,0,2.5-0.6,2.5-1.4l0-0.2c-0.1,0.7-1.2,1.3-2.5,1.3
							c-1.3,0-2.4-0.6-2.5-1.3L86.8,57.9z"/>
					</g>
				</g>
			</g>
		</g>
	</g>
	<g>
		<path class="st2" d="M141.8,73.6l1.6-0.5l0-1l1.5-0.3l-1-1l-1.8,0.1l0.4-0.6l-1.6-1.5l-1.6,0.2l-0.4-0.6l-1.8-0.2l-1.1,1.2
			l-1.4,0.2l-0.7-0.5l-2.2,0.6l-0.1,1.4l-1.2,0.1l-0.7,1.1l2.8,0.5l-0.3,1l1.2,1l1.3,0.6l1.5-0.6l1.1,0.5l2.7-0.4L141.8,73.6z"/>
		<g>
			<polygon class="st3" points="140.7,73.4 141.5,57.4 141.7,73.5 			"/>
			<polygon class="st3" points="140.9,69.7 138.9,64.5 141.5,69.4 			"/>
			<polygon class="st4" points="136.7,65.4 135.1,63.1 135.8,61.7 134.1,60.7 135,59 136.4,57.3 138.5,56.9 138.6,53.9 140.9,53.9 
				141.5,55 144.2,54.2 145.9,55.9 145.2,56.9 146.1,58.1 148.6,58.4 148.8,60.3 147.7,61.1 148.6,62.4 146.3,64.9 145.1,64.9 
				145.8,66.5 144.2,68.1 143.1,66.9 141.2,67.6 139.7,66.3 			"/>
			<g>
				<polygon class="st4" points="141,56.2 139.8,55 140.2,53.9 138.6,53.9 138.5,56.9 140.6,57.6 				"/>
				<polygon class="st5" points="141.6,64.6 139.7,65.1 139.4,63.8 137.8,63.4 137.7,61.9 140,62 140.5,61.1 139.8,59.2 138.7,59.9 
					137.7,58.8 138.5,56.9 136.4,57.3 135,59 134.1,60.7 135.8,61.7 135.1,63.1 136.7,65.4 139.7,66.3 141.2,67.6 143.1,66.9 
					144.2,68.1 143.6,65.5 				"/>
			</g>
		</g>
	</g>
	<g>
		<g>
			<path class="st2" d="M117.4,100.9l1.4-0.5l0-0.9l1.3-0.3l-0.9-0.9l-1.6,0.1l0.3-0.5l-1.4-1.3l-1.4,0.2l-0.4-0.6l-1.6-0.2l-1,1
				l-1.3,0.2l-0.6-0.4l-2,0.5l-0.1,1.3l-1.1,0.1l-0.7,1l2.5,0.5l-0.2,0.9l1.1,0.9l1.1,0.6l1.4-0.5l0.9,0.5l2.4-0.4L117.4,100.9z"/>
			<g>
				<polygon class="st3" points="116.4,100.7 117.1,86.5 117.3,100.8 				"/>
				<polygon class="st3" points="116.6,97.4 114.9,92.8 117.1,97.1 				"/>
				<polygon class="st4" points="112.9,93.6 111.4,91.5 112,90.3 110.6,89.4 111.3,87.9 112.6,86.4 114.4,86 114.6,83.4 116.6,83.4 
					117.1,84.3 119.5,83.6 121.1,85.2 120.5,86 121.2,87.1 123.5,87.3 123.6,89 122.6,89.7 123.5,90.9 121.4,93.1 120.3,93.1 
					120.9,94.5 119.5,96 118.5,94.9 116.9,95.5 115.5,94.4 				"/>
				<g>
					<polygon class="st4" points="116.7,85.4 115.6,84.3 116,83.4 114.6,83.4 114.4,86 116.4,86.6 					"/>
					<polygon class="st5" points="117.2,92.9 115.5,93.3 115.3,92.1 113.8,91.8 113.7,90.5 115.8,90.6 116.3,89.7 115.6,88 
						114.7,88.6 113.7,87.7 114.4,86 112.6,86.4 111.3,87.9 110.6,89.4 112,90.3 111.4,91.5 112.9,93.6 115.5,94.4 116.9,95.5 
						118.5,94.9 119.5,96 119,93.7 					"/>
				</g>
			</g>
		</g>
		<g>
			<g>
				<polygon class="st4" points="112.8,88.3 111.7,86.8 112.2,85.8 111.1,85.1 111.6,84 112.6,82.8 114,82.6 114.1,80.6 115.6,80.6 
					116,81.3 117.8,80.8 119,81.9 118.5,82.6 119.1,83.4 120.8,83.6 120.9,84.8 120.2,85.4 120.8,86.3 119.3,87.9 118.4,87.9 
					118.9,89 117.8,90.1 117.1,89.3 115.8,89.8 114.8,88.9 				"/>
				<g>
					<polyline class="st5" points="114,82.6 115.4,83 115.7,82.1 114.9,81.3 115.2,80.6 114.1,80.6 					"/>
					<polygon class="st5" points="116.1,87.8 114.8,88.1 114.6,87.2 113.5,86.9 113.4,85.9 115,86 115.3,85.4 114.9,84.1 
						114.2,84.6 113.4,83.8 114,82.6 112.6,82.8 111.6,84 111.1,85.1 112.2,85.8 111.7,86.8 112.8,88.3 114.8,88.9 115.8,89.8 
						117.1,89.3 117.8,90.1 117.4,88.4 					"/>
				</g>
			</g>
		</g>
		<g>
			<g>
				<polygon class="st4" points="114.1,79.9 114.1,81.3 114.8,81.8 114.4,82.7 115.2,83.2 116.3,83.5 117.2,83.2 118.1,84.5 
					119.1,83.9 119,83.3 120.3,82.9 120.6,81.7 120,81.4 120,80.7 121,79.9 120.5,79 119.8,79 119.9,78.1 118.2,77.6 117.7,78 
					117.6,77.1 116.4,76.8 116.3,77.6 115.4,77.8 115.1,78.7 				"/>
				<g>
					<polygon class="st5" points="116.4,79 115.4,79.3 115.7,79.9 115.1,80.5 115.5,81.2 116.4,80.6 116.9,80.8 117.1,81.8 
						116.5,81.8 116.4,82.6 117.2,83.2 116.3,83.5 115.2,83.2 114.4,82.7 114.8,81.8 114.1,81.3 114.1,79.9 115.1,78.7 115.4,77.8 
						116.3,77.6 116.4,76.8 116.9,78.1 					"/>
				</g>
			</g>
		</g>
	</g>
</g>
</svg>
