<?xml version="1.0" encoding="utf-8"?>
<!-- Generator: Adobe Illustrator 21.1.0, SVG Export Plug-In . SVG Version: 6.00 Build 0)  -->
<svg version="1.1" id="Слой_1" xmlns="http://www.w3.org/2000/svg" xmlns:xlink="http://www.w3.org/1999/xlink" x="0px" y="0px"
	 viewBox="0 0 198 118" style="enable-background:new 0 0 198 118;" xml:space="preserve">
<style type="text/css">
	.st0{fill:#346F2E;}
	.st1{fill:#D1D1CD;}
	.st2{fill:#A19C95;}
	.st3{fill:#FFFFFF;}
	.st4{fill:#707070;}
	.st5{fill:#4F4F4F;}
	.st6{fill:url(#SVGID_1_);}
	.st7{fill:url(#SVGID_2_);}
	.st8{fill:url(#SVGID_3_);}
	.st9{fill:url(#SVGID_4_);}
	.st10{fill:none;stroke:#A19C95;stroke-width:0.25;stroke-linecap:round;stroke-miterlimit:10;}
	.st11{fill:url(#SVGID_5_);}
	.st12{fill:url(#SVGID_6_);}
	.st13{fill:#CFB36F;}
	.st14{fill:url(#SVGID_7_);}
	.st15{fill:#E4E4E4;}
	.st16{fill:#A8A8A8;}
	.st17{fill:#8F8F8F;}
	.st18{fill:#57352F;}
	.st19{fill:#568E48;}
</style>
<g>
	<g>
		<path class="st0" d="M191.61,68.41l-78.65,45.38c-7.16,4.14-18,4.58-24.2,1L4.53,66.15c-6.2-3.58-5.43-9.84,1.74-13.97L84.92,6.8
			c7.16-4.14,18-4.58,24.2-1l84.22,48.64C199.55,58.01,198.77,64.27,191.61,68.41z"/>
		<path class="st1" d="M191.61,65.41l-78.65,45.38c-7.16,4.14-18,4.58-24.2,1L4.53,63.15c-6.2-3.58-5.43-9.84,1.74-13.97L84.92,3.79
			c7.16-4.14,18-4.58,24.2-1l84.22,48.64C199.55,55.01,198.77,61.27,191.61,65.41z"/>
	</g>
	<g>
		<g>
			<g>
				<path class="st2" d="M64.97,68.23c0.01-0.76,0.41-1.46,1.07-1.84l46.41-27.55c0.34-0.2,0.71-0.3,1.09-0.3
					c0.37,0,0.74,0.1,1.07,0.29l18.48,10.7c0.65,0.38,1.05,1.06,1.06,1.81c0.01,0.75-0.37,1.45-1.01,1.84L87.27,79.77
					c-1.48,0.86-3.32,0.85-4.8-0.02l-16.46-9.67C65.36,69.7,64.96,68.99,64.97,68.23z"/>
			</g>
			<g>
				<path class="st2" d="M48.44,58.52c0.01-0.76,0.41-1.46,1.07-1.84l46.41-27.55c0.34-0.2,0.71-0.3,1.09-0.3
					c0.37,0,0.74,0.1,1.07,0.29l18.48,10.7c0.65,0.38,1.05,1.06,1.06,1.81c0.01,0.75-0.37,1.45-1.01,1.84L68.34,71.45L49.49,60.37
					C48.84,59.98,48.44,59.28,48.44,58.52z"/>
			</g>
		</g>
		<g>
			<g>
				<g>
					<g>
						<g>
							<polygon class="st3" points="51.74,39.77 97.54,13.12 114,22.71 114,41.15 68.2,67.8 51.74,58.21 							"/>
							<polygon class="st4" points="51.74,39.77 97.54,13.12 114,22.71 114,23.67 68.2,50.32 51.74,40.73 							"/>
							<polygon class="st5" points="109.88,22.71 97.54,15.49 55.86,39.77 68.2,46.99 							"/>
						</g>
						
							<linearGradient id="SVGID_1_" gradientUnits="userSpaceOnUse" x1="-2577.0935" y1="45.3629" x2="-2531.1553" y2="45.3629" gradientTransform="matrix(-1 0 0 1 -2463.0935 0)">
							<stop  offset="0" style="stop-color:#B3B3B3;stop-opacity:0.335"/>
							<stop  offset="0.0741" style="stop-color:#B3B3B3;stop-opacity:0.3176"/>
							<stop  offset="1" style="stop-color:#B3B3B3;stop-opacity:0.1"/>
						</linearGradient>
						<path class="st6" d="M68.06,67.91V49.66L114,22.82v18.36"/>
						
							<linearGradient id="SVGID_2_" gradientUnits="userSpaceOnUse" x1="-3386.6035" y1="48.9544" x2="-3398.7722" y2="57.8304" gradientTransform="matrix(1 0 0 1 3453.3328 0)">
							<stop  offset="0" style="stop-color:#B3B3B3;stop-opacity:0.7896"/>
							<stop  offset="1" style="stop-color:#B3B3B3;stop-opacity:0.335"/>
						</linearGradient>
						<path class="st7" d="M51.64,58.23V39.92l16.59,9.74v18.25"/>
					</g>
				</g>
			</g>
			<g>
				<g>
					<g>
						<g>
							<polygon class="st3" points="68.06,54.67 84.76,45.02 101.46,54.67 101.46,67.7 84.76,77.34 68.06,67.7 							"/>
							<polygon class="st4" points="68.06,54.67 84.76,45.02 101.46,54.67 101.46,55.56 84.76,65.2 68.06,55.56 							"/>
							<polygon class="st5" points="97.62,54.67 84.76,47.24 71.91,54.67 84.76,62.09 							"/>
						</g>
						
							<linearGradient id="SVGID_3_" gradientUnits="userSpaceOnUse" x1="3886.1416" y1="75.9473" x2="3881.4463" y2="42.7867" gradientTransform="matrix(-1 0 0 1 3977.8049 0)">
							<stop  offset="0" style="stop-color:#B3B3B3;stop-opacity:0.335"/>
							<stop  offset="0.0741" style="stop-color:#B3B3B3;stop-opacity:0.3176"/>
							<stop  offset="1" style="stop-color:#B3B3B3;stop-opacity:0.1"/>
						</linearGradient>
						<path class="st8" d="M84.64,77.44V64.58l16.83-9.82v12.96"/>
						
							<linearGradient id="SVGID_4_" gradientUnits="userSpaceOnUse" x1="-3371.2686" y1="61.9715" x2="-3381.4519" y2="69.3995" gradientTransform="matrix(1 0 0 1 3453.3328 0)">
							<stop  offset="0" style="stop-color:#B3B3B3;stop-opacity:0.7896"/>
							<stop  offset="1" style="stop-color:#B3B3B3;stop-opacity:0.335"/>
						</linearGradient>
						<path class="st9" d="M67.96,67.72V54.8l16.83,9.78v12.85"/>
					</g>
				</g>
				<g>
					<line class="st10" x1="71.94" y1="54.79" x2="70.28" y2="55.69"/>
					<line class="st10" x1="73.76" y1="55.87" x2="72.11" y2="56.77"/>
					<line class="st10" x1="75.59" y1="56.96" x2="73.93" y2="57.85"/>
					<line class="st10" x1="77.41" y1="58.04" x2="75.76" y2="58.94"/>
					<line class="st10" x1="79.24" y1="59.12" x2="77.58" y2="60.02"/>
					<line class="st10" x1="81.06" y1="60.2" x2="79.41" y2="61.1"/>
					<line class="st10" x1="82.89" y1="61.28" x2="81.23" y2="62.18"/>
					<line class="st10" x1="84.71" y1="62.36" x2="83.06" y2="63.26"/>
				</g>
				<g>
					<line class="st10" x1="86.63" y1="46.06" x2="84.83" y2="47.05"/>
					<line class="st10" x1="88.76" y1="47.32" x2="86.96" y2="48.31"/>
					<line class="st10" x1="90.89" y1="48.58" x2="89.09" y2="49.58"/>
					<line class="st10" x1="93.02" y1="49.84" x2="91.22" y2="50.84"/>
					<line class="st10" x1="95.15" y1="51.11" x2="93.35" y2="52.1"/>
					<line class="st10" x1="97.28" y1="52.37" x2="95.48" y2="53.36"/>
					<line class="st10" x1="99.41" y1="53.63" x2="97.61" y2="54.62"/>
				</g>
			</g>
			<g>
				<g>
					<g>
						<g>
							<polygon class="st3" points="97.26,37.73 113.96,28.08 130.66,37.73 130.66,50.76 113.96,60.4 97.26,50.76 							"/>
							<polygon class="st4" points="97.26,37.73 113.96,28.08 130.66,37.73 130.66,38.62 113.96,48.26 97.26,38.62 							"/>
							<polygon class="st5" points="126.81,37.73 113.96,30.31 101.11,37.73 113.96,45.15 							"/>
						</g>
						
							<linearGradient id="SVGID_5_" gradientUnits="userSpaceOnUse" x1="3856.9434" y1="59.009" x2="3852.248" y2="25.8484" gradientTransform="matrix(-1 0 0 1 3977.8049 0)">
							<stop  offset="0" style="stop-color:#B3B3B3;stop-opacity:0.335"/>
							<stop  offset="0.0741" style="stop-color:#B3B3B3;stop-opacity:0.3176"/>
							<stop  offset="1" style="stop-color:#B3B3B3;stop-opacity:0.1"/>
						</linearGradient>
						<path class="st11" d="M113.83,60.5V47.64l16.83-9.82v12.96"/>
						
							<linearGradient id="SVGID_6_" gradientUnits="userSpaceOnUse" x1="-3342.0703" y1="45.0332" x2="-3352.2539" y2="52.4612" gradientTransform="matrix(1 0 0 1 3453.3328 0)">
							<stop  offset="0" style="stop-color:#B3B3B3;stop-opacity:0.7896"/>
							<stop  offset="1" style="stop-color:#B3B3B3;stop-opacity:0.335"/>
						</linearGradient>
						<path class="st12" d="M97.16,50.78V37.86l16.83,9.78V60.5"/>
						<g>
							<polygon class="st13" points="113.95,55.08 113.95,60.44 97.16,50.84 97.16,45.49 							"/>
						</g>
					</g>
				</g>
				<g>
					<line class="st10" x1="101.14" y1="37.85" x2="99.48" y2="38.75"/>
					<line class="st10" x1="102.96" y1="38.94" x2="101.3" y2="39.83"/>
					<line class="st10" x1="104.79" y1="40.02" x2="103.13" y2="40.92"/>
					<line class="st10" x1="106.61" y1="41.1" x2="104.95" y2="42"/>
					<line class="st10" x1="108.44" y1="42.18" x2="106.78" y2="43.08"/>
					<line class="st10" x1="110.26" y1="43.26" x2="108.6" y2="44.16"/>
					<line class="st10" x1="112.09" y1="44.34" x2="110.43" y2="45.24"/>
					<line class="st10" x1="113.91" y1="45.42" x2="112.25" y2="46.32"/>
				</g>
				<g>
					<line class="st10" x1="115.83" y1="29.12" x2="114.03" y2="30.11"/>
					<line class="st10" x1="117.96" y1="30.38" x2="116.16" y2="31.38"/>
					<line class="st10" x1="120.09" y1="31.64" x2="118.29" y2="32.64"/>
					<line class="st10" x1="122.22" y1="32.91" x2="120.42" y2="33.9"/>
					<line class="st10" x1="124.35" y1="34.17" x2="122.55" y2="35.16"/>
					<line class="st10" x1="126.48" y1="35.43" x2="124.68" y2="36.42"/>
					<line class="st10" x1="128.61" y1="36.69" x2="126.81" y2="37.68"/>
				</g>
			</g>
		</g>
		<g>
			<ellipse class="st2" cx="114.03" cy="68.9" rx="6.14" ry="4.23"/>
			<g>
				<g>
					
						<linearGradient id="SVGID_7_" gradientUnits="userSpaceOnUse" x1="9644.665" y1="48.6172" x2="9649.1807" y2="48.6172" gradientTransform="matrix(1 0 0 1 -9532.8867 0)">
						<stop  offset="0" style="stop-color:#B3B3B3"/>
						<stop  offset="0.4902" style="stop-color:#E6E6E6"/>
						<stop  offset="0.7801" style="stop-color:#FFFFFF"/>
					</linearGradient>
					<path class="st14" d="M116.45,26.51h-4.83l-0.97,42.39c0,1.01,1.51,1.83,3.38,1.83c1.87,0,3.38-0.82,3.38-1.83L116.45,26.51z"
						/>
					<path class="st13" d="M114.02,39.94c-1.26,0-2.33-0.47-2.64-1.11l-0.1,4.35c0,0.83,1.23,1.5,2.74,1.5
						c1.51,0,2.74-0.67,2.74-1.5l-0.1-4.35C116.34,39.47,115.28,39.94,114.02,39.94z"/>
					<path class="st13" d="M114.02,32c-1.18,0-2.16-0.44-2.46-1.03l-0.09,4.04c0,0.77,1.14,1.4,2.55,1.4c1.41,0,2.55-0.63,2.55-1.4
						l-0.09-4.04C116.18,31.57,115.19,32,114.02,32z"/>
					<ellipse class="st15" cx="114.03" cy="26.51" rx="2.42" ry="1.31"/>
					<ellipse class="st16" cx="114.03" cy="26.51" rx="1.79" ry="0.97"/>
				</g>
				<g>
					<g>
						<path class="st17" d="M110.7,66.69c0,0.99,1.49,1.8,3.33,1.8c1.84,0,3.33-0.81,3.33-1.8l-0.01-0.21
							c-0.1,0.95-1.55,1.7-3.32,1.7c-1.77,0-3.22-0.75-3.32-1.7L110.7,66.69z"/>
					</g>
				</g>
				<g>
					<g>
						<path class="st17" d="M110.9,58.01c0,0.94,1.4,1.69,3.13,1.69c1.73,0,3.13-0.76,3.13-1.69l-0.01-0.2
							c-0.09,0.89-1.46,1.6-3.13,1.6c-1.67,0-3.04-0.71-3.13-1.6L110.9,58.01z"/>
					</g>
				</g>
				<g>
					<g>
						<path class="st17" d="M111.13,47.93c0,0.87,1.3,1.57,2.9,1.57c1.6,0,2.9-0.7,2.9-1.57l-0.01-0.19
							c-0.09,0.83-1.35,1.48-2.9,1.48c-1.55,0-2.81-0.66-2.9-1.48L111.13,47.93z"/>
					</g>
				</g>
				<g>
					<g>
						<path class="st17" d="M111.34,38.62c0,0.8,1.21,1.46,2.69,1.46c1.49,0,2.69-0.65,2.69-1.46l0-0.17
							c-0.08,0.77-1.25,1.37-2.69,1.37c-1.44,0-2.61-0.61-2.69-1.37L111.34,38.62z"/>
					</g>
				</g>
			</g>
		</g>
		<g>
			<polygon class="st13" points="84.64,72.62 84.64,77.97 51.66,58.62 51.66,53.27 			"/>
		</g>
	</g>
	<g>
		<path class="st2" d="M37.15,69.27l1.63-0.51l-0.03-1.01l1.5-0.32l-1.02-1.03l-1.75,0.06l0.39-0.58L36.3,64.4l-1.59,0.23
			l-0.42-0.64l-1.84-0.24l-1.08,1.18l-1.41,0.19l-0.68-0.47l-2.23,0.55l-0.1,1.42l-1.2,0.08l-0.74,1.09l2.78,0.54l-0.27,1.03
			l1.19,0.99L29.99,71l1.55-0.6l1.06,0.54l2.7-0.4L37.15,69.27z"/>
		<g>
			<polygon class="st18" points="36.09,69.12 36.85,53.08 37.05,69.21 			"/>
			<polygon class="st18" points="36.23,65.35 34.31,60.2 36.84,65.08 			"/>
			<polygon class="st19" points="32.08,61.08 30.46,58.78 31.13,57.43 29.51,56.34 30.32,54.72 31.81,52.96 33.84,52.56 
				33.97,49.58 36.27,49.58 36.81,50.66 39.52,49.85 41.28,51.61 40.6,52.56 41.42,53.77 43.99,54.04 44.12,55.94 43.04,56.75 
				43.99,58.1 41.69,60.54 40.47,60.54 41.14,62.16 39.52,63.79 38.44,62.57 36.54,63.25 35.06,62.03 			"/>
			<g>
				<polygon class="st19" points="36.41,51.88 35.19,50.66 35.61,49.58 33.97,49.58 33.84,52.56 36,53.23 				"/>
				<polygon class="st0" points="36.95,60.27 35.06,60.81 34.78,59.46 33.16,59.05 33.03,57.56 35.33,57.7 35.87,56.75 35.19,54.86 
					34.11,55.53 33.03,54.45 33.84,52.56 31.81,52.96 30.32,54.72 29.51,56.34 31.13,57.43 30.46,58.78 32.08,61.08 35.06,62.03 
					36.54,63.25 38.44,62.57 39.52,63.79 38.98,61.22 				"/>
			</g>
		</g>
	</g>
	<g>
		<path class="st2" d="M135.64,65.6l1.63-0.51l-0.03-1.01l1.5-0.32l-1.02-1.03l-1.75,0.06l0.39-0.58l-1.57-1.48l-1.59,0.23
			l-0.42-0.64l-1.84-0.24l-1.08,1.18l-1.41,0.19l-0.68-0.47l-2.23,0.55l-0.1,1.42l-1.2,0.08l-0.74,1.09l2.78,0.54l-0.27,1.03
			l1.19,0.99l1.28,0.65l1.55-0.6l1.06,0.54l2.7-0.4L135.64,65.6z"/>
		<g>
			<polygon class="st18" points="134.57,65.44 135.34,49.4 135.53,65.54 			"/>
			<polygon class="st18" points="134.71,61.67 132.79,56.53 135.32,61.41 			"/>
			<polygon class="st19" points="130.56,57.4 128.94,55.1 129.61,53.75 127.99,52.67 128.8,51.04 130.29,49.28 132.32,48.88 
				132.46,45.9 134.76,45.9 135.3,46.98 138,46.17 139.76,47.93 139.09,48.88 139.9,50.1 142.47,50.37 142.6,52.26 141.52,53.07 
				142.47,54.43 140.17,56.86 138.95,56.86 139.63,58.49 138,60.11 136.92,58.89 135.03,59.57 133.54,58.35 			"/>
			<g>
				<polygon class="st19" points="134.89,48.2 133.67,46.98 134.09,45.9 132.46,45.9 132.32,48.88 134.49,49.56 				"/>
				<polygon class="st0" points="135.43,56.59 133.54,57.13 133.27,55.78 131.64,55.37 131.51,53.89 133.81,54.02 134.35,53.07 
					133.67,51.18 132.59,51.86 131.51,50.77 132.32,48.88 130.29,49.28 128.8,51.04 127.99,52.67 129.61,53.75 128.94,55.1 
					130.56,57.4 133.54,58.35 135.03,59.57 136.92,58.89 138,60.11 137.46,57.54 				"/>
			</g>
		</g>
	</g>
	<g>
		<path class="st2" d="M114.41,98.18l1.63-0.51l-0.03-1.01l1.5-0.32l-1.02-1.03l-1.75,0.06l0.39-0.58l-1.57-1.48l-1.59,0.23
			l-0.42-0.64l-1.84-0.24l-1.08,1.18l-1.41,0.19l-0.68-0.47l-2.23,0.55l-0.1,1.42l-1.2,0.08l-0.74,1.09l2.78,0.54l-0.27,1.03
			l1.19,0.99l1.28,0.65l1.55-0.6l1.06,0.54l2.7-0.4L114.41,98.18z"/>
		<g>
			<polygon class="st18" points="113.35,98.02 114.11,81.98 114.31,98.12 			"/>
			<polygon class="st18" points="113.49,94.25 111.57,89.11 114.1,93.99 			"/>
			<polygon class="st19" points="109.34,89.99 107.71,87.69 108.39,86.33 106.77,85.25 107.58,83.63 109.07,81.87 111.1,81.46 
				111.23,78.48 113.53,78.48 114.07,79.57 116.78,78.76 118.54,80.51 117.86,81.46 118.67,82.68 121.25,82.95 121.38,84.84 
				120.3,85.66 121.25,87.01 118.94,89.44 117.73,89.44 118.4,91.07 116.78,92.69 115.7,91.47 113.8,92.15 112.31,90.93 			"/>
			<g>
				<polygon class="st19" points="113.67,80.79 112.45,79.57 112.87,78.48 111.23,78.48 111.1,81.46 113.26,82.14 				"/>
				<polygon class="st0" points="114.21,89.17 112.31,89.72 112.04,88.36 110.42,87.96 110.28,86.47 112.59,86.6 113.13,85.66 
					112.45,83.76 111.37,84.44 110.28,83.36 111.1,81.46 109.07,81.87 107.58,83.63 106.77,85.25 108.39,86.33 107.71,87.69 
					109.34,89.99 112.31,90.93 113.8,92.15 115.7,91.47 116.78,92.69 116.24,90.12 				"/>
			</g>
		</g>
	</g>
	<g>
		<g>
			<path class="st2" d="M87.22,93.03l1.45-0.45l-0.03-0.9l1.33-0.28l-0.9-0.92l-1.56,0.05l0.35-0.51l-1.4-1.32l-1.41,0.21
				l-0.38-0.57l-1.63-0.21l-0.96,1.05l-1.26,0.17l-0.6-0.42l-1.98,0.49l-0.09,1.26l-1.07,0.07l-0.66,0.97l2.47,0.48l-0.24,0.92
				l1.06,0.88l1.14,0.57l1.37-0.53l0.95,0.48l2.4-0.36L87.22,93.03z"/>
			<g>
				<polygon class="st18" points="86.27,92.89 86.96,78.63 87.13,92.97 				"/>
				<polygon class="st18" points="86.4,89.53 84.7,84.96 86.95,89.3 				"/>
				<polygon class="st19" points="82.71,85.74 81.27,83.7 81.87,82.49 80.43,81.53 81.15,80.09 82.47,78.52 84.28,78.16 84.4,75.52 
					86.44,75.52 86.92,76.48 89.33,75.76 90.89,77.32 90.29,78.16 91.01,79.25 93.3,79.49 93.42,81.17 92.46,81.89 93.3,83.1 
					91.25,85.26 90.17,85.26 90.77,86.71 89.33,88.15 88.37,87.07 86.68,87.67 85.36,86.58 				"/>
				<g>
					<polygon class="st19" points="86.56,77.56 85.48,76.48 85.85,75.52 84.4,75.52 84.28,78.16 86.2,78.77 					"/>
					<polygon class="st0" points="87.04,85.02 85.36,85.5 85.12,84.3 83.67,83.94 83.55,82.61 85.6,82.74 86.08,81.89 85.48,80.21 
						84.52,80.81 83.55,79.85 84.28,78.16 82.47,78.52 81.15,80.09 80.43,81.53 81.87,82.49 81.27,83.7 82.71,85.74 85.36,86.58 
						86.68,87.67 88.37,87.07 89.33,88.15 88.85,85.86 					"/>
				</g>
			</g>
		</g>
		<g>
			<g>
				<polygon class="st19" points="82.63,80.46 81.54,78.92 82,78.01 80.91,77.28 81.45,76.19 82.45,75.01 83.81,74.74 83.9,72.74 
					85.45,72.74 85.81,73.47 87.63,72.92 88.81,74.1 88.35,74.74 88.9,75.56 90.62,75.74 90.71,77.01 89.99,77.55 90.62,78.46 
					89.08,80.1 88.26,80.1 88.72,81.19 87.63,82.28 86.9,81.46 85.63,81.91 84.63,81.1 				"/>
				<g>
					<polyline class="st0" points="83.81,74.74 85.27,75.19 85.54,74.29 84.72,73.47 85,72.74 83.9,72.74 					"/>
					<polygon class="st0" points="85.9,79.92 84.63,80.28 84.45,79.37 83.36,79.1 83.27,78.1 84.81,78.19 85.17,77.55 84.72,76.28 
						83.99,76.74 83.27,76.01 83.81,74.74 82.45,75.01 81.45,76.19 80.91,77.28 82,78.01 81.54,78.92 82.63,80.46 84.63,81.1 
						85.63,81.91 86.9,81.46 87.63,82.28 87.26,80.55 					"/>
				</g>
			</g>
		</g>
		<g>
			<g>
				<polygon class="st19" points="83.97,72.08 83.94,73.51 84.59,73.93 84.23,74.83 85.01,75.33 86.12,75.71 87.06,75.36 
					87.95,76.63 88.89,76.03 88.81,75.42 90.15,75.07 90.38,73.84 89.84,73.6 89.84,72.85 90.82,72.06 90.35,71.19 89.68,71.12 
					89.69,70.28 88.06,69.81 87.56,70.13 87.39,69.24 86.27,68.95 86.16,69.77 85.2,69.96 84.93,70.88 				"/>
				<g>
					<polygon class="st0" points="86.19,71.16 85.26,71.42 85.53,72.08 84.98,72.69 85.34,73.37 86.24,72.71 86.73,72.99 86.98,74 
						86.35,73.98 86.2,74.74 87.06,75.36 86.12,75.71 85.01,75.33 84.23,74.83 84.59,73.93 83.94,73.51 83.97,72.08 84.93,70.88 
						85.2,69.96 86.16,69.77 86.27,68.95 86.76,70.22 					"/>
				</g>
			</g>
		</g>
	</g>
</g>
</svg>
