<?xml version="1.0" encoding="utf-8"?>
<!-- Generator: Adobe Illustrator 21.1.0, SVG Export Plug-In . SVG Version: 6.00 Build 0)  -->
<svg version="1.1" id="Слой_1" xmlns="http://www.w3.org/2000/svg" xmlns:xlink="http://www.w3.org/1999/xlink" x="0px" y="0px"
	 viewBox="0 0 178 116" style="enable-background:new 0 0 178 116;" xml:space="preserve">
<style type="text/css">
	.st0{fill:#346F2E;}
	.st1{fill:#D1D1CD;}
	.st2{fill:#A19C95;}
	.st3{fill:#57352F;}
	.st4{fill:#568E48;}
	.st5{fill:#9D9D9D;}
	.st6{fill:#FFFFFF;}
	.st7{fill:#707070;}
	.st8{fill:url(#SVGID_1_);}
	.st9{fill:url(#SVGID_2_);}
	.st10{fill:url(#SVGID_3_);}
	.st11{fill:url(#SVGID_4_);}
	.st12{fill:#D1B56F;}
	.st13{fill:url(#SVGID_5_);}
	.st14{fill:url(#SVGID_6_);}
	.st15{fill:url(#SVGID_7_);}
	.st16{fill:url(#SVGID_8_);}
	.st17{fill:url(#SVGID_9_);}
	.st18{fill:url(#SVGID_10_);}
	.st19{fill:url(#SVGID_11_);}
	.st20{fill:url(#SVGID_12_);}
	.st21{fill:url(#SVGID_13_);}
	.st22{fill:url(#SVGID_14_);}
	.st23{fill:url(#SVGID_15_);}
	.st24{fill:url(#SVGID_16_);}
</style>
<g>
	<g>
		<g>
			<path class="st0" d="M5.42,64.13L91.9,15.87c5.59-3.12,12.41-3.07,17.96,0.13l63.41,36.47c6.2,3.58,6.2,9.39,0,12.97
				l-82.38,47.55c-6.2,3.58-16.26,3.58-22.47,0l-63-35.89C-0.78,73.52-0.78,67.71,5.42,64.13z"/>
		</g>
		<g>
			<path class="st1" d="M5.42,61.13L91.9,12.87c5.59-3.12,12.41-3.07,17.96,0.13l63.41,36.47c6.2,3.58,6.2,9.39,0,12.97
				l-82.38,47.55c-6.2,3.58-16.26,3.58-22.47,0l-63-35.89C-0.78,70.52-0.78,64.71,5.42,61.13z"/>
		</g>
	</g>
	<g>
		<path class="st2" d="M97.29,98.21l-2.7,0.4l-1.06-0.54l-1.55,0.6l-1.28-0.65l-1.19-0.99l0.27-1.03l-2.78-0.54l0.74-1.09l1.2-0.08
			l0.1-1.42l2.23-0.55l0.68,0.47l1.41-0.19l1.08-1.18l1.84,0.24l0.42,0.64l1.59-0.23l1.57,1.48l-0.39,0.58l1.75-0.06l1.02,1.03
			l-1.5,0.32l0.03,1.01l-1.63,0.51L97.29,98.21z"/>
		<g>
			<polygon class="st3" points="98.08,96.8 98.85,80.76 99.04,96.89 			"/>
			<polygon class="st3" points="98.22,93.02 96.3,87.88 98.83,92.76 			"/>
			<polygon class="st4" points="94.07,88.76 92.45,86.46 93.12,85.1 91.5,84.02 92.31,82.4 93.8,80.64 95.83,80.23 95.96,77.26 
				98.26,77.26 98.81,78.34 101.51,77.53 103.27,79.29 102.59,80.23 103.41,81.45 105.98,81.72 106.11,83.62 105.03,84.43 
				105.98,85.78 103.68,88.22 102.46,88.22 103.14,89.84 101.51,91.46 100.43,90.25 98.54,90.92 97.05,89.7 			"/>
			<g>
				<polygon class="st4" points="98.4,79.56 97.18,78.34 97.6,77.26 95.96,77.26 95.83,80.23 97.99,80.91 				"/>
				<polygon class="st0" points="98.94,87.95 97.05,88.49 96.78,87.13 95.15,86.73 95.02,85.24 97.32,85.37 97.86,84.43 
					97.18,82.53 96.1,83.21 95.02,82.13 95.83,80.23 93.8,80.64 92.31,82.4 91.5,84.02 93.12,85.1 92.45,86.46 94.07,88.76 
					97.05,89.7 98.54,90.92 100.43,90.25 101.51,91.46 100.97,88.89 				"/>
			</g>
		</g>
	</g>
	<g>
		<g>
			<path class="st2" d="M80.47,102.55l-2.4,0.36l-0.95-0.48l-1.37,0.53l-1.14-0.57l-1.06-0.88l0.24-0.92l-2.47-0.48l0.66-0.97
				l1.07-0.07l0.09-1.26l1.98-0.49l0.6,0.42l1.26-0.17l0.96-1.05l1.63,0.21l0.38,0.57l1.41-0.21l1.4,1.32l-0.35,0.51l1.56-0.05
				l0.9,0.92l-1.33,0.28l0.03,0.9l-1.45,0.45L80.47,102.55z"/>
			<g>
				<polygon class="st3" points="81.17,101.29 81.85,87.03 82.02,101.38 				"/>
				<polygon class="st3" points="81.3,97.94 79.59,93.37 81.84,97.71 				"/>
				<polygon class="st4" points="77.61,94.15 76.16,92.1 76.76,90.9 75.32,89.94 76.04,88.49 77.37,86.93 79.17,86.57 79.29,83.92 
					81.34,83.92 81.82,84.88 84.22,84.16 85.79,85.73 85.19,86.57 85.91,87.65 88.19,87.89 88.31,89.58 87.35,90.3 88.19,91.5 
					86.15,93.67 85.07,93.67 85.67,95.11 84.22,96.55 83.26,95.47 81.58,96.07 80.25,94.99 				"/>
				<g>
					<polygon class="st4" points="81.46,85.97 80.37,84.88 80.75,83.92 79.29,83.92 79.17,86.57 81.1,87.17 					"/>
					<polygon class="st0" points="81.94,93.43 80.25,93.91 80.01,92.7 78.57,92.34 78.45,91.02 80.49,91.14 80.98,90.3 80.37,88.61 
						79.41,89.22 78.45,88.25 79.17,86.57 77.37,86.93 76.04,88.49 75.32,89.94 76.76,90.9 76.16,92.1 77.61,94.15 80.25,94.99 
						81.58,96.07 83.26,95.47 84.22,96.55 83.74,94.27 					"/>
				</g>
			</g>
		</g>
		<g>
			<g>
				<polygon class="st4" points="77.53,88.87 76.44,87.32 76.89,86.41 75.8,85.69 76.35,84.6 77.35,83.42 78.71,83.14 78.8,81.15 
					80.34,81.15 80.71,81.87 82.52,81.33 83.7,82.51 83.25,83.14 83.79,83.96 85.52,84.14 85.61,85.41 84.88,85.96 85.52,86.87 
					83.97,88.5 83.16,88.5 83.61,89.59 82.52,90.68 81.8,89.86 80.52,90.32 79.52,89.5 				"/>
				<g>
					<polyline class="st0" points="78.71,83.14 80.16,83.6 80.43,82.69 79.62,81.87 79.9,81.15 78.8,81.15 					"/>
					<polygon class="st0" points="80.8,88.32 79.52,88.68 79.34,87.78 78.25,87.5 78.16,86.5 79.71,86.6 80.07,85.96 79.62,84.69 
						78.89,85.14 78.16,84.42 78.71,83.14 77.35,83.42 76.35,84.6 75.8,85.69 76.89,86.41 76.44,87.32 77.53,88.87 79.52,89.5 
						80.52,90.32 81.8,89.86 82.52,90.68 82.16,88.96 					"/>
				</g>
			</g>
		</g>
		<g>
			<g>
				<polygon class="st4" points="78.86,80.48 78.84,81.91 79.49,82.33 79.12,83.23 79.91,83.73 81.01,84.12 81.96,83.76 
					82.84,85.04 83.79,84.44 83.71,83.82 85.05,83.47 85.28,82.24 84.74,82 84.73,81.25 85.71,80.47 85.24,79.6 84.57,79.52 
					84.58,78.68 82.96,78.21 82.46,78.53 82.28,77.64 81.17,77.35 81.06,78.17 80.09,78.37 79.82,79.29 				"/>
				<g>
					<polygon class="st0" points="81.09,79.57 80.16,79.82 80.43,80.49 79.87,81.09 80.23,81.78 81.14,81.12 81.62,81.39 
						81.87,82.4 81.24,82.39 81.1,83.14 81.96,83.76 81.01,84.12 79.91,83.73 79.12,83.23 79.49,82.33 78.84,81.91 78.86,80.48 
						79.82,79.29 80.09,78.37 81.06,78.17 81.17,77.35 81.66,78.62 					"/>
				</g>
			</g>
		</g>
	</g>
	<g>
		<path class="st5" d="M131,43.05l1.18-2.08c0.36-0.64,0.44-1.41,0.21-2.11c-0.23-0.7-0.74-1.28-1.42-1.58l-29.96-13.65
			c-0.35-0.16-0.72-0.24-1.09-0.24c-0.48,0-0.95,0.13-1.37,0.38L38.07,60.54c-0.79,0.48-1.27,1.34-1.27,2.27
			c0.01,0.93,0.5,1.78,1.3,2.25l19.22,11.36c0.42,0.25,0.88,0.37,1.34,0.37c0.57,0,1.14-0.19,1.61-0.55l0.03-0.03l6.57,3.87
			c0.41,0.24,0.88,0.36,1.34,0.36c0.46,0,0.92-0.12,1.33-0.36l20.14-11.8c0.79-0.46,1.28-1.3,1.3-2.22c0.02-0.91-0.43-1.77-1.2-2.27
			l-3.97-2.58l10.17-5.91l5.33,2.9c0.39,0.21,0.83,0.32,1.26,0.32c0.43,0,0.86-0.1,1.25-0.31l7.44-3.98l12.35,6.9
			c3.53,2.01,7.86,2.02,11.4,0.03l5.03-2.83c1.53-0.86,1.57-3.05,0.08-3.96l-8.33-5.19L131,43.05z"/>
		<g>
			<g>
				<g>
					<polygon class="st6" points="77.44,15.58 103.09,0.77 128.75,15.58 128.75,40.5 103.09,55.31 77.44,40.5 					"/>
					<polygon class="st7" points="77.44,15.58 103.09,0.77 128.75,15.58 128.75,16.95 103.09,31.76 77.44,16.95 					"/>
					<polygon class="st6" points="122.84,15.58 103.09,4.18 83.35,15.58 103.09,26.98 					"/>
					
						<linearGradient id="SVGID_1_" gradientUnits="userSpaceOnUse" x1="1244.7214" y1="16.749" x2="1258.5835" y2="10.3571" gradientTransform="matrix(-1 0 0 1 1339.8987 0)">
						<stop  offset="0" style="stop-color:#B3B3B3;stop-opacity:0"/>
						<stop  offset="1" style="stop-color:#707070"/>
					</linearGradient>
					<polygon class="st8" points="91.95,11.98 84.48,16.3 83.35,15.58 91.72,10.67 					"/>
				</g>
				
					<linearGradient id="SVGID_2_" gradientUnits="userSpaceOnUse" x1="1226.4805" y1="52.6509" x2="1218.3486" y2="-4.7805" gradientTransform="matrix(-1 0 0 1 1339.8987 0)">
					<stop  offset="0" style="stop-color:#B3B3B3;stop-opacity:0.335"/>
					<stop  offset="0.0741" style="stop-color:#B3B3B3;stop-opacity:0.3176"/>
					<stop  offset="1" style="stop-color:#B3B3B3;stop-opacity:0.1"/>
				</linearGradient>
				<path class="st9" d="M102.9,55.46V30.81l25.85-15.08v24.81"/>
				
					<linearGradient id="SVGID_3_" gradientUnits="userSpaceOnUse" x1="-731.4118" y1="28.476" x2="-748.9612" y2="41.2767" gradientTransform="matrix(1 0 0 1 831.4263 0)">
					<stop  offset="0" style="stop-color:#B3B3B3;stop-opacity:0.7896"/>
					<stop  offset="1" style="stop-color:#B3B3B3;stop-opacity:0.335"/>
				</linearGradient>
				<path class="st10" d="M77.29,40.54V15.79l25.85,15.02v24.65"/>
				<g>
					<linearGradient id="SVGID_4_" gradientUnits="userSpaceOnUse" x1="91.5391" y1="12.1059" x2="114.2065" y2="12.1059">
						<stop  offset="0" style="stop-color:#B3B3B3"/>
						<stop  offset="1" style="stop-color:#FFFFFF"/>
					</linearGradient>
					<path class="st11" d="M91.57,8.8c0-3.69,5.19-6.69,11.59-6.69c6.4,0,11.59,2.99,11.58,6.69c0,1.2,0,5.41,0,6.61
						c0,3.69-5.19,6.69-11.59,6.69c-6.4,0-11.59-2.99-11.58-6.69C91.57,14.21,91.57,10,91.57,8.8z"/>
					<path class="st12" d="M103.16,13.91c6.4,0,11.59-2.99,11.59-6.69c0,1.41,0,1.29,0,1.92c0,3.69-5.19,6.69-11.59,6.69
						c-6.4,0-11.58-2.99-11.58-6.69c0-0.63,0-0.51,0-1.92C91.57,10.91,96.76,13.91,103.16,13.91z"/>
					<ellipse class="st6" cx="103.16" cy="7.57" rx="11.59" ry="6.69"/>
				</g>
				<g>
					<linearGradient id="SVGID_5_" gradientUnits="userSpaceOnUse" x1="96.0391" y1="7.2283" x2="110.3961" y2="7.2283">
						<stop  offset="0" style="stop-color:#B3B3B3"/>
						<stop  offset="1" style="stop-color:#FFFFFF"/>
					</linearGradient>
					<path class="st13" d="M95.8,7.2c0-2.49,3.49-4.5,7.79-4.5c4.3,0,7.79,2.01,7.79,4.5c0,0.81,0-0.76,0,0.05
						c0,2.49-3.49,4.5-7.79,4.5c-4.3,0-7.79-2.01-7.79-4.5C95.8,6.45,95.8,8.01,95.8,7.2z"/>
					<ellipse class="st12" cx="103.16" cy="6.42" rx="7.36" ry="4.25"/>
				</g>
			</g>
			<g>
				<g>
					<g>
						<polygon class="st6" points="136.7,47.04 127.26,41.58 120.26,37.49 112.08,42.21 112.08,50.28 128.52,59.83 136.7,55.11 
													"/>
						<polygon class="st6" points="115.02,42.21 120.26,39.19 133.76,47.04 128.52,50.06 						"/>
					</g>
					
						<linearGradient id="SVGID_6_" gradientUnits="userSpaceOnUse" x1="-594.5416" y1="58.9405" x2="-598.2823" y2="32.5218" gradientTransform="matrix(1 0 0 1 715.9926 0)">
						<stop  offset="0" style="stop-color:#B3B3B3;stop-opacity:0.7896"/>
						<stop  offset="1" style="stop-color:#B3B3B3;stop-opacity:0.335"/>
					</linearGradient>
					<path class="st14" d="M112.08,50.3v-8.02l16.54,9.68v7.94"/>
					
						<linearGradient id="SVGID_7_" gradientUnits="userSpaceOnUse" x1="1094.9744" y1="51.2292" x2="1089.3359" y2="55.3419" gradientTransform="matrix(-1 0 0 1 1224.465 0)">
						<stop  offset="0" style="stop-color:#B3B3B3;stop-opacity:0.335"/>
						<stop  offset="0.0741" style="stop-color:#B3B3B3;stop-opacity:0.3176"/>
						<stop  offset="1" style="stop-color:#B3B3B3;stop-opacity:0.1"/>
					</linearGradient>
					<path class="st15" d="M128.5,59.91v-7.94l8.28-4.83v7.99"/>
				</g>
			</g>
		</g>
		<g>
			<g>
				<g>
					<polygon class="st6" points="42.39,47.81 79.79,25.98 96.23,35.46 96.23,51.68 58.83,73.51 42.39,64.02 					"/>
					<polygon class="st7" points="42.39,47.81 79.79,25.98 96.23,35.46 96.23,36.83 58.83,58.66 42.39,49.18 					"/>
					<polygon class="st6" points="90.32,35.46 79.79,29.39 48.3,47.81 58.83,53.88 					"/>
					
						<linearGradient id="SVGID_8_" gradientUnits="userSpaceOnUse" x1="1247.3344" y1="38.9702" x2="1321.5907" y2="38.9702" gradientTransform="matrix(-1 0 0 1 1339.8987 0)">
						<stop  offset="0" style="stop-color:#8B8B8B;stop-opacity:0.3"/>
						<stop  offset="0.4086" style="stop-color:#818181;stop-opacity:0.4226"/>
						<stop  offset="1" style="stop-color:#767676;stop-opacity:0.6"/>
					</linearGradient>
					<polygon class="st16" points="89.09,36.22 79.73,30.85 49.43,48.52 48.3,47.81 79.77,29.42 90.23,35.51 					"/>
				</g>
				
					<linearGradient id="SVGID_9_" gradientUnits="userSpaceOnUse" x1="1264.8707" y1="71.6832" x2="1256.7432" y2="14.2818" gradientTransform="matrix(-1 0 0 1 1339.8987 0)">
					<stop  offset="0" style="stop-color:#B3B3B3;stop-opacity:0.335"/>
					<stop  offset="0.0741" style="stop-color:#B3B3B3;stop-opacity:0.3176"/>
					<stop  offset="1" style="stop-color:#B3B3B3;stop-opacity:0.1"/>
				</linearGradient>
				<path class="st17" d="M58.63,73.66V57.71l37.59-22.1v16.11"/>
				
					<linearGradient id="SVGID_10_" gradientUnits="userSpaceOnUse" x1="-774.5592" y1="56.2073" x2="-785.8888" y2="64.4712" gradientTransform="matrix(1 0 0 1 831.4263 0)">
					<stop  offset="0" style="stop-color:#B3B3B3;stop-opacity:0.7896"/>
					<stop  offset="1" style="stop-color:#B3B3B3;stop-opacity:0.335"/>
				</linearGradient>
				<path class="st18" d="M42.23,64.04V47.99l16.64,9.7v15.95"/>
			</g>
		</g>
		<g>
			<g>
				<g>
					<polygon class="st6" points="60.22,64.79 78.83,53.92 87.01,58.64 87.01,66.72 68.4,77.58 60.22,72.86 					"/>
					<polygon class="st6" points="84.07,58.64 78.83,55.62 63.16,64.79 68.4,67.81 					"/>
				</g>
				
					<linearGradient id="SVGID_11_" gradientUnits="userSpaceOnUse" x1="1263.437" y1="76.6694" x2="1259.3922" y2="48.1026" gradientTransform="matrix(-1 0 0 1 1339.8987 0)">
					<stop  offset="0" style="stop-color:#B3B3B3;stop-opacity:0.335"/>
					<stop  offset="0.0741" style="stop-color:#B3B3B3;stop-opacity:0.3176"/>
					<stop  offset="1" style="stop-color:#B3B3B3;stop-opacity:0.1"/>
				</linearGradient>
				<path class="st19" d="M68.3,77.65v-7.94l18.71-11v8.02"/>
				
					<linearGradient id="SVGID_12_" gradientUnits="userSpaceOnUse" x1="-763.9991" y1="68.9782" x2="-769.6375" y2="73.0909" gradientTransform="matrix(1 0 0 1 831.4263 0)">
					<stop  offset="0" style="stop-color:#B3B3B3;stop-opacity:0.7896"/>
					<stop  offset="1" style="stop-color:#B3B3B3;stop-opacity:0.335"/>
				</linearGradient>
				<path class="st20" d="M60.14,72.88v-7.99l8.28,4.83v7.94"/>
			</g>
		</g>
		<g>
			<g>
				<g>
					<polygon class="st6" points="67.03,44.68 63.48,42.62 61.93,43.51 61.93,45.05 65.47,47.12 67.03,46.22 					"/>
				</g>
				
					<linearGradient id="SVGID_13_" gradientUnits="userSpaceOnUse" x1="-785.683" y1="46.8183" x2="-786.4526" y2="41.3831" gradientTransform="matrix(1 0 0 1 849.6002 0)">
					<stop  offset="0" style="stop-color:#B3B3B3;stop-opacity:0.7896"/>
					<stop  offset="1" style="stop-color:#B3B3B3;stop-opacity:0.335"/>
				</linearGradient>
				<path class="st21" d="M61.93,45.05v-1.53l3.56,2.09v1.51"/>
				
					<linearGradient id="SVGID_14_" gradientUnits="userSpaceOnUse" x1="1292.6101" y1="45.3406" x2="1289.5286" y2="47.5884" gradientTransform="matrix(-1 0 0 1 1358.0726 0)">
					<stop  offset="0" style="stop-color:#B3B3B3;stop-opacity:0.335"/>
					<stop  offset="0.0741" style="stop-color:#B3B3B3;stop-opacity:0.3176"/>
					<stop  offset="1" style="stop-color:#B3B3B3;stop-opacity:0.1"/>
				</linearGradient>
				<path class="st22" d="M65.46,47.13v-1.51l1.58-0.92v1.52"/>
			</g>
		</g>
		<g>
			<g>
				<g>
					<polygon class="st6" points="76.39,37.44 70.23,33.85 67.52,35.41 67.52,38.08 73.68,41.68 76.39,40.12 					"/>
				</g>
				
					<linearGradient id="SVGID_15_" gradientUnits="userSpaceOnUse" x1="-778.6201" y1="41.1608" x2="-779.9592" y2="31.7038" gradientTransform="matrix(1 0 0 1 849.6002 0)">
					<stop  offset="0" style="stop-color:#B3B3B3;stop-opacity:0.7896"/>
					<stop  offset="1" style="stop-color:#B3B3B3;stop-opacity:0.335"/>
				</linearGradient>
				<path class="st23" d="M67.52,38.09v-2.65l6.19,3.64v2.63"/>
				
					<linearGradient id="SVGID_16_" gradientUnits="userSpaceOnUse" x1="1284.4039" y1="38.5897" x2="1279.0419" y2="42.5008" gradientTransform="matrix(-1 0 0 1 1358.0726 0)">
					<stop  offset="0" style="stop-color:#B3B3B3;stop-opacity:0.335"/>
					<stop  offset="0.0741" style="stop-color:#B3B3B3;stop-opacity:0.3176"/>
					<stop  offset="1" style="stop-color:#B3B3B3;stop-opacity:0.1"/>
				</linearGradient>
				<path class="st24" d="M73.67,41.71v-2.63l2.74-1.6v2.64"/>
			</g>
		</g>
		<polygon class="st12" points="68.34,73 87.14,61.93 87.14,58.59 68.34,69.66 		"/>
		<polygon class="st12" points="58.82,62.01 96.28,40.07 96.28,36.73 58.82,58.67 		"/>
		<polygon class="st12" points="58.86,61.95 42.38,52.43 42.38,49.16 58.86,58.68 		"/>
	</g>
	<g>
		<path class="st2" d="M35.81,76.94l-2.7,0.4l-1.06-0.54l-1.55,0.6l-1.28-0.65l-1.19-0.99l0.27-1.03l-2.78-0.54l0.74-1.09l1.2-0.08
			l0.1-1.42l2.23-0.55l0.68,0.47l1.41-0.19l1.08-1.18l1.84,0.24l0.42,0.64l1.59-0.23l1.57,1.48l-0.39,0.58l1.75-0.06l1.02,1.03
			l-1.5,0.32l0.03,1.01l-1.63,0.51L35.81,76.94z"/>
		<g>
			<polygon class="st3" points="36.59,75.53 37.36,59.49 37.55,75.62 			"/>
			<polygon class="st3" points="36.74,71.75 34.82,66.61 37.35,71.49 			"/>
			<polygon class="st4" points="32.58,67.49 30.96,65.19 31.64,63.84 30.01,62.75 30.82,61.13 32.31,59.37 34.34,58.96 34.48,55.99 
				36.78,55.99 37.32,57.07 40.03,56.26 41.79,58.02 41.11,58.96 41.92,60.18 44.49,60.45 44.63,62.35 43.54,63.16 44.49,64.51 
				42.19,66.95 40.97,66.95 41.65,68.57 40.03,70.19 38.94,68.98 37.05,69.65 35.56,68.44 			"/>
			<g>
				<polygon class="st4" points="36.91,58.29 35.7,57.07 36.12,55.99 34.48,55.99 34.34,58.96 36.51,59.64 				"/>
				<polygon class="st0" points="37.46,66.68 35.56,67.22 35.29,65.86 33.67,65.46 33.53,63.97 35.83,64.11 36.37,63.16 35.7,61.26 
					34.61,61.94 33.53,60.86 34.34,58.96 32.31,59.37 30.82,61.13 30.01,62.75 31.64,63.84 30.96,65.19 32.58,67.49 35.56,68.44 
					37.05,69.65 38.94,68.98 40.03,70.19 39.48,67.62 				"/>
			</g>
		</g>
	</g>
	<g>
		<g>
			<path class="st2" d="M121.36,77.88l-2.4,0.36l-0.95-0.48l-1.37,0.53l-1.14-0.57l-1.06-0.88l0.24-0.92l-2.47-0.48l0.66-0.97
				l1.07-0.07l0.09-1.26l1.98-0.49l0.6,0.42l1.26-0.17l0.96-1.05l1.63,0.21l0.38,0.57l1.41-0.21l1.4,1.32l-0.35,0.51l1.56-0.05
				l0.9,0.92l-1.33,0.28l0.03,0.9l-1.45,0.45L121.36,77.88z"/>
			<g>
				<polygon class="st3" points="122.06,76.62 122.74,62.36 122.91,76.71 				"/>
				<polygon class="st3" points="122.19,73.27 120.48,68.69 122.73,73.03 				"/>
				<polygon class="st4" points="118.5,69.47 117.05,67.43 117.65,66.23 116.21,65.26 116.93,63.82 118.25,62.26 120.06,61.89 
					120.18,59.25 122.22,59.25 122.71,60.21 125.11,59.49 126.68,61.05 126.07,61.89 126.8,62.98 129.08,63.22 129.2,64.9 
					128.24,65.62 129.08,66.83 127.04,68.99 125.95,68.99 126.56,70.44 125.11,71.88 124.15,70.8 122.47,71.4 121.14,70.32 				"/>
				<g>
					<polygon class="st4" points="122.34,61.29 121.26,60.21 121.63,59.25 120.18,59.25 120.06,61.89 121.98,62.5 					"/>
					<polygon class="st0" points="122.83,68.75 121.14,69.23 120.9,68.03 119.46,67.67 119.34,66.35 121.38,66.47 121.86,65.62 
						121.26,63.94 120.3,64.54 119.34,63.58 120.06,61.89 118.25,62.26 116.93,63.82 116.21,65.26 117.65,66.23 117.05,67.43 
						118.5,69.47 121.14,70.32 122.47,71.4 124.15,70.8 125.11,71.88 124.63,69.59 					"/>
				</g>
			</g>
		</g>
		<g>
			<g>
				<polygon class="st4" points="118.41,64.19 117.33,62.65 117.78,61.74 116.69,61.01 117.23,59.92 118.23,58.74 119.6,58.47 
					119.69,56.47 121.23,56.47 121.59,57.2 123.41,56.65 124.59,57.83 124.14,58.47 124.68,59.29 126.41,59.47 126.5,60.74 
					125.77,61.29 126.41,62.19 124.86,63.83 124.05,63.83 124.5,64.92 123.41,66.01 122.68,65.19 121.41,65.64 120.41,64.83 				"/>
				<g>
					<polyline class="st0" points="119.6,58.47 121.05,58.92 121.32,58.02 120.5,57.2 120.78,56.47 119.69,56.47 					"/>
					<polygon class="st0" points="121.68,63.65 120.41,64.01 120.23,63.1 119.14,62.83 119.05,61.83 120.59,61.92 120.96,61.29 
						120.5,60.01 119.78,60.47 119.05,59.74 119.6,58.47 118.23,58.74 117.23,59.92 116.69,61.01 117.78,61.74 117.33,62.65 
						118.41,64.19 120.41,64.83 121.41,65.64 122.68,65.19 123.41,66.01 123.05,64.28 					"/>
				</g>
			</g>
		</g>
		<g>
			<g>
				<polygon class="st4" points="119.75,55.81 119.72,57.24 120.38,57.66 120.01,58.56 120.8,59.06 121.9,59.44 122.85,59.09 
					123.73,60.36 124.68,59.76 124.6,59.15 125.94,58.8 126.17,57.57 125.63,57.33 125.62,56.58 126.6,55.79 126.13,54.92 
					125.46,54.85 125.47,54.01 123.85,53.54 123.35,53.86 123.17,52.97 122.05,52.68 121.95,53.5 120.98,53.69 120.71,54.62 				"/>
				<g>
					<polygon class="st0" points="121.98,54.89 121.05,55.15 121.31,55.81 120.76,56.42 121.12,57.1 122.03,56.45 122.51,56.72 
						122.76,57.73 122.13,57.71 121.99,58.47 122.85,59.09 121.9,59.44 120.8,59.06 120.01,58.56 120.38,57.66 119.72,57.24 
						119.75,55.81 120.71,54.62 120.98,53.69 121.95,53.5 122.05,52.68 122.55,53.95 					"/>
				</g>
			</g>
		</g>
	</g>
</g>
</svg>
