<?xml version="1.0" encoding="utf-8"?>
<!-- Generator: Adobe Illustrator 21.1.0, SVG Export Plug-In . SVG Version: 6.00 Build 0)  -->
<svg version="1.1" id="Слой_1" xmlns="http://www.w3.org/2000/svg" xmlns:xlink="http://www.w3.org/1999/xlink" x="0px" y="0px"
	 viewBox="0 0 176 105" style="enable-background:new 0 0 176 105;" xml:space="preserve">
<style type="text/css">
	.st0{fill:#346F2E;}
	.st1{fill:#D1D1CD;}
	.st2{fill:#A19C95;}
	.st3{fill:#FFFFFF;}
	.st4{fill:#E35B64;}
	.st5{fill:url(#SVGID_1_);}
	.st6{fill:url(#SVGID_2_);}
	.st7{fill:#707070;}
	.st8{fill:#4F4F4F;}
	.st9{fill:url(#SVGID_3_);}
	.st10{fill:url(#SVGID_4_);}
	.st11{fill:none;stroke:#A19C95;stroke-width:0.25;stroke-linecap:round;stroke-miterlimit:10;}
	.st12{fill:url(#SVGID_5_);}
	.st13{fill:url(#SVGID_6_);}
	.st14{fill:url(#SVGID_7_);}
	.st15{fill:url(#SVGID_8_);}
	.st16{fill:url(#SVGID_9_);}
	.st17{fill:url(#SVGID_10_);}
	.st18{fill:url(#SVGID_11_);}
	.st19{fill:#57352F;}
	.st20{fill:#568E48;}
</style>
<g>
	<g>
		<path class="st0" d="M169.6,58.3l-74.8,43.2c-7.2,4.1-18,4.6-24.2,1L4.5,64.1c-6.2-3.6-5.4-9.8,1.7-14L81,7c7.2-4.1,18-4.6,24.2-1
			l66.1,38.4C177.6,47.9,176.8,54.2,169.6,58.3z"/>
		<path class="st1" d="M169.6,55.3L94.8,98.5c-7.2,4.1-18,4.6-24.2,1L4.5,61.1c-6.2-3.6-5.4-9.8,1.7-14L81,4c7.2-4.1,18-4.6,24.2-1
			l66.1,38.4C177.6,44.9,176.8,51.2,169.6,55.3z"/>
	</g>
	<g>
		<g>
			<g>
				<g>
					<path class="st2" d="M76.4,54.6c0-0.7,0.4-1.4,1-1.7L121,27c0.3-0.2,0.7-0.3,1-0.3c0.3,0,0.7,0.1,1,0.3l17.3,10
						c0.6,0.4,1,1,1,1.7s-0.4,1.4-1,1.7L97.3,65.4c-1.4,0.8-3.1,0.8-4.5,0l-15.4-9.1C76.7,56,76.4,55.3,76.4,54.6z"/>
				</g>
				<g>
					<path class="st2" d="M60.9,45.5c0-0.7,0.4-1.4,1-1.7l43.6-25.9c0.3-0.2,0.7-0.3,1-0.3c0.3,0,0.7,0.1,1,0.3l17.3,10
						c0.6,0.4,1,1,1,1.7s-0.4,1.4-1,1.7L79.5,57.6L61.8,47.2C61.2,46.9,60.9,46.2,60.9,45.5z"/>
				</g>
			</g>
			<g>
				<g>
					<g>
						<g>
							<g>
								<polygon class="st3" points="64,27.9 107,2.9 122.4,12 122.4,29.2 79.4,54.2 64,45.2 								"/>
								<polygon class="st4" points="64,27.9 107,2.9 122.4,12 122.4,12.8 79.4,37.8 64,28.8 								"/>
							</g>
							
								<linearGradient id="SVGID_1_" gradientUnits="userSpaceOnUse" x1="4256.1558" y1="52.1631" x2="4247.0791" y2="-11.9424" gradientTransform="matrix(-1 0 0 1 4354.3115 0)">
								<stop  offset="0" style="stop-color:#B3B3B3;stop-opacity:0.335"/>
								<stop  offset="7.406294e-02" style="stop-color:#B3B3B3;stop-opacity:0.3176"/>
								<stop  offset="1" style="stop-color:#B3B3B3;stop-opacity:0.1"/>
							</linearGradient>
							<path class="st5" d="M79.3,54.3V37.2L122.4,12v17.2"/>
							
								<linearGradient id="SVGID_2_" gradientUnits="userSpaceOnUse" x1="-3647.8115" y1="36.4996" x2="-3659.2361" y2="44.8329" gradientTransform="matrix(1 0 0 1 3725.8391 0)">
								<stop  offset="0" style="stop-color:#B3B3B3;stop-opacity:0.7896"/>
								<stop  offset="1" style="stop-color:#B3B3B3;stop-opacity:0.335"/>
							</linearGradient>
							<path class="st6" d="M63.9,45.2V28l15.6,9.1v17.1"/>
						</g>
					</g>
				</g>
				<g>
					<g>
						<g>
							<g>
								<polygon class="st3" points="79.3,41.9 95,32.8 110.6,41.9 110.6,54.1 95,63.1 79.3,54.1 								"/>
								<polygon class="st7" points="79.3,41.9 95,32.8 110.6,41.9 110.6,42.7 95,51.8 79.3,42.7 								"/>
								<polygon class="st8" points="107,41.9 95,34.9 82.9,41.9 95,48.8 								"/>
							</g>
							
								<linearGradient id="SVGID_3_" gradientUnits="userSpaceOnUse" x1="4252.874" y1="61.8419" x2="4248.4658" y2="30.7091" gradientTransform="matrix(-1 0 0 1 4354.3115 0)">
								<stop  offset="0" style="stop-color:#B3B3B3;stop-opacity:0.335"/>
								<stop  offset="7.406294e-02" style="stop-color:#B3B3B3;stop-opacity:0.3176"/>
								<stop  offset="1" style="stop-color:#B3B3B3;stop-opacity:0.1"/>
							</linearGradient>
							<path class="st9" d="M94.8,63.2V51.2l15.8-9.2v12.2"/>
							
								<linearGradient id="SVGID_4_" gradientUnits="userSpaceOnUse" x1="-3633.4141" y1="48.7208" x2="-3642.9749" y2="55.6946" gradientTransform="matrix(1 0 0 1 3725.8391 0)">
								<stop  offset="0" style="stop-color:#B3B3B3;stop-opacity:0.7896"/>
								<stop  offset="1" style="stop-color:#B3B3B3;stop-opacity:0.335"/>
							</linearGradient>
							<path class="st10" d="M79.2,54.1V42L95,51.2v12.1"/>
						</g>
					</g>
					<g>
						<line class="st11" x1="82.9" y1="42" x2="81.4" y2="42.8"/>
						<line class="st11" x1="84.6" y1="43" x2="83.1" y2="43.8"/>
						<line class="st11" x1="86.3" y1="44" x2="84.8" y2="44.9"/>
						<line class="st11" x1="88.1" y1="45" x2="86.5" y2="45.9"/>
						<line class="st11" x1="89.8" y1="46" x2="88.2" y2="46.9"/>
						<line class="st11" x1="91.5" y1="47.1" x2="89.9" y2="47.9"/>
						<line class="st11" x1="93.2" y1="48.1" x2="91.6" y2="48.9"/>
						<line class="st11" x1="94.9" y1="49.1" x2="93.4" y2="49.9"/>
					</g>
					<g>
						<line class="st11" x1="96.7" y1="33.8" x2="95" y2="34.7"/>
						<line class="st11" x1="98.7" y1="35" x2="97" y2="35.9"/>
						<line class="st11" x1="100.7" y1="36.2" x2="99" y2="37.1"/>
						<line class="st11" x1="102.7" y1="37.3" x2="101" y2="38.3"/>
						<line class="st11" x1="104.7" y1="38.5" x2="103" y2="39.5"/>
						<line class="st11" x1="106.7" y1="39.7" x2="105" y2="40.6"/>
						<line class="st11" x1="108.7" y1="40.9" x2="107" y2="41.8"/>
					</g>
				</g>
				<g>
					<g>
						<g>
							<g>
								<polygon class="st3" points="106.7,21 122.4,12 138.1,21 138.1,38.2 122.4,47.2 106.7,38.2 								"/>
								<polygon class="st4" points="106.7,21 122.4,12 138.1,21 138.1,21.9 122.4,30.9 106.7,21.9 								"/>
								<linearGradient id="SVGID_5_" gradientUnits="userSpaceOnUse" x1="67.8203" y1="19.871" x2="134.4389" y2="19.871">
									<stop  offset="0" style="stop-color:#B3B3B3;stop-opacity:0.7896"/>
									<stop  offset="1" style="stop-color:#B3B3B3;stop-opacity:0.335"/>
								</linearGradient>
								<polygon class="st12" points="134.4,21 109,6.3 107,5.1 103,7.4 94.9,12.1 94.9,12.1 67.8,27.9 79.4,34.7 106.6,18.8 
									122.4,28 								"/>
							</g>
							<linearGradient id="SVGID_6_" gradientUnits="userSpaceOnUse" x1="131.4871" y1="43.6511" x2="126.9908" y2="11.8955">
								<stop  offset="0" style="stop-color:#B3B3B3;stop-opacity:0.335"/>
								<stop  offset="7.406294e-02" style="stop-color:#B3B3B3;stop-opacity:0.3176"/>
								<stop  offset="1" style="stop-color:#B3B3B3;stop-opacity:0.1"/>
							</linearGradient>
							<polygon class="st13" points="122.3,30.3 122.3,47.3 138.1,38.2 138.1,21.1 							"/>
							
								<linearGradient id="SVGID_7_" gradientUnits="userSpaceOnUse" x1="-3604.9258" y1="29.5613" x2="-3616.4077" y2="37.9364" gradientTransform="matrix(1 0 0 1 3725.8391 0)">
								<stop  offset="0" style="stop-color:#B3B3B3;stop-opacity:0.7896"/>
								<stop  offset="1" style="stop-color:#B3B3B3;stop-opacity:0.335"/>
							</linearGradient>
							<path class="st14" d="M106.6,38.2V21.1l15.8,9.2v17"/>
						</g>
					</g>
					<g>
						<polygon class="st8" points="127.9,44.2 126.7,44.8 126.7,40.9 127.9,40.2 						"/>
					</g>
				</g>
			</g>
		</g>
		<g>
			<g>
				<g>
					<path class="st2" d="M82.3,72.5c0-0.7-0.4-1.4-1-1.7L49.6,51.9c-0.3-0.2-0.7-0.3-1-0.3c-0.3,0-0.7,0.1-1,0.3L30.2,62
						c-0.6,0.4-1,1-1,1.7c0,0.7,0.4,1.4,1,1.7l31.2,18c1.4,0.8,3.1,0.8,4.5,0l15.4-9.1C82,73.9,82.3,73.2,82.3,72.5z"/>
				</g>
			</g>
			<g>
				<g>
					<g>
						<g>
							<polygon class="st3" points="79.2,62.1 48.1,44 32.6,53 32.6,63.3 63.8,81.4 79.2,72.4 							"/>
							<g>
								<g>
									<polygon class="st4" points="79.3,62.2 79.3,63.9 71.5,65.5 71.5,63.8 									"/>
									<polygon class="st4" points="63.7,71.3 71.5,63.8 71.5,65.5 63.7,73 									"/>
								</g>
								<g>
									<polygon class="st3" points="48.2,43.8 79.5,62.2 71.7,63.7 40.4,45.4 									"/>
									
										<linearGradient id="SVGID_8_" gradientUnits="userSpaceOnUse" x1="-2415.1863" y1="53.7844" x2="-2376.0459" y2="53.7844" gradientTransform="matrix(-1 0 0 1 -2335.6536 0)">
										<stop  offset="0" style="stop-color:#B3B3B3;stop-opacity:0.335"/>
										<stop  offset="7.406294e-02" style="stop-color:#B3B3B3;stop-opacity:0.3176"/>
										<stop  offset="1" style="stop-color:#B3B3B3;stop-opacity:0.1"/>
									</linearGradient>
									<polygon class="st15" points="48.2,43.8 79.5,62.2 71.7,63.7 40.4,45.4 									"/>
									<polygon class="st3" points="32.6,52.9 40.4,45.4 71.6,63.7 63.8,71.3 									"/>
									
										<linearGradient id="SVGID_9_" gradientUnits="userSpaceOnUse" x1="-2407.2642" y1="58.3205" x2="-2368.2573" y2="58.3205" gradientTransform="matrix(-1 0 0 1 -2335.6536 0)">
										<stop  offset="0" style="stop-color:#B3B3B3;stop-opacity:0.7896"/>
										<stop  offset="1" style="stop-color:#B3B3B3;stop-opacity:0.335"/>
									</linearGradient>
									<polygon class="st16" points="32.6,52.9 40.4,45.4 71.6,63.7 63.8,71.3 									"/>
								</g>
							</g>
						</g>
						
							<linearGradient id="SVGID_10_" gradientUnits="userSpaceOnUse" x1="6035.1509" y1="80.1759" x2="6029.0103" y2="36.8071" gradientTransform="matrix(1 0 0 1 -5985.0811 0)">
							<stop  offset="0" style="stop-color:#B3B3B3;stop-opacity:0.335"/>
							<stop  offset="7.406294e-02" style="stop-color:#B3B3B3;stop-opacity:0.3176"/>
							<stop  offset="1" style="stop-color:#B3B3B3;stop-opacity:0.1"/>
						</linearGradient>
						<path class="st17" d="M32.6,63.4V53.1l31.3,18.2v10.1"/>
						
							<linearGradient id="SVGID_11_" gradientUnits="userSpaceOnUse" x1="-5423.2871" y1="68.2837" x2="-5431.9917" y2="74.6331" gradientTransform="matrix(-1 0 0 1 -5356.6089 0)">
							<stop  offset="0" style="stop-color:#B3B3B3;stop-opacity:0.335"/>
							<stop  offset="7.406294e-02" style="stop-color:#B3B3B3;stop-opacity:0.3176"/>
							<stop  offset="1" style="stop-color:#B3B3B3;stop-opacity:0.1"/>
						</linearGradient>
						<path class="st18" d="M63.7,81.5V71.3l7.9-7.6l7.7-1.6v10.2"/>
					</g>
				</g>
			</g>
			<g>
				<polygon class="st4" points="63.9,71.3 63.9,73 32.6,54.8 32.6,53.1 				"/>
			</g>
		</g>
	</g>
	<g>
		<path class="st2" d="M23.8,62.9l1.6-0.5l0-1l1.5-0.3l-1-1l-1.8,0.1l0.4-0.6L22.9,58l-1.6,0.2l-0.4-0.6l-1.8-0.2L18,58.5l-1.4,0.2
			l-0.7-0.5l-2.2,0.6l-0.1,1.4l-1.2,0.1l-0.7,1.1l2.8,0.5l-0.3,1l1.2,1l1.3,0.6l1.5-0.6l1.1,0.5l2.7-0.4L23.8,62.9z"/>
		<g>
			<polygon class="st19" points="22.7,62.7 23.5,46.7 23.7,62.8 			"/>
			<polygon class="st19" points="22.9,59 20.9,53.8 23.5,58.7 			"/>
			<polygon class="st20" points="18.7,54.7 17.1,52.4 17.8,51 16.1,50 16.9,48.3 18.4,46.6 20.5,46.2 20.6,43.2 22.9,43.2 
				23.4,44.3 26.1,43.5 27.9,45.2 27.2,46.2 28,47.4 30.6,47.7 30.7,49.5 29.7,50.4 30.6,51.7 28.3,54.1 27.1,54.1 27.8,55.8 
				26.1,57.4 25.1,56.2 23.2,56.9 21.7,55.6 			"/>
			<g>
				<polygon class="st20" points="23,45.5 21.8,44.3 22.2,43.2 20.6,43.2 20.5,46.2 22.6,46.8 				"/>
				<polygon class="st0" points="23.6,53.9 21.7,54.4 21.4,53.1 19.8,52.7 19.7,51.2 22,51.3 22.5,50.4 21.8,48.5 20.7,49.1 
					19.7,48.1 20.5,46.2 18.4,46.6 16.9,48.3 16.1,50 17.8,51 17.1,52.4 18.7,54.7 21.7,55.6 23.2,56.9 25.1,56.2 26.1,57.4 
					25.6,54.8 				"/>
			</g>
		</g>
	</g>
	<g>
		<path class="st2" d="M126.3,59.5l1.6-0.5l0-1l1.5-0.3l-1-1l-1.8,0.1l0.4-0.6l-1.6-1.5l-1.6,0.2l-0.4-0.6l-1.8-0.2l-1.1,1.2
			l-1.4,0.2l-0.7-0.5l-2.2,0.6l-0.1,1.4l-1.2,0.1l-0.7,1.1l2.8,0.5l-0.3,1l1.2,1l1.3,0.6l1.5-0.6l1.1,0.5l2.7-0.4L126.3,59.5z"/>
		<g>
			<polygon class="st19" points="125.2,59.4 126,43.3 126.1,59.5 			"/>
			<polygon class="st19" points="125.3,55.6 123.4,50.5 125.9,55.4 			"/>
			<polygon class="st20" points="121.2,51.4 119.6,49.1 120.2,47.7 118.6,46.6 119.4,45 120.9,43.2 122.9,42.8 123.1,39.8 
				125.4,39.8 125.9,40.9 128.6,40.1 130.4,41.9 129.7,42.8 130.5,44 133.1,44.3 133.2,46.2 132.1,47 133.1,48.4 130.8,50.8 
				129.6,50.8 130.2,52.4 128.6,54.1 127.5,52.8 125.6,53.5 124.2,52.3 			"/>
			<g>
				<polygon class="st20" points="125.5,42.1 124.3,40.9 124.7,39.8 123.1,39.8 122.9,42.8 125.1,43.5 				"/>
				<polygon class="st0" points="126.1,50.5 124.2,51.1 123.9,49.7 122.3,49.3 122.1,47.8 124.4,48 125,47 124.3,45.1 123.2,45.8 
					122.1,44.7 122.9,42.8 120.9,43.2 119.4,45 118.6,46.6 120.2,47.7 119.6,49.1 121.2,51.4 124.2,52.3 125.6,53.5 127.5,52.8 
					128.6,54.1 128.1,51.5 				"/>
			</g>
		</g>
	</g>
	<g>
		<g>
			<path class="st2" d="M94.2,80.1l1.4-0.5l0-0.9l1.3-0.3l-0.9-0.9l-1.6,0.1l0.3-0.5l-1.4-1.3L92.1,76l-0.4-0.6L90,75.2l-1,1
				l-1.3,0.2L87.2,76l-2,0.5l-0.1,1.3l-1.1,0.1l-0.7,1l2.5,0.5l-0.2,0.9l1.1,0.9l1.1,0.6l1.4-0.5l0.9,0.5l2.4-0.4L94.2,80.1z"/>
			<g>
				<polygon class="st19" points="93.3,80 94,65.7 94.1,80.1 				"/>
				<polygon class="st19" points="93.4,76.7 91.7,72.1 93.9,76.4 				"/>
				<polygon class="st20" points="89.7,72.9 88.3,70.8 88.9,69.6 87.4,68.6 88.1,67.2 89.5,65.6 91.3,65.3 91.4,62.6 93.4,62.6 
					93.9,63.6 96.3,62.9 97.9,64.4 97.3,65.3 98,66.4 100.3,66.6 100.4,68.3 99.5,69 100.3,70.2 98.2,72.4 97.2,72.4 97.8,73.8 
					96.3,75.3 95.4,74.2 93.7,74.8 92.4,73.7 				"/>
				<g>
					<polygon class="st20" points="93.6,64.7 92.5,63.6 92.8,62.6 91.4,62.6 91.3,65.3 93.2,65.9 					"/>
					<polygon class="st0" points="94,72.1 92.4,72.6 92.1,71.4 90.7,71.1 90.5,69.7 92.6,69.9 93.1,69 92.5,67.3 91.5,67.9 90.5,67 
						91.3,65.3 89.5,65.6 88.1,67.2 87.4,68.6 88.9,69.6 88.3,70.8 89.7,72.9 92.4,73.7 93.7,74.8 95.4,74.2 96.3,75.3 95.8,73 
											"/>
				</g>
			</g>
		</g>
		<g>
			<g>
				<polygon class="st20" points="89.6,67.6 88.5,66 89,65.1 87.9,64.4 88.4,63.3 89.4,62.1 90.8,61.9 90.9,59.9 92.4,59.9 
					92.8,60.6 94.6,60 95.8,61.2 95.3,61.9 95.9,62.7 97.6,62.9 97.7,64.1 97,64.7 97.6,65.6 96.1,67.2 95.3,67.2 95.7,68.3 
					94.6,69.4 93.9,68.6 92.6,69 91.6,68.2 				"/>
				<g>
					<polyline class="st0" points="90.8,61.9 92.3,62.3 92.5,61.4 91.7,60.6 92,59.9 90.9,59.9 					"/>
					<polygon class="st0" points="92.9,67 91.6,67.4 91.4,66.5 90.4,66.2 90.3,65.2 91.8,65.3 92.2,64.7 91.7,63.4 91,63.9 
						90.3,63.1 90.8,61.9 89.4,62.1 88.4,63.3 87.9,64.4 89,65.1 88.5,66 89.6,67.6 91.6,68.2 92.6,69 93.9,68.6 94.6,69.4 
						94.3,67.7 					"/>
				</g>
			</g>
		</g>
		<g>
			<g>
				<polygon class="st20" points="91,59.2 90.9,60.6 91.6,61 91.2,61.9 92,62.4 93.1,62.8 94.1,62.5 94.9,63.7 95.9,63.1 95.8,62.5 
					97.1,62.2 97.4,61 96.8,60.7 96.8,60 97.8,59.2 97.3,58.3 96.7,58.2 96.7,57.4 95.1,56.9 94.6,57.2 94.4,56.4 93.3,56.1 
					93.2,56.9 92.2,57.1 91.9,58 				"/>
				<g>
					<polygon class="st0" points="93.2,58.3 92.3,58.5 92.5,59.2 92,59.8 92.3,60.5 93.2,59.8 93.7,60.1 94,61.1 93.3,61.1 
						93.2,61.9 94.1,62.5 93.1,62.8 92,62.4 91.2,61.9 91.6,61 90.9,60.6 91,59.2 91.9,58 92.2,57.1 93.2,56.9 93.3,56.1 93.8,57.3 
											"/>
				</g>
			</g>
		</g>
	</g>
</g>
</svg>
