<?xml version="1.0" encoding="utf-8"?>
<!-- Generator: Adobe Illustrator 21.1.0, SVG Export Plug-In . SVG Version: 6.00 Build 0)  -->
<svg version="1.1" id="Слой_1" xmlns="http://www.w3.org/2000/svg" xmlns:xlink="http://www.w3.org/1999/xlink" x="0px" y="0px"
	 viewBox="0 0 161 108" style="enable-background:new 0 0 161 108;" xml:space="preserve">
<style type="text/css">
	.st0{fill:#346F2E;}
	.st1{fill:#D1D1CD;}
	.st2{fill:#A19C95;}
	.st3{fill:#F6F6F6;}
	.st4{fill:url(#SVGID_1_);}
	.st5{fill:#A48A42;}
	.st6{fill:#B3B3B3;}
	.st7{fill:#B1B1B1;}
	.st8{fill:#DADADA;}
	.st9{fill:#A8A8A8;}
	.st10{fill:#CFB36F;}
	.st11{fill:#FFFFFF;}
	.st12{fill:#707070;}
	.st13{fill:url(#SVGID_2_);}
	.st14{fill:#57352F;}
	.st15{fill:#568E48;}
</style>
<g>
	<g>
		<path class="st0" d="M6.8,74.7l51.2,29.3c7.2,4.1,18,4.6,24.2,1l74.1-43.2c6.2-3.6,5.4-9.8-1.7-14l-51.2-29.3
			c-7.2-4.1-18-4.6-24.2-1L5.1,60.7C-1.1,64.3-0.4,70.5,6.8,74.7z"/>
		<path class="st1" d="M6.8,71.7l51.2,29.3c7.2,4.1,18,4.6,24.2,1l74.1-43.2c6.2-3.6,5.4-9.8-1.7-14l-51.2-29.3
			c-7.2-4.1-18-4.6-24.2-1L5.1,57.7C-1.1,61.3-0.4,67.5,6.8,71.7z"/>
	</g>
	<g>
		<g>
			<g>
				<g>
					<path class="st2" d="M45.1,81.4c-0.2,0-0.4-0.1-0.6-0.2L26.6,71c-0.4-0.2-0.6-0.6-0.6-1.1c0-0.4,0.2-0.9,0.6-1.1L92.4,32
						c0.2-0.1,0.4-0.2,0.6-0.2c0.2,0,0.4,0.1,0.6,0.2l20,11.8c0.4,0.2,0.6,0.6,0.6,1.1s-0.2,0.9-0.6,1.1L89,60.2
						c-0.2,0.1-0.4,0.2-0.6,0.2c-0.2,0-0.4-0.1-0.6-0.2L85,58.6l-4.5,2.6l4,2.3c0.4,0.2,0.6,0.6,0.6,1.1c0,0.4-0.2,0.9-0.6,1.1
						l-26,15c-0.2,0.1-0.4,0.2-0.6,0.2s-0.4-0.1-0.6-0.2l-5.2-3l-6.3,3.6C45.6,81.4,45.3,81.4,45.1,81.4z"/>
					<path class="st2" d="M93,33.1l20,11.8L88.3,59.1l-3.3-2l-7,4l5.9,3.3l-26,15l-5.8-3.4l-6.9,4L27.3,69.9L93,33.1 M93,30.6
						c-0.4,0-0.8,0.1-1.2,0.3L26,67.7c-0.8,0.4-1.3,1.3-1.3,2.2c0,0.9,0.5,1.7,1.2,2.2l17.9,10.3c0.4,0.2,0.8,0.3,1.3,0.3
						s0.9-0.1,1.3-0.3l5.7-3.3l4.6,2.6c0.4,0.2,0.8,0.3,1.3,0.3s0.9-0.1,1.3-0.3l26-15c0.8-0.4,1.3-1.3,1.2-2.2
						c0-0.9-0.5-1.7-1.3-2.2l-2.1-1.2l1.9-1.1l2,1.2c0.4,0.2,0.8,0.4,1.3,0.4c0.4,0,0.9-0.1,1.2-0.3l24.6-14.2
						c0.8-0.4,1.2-1.3,1.2-2.2c0-0.9-0.5-1.7-1.2-2.2L94.3,31C93.9,30.8,93.4,30.6,93,30.6L93,30.6z"/>
				</g>
			</g>
			<g>
				<g>
					<polygon class="st3" points="113,18 113,44.9 88.3,59.1 88.2,32.2 					"/>
				</g>
				<g>
					<linearGradient id="SVGID_1_" gradientUnits="userSpaceOnUse" x1="88.1842" y1="38.584" x2="112.9654" y2="38.584">
						<stop  offset="0" style="stop-color:#B3B3B3;stop-opacity:0.335"/>
						<stop  offset="7.406294e-02" style="stop-color:#B3B3B3;stop-opacity:0.3176"/>
						<stop  offset="1" style="stop-color:#B3B3B3;stop-opacity:0.1"/>
					</linearGradient>
					<polygon class="st4" points="113,18 113,44.9 88.3,59.1 88.2,32.2 					"/>
				</g>
				<g>
					<polygon class="st5" points="88.3,38 113,23.8 113,18 88.3,32.2 					"/>
				</g>
				<g>
					<g>
						<rect x="88.2" y="18" class="st6" width="0" height="19.7"/>
					</g>
				</g>
				<g>
					<polygon class="st7" points="88.3,3.8 113,18 88.3,32.2 63.7,18 					"/>
				</g>
				<g>
					<polygon class="st8" points="63.7,18 63.7,44.9 88.3,59.1 88.3,32.2 					"/>
				</g>
				<g>
					<path class="st9" d="M82.5,24.5c3.6,1,7.8,1,11.4,0c14.5-3.9,14.5-10.3,0-14.2c-3.6-1-7.8-1-11.4,0C68,14.2,68,20.7,82.5,24.5z
						"/>
				</g>
				<g>
					<g>
						<rect x="63.7" y="18" class="st6" width="0" height="19.7"/>
						<polygon class="st5" points="63.7,18 63.7,23.5 88.3,37.7 88.3,32.2 						"/>
					</g>
				</g>
				<g>
					<path class="st5" d="M82.9,23.7c3.3,0.9,7.2,0.9,10.6,0c11.2-3.2,11.2-9.4,0-12.6c-3.3-0.9-7.2-0.9-10.6,0
						C71.7,14.3,71.7,20.6,82.9,23.7z"/>
				</g>
				<g>
					
						<rect x="74.6" y="7.8" transform="matrix(-1 3.977473e-11 -3.977473e-11 -1 176.3684 25.2629)" class="st5" width="27.1" height="9.6"/>
				</g>
				<g>
					<path class="st10" d="M82.9,14.1c3.3,0.9,7.2,0.9,10.6,0c11.2-3.2,11.2-9.4,0-12.6c-3.3-0.9-7.2-0.9-10.6,0
						C71.7,4.7,71.7,10.9,82.9,14.1z"/>
				</g>
				<g>
					<path class="st11" d="M84.4,12.5c2.4,0.6,5.1,0.6,7.5,0c9-2.4,9-6.9,0-9.3c-2.4-0.6-5.1-0.6-7.5,0C75.4,5.6,75.4,10,84.4,12.5z
						"/>
				</g>
				<g>
					<g>
						<polygon class="st5" points="106.4,15.6 102.8,13.6 102.8,16 106.4,18.1 						"/>
					</g>
					<g>
						<polygon class="st10" points="106.1,11.7 109.6,13.7 109.6,13.7 112.9,15.6 106.2,19.5 102.9,17.6 106.4,15.6 102.8,13.6 
													"/>
					</g>
					<g>
						<polygon class="st10" points="84.8,24 88.3,26 91.8,24 95,25.9 88.3,29.7 88.2,29.7 88.2,29.7 86.2,28.5 85.1,27.9 85.1,27.9 
							81.6,25.8 						"/>
					</g>
					<g>
						<g>
							<polygon class="st5" points="70.4,15.4 73.7,13.6 73.7,16.1 70.4,17.9 							"/>
						</g>
						<g>
							<polygon class="st10" points="63.8,15.5 70.4,11.7 73.7,13.6 70.3,15.5 73.8,17.6 70.5,19.5 65.9,16.8 							"/>
						</g>
						<g>
							<polygon class="st5" points="63.8,18 63.8,15.5 70.5,19.5 70.5,22 							"/>
						</g>
						<g>
							<polygon class="st5" points="81.6,28.3 81.6,25.8 88.3,29.7 88.3,32.2 							"/>
						</g>
						<g>
							<polygon class="st3" points="95.1,28.3 95.1,25.8 88.3,29.7 88.3,32.2 							"/>
						</g>
						<g>
							<polygon class="st3" points="113,18 113,15.5 106.2,19.5 106.2,21.9 							"/>
						</g>
						<g>
							<polygon class="st3" points="70.5,19.5 73.8,17.6 73.8,20.1 70.5,22 							"/>
						</g>
						<g>
							<polygon class="st3" points="106.2,19.5 102.9,17.6 102.9,20.1 106.2,22 							"/>
						</g>
					</g>
				</g>
				<g>
					<g>
						<polygon class="st3" points="85,41.1 85,57.2 45.1,80.2 45.1,64.2 						"/>
					</g>
					<g>
						<polygon class="st12" points="67.2,30.8 85,41.1 45.1,64.2 27.3,53.8 						"/>
					</g>
					<g>
						<g>
							<polygon class="st1" points="33.4,54.4 32.4,53.8 67.2,33.8 79.9,41.1 78.9,41.7 67.2,34.9 							"/>
						</g>
						<g>
							<polygon class="st11" points="33.4,54.4 67.2,34.9 78.9,41.7 45.1,61.2 							"/>
						</g>
					</g>
					<g>
						<polygon class="st8" points="45.1,80.2 45.1,64.2 27.3,53.8 27.3,69.9 						"/>
					</g>
					<g>
						<g>
							<polygon class="st8" points="63.2,38.2 63.2,41 70.2,45 70.2,42.2 							"/>
						</g>
						<g>
							<polygon class="st3" points="66.3,36.3 63.2,38.2 70.2,42.2 73.4,40.4 							"/>
						</g>
						<g>
							<polygon class="st3" points="70.2,45 70.2,42.2 73.4,40.4 73.4,43.2 							"/>
						</g>
					</g>
					<g>
						<g>
							<polygon class="st8" points="54.9,42.9 54.9,45.8 61.9,49.8 61.9,47 							"/>
						</g>
						<g>
							<polygon class="st3" points="58,41.1 54.9,42.9 61.9,47 65.1,45.2 							"/>
						</g>
						<g>
							<polygon class="st3" points="61.9,49.8 61.9,47 65.1,45.2 65.1,48 							"/>
						</g>
					</g>
					<g>
						<g>
							<polygon class="st8" points="46.6,47.7 46.6,50.5 53.6,54.6 53.6,51.8 							"/>
						</g>
						<g>
							<polygon class="st3" points="49.7,45.9 46.6,47.7 53.6,51.8 56.8,50 							"/>
						</g>
						<g>
							<polygon class="st3" points="53.6,54.6 53.6,51.8 56.8,50 56.8,52.8 							"/>
						</g>
					</g>
					<g>
						<g>
							<polygon class="st8" points="38.3,52.5 38.3,55.3 45.3,59.4 45.3,56.6 							"/>
						</g>
						<g>
							<polygon class="st3" points="41.4,50.7 38.3,52.5 45.3,56.6 48.4,54.7 							"/>
						</g>
						<g>
							<polygon class="st3" points="45.3,59.4 45.3,56.6 48.4,54.7 48.4,57.6 							"/>
						</g>
					</g>
					<g>
						<polygon class="st3" points="83.9,52 83.9,64.5 57.9,79.5 57.9,67 						"/>
					</g>
					<g>
						<linearGradient id="SVGID_2_" gradientUnits="userSpaceOnUse" x1="57.8961" y1="65.7716" x2="83.9174" y2="65.7716">
							<stop  offset="0" style="stop-color:#B3B3B3;stop-opacity:0.335"/>
							<stop  offset="7.406294e-02" style="stop-color:#B3B3B3;stop-opacity:0.3176"/>
							<stop  offset="1" style="stop-color:#B3B3B3;stop-opacity:0.1"/>
						</linearGradient>
						<polygon class="st13" points="83.9,52 83.9,64.5 57.9,79.5 57.9,67 						"/>
					</g>
					<g>
						<g>
							<polygon class="st10" points="78.2,59.7 79.8,58.8 79.8,67 78.2,67.9 							"/>
						</g>
						<g>
							<polygon class="st10" points="74.1,62 75.7,61.1 75.7,69.3 74.1,70.2 							"/>
						</g>
						<g>
							<polygon class="st10" points="70,64.3 71.6,63.4 71.6,71.7 70,72.5 							"/>
						</g>
						<g>
							<polygon class="st10" points="65.9,66.7 67.5,65.8 67.5,74 65.9,74.9 							"/>
						</g>
						<g>
							<polygon class="st10" points="61.8,69 63.3,68.1 63.3,76.3 61.8,77.2 							"/>
						</g>
					</g>
					<g>
						<polygon class="st10" points="78.1,48.6 83.9,52 57.9,67 52.1,63.7 						"/>
					</g>
					<g>
						<polygon class="st8" points="52.1,63.7 52.1,76.2 57.9,79.5 57.9,67 						"/>
					</g>
					<g>
						<polygon class="st8" points="54.1,62.5 53.5,62.8 59.4,66.2 60,65.8 						"/>
					</g>
					<g>
						<polygon class="st8" points="57.4,60.6 56.8,61 62.6,64.3 63.2,64 						"/>
					</g>
					<g>
						<polygon class="st8" points="60.6,58.8 60,59.1 65.8,62.5 66.4,62.1 						"/>
					</g>
					<g>
						<polygon class="st8" points="63.8,56.9 63.2,57.2 69,60.6 69.6,60.3 						"/>
					</g>
					<g>
						<polygon class="st8" points="67,55 66.4,55.4 72.2,58.8 72.8,58.4 						"/>
					</g>
					<g>
						<polygon class="st8" points="70.2,53.2 69.6,53.5 75.4,56.9 76,56.6 						"/>
					</g>
					<g>
						<polygon class="st8" points="73.4,51.3 72.8,51.7 78.6,55 79.2,54.7 						"/>
					</g>
					<g>
						<polygon class="st8" points="76.6,49.5 76,49.8 81.9,53.2 82.5,52.8 						"/>
					</g>
				</g>
			</g>
		</g>
	</g>
	<g>
		<path class="st2" d="M65.1,91.7l1.6-0.5l0-1l1.5-0.3l-1-1l-1.8,0.1l0.4-0.6l-1.6-1.5L62.6,87l-0.4-0.6l-1.8-0.2l-1.1,1.2l-1.4,0.2
			l-0.7-0.5L55,87.6L54.9,89l-1.2,0.1l-0.7,1.1l2.8,0.5l-0.3,1l1.2,1l1.3,0.6l1.5-0.6l1.1,0.5l2.7-0.4L65.1,91.7z"/>
		<g>
			<polygon class="st14" points="64,91.5 64.8,75.5 65,91.6 			"/>
			<polygon class="st14" points="64.1,87.8 62.2,82.6 64.8,87.5 			"/>
			<polygon class="st15" points="60,83.5 58.4,81.2 59,79.8 57.4,78.8 58.2,77.1 59.7,75.4 61.7,75 61.9,72 64.2,72 64.7,73.1 
				67.4,72.3 69.2,74 68.5,75 69.3,76.2 71.9,76.5 72,78.4 70.9,79.2 71.9,80.5 69.6,83 68.4,83 69.1,84.6 67.4,86.2 66.3,85 
				64.5,85.7 63,84.4 			"/>
			<g>
				<polygon class="st15" points="64.3,74.3 63.1,73.1 63.5,72 61.9,72 61.7,75 63.9,75.6 				"/>
				<polygon class="st0" points="64.9,82.7 63,83.2 62.7,81.9 61.1,81.5 60.9,80 63.2,80.1 63.8,79.2 63.1,77.3 62,77.9 60.9,76.9 
					61.7,75 59.7,75.4 58.2,77.1 57.4,78.8 59,79.8 58.4,81.2 60,83.5 63,84.4 64.5,85.7 66.3,85 67.4,86.2 66.9,83.6 				"/>
			</g>
		</g>
	</g>
	<g>
		<g>
			<path class="st2" d="M118.6,57.2l1.3-0.4l0-0.8l1.2-0.3l-0.8-0.8l-1.4,0l0.3-0.5l-1.2-1.2l-1.3,0.2l-0.3-0.5l-1.5-0.2l-0.9,0.9
				l-1.1,0.2l-0.5-0.4l-1.8,0.4l-0.1,1.1l-1,0.1L109,56l2.2,0.4l-0.2,0.8l0.9,0.8l1,0.5l1.2-0.5l0.8,0.4l2.1-0.3L118.6,57.2z"/>
			<g>
				<polygon class="st14" points="117.8,57.1 118.4,44.3 118.6,57.2 				"/>
				<polygon class="st14" points="117.9,54.1 116.4,50 118.4,53.9 				"/>
				<polygon class="st15" points="114.6,50.7 113.3,48.9 113.9,47.8 112.6,46.9 113.2,45.6 114.4,44.2 116,43.9 116.1,41.6 
					117.9,41.6 118.4,42.4 120.5,41.8 121.9,43.2 121.4,43.9 122,44.9 124.1,45.1 124.2,46.6 123.3,47.3 124.1,48.3 122.2,50.3 
					121.3,50.3 121.8,51.6 120.5,52.8 119.7,51.9 118.2,52.4 117,51.4 				"/>
				<g>
					<polygon class="st15" points="118.1,43.4 117.1,42.4 117.4,41.6 116.1,41.6 116,43.9 117.7,44.5 					"/>
					<polygon class="st0" points="118.5,50 117,50.5 116.8,49.4 115.5,49.1 115.4,47.9 117.2,48 117.6,47.3 117.1,45.7 116.2,46.3 
						115.4,45.4 116,43.9 114.4,44.2 113.2,45.6 112.6,46.9 113.9,47.8 113.3,48.9 114.6,50.7 117,51.4 118.2,52.4 119.7,51.9 
						120.5,52.8 120.1,50.8 					"/>
				</g>
			</g>
		</g>
		<g>
			<g>
				<polygon class="st15" points="114.5,46 113.6,44.6 114,43.8 113,43.1 113.5,42.2 114.4,41.1 115.6,40.9 115.7,39.1 117.1,39.1 
					117.4,39.7 119,39.2 120.1,40.3 119.7,40.9 120.1,41.6 121.7,41.8 121.8,42.9 121.1,43.4 121.7,44.2 120.3,45.6 119.6,45.6 
					120,46.6 119,47.6 118.4,46.9 117.2,47.3 116.3,46.5 				"/>
				<g>
					<polyline class="st0" points="115.6,40.9 116.9,41.3 117.1,40.5 116.4,39.7 116.7,39.1 115.7,39.1 					"/>
					<polygon class="st0" points="117.5,45.5 116.3,45.8 116.2,45 115.2,44.8 115.1,43.9 116.5,43.9 116.8,43.4 116.4,42.2 
						115.8,42.6 115.1,42 115.6,40.9 114.4,41.1 113.5,42.2 113,43.1 114,43.8 113.6,44.6 114.5,46 116.3,46.5 117.2,47.3 
						118.4,46.9 119,47.6 118.7,46.1 					"/>
				</g>
			</g>
		</g>
		<g>
			<g>
				<polygon class="st15" points="115.7,38.5 115.7,39.8 116.3,40.1 116,40.9 116.7,41.4 117.7,41.7 118.5,41.4 119.3,42.5 
					120.1,42 120.1,41.5 121.3,41.2 121.5,40.1 121,39.8 121,39.2 121.9,38.5 121.4,37.7 120.8,37.6 120.8,36.9 119.4,36.5 
					119,36.7 118.8,35.9 117.8,35.7 117.7,36.4 116.8,36.6 116.6,37.4 				"/>
				<g>
					<polygon class="st0" points="117.7,37.7 116.9,37.9 117.1,38.5 116.6,39 117,39.6 117.8,39 118.2,39.3 118.4,40.2 117.9,40.2 
						117.7,40.9 118.5,41.4 117.7,41.7 116.7,41.4 116,40.9 116.3,40.1 115.7,39.8 115.7,38.5 116.6,37.4 116.8,36.6 117.7,36.4 
						117.8,35.7 118.2,36.8 					"/>
				</g>
			</g>
		</g>
	</g>
</g>
</svg>
