<?xml version="1.0" encoding="utf-8"?>
<!-- Generator: Adobe Illustrator 21.1.0, SVG Export Plug-In . SVG Version: 6.00 Build 0)  -->
<svg version="1.1" id="Слой_1" xmlns="http://www.w3.org/2000/svg" xmlns:xlink="http://www.w3.org/1999/xlink" x="0px" y="0px"
	 viewBox="0 0 237 140" style="enable-background:new 0 0 237 140;" xml:space="preserve">
<style type="text/css">
	.st0{fill:#A48A42;}
	.st1{fill:#346F2E;}
	.st2{fill:#D1D1CD;}
	.st3{fill:#A19C95;}
	.st4{fill:#FFFFFF;}
	.st5{fill:#707070;}
	.st6{fill:url(#SVGID_1_);}
	.st7{fill:url(#SVGID_2_);}
	.st8{fill:#55B9B1;}
	.st9{fill:#CFCFCB;}
	.st10{fill:url(#SVGID_3_);}
	.st11{fill:url(#SVGID_4_);}
	.st12{fill:url(#SVGID_5_);}
	.st13{fill:url(#SVGID_6_);}
	.st14{fill:url(#SVGID_7_);}
	.st15{fill:url(#SVGID_8_);}
	.st16{fill:url(#SVGID_9_);}
	.st17{fill:url(#SVGID_10_);}
	.st18{fill:url(#SVGID_11_);}
	.st19{fill:url(#SVGID_12_);}
	.st20{fill:url(#SVGID_13_);}
	.st21{fill:url(#SVGID_14_);}
	.st22{fill:url(#SVGID_15_);}
	.st23{fill:url(#SVGID_16_);}
	.st24{fill:url(#SVGID_17_);}
	.st25{fill:url(#SVGID_18_);}
	.st26{fill:url(#SVGID_19_);}
	.st27{fill:url(#SVGID_20_);}
	.st28{fill:url(#SVGID_21_);}
	.st29{fill:url(#SVGID_22_);}
	.st30{fill:url(#SVGID_23_);}
	.st31{fill:url(#SVGID_24_);}
	.st32{fill:url(#SVGID_25_);}
	.st33{fill:url(#SVGID_26_);}
	.st34{fill:url(#SVGID_27_);}
	.st35{fill:url(#SVGID_28_);}
	.st36{fill:url(#SVGID_29_);}
	.st37{fill:url(#SVGID_30_);}
	.st38{fill:url(#SVGID_31_);}
	.st39{fill:url(#SVGID_32_);stroke:#FFFFFF;stroke-miterlimit:10;}
	.st40{fill:url(#SVGID_33_);}
	.st41{fill:url(#SVGID_34_);stroke:#FFFFFF;stroke-miterlimit:10;}
	.st42{fill:url(#SVGID_35_);}
	.st43{fill:none;stroke:#FFFFFF;stroke-miterlimit:10;}
	.st44{fill:url(#SVGID_36_);stroke:#FFFFFF;stroke-miterlimit:10;}
	.st45{fill:url(#SVGID_37_);}
	.st46{fill:url(#SVGID_38_);stroke:#FFFFFF;stroke-miterlimit:10;}
	.st47{fill:url(#SVGID_39_);stroke:#FFFFFF;stroke-miterlimit:10;}
	.st48{fill:url(#SVGID_40_);}
	.st49{fill:url(#SVGID_41_);stroke:#FFFFFF;stroke-miterlimit:10;}
	.st50{fill:#4F4F4F;}
	.st51{fill:url(#SVGID_42_);}
	.st52{fill:url(#SVGID_43_);}
	.st53{fill:none;stroke:#9F9A93;stroke-width:0.25;stroke-linecap:round;stroke-miterlimit:10;}
	.st54{fill:#57352F;}
	.st55{fill:#568E48;}
</style>
<g>
	<g>
		<path class="st0" d="M230.6,79.8L132,136.2c-7.2,4.1-18,4.6-24.2,1L5.4,77.9c-6.2-3.6-5.4-9.8,1.7-14l98.6-56.4
			c7.2-4.1,18-4.6,24.2-1l102.4,59.3C238.5,69.4,237.8,75.7,230.6,79.8z"/>
		<path class="st1" d="M232.3,65.8l-10-5.8v24.5l8.2-4.7C237.8,75.7,238.5,69.4,232.3,65.8z"/>
		<path class="st2" d="M230.6,76.8L132,133.2c-7.2,4.1-18,4.6-24.2,1L5.4,74.9c-6.2-3.6-5.4-9.8,1.7-14l98.6-56.4
			c7.2-4.1,18-4.6,24.2-1l102.4,59.3C238.5,66.4,237.8,72.7,230.6,76.8z"/>
	</g>
	<g>
		<g>
			<path class="st3" d="M147.9,35.8l21.1,11.9c1.3,0.8,1.3,2.6,0,3.4l-24,14.1c-1.7,1-3.8,1.1-5.6,0l-18.5-11.6
				c-1.3-0.8-1.3-2.7,0-3.4L147.9,35.8z"/>
			<g>
				<g>
					<g>
						<polygon class="st4" points="121.8,40.4 147.4,25.7 168.1,38 168.1,49.3 142.4,64 121.8,51.7 						"/>
						<polygon class="st5" points="121.8,40.4 147.4,25.7 168.1,38 168.1,39.3 142.4,54 121.8,41.7 						"/>
					</g>
					
						<linearGradient id="SVGID_1_" gradientUnits="userSpaceOnUse" x1="5838.1494" y1="62.8266" x2="5832.5918" y2="23.575" gradientTransform="matrix(-1 0 0 1 5991.6787 0)">
						<stop  offset="0" style="stop-color:#B1B1B1;stop-opacity:0.335"/>
						<stop  offset="7.406294e-02" style="stop-color:#B1B1B1;stop-opacity:0.3176"/>
						<stop  offset="1" style="stop-color:#B1B1B1;stop-opacity:0.1"/>
					</linearGradient>
					<path class="st6" d="M142.3,64.2v-11l25.8-15v11.2"/>
					
						<linearGradient id="SVGID_2_" gradientUnits="userSpaceOnUse" x1="-5225.2422" y1="48.1076" x2="-5235.7969" y2="55.8064" gradientTransform="matrix(1 0 0 1 5363.2065 0)">
						<stop  offset="0" style="stop-color:#B1B1B1;stop-opacity:0.7896"/>
						<stop  offset="1" style="stop-color:#B1B1B1;stop-opacity:0.335"/>
					</linearGradient>
					<path class="st7" d="M121.7,51.8V40.6l20.8,12.5v11"/>
				</g>
				<g>
					<path class="st8" d="M142.4,57.9v-1.6L168,41.8v1.6L142.4,57.9z"/>
				</g>
				<g>
					<path class="st8" d="M142.4,61.2v-1.6L168,45.2v1.6L142.4,61.2z"/>
				</g>
				<g>
					<path class="st8" d="M121.7,45.7v-1.6l20.7,12.1v1.6L121.7,45.7z"/>
				</g>
				<g>
					<path class="st8" d="M121.7,49.1v-1.6l20.7,12.1v1.6L121.7,49.1z"/>
				</g>
			</g>
			<g>
				<g>
					<g>
						<polygon class="st4" points="153.4,36.5 156.5,34.8 157.8,35.5 157.8,36.9 154.8,38.6 153.4,37.9 						"/>
						<polygon class="st9" points="157.3,35.5 156.5,35 153.9,36.5 154.8,37 						"/>
					</g>
					
						<linearGradient id="SVGID_3_" gradientUnits="userSpaceOnUse" x1="5835.5835" y1="38.4813" x2="5834.9224" y2="33.8142" gradientTransform="matrix(-1 0 0 1 5991.6787 0)">
						<stop  offset="0" style="stop-color:#B1B1B1;stop-opacity:0.7896"/>
						<stop  offset="1" style="stop-color:#B1B1B1;stop-opacity:0.335"/>
					</linearGradient>
					<path class="st10" d="M154.8,38.6v-1.3l3.1-1.8v1.3"/>
					
						<linearGradient id="SVGID_4_" gradientUnits="userSpaceOnUse" x1="-5208.5869" y1="37.2247" x2="-5209.5083" y2="37.8966" gradientTransform="matrix(1 0 0 1 5363.2065 0)">
						<stop  offset="0" style="stop-color:#B1B1B1;stop-opacity:0.335"/>
						<stop  offset="7.406294e-02" style="stop-color:#B1B1B1;stop-opacity:0.3176"/>
						<stop  offset="1" style="stop-color:#B1B1B1;stop-opacity:0.1"/>
					</linearGradient>
					<path class="st11" d="M153.4,37.9v-1.3l1.4,0.8v1.3"/>
				</g>
			</g>
			<g>
				<g>
					<g>
						<polygon class="st4" points="144,41.5 145.5,40.7 146.9,41.5 146.9,42.9 145.5,43.7 144,42.9 						"/>
					</g>
					
						<linearGradient id="SVGID_5_" gradientUnits="userSpaceOnUse" x1="5845.6499" y1="43.5609" x2="5845.2002" y2="40.3875" gradientTransform="matrix(-1 0 0 1 5991.6787 0)">
						<stop  offset="0" style="stop-color:#B1B1B1;stop-opacity:0.7896"/>
						<stop  offset="1" style="stop-color:#B1B1B1;stop-opacity:0.335"/>
					</linearGradient>
					<path class="st12" d="M145.4,43.7v-1.4l1.4-0.8v1.4"/>
					
						<linearGradient id="SVGID_6_" gradientUnits="userSpaceOnUse" x1="-5217.9189" y1="42.2129" x2="-5218.895" y2="42.925" gradientTransform="matrix(1 0 0 1 5363.2065 0)">
						<stop  offset="0" style="stop-color:#B1B1B1;stop-opacity:0.335"/>
						<stop  offset="7.406294e-02" style="stop-color:#B1B1B1;stop-opacity:0.3176"/>
						<stop  offset="1" style="stop-color:#B1B1B1;stop-opacity:0.1"/>
					</linearGradient>
					<path class="st13" d="M144,42.9v-1.4l1.4,0.8v1.4"/>
				</g>
			</g>
			<g>
				<g>
					<g>
						<polygon class="st4" points="159,38.1 160.4,37.3 161.8,38.1 161.8,39.5 160.4,40.3 159,39.5 						"/>
					</g>
					
						<linearGradient id="SVGID_7_" gradientUnits="userSpaceOnUse" x1="5830.6982" y1="40.1436" x2="5830.249" y2="36.9701" gradientTransform="matrix(-1 0 0 1 5991.6787 0)">
						<stop  offset="0" style="stop-color:#B1B1B1;stop-opacity:0.7896"/>
						<stop  offset="1" style="stop-color:#B1B1B1;stop-opacity:0.335"/>
					</linearGradient>
					<path class="st14" d="M160.4,40.3v-1.4l1.4-0.8v1.4"/>
					
						<linearGradient id="SVGID_8_" gradientUnits="userSpaceOnUse" x1="-5202.9673" y1="38.7956" x2="-5203.9438" y2="39.5076" gradientTransform="matrix(1 0 0 1 5363.2065 0)">
						<stop  offset="0" style="stop-color:#B1B1B1;stop-opacity:0.335"/>
						<stop  offset="7.406294e-02" style="stop-color:#B1B1B1;stop-opacity:0.3176"/>
						<stop  offset="1" style="stop-color:#B1B1B1;stop-opacity:0.1"/>
					</linearGradient>
					<path class="st15" d="M159,39.5v-1.4l1.4,0.8v1.4"/>
				</g>
			</g>
			<g>
				<g>
					<g>
						<polygon class="st4" points="133.1,43 134.6,42.2 136,43 136,44.4 134.5,45.2 133.1,44.4 						"/>
					</g>
					
						<linearGradient id="SVGID_9_" gradientUnits="userSpaceOnUse" x1="5856.5601" y1="45.0425" x2="5856.1104" y2="41.869" gradientTransform="matrix(-1 0 0 1 5991.6787 0)">
						<stop  offset="0" style="stop-color:#B1B1B1;stop-opacity:0.7896"/>
						<stop  offset="1" style="stop-color:#B1B1B1;stop-opacity:0.335"/>
					</linearGradient>
					<path class="st16" d="M134.5,45.2v-1.4L136,43v1.4"/>
					
						<linearGradient id="SVGID_10_" gradientUnits="userSpaceOnUse" x1="-5228.8291" y1="43.6945" x2="-5229.8052" y2="44.4065" gradientTransform="matrix(1 0 0 1 5363.2065 0)">
						<stop  offset="0" style="stop-color:#B1B1B1;stop-opacity:0.335"/>
						<stop  offset="7.406294e-02" style="stop-color:#B1B1B1;stop-opacity:0.3176"/>
						<stop  offset="1" style="stop-color:#B1B1B1;stop-opacity:0.1"/>
					</linearGradient>
					<path class="st17" d="M133.1,44.4V43l1.4,0.8v1.4"/>
				</g>
			</g>
			<g>
				<g>
					<g>
						<polygon class="st4" points="138.1,40.1 141.4,38.2 142.8,39.1 142.8,40.5 139.6,42.3 138.1,41.5 						"/>
						<polygon class="st9" points="142.3,39.1 141.4,38.5 138.7,40.1 139.6,40.6 						"/>
					</g>
					
						<linearGradient id="SVGID_11_" gradientUnits="userSpaceOnUse" x1="5850.7241" y1="42.1779" x2="5850.0239" y2="37.2318" gradientTransform="matrix(-1 0 0 1 5991.6787 0)">
						<stop  offset="0" style="stop-color:#B1B1B1;stop-opacity:0.7896"/>
						<stop  offset="1" style="stop-color:#B1B1B1;stop-opacity:0.335"/>
					</linearGradient>
					<path class="st18" d="M139.5,42.3V41l3.2-1.9v1.4"/>
					
						<linearGradient id="SVGID_12_" gradientUnits="userSpaceOnUse" x1="-5223.8164" y1="40.8463" x2="-5224.7925" y2="41.5583" gradientTransform="matrix(1 0 0 1 5363.2065 0)">
						<stop  offset="0" style="stop-color:#B1B1B1;stop-opacity:0.335"/>
						<stop  offset="7.406294e-02" style="stop-color:#B1B1B1;stop-opacity:0.3176"/>
						<stop  offset="1" style="stop-color:#B1B1B1;stop-opacity:0.1"/>
					</linearGradient>
					<path class="st19" d="M138.1,41.5v-1.4l1.4,0.8v1.4"/>
				</g>
			</g>
			<g>
				<g>
					<g>
						<polygon class="st4" points="154.5,32.9 153,32.1 151.6,32.9 151.6,34.3 153.1,35.1 154.5,34.3 						"/>
					</g>
					
						<linearGradient id="SVGID_13_" gradientUnits="userSpaceOnUse" x1="-2349.5574" y1="35.0009" x2="-2350.0066" y2="31.8275" gradientTransform="matrix(1 0 0 1 2502.0354 0)">
						<stop  offset="0" style="stop-color:#B1B1B1;stop-opacity:0.7896"/>
						<stop  offset="1" style="stop-color:#B1B1B1;stop-opacity:0.335"/>
					</linearGradient>
					<path class="st20" d="M151.6,34.4V33l1.4,0.8v1.4"/>
					
						<linearGradient id="SVGID_14_" gradientUnits="userSpaceOnUse" x1="2977.2881" y1="33.6529" x2="2976.312" y2="34.365" gradientTransform="matrix(-1 0 0 1 3130.5078 0)">
						<stop  offset="0" style="stop-color:#B1B1B1;stop-opacity:0.335"/>
						<stop  offset="7.406294e-02" style="stop-color:#B1B1B1;stop-opacity:0.3176"/>
						<stop  offset="1" style="stop-color:#B1B1B1;stop-opacity:0.1"/>
					</linearGradient>
					<path class="st21" d="M153,35.2v-1.4l1.4-0.8v1.4"/>
				</g>
			</g>
			<g>
				<g>
					<g>
						<polygon class="st4" points="150.5,31.1 147.3,29.2 145.8,30 145.8,31.4 149.1,33.3 150.5,32.5 						"/>
						<polygon class="st4" points="146.3,30 147.3,29.5 150,31.1 149.1,31.6 						"/>
					</g>
					
						<linearGradient id="SVGID_15_" gradientUnits="userSpaceOnUse" x1="-2354.3726" y1="33.1261" x2="-2355.0728" y2="28.1799" gradientTransform="matrix(1 0 0 1 2502.0354 0)">
						<stop  offset="0" style="stop-color:#B1B1B1;stop-opacity:0.7896"/>
						<stop  offset="1" style="stop-color:#B1B1B1;stop-opacity:0.335"/>
					</linearGradient>
					<path class="st22" d="M145.8,31.4V30l3.2,1.9v1.4"/>
					
						<linearGradient id="SVGID_16_" gradientUnits="userSpaceOnUse" x1="2981.2805" y1="31.7944" x2="2980.3044" y2="32.5065" gradientTransform="matrix(-1 0 0 1 3130.5078 0)">
						<stop  offset="0" style="stop-color:#B1B1B1;stop-opacity:0.335"/>
						<stop  offset="7.406294e-02" style="stop-color:#B1B1B1;stop-opacity:0.3176"/>
						<stop  offset="1" style="stop-color:#B1B1B1;stop-opacity:0.1"/>
					</linearGradient>
					<path class="st23" d="M149.1,33.3v-1.4l1.4-0.8v1.4"/>
				</g>
			</g>
		</g>
		<g>
			<g>
				<path class="st3" d="M63.2,56.8c-0.5,0.4-0.8,1-0.8,1.6c0,0.7,0.4,1.4,1,1.7l13.7,8c1.1,0.6,2.4,0.6,3.5,0l29.8-17.3
					c1.4-0.8,1.4-2.9,0-3.7l-15.2-8.9L63.2,56.8z"/>
			</g>
			<g>
				<g>
					<g>
						<polygon class="st4" points="66.7,46.4 94.7,30.1 107,37.2 107,49.4 79,65.7 66.7,58.6 						"/>
						<polygon class="st5" points="66.7,46.4 94.7,30.1 107,37.2 107,38.2 79,54.6 66.7,47.5 						"/>
						<polygon class="st4" points="102.6,37.2 94.7,32.6 71.1,46.4 79,51 						"/>
						
							<linearGradient id="SVGID_17_" gradientUnits="userSpaceOnUse" x1="3324.1746" y1="39.8201" x2="3379.8767" y2="39.8201" gradientTransform="matrix(-1 0 0 1 3428.4727 0)">
							<stop  offset="0" style="stop-color:#898989;stop-opacity:0.3"/>
							<stop  offset="0.3609" style="stop-color:#818181;stop-opacity:0.4083"/>
							<stop  offset="1" style="stop-color:#767676;stop-opacity:0.6"/>
						</linearGradient>
						<polygon class="st24" points="101.7,37.8 94.7,33.7 71.9,47 71.1,46.4 94.7,32.7 102.5,37.2 						"/>
					</g>
					
						<linearGradient id="SVGID_18_" gradientUnits="userSpaceOnUse" x1="3337.3293" y1="64.3592" x2="3331.2324" y2="21.3004" gradientTransform="matrix(-1 0 0 1 3428.4727 0)">
						<stop  offset="0" style="stop-color:#B1B1B1;stop-opacity:0.335"/>
						<stop  offset="7.406294e-02" style="stop-color:#B1B1B1;stop-opacity:0.3176"/>
						<stop  offset="1" style="stop-color:#B1B1B1;stop-opacity:0.1"/>
					</linearGradient>
					<path class="st25" d="M78.8,65.8v-12L107,37.3v12.1"/>
					
						<linearGradient id="SVGID_19_" gradientUnits="userSpaceOnUse" x1="-2722.48" y1="52.7502" x2="-2730.9788" y2="58.9493" gradientTransform="matrix(1 0 0 1 2800.0002 0)">
						<stop  offset="0" style="stop-color:#B1B1B1;stop-opacity:0.7896"/>
						<stop  offset="1" style="stop-color:#B1B1B1;stop-opacity:0.335"/>
					</linearGradient>
					<path class="st26" d="M66.5,58.6v-12L79,53.9v12"/>
				</g>
			</g>
			<g>
				<g>
					<g>
						<polygon class="st4" points="85.1,44.1 82.5,42.6 81.3,43.2 81.3,44.4 84,45.9 85.1,45.3 						"/>
					</g>
					
						<linearGradient id="SVGID_20_" gradientUnits="userSpaceOnUse" x1="-2735.3652" y1="45.7072" x2="-2735.9426" y2="41.6301" gradientTransform="matrix(1 0 0 1 2818.1743 0)">
						<stop  offset="0" style="stop-color:#B1B1B1;stop-opacity:0.335"/>
						<stop  offset="7.406294e-02" style="stop-color:#B1B1B1;stop-opacity:0.3176"/>
						<stop  offset="1" style="stop-color:#B1B1B1;stop-opacity:0.1"/>
					</linearGradient>
					<path class="st27" d="M81.3,44.4v-1.1l2.7,1.6v1.1"/>
					
						<linearGradient id="SVGID_21_" gradientUnits="userSpaceOnUse" x1="3362.6785" y1="44.5987" x2="3360.3669" y2="46.2849" gradientTransform="matrix(-1 0 0 1 3446.6465 0)">
						<stop  offset="0" style="stop-color:#B1B1B1;stop-opacity:0.7896"/>
						<stop  offset="1" style="stop-color:#B1B1B1;stop-opacity:0.335"/>
					</linearGradient>
					<path class="st28" d="M84,45.9v-1.1l1.2-0.7v1.1"/>
				</g>
			</g>
			<g>
				<g>
					<g>
						<polygon class="st4" points="92.2,38.7 87.5,36 85.5,37.2 85.5,39.2 90.1,41.9 92.2,40.7 						"/>
					</g>
					
						<linearGradient id="SVGID_22_" gradientUnits="userSpaceOnUse" x1="-2730.0671" y1="41.4633" x2="-2731.0718" y2="34.3692" gradientTransform="matrix(1 0 0 1 2818.1743 0)">
						<stop  offset="0" style="stop-color:#B1B1B1;stop-opacity:0.335"/>
						<stop  offset="7.406294e-02" style="stop-color:#B1B1B1;stop-opacity:0.3176"/>
						<stop  offset="1" style="stop-color:#B1B1B1;stop-opacity:0.1"/>
					</linearGradient>
					<path class="st29" d="M85.5,39.2v-2l4.6,2.7v2"/>
					
						<linearGradient id="SVGID_23_" gradientUnits="userSpaceOnUse" x1="3356.5227" y1="39.5346" x2="3352.5005" y2="42.4685" gradientTransform="matrix(-1 0 0 1 3446.6465 0)">
						<stop  offset="0" style="stop-color:#B1B1B1;stop-opacity:0.7896"/>
						<stop  offset="1" style="stop-color:#B1B1B1;stop-opacity:0.335"/>
					</linearGradient>
					<path class="st30" d="M90.1,41.9v-2l2.1-1.2v2"/>
				</g>
			</g>
			<polygon class="st8" points="79,57.1 107.1,40.6 107.1,38.1 79,54.6 			"/>
			<polygon class="st8" points="79,57.1 66.7,49.9 66.7,47.5 79,54.6 			"/>
		</g>
		<g>
			<g>
				<path class="st3" d="M105,95.9c0.5,0.4,0.8,1,0.8,1.6c0,0.7-0.4,1.4-1,1.7l-13.7,8c-1.1,0.6-2.4,0.6-3.5,0L57.9,89.9
					c-1.4-0.8-1.4-2.9,0-3.7L73,77.3L105,95.9z"/>
			</g>
			<g>
				<g>
					<g>
						<polygon class="st4" points="101.5,85.5 73.4,69.2 61.1,76.3 61.1,88.5 89.1,104.8 101.5,97.7 						"/>
						<polygon class="st5" points="101.5,85.5 73.4,69.2 61.1,76.3 61.1,77.3 89.1,93.7 101.5,86.6 						"/>
						<polygon class="st4" points="65.5,76.3 73.4,71.7 97,85.5 89.1,90.1 						"/>
						
							<linearGradient id="SVGID_24_" gradientUnits="userSpaceOnUse" x1="2843.8118" y1="78.919" x2="2899.5139" y2="78.919" gradientTransform="matrix(1 0 0 1 -2779.9724 0)">
							<stop  offset="0" style="stop-color:#898989;stop-opacity:0.3"/>
							<stop  offset="0.3609" style="stop-color:#818181;stop-opacity:0.4083"/>
							<stop  offset="1" style="stop-color:#767676;stop-opacity:0.6"/>
						</linearGradient>
						<polygon class="st31" points="66.4,76.9 73.5,72.8 96.2,86.1 97,85.5 73.4,71.8 65.6,76.3 						"/>
					</g>
					
						<linearGradient id="SVGID_25_" gradientUnits="userSpaceOnUse" x1="2856.9663" y1="103.4581" x2="2850.8696" y2="60.3993" gradientTransform="matrix(1 0 0 1 -2779.9724 0)">
						<stop  offset="0" style="stop-color:#B1B1B1;stop-opacity:0.7896"/>
						<stop  offset="1" style="stop-color:#B1B1B1;stop-opacity:0.335"/>
					</linearGradient>
					<path class="st32" d="M61.1,88.5V76.4L89.3,93v12"/>
					
						<linearGradient id="SVGID_26_" gradientUnits="userSpaceOnUse" x1="-2242.1172" y1="91.8491" x2="-2250.6157" y2="98.0482" gradientTransform="matrix(-1 0 0 1 -2151.5 0)">
						<stop  offset="0" style="stop-color:#B1B1B1;stop-opacity:0.335"/>
						<stop  offset="7.406294e-02" style="stop-color:#B1B1B1;stop-opacity:0.3176"/>
						<stop  offset="1" style="stop-color:#B1B1B1;stop-opacity:0.1"/>
					</linearGradient>
					<path class="st33" d="M89.1,104.9V93l12.5-7.3v12"/>
				</g>
			</g>
			<g>
				<g>
					<g>
						<polygon class="st4" points="83,83.2 85.7,81.7 86.8,82.3 86.8,83.5 84.2,85 83,84.4 						"/>
					</g>
					
						<linearGradient id="SVGID_27_" gradientUnits="userSpaceOnUse" x1="-2255.0024" y1="84.8061" x2="-2255.5798" y2="80.729" gradientTransform="matrix(-1 0 0 1 -2169.6741 0)">
						<stop  offset="0" style="stop-color:#B1B1B1;stop-opacity:0.335"/>
						<stop  offset="7.406294e-02" style="stop-color:#B1B1B1;stop-opacity:0.3176"/>
						<stop  offset="1" style="stop-color:#B1B1B1;stop-opacity:0.1"/>
					</linearGradient>
					<path class="st34" d="M84.2,85v-1.1l2.7-1.6v1.1"/>
					
						<linearGradient id="SVGID_28_" gradientUnits="userSpaceOnUse" x1="2882.3157" y1="83.6976" x2="2880.0042" y2="85.3838" gradientTransform="matrix(1 0 0 1 -2798.1462 0)">
						<stop  offset="0" style="stop-color:#B1B1B1;stop-opacity:0.7896"/>
						<stop  offset="1" style="stop-color:#B1B1B1;stop-opacity:0.335"/>
					</linearGradient>
					<path class="st35" d="M83,84.4v-1.1l1.2,0.7V85"/>
				</g>
			</g>
			<g>
				<g>
					<g>
						<polygon class="st4" points="76,77.8 80.6,75.1 82.6,76.2 82.6,78.3 78,81 76,79.8 						"/>
					</g>
					
						<linearGradient id="SVGID_29_" gradientUnits="userSpaceOnUse" x1="-2249.7043" y1="80.5622" x2="-2250.7087" y2="73.4682" gradientTransform="matrix(-1 0 0 1 -2169.6741 0)">
						<stop  offset="0" style="stop-color:#B1B1B1;stop-opacity:0.335"/>
						<stop  offset="7.406294e-02" style="stop-color:#B1B1B1;stop-opacity:0.3176"/>
						<stop  offset="1" style="stop-color:#B1B1B1;stop-opacity:0.1"/>
					</linearGradient>
					<path class="st36" d="M78,81v-2l4.6-2.7v2"/>
					
						<linearGradient id="SVGID_30_" gradientUnits="userSpaceOnUse" x1="2876.1599" y1="78.6336" x2="2872.1377" y2="81.5674" gradientTransform="matrix(1 0 0 1 -2798.1462 0)">
						<stop  offset="0" style="stop-color:#B1B1B1;stop-opacity:0.7896"/>
						<stop  offset="1" style="stop-color:#B1B1B1;stop-opacity:0.335"/>
					</linearGradient>
					<path class="st37" d="M76,79.8v-2L78,79v2"/>
				</g>
			</g>
			<polygon class="st8" points="89.2,96.2 61,79.7 61,77.2 89.2,93.7 			"/>
			<polygon class="st8" points="89.1,96.2 101.5,89 101.5,86.6 89.1,93.7 			"/>
		</g>
		<g>
			<ellipse class="st3" cx="113.1" cy="70.3" rx="21.3" ry="12.3"/>
			<g>
				<g>
					<g>
						<g>
							<path class="st4" d="M96.3,46.2v24c0,5.4,7.5,9.7,16.8,9.7c9.3,0,16.8-4.3,16.8-9.7v-24H96.3z"/>
							<g>
								<path class="st8" d="M96.3,53.4c0,5.4,7.5,9.7,16.8,9.7c9.3,0,16.8-4.3,16.8-9.7v-7.2H96.3V53.4z"/>
							</g>
							<linearGradient id="SVGID_31_" gradientUnits="userSpaceOnUse" x1="96.2615" y1="63.1158" x2="129.9059" y2="63.1158">
								<stop  offset="0.1166" style="stop-color:#B1B1B1"/>
								<stop  offset="0.1657" style="stop-color:#B1B1B1;stop-opacity:0.9259"/>
								<stop  offset="0.7801" style="stop-color:#B1B1B1;stop-opacity:0"/>
							</linearGradient>
							<path class="st38" d="M96.3,46.2v24c0,5.4,7.5,9.7,16.8,9.7c9.3,0,16.8-4.3,16.8-9.7v-24H96.3z"/>
							<ellipse class="st4" cx="113.1" cy="46.2" rx="16.8" ry="9.7"/>
							<linearGradient id="SVGID_32_" gradientUnits="userSpaceOnUse" x1="127.3564" y1="42.1118" x2="94.5947" y2="51.5884">
								<stop  offset="0.5021" style="stop-color:#B1B1B1"/>
								<stop  offset="1" style="stop-color:#707070"/>
							</linearGradient>
							<ellipse class="st39" cx="113.1" cy="46.2" rx="16.8" ry="9.7"/>
						</g>
					</g>
				</g>
				<g>
					<path class="st4" d="M94.3,41.4v5.9c0,6,8.4,10.9,18.8,10.9c10.4,0,18.8-4.9,18.8-10.9v-5.9H94.3z"/>
					<linearGradient id="SVGID_33_" gradientUnits="userSpaceOnUse" x1="94.2654" y1="49.7703" x2="131.9024" y2="49.7703">
						<stop  offset="0.1166" style="stop-color:#B1B1B1"/>
						<stop  offset="0.1657" style="stop-color:#B1B1B1;stop-opacity:0.9259"/>
						<stop  offset="0.7801" style="stop-color:#B1B1B1;stop-opacity:0"/>
					</linearGradient>
					<path class="st40" d="M94.3,41.4v5.9c0,6,8.4,10.9,18.8,10.9c10.4,0,18.8-4.9,18.8-10.9v-5.9H94.3z"/>
					<linearGradient id="SVGID_34_" gradientUnits="userSpaceOnUse" x1="129.0504" y1="36.7636" x2="92.4008" y2="47.3647">
						<stop  offset="0.5021" style="stop-color:#B1B1B1"/>
						<stop  offset="1" style="stop-color:#707070"/>
					</linearGradient>
					<ellipse class="st41" cx="113.1" cy="41.4" rx="18.8" ry="10.9"/>
				</g>
			</g>
			<g>
				<g>
					<g>
						<path class="st4" d="M113.1,27.1c-10.4,0-18.8,8.3-18.8,14.3c0,6,8.4,10.9,18.8,10.9c10.4,0,18.8-4.9,18.8-10.9
							C131.9,35.4,123.5,27.1,113.1,27.1z"/>
						<linearGradient id="SVGID_35_" gradientUnits="userSpaceOnUse" x1="94.2652" y1="39.6568" x2="131.9026" y2="39.6568">
							<stop  offset="0.1166" style="stop-color:#B1B1B1"/>
							<stop  offset="0.1657" style="stop-color:#B1B1B1;stop-opacity:0.9259"/>
							<stop  offset="0.7801" style="stop-color:#B1B1B1;stop-opacity:0"/>
						</linearGradient>
						<path class="st42" d="M113.1,27.1c-10.4,0-18.8,8.3-18.8,14.3c0,6,8.4,10.9,18.8,10.9c10.4,0,18.8-4.9,18.8-10.9
							C131.9,35.4,123.5,27.1,113.1,27.1z"/>
						<path class="st43" d="M113.1,27.1c-10.4,0-18.8,8.3-18.8,14.3c0,6,8.4,10.9,18.8,10.9c10.4,0,18.8-4.9,18.8-10.9
							C131.9,35.4,123.5,27.1,113.1,27.1z"/>
					</g>
				</g>
			</g>
			<g>
				<g>
					<linearGradient id="SVGID_36_" gradientUnits="userSpaceOnUse" x1="118.0637" y1="30.0323" x2="106.6331" y2="33.3386">
						<stop  offset="0.5021" style="stop-color:#B1B1B1"/>
						<stop  offset="1" style="stop-color:#707070"/>
					</linearGradient>
					<ellipse class="st44" cx="113.1" cy="31.5" rx="5.9" ry="3.7"/>
				</g>
				<path class="st4" d="M108.8,27.6v3.8c0,1.4,1.9,2.5,4.3,2.5c2.4,0,4.3-1.1,4.3-2.5v-3.8H108.8z"/>
				<linearGradient id="SVGID_37_" gradientUnits="userSpaceOnUse" x1="108.8277" y1="30.7888" x2="117.3402" y2="30.7888">
					<stop  offset="0.1166" style="stop-color:#B1B1B1"/>
					<stop  offset="0.1657" style="stop-color:#B1B1B1;stop-opacity:0.9259"/>
					<stop  offset="0.7801" style="stop-color:#B1B1B1;stop-opacity:0"/>
				</linearGradient>
				<path class="st45" d="M108.8,27.6v3.8c0,1.4,1.9,2.5,4.3,2.5c2.4,0,4.3-1.1,4.3-2.5v-3.8H108.8z"/>
				<linearGradient id="SVGID_38_" gradientUnits="userSpaceOnUse" x1="116.6951" y1="26.6029" x2="108.4059" y2="29.0006">
					<stop  offset="0.5021" style="stop-color:#B1B1B1"/>
					<stop  offset="1" style="stop-color:#707070"/>
				</linearGradient>
				<ellipse class="st46" cx="113.1" cy="27.6" rx="4.3" ry="2.5"/>
			</g>
			<g>
				<g>
					<linearGradient id="SVGID_39_" gradientUnits="userSpaceOnUse" x1="118.0635" y1="29.0322" x2="106.6329" y2="32.3386">
						<stop  offset="0.5021" style="stop-color:#B1B1B1"/>
						<stop  offset="1" style="stop-color:#707070"/>
					</linearGradient>
					<ellipse class="st47" cx="113.1" cy="30.5" rx="5.9" ry="3.7"/>
				</g>
				<path class="st4" d="M108.8,26.6v3.8c0,1.4,1.9,2.5,4.3,2.5c2.4,0,4.3-1.1,4.3-2.5v-3.8H108.8z"/>
				<linearGradient id="SVGID_40_" gradientUnits="userSpaceOnUse" x1="108.8275" y1="29.7887" x2="117.34" y2="29.7887">
					<stop  offset="0.1166" style="stop-color:#B1B1B1"/>
					<stop  offset="0.1657" style="stop-color:#B1B1B1;stop-opacity:0.9259"/>
					<stop  offset="0.7801" style="stop-color:#B1B1B1;stop-opacity:0"/>
				</linearGradient>
				<path class="st48" d="M108.8,26.6v3.8c0,1.4,1.9,2.5,4.3,2.5c2.4,0,4.3-1.1,4.3-2.5v-3.8H108.8z"/>
				<linearGradient id="SVGID_41_" gradientUnits="userSpaceOnUse" x1="116.6949" y1="25.6029" x2="108.4057" y2="28.0006">
					<stop  offset="0.5021" style="stop-color:#B1B1B1"/>
					<stop  offset="1" style="stop-color:#707070"/>
				</linearGradient>
				<ellipse class="st49" cx="113.1" cy="26.6" rx="4.3" ry="2.5"/>
			</g>
		</g>
		<g>
			<g>
				<g>
					<g>
						<path class="st3" d="M121.6,87.6c0-0.7,0.4-1.4,1-1.7l16.8-9.8c0.3-0.2-0.3-0.3,0-0.3c0.3,0,0.7,0.1,1,0.3l14.3,8.2
							c0.6,0.4,1,1,1,1.7s-0.4,1.4-1,1.7l-15.3,8.9c-1.4,0.8-3.1,0.8-4.5,0l-12.4-7.3C121.9,89,121.6,88.3,121.6,87.6z"/>
					</g>
				</g>
				<g>
					<g>
						<g>
							<g>
								<polygon class="st4" points="126.4,78.5 142.1,69.4 151.9,75.1 151.9,85.3 136.2,94.4 126.4,88.7 								"/>
								<polygon class="st5" points="126.4,78.5 142.1,69.4 151.9,75.1 151.9,75.9 136.2,85 126.4,79.3 								"/>
								<polygon class="st50" points="148.2,75.1 142.1,71.5 130.1,78.5 136.2,82.1 								"/>
							</g>
							
								<linearGradient id="SVGID_42_" gradientUnits="userSpaceOnUse" x1="-2354.4446" y1="93.2841" x2="-2358.478" y2="64.7984" gradientTransform="matrix(-1 0 0 1 -2211.6841 0)">
								<stop  offset="0" style="stop-color:#B1B1B1;stop-opacity:0.335"/>
								<stop  offset="7.406294e-02" style="stop-color:#B1B1B1;stop-opacity:0.3176"/>
								<stop  offset="1" style="stop-color:#B1B1B1;stop-opacity:0.1"/>
							</linearGradient>
							<path class="st51" d="M136.1,94.5V84.4l15.8-9.2v10.2"/>
							
								<linearGradient id="SVGID_43_" gradientUnits="userSpaceOnUse" x1="2975.3008" y1="83.7249" x2="2968.3635" y2="88.7849" gradientTransform="matrix(1 0 0 1 -2840.1565 0)">
								<stop  offset="0" style="stop-color:#B1B1B1;stop-opacity:0.7896"/>
								<stop  offset="1" style="stop-color:#B1B1B1;stop-opacity:0.335"/>
							</linearGradient>
							<path class="st52" d="M126.4,88.8V78.6l9.8,5.8v10.1"/>
						</g>
					</g>
					<g>
						<line class="st53" x1="130.1" y1="78.6" x2="128.5" y2="79.5"/>
						<line class="st53" x1="132.1" y1="79.9" x2="130.5" y2="80.7"/>
						<line class="st53" x1="134.1" y1="81.1" x2="132.6" y2="81.9"/>
						<line class="st53" x1="136.1" y1="82.3" x2="134.6" y2="83.2"/>
					</g>
					<g>
						<line class="st53" x1="143.9" y1="70.4" x2="142.2" y2="71.4"/>
						<line class="st53" x1="145.9" y1="71.7" x2="144.2" y2="72.6"/>
						<line class="st53" x1="147.9" y1="72.9" x2="146.2" y2="73.8"/>
						<line class="st53" x1="149.9" y1="74.1" x2="148.2" y2="75"/>
					</g>
				</g>
			</g>
		</g>
	</g>
	<g>
		<path class="st3" d="M138,107.4l1.6-0.5l0-1l1.5-0.3l-1-1l-1.8,0.1l0.4-0.6l-1.6-1.5l-1.6,0.2l-0.4-0.6l-1.8-0.2l-1.1,1.2
			l-1.4,0.2l-0.7-0.5l-2.2,0.6l-0.1,1.4l-1.2,0.1l-0.7,1.1l2.8,0.5l-0.3,1l1.2,1l1.3,0.6l1.5-0.6l1.1,0.5l2.7-0.4L138,107.4z"/>
		<g>
			<polygon class="st54" points="136.9,107.2 137.7,91.2 137.9,107.3 			"/>
			<polygon class="st54" points="137.1,103.4 135.2,98.3 137.7,103.2 			"/>
			<polygon class="st55" points="132.9,99.2 131.3,96.9 132,95.5 130.4,94.4 131.2,92.8 132.7,91 134.7,90.6 134.8,87.7 137.1,87.7 
				137.7,88.7 140.4,87.9 142.1,89.7 141.5,90.6 142.3,91.9 144.8,92.1 145,94 143.9,94.8 144.8,96.2 142.5,98.6 141.3,98.6 
				142,100.2 140.4,101.9 139.3,100.7 137.4,101.3 135.9,100.1 			"/>
			<g>
				<polygon class="st55" points="137.3,90 136.1,88.7 136.5,87.7 134.8,87.7 134.7,90.6 136.9,91.3 				"/>
				<polygon class="st1" points="137.8,98.4 135.9,98.9 135.6,97.5 134,97.1 133.9,95.6 136.2,95.8 136.7,94.8 136.1,92.9 135,93.6 
					133.9,92.5 134.7,90.6 132.7,91 131.2,92.8 130.4,94.4 132,95.5 131.3,96.9 132.9,99.2 135.9,100.1 137.4,101.3 139.3,100.7 
					140.4,101.9 139.8,99.3 				"/>
			</g>
		</g>
	</g>
	<g>
		<g>
			<path class="st3" d="M170.6,79.1l1.4-0.5l0-0.9l1.3-0.3l-0.9-0.9l-1.6,0.1l0.3-0.5l-1.4-1.3l-1.4,0.2l-0.4-0.6l-1.6-0.2l-1,1
				l-1.3,0.2l-0.6-0.4l-2,0.5l-0.1,1.3l-1.1,0.1l-0.7,1l2.5,0.5l-0.2,0.9l1.1,0.9l1.1,0.6l1.4-0.5l0.9,0.5l2.4-0.4L170.6,79.1z"/>
			<g>
				<polygon class="st54" points="169.7,78.9 170.3,64.7 170.5,79 				"/>
				<polygon class="st54" points="169.8,75.6 168.1,71 170.3,75.3 				"/>
				<polygon class="st55" points="166.1,71.8 164.6,69.7 165.2,68.5 163.8,67.6 164.5,66.1 165.9,64.6 167.7,64.2 167.8,61.6 
					169.8,61.6 170.3,62.5 172.7,61.8 174.3,63.4 173.7,64.2 174.4,65.3 176.7,65.5 176.8,67.2 175.8,67.9 176.7,69.1 174.6,71.3 
					173.5,71.3 174.2,72.8 172.7,74.2 171.7,73.1 170.1,73.7 168.7,72.6 				"/>
				<g>
					<polygon class="st55" points="169.9,63.6 168.9,62.5 169.2,61.6 167.8,61.6 167.7,64.2 169.6,64.8 					"/>
					<polygon class="st1" points="170.4,71.1 168.7,71.5 168.5,70.3 167.1,70 166.9,68.7 169,68.8 169.5,67.9 168.9,66.3 
						167.9,66.9 166.9,65.9 167.7,64.2 165.9,64.6 164.5,66.1 163.8,67.6 165.2,68.5 164.6,69.7 166.1,71.8 168.7,72.6 170.1,73.7 
						171.7,73.1 172.7,74.2 172.2,71.9 					"/>
				</g>
			</g>
		</g>
		<g>
			<g>
				<polygon class="st55" points="166,66.5 164.9,65 165.4,64.1 164.3,63.3 164.8,62.2 165.8,61.1 167.2,60.8 167.3,58.8 
					168.8,58.8 169.2,59.5 171,59 172.2,60.1 171.7,60.8 172.3,61.6 174,61.8 174.1,63.1 173.4,63.6 174,64.5 172.5,66.1 
					171.6,66.1 172.1,67.2 171,68.3 170.3,67.5 169,68 168,67.1 				"/>
				<g>
					<polyline class="st1" points="167.2,60.8 168.6,61.2 168.9,60.3 168.1,59.5 168.4,58.8 167.3,58.8 					"/>
					<polygon class="st1" points="169.3,66 168,66.3 167.8,65.4 166.7,65.1 166.6,64.1 168.2,64.2 168.6,63.6 168.1,62.3 
						167.4,62.8 166.6,62.1 167.2,60.8 165.8,61.1 164.8,62.2 164.3,63.3 165.4,64.1 164.9,65 166,66.5 168,67.1 169,68 170.3,67.5 
						171,68.3 170.6,66.6 					"/>
				</g>
			</g>
		</g>
		<g>
			<g>
				<polygon class="st55" points="167.3,58.1 167.3,59.6 168,60 167.6,60.9 168.4,61.4 169.5,61.8 170.4,61.4 171.3,62.7 
					172.3,62.1 172.2,61.5 173.5,61.1 173.8,59.9 173.2,59.6 173.2,58.9 174.2,58.1 173.7,57.2 173.1,57.2 173.1,56.3 171.4,55.9 
					170.9,56.2 170.8,55.3 169.6,55 169.5,55.8 168.6,56 168.3,56.9 				"/>
				<g>
					<polygon class="st1" points="169.6,57.2 168.6,57.5 168.9,58.1 168.4,58.7 168.7,59.4 169.6,58.8 170.1,59 170.4,60 169.7,60 
						169.6,60.8 170.4,61.4 169.5,61.8 168.4,61.4 167.6,60.9 168,60 167.3,59.6 167.3,58.1 168.3,56.9 168.6,56 169.5,55.8 
						169.6,55 170.1,56.3 					"/>
				</g>
			</g>
		</g>
	</g>
	<g>
		<g>
			<path class="st3" d="M35.2,79.1l1.4-0.5l0-0.9l1.3-0.3L37,76.6l-1.6,0.1l0.3-0.5l-1.4-1.3L33,75l-0.4-0.6L31,74.2l-1,1l-1.3,0.2
				L28.2,75l-2,0.5l-0.1,1.3L25,76.8l-0.7,1l2.5,0.5l-0.2,0.9l1.1,0.9l1.1,0.6l1.4-0.5l0.9,0.5l2.4-0.4L35.2,79.1z"/>
			<g>
				<polygon class="st54" points="34.2,79 34.9,64.7 35.1,79.1 				"/>
				<polygon class="st54" points="34.3,75.6 32.6,71.1 34.9,75.4 				"/>
				<polygon class="st55" points="30.7,71.8 29.2,69.8 29.8,68.6 28.4,67.6 29.1,66.2 30.4,64.6 32.2,64.3 32.3,61.6 34.4,61.6 
					34.9,62.6 37.3,61.9 38.8,63.4 38.2,64.3 39,65.3 41.2,65.6 41.4,67.3 40.4,68 41.2,69.2 39.2,71.4 38.1,71.4 38.7,72.8 
					37.3,74.2 36.3,73.2 34.6,73.8 33.3,72.7 				"/>
				<g>
					<polygon class="st55" points="34.5,63.7 33.4,62.6 33.8,61.6 32.3,61.6 32.2,64.3 34.1,64.9 					"/>
					<polygon class="st1" points="35,71.1 33.3,71.6 33.1,70.4 31.6,70 31.5,68.7 33.5,68.8 34,68 33.4,66.3 32.5,66.9 31.5,65.9 
						32.2,64.3 30.4,64.6 29.1,66.2 28.4,67.6 29.8,68.6 29.2,69.8 30.7,71.8 33.3,72.7 34.6,73.8 36.3,73.2 37.3,74.2 36.8,72 
											"/>
				</g>
			</g>
		</g>
		<g>
			<g>
				<polygon class="st55" points="30.6,66.6 29.5,65 29.9,64.1 28.8,63.4 29.4,62.3 30.4,61.1 31.8,60.8 31.8,58.8 33.4,58.8 
					33.8,59.6 35.6,59 36.7,60.2 36.3,60.8 36.8,61.7 38.6,61.8 38.7,63.1 37.9,63.7 38.6,64.6 37,66.2 36.2,66.2 36.7,67.3 
					35.6,68.4 34.8,67.6 33.6,68 32.6,67.2 				"/>
				<g>
					<polyline class="st1" points="31.8,60.8 33.2,61.3 33.5,60.4 32.7,59.6 32.9,58.8 31.8,58.8 					"/>
					<polygon class="st1" points="33.8,66 32.6,66.4 32.4,65.5 31.3,65.2 31.2,64.2 32.8,64.3 33.1,63.7 32.7,62.4 31.9,62.8 
						31.2,62.1 31.8,60.8 30.4,61.1 29.4,62.3 28.8,63.4 29.9,64.1 29.5,65 30.6,66.6 32.6,67.2 33.6,68 34.8,67.6 35.6,68.4 
						35.2,66.6 					"/>
				</g>
			</g>
		</g>
		<g>
			<g>
				<polygon class="st55" points="31.9,58.2 31.9,59.6 32.5,60 32.2,60.9 33,61.4 34.1,61.8 35,61.5 35.9,62.7 36.8,62.1 36.8,61.5 
					38.1,61.2 38.3,59.9 37.8,59.7 37.8,58.9 38.8,58.2 38.3,57.3 37.6,57.2 37.6,56.4 36,55.9 35.5,56.2 35.3,55.3 34.2,55 
					34.1,55.9 33.1,56.1 32.9,57 				"/>
				<g>
					<polygon class="st1" points="34.1,57.3 33.2,57.5 33.5,58.2 32.9,58.8 33.3,59.5 34.2,58.8 34.7,59.1 34.9,60.1 34.3,60.1 
						34.1,60.8 35,61.5 34.1,61.8 33,61.4 32.2,60.9 32.5,60 31.9,59.6 31.9,58.2 32.9,57 33.1,56.1 34.1,55.9 34.2,55 34.7,56.3 
											"/>
				</g>
			</g>
		</g>
	</g>
	<g>
		<g>
			<path class="st3" d="M111.3,124.2l1.4-0.5l0-0.9l1.3-0.3l-0.9-0.9l-1.6,0.1l0.3-0.5l-1.4-1.3l-1.4,0.2l-0.4-0.6l-1.6-0.2l-1,1
				l-1.3,0.2l-0.6-0.4l-2,0.5l-0.1,1.3l-1.1,0.1l-0.7,1l2.5,0.5l-0.2,0.9l1.1,0.9l1.1,0.6l1.4-0.5l0.9,0.5l2.4-0.4L111.3,124.2z"/>
			<g>
				<polygon class="st54" points="110.4,124 111.1,109.8 111.2,124.1 				"/>
				<polygon class="st54" points="110.5,120.7 108.8,116.1 111.1,120.4 				"/>
				<polygon class="st55" points="106.8,116.9 105.4,114.8 106,113.6 104.5,112.7 105.3,111.2 106.6,109.6 108.4,109.3 108.5,106.6 
					110.6,106.6 111,107.6 113.4,106.9 115,108.4 114.4,109.3 115.1,110.4 117.4,110.6 117.5,112.3 116.6,113 117.4,114.2 
					115.4,116.4 114.3,116.4 114.9,117.8 113.4,119.3 112.5,118.2 110.8,118.8 109.5,117.7 				"/>
				<g>
					<polygon class="st55" points="110.7,108.7 109.6,107.6 110,106.6 108.5,106.6 108.4,109.3 110.3,109.9 					"/>
					<polygon class="st1" points="111.2,116.1 109.5,116.6 109.2,115.4 107.8,115.1 107.7,113.7 109.7,113.9 110.2,113 109.6,111.3 
						108.6,111.9 107.7,111 108.4,109.3 106.6,109.6 105.3,111.2 104.5,112.7 106,113.6 105.4,114.8 106.8,116.9 109.5,117.7 
						110.8,118.8 112.5,118.2 113.4,119.3 113,117 					"/>
				</g>
			</g>
		</g>
		<g>
			<g>
				<polygon class="st55" points="106.8,111.6 105.7,110 106.1,109.1 105,108.4 105.6,107.3 106.6,106.1 107.9,105.9 108,103.9 
					109.6,103.9 109.9,104.6 111.7,104 112.9,105.2 112.5,105.9 113,106.7 114.7,106.9 114.8,108.1 114.1,108.7 114.7,109.6 
					113.2,111.2 112.4,111.2 112.8,112.3 111.7,113.4 111,112.6 109.7,113 108.7,112.2 				"/>
				<g>
					<polyline class="st1" points="107.9,105.9 109.4,106.3 109.7,105.4 108.8,104.6 109.1,103.9 108,103.9 					"/>
					<polygon class="st1" points="110,111 108.7,111.4 108.6,110.5 107.5,110.2 107.4,109.2 108.9,109.3 109.3,108.7 108.8,107.4 
						108.1,107.9 107.4,107.1 107.9,105.9 106.6,106.1 105.6,107.3 105,108.4 106.1,109.1 105.7,110 106.8,111.6 108.7,112.2 
						109.7,113 111,112.6 111.7,113.4 111.4,111.7 					"/>
				</g>
			</g>
		</g>
		<g>
			<g>
				<polygon class="st55" points="108.1,103.2 108.1,104.6 108.7,105.1 108.3,106 109.1,106.5 110.2,106.8 111.2,106.5 112.1,107.8 
					113,107.2 112.9,106.5 114.3,106.2 114.5,105 114,104.7 114,104 114.9,103.2 114.5,102.3 113.8,102.2 113.8,101.4 112.2,100.9 
					111.7,101.3 111.5,100.4 110.4,100.1 110.3,100.9 109.3,101.1 109,102 				"/>
				<g>
					<polygon class="st1" points="110.3,102.3 109.4,102.5 109.7,103.2 109.1,103.8 109.5,104.5 110.4,103.8 110.8,104.1 
						111.1,105.1 110.5,105.1 110.3,105.9 111.2,106.5 110.2,106.8 109.1,106.5 108.3,106 108.7,105.1 108.1,104.6 108.1,103.2 
						109,102 109.3,101.1 110.3,100.9 110.4,100.1 110.9,101.3 					"/>
				</g>
			</g>
		</g>
	</g>
	<g>
		<path class="st3" d="M193,82.7l1.6-0.5l0-1l1.5-0.3l-1-1l-1.8,0.1l0.4-0.6l-1.6-1.5l-1.6,0.2l-0.4-0.6l-1.8-0.2l-1.1,1.2l-1.4,0.2
			l-0.7-0.5l-2.2,0.6l-0.1,1.4l-1.2,0.1l-0.7,1.1l2.8,0.5l-0.3,1l1.2,1l1.3,0.6l1.5-0.6l1.1,0.5l2.7-0.4L193,82.7z"/>
		<g>
			<polygon class="st54" points="191.9,82.6 192.7,66.5 192.8,82.6 			"/>
			<polygon class="st54" points="192,78.8 190.1,73.6 192.6,78.5 			"/>
			<polygon class="st55" points="187.9,74.5 186.3,72.2 186.9,70.9 185.3,69.8 186.1,68.2 187.6,66.4 189.6,66 189.8,63 192.1,63 
				192.6,64.1 195.3,63.3 197.1,65 196.4,66 197.2,67.2 199.8,67.5 199.9,69.4 198.8,70.2 199.8,71.5 197.5,74 196.3,74 196.9,75.6 
				195.3,77.2 194.2,76 192.3,76.7 190.9,75.5 			"/>
			<g>
				<polygon class="st55" points="192.2,65.3 191,64.1 191.4,63 189.8,63 189.6,66 191.8,66.7 				"/>
				<polygon class="st1" points="192.7,73.7 190.9,74.2 190.6,72.9 189,72.5 188.8,71 191.1,71.1 191.7,70.2 191,68.3 189.9,69 
					188.8,67.9 189.6,66 187.6,66.4 186.1,68.2 185.3,69.8 186.9,70.9 186.3,72.2 187.9,74.5 190.9,75.5 192.3,76.7 194.2,76 
					195.3,77.2 194.8,74.6 				"/>
			</g>
		</g>
	</g>
	<g>
		<path class="st3" d="M125.6,24.9l1.6-0.5l0-1l1.5-0.3l-1-1l-1.8,0.1l0.4-0.6l-1.6-1.5l-1.6,0.2l-0.4-0.6l-1.8-0.2l-1.1,1.2
			l-1.4,0.2l-0.7-0.5l-2.2,0.6l-0.1,1.4l-1.2,0.1l-0.7,1.1l2.8,0.5l-0.3,1l1.2,1l1.3,0.6L120,26l1.1,0.5l2.7-0.4L125.6,24.9z"/>
		<g>
			<polygon class="st54" points="124.6,24.7 125.3,8.7 125.5,24.8 			"/>
			<polygon class="st54" points="124.7,21 122.8,15.8 125.3,20.7 			"/>
			<polygon class="st55" points="120.6,16.7 118.9,14.4 119.6,13 118,12 118.8,10.3 120.3,8.6 122.3,8.2 122.4,5.2 124.7,5.2 
				125.3,6.3 128,5.5 129.8,7.2 129.1,8.2 129.9,9.4 132.5,9.7 132.6,11.6 131.5,12.4 132.5,13.7 130.2,16.2 128.9,16.2 129.6,17.8 
				128,19.4 126.9,18.2 125,18.9 123.5,17.6 			"/>
			<g>
				<polygon class="st55" points="124.9,7.5 123.7,6.3 124.1,5.2 122.4,5.2 122.3,8.2 124.5,8.9 				"/>
				<polygon class="st1" points="125.4,15.9 123.5,16.4 123.3,15.1 121.6,14.7 121.5,13.2 123.8,13.3 124.3,12.4 123.7,10.5 
					122.6,11.2 121.5,10.1 122.3,8.2 120.3,8.6 118.8,10.3 118,12 119.6,13 118.9,14.4 120.6,16.7 123.5,17.6 125,18.9 126.9,18.2 
					128,19.4 127.5,16.8 				"/>
			</g>
		</g>
	</g>
	<g>
		<path class="st3" d="M54.6,62.5l1.6-0.5l0-1l1.5-0.3l-1-1l-1.8,0.1l0.4-0.6l-1.6-1.5l-1.6,0.2l-0.4-0.6L49.9,57l-1.1,1.2l-1.4,0.2
			l-0.7-0.5l-2.2,0.6l-0.1,1.4l-1.2,0.1L42.4,61l2.8,0.5l-0.3,1l1.2,1l1.3,0.6l1.5-0.6l1.1,0.5l2.7-0.4L54.6,62.5z"/>
		<g>
			<polygon class="st54" points="53.5,62.3 54.3,46.3 54.5,62.4 			"/>
			<polygon class="st54" points="53.7,58.6 51.7,53.4 54.3,58.3 			"/>
			<polygon class="st55" points="49.5,54.3 47.9,52 48.6,50.6 46.9,49.6 47.7,47.9 49.2,46.2 51.3,45.8 51.4,42.8 53.7,42.8 
				54.2,43.9 56.9,43.1 58.7,44.8 58,45.8 58.8,47 61.4,47.3 61.5,49.2 60.5,50 61.4,51.3 59.1,53.8 57.9,53.8 58.6,55.4 56.9,57 
				55.9,55.8 54,56.5 52.5,55.2 			"/>
			<g>
				<polygon class="st55" points="53.8,45.1 52.6,43.9 53,42.8 51.4,42.8 51.3,45.8 53.4,46.5 				"/>
				<polygon class="st1" points="54.4,53.5 52.5,54 52.2,52.7 50.6,52.3 50.4,50.8 52.7,50.9 53.3,50 52.6,48.1 51.5,48.8 
					50.4,47.7 51.3,45.8 49.2,46.2 47.7,47.9 46.9,49.6 48.6,50.6 47.9,52 49.5,54.3 52.5,55.2 54,56.5 55.9,55.8 56.9,57 
					56.4,54.4 				"/>
			</g>
		</g>
	</g>
</g>
</svg>
