<?xml version="1.0" encoding="utf-8"?>
<!-- Generator: Adobe Illustrator 21.1.0, SVG Export Plug-In . SVG Version: 6.00 Build 0)  -->
<svg version="1.1" id="Слой_1" xmlns="http://www.w3.org/2000/svg" xmlns:xlink="http://www.w3.org/1999/xlink" x="0px" y="0px"
	 viewBox="0 0 175 131" style="enable-background:new 0 0 175 131;" xml:space="preserve">
<style type="text/css">
	.st0{fill:#346F2E;}
	.st1{fill:#D1D1CD;}
	.st2{fill:#A19C95;}
	.st3{fill:#57352F;}
	.st4{fill:#568E48;}
	.st5{fill:#FFFFFF;}
	.st6{fill:#707070;}
	.st7{fill:#4F4F4F;}
	.st8{fill:url(#SVGID_1_);}
	.st9{fill:url(#SVGID_2_);}
	.st10{fill:none;stroke:#A19C95;stroke-width:0.25;stroke-linecap:round;stroke-miterlimit:10;}
	.st11{fill:#CFB36F;}
	.st12{fill:#F6F6F6;}
	.st13{fill:#DADADA;}
	.st14{fill:#A48A42;}
	.st15{fill:#B3B3B3;}
	.st16{fill:#B1B1B1;}
	.st17{fill:#A8A8A8;}
	.st18{fill:#EDEDED;}
</style>
<g>
	<g>
		<path class="st0" d="M170,68.7L77,14.6c-6.2-3.6-17-3.1-24.2,1L6.2,42.2c-7.2,4.1-7.9,10.4-1.7,14L24.1,68c3.3,2,3.3,6.8,0,8.7
			l-10.7,6.2c-7.2,4.1-7.9,10.4-1.7,14L66,128.4c6.2,3.6,17,3.1,24.2-1l78-44.8C175.4,78.5,176.2,72.3,170,68.7z"/>
		<path class="st1" d="M170,65.7L77,11.6c-6.2-3.6-17-3.1-24.2,1L6.2,39.2c-7.2,4.1-7.9,10.4-1.7,14L24.1,65c3.3,2,3.3,6.8,0,8.7
			l-10.7,6.2c-7.2,4.1-7.9,10.4-1.7,14L66,125.4c6.2,3.6,17,3.1,24.2-1l78-44.8C175.4,75.5,176.2,69.3,170,65.7z"/>
	</g>
	<g>
		<path class="st2" d="M137.5,76.2l1.6-0.5l0-1l1.5-0.3l-1-1l-1.8,0.1l0.4-0.6l-1.6-1.5l-1.6,0.2l-0.4-0.6l-1.8-0.2l-1.1,1.2
			l-1.4,0.2l-0.7-0.5l-2.2,0.6l-0.1,1.4l-1.2,0.1l-0.7,1.1l2.8,0.5l-0.3,1l1.2,1l1.3,0.6l1.5-0.6l1.1,0.5l2.7-0.4L137.5,76.2z"/>
		<g>
			<polygon class="st3" points="136.4,76 137.2,60 137.3,76.1 			"/>
			<polygon class="st3" points="136.5,72.2 134.6,67.1 137.1,72 			"/>
			<polygon class="st4" points="132.4,68 130.8,65.7 131.4,64.3 129.8,63.2 130.6,61.6 132.1,59.9 134.1,59.5 134.3,56.5 
				136.6,56.5 137.1,57.6 139.8,56.8 141.6,58.5 140.9,59.5 141.7,60.7 144.3,60.9 144.4,62.8 143.3,63.7 144.3,65 142,67.4 
				140.8,67.4 141.4,69.1 139.8,70.7 138.7,69.5 136.8,70.1 135.4,68.9 			"/>
			<g>
				<polygon class="st4" points="136.7,58.8 135.5,57.6 135.9,56.5 134.3,56.5 134.1,59.5 136.3,60.1 				"/>
				<polygon class="st0" points="137.3,67.2 135.4,67.7 135.1,66.4 133.5,66 133.3,64.5 135.6,64.6 136.2,63.7 135.5,61.8 
					134.4,62.4 133.3,61.4 134.1,59.5 132.1,59.9 130.6,61.6 129.8,63.2 131.4,64.3 130.8,65.7 132.4,68 135.4,68.9 136.8,70.1 
					138.7,69.5 139.8,70.7 139.3,68.1 				"/>
			</g>
		</g>
	</g>
	<g>
		<path class="st2" d="M76.6,39.5l1.6-0.5l0-1l1.5-0.3l-1-1L77,36.7l0.4-0.6l-1.6-1.5l-1.6,0.2l-0.4-0.6L71.9,34l-1.1,1.2l-1.4,0.2
			l-0.7-0.5l-2.2,0.6l-0.1,1.4l-1.2,0.1L64.5,38l2.8,0.5l-0.3,1l1.2,1l1.3,0.6l1.5-0.6l1.1,0.5l2.7-0.4L76.6,39.5z"/>
		<g>
			<polygon class="st3" points="75.6,39.3 76.3,23.3 76.5,39.4 			"/>
			<polygon class="st3" points="75.7,35.6 73.8,30.4 76.3,35.3 			"/>
			<polygon class="st4" points="71.6,31.3 69.9,29 70.6,27.7 69,26.6 69.8,24.9 71.3,23.2 73.3,22.8 73.4,19.8 75.7,19.8 76.3,20.9 
				79,20.1 80.8,21.8 80.1,22.8 80.9,24 83.5,24.3 83.6,26.2 82.5,27 83.5,28.3 81.2,30.8 79.9,30.8 80.6,32.4 79,34 77.9,32.8 
				76,33.5 74.5,32.3 			"/>
			<g>
				<polygon class="st4" points="75.9,22.1 74.7,20.9 75.1,19.8 73.4,19.8 73.3,22.8 75.5,23.5 				"/>
				<polygon class="st0" points="76.4,30.5 74.5,31 74.3,29.7 72.6,29.3 72.5,27.8 74.8,27.9 75.3,27 74.7,25.1 73.6,25.8 
					72.5,24.7 73.3,22.8 71.3,23.2 69.8,24.9 69,26.6 70.6,27.7 69.9,29 71.6,31.3 74.5,32.3 76,33.5 77.9,32.8 79,34 78.5,31.4 
									"/>
			</g>
		</g>
	</g>
	<g>
		<path class="st2" d="M28.9,52.9l1.6-0.5l0-1L32,51l-1-1l-1.8,0.1l0.4-0.6L28,48l-1.6,0.2L26,47.6l-1.8-0.2l-1.1,1.2l-1.4,0.2
			L21,48.2l-2.2,0.6l-0.1,1.4l-1.2,0.1l-0.7,1.1l2.8,0.5l-0.3,1l1.2,1l1.3,0.6l1.5-0.6l1.1,0.5l2.7-0.4L28.9,52.9z"/>
		<g>
			<polygon class="st3" points="27.8,52.7 28.6,36.7 28.8,52.8 			"/>
			<polygon class="st3" points="27.9,48.9 26,43.8 28.6,48.7 			"/>
			<polygon class="st4" points="23.8,44.7 22.2,42.4 22.8,41 21.2,39.9 22,38.3 23.5,36.6 25.5,36.1 25.7,33.2 28,33.2 28.5,34.3 
				31.2,33.4 33,35.2 32.3,36.1 33.1,37.4 35.7,37.6 35.8,39.5 34.8,40.3 35.7,41.7 33.4,44.1 32.2,44.1 32.9,45.8 31.2,47.4 
				30.1,46.2 28.3,46.8 26.8,45.6 			"/>
			<g>
				<polygon class="st4" points="28.1,35.5 26.9,34.3 27.3,33.2 25.7,33.2 25.5,36.1 27.7,36.8 				"/>
				<polygon class="st0" points="28.7,43.9 26.8,44.4 26.5,43 24.9,42.6 24.7,41.2 27,41.3 27.6,40.3 26.9,38.4 25.8,39.1 24.7,38 
					25.5,36.1 23.5,36.6 22,38.3 21.2,39.9 22.8,41 22.2,42.4 23.8,44.7 26.8,45.6 28.3,46.8 30.1,46.2 31.2,47.4 30.7,44.8 				"/>
			</g>
		</g>
	</g>
	<g>
		<g>
			<path class="st2" d="M36.9,91.5l1.4-0.5l0-0.9l1.3-0.3L38.8,89L37.2,89l0.3-0.5l-1.4-1.3l-1.4,0.2l-0.4-0.6l-1.6-0.2l-1,1
				l-1.3,0.2l-0.6-0.4l-2,0.5l-0.1,1.3l-1.1,0.1l-0.7,1l2.5,0.5l-0.2,0.9l1.1,0.9l1.1,0.6l1.4-0.5l0.9,0.5l2.4-0.4L36.9,91.5z"/>
			<g>
				<polygon class="st3" points="36,91.4 36.7,77.1 36.8,91.5 				"/>
				<polygon class="st3" points="36.1,88 34.4,83.4 36.7,87.8 				"/>
				<polygon class="st4" points="32.4,84.2 31,82.2 31.6,81 30.1,80 30.9,78.6 32.2,77 34,76.6 34.1,74 36.2,74 36.6,75 39,74.2 
					40.6,75.8 40,76.6 40.7,77.7 43,78 43.1,79.6 42.2,80.4 43,81.6 41,83.7 39.9,83.7 40.5,85.2 39,86.6 38.1,85.5 36.4,86.1 
					35.1,85.1 				"/>
				<g>
					<polygon class="st4" points="36.3,76 35.2,75 35.6,74 34.1,74 34,76.6 35.9,77.2 					"/>
					<polygon class="st0" points="36.8,83.5 35.1,84 34.8,82.8 33.4,82.4 33.3,81.1 35.3,81.2 35.8,80.4 35.2,78.7 34.2,79.3 
						33.3,78.3 34,76.6 32.2,77 30.9,78.6 30.1,80 31.6,81 31,82.2 32.4,84.2 35.1,85.1 36.4,86.1 38.1,85.5 39,86.6 38.6,84.3 
											"/>
				</g>
			</g>
		</g>
		<g>
			<g>
				<polygon class="st4" points="32.3,78.9 31.3,77.4 31.7,76.5 30.6,75.8 31.2,74.7 32.2,73.5 33.5,73.2 33.6,71.2 35.2,71.2 
					35.5,71.9 37.3,71.4 38.5,72.6 38.1,73.2 38.6,74 40.3,74.2 40.4,75.5 39.7,76 40.3,76.9 38.8,78.6 38,78.6 38.4,79.7 
					37.3,80.8 36.6,79.9 35.3,80.4 34.3,79.6 				"/>
				<g>
					<polyline class="st0" points="33.5,73.2 35,73.7 35.3,72.8 34.4,71.9 34.7,71.2 33.6,71.2 					"/>
					<polygon class="st0" points="35.6,78.4 34.3,78.8 34.2,77.8 33.1,77.6 33,76.6 34.5,76.7 34.9,76 34.4,74.8 33.7,75.2 33,74.5 
						33.5,73.2 32.2,73.5 31.2,74.7 30.6,75.8 31.7,76.5 31.3,77.4 32.3,78.9 34.3,79.6 35.3,80.4 36.6,79.9 37.3,80.8 37,79 					
						"/>
				</g>
			</g>
		</g>
		<g>
			<g>
				<polygon class="st4" points="33.7,70.6 33.7,72 34.3,72.4 33.9,73.3 34.7,73.8 35.8,74.2 36.8,73.8 37.7,75.1 38.6,74.5 
					38.5,73.9 39.9,73.5 40.1,72.3 39.6,72.1 39.6,71.3 40.5,70.5 40.1,69.7 39.4,69.6 39.4,68.8 37.8,68.3 37.3,68.6 37.1,67.7 
					36,67.4 35.9,68.2 34.9,68.4 34.6,69.4 				"/>
				<g>
					<polygon class="st0" points="35.9,69.6 35,69.9 35.2,70.6 34.7,71.2 35.1,71.8 36,71.2 36.4,71.5 36.7,72.5 36.1,72.5 
						35.9,73.2 36.8,73.8 35.8,74.2 34.7,73.8 33.9,73.3 34.3,72.4 33.7,72 33.7,70.6 34.6,69.4 34.9,68.4 35.9,68.2 36,67.4 
						36.5,68.7 					"/>
				</g>
			</g>
		</g>
	</g>
	<g>
		<g>
			<g>
				<path class="st2" d="M61,101.2c0-0.8,0.4-1.5,1.1-1.8l18.5-11.5c0.3-0.2,0.7-0.3,1.1-0.3c0.4,0,0.7,0.1,1.1,0.3l18.5,10.7
					c0.6,0.4,1.1,1.1,1.1,1.8c0,0.7-0.4,1.4-1,1.8l-18,10.5c-1.5,0.9-3.3,0.9-4.8,0l-16.5-9.7C61.4,102.7,61,102,61,101.2z"/>
			</g>
		</g>
		<g>
			<g>
				<g>
					<g>
						<g>
							<polygon class="st5" points="64.1,87.6 80.8,78 97.5,87.6 97.5,100.7 80.8,110.3 64.1,100.7 							"/>
							<polygon class="st6" points="64.1,87.6 80.8,78 97.5,87.6 97.5,88.5 80.8,98.2 64.1,88.5 							"/>
							<polygon class="st7" points="93.7,87.6 80.8,80.2 68,87.6 80.8,95.1 							"/>
						</g>
						
							<linearGradient id="SVGID_1_" gradientUnits="userSpaceOnUse" x1="3994.0918" y1="108.9172" x2="3989.3965" y2="75.7566" gradientTransform="matrix(-1 0 0 1 4081.8049 0)">
							<stop  offset="0" style="stop-color:#B3B3B3;stop-opacity:0.335"/>
							<stop  offset="7.406294e-02" style="stop-color:#B3B3B3;stop-opacity:0.3176"/>
							<stop  offset="1" style="stop-color:#B3B3B3;stop-opacity:0.1"/>
						</linearGradient>
						<path class="st8" d="M80.7,110.4V97.6l16.8-9.8v13"/>
						
							<linearGradient id="SVGID_2_" gradientUnits="userSpaceOnUse" x1="-3375.2188" y1="94.9414" x2="-3385.4023" y2="102.3694" gradientTransform="matrix(1 0 0 1 3453.3328 0)">
							<stop  offset="0" style="stop-color:#B3B3B3;stop-opacity:0.7896"/>
							<stop  offset="1" style="stop-color:#B3B3B3;stop-opacity:0.335"/>
						</linearGradient>
						<path class="st9" d="M64,100.7V87.8l16.8,9.8v12.9"/>
					</g>
				</g>
				<g>
					<line class="st10" x1="68" y1="87.8" x2="66.3" y2="88.7"/>
					<line class="st10" x1="69.8" y1="88.8" x2="68.2" y2="89.7"/>
					<line class="st10" x1="71.6" y1="89.9" x2="70" y2="90.8"/>
					<line class="st10" x1="73.5" y1="91" x2="71.8" y2="91.9"/>
					<line class="st10" x1="75.3" y1="92.1" x2="73.6" y2="93"/>
					<line class="st10" x1="77.1" y1="93.2" x2="75.5" y2="94.1"/>
					<line class="st10" x1="78.9" y1="94.3" x2="77.3" y2="95.2"/>
					<line class="st10" x1="80.8" y1="95.3" x2="79.1" y2="96.2"/>
				</g>
				<g>
					<line class="st10" x1="82.7" y1="79" x2="80.9" y2="80"/>
					<line class="st10" x1="84.8" y1="80.3" x2="83" y2="81.3"/>
					<line class="st10" x1="86.9" y1="81.6" x2="85.1" y2="82.5"/>
					<line class="st10" x1="89.1" y1="82.8" x2="87.3" y2="83.8"/>
					<line class="st10" x1="91.2" y1="84.1" x2="89.4" y2="85.1"/>
					<line class="st10" x1="93.3" y1="85.3" x2="91.5" y2="86.3"/>
					<line class="st10" x1="95.5" y1="86.6" x2="93.7" y2="87.6"/>
				</g>
			</g>
			<g>
				<g>
					<line class="st10" x1="97.2" y1="70.8" x2="95.5" y2="71.7"/>
				</g>
			</g>
		</g>
		<g>
			<polygon class="st11" points="64,95.8 64,100.7 80.7,110.3 80.7,105.6 			"/>
		</g>
	</g>
	<g>
		<path class="st2" d="M55,108.9l1.6-0.5l0-1l1.5-0.3l-1-1l-1.8,0.1l0.4-0.6l-1.6-1.5l-1.6,0.2l-0.4-0.6l-1.8-0.2l-1.1,1.2l-1.4,0.2
			l-0.7-0.5l-2.2,0.6l-0.1,1.4l-1.2,0.1l-0.7,1.1l2.8,0.5l-0.3,1l1.2,1l1.3,0.6l1.5-0.6l1.1,0.5l2.7-0.4L55,108.9z"/>
		<g>
			<polygon class="st3" points="54,108.7 54.7,92.7 54.9,108.8 			"/>
			<polygon class="st3" points="54.1,104.9 52.2,99.8 54.7,104.7 			"/>
			<polygon class="st4" points="50,100.7 48.3,98.4 49,97 47.4,95.9 48.2,94.3 49.7,92.5 51.7,92.1 51.9,89.2 54.2,89.2 54.7,90.2 
				57.4,89.4 59.2,91.2 58.5,92.1 59.3,93.4 61.9,93.6 62,95.5 60.9,96.3 61.9,97.7 59.6,100.1 58.4,100.1 59,101.7 57.4,103.4 
				56.3,102.1 54.4,102.8 52.9,101.6 			"/>
			<g>
				<polygon class="st4" points="54.3,91.5 53.1,90.2 53.5,89.2 51.9,89.2 51.7,92.1 53.9,92.8 				"/>
				<polygon class="st0" points="54.8,99.8 52.9,100.4 52.7,99 51.1,98.6 50.9,97.1 53.2,97.3 53.8,96.3 53.1,94.4 52,95.1 50.9,94 
					51.7,92.1 49.7,92.5 48.2,94.3 47.4,95.9 49,97 48.3,98.4 50,100.7 52.9,101.6 54.4,102.8 56.3,102.1 57.4,103.4 56.9,100.8 
									"/>
			</g>
		</g>
	</g>
	<g>
		<g>
			<g>
				<g>
					<path class="st2" d="M110.2,81.1c-0.2,0-0.4-0.1-0.6-0.2l-6.3-3.6l-5.2,3c-0.2,0.1-0.4,0.2-0.6,0.2s-0.4-0.1-0.6-0.2l-26-15
						c-0.4-0.2-0.6-0.6-0.6-1.1c0-0.4,0.2-0.9,0.6-1.1l4-2.3l-4.5-2.6l-2.7,1.6C67.4,60,67.2,60,67,60c-0.2,0-0.4-0.1-0.6-0.2
						L41.7,45.6c-0.4-0.2-0.6-0.6-0.6-1.1c0-0.4,0.2-0.9,0.6-1.1l20-11.8c0.2-0.1,0.4-0.2,0.6-0.2c0.2,0,0.4,0.1,0.6,0.2l65.7,36.7
						c0.4,0.2,0.6,0.6,0.6,1.1c0,0.5-0.2,0.9-0.6,1.1l-17.9,10.3C110.6,81,110.4,81.1,110.2,81.1z"/>
					<path class="st2" d="M62.3,32.8l65.7,36.7l-17.9,10.3l-6.9-4l-5.8,3.4l-26-15l5.9-3.3l-7-4l-3.3,2L42.4,44.6L62.3,32.8
						 M62.3,30.3c-0.4,0-0.9,0.1-1.3,0.3l-20,11.8c-0.8,0.5-1.2,1.3-1.2,2.2c0,0.9,0.5,1.7,1.2,2.2L65.7,61c0.4,0.2,0.8,0.3,1.2,0.3
						c0.4,0,0.9-0.1,1.3-0.4l2-1.2l1.9,1.1L70.2,62c-0.8,0.4-1.3,1.3-1.3,2.2c0,0.9,0.5,1.7,1.2,2.2l26,15c0.4,0.2,0.8,0.3,1.3,0.3
						s0.9-0.1,1.3-0.3l4.6-2.6L109,82c0.4,0.2,0.8,0.3,1.3,0.3s0.9-0.1,1.3-0.3l17.9-10.3c0.8-0.4,1.3-1.3,1.2-2.2
						c0-0.9-0.5-1.7-1.3-2.2L63.5,30.6C63.2,30.4,62.7,30.3,62.3,30.3L62.3,30.3z"/>
				</g>
			</g>
			<g>
				<g>
					<polygon class="st12" points="42.4,17.7 42.4,44.6 67,58.8 67.1,31.9 					"/>
				</g>
				<g>
					<polygon class="st13" points="42.4,17.7 42.4,44.6 67,58.8 67.1,31.9 					"/>
				</g>
				<g>
					<polygon class="st14" points="67,37.6 42.4,23.4 42.4,17.7 67,31.8 					"/>
				</g>
				<g>
					<g>
						<rect x="67.1" y="17.7" class="st15" width="0" height="19.7"/>
					</g>
				</g>
				<g>
					<polygon class="st16" points="67,3.4 42.4,17.7 67,31.9 91.6,17.7 					"/>
				</g>
				<g>
					<polygon class="st12" points="91.6,17.7 91.6,44.6 67,58.8 67,31.9 					"/>
				</g>
				<g>
					<path class="st17" d="M72.8,24.2c-3.6,1-7.8,1-11.4,0C47,20.3,47,13.9,61.5,10c3.6-1,7.8-1,11.4,0
						C87.3,13.9,87.3,20.3,72.8,24.2z"/>
				</g>
				<g>
					<g>
						<rect x="91.6" y="17.7" class="st15" width="0" height="19.7"/>
						<polygon class="st11" points="91.6,17.7 91.6,23.2 67,37.4 67,31.9 						"/>
					</g>
				</g>
				<g>
					<path class="st14" d="M72.4,23.4c-3.3,0.9-7.2,0.9-10.6,0c-11.2-3.2-11.2-9.4,0-12.6c3.3-0.9,7.2-0.9,10.6,0
						C83.7,14,83.7,20.2,72.4,23.4z"/>
				</g>
				<g>
					<rect x="53.6" y="7.5" class="st14" width="27.1" height="9.6"/>
				</g>
				<g>
					<path class="st11" d="M72.4,13.7c-3.3,0.9-7.2,0.9-10.6,0c-11.2-3.2-11.2-9.4,0-12.6c3.3-0.9,7.2-0.9,10.6,0
						C83.7,4.3,83.7,10.6,72.4,13.7z"/>
				</g>
				<g>
					<path class="st5" d="M70.9,12.1c-2.4,0.6-5.2,0.6-7.5,0c-9-2.4-9-6.9,0-9.3c2.4-0.6,5.2-0.6,7.5,0C79.9,5.2,79.9,9.7,70.9,12.1
						z"/>
				</g>
				<g>
					<g>
						<polygon class="st14" points="49,15.3 52.5,13.2 52.5,15.7 49,17.7 						"/>
					</g>
					<g>
						<polygon class="st11" points="49.2,11.3 45.7,13.4 45.7,13.4 42.5,15.2 49.1,19.1 52.4,17.2 49,15.2 52.5,13.2 						"/>
					</g>
					<g>
						<polygon class="st11" points="70.5,23.6 67,25.6 63.6,23.7 60.3,25.5 67,29.4 67.1,29.3 67.1,29.3 69.1,28.2 70.2,27.5 
							70.2,27.5 73.8,25.5 						"/>
					</g>
					<g>
						<g>
							<polygon class="st14" points="84.9,15.1 81.6,13.2 81.6,15.7 84.9,17.6 							"/>
						</g>
						<g>
							<polygon class="st11" points="91.6,15.2 84.9,11.3 81.6,13.2 85.1,15.2 81.5,17.2 84.8,19.1 89.5,16.4 							"/>
						</g>
						<g>
							<polygon class="st12" points="91.6,17.7 91.6,15.2 84.8,19.1 84.8,21.6 							"/>
						</g>
						<g>
							<polygon class="st12" points="73.8,28 73.8,25.5 67,29.4 67,31.9 							"/>
						</g>
						<g>
							<polygon class="st14" points="60.2,28 60.2,25.5 67,29.4 67,31.9 							"/>
						</g>
						<g>
							<polygon class="st14" points="42.4,17.7 42.4,15.2 49.1,19.1 49.1,21.6 							"/>
						</g>
						<g>
							<polygon class="st14" points="84.8,19.1 81.5,17.2 81.5,19.7 84.8,21.6 							"/>
						</g>
						<g>
							<polygon class="st12" points="49.1,19.1 52.4,17.2 52.4,19.7 49.1,21.6 							"/>
						</g>
					</g>
				</g>
				<g>
					<g>
						<polygon class="st13" points="70.3,40.8 70.3,56.8 110.2,79.8 110.2,63.8 						"/>
					</g>
					<g>
						<polygon class="st6" points="88.2,30.4 70.3,40.8 110.2,63.8 128.1,53.5 						"/>
					</g>
					<g>
						<g>
							<polygon class="st1" points="121.9,54.1 122.9,53.5 88.2,33.4 75.4,40.8 76.4,41.3 88.2,34.6 							"/>
						</g>
						<g>
							<polygon class="st5" points="121.9,54.1 88.2,34.6 76.4,41.3 110.2,60.8 							"/>
						</g>
					</g>
					<g>
						<polygon class="st12" points="110.2,79.8 110.2,63.8 128.1,53.5 128.1,69.5 						"/>
					</g>
					<g>
						<g>
							<polygon class="st18" points="92.2,37.8 92.2,40.6 85.1,44.7 85.1,41.9 							"/>
						</g>
						<g>
							<polygon class="st12" points="89,36 92.2,37.8 85.1,41.9 82,40 							"/>
						</g>
						<g>
							<polygon class="st13" points="85.1,44.7 85.1,41.9 82,40 82,42.9 							"/>
						</g>
					</g>
					<g>
						<g>
							<polygon class="st18" points="100.5,42.6 100.5,45.4 93.4,49.5 93.4,46.6 							"/>
						</g>
						<g>
							<polygon class="st12" points="97.3,40.8 100.5,42.6 93.4,46.6 90.3,44.8 							"/>
						</g>
						<g>
							<polygon class="st13" points="93.4,49.5 93.4,46.6 90.3,44.8 90.3,47.6 							"/>
						</g>
					</g>
					<g>
						<g>
							<polygon class="st18" points="108.8,47.4 108.8,50.2 101.7,54.2 101.7,51.4 							"/>
						</g>
						<g>
							<polygon class="st12" points="105.6,45.5 108.8,47.4 101.7,51.4 98.6,49.6 							"/>
						</g>
						<g>
							<polygon class="st13" points="101.7,54.2 101.7,51.4 98.6,49.6 98.6,52.4 							"/>
						</g>
					</g>
					<g>
						<g>
							<polygon class="st18" points="117.1,52.1 117.1,55 110,59 110,56.2 							"/>
						</g>
						<g>
							<polygon class="st12" points="113.9,50.3 117.1,52.1 110,56.2 106.9,54.4 							"/>
						</g>
						<g>
							<polygon class="st13" points="110,59 110,56.2 106.9,54.4 106.9,57.2 							"/>
						</g>
					</g>
					<g>
						<polygon class="st12" points="71.4,51.6 71.4,64.2 97.4,79.2 97.4,66.7 						"/>
					</g>
					<g>
						<polygon class="st13" points="71.4,51.6 71.4,64.2 97.4,79.2 97.4,66.7 						"/>
					</g>
					<g>
						<g>
							<polygon class="st11" points="77.1,59.3 75.5,58.4 75.5,66.6 77.1,67.5 							"/>
						</g>
						<g>
							<polygon class="st11" points="81.2,61.6 79.7,60.7 79.7,69 81.2,69.8 							"/>
						</g>
						<g>
							<polygon class="st11" points="85.3,64 83.8,63.1 83.8,71.3 85.3,72.2 							"/>
						</g>
						<g>
							<polygon class="st11" points="89.4,66.3 87.9,65.4 87.9,73.6 89.4,74.5 							"/>
						</g>
						<g>
							<polygon class="st11" points="93.5,68.6 92,67.7 92,76 93.5,76.9 							"/>
						</g>
					</g>
					<g>
						<polygon class="st11" points="77.2,48.3 71.4,51.6 97.4,66.7 103.3,63.3 						"/>
					</g>
					<g>
						<polygon class="st12" points="103.3,63.3 103.3,75.8 97.4,79.2 97.4,66.7 						"/>
					</g>
					<g>
						<polygon class="st13" points="101.2,62.1 101.8,62.4 96,65.8 95.4,65.5 						"/>
					</g>
					<g>
						<polygon class="st13" points="98,60.2 98.6,60.6 92.8,64 92.2,63.6 						"/>
					</g>
					<g>
						<polygon class="st13" points="94.8,58.4 95.4,58.7 89.5,62.1 88.9,61.8 						"/>
					</g>
					<g>
						<polygon class="st13" points="91.6,56.5 92.2,56.9 86.3,60.2 85.7,59.9 						"/>
					</g>
					<g>
						<polygon class="st13" points="88.3,54.7 88.9,55 83.1,58.4 82.5,58 						"/>
					</g>
					<g>
						<polygon class="st13" points="85.1,52.8 85.7,53.2 79.9,56.5 79.3,56.2 						"/>
					</g>
					<g>
						<polygon class="st13" points="81.9,51 82.5,51.3 76.7,54.7 76.1,54.3 						"/>
					</g>
					<g>
						<polygon class="st13" points="78.7,49.1 79.3,49.5 73.5,52.8 72.9,52.5 						"/>
					</g>
				</g>
			</g>
		</g>
	</g>
	<g>
		<g>
			<path class="st2" d="M53.6,67.5L55,67l0-0.9l1.3-0.3l-0.9-0.9L53.9,65l0.3-0.5l-1.4-1.3l-1.4,0.2L51,62.8l-1.6-0.2l-1,1l-1.3,0.2
				l-0.6-0.4l-2,0.5l-0.1,1.3l-1.1,0.1l-0.7,1l2.5,0.5L45,67.5l1.1,0.9l1.1,0.6l1.4-0.5l0.9,0.5l2.4-0.4L53.6,67.5z"/>
			<g>
				<polygon class="st3" points="52.6,67.3 53.3,53.1 53.5,67.4 				"/>
				<polygon class="st3" points="52.8,64 51.1,59.4 53.3,63.7 				"/>
				<polygon class="st4" points="49.1,60.2 47.6,58.1 48.2,56.9 46.8,56 47.5,54.5 48.8,53 50.6,52.6 50.8,50 52.8,50 53.3,50.9 
					55.7,50.2 57.3,51.8 56.7,52.6 57.4,53.7 59.7,53.9 59.8,55.6 58.8,56.3 59.7,57.5 57.6,59.7 56.5,59.7 57.1,61.1 55.7,62.6 
					54.7,61.5 53,62.1 51.7,61 				"/>
				<g>
					<polygon class="st4" points="52.9,52 51.8,50.9 52.2,50 50.8,50 50.6,52.6 52.6,53.2 					"/>
					<polygon class="st0" points="53.4,59.5 51.7,59.9 51.5,58.7 50,58.4 49.9,57.1 52,57.2 52.4,56.3 51.8,54.7 50.9,55.3 
						49.9,54.3 50.6,52.6 48.8,53 47.5,54.5 46.8,56 48.2,56.9 47.6,58.1 49.1,60.2 51.7,61 53,62.1 54.7,61.5 55.7,62.6 55.2,60.3 
											"/>
				</g>
			</g>
		</g>
		<g>
			<g>
				<polygon class="st4" points="49,54.9 47.9,53.4 48.4,52.5 47.3,51.7 47.8,50.6 48.8,49.5 50.2,49.2 50.3,47.2 51.8,47.2 
					52.2,47.9 54,47.4 55.2,48.5 54.7,49.2 55.3,50 57,50.2 57.1,51.5 56.4,52 57,52.9 55.4,54.5 54.6,54.5 55.1,55.6 54,56.7 
					53.3,55.9 52,56.4 51,55.5 				"/>
				<g>
					<polyline class="st0" points="50.2,49.2 51.6,49.6 51.9,48.7 51.1,47.9 51.4,47.2 50.3,47.2 					"/>
					<polygon class="st0" points="52.3,54.4 51,54.7 50.8,53.8 49.7,53.5 49.6,52.5 51.2,52.6 51.5,52 51.1,50.7 50.4,51.2 
						49.6,50.5 50.2,49.2 48.8,49.5 47.8,50.6 47.3,51.7 48.4,52.5 47.9,53.4 49,54.9 51,55.5 52,56.4 53.3,55.9 54,56.7 53.6,55 
											"/>
				</g>
			</g>
		</g>
		<g>
			<g>
				<polygon class="st4" points="50.3,46.5 50.3,48 51,48.4 50.6,49.3 51.4,49.8 52.5,50.2 53.4,49.8 54.3,51.1 55.3,50.5 
					55.2,49.9 56.5,49.5 56.8,48.3 56.2,48 56.2,47.3 57.2,46.5 56.7,45.6 56,45.6 56.1,44.7 54.4,44.3 53.9,44.6 53.8,43.7 
					52.6,43.4 52.5,44.2 51.6,44.4 51.3,45.3 				"/>
				<g>
					<polygon class="st0" points="52.6,45.6 51.6,45.9 51.9,46.5 51.3,47.1 51.7,47.8 52.6,47.2 53.1,47.4 53.3,48.4 52.7,48.4 
						52.6,49.2 53.4,49.8 52.5,50.2 51.4,49.8 50.6,49.3 51,48.4 50.3,48 50.3,46.5 51.3,45.3 51.6,44.4 52.5,44.2 52.6,43.4 
						53.1,44.7 					"/>
				</g>
			</g>
		</g>
	</g>
</g>
</svg>
