<?xml version="1.0" encoding="utf-8"?>
<!-- Generator: Adobe Illustrator 21.1.0, SVG Export Plug-In . SVG Version: 6.00 Build 0)  -->
<svg version="1.1" id="Слой_1" xmlns="http://www.w3.org/2000/svg" xmlns:xlink="http://www.w3.org/1999/xlink" x="0px" y="0px"
	 viewBox="0 0 133 79" style="enable-background:new 0 0 133 79;" xml:space="preserve">
<style type="text/css">
	.st0{fill:#346F2E;}
	.st1{fill:#D1D1CD;}
	.st2{fill:#A19C95;}
	.st3{fill:#FFFFFF;}
	.st4{fill:#CFB36F;}
	.st5{fill:url(#SVGID_1_);}
	.st6{fill:url(#SVGID_2_);}
	.st7{fill:url(#SVGID_3_);}
	.st8{fill:none;stroke:#9F9A93;stroke-width:0.25;stroke-linecap:round;stroke-miterlimit:10;}
	.st9{fill:url(#SVGID_4_);}
	.st10{fill:#4F4F4F;}
	.st11{fill:#707070;}
	.st12{fill:url(#SVGID_5_);}
	.st13{fill:url(#SVGID_6_);}
	.st14{fill:url(#SVGID_7_);}
	.st15{fill:url(#SVGID_8_);stroke:#FFFFFF;stroke-miterlimit:10;}
	.st16{fill:url(#SVGID_9_);}
	.st17{fill:#57352F;}
	.st18{fill:#568E48;}
</style>
<g>
	<g>
		<path class="st0" style='fill:#346F2E;' d="M127,51.5L85,75.6c-7.2,4.1-18,4.6-24.2,1L5.2,45.3c-6.2-3.6-5.4-9.8,1.7-14L48.9,7.2c7.2-4.1,18-4.6,24.2-1
			l55.6,31.3C134.9,41.1,134.1,47.4,127,51.5z"/>
		<path class="st1" style='fill:#D1D1CD;' d="M127,48.5L85,72.6c-7.2,4.1-18,4.6-24.2,1L5.2,42.3c-6.2-3.6-5.4-9.8,1.7-14L48.9,4.2c7.2-4.1,18-4.6,24.2-1
			l55.6,31.3C134.9,38.1,134.1,44.4,127,48.5z"/>
	</g>
	<g>
		<g>
			<path class="st2" style='fill:#A19C95;' d="M103.2,31.3L86,21.3c-0.4-0.2-0.8-0.3-1.2-0.3c-0.4,0-0.8,0.1-1.2,0.3l-9.4,5.4l-4.8-2.8
				c-0.4-0.2-0.8-0.3-1.2-0.3c-0.4,0-0.8,0.1-1.2,0.3L32,44c-0.8,0.4-1.2,1.2-1.2,2.1c0,0.9,0.5,1.7,1.2,2.1l29.3,16.9
				c0.4,0.2,0.8,0.3,1.2,0.3c0.4,0,0.8-0.1,1.2-0.3L98.6,45c0.8-0.4,1.2-1.2,1.2-2.1s-0.5-1.7-1.2-2.1l-2.4-1.4l7-4
				c0.8-0.4,1.2-1.2,1.2-2.1S104,31.7,103.2,31.3z"/>
		</g>
	</g>
	<g>
		<g>
			<path class="st2" style='fill:#A19C95;' d="M15,37.1c0-0.7,0.4-1.4,1-1.7l16.7-10.3c0.3-0.2,0.7-0.3,1-0.3c0.3,0,0.7,0.1,1,0.3l13.3,7.6
				c0.6,0.4,1,1,1,1.7s-0.4,1.4,7.2,6.5L37.8,51.5L16,38.9C15.4,38.5,15,37.9,15,37.1z"/>
		</g>
	</g>
	<g>
		<g>
			<g>
				<g>
					<g>
						<g>
							<polygon class="st3" style='fill:#FFFFFF;' points="17.9,27.7 33.6,18.7 45.2,25.3 45.2,34.5 29.6,43.5 17.9,37 							"/>
							<polygon class="st4" style='fill:#CFB36F;' points="17.9,27.7 33.6,18.7 45.2,25.3 45.2,26.1 29.6,35.1 17.9,28.6 							"/>
							<linearGradient id="SVGID_1_" gradientUnits="userSpaceOnUse" x1="21.5064" y1="26.5002" x2="41.6308" y2="26.5002">
								<stop  offset="0" style="stop-color:#B1B1B1;stop-opacity:0.7896"/>
								<stop  offset="1" style="stop-color:#B1B1B1;stop-opacity:0.335"/>
							</linearGradient>
							<polygon class="st5" style='fill:url(#SVGID_1_);' points="41.6,25.3 33.6,20.8 21.5,27.7 29.6,32.2 							"/>
						</g>
						
							<linearGradient id="SVGID_2_" gradientUnits="userSpaceOnUse" x1="3613.2185" y1="42.5546" x2="3609.3726" y2="15.3924" gradientTransform="matrix(-1 0 0 1 3649.4275 0)">
							<stop  offset="0" style="stop-color:#B1B1B1;stop-opacity:0.335"/>
							<stop  offset="7.406294e-02" style="stop-color:#B1B1B1;stop-opacity:0.3176"/>
							<stop  offset="1" style="stop-color:#B1B1B1;stop-opacity:0.1"/>
						</linearGradient>
						<path class="st6" style='fill:url(#SVGID_2_);' d="M29.4,43.6v-9.1l15.8-9.2v9.2"/>
						
							<linearGradient id="SVGID_3_" gradientUnits="userSpaceOnUse" x1="-2993.2266" y1="32.8122" x2="-3000.4539" y2="38.0839" gradientTransform="matrix(1 0 0 1 3020.9551 0)">
							<stop  offset="0" style="stop-color:#B1B1B1;stop-opacity:0.7896"/>
							<stop  offset="1" style="stop-color:#B1B1B1;stop-opacity:0.335"/>
						</linearGradient>
						<path class="st7" style='fill:url(#SVGID_3_);' d="M17.8,37v-9.1l11.8,6.7v9.1"/>
					</g>
				</g>
				<g>
					<line class="st8" style='fill:none;stroke:#9F9A93;stroke-width:0.25;stroke-linecap:round;stroke-miterlimit:10;' x1="21.5" y1="27.9" x2="20" y2="28.7"/>
					<line class="st8" style='fill:none;stroke:#9F9A93;stroke-width:0.25;stroke-linecap:round;stroke-miterlimit:10;' x1="23.5" y1="29" x2="22" y2="29.9"/>
					<line class="st8" style='fill:none;stroke:#9F9A93;stroke-width:0.25;stroke-linecap:round;stroke-miterlimit:10;' x1="25.5" y1="30.2" x2="24" y2="31"/>
					<line class="st8" style='fill:none;stroke:#9F9A93;stroke-width:0.25;stroke-linecap:round;stroke-miterlimit:10;' x1="27.5" y1="31.3" x2="26" y2="32.2"/>
					<line class="st8" style='fill:none;stroke:#9F9A93;stroke-width:0.25;stroke-linecap:round;stroke-miterlimit:10;' x1="29.5" y1="32.5" x2="28" y2="33.3"/>
				</g>
				<g>
					<line class="st8" style='fill:none;stroke:#9F9A93;stroke-width:0.25;stroke-linecap:round;stroke-miterlimit:10;' x1="35.3" y1="19.7" x2="33.6" y2="20.6"/>
					<line class="st8" style='fill:none;stroke:#9F9A93;stroke-width:0.25;stroke-linecap:round;stroke-miterlimit:10;' x1="37.3" y1="20.8" x2="35.6" y2="21.8"/>
					<line class="st8" style='fill:none;stroke:#9F9A93;stroke-width:0.25;stroke-linecap:round;stroke-miterlimit:10;' x1="39.3" y1="22" x2="37.6" y2="22.9"/>
					<line class="st8" style='fill:none;stroke:#9F9A93;stroke-width:0.25;stroke-linecap:round;stroke-miterlimit:10;' x1="41.3" y1="23.1" x2="39.6" y2="24.1"/>
					<line class="st8" style='fill:none;stroke:#9F9A93;stroke-width:0.25;stroke-linecap:round;stroke-miterlimit:10;' x1="43.3" y1="24.3" x2="41.6" y2="25.2"/>
				</g>
			</g>
		</g>
		<g>
			<g>
				<polygon class="st3" style='fill:#FFFFFF;' points="102,14.7 102,33.4 91.4,39.4 91.4,20.8 				"/>
				<linearGradient id="SVGID_4_" gradientUnits="userSpaceOnUse" x1="91.3814" y1="27.0651" x2="102.019" y2="27.0651">
					<stop  offset="0" style="stop-color:#B1B1B1;stop-opacity:0.335"/>
					<stop  offset="7.406294e-02" style="stop-color:#B1B1B1;stop-opacity:0.3176"/>
					<stop  offset="1" style="stop-color:#B1B1B1;stop-opacity:0.1"/>
				</linearGradient>
				<polygon class="st9" style='fill:url(#SVGID_4_);' points="102,14.7 102,33.4 91.4,39.4 91.4,20.8 				"/>
			</g>
			<g>
				<polygon class="st3" style='fill:#FFFFFF;' points="33.3,27.3 33.3,46 62.6,63 62.6,44.3 				"/>
			</g>
			<polygon class="st3" style='fill:#FFFFFF;' points="97.4,42.9 97.4,24.2 62.6,44.3 62.6,63 			"/>
			<g>
				<polygon class="st10" style='fill:#4F4F4F;' points="33.3,29 62.6,46 97.4,25.9 97.4,24.2 91.4,22.4 102,16.3 102,14.7 33.3,27.4 				"/>
			</g>
			<g>
				<polygon class="st10" style='fill:#4F4F4F;' points="33.3,27.4 37.8,30 58,41.7 62.6,44.3 97.4,24.2 91.4,20.8 102,14.7 84.7,4.7 74.1,10.8 68.1,7.3 
									"/>
			</g>
			<g>
				<path class="st11" style='fill:#707070;' d="M84.7,7.5l12.4,7.2l-7,4l-3.7,2.1l3.7,2.1l2.4,1.4L62.6,41.5L38.1,27.4l29.9-17.3l4.8,2.8l1.2,0.7l1.2-0.7
					L84.7,7.5 M84.7,4.7l-10.6,6.1l-6-3.5L33.3,27.4L58,41.7l4.6,2.6l34.8-20.1l-6-3.5l10.6-6.1L84.7,4.7L84.7,4.7z"/>
			</g>
			<g>
				<linearGradient id="SVGID_5_" gradientUnits="userSpaceOnUse" x1="152.0881" y1="19.2947" x2="-53.3621" y2="70.303">
					<stop  offset="0" style="stop-color:#B1B1B1;stop-opacity:0.7896"/>
					<stop  offset="1" style="stop-color:#B1B1B1;stop-opacity:0.335"/>
				</linearGradient>
				<polygon class="st12" style='fill:url(#SVGID_5_);' points="33.3,27.3 33.3,46 62.6,63 62.6,44.3 				"/>
			</g>
			<linearGradient id="SVGID_6_" gradientUnits="userSpaceOnUse" x1="62.5921" y1="43.6279" x2="97.409" y2="43.6279">
				<stop  offset="0" style="stop-color:#B1B1B1;stop-opacity:0.335"/>
				<stop  offset="7.406294e-02" style="stop-color:#B1B1B1;stop-opacity:0.3176"/>
				<stop  offset="1" style="stop-color:#B1B1B1;stop-opacity:0.1"/>
			</linearGradient>
			<polygon class="st13" style='fill:url(#SVGID_6_);' points="97.4,42.9 97.4,24.2 62.6,44.3 62.6,63 			"/>
			<path class="st11" style='fill:#707070;' d="M58,41.7"/>
			<g>
				<g>
					<g>
						<g>
							<g>
								<g>
									<path class="st3" style='fill:#FFFFFF;' d="M47.3,26.6c0,4.8,6.8,8.7,15.1,8.7c8.4,0,15.1-3.9,15.1-8.7v-6.5H47.3V26.6z"/>
								</g>
								<g>
									<path class="st4" style='fill:#CFB36F;' d="M47.3,26.6c0,4.8,6.8,8.7,15.1,8.7c8.4,0,15.1-3.9,15.1-8.7v-6.5H47.3V26.6z"/>
								</g>
								<g>
									<linearGradient id="SVGID_7_" gradientUnits="userSpaceOnUse" x1="47.3392" y1="27.7103" x2="77.6191" y2="27.7103">
										<stop  offset="0.1166" style="stop-color:#B1B1B1"/>
										<stop  offset="0.1657" style="stop-color:#B1B1B1;stop-opacity:0.9259"/>
										<stop  offset="0.7801" style="stop-color:#B1B1B1;stop-opacity:0"/>
									</linearGradient>
									<path class="st14" style='fill:url(#SVGID_7_);' d="M47.3,26.6c0,4.8,6.8,8.7,15.1,8.7c8.4,0,15.1-3.9,15.1-8.7v-6.5H47.3V26.6z"/>
								</g>
								<ellipse class="st3" style='fill:#FFFFFF;' cx="62.5" cy="20.1" rx="15.1" ry="8.7"/>
								<linearGradient id="SVGID_8_" gradientUnits="userSpaceOnUse" x1="75.3246" y1="16.3863" x2="45.839" y2="24.9152">
									<stop  offset="0.5021" style="stop-color:#B1B1B1"/>
									<stop  offset="1" style="stop-color:#707070"/>
								</linearGradient>
								<ellipse class="st15" style='fill:url(#SVGID_8_);stroke:#FFFFFF;stroke-miterlimit:10;' cx="62.5" cy="20.1" rx="15.1" ry="8.7"/>
							</g>
						</g>
					</g>
					<g>
						<path class="st3" style='fill:#FFFFFF;' d="M45.5,15.5v5.5c0,5.4,7.6,9.8,16.9,9.8c9.4,0,16.9-4.4,16.9-9.8v-5.5H45.5z"/>
						<linearGradient id="SVGID_9_" gradientUnits="userSpaceOnUse" x1="45.5427" y1="23.179" x2="79.416" y2="23.179">
							<stop  offset="0.1166" style="stop-color:#B1B1B1"/>
							<stop  offset="0.1657" style="stop-color:#B1B1B1;stop-opacity:0.9259"/>
							<stop  offset="0.7801" style="stop-color:#B1B1B1;stop-opacity:0"/>
						</linearGradient>
						<path class="st16" style='fill:url(#SVGID_9_);' d="M45.5,15.5v5.5c0,5.4,7.6,9.8,16.9,9.8c9.4,0,16.9-4.4,16.9-9.8v-5.5H45.5z"/>
					</g>
				</g>
			</g>
			<g>
				<ellipse class="st4" style='fill:#CFB36F;' cx="62.5" cy="15.6" rx="16.9" ry="9.7"/>
				<ellipse class="st3" style='fill:#FFFFFF;' cx="62.5" cy="15.6" rx="10.8" ry="6.2"/>
			</g>
		</g>
	</g>
	<g>
		<path class="st2" style='fill:#A19C95;' d="M78.9,70.7l1.6-0.5l0-1l1.5-0.3l-1-1l-1.8,0.1l0.4-0.6L78,65.8L76.4,66L76,65.4l-1.8-0.2l-1.1,1.2l-1.4,0.2
			L71,66l-2.2,0.6L68.6,68l-1.2,0.1l-0.7,1.1l2.8,0.5l-0.3,1l1.2,1l1.3,0.6l1.5-0.6l1.1,0.5l2.7-0.4L78.9,70.7z"/>
		<g>
			<polygon class="st17" style='fill:#57352F;' points="77.8,70.5 78.6,54.5 78.7,70.6 			"/>
			<polygon class="st17" style='fill:#57352F;' points="77.9,66.8 76,61.6 78.5,66.5 			"/>
			<polygon class="st18" style='fill:#568E48;' points="73.8,62.5 72.2,60.2 72.8,58.8 71.2,57.8 72,56.1 73.5,54.4 75.5,54 75.7,51 78,51 78.5,52.1 
				81.2,51.3 83,53 82.3,54 83.1,55.2 85.7,55.5 85.8,57.3 84.7,58.2 85.7,59.5 83.4,61.9 82.2,61.9 82.8,63.6 81.2,65.2 80.1,64 
				78.2,64.7 76.8,63.4 			"/>
			<g>
				<polygon class="st18" style='fill:#568E48;' points="78.1,53.3 76.9,52.1 77.3,51 75.7,51 75.5,54 77.7,54.6 				"/>
				<polygon class="st0" style='fill:#346F2E;' points="78.6,61.7 76.8,62.2 76.5,60.9 74.9,60.5 74.7,59 77,59.1 77.6,58.2 76.9,56.3 75.8,56.9 
					74.7,55.9 75.5,54 73.5,54.4 72,56.1 71.2,57.8 72.8,58.8 72.2,60.2 73.8,62.5 76.8,63.4 78.2,64.7 80.1,64 81.2,65.2 
					80.7,62.6 				"/>
			</g>
		</g>
	</g>
</g>
</svg>
