<?xml version="1.0" encoding="UTF-8"?>
<svg width="35px" height="34px" viewBox="0 0 35 34" version="1.1" xmlns="http://www.w3.org/2000/svg" xmlns:xlink="http://www.w3.org/1999/xlink">
    <!-- Generator: Sketch 49.3 (51167) - http://www.bohemiancoding.com/sketch -->
    <title>33</title>
    <desc>Created with Sketch.</desc>
    <defs></defs>
    <g id="Page-1" stroke="none" stroke-width="1" fill="none" fill-rule="evenodd">
        <g id="Artboard" transform="translate(-7.000000, -10.000000)" fill="#FFFFFF" fill-rule="nonzero">
            <g id="33" transform="translate(7.000000, 10.000000)">
                <path d="M33.5062241,8.26553299 L31.5165145,8.26553299 C30.7555851,6.67237116 30.85039,6.88388983 29.8666888,5.46291058 L30.8648299,3.73590643 C31.2778091,3.0214832 31.0329295,2.10719274 30.3183071,1.69451224 L27.7304896,0.200736307 C27.0160664,-0.21154585 26.1026722,0.0331346477 25.6901909,0.747458299 L24.7054938,2.45205581 C24.163751,2.40395622 23.5242158,2.33534212 23.0497925,2.33534212 C22.5753693,2.33534212 21.935834,2.40385664 21.3940913,2.45205581 L20.409195,0.746860789 C19.9967137,0.0328358925 19.0837178,-0.211944191 18.3692946,0.200039212 L15.7807801,1.69311805 C15.0656598,2.10540021 14.8206805,3.020089 15.2339585,3.73461183 L16.2329959,5.46271141 C15.2371452,6.90141681 15.3342407,6.69338361 14.5830705,8.26553299 L12.4937759,8.26553299 C11.6688133,8.26553299 11,8.97776535 11,9.80272801 L11,12.7902799 C11,13.6151429 11.6688133,14.2406367 12.4937759,14.2406367 L14.5830705,14.2406367 C15.344,15.8337985 15.249195,15.7090185 16.2328963,17.1300973 L15.2347552,18.8571015 C14.8217759,19.5715247 15.0666556,20.4858151 15.781278,20.8984956 L18.3690954,22.3922716 C19.0835187,22.8045537 19.9969129,22.5598732 20.4093942,21.8455496 L21.3940913,20.1409521 C21.935834,20.1890517 22.5753693,20.2576658 23.0497925,20.2576658 C23.5242158,20.2576658 24.163751,20.1891512 24.7054938,20.1409521 L25.69039,21.8460475 C26.1028714,22.5600724 27.0158672,22.8048525 27.7302905,22.3928691 L30.3189046,20.8995911 C31.0340249,20.4873089 31.2790041,19.5726201 30.8657261,18.8580973 L29.8666888,17.1299977 C30.8624398,15.6914915 30.765444,15.8127861 31.5165145,14.2405371 L33.5062241,14.2405371 C34.3311867,14.2405371 35,13.6150434 35,12.7901803 L35,9.80262842 C35,8.97766577 34.3311867,8.26553299 33.5062241,8.26553299 Z M23.0776391,17.3298905 C19.765996,17.3298905 17.0719995,14.635894 17.0719995,11.3242509 C17.0719995,8.0126078 19.765996,5.31861136 23.0776391,5.31861136 C26.3892822,5.31861136 29.0832786,8.0126078 29.0832786,11.3242509 C29.0832786,14.6360275 26.3892822,17.3298905 23.0776391,17.3298905 Z" id="Shape-Copy-9"></path>
                <path d="M21.9577953,27.0243098 L20.9890486,27.0243098 C20.6185685,26.2486337 20.664727,26.3516176 20.1857841,25.6597734 L20.6717574,24.8189323 C20.8728281,24.471095 20.7536015,24.0259467 20.4056672,23.8250215 L19.1457147,23.0977342 C18.7978775,22.8970029 18.3531655,23.0161325 18.1523372,23.3639213 L17.6729095,24.1938531 C17.4091466,24.1704345 17.0977707,24.1370277 16.8667842,24.1370277 C16.6357978,24.1370277 16.3244218,24.170386 16.060659,24.1938531 L15.5811342,23.3636304 C15.3803059,23.0159871 14.935788,22.8968089 14.5879507,23.0973948 L13.3276588,23.8243427 C12.9794821,24.025074 12.860207,24.4704162 13.0614231,24.818302 L13.5478329,25.6596764 C13.0629747,26.3601511 13.1102483,26.2588642 12.7445198,27.0243098 L11.7272873,27.0243098 C11.3256308,27.0243098 11,27.3710804 11,27.7727369 L11,29.2273115 C11,29.6289196 11.3256308,29.933459 11.7272873,29.933459 L12.7445198,29.933459 C13.115,30.7091352 13.0688415,30.6483824 13.5477844,31.3402751 L13.061811,32.1811162 C12.8607403,32.5289535 12.9799669,32.9741018 13.3279012,33.175027 L14.5878537,33.9023143 C14.935691,34.1030456 15.3804029,33.9839159 15.5812312,33.6361272 L16.060659,32.8061954 C16.3244218,32.829614 16.6357978,32.8630208 16.8667842,32.8630208 C17.0977707,32.8630208 17.4091466,32.8296625 17.6729095,32.8061954 L18.1524342,33.6363696 C18.3532625,33.9840129 18.7977805,34.1031911 19.1456178,33.9026052 L20.4059582,33.1755603 C20.7541348,32.9748291 20.87341,32.5294868 20.6721938,32.181601 L20.1857841,31.3402266 C20.6705938,30.6398489 20.6233686,30.6989047 20.9890486,29.9334105 L21.9577953,29.9334105 C22.3594518,29.9334105 22.6850826,29.6288711 22.6850826,29.2272631 L22.6850826,27.7726885 C22.6850826,27.3710319 22.3594518,27.0243098 21.9577953,27.0243098 Z M16.8803421,31.4375501 C15.2679745,31.4375501 13.9563257,30.1259013 13.9563257,28.5135336 C13.9563257,26.901166 15.2679745,25.5895172 16.8803421,25.5895172 C18.4927097,25.5895172 19.8043585,26.901166 19.8043585,28.5135336 C19.8043585,30.1259663 18.4927097,31.4375501 16.8803421,31.4375501 Z" id="Shape-Copy-10"></path>
                <path d="M12.833314,17.8303619 L11.6987582,17.8303619 C11.2648672,16.9219222 11.3189262,17.0425327 10.7580081,16.2322736 L11.3271599,15.2475155 C11.5626455,14.8401429 11.4230123,14.3188038 11.0155262,14.0834885 L9.5399222,13.2317198 C9.13254966,12.9966317 8.61172153,13.1361514 8.37651982,13.5434672 L7.81503394,14.5154487 C7.50612585,14.4880218 7.14145531,14.4488972 6.8709336,14.4488972 C6.60041188,14.4488972 6.23574134,14.487965 5.92683325,14.5154487 L5.3652338,13.5431265 C5.13003209,13.1359811 4.6094311,12.9964046 4.20205856,13.2313224 L2.7260571,14.0826935 C2.31828707,14.3177816 2.17859701,14.839348 2.414253,15.2467773 L2.98391586,16.23216 C2.4160701,17.0525268 2.47143507,16.9339038 2.04310901,17.8303619 L0.851768628,17.8303619 C0.381365207,17.8303619 0,18.2364852 0,18.7068886 L0,20.4104258 C0,20.8807725 0.381365207,21.2374364 0.851768628,21.2374364 L2.04310901,21.2374364 C2.47699995,22.145876 2.42294104,22.074725 2.98385907,22.8850408 L2.41470727,23.8697989 C2.17922164,24.2771715 2.31885491,24.7985107 2.72634102,25.033826 L4.20194499,25.8855946 C4.60931754,26.1206827 5.13014566,25.981163 5.36534737,25.5738473 L5.92683325,24.6018657 C6.23574134,24.6292926 6.60041188,24.6684172 6.8709336,24.6684172 C7.14145531,24.6684172 7.50612585,24.6293494 7.81503394,24.6018657 L8.37663339,25.5741312 C8.6118351,25.9812766 9.13243609,26.1208531 9.53980863,25.8859353 L11.0158669,25.0344506 C11.4236369,24.7993624 11.563327,24.2777961 11.327671,23.8703668 L10.7580081,22.8849841 C11.3257971,22.0647309 11.2704889,22.1338945 11.6987582,21.2373796 L12.833314,21.2373796 C13.3037174,21.2373796 13.6850826,20.8807157 13.6850826,20.4103691 L13.6850826,18.7068318 C13.6850826,18.2364284 13.3037174,17.8303619 12.833314,17.8303619 Z M6.88681203,22.9989652 C4.99847413,22.9989652 3.46232564,21.4628168 3.46232564,19.5744789 C3.46232564,17.686141 4.99847413,16.1499925 6.88681203,16.1499925 C8.77514992,16.1499925 10.3112984,17.686141 10.3112984,19.5744789 C10.3112984,21.4628929 8.77514992,22.9989652 6.88681203,22.9989652 Z" id="Shape-Copy-11"></path>
            </g>
        </g>
    </g>
</svg>