<?xml version="1.0" encoding="UTF-8"?>
<svg width="37px" height="34px" viewBox="0 0 37 34" version="1.1" xmlns="http://www.w3.org/2000/svg" xmlns:xlink="http://www.w3.org/1999/xlink">
    <!-- Generator: Sketch 49.3 (51167) - http://www.bohemiancoding.com/sketch -->
    <title>77</title>
    <desc>Created with Sketch.</desc>
    <defs></defs>
    <g id="Page-1" stroke="none" stroke-width="1" fill="none" fill-rule="evenodd">
        <g id="Artboard" transform="translate(-6.000000, -10.000000)">
            <g id="77" transform="translate(6.000000, 10.000000)">
                <path d="M33.8695492,12.4387758 L30.8752412,12.4387758 C29.7301208,10.0412314 29.8727925,10.3595452 28.3924234,8.22111776 L29.894523,5.62215439 C30.5160142,4.54702101 30.1474955,3.17110804 29.0720624,2.55006639 L25.1776637,0.302087468 C24.1025303,-0.318354716 22.7279661,0.049864232 22.1072242,1.12484775 L20.6253565,3.69009144 C19.8100895,3.61770652 18.8476548,3.51444935 18.1336967,3.51444935 C18.1336967,3.51444935 18.1336967,30.4857005 18.1336967,30.4857005 C18.8476548,30.4857005 19.8100895,30.3825932 20.6253565,30.3100584 L22.107524,32.8760514 C22.7282659,33.9505854 24.1022306,34.3189542 25.177364,33.6989616 L29.0729616,31.451732 C30.149144,30.8312898 30.5178126,29.4547774 29.8958717,28.3794941 L28.3924234,25.7788822 C29.8909262,23.6140785 29.7449574,23.7966144 30.8752412,21.4305417 L33.8695492,21.4305417 C35.111033,21.4305417 36.1175281,20.489238 36.1175281,19.247904 L36.1175281,14.7519461 C36.1175281,13.5104623 35.111033,12.4387758 33.8695492,12.4387758 Z M18.1336967,26 C18.1336967,26 18.1336967,8 18.1336967,8 C23.1173785,8 27.2134718,12.0581495 27.2134718,17.0418313 C27.2134718,22.0257139 23.1173785,26 18.1336967,26 Z" id="Shape-Copy-12" fill="#FFFFFF" fill-rule="nonzero"></path>
                <path d="M15.4918227,32.4275567 C15.491944,32.4669768 15.4920649,32.5057316 15.4921855,32.5438125 C15.4936758,33.0144117 15.4950968,33.378298 15.4964206,33.6261747 C15.4974161,33.8001903 15.4974161,33.8001903 15.4983912,33.9168207 C15.2495442,33.7669552 15.2495442,33.7669552 17.0000841,35.5 L17.0000841,32.5 C16.4912308,32.5 15.9881046,32.4754799 15.4918227,32.4275567 Z" id="Oval-17" stroke="#FFFFFF" stroke-width="3"></path>
                <path d="M15.5,23 C15.5,23 15.5,11 15.5,11 C8.04415588,11 2,13.6862915 2,17 C2,20.3137085 8.04415588,23 15.5,23 Z" id="Oval-18" stroke="#FFFFFF" stroke-width="3"></path>
                <path d="M15.4862069,31.1753391 C15.4862069,30.573925 15.4862069,29.6957398 15.4862069,28.3137085 C15.4862069,23.418278 15.4862069,23.418278 15.4862069,17 C15.4862069,13.1333665 15.4887935,9.30435488 15.4931045,5.6845051 C15.4943368,4.64978473 15.495641,3.69285637 15.4969584,2.82540157 C12.0346363,4.27904669 8.5,10.3972221 8.5,17 C8.5,23.6064952 12.0276961,29.7233635 15.4862069,31.1753391 Z" id="Oval-19" stroke="#FFFFFF" stroke-width="3"></path>
            </g>
        </g>
    </g>
</svg>