<?xml version="1.0" encoding="utf-8"?>
<!-- Generator: Adobe Illustrator 21.0.2, SVG Export Plug-In . SVG Version: 6.00 Build 0)  -->
<svg version="1.1" baseProfile="basic" id="Слой_1"
	 xmlns="http://www.w3.org/2000/svg" xmlns:xlink="http://www.w3.org/1999/xlink" x="0px" y="0px" viewBox="0 0 283 44"
	 xml:space="preserve">
<g>
	<g>
		
			<linearGradient id="SVGID_1_" gradientUnits="userSpaceOnUse" x1="22.739" y1="26.6722" x2="-4.5396" y2="21.8622" gradientTransform="matrix(1 0 0 -1 0 46)">
			<stop  offset="0" style="stop-color:#6492CD"/>
			<stop  offset="0.4579" style="stop-color:#4A6097"/>
			<stop  offset="0.81" style="stop-color:#393F75"/>
			<stop  offset="1" style="stop-color:#333368"/>
		</linearGradient>
		<path fill="url(#SVGID_1_)" d="M9.8,17.8c-2.1,1.2-4.6,2-5.5,4.1c-0.4,0.9,0.2,2,1,3.1c0.6,0.8,1.3,1.5,1.9,2.2
			c-0.5-0.3-1.1-0.6-1.6-0.9c-1-1-1.9-2-2.9-3c-0.2-0.8-0.4-1.6-0.6-2.4c1.2-1.2,2.4-2.5,3.6-3.7C7.1,17.5,8.4,17.7,9.8,17.8z"/>
		
			<linearGradient id="SVGID_2_" gradientUnits="userSpaceOnUse" x1="129.6911" y1="33.4469" x2="-13.3917" y2="15.8785" gradientTransform="matrix(1 0 0 -1 0 46)">
			<stop  offset="0" style="stop-color:#6492CD"/>
			<stop  offset="0.4579" style="stop-color:#4A6097"/>
			<stop  offset="0.81" style="stop-color:#393F75"/>
			<stop  offset="1" style="stop-color:#333368"/>
		</linearGradient>
		<path fill="url(#SVGID_2_)" d="M36.7,17c3.5,1.4,8.7,2.6,11.5,4.9c1.5,1.2,1.8,2.8,1.3,4.1c-0.3,1-1.1,1.7-2.4,2.5
			c-1.4,0.5-3.1,1-4.7,1.5c1.2-0.1,2.4-0.2,3.6-0.2c1.9-0.8,3-1.8,4.2-2.8c0.2-0.9,0.5-1.7,0.5-2.6c0-0.4-0.2-0.7-0.3-1
			c-0.4-0.5-0.3-0.6-1-1.4c-1.9-2-3.7-2.6-5.8-3.8C41.7,17.8,38.5,17.3,36.7,17z"/>
		
			<linearGradient id="SVGID_3_" gradientUnits="userSpaceOnUse" x1="45.6734" y1="24.8627" x2="11.2549" y2="23.6606" gradientTransform="matrix(1 0 0 -1 0 46)">
			<stop  offset="0" style="stop-color:#6492CD"/>
			<stop  offset="0.4579" style="stop-color:#4A6097"/>
			<stop  offset="0.81" style="stop-color:#393F75"/>
			<stop  offset="1" style="stop-color:#333368"/>
		</linearGradient>
		<path fill="url(#SVGID_3_)" d="M50.9,26.9c-0.6,1.5-2.7,2.5-4.2,2.9C42,31.3,36.2,31.2,30.9,31c-0.6-0.1-0.6-0.5,0.1-0.5
			c5.3,0.2,10.7,0,15.5-1.5c2.1-0.7,4.4-2.9,3.4-6.2c-3.3-4.3-13.9-6.1-20.6-6.5c-8.1-0.5-16.1-0.1-22.5,2.7c-2,0.9-3.7,2.6-3.1,4.3
			C4.1,24.5,5.8,26,7,27c0.4,0.3,0.3,0.6-0.2,0.4c-2.5-1.6-5.9-3.9-6.7-6.1c-1.4-3.6,2.4-6.5,7-7.5c7.3-1.6,14.6-1.9,22.9-0.5
			c4.6,0.8,8.8,2.1,12.3,3.9c1.5,0.8,5.7,3.1,7.7,5.7C51.1,24.3,51.4,25.7,50.9,26.9z"/>
	</g>
	<g>
		
			<linearGradient id="SVGID_4_" gradientUnits="userSpaceOnUse" x1="31.6748" y1="11.1254" x2="3.851" y2="7.7091" gradientTransform="matrix(1 0 0 -1 0 46)">
			<stop  offset="0" style="stop-color:#6492CD"/>
			<stop  offset="0.4579" style="stop-color:#4A6097"/>
			<stop  offset="0.81" style="stop-color:#393F75"/>
			<stop  offset="1" style="stop-color:#333368"/>
		</linearGradient>
		<path fill="url(#SVGID_4_)" d="M13,32.6c-0.1,2.4-0.7,5,0.6,6.9c0.5,0.8,1.8,0.9,3.2,0.8c1-0.1,1.9-0.3,2.9-0.5
			c-0.5,0.3-1.1,0.6-1.6,0.9c-1.3,0.3-2.7,0.6-4,0.9c-0.8-0.3-1.5-0.5-2.3-0.8c-0.4-1.7-0.8-3.4-1.2-5.1
			C11.3,34.7,12.2,33.7,13,32.6z"/>
		
			<linearGradient id="SVGID_5_" gradientUnits="userSpaceOnUse" x1="41.2231" y1="39.6855" x2="30.1892" y2="38.7201" gradientTransform="matrix(1 0 0 -1 0 46)">
			<stop  offset="0" style="stop-color:#6492CD"/>
			<stop  offset="0.4579" style="stop-color:#4A6097"/>
			<stop  offset="0.81" style="stop-color:#393F75"/>
			<stop  offset="1" style="stop-color:#333368"/>
		</linearGradient>
		<path fill="url(#SVGID_5_)" d="M26.6,9.4c3.1-2.2,6.9-5.9,10.2-7.1c1.8-0.6,3.3,0,4.2,1.1c0.7,0.9,0.9,1.8,0.8,3.3
			c-0.2,1.6-0.7,3.2-1.2,4.9c0.6-1.1,1.2-2.1,1.7-3.2c0.4-2,0.1-3.5-0.1-5c-0.6-0.6-1.2-1.3-1.9-1.8c-0.3-0.2-0.7-0.2-1-0.3
			c-0.7,0.1-0.7-0.1-1.7,0.2c-2.7,0.6-4.2,1.7-6.3,2.8C30,5.6,27.9,8.1,26.6,9.4z"/>
		
			<linearGradient id="SVGID_6_" gradientUnits="userSpaceOnUse" x1="41.6338" y1="26.76" x2="14.0376" y2="22.3892" gradientTransform="matrix(1 0 0 -1 0 46)">
			<stop  offset="0" style="stop-color:#6492CD"/>
			<stop  offset="0.4579" style="stop-color:#4A6097"/>
			<stop  offset="0.81" style="stop-color:#393F75"/>
			<stop  offset="1" style="stop-color:#333368"/>
		</linearGradient>
		<path fill="url(#SVGID_6_)" d="M42.6,2.6c1,1.3,0.7,3.6,0.3,5.1c-1.3,4.8-4.5,9.7-7.4,14c-0.4,0.5-0.7,0.2-0.4-0.4
			c3-4.4,5.7-9.1,6.9-14c0.6-2.2-0.1-5.3-3.4-6.2c-5.4,0.5-12.5,8.5-16.5,14c-4.7,6.6-8.7,13.6-9.6,20.5c-0.3,2.2,0.2,4.5,2,4.9
			c1.3,0.3,3.4-0.3,4.9-0.9c0.5-0.2,0.7,0.1,0.3,0.4c-2.7,1.3-6.4,2.9-8.7,2.5c-3.8-0.7-4.2-5.5-2.6-10c2.5-7,6.2-13.3,11.7-19.6
			c3.1-3.5,6.5-6.3,9.9-8.4c1.5-0.9,5.7-3.2,9-3.5C40.5,1,41.8,1.6,42.6,2.6z"/>
	</g>
	<g>
		
			<linearGradient id="SVGID_7_" gradientUnits="userSpaceOnUse" x1="18.22" y1="17.84" x2="49.3656" y2="4.6195" gradientTransform="matrix(1 0 0 -1 0 46)">
			<stop  offset="0" style="stop-color:#B92F1F"/>
			<stop  offset="1" style="stop-color:#6E1913"/>
		</linearGradient>
		<path fill="url(#SVGID_7_)" d="M32.2,36.9c2.3,0.8,4.6,2.1,6.8,1.4c0.9-0.3,1.4-1.5,1.6-2.8c0.2-1,0.2-1.9,0.4-2.9
			c0.1,0.6,0.3,1.2,0.4,1.8c-0.1,1.4-0.2,2.7-0.3,4.1c-0.5,0.7-0.9,1.3-1.4,2c-1.7-0.1-3.5-0.2-5.2-0.2C33.8,39.2,33,38,32.2,36.9z"
			/>
		
			<linearGradient id="SVGID_8_" gradientUnits="userSpaceOnUse" x1="-38.37" y1="75.5025" x2="49.6882" y2="11.5245" gradientTransform="matrix(1 0 0 -1 0 46)">
			<stop  offset="0" style="stop-color:#B92F1F"/>
			<stop  offset="1" style="stop-color:#6E1913"/>
		</linearGradient>
		<path fill="url(#SVGID_8_)" d="M13.8,17.4c-1.3-3.6-3.8-8.2-4-11.8c-0.1-2,0.9-3.2,2.2-3.8c1-0.4,2-0.3,3.4,0.1
			c1.4,0.7,2.9,1.6,4.3,2.5c-0.9-0.9-1.7-1.7-2.6-2.6c-1.9-0.9-3.3-1.1-4.8-1.3c-0.7,0.4-1.6,0.8-2.2,1.3c-0.3,0.4-0.4,0.7-0.6,1
			C9.3,3.5,9.2,3.5,9.1,4.5c-0.2,2.8,0.5,4.5,1,6.9C11,13,12.8,15.8,13.8,17.4z"/>
		
			<linearGradient id="SVGID_9_" gradientUnits="userSpaceOnUse" x1="52.6462" y1="28.9285" x2="-169.3855" y2="-10.2216" gradientTransform="matrix(1 0 0 -1 0 46)">
			<stop  offset="0" style="stop-color:#B92F1F"/>
			<stop  offset="1" style="stop-color:#912218"/>
		</linearGradient>
		<path fill="url(#SVGID_9_)" d="M27,33c2.5,2.2,5.2,4.1,8.1,5.3c2,0.9,4.4,1.1,5.3-0.6c0.6-1.1,0.6-3.3,0.5-4.9
			c0-0.5,0.3-0.7,0.4-0.2c0.5,2.9,1,7-0.1,9.1c-1.7,3.4-6.5,2.5-10.3-0.3c-1.4-1-2.7-2-3.9-3.1L27,33L27,33z M27,11.9v-0.8
			c0.4,0.4,0.7,0.8,1,1.3s0,0.8-0.5,0.2C27.4,12.4,27.2,12.1,27,11.9z M11.7,0.1c1.5-0.5,3.6,0.4,5,1.2c2.9,1.7,5.6,4.4,8,7.1
			c-0.1,0.1-0.3,0.2-0.4,0.4c-2.5-2.7-5.2-5-8.2-6.8C14.2,0.9,11,0.6,9.3,3.6C8.2,8.9,13.9,18,18.1,23.3c2.8,3.5,5.7,6.9,8.9,9.7
			v5.3c-4.3-3.7-8.1-8.2-11.6-13.7c-2.5-3.9-4.3-8-5.3-11.8c-0.4-1.6-1.5-6.4-0.8-9.6C9.6,1.7,10.5,0.6,11.7,0.1L11.7,0.1z M27,11.1
			c-0.3-0.3-0.6-0.7-0.8-1l-0.3,0.4c0.4,0.5,0.8,0.9,1.2,1.4v-0.8H27z"/>
	</g>
	<g>
		<polygon fill="#5A7EB8" points="39.4,15.8 39.3,15.8 39.4,15.9 		"/>
		<polygon fill="#597DB7" points="39.4,15.9 39.3,15.8 39,15.7 39,16.5 		"/>
		<polygon fill="#597CB6" points="38.7,17 39,16.5 39,15.7 38.7,15.6 		"/>
		<path fill="#587BB5" d="M38.4,17.6l0.3-0.5l-0.1-1.5h-0.1c0,0-0.2-0.1-0.3-0.1L38.4,17.6z"/>
		<path fill="#587AB4" d="M38,17.7l0.2,0.1l0.1-0.2l-0.1-2.2h-0.1L38,15.9V17.7z"/>
		<polygon fill="#5779B2" points="38,15.9 37.7,16.6 37.7,17.5 38,17.7 		"/>
		<polygon fill="#5678B1" points="37.7,16.6 37.3,17.2 37.4,17.4 37.7,17.5 		"/>
		<polygon fill="#5677B0" points="37.3,17.4 37.4,17.4 37.3,17.2 		"/>
	</g>
</g>
<path fill="#3C3C3B" d="M240.8,22.9c-0.4,1.2-0.8,2.4-1.2,3.6c-0.4,1.2-0.7,2.3-1,3.4h-0.1c-0.3-1.1-0.5-2.2-0.9-3.4
	c-0.3-1.2-0.7-2.4-1.1-3.6l-2.9-9.2h-2.6l6.1,18.8h2.7l6.7-18.8H244L240.8,22.9z M248.6,32.4h2.4V13.6h-2.4V32.4z M258.7,17.4
	c0.6-0.7,1.4-1.2,2.3-1.5c0.9-0.3,1.9-0.5,3-0.5c0.8,0,1.5,0.1,2.1,0.2c0.6,0.1,1.2,0.3,1.7,0.6l0.6-2c-0.2-0.1-0.5-0.2-0.9-0.4
	c-0.4-0.1-0.9-0.2-1.5-0.3c-0.6-0.1-1.3-0.1-2.1-0.1c-1.5,0-2.8,0.2-4,0.7c-1.2,0.5-2.2,1.1-3.1,2c-0.9,0.9-1.5,1.9-2,3.1
	c-0.5,1.2-0.7,2.5-0.7,4c0,1.5,0.2,2.9,0.7,4.1c0.5,1.2,1.1,2.2,2,3c0.8,0.8,1.8,1.4,2.9,1.8c1.1,0.4,2.3,0.6,3.7,0.6
	c0.8,0,1.5-0.1,2.1-0.1c0.6-0.1,1.2-0.2,1.7-0.3c0.5-0.1,0.9-0.3,1.2-0.4l-0.5-1.9c-0.3,0.2-0.7,0.3-1.1,0.4
	c-0.4,0.1-0.9,0.2-1.4,0.3c-0.5,0.1-1,0.1-1.5,0.1c-1.1,0-2.2-0.2-3.1-0.5c-0.9-0.4-1.6-0.9-2.3-1.5c-0.6-0.7-1.1-1.5-1.4-2.4
	c-0.3-0.9-0.5-2-0.5-3.1c0-1.2,0.2-2.3,0.5-3.3C257.6,18.8,258.1,18,258.7,17.4z M273.9,30.3v-6.8h7.3v-2h-7.3v-5.9h7.7v-2h-10.1
	v18.8H282v-2H273.9z M228.4,27.2c-0.2-1-0.6-1.8-1-2.4c-0.4-0.6-1-1.1-1.8-1.4v-0.1c0.7-0.2,1.3-0.6,1.8-1c0.5-0.4,1-1,1.3-1.6
	c0.3-0.6,0.5-1.4,0.5-2.2c0-0.7-0.1-1.4-0.4-2c-0.3-0.6-0.6-1.1-1.1-1.6c-0.4-0.4-0.8-0.6-1.3-0.9c-0.5-0.2-1.1-0.4-1.8-0.5
	c-0.4-0.1-0.8-0.1-1.2-0.1c-0.4,0-0.7,0-1.1,0c-0.6,0-1.1,0-1.7,0c-0.6,0-1.1,0.1-1.6,0.1c-0.5,0.1-1,0.1-1.4,0.2v18.5h2.4v-8.1h2.3
	c0.4,0,0.7,0.1,1.1,0.1c0.3,0.1,0.5,0.2,0.8,0.3c0.5,0.2,0.9,0.6,1.2,1.2c0.3,0.5,0.6,1.2,0.7,2.1c0.3,1.2,0.5,2.1,0.7,2.9
	c0.2,0.8,0.4,1.3,0.5,1.6h2.5c-0.2-0.4-0.4-1-0.6-1.9C229,29.6,228.7,28.5,228.4,27.2z M224.8,22c-0.4,0.2-0.9,0.3-1.4,0.4
	c-0.3,0-0.6,0.1-0.9,0.1h-2.5v-6.9c0.2-0.1,0.5-0.1,0.9-0.2c0.4,0,0.9-0.1,1.5-0.1c0.3,0,0.7,0,1,0.1c0.5,0.1,0.9,0.2,1.3,0.3
	c0.6,0.2,1.1,0.6,1.5,1.1c0.4,0.5,0.5,1.2,0.5,2c0,0.7-0.2,1.3-0.5,1.9C225.9,21.3,225.4,21.7,224.8,22z M180.1,13.6l-2,6.2
	c-0.2,0.7-0.4,1.4-0.6,2.2c-0.2,0.8-0.4,1.5-0.6,2.3c-0.2,0.8-0.4,1.5-0.6,2.3h-0.1c-0.1-0.7-0.3-1.5-0.5-2.2
	c-0.2-0.8-0.4-1.5-0.5-2.3c-0.2-0.8-0.4-1.5-0.6-2.2l-1.8-6.3h-5.7l-1.2,18.8h3.9l0.3-7.1c0-0.8,0.1-1.6,0.1-2.5
	c0-0.9,0.1-1.8,0.1-2.7c0-0.9,0.1-1.8,0.1-2.6h0.1c0.1,0.8,0.3,1.7,0.5,2.5c0.2,0.8,0.4,1.7,0.6,2.5c0.2,0.8,0.4,1.6,0.6,2.4l2,7.2
	h3.3l2.3-7.3c0.2-0.7,0.5-1.5,0.7-2.3c0.2-0.8,0.5-1.6,0.7-2.5c0.2-0.8,0.4-1.7,0.6-2.5h0.1c0,0.9,0,1.8,0,2.7c0,0.9,0,1.8,0.1,2.6
	c0,0.8,0.1,1.6,0.1,2.4l0.3,7.2h4.2l-1-18.8H180.1z M198.5,23.1c-0.7-0.5-1.6-1-2.7-1.4c-0.9-0.3-1.6-0.7-2.1-1
	c-0.6-0.3-1-0.7-1.2-1.1c-0.3-0.4-0.4-0.9-0.4-1.5c0-0.3,0.1-0.7,0.2-1c0.1-0.3,0.3-0.6,0.6-0.9c0.3-0.3,0.6-0.5,1.1-0.7
	c0.4-0.2,1-0.3,1.6-0.3c0.6,0,1.1,0.1,1.5,0.2c0.5,0.1,0.9,0.2,1.2,0.4c0.3,0.1,0.6,0.3,0.8,0.4l0.7-2c-0.3-0.2-0.6-0.3-1-0.4
	c-0.4-0.1-0.9-0.3-1.4-0.3c-0.5-0.1-1.1-0.1-1.7-0.1c-0.9,0-1.7,0.1-2.5,0.4c-0.7,0.3-1.4,0.6-1.9,1.1c-0.5,0.5-0.9,1-1.2,1.6
	c-0.3,0.6-0.4,1.3-0.4,2c0,0.9,0.2,1.6,0.6,2.3c0.4,0.7,1,1.2,1.7,1.7c0.7,0.5,1.6,0.9,2.6,1.3c0.8,0.3,1.5,0.7,2,1
	c0.5,0.4,0.9,0.7,1.1,1.2c0.2,0.4,0.4,1,0.4,1.5c0,0.6-0.2,1.2-0.5,1.7c-0.3,0.5-0.8,0.9-1.3,1.1c-0.6,0.3-1.3,0.4-2.1,0.4
	c-0.6,0-1.1-0.1-1.6-0.2c-0.5-0.1-1-0.3-1.5-0.4c-0.5-0.2-0.9-0.4-1.2-0.6l-0.6,2c0.3,0.2,0.8,0.4,1.3,0.6c0.5,0.2,1.1,0.3,1.7,0.4
	c0.6,0.1,1.2,0.2,1.8,0.2c1.1,0,2.1-0.2,2.9-0.4c0.8-0.3,1.5-0.7,2.1-1.2c0.5-0.5,1-1.1,1.2-1.7c0.3-0.6,0.4-1.3,0.4-2.1
	c0-0.9-0.2-1.7-0.5-2.4C199.7,24.2,199.2,23.6,198.5,23.1z M206.4,23.6h7.3v-2h-7.3v-5.9h7.7v-2h-10.1v18.8h10.6v-2h-8.1V23.6z
	 M162.1,17.2c-0.5-0.8-1.1-1.5-1.8-2.1c-0.7-0.6-1.5-1-2.5-1.4c-0.9-0.3-2-0.5-3.1-0.5h-0.1c-1.3,0-2.6,0.3-3.7,0.7
	c-1.1,0.5-2.1,1.2-2.9,2.1c-0.8,0.9-1.4,1.9-1.8,3.1c-0.4,1.2-0.6,2.5-0.6,3.9c0,1.1,0.1,2.1,0.4,3c0.3,1,0.6,1.8,1.1,2.6
	c0.5,0.8,1.1,1.5,1.8,2.1c0.7,0.6,1.5,1,2.5,1.3c0.9,0.3,1.9,0.5,3.1,0.5l0.2,0c1.3,0,2.5-0.3,3.6-0.7c1.1-0.4,2.1-1.1,2.9-2
	c0.8-0.9,1.4-1.9,1.9-3.1c0.4-1.2,0.7-2.6,0.7-4.1c0-1-0.1-2-0.4-3C162.9,18.9,162.6,18,162.1,17.2z M158.8,25.5
	c-0.2,0.8-0.5,1.4-0.9,2c-0.4,0.6-0.9,1-1.4,1.3c-0.6,0.3-1.2,0.5-1.9,0.5h0c-0.7,0-1.3-0.2-1.9-0.5c-0.6-0.3-1-0.7-1.4-1.3
	c-0.4-0.6-0.7-1.2-0.9-2c-0.2-0.8-0.3-1.6-0.3-2.5c0-0.9,0.1-1.8,0.3-2.5c0.2-0.8,0.5-1.4,0.9-2c0.4-0.6,0.9-1,1.4-1.3
	c0.6-0.3,1.2-0.5,1.9-0.5c0.7,0,1.4,0.2,1.9,0.5c0.6,0.3,1,0.8,1.4,1.4c0.4,0.6,0.7,1.2,0.9,2c0.2,0.8,0.3,1.5,0.3,2.4
	C159.1,23.9,159,24.7,158.8,25.5z M129.7,17.2h5v15.2h4.3V17.2h5.1v-3.6h-14.4V17.2z M117.2,13.6l-5.7,18.8h4.4l1.3-4.8h5.4l1.4,4.8
	h4.6l-5.8-18.8H117.2z M117.8,24.4l1.1-4c0.1-0.4,0.2-0.8,0.3-1.2c0.1-0.4,0.2-0.8,0.3-1.3c0.1-0.4,0.2-0.8,0.3-1.2h0.1l0,0.2
	c0.1,0.3,0.2,0.7,0.3,1c0.1,0.4,0.2,0.8,0.3,1.2c0.1,0.4,0.2,0.8,0.3,1.2l1.2,4H117.8z M89.9,24.4c0,1.7-0.3,2.9-0.9,3.7
	c-0.6,0.8-1.4,1.2-2.6,1.2c-1.1,0-1.9-0.4-2.5-1.2c-0.6-0.8-0.9-2-0.9-3.7V13.6h-4.3v10.5c0,2,0.3,3.6,0.9,4.9
	c0.6,1.3,1.5,2.2,2.6,2.8c1.1,0.6,2.5,0.9,4.1,0.9c1.6,0,3-0.3,4.2-0.9c1.2-0.6,2.1-1.6,2.7-2.8c0.6-1.3,0.9-2.9,0.9-4.8V13.6h-4.2
	V24.4z M107.8,22.6c-0.7-0.5-1.6-1-2.7-1.4c-0.8-0.3-1.5-0.6-2-0.8c-0.5-0.3-0.9-0.5-1.1-0.8c-0.2-0.3-0.4-0.6-0.4-1
	c0-0.3,0.1-0.6,0.3-0.9c0.2-0.3,0.5-0.5,0.9-0.7c0.4-0.2,0.9-0.2,1.5-0.3c0.6,0,1.2,0.1,1.7,0.1c0.5,0.1,0.9,0.2,1.3,0.3
	c0.4,0.1,0.7,0.3,0.9,0.4l0.9-3.4c-0.6-0.3-1.2-0.5-2-0.7c-0.8-0.2-1.7-0.3-2.8-0.3c-1.1,0-2.1,0.1-3,0.4c-0.9,0.3-1.6,0.7-2.2,1.2
	c-0.6,0.5-1.1,1.1-1.4,1.8c-0.3,0.7-0.5,1.4-0.5,2.2c0,0.9,0.2,1.7,0.6,2.4c0.4,0.7,1,1.3,1.8,1.8c0.8,0.5,1.7,1,2.7,1.3
	c0.7,0.3,1.4,0.5,1.8,0.8c0.5,0.3,0.8,0.5,1,0.8c0.2,0.3,0.3,0.6,0.3,1c0,0.4-0.1,0.8-0.3,1.1c-0.2,0.3-0.6,0.5-1,0.7
	c-0.4,0.2-1,0.3-1.6,0.3c-0.6,0-1.2-0.1-1.8-0.2c-0.6-0.1-1.1-0.3-1.6-0.4c-0.5-0.2-0.9-0.4-1.3-0.6l-0.9,3.5
	c0.4,0.2,0.8,0.4,1.4,0.6c0.6,0.2,1.2,0.3,1.8,0.4c0.7,0.1,1.4,0.2,2.1,0.2c1.3,0,2.4-0.2,3.4-0.5c1-0.3,1.7-0.7,2.4-1.3
	c0.6-0.5,1.1-1.2,1.4-1.9c0.3-0.7,0.5-1.4,0.5-2.2c0-0.9-0.2-1.7-0.5-2.4C109.1,23.8,108.5,23.2,107.8,22.6z M75.9,30.2
	c-0.1-0.5-0.3-1-0.4-1.6c-0.1-0.5-0.3-1.1-0.4-1.6c-0.2-0.9-0.5-1.6-0.9-2.2c-0.4-0.6-0.9-1-1.6-1.3v-0.1c0.4-0.1,0.8-0.4,1.2-0.6
	c0.4-0.3,0.7-0.6,1.1-1c0.3-0.4,0.6-0.8,0.8-1.3c0.2-0.5,0.3-1,0.3-1.6c0-0.9-0.1-1.6-0.4-2.3c-0.3-0.7-0.7-1.2-1.3-1.6
	c-0.7-0.5-1.5-0.9-2.5-1.1c-0.7-0.2-1.6-0.3-2.5-0.3c-0.3,0-0.7,0-1.1,0c-0.8,0-1.5,0-2.2,0.1c-0.7,0-1.3,0.1-1.9,0.1
	c-0.6,0.1-1.1,0.1-1.6,0.2v18.5h4.2V25h1.3c0.5,0,0.9,0.1,1.2,0.2c0.1,0,0.1,0.1,0.2,0.1c0.4,0.2,0.7,0.5,1,0.9
	c0.3,0.4,0.5,1,0.6,1.8c0.3,1.2,0.5,2.1,0.7,2.9c0.2,0.7,0.4,1.3,0.6,1.5h4.3c-0.1-0.2-0.2-0.5-0.3-0.8C76.2,31.2,76,30.7,75.9,30.2
	z M71.3,20.6c-0.3,0.4-0.7,0.7-1.2,0.9c-0.3,0.1-0.6,0.2-1,0.3c-0.3,0-0.5,0.1-0.9,0.1h-1.7v-5.2c0.1,0,0.4-0.1,0.7-0.1
	c0.3,0,0.7,0,1.2,0c0.2,0,0.4,0,0.6,0c0.4,0,0.8,0.1,1.1,0.3c0.5,0.2,0.8,0.5,1.1,0.9c0.3,0.4,0.4,0.9,0.4,1.4
	C71.7,19.8,71.5,20.2,71.3,20.6z"/>
<linearGradient id="SVGID_10_" gradientUnits="userSpaceOnUse" x1="251.5805" y1="8.2761" x2="248.3265" y2="8.6757">
	<stop  offset="0" style="stop-color:#D42E22"/>
	<stop  offset="1" style="stop-color:#A5261A"/>
</linearGradient>
<circle fill-rule="evenodd" clip-rule="evenodd" fill="url(#SVGID_10_)" cx="249.6" cy="8.5" r="2.4"/>
</svg>
