<?xml version="1.0" encoding="utf-8"?>
<!-- Generator: Adobe Illustrator 21.1.0, SVG Export Plug-In . SVG Version: 6.00 Build 0)  -->
<svg version="1.2" baseProfile="tiny" id="Слой_1"
	 xmlns="http://www.w3.org/2000/svg" xmlns:xlink="http://www.w3.org/1999/xlink" x="0px" y="0px" viewBox="0 0 283 44"
	 xml:space="preserve">
<g>
	<g>
		<linearGradient id="SVGID_1_" gradientUnits="userSpaceOnUse" x1="22.756" y1="19.4242" x2="-4.5226" y2="24.2342">
			<stop  offset="0" style="stop-color:#6492CD"/>
			<stop  offset="0.4579" style="stop-color:#4A6097"/>
			<stop  offset="0.81" style="stop-color:#393F75"/>
			<stop  offset="1" style="stop-color:#333368"/>
		</linearGradient>
		<path fill-rule="evenodd" fill="url(#SVGID_1_)" d="M9.8,17.8c-2.1,1.2-4.6,2-5.5,4.1c-0.4,0.9,0.2,2,1,3.1
			c0.6,0.8,1.3,1.5,1.9,2.2c-0.5-0.3-1.1-0.6-1.6-0.9c-1-1-1.9-2-2.9-3c-0.2-0.8-0.4-1.6-0.6-2.4c1.2-1.2,2.4-2.5,3.6-3.7
			C7.1,17.5,8.4,17.7,9.8,17.8z"/>
		<linearGradient id="SVGID_2_" gradientUnits="userSpaceOnUse" x1="129.6846" y1="12.5004" x2="-13.3982" y2="30.0688">
			<stop  offset="0" style="stop-color:#6492CD"/>
			<stop  offset="0.4579" style="stop-color:#4A6097"/>
			<stop  offset="0.81" style="stop-color:#393F75"/>
			<stop  offset="1" style="stop-color:#333368"/>
		</linearGradient>
		<path fill-rule="evenodd" fill="url(#SVGID_2_)" d="M36.7,17c3.5,1.4,8.7,2.6,11.5,4.9c1.5,1.2,1.8,2.8,1.3,4.1
			c-0.3,1-1.1,1.7-2.4,2.5C45.7,29,44,29.5,42.4,30c1.2-0.1,2.4-0.2,3.6-0.2c1.9-0.8,3-1.8,4.2-2.8c0.2-0.9,0.5-1.7,0.5-2.6
			c0-0.4-0.2-0.7-0.3-1c-0.4-0.5-0.3-0.6-1-1.4c-1.9-2-3.7-2.6-5.8-3.8C41.7,17.8,38.5,17.3,36.7,17z"/>
		<linearGradient id="SVGID_3_" gradientUnits="userSpaceOnUse" x1="45.6744" y1="21.1661" x2="11.2559" y2="22.3681">
			<stop  offset="0" style="stop-color:#6492CD"/>
			<stop  offset="0.4579" style="stop-color:#4A6097"/>
			<stop  offset="0.81" style="stop-color:#393F75"/>
			<stop  offset="1" style="stop-color:#333368"/>
		</linearGradient>
		<path fill-rule="evenodd" fill="url(#SVGID_3_)" d="M50.9,26.9c-0.6,1.5-2.7,2.5-4.2,2.9C42,31.3,36.2,31.2,30.9,31
			c-0.6-0.1-0.6-0.5,0.1-0.5c5.3,0.2,10.7,0,15.5-1.5c2.1-0.7,4.4-2.9,3.4-6.2c-3.3-4.3-13.9-6.1-20.6-6.5
			c-8.1-0.5-16.1-0.1-22.5,2.7c-2,0.9-3.7,2.6-3.1,4.3c0.4,1.2,2.1,2.7,3.3,3.7c0.4,0.3,0.3,0.6-0.2,0.4c-2.5-1.6-5.9-3.9-6.7-6.1
			c-1.4-3.6,2.4-6.5,7-7.5c7.3-1.6,14.6-1.9,22.9-0.5c4.6,0.8,8.8,2.1,12.3,3.9c1.5,0.8,5.7,3.1,7.7,5.7
			C51.1,24.3,51.4,25.7,50.9,26.9z"/>
	</g>
	<g>
		<linearGradient id="SVGID_4_" gradientUnits="userSpaceOnUse" x1="31.678" y1="34.9005" x2="3.8542" y2="38.3168">
			<stop  offset="0" style="stop-color:#6492CD"/>
			<stop  offset="0.4579" style="stop-color:#4A6097"/>
			<stop  offset="0.81" style="stop-color:#393F75"/>
			<stop  offset="1" style="stop-color:#333368"/>
		</linearGradient>
		<path fill-rule="evenodd" fill="url(#SVGID_4_)" d="M13,32.6c-0.1,2.4-0.7,5,0.6,6.9c0.5,0.8,1.8,0.9,3.2,0.8
			c1-0.1,1.9-0.3,2.9-0.5c-0.5,0.3-1.1,0.6-1.6,0.9c-1.3,0.3-2.7,0.6-4,0.9c-0.8-0.3-1.5-0.5-2.3-0.8c-0.4-1.7-0.8-3.4-1.2-5.1
			C11.3,34.7,12.2,33.7,13,32.6z"/>
		<linearGradient id="SVGID_5_" gradientUnits="userSpaceOnUse" x1="41.215" y1="6.2221" x2="30.1811" y2="7.1875">
			<stop  offset="0" style="stop-color:#6492CD"/>
			<stop  offset="0.4579" style="stop-color:#4A6097"/>
			<stop  offset="0.81" style="stop-color:#393F75"/>
			<stop  offset="1" style="stop-color:#333368"/>
		</linearGradient>
		<path fill-rule="evenodd" fill="url(#SVGID_5_)" d="M26.6,9.4c3.1-2.2,6.9-5.9,10.2-7.1c1.8-0.6,3.3,0,4.2,1.1
			c0.7,0.9,0.9,1.8,0.8,3.3c-0.2,1.6-0.7,3.2-1.2,4.9c0.6-1.1,1.2-2.1,1.7-3.2c0.4-2,0.1-3.5-0.1-5c-0.6-0.6-1.2-1.3-1.9-1.8
			c-0.3-0.2-0.7-0.2-1-0.3c-0.7,0.1-0.7-0.1-1.7,0.2c-2.7,0.6-4.2,1.7-6.3,2.8C30,5.6,27.9,8.1,26.6,9.4z"/>
		<linearGradient id="SVGID_6_" gradientUnits="userSpaceOnUse" x1="41.6592" y1="19.4005" x2="14.063" y2="23.7713">
			<stop  offset="0" style="stop-color:#6492CD"/>
			<stop  offset="0.4579" style="stop-color:#4A6097"/>
			<stop  offset="0.81" style="stop-color:#393F75"/>
			<stop  offset="1" style="stop-color:#333368"/>
		</linearGradient>
		<path fill-rule="evenodd" fill="url(#SVGID_6_)" d="M42.6,2.6c1,1.3,0.7,3.6,0.3,5.1c-1.3,4.8-4.5,9.7-7.4,14
			c-0.4,0.5-0.7,0.2-0.4-0.4c3-4.4,5.7-9.1,6.9-14c0.6-2.2-0.1-5.3-3.4-6.2c-5.4,0.5-12.5,8.5-16.5,14c-4.7,6.6-8.7,13.6-9.6,20.5
			c-0.3,2.2,0.2,4.5,2,4.9c1.3,0.3,3.4-0.3,4.9-0.9c0.5-0.2,0.7,0.1,0.3,0.4c-2.7,1.3-6.4,2.9-8.7,2.5c-3.8-0.7-4.2-5.5-2.6-10
			c2.5-7,6.2-13.3,11.7-19.6c3.1-3.5,6.5-6.3,9.9-8.4c1.5-0.9,5.7-3.2,9-3.5C40.5,1,41.8,1.6,42.6,2.6z"/>
	</g>
	<g>
		<linearGradient id="SVGID_7_" gradientUnits="userSpaceOnUse" x1="18.2294" y1="28.138" x2="49.375" y2="41.3585">
			<stop  offset="0" style="stop-color:#B92F1F"/>
			<stop  offset="1" style="stop-color:#6E1913"/>
		</linearGradient>
		<path fill-rule="evenodd" fill="url(#SVGID_7_)" d="M32.2,36.9c2.3,0.8,4.6,2.1,6.8,1.4c0.9-0.3,1.4-1.5,1.6-2.8
			c0.2-1,0.2-1.9,0.4-2.9c0.1,0.6,0.3,1.2,0.4,1.8c-0.1,1.4-0.2,2.7-0.3,4.1c-0.5,0.7-0.9,1.3-1.4,2c-1.7-0.1-3.5-0.2-5.2-0.2
			C33.8,39.2,33,38,32.2,36.9z"/>
		<linearGradient id="SVGID_8_" gradientUnits="userSpaceOnUse" x1="-38.3995" y1="-29.4619" x2="49.6587" y2="34.5161">
			<stop  offset="0" style="stop-color:#B92F1F"/>
			<stop  offset="1" style="stop-color:#6E1913"/>
		</linearGradient>
		<path fill-rule="evenodd" fill="url(#SVGID_8_)" d="M13.8,17.4c-1.3-3.6-3.8-8.2-4-11.8C9.7,3.6,10.7,2.4,12,1.8
			c1-0.4,2-0.3,3.4,0.1c1.4,0.7,2.9,1.6,4.3,2.5c-0.9-0.9-1.7-1.7-2.6-2.6c-1.9-0.9-3.3-1.1-4.8-1.3c-0.7,0.4-1.6,0.8-2.2,1.3
			C9.8,2.2,9.7,2.5,9.5,2.8C9.3,3.5,9.2,3.5,9.1,4.5c-0.2,2.8,0.5,4.5,1,6.9C11,13,12.8,15.8,13.8,17.4z"/>
		<linearGradient id="SVGID_9_" gradientUnits="userSpaceOnUse" x1="52.6562" y1="17.128" x2="-169.3755" y2="56.2781">
			<stop  offset="0" style="stop-color:#B92F1F"/>
			<stop  offset="1" style="stop-color:#912218"/>
		</linearGradient>
		<path fill-rule="evenodd" fill="url(#SVGID_9_)" d="M27,33c2.5,2.2,5.2,4.1,8.1,5.3c2,0.9,4.4,1.1,5.3-0.6
			c0.6-1.1,0.6-3.3,0.5-4.9c0-0.5,0.3-0.7,0.4-0.2c0.5,2.9,1,7-0.1,9.1c-1.7,3.4-6.5,2.5-10.3-0.3c-1.4-1-2.7-2-3.9-3.1V33L27,33z
			 M27,11.9v-0.8c0.4,0.4,0.7,0.8,1,1.3c0.3,0.5,0,0.8-0.5,0.2C27.4,12.4,27.2,12.1,27,11.9z M11.7,0.1c1.5-0.5,3.6,0.4,5,1.2
			c2.9,1.7,5.6,4.4,8,7.1c-0.1,0.1-0.3,0.2-0.4,0.4c-2.5-2.7-5.2-5-8.2-6.8C14.2,0.9,11,0.6,9.3,3.6C8.2,8.9,13.9,18,18.1,23.3
			c2.8,3.5,5.7,6.9,8.9,9.7v5.3c-4.3-3.7-8.1-8.2-11.6-13.7c-2.5-3.9-4.3-8-5.3-11.8c-0.4-1.6-1.5-6.4-0.8-9.6
			C9.6,1.7,10.5,0.6,11.7,0.1L11.7,0.1z M27,11.1c-0.3-0.3-0.6-0.7-0.8-1l-0.3,0.4c0.4,0.5,0.8,0.9,1.2,1.4V11.1z"/>
	</g>
	<g>
		<polygon fill="#5A7EB8" points="39.4,15.8 39.3,15.8 39.4,15.9 		"/>
		<polygon fill="#597DB7" points="39.4,15.9 39.3,15.8 39,15.7 39,16.5 		"/>
		<polygon fill="#597CB6" points="38.7,17 39,16.5 39,15.7 38.7,15.6 		"/>
		<path fill="#587BB5" d="M38.4,17.6l0.3-0.5l-0.1-1.5l-0.1,0c0,0-0.2-0.1-0.3-0.1L38.4,17.6z"/>
		<path fill="#587AB4" d="M38,17.7l0.2,0.1l0.1-0.2l-0.1-2.2c0,0-0.1,0-0.1,0L38,15.9L38,17.7z"/>
		<polygon fill="#5779B2" points="38,15.9 37.7,16.6 37.7,17.5 38,17.7 		"/>
		<polygon fill="#5678B1" points="37.7,16.6 37.3,17.2 37.4,17.4 37.7,17.5 		"/>
		<polygon fill="#5677B0" points="37.3,17.4 37.4,17.4 37.3,17.2 		"/>
	</g>
</g>
<path fill="#39383B" d="M246.1,23.9c-0.4-0.4-0.8-0.7-1.3-1c-0.5-0.2-0.9-0.4-1.4-0.5v-0.1c0.7-0.2,1.2-0.6,1.7-1
	c0.5-0.4,0.8-0.9,1.1-1.4c0.3-0.5,0.4-1.1,0.4-1.7c0-0.7-0.1-1.4-0.4-2c-0.3-0.6-0.7-1-1.2-1.4c-0.4-0.3-0.8-0.6-1.3-0.8
	c-0.5-0.2-1.1-0.4-1.7-0.5c-0.3-0.1-0.7-0.1-1-0.1c-0.4,0-0.7,0-1.1,0c-0.6,0-1.1,0-1.7,0.1c-0.5,0-1.1,0.1-1.5,0.1
	c-0.5,0.1-0.9,0.1-1.3,0.2v18.7c0.4,0.1,0.9,0.1,1.6,0.2c0.6,0,1.4,0.1,2.2,0.1c0.6,0,1.3,0,1.8-0.1c0.8-0.1,1.5-0.2,2.1-0.4
	c1.1-0.3,2-0.7,2.6-1.3c0.5-0.5,0.9-1,1.2-1.6c0.3-0.6,0.4-1.3,0.4-2.2c0-0.7-0.1-1.3-0.4-1.9C246.8,24.7,246.5,24.3,246.1,23.9z
	 M237.9,15.5c0.2,0,0.5-0.1,0.8-0.1c0.3,0,0.8-0.1,1.4-0.1c0.4,0,0.7,0,1,0.1c0.4,0,0.8,0.1,1.2,0.3c0.6,0.2,1.1,0.5,1.5,1
	c0.3,0.5,0.5,1.1,0.5,1.8c0,0.6-0.2,1.2-0.5,1.6c-0.3,0.5-0.8,0.9-1.4,1.1c-0.4,0.2-0.8,0.3-1.3,0.4c-0.3,0-0.6,0.1-0.9,0.1h-2.2
	V15.5z M244.4,28.8c-0.3,0.5-0.6,0.9-1.1,1.1c-0.5,0.3-1,0.5-1.6,0.6c-0.2,0.1-0.5,0.1-0.7,0.1c-0.4,0-0.7,0.1-1.1,0.1
	c-0.4,0-0.8,0-1.2,0c-0.3,0-0.6,0-0.9-0.1v-7.2h2c0.4,0,0.8,0,1.1,0.1c0.3,0,0.5,0.1,0.8,0.1c0.6,0.1,1.1,0.4,1.6,0.7
	c0.5,0.3,0.8,0.7,1.1,1.1c0.3,0.5,0.4,1,0.4,1.7C244.8,27.8,244.7,28.4,244.4,28.8z M256.3,23.3c-0.7,1.1-1.3,2.2-1.9,3.2
	c-0.6,1-1.1,2-1.6,3l-0.1,0c0.1-0.8,0.1-1.7,0.1-2.5c0-0.9,0.1-1.7,0.1-2.6c0-0.9,0-1.9,0-2.8v-8h-2.3v19h2.6l5.9-9.4
	c0.7-1.1,1.3-2.1,1.9-3.2c0.6-1.1,1.2-2.1,1.6-3.2l0.1,0c-0.1,0.8-0.1,1.6-0.1,2.4c0,0.8-0.1,1.6-0.1,2.5c0,0.9,0,1.8,0,2.8v8.1h2.3
	v-19h-2.4L256.3,23.3z M280.8,30.4c-0.4,0.1-0.9,0.2-1.4,0.3c-0.5,0.1-1,0.1-1.5,0.1c-1.2,0-2.2-0.2-3.1-0.5
	c-0.9-0.4-1.7-0.9-2.3-1.5c-0.6-0.7-1.1-1.5-1.4-2.4c-0.3-0.9-0.5-2-0.5-3.1c0-1.2,0.2-2.4,0.5-3.3c0.4-1,0.9-1.8,1.5-2.5
	c0.6-0.7,1.4-1.2,2.3-1.5c0.9-0.3,1.9-0.5,3-0.5c0.8,0,1.5,0.1,2.2,0.2c0.6,0.1,1.2,0.3,1.7,0.6l0.6-2c-0.2-0.1-0.5-0.2-0.9-0.4
	c-0.4-0.1-0.9-0.2-1.5-0.3c-0.6-0.1-1.3-0.1-2.1-0.1c-1.5,0-2.8,0.2-4,0.7c-1.2,0.5-2.3,1.2-3.1,2c-0.9,0.9-1.6,1.9-2,3.1
	c-0.5,1.2-0.7,2.6-0.7,4.1c0,1.6,0.2,2.9,0.7,4.1c0.5,1.2,1.1,2.2,2,3c0.8,0.8,1.8,1.4,3,1.9c1.1,0.4,2.4,0.6,3.7,0.6
	c0.8,0,1.5-0.1,2.1-0.1c0.6-0.1,1.2-0.2,1.7-0.3c0.5-0.1,0.9-0.3,1.2-0.4l-0.5-1.9C281.6,30.1,281.2,30.3,280.8,30.4z M230.5,15
	c-0.6-0.5-1.3-0.9-2.2-1.2c-0.6-0.2-1.3-0.3-2-0.4c-0.4,0-0.7,0-1.1,0c-1,0-1.9,0-2.6,0.1c-0.8,0.1-1.5,0.2-2.1,0.3v18.7h2.4v-7.6
	c0.3,0.1,0.6,0.1,0.9,0.1c0.3,0,0.7,0,1,0c0.5,0,1,0,1.4-0.1c0.3,0,0.6-0.1,0.9-0.1c0.7-0.2,1.4-0.4,2-0.7c0.6-0.3,1.1-0.7,1.5-1.2
	c0.5-0.5,0.8-1.1,1.1-1.8c0.2-0.7,0.4-1.4,0.4-2.3c0-0.9-0.1-1.6-0.4-2.3C231.4,16,231,15.5,230.5,15z M229.1,21.3
	c-0.4,0.6-0.9,1.1-1.6,1.4c-0.4,0.2-0.8,0.3-1.2,0.4c-0.4,0.1-0.9,0.1-1.4,0.1c-0.4,0-0.8,0-1.1,0c-0.3,0-0.6-0.1-0.9-0.2v-7.4
	c0.2-0.1,0.5-0.1,0.9-0.1c0.4,0,0.9-0.1,1.4-0.1c0.4,0,0.7,0,1.1,0.1c0.5,0.1,0.9,0.2,1.3,0.3c0.7,0.3,1.2,0.7,1.6,1.2
	c0.4,0.5,0.6,1.2,0.6,2.1C229.7,20,229.5,20.7,229.1,21.3z M161.9,17.2c-0.5-0.8-1.1-1.5-1.8-2.1c-0.7-0.6-1.6-1-2.5-1.4
	c-1-0.3-2-0.5-3.2-0.5l-0.1,0c-1.4,0-2.6,0.3-3.7,0.7c-1.1,0.5-2.1,1.2-2.9,2.1c-0.8,0.9-1.4,1.9-1.9,3.2c-0.4,1.2-0.7,2.5-0.7,3.9
	c0,1.1,0.1,2.1,0.4,3.1c0.3,1,0.6,1.9,1.1,2.7c0.5,0.8,1.1,1.5,1.8,2.1c0.7,0.6,1.6,1,2.5,1.4c0.9,0.3,2,0.5,3.1,0.5l0.2,0
	c1.3,0,2.5-0.3,3.6-0.7c1.1-0.5,2.1-1.1,2.9-2c0.8-0.9,1.5-1.9,1.9-3.1c0.4-1.2,0.7-2.6,0.7-4.2c0-1.1-0.1-2.1-0.4-3
	C162.8,18.9,162.4,18,161.9,17.2z M158.6,25.6c-0.2,0.8-0.5,1.5-0.9,2c-0.4,0.6-0.9,1-1.4,1.4c-0.6,0.3-1.2,0.5-1.9,0.5h0
	c-0.7,0-1.3-0.2-1.9-0.5c-0.6-0.3-1.1-0.7-1.5-1.3c-0.4-0.6-0.7-1.2-0.9-2c-0.2-0.8-0.3-1.6-0.3-2.6c0-0.9,0.1-1.8,0.3-2.6
	c0.2-0.8,0.5-1.5,0.9-2c0.4-0.6,0.9-1,1.4-1.4c0.6-0.3,1.2-0.5,1.9-0.5c0.7,0,1.4,0.2,2,0.5c0.6,0.3,1,0.8,1.4,1.4
	c0.4,0.6,0.7,1.3,0.9,2c0.2,0.8,0.3,1.6,0.3,2.4C158.9,23.9,158.8,24.8,158.6,25.6z M180.1,13.6l-2,6.3c-0.2,0.7-0.4,1.4-0.6,2.2
	c-0.2,0.8-0.4,1.5-0.6,2.3c-0.2,0.8-0.4,1.5-0.6,2.3h-0.1c-0.1-0.7-0.3-1.5-0.5-2.3c-0.2-0.8-0.4-1.5-0.5-2.3
	c-0.2-0.8-0.4-1.5-0.6-2.2l-1.9-6.3H167l-1.2,19h4l0.3-7.2c0-0.8,0.1-1.6,0.1-2.5c0-0.9,0.1-1.8,0.1-2.7c0-0.9,0.1-1.8,0.1-2.6h0.1
	c0.1,0.8,0.3,1.7,0.5,2.5c0.2,0.9,0.4,1.7,0.6,2.5c0.2,0.8,0.4,1.6,0.6,2.4l2,7.3h3.3l2.3-7.4c0.2-0.7,0.5-1.5,0.7-2.4
	c0.2-0.8,0.5-1.7,0.7-2.5c0.2-0.8,0.5-1.7,0.6-2.5h0.1c0,0.9,0,1.8,0,2.7c0,0.9,0,1.8,0.1,2.6c0,0.8,0.1,1.7,0.1,2.4l0.3,7.3h4.2
	l-1-19H180.1z M193.8,17.4c0.7-0.7,1.4-1.2,2.3-1.5c0.9-0.3,1.9-0.5,3-0.5c0.8,0,1.5,0.1,2.2,0.2c0.6,0.1,1.2,0.3,1.7,0.6l0.6-2
	c-0.2-0.1-0.5-0.2-0.9-0.4c-0.4-0.1-0.9-0.2-1.5-0.3c-0.6-0.1-1.3-0.1-2.1-0.1c-1.5,0-2.8,0.2-4,0.7c-1.2,0.5-2.2,1.2-3.1,2
	c-0.9,0.9-1.6,1.9-2,3.1c-0.5,1.2-0.7,2.6-0.7,4.1c0,1.6,0.2,2.9,0.7,4.1c0.5,1.2,1.1,2.2,2,3c0.8,0.8,1.8,1.4,3,1.9
	c1.1,0.4,2.4,0.6,3.7,0.6c0.8,0,1.5-0.1,2.1-0.1c0.6-0.1,1.2-0.2,1.7-0.3c0.5-0.1,0.9-0.3,1.2-0.4l-0.5-1.9
	c-0.3,0.2-0.7,0.3-1.1,0.4c-0.4,0.1-0.9,0.2-1.4,0.3c-0.5,0.1-1,0.1-1.5,0.1c-1.2,0-2.2-0.2-3.1-0.5c-0.9-0.4-1.7-0.9-2.3-1.5
	c-0.6-0.7-1.1-1.5-1.4-2.4c-0.3-0.9-0.5-2-0.5-3.1c0-1.2,0.2-2.4,0.5-3.3C192.7,18.9,193.2,18,193.8,17.4z M209.1,23.6h7.4v-2h-7.4
	v-6h7.8v-2.1h-10.2v19h10.7v-2.1h-8.2V23.6z M116.6,13.6l-5.8,19h4.4l1.3-4.9h5.4l1.5,4.9h4.6l-5.9-19H116.6z M117.2,24.5l1.1-4
	c0.1-0.4,0.2-0.8,0.3-1.2c0.1-0.4,0.2-0.8,0.3-1.3c0.1-0.4,0.2-0.8,0.3-1.2h0.1l0,0.2c0.1,0.3,0.2,0.7,0.3,1
	c0.1,0.4,0.2,0.8,0.3,1.3c0.1,0.4,0.2,0.8,0.3,1.2l1.2,4H117.2z M129.2,17.2h5.1v15.4h4.3V17.2h5.2v-3.6h-14.6V17.2z M75.2,16.1
	c-0.3-0.4-0.7-0.8-1.1-1.1c-0.6-0.5-1.4-0.9-2.4-1.1c-0.7-0.2-1.5-0.3-2.4-0.4c-0.3,0-0.7,0-1,0c-1.3,0-2.4,0-3.4,0.1
	c-1,0.1-1.8,0.2-2.4,0.3v18.7h4.2v-6.8c0.2,0,0.4,0,0.7,0.1c0.2,0,0.5,0,0.8,0c0.4,0,0.7,0,1.1,0c0.9-0.1,1.6-0.2,2.4-0.4
	c1-0.3,1.9-0.8,2.7-1.5c0.6-0.5,1-1.2,1.3-2c0.3-0.8,0.5-1.6,0.5-2.5c0-0.6-0.1-1.2-0.3-1.7C75.8,17,75.5,16.5,75.2,16.1z
	 M71.5,21.1c-0.3,0.5-0.7,0.8-1.3,1.1c-0.3,0.1-0.5,0.2-0.8,0.3c-0.3,0.1-0.7,0.1-1.1,0.1c-0.3,0-0.6,0-0.8,0c-0.2,0-0.4,0-0.6-0.1
	v-5.6c0.2,0,0.4-0.1,0.7-0.1c0.3,0,0.7-0.1,1.1-0.1c0.3,0,0.5,0,0.8,0.1c0.7,0.1,1.3,0.3,1.7,0.7c0.6,0.5,0.9,1.2,0.9,2
	C71.9,20.1,71.8,20.7,71.5,21.1z M87.2,20.3c-0.2,0.8-0.4,1.5-0.6,2.1c-0.2,0.6-0.3,1.1-0.4,1.5h-0.1c-0.2-0.6-0.4-1.1-0.6-1.7
	c-0.2-0.6-0.4-1.2-0.7-1.9L82,13.6h-4.8l6.4,13.1c0.1,0.2,0.1,0.3,0.1,0.4c0,0.1,0,0.3-0.1,0.4c-0.1,0.3-0.3,0.6-0.5,0.8
	c-0.2,0.3-0.5,0.5-0.9,0.7c-0.3,0.2-0.7,0.3-1.2,0.3c-0.3,0-0.6,0-0.8,0c-0.2,0-0.4-0.1-0.6-0.1l-0.3,3.4c0.3,0.1,0.6,0.2,0.9,0.2
	c0.3,0.1,0.7,0.1,1.2,0.1c1.1,0,2.1-0.2,2.9-0.7c0.8-0.4,1.5-1.1,2.1-1.8c0.5-0.6,0.9-1.3,1.3-2.1c0.4-0.8,0.8-1.7,1.2-2.6
	c0.4-0.9,0.8-1.9,1.2-2.9l3.5-9.3h-4.5L87.2,20.3z M100.8,18.4c0.5-0.5,1.2-0.9,1.9-1.2c0.7-0.3,1.5-0.4,2.4-0.4
	c0.8,0,1.4,0.1,2,0.2c0.6,0.1,1.1,0.3,1.6,0.5l0.9-3.4c-0.3-0.1-0.6-0.3-1.1-0.4c-0.4-0.1-1-0.2-1.6-0.3c-0.6-0.1-1.3-0.1-2-0.1
	c-1.2,0-2.2,0.1-3.3,0.4c-1,0.3-2,0.7-2.8,1.3c-0.9,0.6-1.6,1.2-2.2,2c-0.6,0.8-1.1,1.8-1.5,2.8c-0.3,1.1-0.5,2.2-0.5,3.5
	c0,1.4,0.2,2.6,0.6,3.8c0.4,1.2,1,2.2,1.9,3c0.8,0.9,1.9,1.5,3.1,2c1.2,0.5,2.7,0.7,4.3,0.7c0.8,0,1.5,0,2.1-0.1
	c0.6-0.1,1.2-0.2,1.7-0.3c0.5-0.1,0.8-0.3,1.1-0.4l-0.6-3.3c-0.3,0.1-0.6,0.2-1,0.3c-0.4,0.1-0.8,0.2-1.2,0.2
	c-0.4,0.1-0.9,0.1-1.3,0.1c-1.3,0-2.4-0.3-3.3-0.8c-0.9-0.5-1.6-1.2-2.1-2.1c-0.5-0.9-0.7-2-0.7-3.3c0-1.1,0.2-2,0.5-2.8
	C99.9,19.5,100.3,18.9,100.8,18.4z"/>
</svg>
